<?xml version="1.0" encoding="utf-8" standalone="no"?>
<!DOCTYPE svg PUBLIC "-//W3C//DTD SVG 1.1//EN"
  "http://www.w3.org/Graphics/SVG/1.1/DTD/svg11.dtd">
<!-- Created with matplotlib (https://matplotlib.org/) -->
<svg height="360pt" version="1.1" viewBox="0 0 438.125 360" width="438.125pt" xmlns="http://www.w3.org/2000/svg" xmlns:xlink="http://www.w3.org/1999/xlink">
 <defs>
  <style type="text/css">
*{stroke-linecap:butt;stroke-linejoin:round;}
  </style>
 </defs>
 <g id="figure_1">
  <g id="patch_1">
   <path d="M 0 360 
L 438.125 360 
L 438.125 0 
L 0 0 
z
" style="fill:#ffffff;"/>
  </g>
  <g id="axes_1">
   <g id="patch_2">
    <path d="M 44.329731 320.2 
L 355.61875 320.2 
L 355.61875 14.3 
L 44.329731 14.3 
z
" style="fill:#ffffff;"/>
   </g>
   <g id="matplotlib.axis_1">
    <g id="xtick_1">
     <g id="text_1">
      <!-- 2 -->
      <defs>
       <path d="M 50.34375 8.453125 
L 50.34375 0 
L 3.03125 0 
Q 2.9375 3.171875 4.046875 6.109375 
Q 5.859375 10.9375 9.828125 15.625 
Q 13.8125 20.3125 21.34375 26.46875 
Q 33.015625 36.03125 37.109375 41.625 
Q 41.21875 47.21875 41.21875 52.203125 
Q 41.21875 57.421875 37.46875 61 
Q 33.734375 64.59375 27.734375 64.59375 
Q 21.390625 64.59375 17.578125 60.78125 
Q 13.765625 56.984375 13.71875 50.25 
L 4.6875 51.171875 
Q 5.609375 61.28125 11.65625 66.578125 
Q 17.71875 71.875 27.9375 71.875 
Q 38.234375 71.875 44.234375 66.15625 
Q 50.25 60.453125 50.25 52 
Q 50.25 47.703125 48.484375 43.546875 
Q 46.734375 39.40625 42.65625 34.8125 
Q 38.578125 30.21875 29.109375 22.21875 
Q 21.1875 15.578125 18.9375 13.203125 
Q 16.703125 10.84375 15.234375 8.453125 
z
" id="ArialMT-50"/>
      </defs>
      <g style="fill:#262626;" transform="translate(58.151262 335.789375)scale(0.12 -0.12)">
       <use xlink:href="#ArialMT-50"/>
      </g>
     </g>
    </g>
    <g id="xtick_2">
     <g id="text_2">
      <!-- 3 -->
      <defs>
       <path d="M 4.203125 18.890625 
L 12.984375 20.0625 
Q 14.5 12.59375 18.140625 9.296875 
Q 21.78125 6 27 6 
Q 33.203125 6 37.46875 10.296875 
Q 41.75 14.59375 41.75 20.953125 
Q 41.75 27 37.796875 30.921875 
Q 33.84375 34.859375 27.734375 34.859375 
Q 25.25 34.859375 21.53125 33.890625 
L 22.515625 41.609375 
Q 23.390625 41.5 23.921875 41.5 
Q 29.546875 41.5 34.03125 44.421875 
Q 38.53125 47.359375 38.53125 53.46875 
Q 38.53125 58.296875 35.25 61.46875 
Q 31.984375 64.65625 26.8125 64.65625 
Q 21.6875 64.65625 18.265625 61.421875 
Q 14.84375 58.203125 13.875 51.765625 
L 5.078125 53.328125 
Q 6.6875 62.15625 12.390625 67.015625 
Q 18.109375 71.875 26.609375 71.875 
Q 32.46875 71.875 37.390625 69.359375 
Q 42.328125 66.84375 44.9375 62.5 
Q 47.5625 58.15625 47.5625 53.265625 
Q 47.5625 48.640625 45.0625 44.828125 
Q 42.578125 41.015625 37.703125 38.765625 
Q 44.046875 37.3125 47.5625 32.6875 
Q 51.078125 28.078125 51.078125 21.140625 
Q 51.078125 11.765625 44.234375 5.25 
Q 37.40625 -1.265625 26.953125 -1.265625 
Q 17.53125 -1.265625 11.296875 4.34375 
Q 5.078125 9.96875 4.203125 18.890625 
z
" id="ArialMT-51"/>
      </defs>
      <g style="fill:#262626;" transform="translate(97.718809 335.789375)scale(0.12 -0.12)">
       <use xlink:href="#ArialMT-51"/>
      </g>
     </g>
    </g>
    <g id="xtick_3">
     <g id="text_3">
      <!-- 4 -->
      <defs>
       <path d="M 32.328125 0 
L 32.328125 17.140625 
L 1.265625 17.140625 
L 1.265625 25.203125 
L 33.9375 71.578125 
L 41.109375 71.578125 
L 41.109375 25.203125 
L 50.78125 25.203125 
L 50.78125 17.140625 
L 41.109375 17.140625 
L 41.109375 0 
z
M 32.328125 25.203125 
L 32.328125 57.46875 
L 9.90625 25.203125 
z
" id="ArialMT-52"/>
      </defs>
      <g style="fill:#262626;" transform="translate(137.286357 335.789375)scale(0.12 -0.12)">
       <use xlink:href="#ArialMT-52"/>
      </g>
     </g>
    </g>
    <g id="xtick_4">
     <g id="text_4">
      <!-- 5 -->
      <defs>
       <path d="M 4.15625 18.75 
L 13.375 19.53125 
Q 14.40625 12.796875 18.140625 9.390625 
Q 21.875 6 27.15625 6 
Q 33.5 6 37.890625 10.78125 
Q 42.28125 15.578125 42.28125 23.484375 
Q 42.28125 31 38.0625 35.34375 
Q 33.84375 39.703125 27 39.703125 
Q 22.75 39.703125 19.328125 37.765625 
Q 15.921875 35.84375 13.96875 32.765625 
L 5.71875 33.84375 
L 12.640625 70.609375 
L 48.25 70.609375 
L 48.25 62.203125 
L 19.671875 62.203125 
L 15.828125 42.96875 
Q 22.265625 47.46875 29.34375 47.46875 
Q 38.71875 47.46875 45.15625 40.96875 
Q 51.609375 34.46875 51.609375 24.265625 
Q 51.609375 14.546875 45.953125 7.46875 
Q 39.0625 -1.21875 27.15625 -1.21875 
Q 17.390625 -1.21875 11.203125 4.25 
Q 5.03125 9.71875 4.15625 18.75 
z
" id="ArialMT-53"/>
      </defs>
      <g style="fill:#262626;" transform="translate(176.853904 335.789375)scale(0.12 -0.12)">
       <use xlink:href="#ArialMT-53"/>
      </g>
     </g>
    </g>
    <g id="xtick_5">
     <g id="text_5">
      <!-- 6 -->
      <defs>
       <path d="M 49.75 54.046875 
L 41.015625 53.375 
Q 39.84375 58.546875 37.703125 60.890625 
Q 34.125 64.65625 28.90625 64.65625 
Q 24.703125 64.65625 21.53125 62.3125 
Q 17.390625 59.28125 14.984375 53.46875 
Q 12.59375 47.65625 12.5 36.921875 
Q 15.671875 41.75 20.265625 44.09375 
Q 24.859375 46.4375 29.890625 46.4375 
Q 38.671875 46.4375 44.84375 39.96875 
Q 51.03125 33.5 51.03125 23.25 
Q 51.03125 16.5 48.125 10.71875 
Q 45.21875 4.9375 40.140625 1.859375 
Q 35.0625 -1.21875 28.609375 -1.21875 
Q 17.625 -1.21875 10.6875 6.859375 
Q 3.765625 14.9375 3.765625 33.5 
Q 3.765625 54.25 11.421875 63.671875 
Q 18.109375 71.875 29.4375 71.875 
Q 37.890625 71.875 43.28125 67.140625 
Q 48.6875 62.40625 49.75 54.046875 
z
M 13.875 23.1875 
Q 13.875 18.65625 15.796875 14.5 
Q 17.71875 10.359375 21.1875 8.171875 
Q 24.65625 6 28.46875 6 
Q 34.03125 6 38.03125 10.484375 
Q 42.046875 14.984375 42.046875 22.703125 
Q 42.046875 30.125 38.078125 34.390625 
Q 34.125 38.671875 28.125 38.671875 
Q 22.171875 38.671875 18.015625 34.390625 
Q 13.875 30.125 13.875 23.1875 
z
" id="ArialMT-54"/>
      </defs>
      <g style="fill:#262626;" transform="translate(216.421452 335.789375)scale(0.12 -0.12)">
       <use xlink:href="#ArialMT-54"/>
      </g>
     </g>
    </g>
    <g id="xtick_6">
     <g id="text_6">
      <!-- 7 -->
      <defs>
       <path d="M 4.734375 62.203125 
L 4.734375 70.65625 
L 51.078125 70.65625 
L 51.078125 63.8125 
Q 44.234375 56.546875 37.515625 44.484375 
Q 30.8125 32.421875 27.15625 19.671875 
Q 24.515625 10.6875 23.78125 0 
L 14.75 0 
Q 14.890625 8.453125 18.0625 20.40625 
Q 21.234375 32.375 27.171875 43.484375 
Q 33.109375 54.59375 39.796875 62.203125 
z
" id="ArialMT-55"/>
      </defs>
      <g style="fill:#262626;" transform="translate(255.988999 335.789375)scale(0.12 -0.12)">
       <use xlink:href="#ArialMT-55"/>
      </g>
     </g>
    </g>
    <g id="xtick_7">
     <g id="text_7">
      <!-- 8 -->
      <defs>
       <path d="M 17.671875 38.8125 
Q 12.203125 40.828125 9.5625 44.53125 
Q 6.9375 48.25 6.9375 53.421875 
Q 6.9375 61.234375 12.546875 66.546875 
Q 18.171875 71.875 27.484375 71.875 
Q 36.859375 71.875 42.578125 66.421875 
Q 48.296875 60.984375 48.296875 53.171875 
Q 48.296875 48.1875 45.671875 44.5 
Q 43.0625 40.828125 37.75 38.8125 
Q 44.34375 36.671875 47.78125 31.875 
Q 51.21875 27.09375 51.21875 20.453125 
Q 51.21875 11.28125 44.71875 5.03125 
Q 38.234375 -1.21875 27.640625 -1.21875 
Q 17.046875 -1.21875 10.546875 5.046875 
Q 4.046875 11.328125 4.046875 20.703125 
Q 4.046875 27.6875 7.59375 32.390625 
Q 11.140625 37.109375 17.671875 38.8125 
z
M 15.921875 53.71875 
Q 15.921875 48.640625 19.1875 45.40625 
Q 22.46875 42.1875 27.6875 42.1875 
Q 32.765625 42.1875 36.015625 45.375 
Q 39.265625 48.578125 39.265625 53.21875 
Q 39.265625 58.0625 35.90625 61.359375 
Q 32.5625 64.65625 27.59375 64.65625 
Q 22.5625 64.65625 19.234375 61.421875 
Q 15.921875 58.203125 15.921875 53.71875 
z
M 13.09375 20.65625 
Q 13.09375 16.890625 14.875 13.375 
Q 16.65625 9.859375 20.171875 7.921875 
Q 23.6875 6 27.734375 6 
Q 34.03125 6 38.125 10.046875 
Q 42.234375 14.109375 42.234375 20.359375 
Q 42.234375 26.703125 38.015625 30.859375 
Q 33.796875 35.015625 27.4375 35.015625 
Q 21.234375 35.015625 17.15625 30.90625 
Q 13.09375 26.8125 13.09375 20.65625 
z
" id="ArialMT-56"/>
      </defs>
      <g style="fill:#262626;" transform="translate(295.556547 335.789375)scale(0.12 -0.12)">
       <use xlink:href="#ArialMT-56"/>
      </g>
     </g>
    </g>
    <g id="xtick_8">
     <g id="text_8">
      <!-- 9 -->
      <defs>
       <path d="M 5.46875 16.546875 
L 13.921875 17.328125 
Q 14.984375 11.375 18.015625 8.6875 
Q 21.046875 6 25.78125 6 
Q 29.828125 6 32.875 7.859375 
Q 35.9375 9.71875 37.890625 12.8125 
Q 39.84375 15.921875 41.15625 21.1875 
Q 42.484375 26.46875 42.484375 31.9375 
Q 42.484375 32.515625 42.4375 33.6875 
Q 39.796875 29.5 35.234375 26.875 
Q 30.671875 24.265625 25.34375 24.265625 
Q 16.453125 24.265625 10.296875 30.703125 
Q 4.15625 37.15625 4.15625 47.703125 
Q 4.15625 58.59375 10.578125 65.234375 
Q 17 71.875 26.65625 71.875 
Q 33.640625 71.875 39.421875 68.109375 
Q 45.21875 64.359375 48.21875 57.390625 
Q 51.21875 50.4375 51.21875 37.25 
Q 51.21875 23.53125 48.234375 15.40625 
Q 45.265625 7.28125 39.375 3.03125 
Q 33.5 -1.21875 25.59375 -1.21875 
Q 17.1875 -1.21875 11.859375 3.4375 
Q 6.546875 8.109375 5.46875 16.546875 
z
M 41.453125 48.140625 
Q 41.453125 55.71875 37.421875 60.15625 
Q 33.40625 64.59375 27.734375 64.59375 
Q 21.875 64.59375 17.53125 59.8125 
Q 13.1875 55.03125 13.1875 47.40625 
Q 13.1875 40.578125 17.3125 36.296875 
Q 21.4375 32.03125 27.484375 32.03125 
Q 33.59375 32.03125 37.515625 36.296875 
Q 41.453125 40.578125 41.453125 48.140625 
z
" id="ArialMT-57"/>
      </defs>
      <g style="fill:#262626;" transform="translate(335.124094 335.789375)scale(0.12 -0.12)">
       <use xlink:href="#ArialMT-57"/>
      </g>
     </g>
    </g>
    <g id="text_9">
     <!-- Day -->
     <defs>
      <path d="M 7.71875 0 
L 7.71875 71.578125 
L 32.375 71.578125 
Q 40.71875 71.578125 45.125 70.5625 
Q 51.265625 69.140625 55.609375 65.4375 
Q 61.28125 60.640625 64.078125 53.1875 
Q 66.890625 45.75 66.890625 36.1875 
Q 66.890625 28.03125 64.984375 21.734375 
Q 63.09375 15.4375 60.109375 11.296875 
Q 57.125 7.171875 53.578125 4.796875 
Q 50.046875 2.4375 45.046875 1.21875 
Q 40.046875 0 33.546875 0 
z
M 17.1875 8.453125 
L 32.46875 8.453125 
Q 39.546875 8.453125 43.578125 9.765625 
Q 47.609375 11.078125 50 13.484375 
Q 53.375 16.84375 55.25 22.53125 
Q 57.125 28.21875 57.125 36.328125 
Q 57.125 47.5625 53.4375 53.59375 
Q 49.75 59.625 44.484375 61.671875 
Q 40.671875 63.140625 32.234375 63.140625 
L 17.1875 63.140625 
z
" id="ArialMT-68"/>
      <path d="M 40.4375 6.390625 
Q 35.546875 2.25 31.03125 0.53125 
Q 26.515625 -1.171875 21.34375 -1.171875 
Q 12.796875 -1.171875 8.203125 3 
Q 3.609375 7.171875 3.609375 13.671875 
Q 3.609375 17.484375 5.34375 20.625 
Q 7.078125 23.78125 9.890625 25.6875 
Q 12.703125 27.59375 16.21875 28.5625 
Q 18.796875 29.25 24.03125 29.890625 
Q 34.671875 31.15625 39.703125 32.90625 
Q 39.75 34.71875 39.75 35.203125 
Q 39.75 40.578125 37.25 42.78125 
Q 33.890625 45.75 27.25 45.75 
Q 21.046875 45.75 18.09375 43.578125 
Q 15.140625 41.40625 13.71875 35.890625 
L 5.125 37.0625 
Q 6.296875 42.578125 8.984375 45.96875 
Q 11.671875 49.359375 16.75 51.1875 
Q 21.828125 53.03125 28.515625 53.03125 
Q 35.15625 53.03125 39.296875 51.46875 
Q 43.453125 49.90625 45.40625 47.53125 
Q 47.359375 45.171875 48.140625 41.546875 
Q 48.578125 39.3125 48.578125 33.453125 
L 48.578125 21.734375 
Q 48.578125 9.46875 49.140625 6.21875 
Q 49.703125 2.984375 51.375 0 
L 42.1875 0 
Q 40.828125 2.734375 40.4375 6.390625 
z
M 39.703125 26.03125 
Q 34.90625 24.078125 25.34375 22.703125 
Q 19.921875 21.921875 17.671875 20.9375 
Q 15.4375 19.96875 14.203125 18.09375 
Q 12.984375 16.21875 12.984375 13.921875 
Q 12.984375 10.40625 15.640625 8.0625 
Q 18.3125 5.71875 23.4375 5.71875 
Q 28.515625 5.71875 32.46875 7.9375 
Q 36.421875 10.15625 38.28125 14.015625 
Q 39.703125 17 39.703125 22.796875 
z
" id="ArialMT-97"/>
      <path d="M 6.203125 -19.96875 
L 5.21875 -11.71875 
Q 8.109375 -12.5 10.25 -12.5 
Q 13.1875 -12.5 14.9375 -11.515625 
Q 16.703125 -10.546875 17.828125 -8.796875 
Q 18.65625 -7.46875 20.515625 -2.25 
Q 20.75 -1.515625 21.296875 -0.09375 
L 1.609375 51.859375 
L 11.078125 51.859375 
L 21.875 21.828125 
Q 23.96875 16.109375 25.640625 9.8125 
Q 27.15625 15.875 29.25 21.625 
L 40.328125 51.859375 
L 49.125 51.859375 
L 29.390625 -0.875 
Q 26.21875 -9.421875 24.46875 -12.640625 
Q 22.125 -17 19.09375 -19.015625 
Q 16.0625 -21.046875 11.859375 -21.046875 
Q 9.328125 -21.046875 6.203125 -19.96875 
z
" id="ArialMT-121"/>
     </defs>
     <g style="fill:#262626;" transform="translate(186.637131 352.911094)scale(0.15 -0.15)">
      <use xlink:href="#ArialMT-68"/>
      <use x="72.216797" xlink:href="#ArialMT-97"/>
      <use x="127.832031" xlink:href="#ArialMT-121"/>
     </g>
    </g>
   </g>
   <g id="matplotlib.axis_2">
    <g id="ytick_1">
     <g id="text_10">
      <!-- 0 -->
      <defs>
       <path d="M 4.15625 35.296875 
Q 4.15625 48 6.765625 55.734375 
Q 9.375 63.484375 14.515625 67.671875 
Q 19.671875 71.875 27.484375 71.875 
Q 33.25 71.875 37.59375 69.546875 
Q 41.9375 67.234375 44.765625 62.859375 
Q 47.609375 58.5 49.21875 52.21875 
Q 50.828125 45.953125 50.828125 35.296875 
Q 50.828125 22.703125 48.234375 14.96875 
Q 45.65625 7.234375 40.5 3 
Q 35.359375 -1.21875 27.484375 -1.21875 
Q 17.140625 -1.21875 11.234375 6.203125 
Q 4.15625 15.140625 4.15625 35.296875 
z
M 13.1875 35.296875 
Q 13.1875 17.671875 17.3125 11.828125 
Q 21.4375 6 27.484375 6 
Q 33.546875 6 37.671875 11.859375 
Q 41.796875 17.71875 41.796875 35.296875 
Q 41.796875 52.984375 37.671875 58.78125 
Q 33.546875 64.59375 27.390625 64.59375 
Q 21.34375 64.59375 17.71875 59.46875 
Q 13.1875 52.9375 13.1875 35.296875 
z
" id="ArialMT-48"/>
      </defs>
      <g style="fill:#262626;" transform="translate(30.656606 298.743421)scale(0.12 -0.12)">
       <use xlink:href="#ArialMT-48"/>
      </g>
     </g>
    </g>
    <g id="ytick_2">
     <g id="text_11">
      <!-- 1 -->
      <defs>
       <path d="M 37.25 0 
L 28.46875 0 
L 28.46875 56 
Q 25.296875 52.984375 20.140625 49.953125 
Q 14.984375 46.921875 10.890625 45.40625 
L 10.890625 53.90625 
Q 18.265625 57.375 23.78125 62.296875 
Q 29.296875 67.234375 31.59375 71.875 
L 37.25 71.875 
z
" id="ArialMT-49"/>
      </defs>
      <g style="fill:#262626;" transform="translate(30.656606 260.624628)scale(0.12 -0.12)">
       <use xlink:href="#ArialMT-49"/>
      </g>
     </g>
    </g>
    <g id="ytick_3">
     <g id="text_12">
      <!-- 2 -->
      <g style="fill:#262626;" transform="translate(30.656606 222.505836)scale(0.12 -0.12)">
       <use xlink:href="#ArialMT-50"/>
      </g>
     </g>
    </g>
    <g id="ytick_4">
     <g id="text_13">
      <!-- 3 -->
      <g style="fill:#262626;" transform="translate(30.656606 184.387044)scale(0.12 -0.12)">
       <use xlink:href="#ArialMT-51"/>
      </g>
     </g>
    </g>
    <g id="ytick_5">
     <g id="text_14">
      <!-- 4 -->
      <g style="fill:#262626;" transform="translate(30.656606 146.268251)scale(0.12 -0.12)">
       <use xlink:href="#ArialMT-52"/>
      </g>
     </g>
    </g>
    <g id="ytick_6">
     <g id="text_15">
      <!-- 5 -->
      <g style="fill:#262626;" transform="translate(30.656606 108.149459)scale(0.12 -0.12)">
       <use xlink:href="#ArialMT-53"/>
      </g>
     </g>
    </g>
    <g id="ytick_7">
     <g id="text_16">
      <!-- 6 -->
      <g style="fill:#262626;" transform="translate(30.656606 70.030666)scale(0.12 -0.12)">
       <use xlink:href="#ArialMT-54"/>
      </g>
     </g>
    </g>
    <g id="ytick_8">
     <g id="text_17">
      <!-- 7 -->
      <g style="fill:#262626;" transform="translate(30.656606 31.911874)scale(0.12 -0.12)">
       <use xlink:href="#ArialMT-55"/>
      </g>
     </g>
    </g>
    <g id="text_18">
     <!-- Caffeine -->
     <defs>
      <path d="M 58.796875 25.09375 
L 68.265625 22.703125 
Q 65.28125 11.03125 57.546875 4.90625 
Q 49.8125 -1.21875 38.625 -1.21875 
Q 27.046875 -1.21875 19.796875 3.484375 
Q 12.546875 8.203125 8.765625 17.140625 
Q 4.984375 26.078125 4.984375 36.328125 
Q 4.984375 47.515625 9.25 55.828125 
Q 13.53125 64.15625 21.40625 68.46875 
Q 29.296875 72.796875 38.765625 72.796875 
Q 49.515625 72.796875 56.828125 67.328125 
Q 64.15625 61.859375 67.046875 51.953125 
L 57.71875 49.75 
Q 55.21875 57.5625 50.484375 61.125 
Q 45.75 64.703125 38.578125 64.703125 
Q 30.328125 64.703125 24.78125 60.734375 
Q 19.234375 56.78125 16.984375 50.109375 
Q 14.75 43.453125 14.75 36.375 
Q 14.75 27.25 17.40625 20.4375 
Q 20.0625 13.625 25.671875 10.25 
Q 31.296875 6.890625 37.84375 6.890625 
Q 45.796875 6.890625 51.3125 11.46875 
Q 56.84375 16.0625 58.796875 25.09375 
z
" id="ArialMT-67"/>
      <path d="M 8.6875 0 
L 8.6875 45.015625 
L 0.921875 45.015625 
L 0.921875 51.859375 
L 8.6875 51.859375 
L 8.6875 57.375 
Q 8.6875 62.59375 9.625 65.140625 
Q 10.890625 68.5625 14.078125 70.671875 
Q 17.28125 72.796875 23.046875 72.796875 
Q 26.765625 72.796875 31.25 71.921875 
L 29.9375 64.265625 
Q 27.203125 64.75 24.75 64.75 
Q 20.75 64.75 19.09375 63.03125 
Q 17.4375 61.328125 17.4375 56.640625 
L 17.4375 51.859375 
L 27.546875 51.859375 
L 27.546875 45.015625 
L 17.4375 45.015625 
L 17.4375 0 
z
" id="ArialMT-102"/>
      <path d="M 42.09375 16.703125 
L 51.171875 15.578125 
Q 49.03125 7.625 43.21875 3.21875 
Q 37.40625 -1.171875 28.375 -1.171875 
Q 17 -1.171875 10.328125 5.828125 
Q 3.65625 12.84375 3.65625 25.484375 
Q 3.65625 38.578125 10.390625 45.796875 
Q 17.140625 53.03125 27.875 53.03125 
Q 38.28125 53.03125 44.875 45.953125 
Q 51.46875 38.875 51.46875 26.03125 
Q 51.46875 25.25 51.421875 23.6875 
L 12.75 23.6875 
Q 13.234375 15.140625 17.578125 10.59375 
Q 21.921875 6.0625 28.421875 6.0625 
Q 33.25 6.0625 36.671875 8.59375 
Q 40.09375 11.140625 42.09375 16.703125 
z
M 13.234375 30.90625 
L 42.1875 30.90625 
Q 41.609375 37.453125 38.875 40.71875 
Q 34.671875 45.796875 27.984375 45.796875 
Q 21.921875 45.796875 17.796875 41.75 
Q 13.671875 37.703125 13.234375 30.90625 
z
" id="ArialMT-101"/>
      <path d="M 6.640625 61.46875 
L 6.640625 71.578125 
L 15.4375 71.578125 
L 15.4375 61.46875 
z
M 6.640625 0 
L 6.640625 51.859375 
L 15.4375 51.859375 
L 15.4375 0 
z
" id="ArialMT-105"/>
      <path d="M 6.59375 0 
L 6.59375 51.859375 
L 14.5 51.859375 
L 14.5 44.484375 
Q 20.21875 53.03125 31 53.03125 
Q 35.6875 53.03125 39.625 51.34375 
Q 43.5625 49.65625 45.515625 46.921875 
Q 47.46875 44.1875 48.25 40.4375 
Q 48.734375 37.984375 48.734375 31.890625 
L 48.734375 0 
L 39.9375 0 
L 39.9375 31.546875 
Q 39.9375 36.921875 38.90625 39.578125 
Q 37.890625 42.234375 35.28125 43.8125 
Q 32.671875 45.40625 29.15625 45.40625 
Q 23.53125 45.40625 19.453125 41.84375 
Q 15.375 38.28125 15.375 28.328125 
L 15.375 0 
z
" id="ArialMT-110"/>
     </defs>
     <g style="fill:#262626;" transform="translate(23.675356 195.181641)rotate(-90)scale(0.15 -0.15)">
      <use xlink:href="#ArialMT-67"/>
      <use x="72.216797" xlink:href="#ArialMT-97"/>
      <use x="127.832031" xlink:href="#ArialMT-102"/>
      <use x="155.599609" xlink:href="#ArialMT-102"/>
      <use x="183.382812" xlink:href="#ArialMT-101"/>
      <use x="238.998047" xlink:href="#ArialMT-105"/>
      <use x="261.214844" xlink:href="#ArialMT-110"/>
      <use x="316.830078" xlink:href="#ArialMT-101"/>
     </g>
    </g>
   </g>
   <g id="PathCollection_1">
    <defs>
     <path d="M 0 3 
C 0.795609 3 1.55874 2.683901 2.12132 2.12132 
C 2.683901 1.55874 3 0.795609 3 0 
C 3 -0.795609 2.683901 -1.55874 2.12132 -2.12132 
C 1.55874 -2.683901 0.795609 -3 0 -3 
C -0.795609 -3 -1.55874 -2.683901 -2.12132 -2.12132 
C -2.683901 -1.55874 -3 -0.795609 -3 0 
C -3 0.795609 -2.683901 1.55874 -2.12132 2.12132 
C -1.55874 2.683901 -0.795609 3 0 3 
z
" id="m1b6f0c669a" style="stroke:#f77189;stroke-opacity:0.8;"/>
    </defs>
    <g clip-path="url(#p80dbd95536)">
     <use style="fill:#f77189;fill-opacity:0.8;stroke:#f77189;stroke-opacity:0.8;" x="61.487824" xlink:href="#m1b6f0c669a" y="278.988224"/>
     <use style="fill:#f77189;fill-opacity:0.8;stroke:#f77189;stroke-opacity:0.8;" x="101.055372" xlink:href="#m1b6f0c669a" y="145.021151"/>
     <use style="fill:#f77189;fill-opacity:0.8;stroke:#f77189;stroke-opacity:0.8;" x="140.622919" xlink:href="#m1b6f0c669a" y="211.644593"/>
     <use style="fill:#f77189;fill-opacity:0.8;stroke:#f77189;stroke-opacity:0.8;" x="259.325562" xlink:href="#m1b6f0c669a" y="184.564936"/>
     <use style="fill:#f77189;fill-opacity:0.8;stroke:#f77189;stroke-opacity:0.8;" x="298.893109" xlink:href="#m1b6f0c669a" y="214.648337"/>
     <use style="fill:#f77189;fill-opacity:0.8;stroke:#f77189;stroke-opacity:0.8;" x="338.460657" xlink:href="#m1b6f0c669a" y="256.392694"/>
    </g>
   </g>
   <g id="PathCollection_2">
    <defs>
     <path d="M 0 3 
C 0.795609 3 1.55874 2.683901 2.12132 2.12132 
C 2.683901 1.55874 3 0.795609 3 0 
C 3 -0.795609 2.683901 -1.55874 2.12132 -2.12132 
C 1.55874 -2.683901 0.795609 -3 0 -3 
C -0.795609 -3 -1.55874 -2.683901 -2.12132 -2.12132 
C -2.683901 -1.55874 -3 -0.795609 -3 0 
C -3 0.795609 -2.683901 1.55874 -2.12132 2.12132 
C -1.55874 2.683901 -0.795609 3 0 3 
z
" id="m11c4b42370" style="stroke:#ef7d32;stroke-opacity:0.8;"/>
    </defs>
    <g clip-path="url(#p80dbd95536)">
     <use style="fill:#ef7d32;fill-opacity:0.8;stroke:#ef7d32;stroke-opacity:0.8;" x="61.487824" xlink:href="#m11c4b42370" y="149.864084"/>
     <use style="fill:#ef7d32;fill-opacity:0.8;stroke:#ef7d32;stroke-opacity:0.8;" x="101.055372" xlink:href="#m11c4b42370" y="293.188963"/>
     <use style="fill:#ef7d32;fill-opacity:0.8;stroke:#ef7d32;stroke-opacity:0.8;" x="140.622919" xlink:href="#m11c4b42370" y="293.579273"/>
     <use style="fill:#ef7d32;fill-opacity:0.8;stroke:#ef7d32;stroke-opacity:0.8;" x="180.190467" xlink:href="#m11c4b42370" y="255.712064"/>
     <use style="fill:#ef7d32;fill-opacity:0.8;stroke:#ef7d32;stroke-opacity:0.8;" x="219.758014" xlink:href="#m11c4b42370" y="276.934381"/>
     <use style="fill:#ef7d32;fill-opacity:0.8;stroke:#ef7d32;stroke-opacity:0.8;" x="259.325562" xlink:href="#m11c4b42370" y="281.555069"/>
     <use style="fill:#ef7d32;fill-opacity:0.8;stroke:#ef7d32;stroke-opacity:0.8;" x="298.893109" xlink:href="#m11c4b42370" y="292.156633"/>
     <use style="fill:#ef7d32;fill-opacity:0.8;stroke:#ef7d32;stroke-opacity:0.8;" x="338.460657" xlink:href="#m11c4b42370" y="289.118004"/>
    </g>
   </g>
   <g id="PathCollection_3">
    <defs>
     <path d="M 0 3 
C 0.795609 3 1.55874 2.683901 2.12132 2.12132 
C 2.683901 1.55874 3 0.795609 3 0 
C 3 -0.795609 2.683901 -1.55874 2.12132 -2.12132 
C 1.55874 -2.683901 0.795609 -3 0 -3 
C -0.795609 -3 -1.55874 -2.683901 -2.12132 -2.12132 
C -2.683901 -1.55874 -3 -0.795609 -3 0 
C -3 0.795609 -2.683901 1.55874 -2.12132 2.12132 
C -1.55874 2.683901 -0.795609 3 0 3 
z
" id="m13ff0d19ff" style="stroke:#c69432;stroke-opacity:0.8;"/>
    </defs>
    <g clip-path="url(#p80dbd95536)">
     <use style="fill:#c69432;fill-opacity:0.8;stroke:#c69432;stroke-opacity:0.8;" x="101.055372" xlink:href="#m13ff0d19ff" y="277.577655"/>
     <use style="fill:#c69432;fill-opacity:0.8;stroke:#c69432;stroke-opacity:0.8;" x="180.190467" xlink:href="#m13ff0d19ff" y="147.373734"/>
     <use style="fill:#c69432;fill-opacity:0.8;stroke:#c69432;stroke-opacity:0.8;" x="219.758014" xlink:href="#m13ff0d19ff" y="197.445192"/>
     <use style="fill:#c69432;fill-opacity:0.8;stroke:#c69432;stroke-opacity:0.8;" x="298.893109" xlink:href="#m13ff0d19ff" y="83.558799"/>
     <use style="fill:#c69432;fill-opacity:0.8;stroke:#c69432;stroke-opacity:0.8;" x="338.460657" xlink:href="#m13ff0d19ff" y="122.954451"/>
    </g>
   </g>
   <g id="PathCollection_4">
    <defs>
     <path d="M 0 3 
C 0.795609 3 1.55874 2.683901 2.12132 2.12132 
C 2.683901 1.55874 3 0.795609 3 0 
C 3 -0.795609 2.683901 -1.55874 2.12132 -2.12132 
C 1.55874 -2.683901 0.795609 -3 0 -3 
C -0.795609 -3 -1.55874 -2.683901 -2.12132 -2.12132 
C -2.683901 -1.55874 -3 -0.795609 -3 0 
C -3 0.795609 -2.683901 1.55874 -2.12132 2.12132 
C -1.55874 2.683901 -0.795609 3 0 3 
z
" id="m6dcc9907cd" style="stroke:#a79f31;stroke-opacity:0.8;"/>
    </defs>
    <g clip-path="url(#p80dbd95536)">
     <use style="fill:#a79f31;fill-opacity:0.8;stroke:#a79f31;stroke-opacity:0.8;" x="61.487824" xlink:href="#m6dcc9907cd" y="294.170918"/>
     <use style="fill:#a79f31;fill-opacity:0.8;stroke:#a79f31;stroke-opacity:0.8;" x="101.055372" xlink:href="#m6dcc9907cd" y="293.984816"/>
     <use style="fill:#a79f31;fill-opacity:0.8;stroke:#a79f31;stroke-opacity:0.8;" x="180.190467" xlink:href="#m6dcc9907cd" y="103.194115"/>
     <use style="fill:#a79f31;fill-opacity:0.8;stroke:#a79f31;stroke-opacity:0.8;" x="219.758014" xlink:href="#m6dcc9907cd" y="251.282089"/>
     <use style="fill:#a79f31;fill-opacity:0.8;stroke:#a79f31;stroke-opacity:0.8;" x="259.325562" xlink:href="#m6dcc9907cd" y="292.153508"/>
     <use style="fill:#a79f31;fill-opacity:0.8;stroke:#a79f31;stroke-opacity:0.8;" x="298.893109" xlink:href="#m6dcc9907cd" y="293.609346"/>
     <use style="fill:#a79f31;fill-opacity:0.8;stroke:#a79f31;stroke-opacity:0.8;" x="338.460657" xlink:href="#m6dcc9907cd" y="292.017609"/>
    </g>
   </g>
   <g id="PathCollection_5">
    <defs>
     <path d="M 0 3 
C 0.795609 3 1.55874 2.683901 2.12132 2.12132 
C 2.683901 1.55874 3 0.795609 3 0 
C 3 -0.795609 2.683901 -1.55874 2.12132 -2.12132 
C 1.55874 -2.683901 0.795609 -3 0 -3 
C -0.795609 -3 -1.55874 -2.683901 -2.12132 -2.12132 
C -2.683901 -1.55874 -3 -0.795609 -3 0 
C -3 0.795609 -2.683901 1.55874 -2.12132 2.12132 
C -1.55874 2.683901 -0.795609 3 0 3 
z
" id="mb857e38f68" style="stroke:#82a931;stroke-opacity:0.8;"/>
    </defs>
    <g clip-path="url(#p80dbd95536)">
     <use style="fill:#82a931;fill-opacity:0.8;stroke:#82a931;stroke-opacity:0.8;" x="61.487824" xlink:href="#mb857e38f68" y="288.633508"/>
     <use style="fill:#82a931;fill-opacity:0.8;stroke:#82a931;stroke-opacity:0.8;" x="101.055372" xlink:href="#mb857e38f68" y="257.737925"/>
     <use style="fill:#82a931;fill-opacity:0.8;stroke:#82a931;stroke-opacity:0.8;" x="140.622919" xlink:href="#mb857e38f68" y="292.552097"/>
     <use style="fill:#82a931;fill-opacity:0.8;stroke:#82a931;stroke-opacity:0.8;" x="219.758014" xlink:href="#mb857e38f68" y="292.540298"/>
     <use style="fill:#82a931;fill-opacity:0.8;stroke:#82a931;stroke-opacity:0.8;" x="259.325562" xlink:href="#mb857e38f68" y="292.086843"/>
     <use style="fill:#82a931;fill-opacity:0.8;stroke:#82a931;stroke-opacity:0.8;" x="298.893109" xlink:href="#mb857e38f68" y="283.682584"/>
     <use style="fill:#82a931;fill-opacity:0.8;stroke:#82a931;stroke-opacity:0.8;" x="338.460657" xlink:href="#mb857e38f68" y="284.145681"/>
    </g>
   </g>
   <g id="PathCollection_6">
    <defs>
     <path d="M 0 3 
C 0.795609 3 1.55874 2.683901 2.12132 2.12132 
C 2.683901 1.55874 3 0.795609 3 0 
C 3 -0.795609 2.683901 -1.55874 2.12132 -2.12132 
C 1.55874 -2.683901 0.795609 -3 0 -3 
C -0.795609 -3 -1.55874 -2.683901 -2.12132 -2.12132 
C -2.683901 -1.55874 -3 -0.795609 -3 0 
C -3 0.795609 -2.683901 1.55874 -2.12132 2.12132 
C -1.55874 2.683901 -0.795609 3 0 3 
z
" id="m0a225a835c" style="stroke:#32b24e;stroke-opacity:0.8;"/>
    </defs>
    <g clip-path="url(#p80dbd95536)">
     <use style="fill:#32b24e;fill-opacity:0.8;stroke:#32b24e;stroke-opacity:0.8;" x="101.055372" xlink:href="#m0a225a835c" y="128.382716"/>
     <use style="fill:#32b24e;fill-opacity:0.8;stroke:#32b24e;stroke-opacity:0.8;" x="140.622919" xlink:href="#m0a225a835c" y="240.965618"/>
     <use style="fill:#32b24e;fill-opacity:0.8;stroke:#32b24e;stroke-opacity:0.8;" x="180.190467" xlink:href="#m0a225a835c" y="215.426455"/>
     <use style="fill:#32b24e;fill-opacity:0.8;stroke:#32b24e;stroke-opacity:0.8;" x="219.758014" xlink:href="#m0a225a835c" y="154.669048"/>
     <use style="fill:#32b24e;fill-opacity:0.8;stroke:#32b24e;stroke-opacity:0.8;" x="259.325562" xlink:href="#m0a225a835c" y="227.060529"/>
     <use style="fill:#32b24e;fill-opacity:0.8;stroke:#32b24e;stroke-opacity:0.8;" x="298.893109" xlink:href="#m0a225a835c" y="213.269487"/>
     <use style="fill:#32b24e;fill-opacity:0.8;stroke:#32b24e;stroke-opacity:0.8;" x="338.460657" xlink:href="#m0a225a835c" y="205.264963"/>
    </g>
   </g>
   <g id="PathCollection_7">
    <defs>
     <path d="M 0 3 
C 0.795609 3 1.55874 2.683901 2.12132 2.12132 
C 2.683901 1.55874 3 0.795609 3 0 
C 3 -0.795609 2.683901 -1.55874 2.12132 -2.12132 
C 1.55874 -2.683901 0.795609 -3 0 -3 
C -0.795609 -3 -1.55874 -2.683901 -2.12132 -2.12132 
C -2.683901 -1.55874 -3 -0.795609 -3 0 
C -3 0.795609 -2.683901 1.55874 -2.12132 2.12132 
C -1.55874 2.683901 -0.795609 3 0 3 
z
" id="m8de402c09f" style="stroke:#34af8a;stroke-opacity:0.8;"/>
    </defs>
    <g clip-path="url(#p80dbd95536)">
     <use style="fill:#34af8a;fill-opacity:0.8;stroke:#34af8a;stroke-opacity:0.8;" x="61.487824" xlink:href="#m8de402c09f" y="266.454993"/>
     <use style="fill:#34af8a;fill-opacity:0.8;stroke:#34af8a;stroke-opacity:0.8;" x="101.055372" xlink:href="#m8de402c09f" y="227.851801"/>
     <use style="fill:#34af8a;fill-opacity:0.8;stroke:#34af8a;stroke-opacity:0.8;" x="140.622919" xlink:href="#m8de402c09f" y="144.67839"/>
     <use style="fill:#34af8a;fill-opacity:0.8;stroke:#34af8a;stroke-opacity:0.8;" x="180.190467" xlink:href="#m8de402c09f" y="193.969073"/>
     <use style="fill:#34af8a;fill-opacity:0.8;stroke:#34af8a;stroke-opacity:0.8;" x="219.758014" xlink:href="#m8de402c09f" y="107.331701"/>
     <use style="fill:#34af8a;fill-opacity:0.8;stroke:#34af8a;stroke-opacity:0.8;" x="259.325562" xlink:href="#m8de402c09f" y="34.792078"/>
     <use style="fill:#34af8a;fill-opacity:0.8;stroke:#34af8a;stroke-opacity:0.8;" x="298.893109" xlink:href="#m8de402c09f" y="157.775429"/>
     <use style="fill:#34af8a;fill-opacity:0.8;stroke:#34af8a;stroke-opacity:0.8;" x="338.460657" xlink:href="#m8de402c09f" y="154.996837"/>
    </g>
   </g>
   <g id="PathCollection_8">
    <defs>
     <path d="M 0 3 
C 0.795609 3 1.55874 2.683901 2.12132 2.12132 
C 2.683901 1.55874 3 0.795609 3 0 
C 3 -0.795609 2.683901 -1.55874 2.12132 -2.12132 
C 1.55874 -2.683901 0.795609 -3 0 -3 
C -0.795609 -3 -1.55874 -2.683901 -2.12132 -2.12132 
C -2.683901 -1.55874 -3 -0.795609 -3 0 
C -3 0.795609 -2.683901 1.55874 -2.12132 2.12132 
C -1.55874 2.683901 -0.795609 3 0 3 
z
" id="mc66d72c18d" style="stroke:#36ada4;stroke-opacity:0.8;"/>
    </defs>
    <g clip-path="url(#p80dbd95536)">
     <use style="fill:#36ada4;fill-opacity:0.8;stroke:#36ada4;stroke-opacity:0.8;" x="101.055372" xlink:href="#mc66d72c18d" y="292.052863"/>
     <use style="fill:#36ada4;fill-opacity:0.8;stroke:#36ada4;stroke-opacity:0.8;" x="180.190467" xlink:href="#mc66d72c18d" y="246.017119"/>
     <use style="fill:#36ada4;fill-opacity:0.8;stroke:#36ada4;stroke-opacity:0.8;" x="259.325562" xlink:href="#mc66d72c18d" y="201.080346"/>
     <use style="fill:#36ada4;fill-opacity:0.8;stroke:#36ada4;stroke-opacity:0.8;" x="298.893109" xlink:href="#mc66d72c18d" y="255.269358"/>
     <use style="fill:#36ada4;fill-opacity:0.8;stroke:#36ada4;stroke-opacity:0.8;" x="338.460657" xlink:href="#mc66d72c18d" y="68.904941"/>
    </g>
   </g>
   <g id="PathCollection_9">
    <defs>
     <path d="M 0 3 
C 0.795609 3 1.55874 2.683901 2.12132 2.12132 
C 2.683901 1.55874 3 0.795609 3 0 
C 3 -0.795609 2.683901 -1.55874 2.12132 -2.12132 
C 1.55874 -2.683901 0.795609 -3 0 -3 
C -0.795609 -3 -1.55874 -2.683901 -2.12132 -2.12132 
C -2.683901 -1.55874 -3 -0.795609 -3 0 
C -3 0.795609 -2.683901 1.55874 -2.12132 2.12132 
C -1.55874 2.683901 -0.795609 3 0 3 
z
" id="md484666968" style="stroke:#37aabb;stroke-opacity:0.8;"/>
    </defs>
    <g clip-path="url(#p80dbd95536)">
     <use style="fill:#37aabb;fill-opacity:0.8;stroke:#37aabb;stroke-opacity:0.8;" x="61.487824" xlink:href="#md484666968" y="189.227699"/>
     <use style="fill:#37aabb;fill-opacity:0.8;stroke:#37aabb;stroke-opacity:0.8;" x="140.622919" xlink:href="#md484666968" y="31.038112"/>
     <use style="fill:#37aabb;fill-opacity:0.8;stroke:#37aabb;stroke-opacity:0.8;" x="180.190467" xlink:href="#md484666968" y="237.368449"/>
     <use style="fill:#37aabb;fill-opacity:0.8;stroke:#37aabb;stroke-opacity:0.8;" x="219.758014" xlink:href="#md484666968" y="171.996854"/>
     <use style="fill:#37aabb;fill-opacity:0.8;stroke:#37aabb;stroke-opacity:0.8;" x="259.325562" xlink:href="#md484666968" y="136.996984"/>
     <use style="fill:#37aabb;fill-opacity:0.8;stroke:#37aabb;stroke-opacity:0.8;" x="298.893109" xlink:href="#md484666968" y="218.257046"/>
    </g>
   </g>
   <g id="PathCollection_10">
    <defs>
     <path d="M 0 3 
C 0.795609 3 1.55874 2.683901 2.12132 2.12132 
C 2.683901 1.55874 3 0.795609 3 0 
C 3 -0.795609 2.683901 -1.55874 2.12132 -2.12132 
C 1.55874 -2.683901 0.795609 -3 0 -3 
C -0.795609 -3 -1.55874 -2.683901 -2.12132 -2.12132 
C -2.683901 -1.55874 -3 -0.795609 -3 0 
C -3 0.795609 -2.683901 1.55874 -2.12132 2.12132 
C -1.55874 2.683901 -0.795609 3 0 3 
z
" id="me592ef099d" style="stroke:#3aa6da;stroke-opacity:0.8;"/>
    </defs>
    <g clip-path="url(#p80dbd95536)">
     <use style="fill:#3aa6da;fill-opacity:0.8;stroke:#3aa6da;stroke-opacity:0.8;" x="61.487824" xlink:href="#me592ef099d" y="284.00037"/>
     <use style="fill:#3aa6da;fill-opacity:0.8;stroke:#3aa6da;stroke-opacity:0.8;" x="180.190467" xlink:href="#me592ef099d" y="208.425889"/>
     <use style="fill:#3aa6da;fill-opacity:0.8;stroke:#3aa6da;stroke-opacity:0.8;" x="259.325562" xlink:href="#me592ef099d" y="290.013572"/>
     <use style="fill:#3aa6da;fill-opacity:0.8;stroke:#3aa6da;stroke-opacity:0.8;" x="338.460657" xlink:href="#me592ef099d" y="251.672523"/>
    </g>
   </g>
   <g id="PathCollection_11">
    <defs>
     <path d="M 0 3 
C 0.795609 3 1.55874 2.683901 2.12132 2.12132 
C 2.683901 1.55874 3 0.795609 3 0 
C 3 -0.795609 2.683901 -1.55874 2.12132 -2.12132 
C 1.55874 -2.683901 0.795609 -3 0 -3 
C -0.795609 -3 -1.55874 -2.683901 -2.12132 -2.12132 
C -2.683901 -1.55874 -3 -0.795609 -3 0 
C -3 0.795609 -2.683901 1.55874 -2.12132 2.12132 
C -1.55874 2.683901 -0.795609 3 0 3 
z
" id="m4a5476ea3a" style="stroke:#8197f4;stroke-opacity:0.8;"/>
    </defs>
    <g clip-path="url(#p80dbd95536)">
     <use style="fill:#8197f4;fill-opacity:0.8;stroke:#8197f4;stroke-opacity:0.8;" x="61.487824" xlink:href="#m4a5476ea3a" y="291.496815"/>
     <use style="fill:#8197f4;fill-opacity:0.8;stroke:#8197f4;stroke-opacity:0.8;" x="101.055372" xlink:href="#m4a5476ea3a" y="274.07136"/>
     <use style="fill:#8197f4;fill-opacity:0.8;stroke:#8197f4;stroke-opacity:0.8;" x="180.190467" xlink:href="#m4a5476ea3a" y="143.791803"/>
     <use style="fill:#8197f4;fill-opacity:0.8;stroke:#8197f4;stroke-opacity:0.8;" x="219.758014" xlink:href="#m4a5476ea3a" y="240.966921"/>
     <use style="fill:#8197f4;fill-opacity:0.8;stroke:#8197f4;stroke-opacity:0.8;" x="259.325562" xlink:href="#m4a5476ea3a" y="253.768103"/>
     <use style="fill:#8197f4;fill-opacity:0.8;stroke:#8197f4;stroke-opacity:0.8;" x="298.893109" xlink:href="#m4a5476ea3a" y="207.392011"/>
     <use style="fill:#8197f4;fill-opacity:0.8;stroke:#8197f4;stroke-opacity:0.8;" x="338.460657" xlink:href="#m4a5476ea3a" y="144.197664"/>
    </g>
   </g>
   <g id="PathCollection_12">
    <defs>
     <path d="M 0 3 
C 0.795609 3 1.55874 2.683901 2.12132 2.12132 
C 2.683901 1.55874 3 0.795609 3 0 
C 3 -0.795609 2.683901 -1.55874 2.12132 -2.12132 
C 1.55874 -2.683901 0.795609 -3 0 -3 
C -0.795609 -3 -1.55874 -2.683901 -2.12132 -2.12132 
C -2.683901 -1.55874 -3 -0.795609 -3 0 
C -3 0.795609 -2.683901 1.55874 -2.12132 2.12132 
C -1.55874 2.683901 -0.795609 3 0 3 
z
" id="m06f7f10ecd" style="stroke:#c180f4;stroke-opacity:0.8;"/>
    </defs>
    <g clip-path="url(#p80dbd95536)">
     <use style="fill:#c180f4;fill-opacity:0.8;stroke:#c180f4;stroke-opacity:0.8;" x="101.055372" xlink:href="#m06f7f10ecd" y="273.366467"/>
     <use style="fill:#c180f4;fill-opacity:0.8;stroke:#c180f4;stroke-opacity:0.8;" x="140.622919" xlink:href="#m06f7f10ecd" y="243.679044"/>
     <use style="fill:#c180f4;fill-opacity:0.8;stroke:#c180f4;stroke-opacity:0.8;" x="180.190467" xlink:href="#m06f7f10ecd" y="167.04399"/>
     <use style="fill:#c180f4;fill-opacity:0.8;stroke:#c180f4;stroke-opacity:0.8;" x="259.325562" xlink:href="#m06f7f10ecd" y="288.690669"/>
     <use style="fill:#c180f4;fill-opacity:0.8;stroke:#c180f4;stroke-opacity:0.8;" x="298.893109" xlink:href="#m06f7f10ecd" y="287.766205"/>
     <use style="fill:#c180f4;fill-opacity:0.8;stroke:#c180f4;stroke-opacity:0.8;" x="338.460657" xlink:href="#m06f7f10ecd" y="289.196812"/>
    </g>
   </g>
   <g id="PathCollection_13">
    <defs>
     <path d="M 0 3 
C 0.795609 3 1.55874 2.683901 2.12132 2.12132 
C 2.683901 1.55874 3 0.795609 3 0 
C 3 -0.795609 2.683901 -1.55874 2.12132 -2.12132 
C 1.55874 -2.683901 0.795609 -3 0 -3 
C -0.795609 -3 -1.55874 -2.683901 -2.12132 -2.12132 
C -2.683901 -1.55874 -3 -0.795609 -3 0 
C -3 0.795609 -2.683901 1.55874 -2.12132 2.12132 
C -1.55874 2.683901 -0.795609 3 0 3 
z
" id="m3fd7bb059f" style="stroke:#f45deb;stroke-opacity:0.8;"/>
    </defs>
    <g clip-path="url(#p80dbd95536)">
     <use style="fill:#f45deb;fill-opacity:0.8;stroke:#f45deb;stroke-opacity:0.8;" x="61.487824" xlink:href="#m3fd7bb059f" y="294.099831"/>
     <use style="fill:#f45deb;fill-opacity:0.8;stroke:#f45deb;stroke-opacity:0.8;" x="101.055372" xlink:href="#m3fd7bb059f" y="293.716209"/>
     <use style="fill:#f45deb;fill-opacity:0.8;stroke:#f45deb;stroke-opacity:0.8;" x="140.622919" xlink:href="#m3fd7bb059f" y="294.275279"/>
     <use style="fill:#f45deb;fill-opacity:0.8;stroke:#f45deb;stroke-opacity:0.8;" x="180.190467" xlink:href="#m3fd7bb059f" y="293.843617"/>
     <use style="fill:#f45deb;fill-opacity:0.8;stroke:#f45deb;stroke-opacity:0.8;" x="219.758014" xlink:href="#m3fd7bb059f" y="293.511126"/>
     <use style="fill:#f45deb;fill-opacity:0.8;stroke:#f45deb;stroke-opacity:0.8;" x="259.325562" xlink:href="#m3fd7bb059f" y="293.956078"/>
     <use style="fill:#f45deb;fill-opacity:0.8;stroke:#f45deb;stroke-opacity:0.8;" x="298.893109" xlink:href="#m3fd7bb059f" y="293.602551"/>
    </g>
   </g>
   <g id="PathCollection_14">
    <defs>
     <path d="M 0 3 
C 0.795609 3 1.55874 2.683901 2.12132 2.12132 
C 2.683901 1.55874 3 0.795609 3 0 
C 3 -0.795609 2.683901 -1.55874 2.12132 -2.12132 
C 1.55874 -2.683901 0.795609 -3 0 -3 
C -0.795609 -3 -1.55874 -2.683901 -2.12132 -2.12132 
C -2.683901 -1.55874 -3 -0.795609 -3 0 
C -3 0.795609 -2.683901 1.55874 -2.12132 2.12132 
C -1.55874 2.683901 -0.795609 3 0 3 
z
" id="mc606e013e2" style="stroke:#f669ba;stroke-opacity:0.8;"/>
    </defs>
    <g clip-path="url(#p80dbd95536)">
     <use style="fill:#f669ba;fill-opacity:0.8;stroke:#f669ba;stroke-opacity:0.8;" x="61.487824" xlink:href="#mc606e013e2" y="292.683457"/>
     <use style="fill:#f669ba;fill-opacity:0.8;stroke:#f669ba;stroke-opacity:0.8;" x="101.055372" xlink:href="#mc606e013e2" y="290.319902"/>
     <use style="fill:#f669ba;fill-opacity:0.8;stroke:#f669ba;stroke-opacity:0.8;" x="140.622919" xlink:href="#mc606e013e2" y="289.39472"/>
     <use style="fill:#f669ba;fill-opacity:0.8;stroke:#f669ba;stroke-opacity:0.8;" x="219.758014" xlink:href="#mc606e013e2" y="292.638849"/>
     <use style="fill:#f669ba;fill-opacity:0.8;stroke:#f669ba;stroke-opacity:0.8;" x="259.325562" xlink:href="#mc606e013e2" y="293.102934"/>
     <use style="fill:#f669ba;fill-opacity:0.8;stroke:#f669ba;stroke-opacity:0.8;" x="298.893109" xlink:href="#mc606e013e2" y="294.180842"/>
     <use style="fill:#f669ba;fill-opacity:0.8;stroke:#f669ba;stroke-opacity:0.8;" x="338.460657" xlink:href="#mc606e013e2" y="292.436477"/>
    </g>
   </g>
   <g id="line2d_1">
    <path clip-path="url(#p80dbd95536)" d="M 61.487824 210.625063 
L 64.285529 210.717688 
L 67.083235 210.810313 
L 69.88094 210.902937 
L 72.678646 210.995562 
L 75.476351 211.088187 
L 78.274056 211.180812 
L 81.071762 211.273437 
L 83.869467 211.366061 
L 86.667173 211.458686 
L 89.464878 211.551311 
L 92.262583 211.643936 
L 95.060289 211.73656 
L 97.857994 211.829185 
L 100.655699 211.92181 
L 103.453405 212.014435 
L 106.25111 212.107059 
L 109.048816 212.199684 
L 111.846521 212.292309 
L 114.644226 212.384934 
L 117.441932 212.477559 
L 120.239637 212.570183 
L 123.037342 212.662808 
L 125.835048 212.755433 
L 128.632753 212.848058 
L 131.430459 212.940682 
L 134.228164 213.033307 
L 137.025869 213.125932 
L 139.823575 213.218557 
L 142.62128 213.311181 
L 145.418986 213.403806 
L 148.216691 213.496431 
L 151.014396 213.589056 
L 153.812102 213.681681 
L 156.609807 213.774305 
L 159.407512 213.86693 
L 162.205218 213.959555 
L 165.002923 214.05218 
L 167.800629 214.144804 
L 170.598334 214.237429 
L 173.396039 214.330054 
L 176.193745 214.422679 
L 178.99145 214.515303 
L 181.789155 214.607928 
L 184.586861 214.700553 
L 187.384566 214.793178 
L 190.182272 214.885803 
L 192.979977 214.978427 
L 195.777682 215.071052 
L 198.575388 215.163677 
L 201.373093 215.256302 
L 204.170799 215.348926 
L 206.968504 215.441551 
L 209.766209 215.534176 
L 212.563915 215.626801 
L 215.36162 215.719425 
L 218.159325 215.81205 
L 220.957031 215.904675 
L 223.754736 215.9973 
L 226.552442 216.089924 
L 229.350147 216.182549 
L 232.147852 216.275174 
L 234.945558 216.367799 
L 237.743263 216.460424 
L 240.540968 216.553048 
L 243.338674 216.645673 
L 246.136379 216.738298 
L 248.934085 216.830923 
L 251.73179 216.923547 
L 254.529495 217.016172 
L 257.327201 217.108797 
L 260.124906 217.201422 
L 262.922612 217.294046 
L 265.720317 217.386671 
L 268.518022 217.479296 
L 271.315728 217.571921 
L 274.113433 217.664546 
L 276.911138 217.75717 
L 279.708844 217.849795 
L 282.506549 217.94242 
L 285.304255 218.035045 
L 288.10196 218.127669 
L 290.899665 218.220294 
L 293.697371 218.312919 
L 296.495076 218.405544 
L 299.292781 218.498168 
L 302.090487 218.590793 
L 304.888192 218.683418 
L 307.685898 218.776043 
L 310.483603 218.868668 
L 313.281308 218.961292 
L 316.079014 219.053917 
L 318.876719 219.146542 
L 321.674425 219.239167 
L 324.47213 219.331791 
L 327.269835 219.424416 
L 330.067541 219.517041 
L 332.865246 219.609666 
L 335.662951 219.70229 
L 338.460657 219.794915 
" style="fill:none;stroke:#f77189;stroke-linecap:round;stroke-width:2.25;"/>
   </g>
   <g id="line2d_2">
    <path clip-path="url(#p80dbd95536)" d="M 61.487824 226.731663 
L 64.285529 227.535338 
L 67.083235 228.339013 
L 69.88094 229.142687 
L 72.678646 229.946362 
L 75.476351 230.750037 
L 78.274056 231.553711 
L 81.071762 232.357386 
L 83.869467 233.161061 
L 86.667173 233.964735 
L 89.464878 234.76841 
L 92.262583 235.572085 
L 95.060289 236.375759 
L 97.857994 237.179434 
L 100.655699 237.983109 
L 103.453405 238.786783 
L 106.25111 239.590458 
L 109.048816 240.394133 
L 111.846521 241.197807 
L 114.644226 242.001482 
L 117.441932 242.805157 
L 120.239637 243.608831 
L 123.037342 244.412506 
L 125.835048 245.216181 
L 128.632753 246.019855 
L 131.430459 246.82353 
L 134.228164 247.627205 
L 137.025869 248.430879 
L 139.823575 249.234554 
L 142.62128 250.038229 
L 145.418986 250.841903 
L 148.216691 251.645578 
L 151.014396 252.449253 
L 153.812102 253.252927 
L 156.609807 254.056602 
L 159.407512 254.860276 
L 162.205218 255.663951 
L 165.002923 256.467626 
L 167.800629 257.2713 
L 170.598334 258.074975 
L 173.396039 258.87865 
L 176.193745 259.682324 
L 178.99145 260.485999 
L 181.789155 261.289674 
L 184.586861 262.093348 
L 187.384566 262.897023 
L 190.182272 263.700698 
L 192.979977 264.504372 
L 195.777682 265.308047 
L 198.575388 266.111722 
L 201.373093 266.915396 
L 204.170799 267.719071 
L 206.968504 268.522746 
L 209.766209 269.32642 
L 212.563915 270.130095 
L 215.36162 270.93377 
L 218.159325 271.737444 
L 220.957031 272.541119 
L 223.754736 273.344794 
L 226.552442 274.148468 
L 229.350147 274.952143 
L 232.147852 275.755818 
L 234.945558 276.559492 
L 237.743263 277.363167 
L 240.540968 278.166842 
L 243.338674 278.970516 
L 246.136379 279.774191 
L 248.934085 280.577866 
L 251.73179 281.38154 
L 254.529495 282.185215 
L 257.327201 282.988889 
L 260.124906 283.792564 
L 262.922612 284.596239 
L 265.720317 285.399913 
L 268.518022 286.203588 
L 271.315728 287.007263 
L 274.113433 287.810937 
L 276.911138 288.614612 
L 279.708844 289.418287 
L 282.506549 290.221961 
L 285.304255 291.025636 
L 288.10196 291.829311 
L 290.899665 292.632985 
L 293.697371 293.43666 
L 296.495076 294.240335 
L 299.292781 295.044009 
L 302.090487 295.847684 
L 304.888192 296.651359 
L 307.685898 297.455033 
L 310.483603 298.258708 
L 313.281308 299.062383 
L 316.079014 299.866057 
L 318.876719 300.669732 
L 321.674425 301.473407 
L 324.47213 302.277081 
L 327.269835 303.080756 
L 330.067541 303.884431 
L 332.865246 304.688105 
L 335.662951 305.49178 
L 338.460657 306.295455 
" style="fill:none;stroke:#ef7d32;stroke-linecap:round;stroke-width:2.25;"/>
   </g>
   <g id="line2d_3">
    <path clip-path="url(#p80dbd95536)" d="M 101.055372 251.383049 
L 103.453405 249.761816 
L 105.851438 248.140584 
L 108.249471 246.519351 
L 110.647504 244.898118 
L 113.045538 243.276886 
L 115.443571 241.655653 
L 117.841604 240.034421 
L 120.239637 238.413188 
L 122.63767 236.791955 
L 125.035703 235.170723 
L 127.433737 233.54949 
L 129.83177 231.928257 
L 132.229803 230.307025 
L 134.627836 228.685792 
L 137.025869 227.06456 
L 139.423903 225.443327 
L 141.821936 223.822094 
L 144.219969 222.200862 
L 146.618002 220.579629 
L 149.016035 218.958396 
L 151.414068 217.337164 
L 153.812102 215.715931 
L 156.210135 214.094699 
L 158.608168 212.473466 
L 161.006201 210.852233 
L 163.404234 209.231001 
L 165.802268 207.609768 
L 168.200301 205.988536 
L 170.598334 204.367303 
L 172.996367 202.74607 
L 175.3944 201.124838 
L 177.792434 199.503605 
L 180.190467 197.882372 
L 182.5885 196.26114 
L 184.986533 194.639907 
L 187.384566 193.018675 
L 189.782599 191.397442 
L 192.180633 189.776209 
L 194.578666 188.154977 
L 196.976699 186.533744 
L 199.374732 184.912511 
L 201.772765 183.291279 
L 204.170799 181.670046 
L 206.568832 180.048814 
L 208.966865 178.427581 
L 211.364898 176.806348 
L 213.762931 175.185116 
L 216.160964 173.563883 
L 218.558998 171.94265 
L 220.957031 170.321418 
L 223.355064 168.700185 
L 225.753097 167.078953 
L 228.15113 165.45772 
L 230.549164 163.836487 
L 232.947197 162.215255 
L 235.34523 160.594022 
L 237.743263 158.972789 
L 240.141296 157.351557 
L 242.539329 155.730324 
L 244.937363 154.109092 
L 247.335396 152.487859 
L 249.733429 150.866626 
L 252.131462 149.245394 
L 254.529495 147.624161 
L 256.927529 146.002928 
L 259.325562 144.381696 
L 261.723595 142.760463 
L 264.121628 141.139231 
L 266.519661 139.517998 
L 268.917694 137.896765 
L 271.315728 136.275533 
L 273.713761 134.6543 
L 276.111794 133.033067 
L 278.509827 131.411835 
L 280.90786 129.790602 
L 283.305894 128.16937 
L 285.703927 126.548137 
L 288.10196 124.926904 
L 290.499993 123.305672 
L 292.898026 121.684439 
L 295.29606 120.063206 
L 297.694093 118.441974 
L 300.092126 116.820741 
L 302.490159 115.199509 
L 304.888192 113.578276 
L 307.286225 111.957043 
L 309.684259 110.335811 
L 312.082292 108.714578 
L 314.480325 107.093345 
L 316.878358 105.472113 
L 319.276391 103.85088 
L 321.674425 102.229648 
L 324.072458 100.608415 
L 326.470491 98.987182 
L 328.868524 97.36595 
L 331.266557 95.744717 
L 333.66459 94.123484 
L 336.062624 92.502252 
L 338.460657 90.881019 
" style="fill:none;stroke:#c69432;stroke-linecap:round;stroke-width:2.25;"/>
   </g>
   <g id="line2d_4">
    <path clip-path="url(#p80dbd95536)" d="M 61.487824 249.347044 
L 64.285529 249.550961 
L 67.083235 249.754878 
L 69.88094 249.958795 
L 72.678646 250.162711 
L 75.476351 250.366628 
L 78.274056 250.570545 
L 81.071762 250.774461 
L 83.869467 250.978378 
L 86.667173 251.182295 
L 89.464878 251.386212 
L 92.262583 251.590128 
L 95.060289 251.794045 
L 97.857994 251.997962 
L 100.655699 252.201878 
L 103.453405 252.405795 
L 106.25111 252.609712 
L 109.048816 252.813629 
L 111.846521 253.017545 
L 114.644226 253.221462 
L 117.441932 253.425379 
L 120.239637 253.629295 
L 123.037342 253.833212 
L 125.835048 254.037129 
L 128.632753 254.241046 
L 131.430459 254.444962 
L 134.228164 254.648879 
L 137.025869 254.852796 
L 139.823575 255.056712 
L 142.62128 255.260629 
L 145.418986 255.464546 
L 148.216691 255.668463 
L 151.014396 255.872379 
L 153.812102 256.076296 
L 156.609807 256.280213 
L 159.407512 256.484129 
L 162.205218 256.688046 
L 165.002923 256.891963 
L 167.800629 257.09588 
L 170.598334 257.299796 
L 173.396039 257.503713 
L 176.193745 257.70763 
L 178.99145 257.911547 
L 181.789155 258.115463 
L 184.586861 258.31938 
L 187.384566 258.523297 
L 190.182272 258.727213 
L 192.979977 258.93113 
L 195.777682 259.135047 
L 198.575388 259.338964 
L 201.373093 259.54288 
L 204.170799 259.746797 
L 206.968504 259.950714 
L 209.766209 260.15463 
L 212.563915 260.358547 
L 215.36162 260.562464 
L 218.159325 260.766381 
L 220.957031 260.970297 
L 223.754736 261.174214 
L 226.552442 261.378131 
L 229.350147 261.582047 
L 232.147852 261.785964 
L 234.945558 261.989881 
L 237.743263 262.193798 
L 240.540968 262.397714 
L 243.338674 262.601631 
L 246.136379 262.805548 
L 248.934085 263.009464 
L 251.73179 263.213381 
L 254.529495 263.417298 
L 257.327201 263.621215 
L 260.124906 263.825131 
L 262.922612 264.029048 
L 265.720317 264.232965 
L 268.518022 264.436881 
L 271.315728 264.640798 
L 274.113433 264.844715 
L 276.911138 265.048632 
L 279.708844 265.252548 
L 282.506549 265.456465 
L 285.304255 265.660382 
L 288.10196 265.864298 
L 290.899665 266.068215 
L 293.697371 266.272132 
L 296.495076 266.476049 
L 299.292781 266.679965 
L 302.090487 266.883882 
L 304.888192 267.087799 
L 307.685898 267.291715 
L 310.483603 267.495632 
L 313.281308 267.699549 
L 316.079014 267.903466 
L 318.876719 268.107382 
L 321.674425 268.311299 
L 324.47213 268.515216 
L 327.269835 268.719132 
L 330.067541 268.923049 
L 332.865246 269.126966 
L 335.662951 269.330883 
L 338.460657 269.534799 
" style="fill:none;stroke:#a79f31;stroke-linecap:round;stroke-width:2.25;"/>
   </g>
   <g id="line2d_5">
    <path clip-path="url(#p80dbd95536)" d="M 61.487824 279.989112 
L 64.285529 280.078076 
L 67.083235 280.16704 
L 69.88094 280.256004 
L 72.678646 280.344968 
L 75.476351 280.433932 
L 78.274056 280.522896 
L 81.071762 280.61186 
L 83.869467 280.700825 
L 86.667173 280.789789 
L 89.464878 280.878753 
L 92.262583 280.967717 
L 95.060289 281.056681 
L 97.857994 281.145645 
L 100.655699 281.234609 
L 103.453405 281.323573 
L 106.25111 281.412537 
L 109.048816 281.501501 
L 111.846521 281.590465 
L 114.644226 281.679429 
L 117.441932 281.768393 
L 120.239637 281.857357 
L 123.037342 281.946321 
L 125.835048 282.035286 
L 128.632753 282.12425 
L 131.430459 282.213214 
L 134.228164 282.302178 
L 137.025869 282.391142 
L 139.823575 282.480106 
L 142.62128 282.56907 
L 145.418986 282.658034 
L 148.216691 282.746998 
L 151.014396 282.835962 
L 153.812102 282.924926 
L 156.609807 283.01389 
L 159.407512 283.102854 
L 162.205218 283.191818 
L 165.002923 283.280782 
L 167.800629 283.369746 
L 170.598334 283.458711 
L 173.396039 283.547675 
L 176.193745 283.636639 
L 178.99145 283.725603 
L 181.789155 283.814567 
L 184.586861 283.903531 
L 187.384566 283.992495 
L 190.182272 284.081459 
L 192.979977 284.170423 
L 195.777682 284.259387 
L 198.575388 284.348351 
L 201.373093 284.437315 
L 204.170799 284.526279 
L 206.968504 284.615243 
L 209.766209 284.704207 
L 212.563915 284.793171 
L 215.36162 284.882136 
L 218.159325 284.9711 
L 220.957031 285.060064 
L 223.754736 285.149028 
L 226.552442 285.237992 
L 229.350147 285.326956 
L 232.147852 285.41592 
L 234.945558 285.504884 
L 237.743263 285.593848 
L 240.540968 285.682812 
L 243.338674 285.771776 
L 246.136379 285.86074 
L 248.934085 285.949704 
L 251.73179 286.038668 
L 254.529495 286.127632 
L 257.327201 286.216597 
L 260.124906 286.305561 
L 262.922612 286.394525 
L 265.720317 286.483489 
L 268.518022 286.572453 
L 271.315728 286.661417 
L 274.113433 286.750381 
L 276.911138 286.839345 
L 279.708844 286.928309 
L 282.506549 287.017273 
L 285.304255 287.106237 
L 288.10196 287.195201 
L 290.899665 287.284165 
L 293.697371 287.373129 
L 296.495076 287.462093 
L 299.292781 287.551057 
L 302.090487 287.640022 
L 304.888192 287.728986 
L 307.685898 287.81795 
L 310.483603 287.906914 
L 313.281308 287.995878 
L 316.079014 288.084842 
L 318.876719 288.173806 
L 321.674425 288.26277 
L 324.47213 288.351734 
L 327.269835 288.440698 
L 330.067541 288.529662 
L 332.865246 288.618626 
L 335.662951 288.70759 
L 338.460657 288.796554 
" style="fill:none;stroke:#82a931;stroke-linecap:round;stroke-width:2.25;"/>
   </g>
   <g id="line2d_6">
    <path clip-path="url(#p80dbd95536)" d="M 101.055372 177.838915 
L 103.453405 178.243435 
L 105.851438 178.647956 
L 108.249471 179.052477 
L 110.647504 179.456997 
L 113.045538 179.861518 
L 115.443571 180.266039 
L 117.841604 180.670559 
L 120.239637 181.07508 
L 122.63767 181.479601 
L 125.035703 181.884121 
L 127.433737 182.288642 
L 129.83177 182.693163 
L 132.229803 183.097683 
L 134.627836 183.502204 
L 137.025869 183.906725 
L 139.423903 184.311245 
L 141.821936 184.715766 
L 144.219969 185.120287 
L 146.618002 185.524807 
L 149.016035 185.929328 
L 151.414068 186.333849 
L 153.812102 186.73837 
L 156.210135 187.14289 
L 158.608168 187.547411 
L 161.006201 187.951932 
L 163.404234 188.356452 
L 165.802268 188.760973 
L 168.200301 189.165494 
L 170.598334 189.570014 
L 172.996367 189.974535 
L 175.3944 190.379056 
L 177.792434 190.783576 
L 180.190467 191.188097 
L 182.5885 191.592618 
L 184.986533 191.997138 
L 187.384566 192.401659 
L 189.782599 192.80618 
L 192.180633 193.2107 
L 194.578666 193.615221 
L 196.976699 194.019742 
L 199.374732 194.424262 
L 201.772765 194.828783 
L 204.170799 195.233304 
L 206.568832 195.637824 
L 208.966865 196.042345 
L 211.364898 196.446866 
L 213.762931 196.851386 
L 216.160964 197.255907 
L 218.558998 197.660428 
L 220.957031 198.064948 
L 223.355064 198.469469 
L 225.753097 198.87399 
L 228.15113 199.27851 
L 230.549164 199.683031 
L 232.947197 200.087552 
L 235.34523 200.492072 
L 237.743263 200.896593 
L 240.141296 201.301114 
L 242.539329 201.705635 
L 244.937363 202.110155 
L 247.335396 202.514676 
L 249.733429 202.919197 
L 252.131462 203.323717 
L 254.529495 203.728238 
L 256.927529 204.132759 
L 259.325562 204.537279 
L 261.723595 204.9418 
L 264.121628 205.346321 
L 266.519661 205.750841 
L 268.917694 206.155362 
L 271.315728 206.559883 
L 273.713761 206.964403 
L 276.111794 207.368924 
L 278.509827 207.773445 
L 280.90786 208.177965 
L 283.305894 208.582486 
L 285.703927 208.987007 
L 288.10196 209.391527 
L 290.499993 209.796048 
L 292.898026 210.200569 
L 295.29606 210.605089 
L 297.694093 211.00961 
L 300.092126 211.414131 
L 302.490159 211.818651 
L 304.888192 212.223172 
L 307.286225 212.627693 
L 309.684259 213.032213 
L 312.082292 213.436734 
L 314.480325 213.841255 
L 316.878358 214.245775 
L 319.276391 214.650296 
L 321.674425 215.054817 
L 324.072458 215.459337 
L 326.470491 215.863858 
L 328.868524 216.268379 
L 331.266557 216.6729 
L 333.66459 217.07742 
L 336.062624 217.481941 
L 338.460657 217.886462 
" style="fill:none;stroke:#32b24e;stroke-linecap:round;stroke-width:2.25;"/>
   </g>
   <g id="line2d_7">
    <path clip-path="url(#p80dbd95536)" d="M 61.487824 225.43484 
L 64.285529 224.132748 
L 67.083235 222.830656 
L 69.88094 221.528564 
L 72.678646 220.226472 
L 75.476351 218.92438 
L 78.274056 217.622288 
L 81.071762 216.320196 
L 83.869467 215.018104 
L 86.667173 213.716012 
L 89.464878 212.41392 
L 92.262583 211.111828 
L 95.060289 209.809737 
L 97.857994 208.507645 
L 100.655699 207.205553 
L 103.453405 205.903461 
L 106.25111 204.601369 
L 109.048816 203.299277 
L 111.846521 201.997185 
L 114.644226 200.695093 
L 117.441932 199.393001 
L 120.239637 198.090909 
L 123.037342 196.788817 
L 125.835048 195.486725 
L 128.632753 194.184633 
L 131.430459 192.882541 
L 134.228164 191.580449 
L 137.025869 190.278357 
L 139.823575 188.976265 
L 142.62128 187.674173 
L 145.418986 186.372081 
L 148.216691 185.069989 
L 151.014396 183.767897 
L 153.812102 182.465805 
L 156.609807 181.163713 
L 159.407512 179.861621 
L 162.205218 178.559529 
L 165.002923 177.257437 
L 167.800629 175.955345 
L 170.598334 174.653253 
L 173.396039 173.351161 
L 176.193745 172.049069 
L 178.99145 170.746977 
L 181.789155 169.444886 
L 184.586861 168.142794 
L 187.384566 166.840702 
L 190.182272 165.53861 
L 192.979977 164.236518 
L 195.777682 162.934426 
L 198.575388 161.632334 
L 201.373093 160.330242 
L 204.170799 159.02815 
L 206.968504 157.726058 
L 209.766209 156.423966 
L 212.563915 155.121874 
L 215.36162 153.819782 
L 218.159325 152.51769 
L 220.957031 151.215598 
L 223.754736 149.913506 
L 226.552442 148.611414 
L 229.350147 147.309322 
L 232.147852 146.00723 
L 234.945558 144.705138 
L 237.743263 143.403046 
L 240.540968 142.100954 
L 243.338674 140.798862 
L 246.136379 139.49677 
L 248.934085 138.194678 
L 251.73179 136.892586 
L 254.529495 135.590494 
L 257.327201 134.288402 
L 260.124906 132.98631 
L 262.922612 131.684218 
L 265.720317 130.382126 
L 268.518022 129.080034 
L 271.315728 127.777943 
L 274.113433 126.475851 
L 276.911138 125.173759 
L 279.708844 123.871667 
L 282.506549 122.569575 
L 285.304255 121.267483 
L 288.10196 119.965391 
L 290.899665 118.663299 
L 293.697371 117.361207 
L 296.495076 116.059115 
L 299.292781 114.757023 
L 302.090487 113.454931 
L 304.888192 112.152839 
L 307.685898 110.850747 
L 310.483603 109.548655 
L 313.281308 108.246563 
L 316.079014 106.944471 
L 318.876719 105.642379 
L 321.674425 104.340287 
L 324.47213 103.038195 
L 327.269835 101.736103 
L 330.067541 100.434011 
L 332.865246 99.131919 
L 335.662951 97.829827 
L 338.460657 96.527735 
" style="fill:none;stroke:#34af8a;stroke-linecap:round;stroke-width:2.25;"/>
   </g>
   <g id="line2d_8">
    <path clip-path="url(#p80dbd95536)" d="M 101.055372 304.871119 
L 103.453405 303.227515 
L 105.851438 301.583911 
L 108.249471 299.940306 
L 110.647504 298.296702 
L 113.045538 296.653098 
L 115.443571 295.009494 
L 117.841604 293.36589 
L 120.239637 291.722286 
L 122.63767 290.078681 
L 125.035703 288.435077 
L 127.433737 286.791473 
L 129.83177 285.147869 
L 132.229803 283.504265 
L 134.627836 281.860661 
L 137.025869 280.217056 
L 139.423903 278.573452 
L 141.821936 276.929848 
L 144.219969 275.286244 
L 146.618002 273.64264 
L 149.016035 271.999036 
L 151.414068 270.355431 
L 153.812102 268.711827 
L 156.210135 267.068223 
L 158.608168 265.424619 
L 161.006201 263.781015 
L 163.404234 262.137411 
L 165.802268 260.493807 
L 168.200301 258.850202 
L 170.598334 257.206598 
L 172.996367 255.562994 
L 175.3944 253.91939 
L 177.792434 252.275786 
L 180.190467 250.632182 
L 182.5885 248.988577 
L 184.986533 247.344973 
L 187.384566 245.701369 
L 189.782599 244.057765 
L 192.180633 242.414161 
L 194.578666 240.770557 
L 196.976699 239.126952 
L 199.374732 237.483348 
L 201.772765 235.839744 
L 204.170799 234.19614 
L 206.568832 232.552536 
L 208.966865 230.908932 
L 211.364898 229.265327 
L 213.762931 227.621723 
L 216.160964 225.978119 
L 218.558998 224.334515 
L 220.957031 222.690911 
L 223.355064 221.047307 
L 225.753097 219.403702 
L 228.15113 217.760098 
L 230.549164 216.116494 
L 232.947197 214.47289 
L 235.34523 212.829286 
L 237.743263 211.185682 
L 240.141296 209.542078 
L 242.539329 207.898473 
L 244.937363 206.254869 
L 247.335396 204.611265 
L 249.733429 202.967661 
L 252.131462 201.324057 
L 254.529495 199.680453 
L 256.927529 198.036848 
L 259.325562 196.393244 
L 261.723595 194.74964 
L 264.121628 193.106036 
L 266.519661 191.462432 
L 268.917694 189.818828 
L 271.315728 188.175223 
L 273.713761 186.531619 
L 276.111794 184.888015 
L 278.509827 183.244411 
L 280.90786 181.600807 
L 283.305894 179.957203 
L 285.703927 178.313598 
L 288.10196 176.669994 
L 290.499993 175.02639 
L 292.898026 173.382786 
L 295.29606 171.739182 
L 297.694093 170.095578 
L 300.092126 168.451973 
L 302.490159 166.808369 
L 304.888192 165.164765 
L 307.286225 163.521161 
L 309.684259 161.877557 
L 312.082292 160.233953 
L 314.480325 158.590349 
L 316.878358 156.946744 
L 319.276391 155.30314 
L 321.674425 153.659536 
L 324.072458 152.015932 
L 326.470491 150.372328 
L 328.868524 148.728724 
L 331.266557 147.085119 
L 333.66459 145.441515 
L 336.062624 143.797911 
L 338.460657 142.154307 
" style="fill:none;stroke:#36ada4;stroke-linecap:round;stroke-width:2.25;"/>
   </g>
   <g id="line2d_9">
    <path clip-path="url(#p80dbd95536)" d="M 61.487824 139.326709 
L 63.885857 139.777997 
L 66.28389 140.229284 
L 68.681924 140.680572 
L 71.079957 141.131859 
L 73.47799 141.583147 
L 75.876023 142.034434 
L 78.274056 142.485722 
L 80.67209 142.937009 
L 83.070123 143.388297 
L 85.468156 143.839584 
L 87.866189 144.290872 
L 90.264222 144.74216 
L 92.662255 145.193447 
L 95.060289 145.644735 
L 97.458322 146.096022 
L 99.856355 146.54731 
L 102.254388 146.998597 
L 104.652421 147.449885 
L 107.050455 147.901172 
L 109.448488 148.35246 
L 111.846521 148.803747 
L 114.244554 149.255035 
L 116.642587 149.706323 
L 119.040621 150.15761 
L 121.438654 150.608898 
L 123.836687 151.060185 
L 126.23472 151.511473 
L 128.632753 151.96276 
L 131.030786 152.414048 
L 133.42882 152.865335 
L 135.826853 153.316623 
L 138.224886 153.76791 
L 140.622919 154.219198 
L 143.020952 154.670485 
L 145.418986 155.121773 
L 147.817019 155.573061 
L 150.215052 156.024348 
L 152.613085 156.475636 
L 155.011118 156.926923 
L 157.409151 157.378211 
L 159.807185 157.829498 
L 162.205218 158.280786 
L 164.603251 158.732073 
L 167.001284 159.183361 
L 169.399317 159.634648 
L 171.797351 160.085936 
L 174.195384 160.537224 
L 176.593417 160.988511 
L 178.99145 161.439799 
L 181.389483 161.891086 
L 183.787516 162.342374 
L 186.18555 162.793661 
L 188.583583 163.244949 
L 190.981616 163.696236 
L 193.379649 164.147524 
L 195.777682 164.598811 
L 198.175716 165.050099 
L 200.573749 165.501386 
L 202.971782 165.952674 
L 205.369815 166.403962 
L 207.767848 166.855249 
L 210.165881 167.306537 
L 212.563915 167.757824 
L 214.961948 168.209112 
L 217.359981 168.660399 
L 219.758014 169.111687 
L 222.156047 169.562974 
L 224.554081 170.014262 
L 226.952114 170.465549 
L 229.350147 170.916837 
L 231.74818 171.368125 
L 234.146213 171.819412 
L 236.544247 172.2707 
L 238.94228 172.721987 
L 241.340313 173.173275 
L 243.738346 173.624562 
L 246.136379 174.07585 
L 248.534412 174.527137 
L 250.932446 174.978425 
L 253.330479 175.429712 
L 255.728512 175.881 
L 258.126545 176.332288 
L 260.524578 176.783575 
L 262.922612 177.234863 
L 265.320645 177.68615 
L 267.718678 178.137438 
L 270.116711 178.588725 
L 272.514744 179.040013 
L 274.912777 179.4913 
L 277.310811 179.942588 
L 279.708844 180.393875 
L 282.106877 180.845163 
L 284.50491 181.29645 
L 286.902943 181.747738 
L 289.300977 182.199026 
L 291.69901 182.650313 
L 294.097043 183.101601 
L 296.495076 183.552888 
L 298.893109 184.004176 
" style="fill:none;stroke:#37aabb;stroke-linecap:round;stroke-width:2.25;"/>
   </g>
   <g id="line2d_10">
    <path clip-path="url(#p80dbd95536)" d="M 61.487824 264.257267 
L 64.285529 264.149242 
L 67.083235 264.041217 
L 69.88094 263.933192 
L 72.678646 263.825168 
L 75.476351 263.717143 
L 78.274056 263.609118 
L 81.071762 263.501093 
L 83.869467 263.393068 
L 86.667173 263.285043 
L 89.464878 263.177018 
L 92.262583 263.068993 
L 95.060289 262.960968 
L 97.857994 262.852943 
L 100.655699 262.744918 
L 103.453405 262.636893 
L 106.25111 262.528869 
L 109.048816 262.420844 
L 111.846521 262.312819 
L 114.644226 262.204794 
L 117.441932 262.096769 
L 120.239637 261.988744 
L 123.037342 261.880719 
L 125.835048 261.772694 
L 128.632753 261.664669 
L 131.430459 261.556644 
L 134.228164 261.448619 
L 137.025869 261.340595 
L 139.823575 261.23257 
L 142.62128 261.124545 
L 145.418986 261.01652 
L 148.216691 260.908495 
L 151.014396 260.80047 
L 153.812102 260.692445 
L 156.609807 260.58442 
L 159.407512 260.476395 
L 162.205218 260.36837 
L 165.002923 260.260345 
L 167.800629 260.15232 
L 170.598334 260.044296 
L 173.396039 259.936271 
L 176.193745 259.828246 
L 178.99145 259.720221 
L 181.789155 259.612196 
L 184.586861 259.504171 
L 187.384566 259.396146 
L 190.182272 259.288121 
L 192.979977 259.180096 
L 195.777682 259.072071 
L 198.575388 258.964046 
L 201.373093 258.856021 
L 204.170799 258.747997 
L 206.968504 258.639972 
L 209.766209 258.531947 
L 212.563915 258.423922 
L 215.36162 258.315897 
L 218.159325 258.207872 
L 220.957031 258.099847 
L 223.754736 257.991822 
L 226.552442 257.883797 
L 229.350147 257.775772 
L 232.147852 257.667747 
L 234.945558 257.559722 
L 237.743263 257.451698 
L 240.540968 257.343673 
L 243.338674 257.235648 
L 246.136379 257.127623 
L 248.934085 257.019598 
L 251.73179 256.911573 
L 254.529495 256.803548 
L 257.327201 256.695523 
L 260.124906 256.587498 
L 262.922612 256.479473 
L 265.720317 256.371448 
L 268.518022 256.263424 
L 271.315728 256.155399 
L 274.113433 256.047374 
L 276.911138 255.939349 
L 279.708844 255.831324 
L 282.506549 255.723299 
L 285.304255 255.615274 
L 288.10196 255.507249 
L 290.899665 255.399224 
L 293.697371 255.291199 
L 296.495076 255.183174 
L 299.292781 255.075149 
L 302.090487 254.967125 
L 304.888192 254.8591 
L 307.685898 254.751075 
L 310.483603 254.64305 
L 313.281308 254.535025 
L 316.079014 254.427 
L 318.876719 254.318975 
L 321.674425 254.21095 
L 324.47213 254.102925 
L 327.269835 253.9949 
L 330.067541 253.886875 
L 332.865246 253.77885 
L 335.662951 253.670826 
L 338.460657 253.562801 
" style="fill:none;stroke:#3aa6da;stroke-linecap:round;stroke-width:2.25;"/>
   </g>
   <g id="line2d_11">
    <path clip-path="url(#p80dbd95536)" d="M 61.487824 277.47811 
L 64.285529 276.426581 
L 67.083235 275.375053 
L 69.88094 274.323524 
L 72.678646 273.271995 
L 75.476351 272.220467 
L 78.274056 271.168938 
L 81.071762 270.11741 
L 83.869467 269.065881 
L 86.667173 268.014352 
L 89.464878 266.962824 
L 92.262583 265.911295 
L 95.060289 264.859767 
L 97.857994 263.808238 
L 100.655699 262.756709 
L 103.453405 261.705181 
L 106.25111 260.653652 
L 109.048816 259.602124 
L 111.846521 258.550595 
L 114.644226 257.499066 
L 117.441932 256.447538 
L 120.239637 255.396009 
L 123.037342 254.344481 
L 125.835048 253.292952 
L 128.632753 252.241423 
L 131.430459 251.189895 
L 134.228164 250.138366 
L 137.025869 249.086837 
L 139.823575 248.035309 
L 142.62128 246.98378 
L 145.418986 245.932252 
L 148.216691 244.880723 
L 151.014396 243.829194 
L 153.812102 242.777666 
L 156.609807 241.726137 
L 159.407512 240.674609 
L 162.205218 239.62308 
L 165.002923 238.571551 
L 167.800629 237.520023 
L 170.598334 236.468494 
L 173.396039 235.416966 
L 176.193745 234.365437 
L 178.99145 233.313908 
L 181.789155 232.26238 
L 184.586861 231.210851 
L 187.384566 230.159322 
L 190.182272 229.107794 
L 192.979977 228.056265 
L 195.777682 227.004737 
L 198.575388 225.953208 
L 201.373093 224.901679 
L 204.170799 223.850151 
L 206.968504 222.798622 
L 209.766209 221.747094 
L 212.563915 220.695565 
L 215.36162 219.644036 
L 218.159325 218.592508 
L 220.957031 217.540979 
L 223.754736 216.489451 
L 226.552442 215.437922 
L 229.350147 214.386393 
L 232.147852 213.334865 
L 234.945558 212.283336 
L 237.743263 211.231807 
L 240.540968 210.180279 
L 243.338674 209.12875 
L 246.136379 208.077222 
L 248.934085 207.025693 
L 251.73179 205.974164 
L 254.529495 204.922636 
L 257.327201 203.871107 
L 260.124906 202.819579 
L 262.922612 201.76805 
L 265.720317 200.716521 
L 268.518022 199.664993 
L 271.315728 198.613464 
L 274.113433 197.561936 
L 276.911138 196.510407 
L 279.708844 195.458878 
L 282.506549 194.40735 
L 285.304255 193.355821 
L 288.10196 192.304292 
L 290.899665 191.252764 
L 293.697371 190.201235 
L 296.495076 189.149707 
L 299.292781 188.098178 
L 302.090487 187.046649 
L 304.888192 185.995121 
L 307.685898 184.943592 
L 310.483603 183.892064 
L 313.281308 182.840535 
L 316.079014 181.789006 
L 318.876719 180.737478 
L 321.674425 179.685949 
L 324.47213 178.634421 
L 327.269835 177.582892 
L 330.067541 176.531363 
L 332.865246 175.479835 
L 335.662951 174.428306 
L 338.460657 173.376778 
" style="fill:none;stroke:#8197f4;stroke-linecap:round;stroke-width:2.25;"/>
   </g>
   <g id="line2d_12">
    <path clip-path="url(#p80dbd95536)" d="M 101.055372 230.721384 
L 103.453405 231.278337 
L 105.851438 231.835289 
L 108.249471 232.392242 
L 110.647504 232.949194 
L 113.045538 233.506147 
L 115.443571 234.063099 
L 117.841604 234.620051 
L 120.239637 235.177004 
L 122.63767 235.733956 
L 125.035703 236.290909 
L 127.433737 236.847861 
L 129.83177 237.404814 
L 132.229803 237.961766 
L 134.627836 238.518719 
L 137.025869 239.075671 
L 139.423903 239.632624 
L 141.821936 240.189576 
L 144.219969 240.746529 
L 146.618002 241.303481 
L 149.016035 241.860433 
L 151.414068 242.417386 
L 153.812102 242.974338 
L 156.210135 243.531291 
L 158.608168 244.088243 
L 161.006201 244.645196 
L 163.404234 245.202148 
L 165.802268 245.759101 
L 168.200301 246.316053 
L 170.598334 246.873006 
L 172.996367 247.429958 
L 175.3944 247.986911 
L 177.792434 248.543863 
L 180.190467 249.100815 
L 182.5885 249.657768 
L 184.986533 250.21472 
L 187.384566 250.771673 
L 189.782599 251.328625 
L 192.180633 251.885578 
L 194.578666 252.44253 
L 196.976699 252.999483 
L 199.374732 253.556435 
L 201.772765 254.113388 
L 204.170799 254.67034 
L 206.568832 255.227293 
L 208.966865 255.784245 
L 211.364898 256.341197 
L 213.762931 256.89815 
L 216.160964 257.455102 
L 218.558998 258.012055 
L 220.957031 258.569007 
L 223.355064 259.12596 
L 225.753097 259.682912 
L 228.15113 260.239865 
L 230.549164 260.796817 
L 232.947197 261.35377 
L 235.34523 261.910722 
L 237.743263 262.467674 
L 240.141296 263.024627 
L 242.539329 263.581579 
L 244.937363 264.138532 
L 247.335396 264.695484 
L 249.733429 265.252437 
L 252.131462 265.809389 
L 254.529495 266.366342 
L 256.927529 266.923294 
L 259.325562 267.480247 
L 261.723595 268.037199 
L 264.121628 268.594152 
L 266.519661 269.151104 
L 268.917694 269.708056 
L 271.315728 270.265009 
L 273.713761 270.821961 
L 276.111794 271.378914 
L 278.509827 271.935866 
L 280.90786 272.492819 
L 283.305894 273.049771 
L 285.703927 273.606724 
L 288.10196 274.163676 
L 290.499993 274.720629 
L 292.898026 275.277581 
L 295.29606 275.834534 
L 297.694093 276.391486 
L 300.092126 276.948438 
L 302.490159 277.505391 
L 304.888192 278.062343 
L 307.286225 278.619296 
L 309.684259 279.176248 
L 312.082292 279.733201 
L 314.480325 280.290153 
L 316.878358 280.847106 
L 319.276391 281.404058 
L 321.674425 281.961011 
L 324.072458 282.517963 
L 326.470491 283.074915 
L 328.868524 283.631868 
L 331.266557 284.18882 
L 333.66459 284.745773 
L 336.062624 285.302725 
L 338.460657 285.859678 
" style="fill:none;stroke:#c180f4;stroke-linecap:round;stroke-width:2.25;"/>
   </g>
   <g id="line2d_13">
    <path clip-path="url(#p80dbd95536)" d="M 61.487824 294.048126 
L 63.885857 294.044281 
L 66.28389 294.040436 
L 68.681924 294.036591 
L 71.079957 294.032747 
L 73.47799 294.028902 
L 75.876023 294.025057 
L 78.274056 294.021213 
L 80.67209 294.017368 
L 83.070123 294.013523 
L 85.468156 294.009679 
L 87.866189 294.005834 
L 90.264222 294.001989 
L 92.662255 293.998144 
L 95.060289 293.9943 
L 97.458322 293.990455 
L 99.856355 293.98661 
L 102.254388 293.982766 
L 104.652421 293.978921 
L 107.050455 293.975076 
L 109.448488 293.971232 
L 111.846521 293.967387 
L 114.244554 293.963542 
L 116.642587 293.959697 
L 119.040621 293.955853 
L 121.438654 293.952008 
L 123.836687 293.948163 
L 126.23472 293.944319 
L 128.632753 293.940474 
L 131.030786 293.936629 
L 133.42882 293.932785 
L 135.826853 293.92894 
L 138.224886 293.925095 
L 140.622919 293.92125 
L 143.020952 293.917406 
L 145.418986 293.913561 
L 147.817019 293.909716 
L 150.215052 293.905872 
L 152.613085 293.902027 
L 155.011118 293.898182 
L 157.409151 293.894338 
L 159.807185 293.890493 
L 162.205218 293.886648 
L 164.603251 293.882803 
L 167.001284 293.878959 
L 169.399317 293.875114 
L 171.797351 293.871269 
L 174.195384 293.867425 
L 176.593417 293.86358 
L 178.99145 293.859735 
L 181.389483 293.85589 
L 183.787516 293.852046 
L 186.18555 293.848201 
L 188.583583 293.844356 
L 190.981616 293.840512 
L 193.379649 293.836667 
L 195.777682 293.832822 
L 198.175716 293.828978 
L 200.573749 293.825133 
L 202.971782 293.821288 
L 205.369815 293.817443 
L 207.767848 293.813599 
L 210.165881 293.809754 
L 212.563915 293.805909 
L 214.961948 293.802065 
L 217.359981 293.79822 
L 219.758014 293.794375 
L 222.156047 293.790531 
L 224.554081 293.786686 
L 226.952114 293.782841 
L 229.350147 293.778996 
L 231.74818 293.775152 
L 234.146213 293.771307 
L 236.544247 293.767462 
L 238.94228 293.763618 
L 241.340313 293.759773 
L 243.738346 293.755928 
L 246.136379 293.752084 
L 248.534412 293.748239 
L 250.932446 293.744394 
L 253.330479 293.740549 
L 255.728512 293.736705 
L 258.126545 293.73286 
L 260.524578 293.729015 
L 262.922612 293.725171 
L 265.320645 293.721326 
L 267.718678 293.717481 
L 270.116711 293.713636 
L 272.514744 293.709792 
L 274.912777 293.705947 
L 277.310811 293.702102 
L 279.708844 293.698258 
L 282.106877 293.694413 
L 284.50491 293.690568 
L 286.902943 293.686724 
L 289.300977 293.682879 
L 291.69901 293.679034 
L 294.097043 293.675189 
L 296.495076 293.671345 
L 298.893109 293.6675 
" style="fill:none;stroke:#f45deb;stroke-linecap:round;stroke-width:2.25;"/>
   </g>
   <g id="line2d_14">
    <path clip-path="url(#p80dbd95536)" d="M 61.487824 290.856834 
L 64.285529 290.881608 
L 67.083235 290.906382 
L 69.88094 290.931156 
L 72.678646 290.95593 
L 75.476351 290.980704 
L 78.274056 291.005478 
L 81.071762 291.030252 
L 83.869467 291.055025 
L 86.667173 291.079799 
L 89.464878 291.104573 
L 92.262583 291.129347 
L 95.060289 291.154121 
L 97.857994 291.178895 
L 100.655699 291.203669 
L 103.453405 291.228443 
L 106.25111 291.253217 
L 109.048816 291.27799 
L 111.846521 291.302764 
L 114.644226 291.327538 
L 117.441932 291.352312 
L 120.239637 291.377086 
L 123.037342 291.40186 
L 125.835048 291.426634 
L 128.632753 291.451408 
L 131.430459 291.476182 
L 134.228164 291.500955 
L 137.025869 291.525729 
L 139.823575 291.550503 
L 142.62128 291.575277 
L 145.418986 291.600051 
L 148.216691 291.624825 
L 151.014396 291.649599 
L 153.812102 291.674373 
L 156.609807 291.699147 
L 159.407512 291.723921 
L 162.205218 291.748694 
L 165.002923 291.773468 
L 167.800629 291.798242 
L 170.598334 291.823016 
L 173.396039 291.84779 
L 176.193745 291.872564 
L 178.99145 291.897338 
L 181.789155 291.922112 
L 184.586861 291.946886 
L 187.384566 291.971659 
L 190.182272 291.996433 
L 192.979977 292.021207 
L 195.777682 292.045981 
L 198.575388 292.070755 
L 201.373093 292.095529 
L 204.170799 292.120303 
L 206.968504 292.145077 
L 209.766209 292.169851 
L 212.563915 292.194624 
L 215.36162 292.219398 
L 218.159325 292.244172 
L 220.957031 292.268946 
L 223.754736 292.29372 
L 226.552442 292.318494 
L 229.350147 292.343268 
L 232.147852 292.368042 
L 234.945558 292.392816 
L 237.743263 292.417589 
L 240.540968 292.442363 
L 243.338674 292.467137 
L 246.136379 292.491911 
L 248.934085 292.516685 
L 251.73179 292.541459 
L 254.529495 292.566233 
L 257.327201 292.591007 
L 260.124906 292.615781 
L 262.922612 292.640555 
L 265.720317 292.665328 
L 268.518022 292.690102 
L 271.315728 292.714876 
L 274.113433 292.73965 
L 276.911138 292.764424 
L 279.708844 292.789198 
L 282.506549 292.813972 
L 285.304255 292.838746 
L 288.10196 292.86352 
L 290.899665 292.888293 
L 293.697371 292.913067 
L 296.495076 292.937841 
L 299.292781 292.962615 
L 302.090487 292.987389 
L 304.888192 293.012163 
L 307.685898 293.036937 
L 310.483603 293.061711 
L 313.281308 293.086485 
L 316.079014 293.111258 
L 318.876719 293.136032 
L 321.674425 293.160806 
L 324.47213 293.18558 
L 327.269835 293.210354 
L 330.067541 293.235128 
L 332.865246 293.259902 
L 335.662951 293.284676 
L 338.460657 293.30945 
" style="fill:none;stroke:#f669ba;stroke-linecap:round;stroke-width:2.25;"/>
   </g>
   <g id="patch_3">
    <path d="M 44.329731 320.2 
L 44.329731 14.3 
" style="fill:none;stroke:#262626;stroke-linecap:square;stroke-linejoin:miter;stroke-width:0.8;"/>
   </g>
   <g id="patch_4">
    <path d="M 44.329731 320.2 
L 355.61875 320.2 
" style="fill:none;stroke:#262626;stroke-linecap:square;stroke-linejoin:miter;stroke-width:0.8;"/>
   </g>
   <g id="text_19">
    <!-- r=0.129, p=0.265 -->
    <defs>
     <path d="M 6.5 0 
L 6.5 51.859375 
L 14.40625 51.859375 
L 14.40625 44 
Q 17.4375 49.515625 20 51.265625 
Q 22.5625 53.03125 25.640625 53.03125 
Q 30.078125 53.03125 34.671875 50.203125 
L 31.640625 42.046875 
Q 28.421875 43.953125 25.203125 43.953125 
Q 22.3125 43.953125 20.015625 42.21875 
Q 17.71875 40.484375 16.75 37.40625 
Q 15.28125 32.71875 15.28125 27.15625 
L 15.28125 0 
z
" id="ArialMT-114"/>
     <path d="M 52.828125 42.09375 
L 5.5625 42.09375 
L 5.5625 50.296875 
L 52.828125 50.296875 
z
M 52.828125 20.359375 
L 5.5625 20.359375 
L 5.5625 28.5625 
L 52.828125 28.5625 
z
" id="ArialMT-61"/>
     <path d="M 9.078125 0 
L 9.078125 10.015625 
L 19.09375 10.015625 
L 19.09375 0 
z
" id="ArialMT-46"/>
     <path d="M 8.890625 0 
L 8.890625 10.015625 
L 18.890625 10.015625 
L 18.890625 0 
Q 18.890625 -5.515625 16.9375 -8.90625 
Q 14.984375 -12.3125 10.75 -14.15625 
L 8.296875 -10.40625 
Q 11.078125 -9.1875 12.390625 -6.8125 
Q 13.71875 -4.4375 13.875 0 
z
" id="ArialMT-44"/>
     <path id="ArialMT-32"/>
     <path d="M 6.59375 -19.875 
L 6.59375 51.859375 
L 14.59375 51.859375 
L 14.59375 45.125 
Q 17.4375 49.078125 21 51.046875 
Q 24.5625 53.03125 29.640625 53.03125 
Q 36.28125 53.03125 41.359375 49.609375 
Q 46.4375 46.1875 49.015625 39.953125 
Q 51.609375 33.734375 51.609375 26.3125 
Q 51.609375 18.359375 48.75 11.984375 
Q 45.90625 5.609375 40.453125 2.21875 
Q 35.015625 -1.171875 29 -1.171875 
Q 24.609375 -1.171875 21.109375 0.6875 
Q 17.625 2.546875 15.375 5.375 
L 15.375 -19.875 
z
M 14.546875 25.640625 
Q 14.546875 15.625 18.59375 10.84375 
Q 22.65625 6.0625 28.421875 6.0625 
Q 34.28125 6.0625 38.453125 11.015625 
Q 42.625 15.96875 42.625 26.375 
Q 42.625 36.28125 38.546875 41.203125 
Q 34.46875 46.140625 28.8125 46.140625 
Q 23.1875 46.140625 18.859375 40.890625 
Q 14.546875 35.640625 14.546875 25.640625 
z
" id="ArialMT-112"/>
    </defs>
    <g style="fill:#262626;" transform="translate(140.622919 65.735979)scale(0.15 -0.15)">
     <use xlink:href="#ArialMT-114"/>
     <use x="33.300781" xlink:href="#ArialMT-61"/>
     <use x="91.699219" xlink:href="#ArialMT-48"/>
     <use x="147.314453" xlink:href="#ArialMT-46"/>
     <use x="175.097656" xlink:href="#ArialMT-49"/>
     <use x="230.712891" xlink:href="#ArialMT-50"/>
     <use x="286.328125" xlink:href="#ArialMT-57"/>
     <use x="341.943359" xlink:href="#ArialMT-44"/>
     <use x="369.726562" xlink:href="#ArialMT-32"/>
     <use x="397.509766" xlink:href="#ArialMT-112"/>
     <use x="453.125" xlink:href="#ArialMT-61"/>
     <use x="511.523438" xlink:href="#ArialMT-48"/>
     <use x="567.138672" xlink:href="#ArialMT-46"/>
     <use x="594.921875" xlink:href="#ArialMT-50"/>
     <use x="650.537109" xlink:href="#ArialMT-54"/>
     <use x="706.152344" xlink:href="#ArialMT-53"/>
    </g>
   </g>
  </g>
  <g id="legend_1">
   <g id="text_20">
    <!-- host_subject_id -->
    <defs>
     <path d="M 6.59375 0 
L 6.59375 71.578125 
L 15.375 71.578125 
L 15.375 45.90625 
Q 21.53125 53.03125 30.90625 53.03125 
Q 36.671875 53.03125 40.921875 50.75 
Q 45.171875 48.484375 47 44.484375 
Q 48.828125 40.484375 48.828125 32.859375 
L 48.828125 0 
L 40.046875 0 
L 40.046875 32.859375 
Q 40.046875 39.453125 37.1875 42.453125 
Q 34.328125 45.453125 29.109375 45.453125 
Q 25.203125 45.453125 21.75 43.421875 
Q 18.3125 41.40625 16.84375 37.9375 
Q 15.375 34.46875 15.375 28.375 
L 15.375 0 
z
" id="ArialMT-104"/>
     <path d="M 3.328125 25.921875 
Q 3.328125 40.328125 11.328125 47.265625 
Q 18.015625 53.03125 27.640625 53.03125 
Q 38.328125 53.03125 45.109375 46.015625 
Q 51.90625 39.015625 51.90625 26.65625 
Q 51.90625 16.65625 48.90625 10.90625 
Q 45.90625 5.171875 40.15625 2 
Q 34.421875 -1.171875 27.640625 -1.171875 
Q 16.75 -1.171875 10.03125 5.8125 
Q 3.328125 12.796875 3.328125 25.921875 
z
M 12.359375 25.921875 
Q 12.359375 15.96875 16.703125 11.015625 
Q 21.046875 6.0625 27.640625 6.0625 
Q 34.1875 6.0625 38.53125 11.03125 
Q 42.875 16.015625 42.875 26.21875 
Q 42.875 35.84375 38.5 40.796875 
Q 34.125 45.75 27.640625 45.75 
Q 21.046875 45.75 16.703125 40.8125 
Q 12.359375 35.890625 12.359375 25.921875 
z
" id="ArialMT-111"/>
     <path d="M 3.078125 15.484375 
L 11.765625 16.84375 
Q 12.5 11.625 15.84375 8.84375 
Q 19.1875 6.0625 25.203125 6.0625 
Q 31.25 6.0625 34.171875 8.515625 
Q 37.109375 10.984375 37.109375 14.3125 
Q 37.109375 17.28125 34.515625 19 
Q 32.71875 20.171875 25.53125 21.96875 
Q 15.875 24.421875 12.140625 26.203125 
Q 8.40625 27.984375 6.46875 31.125 
Q 4.546875 34.28125 4.546875 38.09375 
Q 4.546875 41.546875 6.125 44.5 
Q 7.71875 47.46875 10.453125 49.421875 
Q 12.5 50.921875 16.03125 51.96875 
Q 19.578125 53.03125 23.640625 53.03125 
Q 29.734375 53.03125 34.34375 51.265625 
Q 38.96875 49.515625 41.15625 46.5 
Q 43.359375 43.5 44.1875 38.484375 
L 35.59375 37.3125 
Q 35.015625 41.3125 32.203125 43.546875 
Q 29.390625 45.796875 24.265625 45.796875 
Q 18.21875 45.796875 15.625 43.796875 
Q 13.03125 41.796875 13.03125 39.109375 
Q 13.03125 37.40625 14.109375 36.03125 
Q 15.1875 34.625 17.484375 33.6875 
Q 18.796875 33.203125 25.25 31.453125 
Q 34.578125 28.953125 38.25 27.359375 
Q 41.9375 25.78125 44.03125 22.75 
Q 46.140625 19.734375 46.140625 15.234375 
Q 46.140625 10.84375 43.578125 6.953125 
Q 41.015625 3.078125 36.171875 0.953125 
Q 31.34375 -1.171875 25.25 -1.171875 
Q 15.140625 -1.171875 9.84375 3.03125 
Q 4.546875 7.234375 3.078125 15.484375 
z
" id="ArialMT-115"/>
     <path d="M 25.78125 7.859375 
L 27.046875 0.09375 
Q 23.34375 -0.6875 20.40625 -0.6875 
Q 15.625 -0.6875 12.984375 0.828125 
Q 10.359375 2.34375 9.28125 4.8125 
Q 8.203125 7.28125 8.203125 15.1875 
L 8.203125 45.015625 
L 1.765625 45.015625 
L 1.765625 51.859375 
L 8.203125 51.859375 
L 8.203125 64.703125 
L 16.9375 69.96875 
L 16.9375 51.859375 
L 25.78125 51.859375 
L 25.78125 45.015625 
L 16.9375 45.015625 
L 16.9375 14.703125 
Q 16.9375 10.9375 17.40625 9.859375 
Q 17.875 8.796875 18.921875 8.15625 
Q 19.96875 7.515625 21.921875 7.515625 
Q 23.390625 7.515625 25.78125 7.859375 
z
" id="ArialMT-116"/>
     <path d="M -1.515625 -19.875 
L -1.515625 -13.53125 
L 56.734375 -13.53125 
L 56.734375 -19.875 
z
" id="ArialMT-95"/>
     <path d="M 40.578125 0 
L 40.578125 7.625 
Q 34.515625 -1.171875 24.125 -1.171875 
Q 19.53125 -1.171875 15.546875 0.578125 
Q 11.578125 2.34375 9.640625 5 
Q 7.71875 7.671875 6.9375 11.53125 
Q 6.390625 14.109375 6.390625 19.734375 
L 6.390625 51.859375 
L 15.1875 51.859375 
L 15.1875 23.09375 
Q 15.1875 16.21875 15.71875 13.8125 
Q 16.546875 10.359375 19.234375 8.375 
Q 21.921875 6.390625 25.875 6.390625 
Q 29.828125 6.390625 33.296875 8.421875 
Q 36.765625 10.453125 38.203125 13.9375 
Q 39.65625 17.4375 39.65625 24.078125 
L 39.65625 51.859375 
L 48.4375 51.859375 
L 48.4375 0 
z
" id="ArialMT-117"/>
     <path d="M 14.703125 0 
L 6.546875 0 
L 6.546875 71.578125 
L 15.328125 71.578125 
L 15.328125 46.046875 
Q 20.90625 53.03125 29.546875 53.03125 
Q 34.328125 53.03125 38.59375 51.09375 
Q 42.875 49.171875 45.625 45.671875 
Q 48.390625 42.1875 49.953125 37.25 
Q 51.515625 32.328125 51.515625 26.703125 
Q 51.515625 13.375 44.921875 6.09375 
Q 38.328125 -1.171875 29.109375 -1.171875 
Q 19.921875 -1.171875 14.703125 6.5 
z
M 14.59375 26.3125 
Q 14.59375 17 17.140625 12.84375 
Q 21.296875 6.0625 28.375 6.0625 
Q 34.125 6.0625 38.328125 11.0625 
Q 42.53125 16.0625 42.53125 25.984375 
Q 42.53125 36.140625 38.5 40.96875 
Q 34.46875 45.796875 28.765625 45.796875 
Q 23 45.796875 18.796875 40.796875 
Q 14.59375 35.796875 14.59375 26.3125 
z
" id="ArialMT-98"/>
     <path d="M 6.546875 61.375 
L 6.546875 71.578125 
L 15.328125 71.578125 
L 15.328125 61.375 
z
M -4.59375 -20.125 
L -2.9375 -12.640625 
Q -0.296875 -13.328125 1.21875 -13.328125 
Q 3.90625 -13.328125 5.21875 -11.546875 
Q 6.546875 -9.765625 6.546875 -2.640625 
L 6.546875 51.859375 
L 15.328125 51.859375 
L 15.328125 -2.828125 
Q 15.328125 -12.40625 12.84375 -16.15625 
Q 9.671875 -21.046875 2.296875 -21.046875 
Q -1.265625 -21.046875 -4.59375 -20.125 
z
" id="ArialMT-106"/>
     <path d="M 40.4375 19 
L 49.078125 17.875 
Q 47.65625 8.9375 41.8125 3.875 
Q 35.984375 -1.171875 27.484375 -1.171875 
Q 16.84375 -1.171875 10.375 5.78125 
Q 3.90625 12.75 3.90625 25.734375 
Q 3.90625 34.125 6.6875 40.421875 
Q 9.46875 46.734375 15.15625 49.875 
Q 20.84375 53.03125 27.546875 53.03125 
Q 35.984375 53.03125 41.359375 48.75 
Q 46.734375 44.484375 48.25 36.625 
L 39.703125 35.296875 
Q 38.484375 40.53125 35.375 43.15625 
Q 32.28125 45.796875 27.875 45.796875 
Q 21.234375 45.796875 17.078125 41.03125 
Q 12.9375 36.28125 12.9375 25.984375 
Q 12.9375 15.53125 16.9375 10.796875 
Q 20.953125 6.0625 27.390625 6.0625 
Q 32.5625 6.0625 36.03125 9.234375 
Q 39.5 12.40625 40.4375 19 
z
" id="ArialMT-99"/>
     <path d="M 40.234375 0 
L 40.234375 6.546875 
Q 35.296875 -1.171875 25.734375 -1.171875 
Q 19.53125 -1.171875 14.328125 2.25 
Q 9.125 5.671875 6.265625 11.796875 
Q 3.421875 17.921875 3.421875 25.875 
Q 3.421875 33.640625 6 39.96875 
Q 8.59375 46.296875 13.765625 49.65625 
Q 18.953125 53.03125 25.34375 53.03125 
Q 30.03125 53.03125 33.6875 51.046875 
Q 37.359375 49.078125 39.65625 45.90625 
L 39.65625 71.578125 
L 48.390625 71.578125 
L 48.390625 0 
z
M 12.453125 25.875 
Q 12.453125 15.921875 16.640625 10.984375 
Q 20.84375 6.0625 26.5625 6.0625 
Q 32.328125 6.0625 36.34375 10.765625 
Q 40.375 15.484375 40.375 25.140625 
Q 40.375 35.796875 36.265625 40.765625 
Q 32.171875 45.75 26.171875 45.75 
Q 20.3125 45.75 16.375 40.96875 
Q 12.453125 36.1875 12.453125 25.875 
z
" id="ArialMT-100"/>
    </defs>
    <g style="fill:#262626;" transform="translate(359.6375 83.509375)scale(0.1 -0.1)">
     <use xlink:href="#ArialMT-104"/>
     <use x="55.615234" xlink:href="#ArialMT-111"/>
     <use x="111.230469" xlink:href="#ArialMT-115"/>
     <use x="161.230469" xlink:href="#ArialMT-116"/>
     <use x="189.013672" xlink:href="#ArialMT-95"/>
     <use x="244.628906" xlink:href="#ArialMT-115"/>
     <use x="294.628906" xlink:href="#ArialMT-117"/>
     <use x="350.244141" xlink:href="#ArialMT-98"/>
     <use x="405.859375" xlink:href="#ArialMT-106"/>
     <use x="428.076172" xlink:href="#ArialMT-101"/>
     <use x="483.691406" xlink:href="#ArialMT-99"/>
     <use x="533.691406" xlink:href="#ArialMT-116"/>
     <use x="561.474609" xlink:href="#ArialMT-95"/>
     <use x="617.089844" xlink:href="#ArialMT-105"/>
     <use x="639.306641" xlink:href="#ArialMT-100"/>
    </g>
   </g>
   <g id="PathCollection_15">
    <g>
     <use style="fill:#f77189;fill-opacity:0.8;stroke:#f77189;stroke-opacity:0.8;" x="374.264062" xlink:href="#m1b6f0c669a" y="95.146875"/>
    </g>
   </g>
   <g id="text_21">
    <!-- DM001 -->
    <defs>
     <path d="M 7.421875 0 
L 7.421875 71.578125 
L 21.6875 71.578125 
L 38.625 20.90625 
Q 40.96875 13.8125 42.046875 10.296875 
Q 43.265625 14.203125 45.84375 21.78125 
L 62.984375 71.578125 
L 75.734375 71.578125 
L 75.734375 0 
L 66.609375 0 
L 66.609375 59.90625 
L 45.796875 0 
L 37.25 0 
L 16.546875 60.9375 
L 16.546875 0 
z
" id="ArialMT-77"/>
    </defs>
    <g style="fill:#262626;" transform="translate(392.264062 97.771875)scale(0.1 -0.1)">
     <use xlink:href="#ArialMT-68"/>
     <use x="72.216797" xlink:href="#ArialMT-77"/>
     <use x="155.517578" xlink:href="#ArialMT-48"/>
     <use x="211.132812" xlink:href="#ArialMT-48"/>
     <use x="266.748047" xlink:href="#ArialMT-49"/>
    </g>
   </g>
   <g id="PathCollection_16">
    <g>
     <use style="fill:#ef7d32;fill-opacity:0.8;stroke:#ef7d32;stroke-opacity:0.8;" x="374.264062" xlink:href="#m11c4b42370" y="109.292188"/>
    </g>
   </g>
   <g id="text_22">
    <!-- DM002 -->
    <g style="fill:#262626;" transform="translate(392.264062 111.917188)scale(0.1 -0.1)">
     <use xlink:href="#ArialMT-68"/>
     <use x="72.216797" xlink:href="#ArialMT-77"/>
     <use x="155.517578" xlink:href="#ArialMT-48"/>
     <use x="211.132812" xlink:href="#ArialMT-48"/>
     <use x="266.748047" xlink:href="#ArialMT-50"/>
    </g>
   </g>
   <g id="PathCollection_17">
    <g>
     <use style="fill:#c69432;fill-opacity:0.8;stroke:#c69432;stroke-opacity:0.8;" x="374.264062" xlink:href="#m13ff0d19ff" y="123.4375"/>
    </g>
   </g>
   <g id="text_23">
    <!-- DM003 -->
    <g style="fill:#262626;" transform="translate(392.264062 126.0625)scale(0.1 -0.1)">
     <use xlink:href="#ArialMT-68"/>
     <use x="72.216797" xlink:href="#ArialMT-77"/>
     <use x="155.517578" xlink:href="#ArialMT-48"/>
     <use x="211.132812" xlink:href="#ArialMT-48"/>
     <use x="266.748047" xlink:href="#ArialMT-51"/>
    </g>
   </g>
   <g id="PathCollection_18">
    <g>
     <use style="fill:#a79f31;fill-opacity:0.8;stroke:#a79f31;stroke-opacity:0.8;" x="374.264062" xlink:href="#m6dcc9907cd" y="137.582813"/>
    </g>
   </g>
   <g id="text_24">
    <!-- DM006 -->
    <g style="fill:#262626;" transform="translate(392.264062 140.207813)scale(0.1 -0.1)">
     <use xlink:href="#ArialMT-68"/>
     <use x="72.216797" xlink:href="#ArialMT-77"/>
     <use x="155.517578" xlink:href="#ArialMT-48"/>
     <use x="211.132812" xlink:href="#ArialMT-48"/>
     <use x="266.748047" xlink:href="#ArialMT-54"/>
    </g>
   </g>
   <g id="PathCollection_19">
    <g>
     <use style="fill:#82a931;fill-opacity:0.8;stroke:#82a931;stroke-opacity:0.8;" x="374.264062" xlink:href="#mb857e38f68" y="151.728125"/>
    </g>
   </g>
   <g id="text_25">
    <!-- DM008 -->
    <g style="fill:#262626;" transform="translate(392.264062 154.353125)scale(0.1 -0.1)">
     <use xlink:href="#ArialMT-68"/>
     <use x="72.216797" xlink:href="#ArialMT-77"/>
     <use x="155.517578" xlink:href="#ArialMT-48"/>
     <use x="211.132812" xlink:href="#ArialMT-48"/>
     <use x="266.748047" xlink:href="#ArialMT-56"/>
    </g>
   </g>
   <g id="PathCollection_20">
    <g>
     <use style="fill:#32b24e;fill-opacity:0.8;stroke:#32b24e;stroke-opacity:0.8;" x="374.264062" xlink:href="#m0a225a835c" y="165.873438"/>
    </g>
   </g>
   <g id="text_26">
    <!-- DM009 -->
    <g style="fill:#262626;" transform="translate(392.264062 168.498438)scale(0.1 -0.1)">
     <use xlink:href="#ArialMT-68"/>
     <use x="72.216797" xlink:href="#ArialMT-77"/>
     <use x="155.517578" xlink:href="#ArialMT-48"/>
     <use x="211.132812" xlink:href="#ArialMT-48"/>
     <use x="266.748047" xlink:href="#ArialMT-57"/>
    </g>
   </g>
   <g id="PathCollection_21">
    <g>
     <use style="fill:#34af8a;fill-opacity:0.8;stroke:#34af8a;stroke-opacity:0.8;" x="374.264062" xlink:href="#m8de402c09f" y="180.01875"/>
    </g>
   </g>
   <g id="text_27">
    <!-- DM010 -->
    <g style="fill:#262626;" transform="translate(392.264062 182.64375)scale(0.1 -0.1)">
     <use xlink:href="#ArialMT-68"/>
     <use x="72.216797" xlink:href="#ArialMT-77"/>
     <use x="155.517578" xlink:href="#ArialMT-48"/>
     <use x="211.132812" xlink:href="#ArialMT-49"/>
     <use x="266.748047" xlink:href="#ArialMT-48"/>
    </g>
   </g>
   <g id="PathCollection_22">
    <g>
     <use style="fill:#36ada4;fill-opacity:0.8;stroke:#36ada4;stroke-opacity:0.8;" x="374.264062" xlink:href="#mc66d72c18d" y="194.164063"/>
    </g>
   </g>
   <g id="text_28">
    <!-- DM011 -->
    <g style="fill:#262626;" transform="translate(392.264062 196.789063)scale(0.1 -0.1)">
     <use xlink:href="#ArialMT-68"/>
     <use x="72.216797" xlink:href="#ArialMT-77"/>
     <use x="155.517578" xlink:href="#ArialMT-48"/>
     <use x="211.132812" xlink:href="#ArialMT-49"/>
     <use x="266.638672" xlink:href="#ArialMT-49"/>
    </g>
   </g>
   <g id="PathCollection_23">
    <g>
     <use style="fill:#37aabb;fill-opacity:0.8;stroke:#37aabb;stroke-opacity:0.8;" x="374.264062" xlink:href="#md484666968" y="208.309375"/>
    </g>
   </g>
   <g id="text_29">
    <!-- DM013 -->
    <g style="fill:#262626;" transform="translate(392.264062 210.934375)scale(0.1 -0.1)">
     <use xlink:href="#ArialMT-68"/>
     <use x="72.216797" xlink:href="#ArialMT-77"/>
     <use x="155.517578" xlink:href="#ArialMT-48"/>
     <use x="211.132812" xlink:href="#ArialMT-49"/>
     <use x="266.748047" xlink:href="#ArialMT-51"/>
    </g>
   </g>
   <g id="PathCollection_24">
    <g>
     <use style="fill:#3aa6da;fill-opacity:0.8;stroke:#3aa6da;stroke-opacity:0.8;" x="374.264062" xlink:href="#me592ef099d" y="222.454688"/>
    </g>
   </g>
   <g id="text_30">
    <!-- DM014 -->
    <g style="fill:#262626;" transform="translate(392.264062 225.079688)scale(0.1 -0.1)">
     <use xlink:href="#ArialMT-68"/>
     <use x="72.216797" xlink:href="#ArialMT-77"/>
     <use x="155.517578" xlink:href="#ArialMT-48"/>
     <use x="211.132812" xlink:href="#ArialMT-49"/>
     <use x="266.748047" xlink:href="#ArialMT-52"/>
    </g>
   </g>
   <g id="PathCollection_25">
    <g>
     <use style="fill:#8197f4;fill-opacity:0.8;stroke:#8197f4;stroke-opacity:0.8;" x="374.264062" xlink:href="#m4a5476ea3a" y="236.6"/>
    </g>
   </g>
   <g id="text_31">
    <!-- DM015 -->
    <g style="fill:#262626;" transform="translate(392.264062 239.225)scale(0.1 -0.1)">
     <use xlink:href="#ArialMT-68"/>
     <use x="72.216797" xlink:href="#ArialMT-77"/>
     <use x="155.517578" xlink:href="#ArialMT-48"/>
     <use x="211.132812" xlink:href="#ArialMT-49"/>
     <use x="266.748047" xlink:href="#ArialMT-53"/>
    </g>
   </g>
   <g id="PathCollection_26">
    <g>
     <use style="fill:#c180f4;fill-opacity:0.8;stroke:#c180f4;stroke-opacity:0.8;" x="374.264062" xlink:href="#m06f7f10ecd" y="250.745313"/>
    </g>
   </g>
   <g id="text_32">
    <!-- DM016 -->
    <g style="fill:#262626;" transform="translate(392.264062 253.370313)scale(0.1 -0.1)">
     <use xlink:href="#ArialMT-68"/>
     <use x="72.216797" xlink:href="#ArialMT-77"/>
     <use x="155.517578" xlink:href="#ArialMT-48"/>
     <use x="211.132812" xlink:href="#ArialMT-49"/>
     <use x="266.748047" xlink:href="#ArialMT-54"/>
    </g>
   </g>
   <g id="PathCollection_27">
    <g>
     <use style="fill:#f45deb;fill-opacity:0.8;stroke:#f45deb;stroke-opacity:0.8;" x="374.264062" xlink:href="#m3fd7bb059f" y="264.890625"/>
    </g>
   </g>
   <g id="text_33">
    <!-- DM017 -->
    <g style="fill:#262626;" transform="translate(392.264062 267.515625)scale(0.1 -0.1)">
     <use xlink:href="#ArialMT-68"/>
     <use x="72.216797" xlink:href="#ArialMT-77"/>
     <use x="155.517578" xlink:href="#ArialMT-48"/>
     <use x="211.132812" xlink:href="#ArialMT-49"/>
     <use x="266.748047" xlink:href="#ArialMT-55"/>
    </g>
   </g>
   <g id="PathCollection_28">
    <g>
     <use style="fill:#f669ba;fill-opacity:0.8;stroke:#f669ba;stroke-opacity:0.8;" x="374.264062" xlink:href="#mc606e013e2" y="279.035937"/>
    </g>
   </g>
   <g id="text_34">
    <!-- DM018 -->
    <g style="fill:#262626;" transform="translate(392.264062 281.660937)scale(0.1 -0.1)">
     <use xlink:href="#ArialMT-68"/>
     <use x="72.216797" xlink:href="#ArialMT-77"/>
     <use x="155.517578" xlink:href="#ArialMT-48"/>
     <use x="211.132812" xlink:href="#ArialMT-49"/>
     <use x="266.748047" xlink:href="#ArialMT-56"/>
    </g>
   </g>
  </g>
 </g>
 <defs>
  <clipPath id="p80dbd95536">
   <rect height="305.9" width="311.289019" x="44.329731" y="14.3"/>
  </clipPath>
 </defs>
</svg>
