<?xml version="1.0" encoding="utf-8" standalone="no"?>
<!DOCTYPE svg PUBLIC "-//W3C//DTD SVG 1.1//EN"
  "http://www.w3.org/Graphics/SVG/1.1/DTD/svg11.dtd">
<!-- Created with matplotlib (https://matplotlib.org/) -->
<svg height="360pt" version="1.1" viewBox="0 0 438.125 360" width="438.125pt" xmlns="http://www.w3.org/2000/svg" xmlns:xlink="http://www.w3.org/1999/xlink">
 <defs>
  <style type="text/css">
*{stroke-linecap:butt;stroke-linejoin:round;}
  </style>
 </defs>
 <g id="figure_1">
  <g id="patch_1">
   <path d="M 0 360 
L 438.125 360 
L 438.125 0 
L 0 0 
z
" style="fill:#ffffff;"/>
  </g>
  <g id="axes_1">
   <g id="patch_2">
    <path d="M 51.479688 320.2 
L 355.61875 320.2 
L 355.61875 14.3 
L 51.479688 14.3 
z
" style="fill:#ffffff;"/>
   </g>
   <g id="matplotlib.axis_1">
    <g id="xtick_1">
     <g id="text_1">
      <!-- 0.2 -->
      <defs>
       <path d="M 4.15625 35.296875 
Q 4.15625 48 6.765625 55.734375 
Q 9.375 63.484375 14.515625 67.671875 
Q 19.671875 71.875 27.484375 71.875 
Q 33.25 71.875 37.59375 69.546875 
Q 41.9375 67.234375 44.765625 62.859375 
Q 47.609375 58.5 49.21875 52.21875 
Q 50.828125 45.953125 50.828125 35.296875 
Q 50.828125 22.703125 48.234375 14.96875 
Q 45.65625 7.234375 40.5 3 
Q 35.359375 -1.21875 27.484375 -1.21875 
Q 17.140625 -1.21875 11.234375 6.203125 
Q 4.15625 15.140625 4.15625 35.296875 
z
M 13.1875 35.296875 
Q 13.1875 17.671875 17.3125 11.828125 
Q 21.4375 6 27.484375 6 
Q 33.546875 6 37.671875 11.859375 
Q 41.796875 17.71875 41.796875 35.296875 
Q 41.796875 52.984375 37.671875 58.78125 
Q 33.546875 64.59375 27.390625 64.59375 
Q 21.34375 64.59375 17.71875 59.46875 
Q 13.1875 52.9375 13.1875 35.296875 
z
" id="ArialMT-48"/>
       <path d="M 9.078125 0 
L 9.078125 10.015625 
L 19.09375 10.015625 
L 19.09375 0 
z
" id="ArialMT-46"/>
       <path d="M 50.34375 8.453125 
L 50.34375 0 
L 3.03125 0 
Q 2.9375 3.171875 4.046875 6.109375 
Q 5.859375 10.9375 9.828125 15.625 
Q 13.8125 20.3125 21.34375 26.46875 
Q 33.015625 36.03125 37.109375 41.625 
Q 41.21875 47.21875 41.21875 52.203125 
Q 41.21875 57.421875 37.46875 61 
Q 33.734375 64.59375 27.734375 64.59375 
Q 21.390625 64.59375 17.578125 60.78125 
Q 13.765625 56.984375 13.71875 50.25 
L 4.6875 51.171875 
Q 5.609375 61.28125 11.65625 66.578125 
Q 17.71875 71.875 27.9375 71.875 
Q 38.234375 71.875 44.234375 66.15625 
Q 50.25 60.453125 50.25 52 
Q 50.25 47.703125 48.484375 43.546875 
Q 46.734375 39.40625 42.65625 34.8125 
Q 38.578125 30.21875 29.109375 22.21875 
Q 21.1875 15.578125 18.9375 13.203125 
Q 16.703125 10.84375 15.234375 8.453125 
z
" id="ArialMT-50"/>
      </defs>
      <g style="fill:#262626;" transform="translate(58.43721 335.789375)scale(0.12 -0.12)">
       <use xlink:href="#ArialMT-48"/>
       <use x="55.615234" xlink:href="#ArialMT-46"/>
       <use x="83.398438" xlink:href="#ArialMT-50"/>
      </g>
     </g>
    </g>
    <g id="xtick_2">
     <g id="text_2">
      <!-- 0.3 -->
      <defs>
       <path d="M 4.203125 18.890625 
L 12.984375 20.0625 
Q 14.5 12.59375 18.140625 9.296875 
Q 21.78125 6 27 6 
Q 33.203125 6 37.46875 10.296875 
Q 41.75 14.59375 41.75 20.953125 
Q 41.75 27 37.796875 30.921875 
Q 33.84375 34.859375 27.734375 34.859375 
Q 25.25 34.859375 21.53125 33.890625 
L 22.515625 41.609375 
Q 23.390625 41.5 23.921875 41.5 
Q 29.546875 41.5 34.03125 44.421875 
Q 38.53125 47.359375 38.53125 53.46875 
Q 38.53125 58.296875 35.25 61.46875 
Q 31.984375 64.65625 26.8125 64.65625 
Q 21.6875 64.65625 18.265625 61.421875 
Q 14.84375 58.203125 13.875 51.765625 
L 5.078125 53.328125 
Q 6.6875 62.15625 12.390625 67.015625 
Q 18.109375 71.875 26.609375 71.875 
Q 32.46875 71.875 37.390625 69.359375 
Q 42.328125 66.84375 44.9375 62.5 
Q 47.5625 58.15625 47.5625 53.265625 
Q 47.5625 48.640625 45.0625 44.828125 
Q 42.578125 41.015625 37.703125 38.765625 
Q 44.046875 37.3125 47.5625 32.6875 
Q 51.078125 28.078125 51.078125 21.140625 
Q 51.078125 11.765625 44.234375 5.25 
Q 37.40625 -1.265625 26.953125 -1.265625 
Q 17.53125 -1.265625 11.296875 4.34375 
Q 5.078125 9.96875 4.203125 18.890625 
z
" id="ArialMT-51"/>
      </defs>
      <g style="fill:#262626;" transform="translate(121.191133 335.789375)scale(0.12 -0.12)">
       <use xlink:href="#ArialMT-48"/>
       <use x="55.615234" xlink:href="#ArialMT-46"/>
       <use x="83.398438" xlink:href="#ArialMT-51"/>
      </g>
     </g>
    </g>
    <g id="xtick_3">
     <g id="text_3">
      <!-- 0.4 -->
      <defs>
       <path d="M 32.328125 0 
L 32.328125 17.140625 
L 1.265625 17.140625 
L 1.265625 25.203125 
L 33.9375 71.578125 
L 41.109375 71.578125 
L 41.109375 25.203125 
L 50.78125 25.203125 
L 50.78125 17.140625 
L 41.109375 17.140625 
L 41.109375 0 
z
M 32.328125 25.203125 
L 32.328125 57.46875 
L 9.90625 25.203125 
z
" id="ArialMT-52"/>
      </defs>
      <g style="fill:#262626;" transform="translate(183.945056 335.789375)scale(0.12 -0.12)">
       <use xlink:href="#ArialMT-48"/>
       <use x="55.615234" xlink:href="#ArialMT-46"/>
       <use x="83.398438" xlink:href="#ArialMT-52"/>
      </g>
     </g>
    </g>
    <g id="xtick_4">
     <g id="text_4">
      <!-- 0.5 -->
      <defs>
       <path d="M 4.15625 18.75 
L 13.375 19.53125 
Q 14.40625 12.796875 18.140625 9.390625 
Q 21.875 6 27.15625 6 
Q 33.5 6 37.890625 10.78125 
Q 42.28125 15.578125 42.28125 23.484375 
Q 42.28125 31 38.0625 35.34375 
Q 33.84375 39.703125 27 39.703125 
Q 22.75 39.703125 19.328125 37.765625 
Q 15.921875 35.84375 13.96875 32.765625 
L 5.71875 33.84375 
L 12.640625 70.609375 
L 48.25 70.609375 
L 48.25 62.203125 
L 19.671875 62.203125 
L 15.828125 42.96875 
Q 22.265625 47.46875 29.34375 47.46875 
Q 38.71875 47.46875 45.15625 40.96875 
Q 51.609375 34.46875 51.609375 24.265625 
Q 51.609375 14.546875 45.953125 7.46875 
Q 39.0625 -1.21875 27.15625 -1.21875 
Q 17.390625 -1.21875 11.203125 4.25 
Q 5.03125 9.71875 4.15625 18.75 
z
" id="ArialMT-53"/>
      </defs>
      <g style="fill:#262626;" transform="translate(246.698979 335.789375)scale(0.12 -0.12)">
       <use xlink:href="#ArialMT-48"/>
       <use x="55.615234" xlink:href="#ArialMT-46"/>
       <use x="83.398438" xlink:href="#ArialMT-53"/>
      </g>
     </g>
    </g>
    <g id="xtick_5">
     <g id="text_5">
      <!-- 0.6 -->
      <defs>
       <path d="M 49.75 54.046875 
L 41.015625 53.375 
Q 39.84375 58.546875 37.703125 60.890625 
Q 34.125 64.65625 28.90625 64.65625 
Q 24.703125 64.65625 21.53125 62.3125 
Q 17.390625 59.28125 14.984375 53.46875 
Q 12.59375 47.65625 12.5 36.921875 
Q 15.671875 41.75 20.265625 44.09375 
Q 24.859375 46.4375 29.890625 46.4375 
Q 38.671875 46.4375 44.84375 39.96875 
Q 51.03125 33.5 51.03125 23.25 
Q 51.03125 16.5 48.125 10.71875 
Q 45.21875 4.9375 40.140625 1.859375 
Q 35.0625 -1.21875 28.609375 -1.21875 
Q 17.625 -1.21875 10.6875 6.859375 
Q 3.765625 14.9375 3.765625 33.5 
Q 3.765625 54.25 11.421875 63.671875 
Q 18.109375 71.875 29.4375 71.875 
Q 37.890625 71.875 43.28125 67.140625 
Q 48.6875 62.40625 49.75 54.046875 
z
M 13.875 23.1875 
Q 13.875 18.65625 15.796875 14.5 
Q 17.71875 10.359375 21.1875 8.171875 
Q 24.65625 6 28.46875 6 
Q 34.03125 6 38.03125 10.484375 
Q 42.046875 14.984375 42.046875 22.703125 
Q 42.046875 30.125 38.078125 34.390625 
Q 34.125 38.671875 28.125 38.671875 
Q 22.171875 38.671875 18.015625 34.390625 
Q 13.875 30.125 13.875 23.1875 
z
" id="ArialMT-54"/>
      </defs>
      <g style="fill:#262626;" transform="translate(309.452902 335.789375)scale(0.12 -0.12)">
       <use xlink:href="#ArialMT-48"/>
       <use x="55.615234" xlink:href="#ArialMT-46"/>
       <use x="83.398438" xlink:href="#ArialMT-54"/>
      </g>
     </g>
    </g>
    <g id="text_6">
     <!-- Unweighted UniFrac Dist. to Baseline -->
     <defs>
      <path d="M 54.6875 71.578125 
L 64.15625 71.578125 
L 64.15625 30.21875 
Q 64.15625 19.4375 61.71875 13.078125 
Q 59.28125 6.734375 52.90625 2.75 
Q 46.53125 -1.21875 36.1875 -1.21875 
Q 26.125 -1.21875 19.71875 2.25 
Q 13.328125 5.71875 10.59375 12.28125 
Q 7.859375 18.84375 7.859375 30.21875 
L 7.859375 71.578125 
L 17.328125 71.578125 
L 17.328125 30.28125 
Q 17.328125 20.953125 19.0625 16.53125 
Q 20.796875 12.109375 25.015625 9.71875 
Q 29.25 7.328125 35.359375 7.328125 
Q 45.796875 7.328125 50.234375 12.0625 
Q 54.6875 16.796875 54.6875 30.28125 
z
" id="ArialMT-85"/>
      <path d="M 6.59375 0 
L 6.59375 51.859375 
L 14.5 51.859375 
L 14.5 44.484375 
Q 20.21875 53.03125 31 53.03125 
Q 35.6875 53.03125 39.625 51.34375 
Q 43.5625 49.65625 45.515625 46.921875 
Q 47.46875 44.1875 48.25 40.4375 
Q 48.734375 37.984375 48.734375 31.890625 
L 48.734375 0 
L 39.9375 0 
L 39.9375 31.546875 
Q 39.9375 36.921875 38.90625 39.578125 
Q 37.890625 42.234375 35.28125 43.8125 
Q 32.671875 45.40625 29.15625 45.40625 
Q 23.53125 45.40625 19.453125 41.84375 
Q 15.375 38.28125 15.375 28.328125 
L 15.375 0 
z
" id="ArialMT-110"/>
      <path d="M 16.15625 0 
L 0.296875 51.859375 
L 9.375 51.859375 
L 17.625 21.921875 
L 20.703125 10.796875 
Q 20.90625 11.625 23.390625 21.484375 
L 31.640625 51.859375 
L 40.671875 51.859375 
L 48.4375 21.78125 
L 51.03125 11.859375 
L 54 21.875 
L 62.890625 51.859375 
L 71.4375 51.859375 
L 55.21875 0 
L 46.09375 0 
L 37.84375 31.0625 
L 35.84375 39.890625 
L 25.34375 0 
z
" id="ArialMT-119"/>
      <path d="M 42.09375 16.703125 
L 51.171875 15.578125 
Q 49.03125 7.625 43.21875 3.21875 
Q 37.40625 -1.171875 28.375 -1.171875 
Q 17 -1.171875 10.328125 5.828125 
Q 3.65625 12.84375 3.65625 25.484375 
Q 3.65625 38.578125 10.390625 45.796875 
Q 17.140625 53.03125 27.875 53.03125 
Q 38.28125 53.03125 44.875 45.953125 
Q 51.46875 38.875 51.46875 26.03125 
Q 51.46875 25.25 51.421875 23.6875 
L 12.75 23.6875 
Q 13.234375 15.140625 17.578125 10.59375 
Q 21.921875 6.0625 28.421875 6.0625 
Q 33.25 6.0625 36.671875 8.59375 
Q 40.09375 11.140625 42.09375 16.703125 
z
M 13.234375 30.90625 
L 42.1875 30.90625 
Q 41.609375 37.453125 38.875 40.71875 
Q 34.671875 45.796875 27.984375 45.796875 
Q 21.921875 45.796875 17.796875 41.75 
Q 13.671875 37.703125 13.234375 30.90625 
z
" id="ArialMT-101"/>
      <path d="M 6.640625 61.46875 
L 6.640625 71.578125 
L 15.4375 71.578125 
L 15.4375 61.46875 
z
M 6.640625 0 
L 6.640625 51.859375 
L 15.4375 51.859375 
L 15.4375 0 
z
" id="ArialMT-105"/>
      <path d="M 4.984375 -4.296875 
L 13.53125 -5.5625 
Q 14.0625 -9.515625 16.5 -11.328125 
Q 19.78125 -13.765625 25.4375 -13.765625 
Q 31.546875 -13.765625 34.859375 -11.328125 
Q 38.1875 -8.890625 39.359375 -4.5 
Q 40.046875 -1.8125 39.984375 6.78125 
Q 34.234375 0 25.640625 0 
Q 14.9375 0 9.078125 7.71875 
Q 3.21875 15.4375 3.21875 26.21875 
Q 3.21875 33.640625 5.90625 39.90625 
Q 8.59375 46.1875 13.6875 49.609375 
Q 18.796875 53.03125 25.6875 53.03125 
Q 34.859375 53.03125 40.828125 45.609375 
L 40.828125 51.859375 
L 48.921875 51.859375 
L 48.921875 7.03125 
Q 48.921875 -5.078125 46.453125 -10.125 
Q 44 -15.1875 38.640625 -18.109375 
Q 33.296875 -21.046875 25.484375 -21.046875 
Q 16.21875 -21.046875 10.5 -16.875 
Q 4.78125 -12.703125 4.984375 -4.296875 
z
M 12.25 26.859375 
Q 12.25 16.65625 16.296875 11.96875 
Q 20.359375 7.28125 26.46875 7.28125 
Q 32.515625 7.28125 36.609375 11.9375 
Q 40.71875 16.609375 40.71875 26.5625 
Q 40.71875 36.078125 36.5 40.90625 
Q 32.28125 45.75 26.3125 45.75 
Q 20.453125 45.75 16.34375 40.984375 
Q 12.25 36.234375 12.25 26.859375 
z
" id="ArialMT-103"/>
      <path d="M 6.59375 0 
L 6.59375 71.578125 
L 15.375 71.578125 
L 15.375 45.90625 
Q 21.53125 53.03125 30.90625 53.03125 
Q 36.671875 53.03125 40.921875 50.75 
Q 45.171875 48.484375 47 44.484375 
Q 48.828125 40.484375 48.828125 32.859375 
L 48.828125 0 
L 40.046875 0 
L 40.046875 32.859375 
Q 40.046875 39.453125 37.1875 42.453125 
Q 34.328125 45.453125 29.109375 45.453125 
Q 25.203125 45.453125 21.75 43.421875 
Q 18.3125 41.40625 16.84375 37.9375 
Q 15.375 34.46875 15.375 28.375 
L 15.375 0 
z
" id="ArialMT-104"/>
      <path d="M 25.78125 7.859375 
L 27.046875 0.09375 
Q 23.34375 -0.6875 20.40625 -0.6875 
Q 15.625 -0.6875 12.984375 0.828125 
Q 10.359375 2.34375 9.28125 4.8125 
Q 8.203125 7.28125 8.203125 15.1875 
L 8.203125 45.015625 
L 1.765625 45.015625 
L 1.765625 51.859375 
L 8.203125 51.859375 
L 8.203125 64.703125 
L 16.9375 69.96875 
L 16.9375 51.859375 
L 25.78125 51.859375 
L 25.78125 45.015625 
L 16.9375 45.015625 
L 16.9375 14.703125 
Q 16.9375 10.9375 17.40625 9.859375 
Q 17.875 8.796875 18.921875 8.15625 
Q 19.96875 7.515625 21.921875 7.515625 
Q 23.390625 7.515625 25.78125 7.859375 
z
" id="ArialMT-116"/>
      <path d="M 40.234375 0 
L 40.234375 6.546875 
Q 35.296875 -1.171875 25.734375 -1.171875 
Q 19.53125 -1.171875 14.328125 2.25 
Q 9.125 5.671875 6.265625 11.796875 
Q 3.421875 17.921875 3.421875 25.875 
Q 3.421875 33.640625 6 39.96875 
Q 8.59375 46.296875 13.765625 49.65625 
Q 18.953125 53.03125 25.34375 53.03125 
Q 30.03125 53.03125 33.6875 51.046875 
Q 37.359375 49.078125 39.65625 45.90625 
L 39.65625 71.578125 
L 48.390625 71.578125 
L 48.390625 0 
z
M 12.453125 25.875 
Q 12.453125 15.921875 16.640625 10.984375 
Q 20.84375 6.0625 26.5625 6.0625 
Q 32.328125 6.0625 36.34375 10.765625 
Q 40.375 15.484375 40.375 25.140625 
Q 40.375 35.796875 36.265625 40.765625 
Q 32.171875 45.75 26.171875 45.75 
Q 20.3125 45.75 16.375 40.96875 
Q 12.453125 36.1875 12.453125 25.875 
z
" id="ArialMT-100"/>
      <path id="ArialMT-32"/>
      <path d="M 8.203125 0 
L 8.203125 71.578125 
L 56.5 71.578125 
L 56.5 63.140625 
L 17.671875 63.140625 
L 17.671875 40.96875 
L 51.265625 40.96875 
L 51.265625 32.515625 
L 17.671875 32.515625 
L 17.671875 0 
z
" id="ArialMT-70"/>
      <path d="M 6.5 0 
L 6.5 51.859375 
L 14.40625 51.859375 
L 14.40625 44 
Q 17.4375 49.515625 20 51.265625 
Q 22.5625 53.03125 25.640625 53.03125 
Q 30.078125 53.03125 34.671875 50.203125 
L 31.640625 42.046875 
Q 28.421875 43.953125 25.203125 43.953125 
Q 22.3125 43.953125 20.015625 42.21875 
Q 17.71875 40.484375 16.75 37.40625 
Q 15.28125 32.71875 15.28125 27.15625 
L 15.28125 0 
z
" id="ArialMT-114"/>
      <path d="M 40.4375 6.390625 
Q 35.546875 2.25 31.03125 0.53125 
Q 26.515625 -1.171875 21.34375 -1.171875 
Q 12.796875 -1.171875 8.203125 3 
Q 3.609375 7.171875 3.609375 13.671875 
Q 3.609375 17.484375 5.34375 20.625 
Q 7.078125 23.78125 9.890625 25.6875 
Q 12.703125 27.59375 16.21875 28.5625 
Q 18.796875 29.25 24.03125 29.890625 
Q 34.671875 31.15625 39.703125 32.90625 
Q 39.75 34.71875 39.75 35.203125 
Q 39.75 40.578125 37.25 42.78125 
Q 33.890625 45.75 27.25 45.75 
Q 21.046875 45.75 18.09375 43.578125 
Q 15.140625 41.40625 13.71875 35.890625 
L 5.125 37.0625 
Q 6.296875 42.578125 8.984375 45.96875 
Q 11.671875 49.359375 16.75 51.1875 
Q 21.828125 53.03125 28.515625 53.03125 
Q 35.15625 53.03125 39.296875 51.46875 
Q 43.453125 49.90625 45.40625 47.53125 
Q 47.359375 45.171875 48.140625 41.546875 
Q 48.578125 39.3125 48.578125 33.453125 
L 48.578125 21.734375 
Q 48.578125 9.46875 49.140625 6.21875 
Q 49.703125 2.984375 51.375 0 
L 42.1875 0 
Q 40.828125 2.734375 40.4375 6.390625 
z
M 39.703125 26.03125 
Q 34.90625 24.078125 25.34375 22.703125 
Q 19.921875 21.921875 17.671875 20.9375 
Q 15.4375 19.96875 14.203125 18.09375 
Q 12.984375 16.21875 12.984375 13.921875 
Q 12.984375 10.40625 15.640625 8.0625 
Q 18.3125 5.71875 23.4375 5.71875 
Q 28.515625 5.71875 32.46875 7.9375 
Q 36.421875 10.15625 38.28125 14.015625 
Q 39.703125 17 39.703125 22.796875 
z
" id="ArialMT-97"/>
      <path d="M 40.4375 19 
L 49.078125 17.875 
Q 47.65625 8.9375 41.8125 3.875 
Q 35.984375 -1.171875 27.484375 -1.171875 
Q 16.84375 -1.171875 10.375 5.78125 
Q 3.90625 12.75 3.90625 25.734375 
Q 3.90625 34.125 6.6875 40.421875 
Q 9.46875 46.734375 15.15625 49.875 
Q 20.84375 53.03125 27.546875 53.03125 
Q 35.984375 53.03125 41.359375 48.75 
Q 46.734375 44.484375 48.25 36.625 
L 39.703125 35.296875 
Q 38.484375 40.53125 35.375 43.15625 
Q 32.28125 45.796875 27.875 45.796875 
Q 21.234375 45.796875 17.078125 41.03125 
Q 12.9375 36.28125 12.9375 25.984375 
Q 12.9375 15.53125 16.9375 10.796875 
Q 20.953125 6.0625 27.390625 6.0625 
Q 32.5625 6.0625 36.03125 9.234375 
Q 39.5 12.40625 40.4375 19 
z
" id="ArialMT-99"/>
      <path d="M 7.71875 0 
L 7.71875 71.578125 
L 32.375 71.578125 
Q 40.71875 71.578125 45.125 70.5625 
Q 51.265625 69.140625 55.609375 65.4375 
Q 61.28125 60.640625 64.078125 53.1875 
Q 66.890625 45.75 66.890625 36.1875 
Q 66.890625 28.03125 64.984375 21.734375 
Q 63.09375 15.4375 60.109375 11.296875 
Q 57.125 7.171875 53.578125 4.796875 
Q 50.046875 2.4375 45.046875 1.21875 
Q 40.046875 0 33.546875 0 
z
M 17.1875 8.453125 
L 32.46875 8.453125 
Q 39.546875 8.453125 43.578125 9.765625 
Q 47.609375 11.078125 50 13.484375 
Q 53.375 16.84375 55.25 22.53125 
Q 57.125 28.21875 57.125 36.328125 
Q 57.125 47.5625 53.4375 53.59375 
Q 49.75 59.625 44.484375 61.671875 
Q 40.671875 63.140625 32.234375 63.140625 
L 17.1875 63.140625 
z
" id="ArialMT-68"/>
      <path d="M 3.078125 15.484375 
L 11.765625 16.84375 
Q 12.5 11.625 15.84375 8.84375 
Q 19.1875 6.0625 25.203125 6.0625 
Q 31.25 6.0625 34.171875 8.515625 
Q 37.109375 10.984375 37.109375 14.3125 
Q 37.109375 17.28125 34.515625 19 
Q 32.71875 20.171875 25.53125 21.96875 
Q 15.875 24.421875 12.140625 26.203125 
Q 8.40625 27.984375 6.46875 31.125 
Q 4.546875 34.28125 4.546875 38.09375 
Q 4.546875 41.546875 6.125 44.5 
Q 7.71875 47.46875 10.453125 49.421875 
Q 12.5 50.921875 16.03125 51.96875 
Q 19.578125 53.03125 23.640625 53.03125 
Q 29.734375 53.03125 34.34375 51.265625 
Q 38.96875 49.515625 41.15625 46.5 
Q 43.359375 43.5 44.1875 38.484375 
L 35.59375 37.3125 
Q 35.015625 41.3125 32.203125 43.546875 
Q 29.390625 45.796875 24.265625 45.796875 
Q 18.21875 45.796875 15.625 43.796875 
Q 13.03125 41.796875 13.03125 39.109375 
Q 13.03125 37.40625 14.109375 36.03125 
Q 15.1875 34.625 17.484375 33.6875 
Q 18.796875 33.203125 25.25 31.453125 
Q 34.578125 28.953125 38.25 27.359375 
Q 41.9375 25.78125 44.03125 22.75 
Q 46.140625 19.734375 46.140625 15.234375 
Q 46.140625 10.84375 43.578125 6.953125 
Q 41.015625 3.078125 36.171875 0.953125 
Q 31.34375 -1.171875 25.25 -1.171875 
Q 15.140625 -1.171875 9.84375 3.03125 
Q 4.546875 7.234375 3.078125 15.484375 
z
" id="ArialMT-115"/>
      <path d="M 3.328125 25.921875 
Q 3.328125 40.328125 11.328125 47.265625 
Q 18.015625 53.03125 27.640625 53.03125 
Q 38.328125 53.03125 45.109375 46.015625 
Q 51.90625 39.015625 51.90625 26.65625 
Q 51.90625 16.65625 48.90625 10.90625 
Q 45.90625 5.171875 40.15625 2 
Q 34.421875 -1.171875 27.640625 -1.171875 
Q 16.75 -1.171875 10.03125 5.8125 
Q 3.328125 12.796875 3.328125 25.921875 
z
M 12.359375 25.921875 
Q 12.359375 15.96875 16.703125 11.015625 
Q 21.046875 6.0625 27.640625 6.0625 
Q 34.1875 6.0625 38.53125 11.03125 
Q 42.875 16.015625 42.875 26.21875 
Q 42.875 35.84375 38.5 40.796875 
Q 34.125 45.75 27.640625 45.75 
Q 21.046875 45.75 16.703125 40.8125 
Q 12.359375 35.890625 12.359375 25.921875 
z
" id="ArialMT-111"/>
      <path d="M 7.328125 0 
L 7.328125 71.578125 
L 34.1875 71.578125 
Q 42.390625 71.578125 47.34375 69.40625 
Q 52.296875 67.234375 55.09375 62.71875 
Q 57.90625 58.203125 57.90625 53.265625 
Q 57.90625 48.6875 55.421875 44.625 
Q 52.9375 40.578125 47.90625 38.09375 
Q 54.390625 36.1875 57.875 31.59375 
Q 61.375 27 61.375 20.75 
Q 61.375 15.71875 59.25 11.390625 
Q 57.125 7.078125 54 4.734375 
Q 50.875 2.390625 46.15625 1.1875 
Q 41.453125 0 34.625 0 
z
M 16.796875 41.5 
L 32.28125 41.5 
Q 38.578125 41.5 41.3125 42.328125 
Q 44.921875 43.40625 46.75 45.890625 
Q 48.578125 48.390625 48.578125 52.15625 
Q 48.578125 55.71875 46.875 58.421875 
Q 45.171875 61.140625 41.984375 62.140625 
Q 38.8125 63.140625 31.109375 63.140625 
L 16.796875 63.140625 
z
M 16.796875 8.453125 
L 34.625 8.453125 
Q 39.203125 8.453125 41.0625 8.796875 
Q 44.34375 9.375 46.53125 10.734375 
Q 48.734375 12.109375 50.140625 14.71875 
Q 51.5625 17.328125 51.5625 20.75 
Q 51.5625 24.75 49.515625 27.703125 
Q 47.46875 30.671875 43.828125 31.859375 
Q 40.1875 33.0625 33.34375 33.0625 
L 16.796875 33.0625 
z
" id="ArialMT-66"/>
      <path d="M 6.390625 0 
L 6.390625 71.578125 
L 15.1875 71.578125 
L 15.1875 0 
z
" id="ArialMT-108"/>
     </defs>
     <g style="fill:#262626;" transform="translate(79.332813 352.911094)scale(0.15 -0.15)">
      <use xlink:href="#ArialMT-85"/>
      <use x="72.216797" xlink:href="#ArialMT-110"/>
      <use x="127.832031" xlink:href="#ArialMT-119"/>
      <use x="200.048828" xlink:href="#ArialMT-101"/>
      <use x="255.664062" xlink:href="#ArialMT-105"/>
      <use x="277.880859" xlink:href="#ArialMT-103"/>
      <use x="333.496094" xlink:href="#ArialMT-104"/>
      <use x="389.111328" xlink:href="#ArialMT-116"/>
      <use x="416.894531" xlink:href="#ArialMT-101"/>
      <use x="472.509766" xlink:href="#ArialMT-100"/>
      <use x="528.125" xlink:href="#ArialMT-32"/>
      <use x="555.908203" xlink:href="#ArialMT-85"/>
      <use x="628.125" xlink:href="#ArialMT-110"/>
      <use x="683.740234" xlink:href="#ArialMT-105"/>
      <use x="705.957031" xlink:href="#ArialMT-70"/>
      <use x="767.041016" xlink:href="#ArialMT-114"/>
      <use x="800.341797" xlink:href="#ArialMT-97"/>
      <use x="855.957031" xlink:href="#ArialMT-99"/>
      <use x="905.957031" xlink:href="#ArialMT-32"/>
      <use x="933.740234" xlink:href="#ArialMT-68"/>
      <use x="1005.957031" xlink:href="#ArialMT-105"/>
      <use x="1028.173828" xlink:href="#ArialMT-115"/>
      <use x="1078.173828" xlink:href="#ArialMT-116"/>
      <use x="1105.957031" xlink:href="#ArialMT-46"/>
      <use x="1133.740234" xlink:href="#ArialMT-32"/>
      <use x="1161.523438" xlink:href="#ArialMT-116"/>
      <use x="1189.306641" xlink:href="#ArialMT-111"/>
      <use x="1244.921875" xlink:href="#ArialMT-32"/>
      <use x="1272.705078" xlink:href="#ArialMT-66"/>
      <use x="1339.404297" xlink:href="#ArialMT-97"/>
      <use x="1395.019531" xlink:href="#ArialMT-115"/>
      <use x="1445.019531" xlink:href="#ArialMT-101"/>
      <use x="1500.634766" xlink:href="#ArialMT-108"/>
      <use x="1522.851562" xlink:href="#ArialMT-105"/>
      <use x="1545.068359" xlink:href="#ArialMT-110"/>
      <use x="1600.683594" xlink:href="#ArialMT-101"/>
     </g>
    </g>
   </g>
   <g id="matplotlib.axis_2">
    <g id="ytick_1">
     <g id="text_7">
      <!-- −1 -->
      <defs>
       <path d="M 52.828125 31.203125 
L 5.5625 31.203125 
L 5.5625 39.40625 
L 52.828125 39.40625 
z
" id="ArialMT-8722"/>
       <path d="M 37.25 0 
L 28.46875 0 
L 28.46875 56 
Q 25.296875 52.984375 20.140625 49.953125 
Q 14.984375 46.921875 10.890625 45.40625 
L 10.890625 53.90625 
Q 18.265625 57.375 23.78125 62.296875 
Q 29.296875 67.234375 31.59375 71.875 
L 37.25 71.875 
z
" id="ArialMT-49"/>
      </defs>
      <g style="fill:#262626;" transform="translate(30.797813 321.253025)scale(0.12 -0.12)">
       <use xlink:href="#ArialMT-8722"/>
       <use x="58.398438" xlink:href="#ArialMT-49"/>
      </g>
     </g>
    </g>
    <g id="ytick_2">
     <g id="text_8">
      <!-- 0 -->
      <g style="fill:#262626;" transform="translate(37.806563 285.06587)scale(0.12 -0.12)">
       <use xlink:href="#ArialMT-48"/>
      </g>
     </g>
    </g>
    <g id="ytick_3">
     <g id="text_9">
      <!-- 1 -->
      <g style="fill:#262626;" transform="translate(37.806563 248.878716)scale(0.12 -0.12)">
       <use xlink:href="#ArialMT-49"/>
      </g>
     </g>
    </g>
    <g id="ytick_4">
     <g id="text_10">
      <!-- 2 -->
      <g style="fill:#262626;" transform="translate(37.806563 212.691561)scale(0.12 -0.12)">
       <use xlink:href="#ArialMT-50"/>
      </g>
     </g>
    </g>
    <g id="ytick_5">
     <g id="text_11">
      <!-- 3 -->
      <g style="fill:#262626;" transform="translate(37.806563 176.504407)scale(0.12 -0.12)">
       <use xlink:href="#ArialMT-51"/>
      </g>
     </g>
    </g>
    <g id="ytick_6">
     <g id="text_12">
      <!-- 4 -->
      <g style="fill:#262626;" transform="translate(37.806563 140.317252)scale(0.12 -0.12)">
       <use xlink:href="#ArialMT-52"/>
      </g>
     </g>
    </g>
    <g id="ytick_7">
     <g id="text_13">
      <!-- 5 -->
      <g style="fill:#262626;" transform="translate(37.806563 104.130098)scale(0.12 -0.12)">
       <use xlink:href="#ArialMT-53"/>
      </g>
     </g>
    </g>
    <g id="ytick_8">
     <g id="text_14">
      <!-- 6 -->
      <g style="fill:#262626;" transform="translate(37.806563 67.942944)scale(0.12 -0.12)">
       <use xlink:href="#ArialMT-54"/>
      </g>
     </g>
    </g>
    <g id="ytick_9">
     <g id="text_15">
      <!-- 7 -->
      <defs>
       <path d="M 4.734375 62.203125 
L 4.734375 70.65625 
L 51.078125 70.65625 
L 51.078125 63.8125 
Q 44.234375 56.546875 37.515625 44.484375 
Q 30.8125 32.421875 27.15625 19.671875 
Q 24.515625 10.6875 23.78125 0 
L 14.75 0 
Q 14.890625 8.453125 18.0625 20.40625 
Q 21.234375 32.375 27.171875 43.484375 
Q 33.109375 54.59375 39.796875 62.203125 
z
" id="ArialMT-55"/>
      </defs>
      <g style="fill:#262626;" transform="translate(37.806563 31.755789)scale(0.12 -0.12)">
       <use xlink:href="#ArialMT-55"/>
      </g>
     </g>
    </g>
    <g id="text_16">
     <!-- Caffeine -->
     <defs>
      <path d="M 58.796875 25.09375 
L 68.265625 22.703125 
Q 65.28125 11.03125 57.546875 4.90625 
Q 49.8125 -1.21875 38.625 -1.21875 
Q 27.046875 -1.21875 19.796875 3.484375 
Q 12.546875 8.203125 8.765625 17.140625 
Q 4.984375 26.078125 4.984375 36.328125 
Q 4.984375 47.515625 9.25 55.828125 
Q 13.53125 64.15625 21.40625 68.46875 
Q 29.296875 72.796875 38.765625 72.796875 
Q 49.515625 72.796875 56.828125 67.328125 
Q 64.15625 61.859375 67.046875 51.953125 
L 57.71875 49.75 
Q 55.21875 57.5625 50.484375 61.125 
Q 45.75 64.703125 38.578125 64.703125 
Q 30.328125 64.703125 24.78125 60.734375 
Q 19.234375 56.78125 16.984375 50.109375 
Q 14.75 43.453125 14.75 36.375 
Q 14.75 27.25 17.40625 20.4375 
Q 20.0625 13.625 25.671875 10.25 
Q 31.296875 6.890625 37.84375 6.890625 
Q 45.796875 6.890625 51.3125 11.46875 
Q 56.84375 16.0625 58.796875 25.09375 
z
" id="ArialMT-67"/>
      <path d="M 8.6875 0 
L 8.6875 45.015625 
L 0.921875 45.015625 
L 0.921875 51.859375 
L 8.6875 51.859375 
L 8.6875 57.375 
Q 8.6875 62.59375 9.625 65.140625 
Q 10.890625 68.5625 14.078125 70.671875 
Q 17.28125 72.796875 23.046875 72.796875 
Q 26.765625 72.796875 31.25 71.921875 
L 29.9375 64.265625 
Q 27.203125 64.75 24.75 64.75 
Q 20.75 64.75 19.09375 63.03125 
Q 17.4375 61.328125 17.4375 56.640625 
L 17.4375 51.859375 
L 27.546875 51.859375 
L 27.546875 45.015625 
L 17.4375 45.015625 
L 17.4375 0 
z
" id="ArialMT-102"/>
     </defs>
     <g style="fill:#262626;" transform="translate(23.816563 195.181641)rotate(-90)scale(0.15 -0.15)">
      <use xlink:href="#ArialMT-67"/>
      <use x="72.216797" xlink:href="#ArialMT-97"/>
      <use x="127.832031" xlink:href="#ArialMT-102"/>
      <use x="155.599609" xlink:href="#ArialMT-102"/>
      <use x="183.382812" xlink:href="#ArialMT-101"/>
      <use x="238.998047" xlink:href="#ArialMT-105"/>
      <use x="261.214844" xlink:href="#ArialMT-110"/>
      <use x="316.830078" xlink:href="#ArialMT-101"/>
     </g>
    </g>
   </g>
   <g id="PathCollection_1">
    <defs>
     <path d="M 0 3 
C 0.795609 3 1.55874 2.683901 2.12132 2.12132 
C 2.683901 1.55874 3 0.795609 3 0 
C 3 -0.795609 2.683901 -1.55874 2.12132 -2.12132 
C 1.55874 -2.683901 0.795609 -3 0 -3 
C -0.795609 -3 -1.55874 -2.683901 -2.12132 -2.12132 
C -2.683901 -1.55874 -3 -0.795609 -3 0 
C -3 0.795609 -2.683901 1.55874 -2.12132 2.12132 
C -1.55874 2.683901 -0.795609 3 0 3 
z
" id="ma36253ffcb" style="stroke:#f77189;stroke-opacity:0.8;"/>
    </defs>
    <g clip-path="url(#p25cade690d)">
     <use style="fill:#f77189;fill-opacity:0.8;stroke:#f77189;stroke-opacity:0.8;" x="198.938807" xlink:href="#ma36253ffcb" y="266.094122"/>
     <use style="fill:#f77189;fill-opacity:0.8;stroke:#f77189;stroke-opacity:0.8;" x="252.100939" xlink:href="#ma36253ffcb" y="138.915719"/>
     <use style="fill:#f77189;fill-opacity:0.8;stroke:#f77189;stroke-opacity:0.8;" x="272.026051" xlink:href="#ma36253ffcb" y="202.163073"/>
     <use style="fill:#f77189;fill-opacity:0.8;stroke:#f77189;stroke-opacity:0.8;" x="306.655144" xlink:href="#ma36253ffcb" y="176.455655"/>
     <use style="fill:#f77189;fill-opacity:0.8;stroke:#f77189;stroke-opacity:0.8;" x="312.469933" xlink:href="#ma36253ffcb" y="205.014605"/>
     <use style="fill:#f77189;fill-opacity:0.8;stroke:#f77189;stroke-opacity:0.8;" x="272.206507" xlink:href="#ma36253ffcb" y="244.643601"/>
    </g>
   </g>
   <g id="PathCollection_2">
    <defs>
     <path d="M 0 3 
C 0.795609 3 1.55874 2.683901 2.12132 2.12132 
C 2.683901 1.55874 3 0.795609 3 0 
C 3 -0.795609 2.683901 -1.55874 2.12132 -2.12132 
C 1.55874 -2.683901 0.795609 -3 0 -3 
C -0.795609 -3 -1.55874 -2.683901 -2.12132 -2.12132 
C -2.683901 -1.55874 -3 -0.795609 -3 0 
C -3 0.795609 -2.683901 1.55874 -2.12132 2.12132 
C -1.55874 2.683901 -0.795609 3 0 3 
z
" id="m0fae8d748a" style="stroke:#e68332;stroke-opacity:0.8;"/>
    </defs>
    <g clip-path="url(#p25cade690d)">
     <use style="fill:#e68332;fill-opacity:0.8;stroke:#e68332;stroke-opacity:0.8;" x="153.953726" xlink:href="#m0fae8d748a" y="143.51324"/>
     <use style="fill:#e68332;fill-opacity:0.8;stroke:#e68332;stroke-opacity:0.8;" x="110.607649" xlink:href="#m0fae8d748a" y="279.57525"/>
     <use style="fill:#e68332;fill-opacity:0.8;stroke:#e68332;stroke-opacity:0.8;" x="139.458743" xlink:href="#m0fae8d748a" y="279.945782"/>
     <use style="fill:#e68332;fill-opacity:0.8;stroke:#e68332;stroke-opacity:0.8;" x="171.145812" xlink:href="#m0fae8d748a" y="243.997462"/>
     <use style="fill:#e68332;fill-opacity:0.8;stroke:#e68332;stroke-opacity:0.8;" x="191.604282" xlink:href="#m0fae8d748a" y="264.144356"/>
     <use style="fill:#e68332;fill-opacity:0.8;stroke:#e68332;stroke-opacity:0.8;" x="196.982726" xlink:href="#m0fae8d748a" y="268.530894"/>
     <use style="fill:#e68332;fill-opacity:0.8;stroke:#e68332;stroke-opacity:0.8;" x="177.317179" xlink:href="#m0fae8d748a" y="278.595232"/>
     <use style="fill:#e68332;fill-opacity:0.8;stroke:#e68332;stroke-opacity:0.8;" x="199.754885" xlink:href="#m0fae8d748a" y="275.710584"/>
    </g>
   </g>
   <g id="PathCollection_3">
    <defs>
     <path d="M 0 3 
C 0.795609 3 1.55874 2.683901 2.12132 2.12132 
C 2.683901 1.55874 3 0.795609 3 0 
C 3 -0.795609 2.683901 -1.55874 2.12132 -2.12132 
C 1.55874 -2.683901 0.795609 -3 0 -3 
C -0.795609 -3 -1.55874 -2.683901 -2.12132 -2.12132 
C -2.683901 -1.55874 -3 -0.795609 -3 0 
C -3 0.795609 -2.683901 1.55874 -2.12132 2.12132 
C -1.55874 2.683901 -0.795609 3 0 3 
z
" id="m87885bbc2d" style="stroke:#bb9832;stroke-opacity:0.8;"/>
    </defs>
    <g clip-path="url(#p25cade690d)">
     <use style="fill:#bb9832;fill-opacity:0.8;stroke:#bb9832;stroke-opacity:0.8;" x="219.113145" xlink:href="#m87885bbc2d" y="264.755032"/>
     <use style="fill:#bb9832;fill-opacity:0.8;stroke:#bb9832;stroke-opacity:0.8;" x="219.096378" xlink:href="#m87885bbc2d" y="141.149086"/>
     <use style="fill:#bb9832;fill-opacity:0.8;stroke:#bb9832;stroke-opacity:0.8;" x="247.860292" xlink:href="#m87885bbc2d" y="188.683215"/>
     <use style="fill:#bb9832;fill-opacity:0.8;stroke:#bb9832;stroke-opacity:0.8;" x="315.138892" xlink:href="#m87885bbc2d" y="80.56792"/>
     <use style="fill:#bb9832;fill-opacity:0.8;stroke:#bb9832;stroke-opacity:0.8;" x="302.801632" xlink:href="#m87885bbc2d" y="117.96723"/>
    </g>
   </g>
   <g id="PathCollection_4">
    <defs>
     <path d="M 0 3 
C 0.795609 3 1.55874 2.683901 2.12132 2.12132 
C 2.683901 1.55874 3 0.795609 3 0 
C 3 -0.795609 2.683901 -1.55874 2.12132 -2.12132 
C 1.55874 -2.683901 0.795609 -3 0 -3 
C -0.795609 -3 -1.55874 -2.683901 -2.12132 -2.12132 
C -2.683901 -1.55874 -3 -0.795609 -3 0 
C -3 0.795609 -2.683901 1.55874 -2.12132 2.12132 
C -1.55874 2.683901 -0.795609 3 0 3 
z
" id="me5b077ddc2" style="stroke:#97a431;stroke-opacity:0.8;"/>
    </defs>
    <g clip-path="url(#p25cade690d)">
     <use style="fill:#97a431;fill-opacity:0.8;stroke:#97a431;stroke-opacity:0.8;" x="102.877835" xlink:href="#me5b077ddc2" y="280.507445"/>
     <use style="fill:#97a431;fill-opacity:0.8;stroke:#97a431;stroke-opacity:0.8;" x="116.534474" xlink:href="#me5b077ddc2" y="280.330774"/>
     <use style="fill:#97a431;fill-opacity:0.8;stroke:#97a431;stroke-opacity:0.8;" x="335.729113" xlink:href="#me5b077ddc2" y="99.208232"/>
     <use style="fill:#97a431;fill-opacity:0.8;stroke:#97a431;stroke-opacity:0.8;" x="274.880784" xlink:href="#me5b077ddc2" y="239.791972"/>
     <use style="fill:#97a431;fill-opacity:0.8;stroke:#97a431;stroke-opacity:0.8;" x="267.802637" xlink:href="#me5b077ddc2" y="278.592266"/>
     <use style="fill:#97a431;fill-opacity:0.8;stroke:#97a431;stroke-opacity:0.8;" x="231.0809" xlink:href="#me5b077ddc2" y="279.974331"/>
     <use style="fill:#97a431;fill-opacity:0.8;stroke:#97a431;stroke-opacity:0.8;" x="280.734438" xlink:href="#me5b077ddc2" y="278.463253"/>
    </g>
   </g>
   <g id="PathCollection_5">
    <defs>
     <path d="M 0 3 
C 0.795609 3 1.55874 2.683901 2.12132 2.12132 
C 2.683901 1.55874 3 0.795609 3 0 
C 3 -0.795609 2.683901 -1.55874 2.12132 -2.12132 
C 1.55874 -2.683901 0.795609 -3 0 -3 
C -0.795609 -3 -1.55874 -2.683901 -2.12132 -2.12132 
C -2.683901 -1.55874 -3 -0.795609 -3 0 
C -3 0.795609 -2.683901 1.55874 -2.12132 2.12132 
C -1.55874 2.683901 -0.795609 3 0 3 
z
" id="mb4d1183b09" style="stroke:#50b131;stroke-opacity:0.8;"/>
    </defs>
    <g clip-path="url(#p25cade690d)">
     <use style="fill:#50b131;fill-opacity:0.8;stroke:#50b131;stroke-opacity:0.8;" x="192.626249" xlink:href="#mb4d1183b09" y="275.250639"/>
     <use style="fill:#50b131;fill-opacity:0.8;stroke:#50b131;stroke-opacity:0.8;" x="267.892605" xlink:href="#mb4d1183b09" y="245.920664"/>
     <use style="fill:#50b131;fill-opacity:0.8;stroke:#50b131;stroke-opacity:0.8;" x="286.812343" xlink:href="#mb4d1183b09" y="278.970656"/>
     <use style="fill:#50b131;fill-opacity:0.8;stroke:#50b131;stroke-opacity:0.8;" x="294.753987" xlink:href="#mb4d1183b09" y="278.959456"/>
     <use style="fill:#50b131;fill-opacity:0.8;stroke:#50b131;stroke-opacity:0.8;" x="236.171431" xlink:href="#mb4d1183b09" y="278.528979"/>
     <use style="fill:#50b131;fill-opacity:0.8;stroke:#50b131;stroke-opacity:0.8;" x="304.523982" xlink:href="#mb4d1183b09" y="270.550599"/>
     <use style="fill:#50b131;fill-opacity:0.8;stroke:#50b131;stroke-opacity:0.8;" x="287.68027" xlink:href="#mb4d1183b09" y="270.990228"/>
    </g>
   </g>
   <g id="PathCollection_6">
    <defs>
     <path d="M 0 3 
C 0.795609 3 1.55874 2.683901 2.12132 2.12132 
C 2.683901 1.55874 3 0.795609 3 0 
C 3 -0.795609 2.683901 -1.55874 2.12132 -2.12132 
C 1.55874 -2.683901 0.795609 -3 0 -3 
C -0.795609 -3 -1.55874 -2.683901 -2.12132 -2.12132 
C -2.683901 -1.55874 -3 -0.795609 -3 0 
C -3 0.795609 -2.683901 1.55874 -2.12132 2.12132 
C -1.55874 2.683901 -0.795609 3 0 3 
z
" id="m27a1d2f449" style="stroke:#34af84;stroke-opacity:0.8;"/>
    </defs>
    <g clip-path="url(#p25cade690d)">
     <use style="fill:#34af84;fill-opacity:0.8;stroke:#34af84;stroke-opacity:0.8;" x="202.115758" xlink:href="#m27a1d2f449" y="123.120422"/>
     <use style="fill:#34af84;fill-opacity:0.8;stroke:#34af84;stroke-opacity:0.8;" x="172.036612" xlink:href="#m27a1d2f449" y="229.998279"/>
     <use style="fill:#34af84;fill-opacity:0.8;stroke:#34af84;stroke-opacity:0.8;" x="214.209292" xlink:href="#m27a1d2f449" y="205.753292"/>
     <use style="fill:#34af84;fill-opacity:0.8;stroke:#34af84;stroke-opacity:0.8;" x="244.495736" xlink:href="#m27a1d2f449" y="148.074717"/>
     <use style="fill:#34af84;fill-opacity:0.8;stroke:#34af84;stroke-opacity:0.8;" x="215.389641" xlink:href="#m27a1d2f449" y="216.797819"/>
     <use style="fill:#34af84;fill-opacity:0.8;stroke:#34af84;stroke-opacity:0.8;" x="161.690252" xlink:href="#m27a1d2f449" y="203.705627"/>
     <use style="fill:#34af84;fill-opacity:0.8;stroke:#34af84;stroke-opacity:0.8;" x="215.958681" xlink:href="#m27a1d2f449" y="196.106725"/>
    </g>
   </g>
   <g id="PathCollection_7">
    <defs>
     <path d="M 0 3 
C 0.795609 3 1.55874 2.683901 2.12132 2.12132 
C 2.683901 1.55874 3 0.795609 3 0 
C 3 -0.795609 2.683901 -1.55874 2.12132 -2.12132 
C 1.55874 -2.683901 0.795609 -3 0 -3 
C -0.795609 -3 -1.55874 -2.683901 -2.12132 -2.12132 
C -2.683901 -1.55874 -3 -0.795609 -3 0 
C -3 0.795609 -2.683901 1.55874 -2.12132 2.12132 
C -1.55874 2.683901 -0.795609 3 0 3 
z
" id="mc5e1cbaa87" style="stroke:#36ada4;stroke-opacity:0.8;"/>
    </defs>
    <g clip-path="url(#p25cade690d)">
     <use style="fill:#36ada4;fill-opacity:0.8;stroke:#36ada4;stroke-opacity:0.8;" x="192.873868" xlink:href="#mc5e1cbaa87" y="278.496721"/>
     <use style="fill:#36ada4;fill-opacity:0.8;stroke:#36ada4;stroke-opacity:0.8;" x="273.15093" xlink:href="#mc5e1cbaa87" y="234.7938"/>
     <use style="fill:#36ada4;fill-opacity:0.8;stroke:#36ada4;stroke-opacity:0.8;" x="236.301085" xlink:href="#mc5e1cbaa87" y="192.13416"/>
     <use style="fill:#36ada4;fill-opacity:0.8;stroke:#36ada4;stroke-opacity:0.8;" x="305.709753" xlink:href="#mc5e1cbaa87" y="243.57719"/>
     <use style="fill:#36ada4;fill-opacity:0.8;stroke:#36ada4;stroke-opacity:0.8;" x="256.017747" xlink:href="#mc5e1cbaa87" y="66.656634"/>
    </g>
   </g>
   <g id="PathCollection_8">
    <defs>
     <path d="M 0 3 
C 0.795609 3 1.55874 2.683901 2.12132 2.12132 
C 2.683901 1.55874 3 0.795609 3 0 
C 3 -0.795609 2.683901 -1.55874 2.12132 -2.12132 
C 1.55874 -2.683901 0.795609 -3 0 -3 
C -0.795609 -3 -1.55874 -2.683901 -2.12132 -2.12132 
C -2.683901 -1.55874 -3 -0.795609 -3 0 
C -3 0.795609 -2.683901 1.55874 -2.12132 2.12132 
C -1.55874 2.683901 -0.795609 3 0 3 
z
" id="md9cc5a015c" style="stroke:#38aabf;stroke-opacity:0.8;"/>
    </defs>
    <g clip-path="url(#p25cade690d)">
     <use style="fill:#38aabf;fill-opacity:0.8;stroke:#38aabf;stroke-opacity:0.8;" x="71.369325" xlink:href="#md9cc5a015c" y="180.882136"/>
     <use style="fill:#38aabf;fill-opacity:0.8;stroke:#38aabf;stroke-opacity:0.8;" x="166.440769" xlink:href="#md9cc5a015c" y="30.708674"/>
     <use style="fill:#38aabf;fill-opacity:0.8;stroke:#38aabf;stroke-opacity:0.8;" x="227.633365" xlink:href="#md9cc5a015c" y="226.583394"/>
     <use style="fill:#38aabf;fill-opacity:0.8;stroke:#38aabf;stroke-opacity:0.8;" x="169.691841" xlink:href="#md9cc5a015c" y="164.52445"/>
     <use style="fill:#38aabf;fill-opacity:0.8;stroke:#38aabf;stroke-opacity:0.8;" x="209.371209" xlink:href="#md9cc5a015c" y="131.29817"/>
     <use style="fill:#38aabf;fill-opacity:0.8;stroke:#38aabf;stroke-opacity:0.8;" x="200.821947" xlink:href="#md9cc5a015c" y="208.440445"/>
    </g>
   </g>
   <g id="PathCollection_9">
    <defs>
     <path d="M 0 3 
C 0.795609 3 1.55874 2.683901 2.12132 2.12132 
C 2.683901 1.55874 3 0.795609 3 0 
C 3 -0.795609 2.683901 -1.55874 2.12132 -2.12132 
C 1.55874 -2.683901 0.795609 -3 0 -3 
C -0.795609 -3 -1.55874 -2.683901 -2.12132 -2.12132 
C -2.683901 -1.55874 -3 -0.795609 -3 0 
C -3 0.795609 -2.683901 1.55874 -2.12132 2.12132 
C -1.55874 2.683901 -0.795609 3 0 3 
z
" id="mba45ee8e57" style="stroke:#3ba3ec;stroke-opacity:0.8;"/>
    </defs>
    <g clip-path="url(#p25cade690d)">
     <use style="fill:#3ba3ec;fill-opacity:0.8;stroke:#3ba3ec;stroke-opacity:0.8;" x="194.7095" xlink:href="#mba45ee8e57" y="270.852282"/>
     <use style="fill:#3ba3ec;fill-opacity:0.8;stroke:#3ba3ec;stroke-opacity:0.8;" x="245.959391" xlink:href="#mba45ee8e57" y="199.107474"/>
     <use style="fill:#3ba3ec;fill-opacity:0.8;stroke:#3ba3ec;stroke-opacity:0.8;" x="149.197887" xlink:href="#mba45ee8e57" y="276.560769"/>
     <use style="fill:#3ba3ec;fill-opacity:0.8;stroke:#3ba3ec;stroke-opacity:0.8;" x="233.252062" xlink:href="#mba45ee8e57" y="240.162621"/>
    </g>
   </g>
   <g id="PathCollection_10">
    <defs>
     <path d="M 0 3 
C 0.795609 3 1.55874 2.683901 2.12132 2.12132 
C 2.683901 1.55874 3 0.795609 3 0 
C 3 -0.795609 2.683901 -1.55874 2.12132 -2.12132 
C 1.55874 -2.683901 0.795609 -3 0 -3 
C -0.795609 -3 -1.55874 -2.683901 -2.12132 -2.12132 
C -2.683901 -1.55874 -3 -0.795609 -3 0 
C -3 0.795609 -2.683901 1.55874 -2.12132 2.12132 
C -1.55874 2.683901 -0.795609 3 0 3 
z
" id="m0cd1cc0f17" style="stroke:#a48cf4;stroke-opacity:0.8;"/>
    </defs>
    <g clip-path="url(#p25cade690d)">
     <use style="fill:#a48cf4;fill-opacity:0.8;stroke:#a48cf4;stroke-opacity:0.8;" x="119.251855" xlink:href="#m0cd1cc0f17" y="277.96885"/>
     <use style="fill:#a48cf4;fill-opacity:0.8;stroke:#a48cf4;stroke-opacity:0.8;" x="129.292907" xlink:href="#m0cd1cc0f17" y="261.426416"/>
     <use style="fill:#a48cf4;fill-opacity:0.8;stroke:#a48cf4;stroke-opacity:0.8;" x="311.740117" xlink:href="#m0cd1cc0f17" y="137.748666"/>
     <use style="fill:#a48cf4;fill-opacity:0.8;stroke:#a48cf4;stroke-opacity:0.8;" x="259.637667" xlink:href="#m0cd1cc0f17" y="229.999517"/>
     <use style="fill:#a48cf4;fill-opacity:0.8;stroke:#a48cf4;stroke-opacity:0.8;" x="250.913871" xlink:href="#m0cd1cc0f17" y="242.15201"/>
     <use style="fill:#a48cf4;fill-opacity:0.8;stroke:#a48cf4;stroke-opacity:0.8;" x="282.899025" xlink:href="#m0cd1cc0f17" y="198.125987"/>
     <use style="fill:#a48cf4;fill-opacity:0.8;stroke:#a48cf4;stroke-opacity:0.8;" x="267.60362" xlink:href="#m0cd1cc0f17" y="138.133961"/>
    </g>
   </g>
   <g id="PathCollection_11">
    <defs>
     <path d="M 0 3 
C 0.795609 3 1.55874 2.683901 2.12132 2.12132 
C 2.683901 1.55874 3 0.795609 3 0 
C 3 -0.795609 2.683901 -1.55874 2.12132 -2.12132 
C 1.55874 -2.683901 0.795609 -3 0 -3 
C -0.795609 -3 -1.55874 -2.683901 -2.12132 -2.12132 
C -2.683901 -1.55874 -3 -0.795609 -3 0 
C -3 0.795609 -2.683901 1.55874 -2.12132 2.12132 
C -1.55874 2.683901 -0.795609 3 0 3 
z
" id="m07302bb819" style="stroke:#e866f4;stroke-opacity:0.8;"/>
    </defs>
    <g clip-path="url(#p25cade690d)">
     <use style="fill:#e866f4;fill-opacity:0.8;stroke:#e866f4;stroke-opacity:0.8;" x="148.166224" xlink:href="#m07302bb819" y="260.757242"/>
     <use style="fill:#e866f4;fill-opacity:0.8;stroke:#e866f4;stroke-opacity:0.8;" x="185.084501" xlink:href="#m07302bb819" y="232.574205"/>
     <use style="fill:#e866f4;fill-opacity:0.8;stroke:#e866f4;stroke-opacity:0.8;" x="201.085789" xlink:href="#m07302bb819" y="159.822568"/>
     <use style="fill:#e866f4;fill-opacity:0.8;stroke:#e866f4;stroke-opacity:0.8;" x="169.699054" xlink:href="#m07302bb819" y="275.304903"/>
     <use style="fill:#e866f4;fill-opacity:0.8;stroke:#e866f4;stroke-opacity:0.8;" x="223.688401" xlink:href="#m07302bb819" y="274.427285"/>
     <use style="fill:#e866f4;fill-opacity:0.8;stroke:#e866f4;stroke-opacity:0.8;" x="158.940128" xlink:href="#m07302bb819" y="275.785398"/>
    </g>
   </g>
   <g id="PathCollection_12">
    <defs>
     <path d="M 0 3 
C 0.795609 3 1.55874 2.683901 2.12132 2.12132 
C 2.683901 1.55874 3 0.795609 3 0 
C 3 -0.795609 2.683901 -1.55874 2.12132 -2.12132 
C 1.55874 -2.683901 0.795609 -3 0 -3 
C -0.795609 -3 -1.55874 -2.683901 -2.12132 -2.12132 
C -2.683901 -1.55874 -3 -0.795609 -3 0 
C -3 0.795609 -2.683901 1.55874 -2.12132 2.12132 
C -1.55874 2.683901 -0.795609 3 0 3 
z
" id="m62625b0cb4" style="stroke:#f668c2;stroke-opacity:0.8;"/>
    </defs>
    <g clip-path="url(#p25cade690d)">
     <use style="fill:#f668c2;fill-opacity:0.8;stroke:#f668c2;stroke-opacity:0.8;" x="148.71501" xlink:href="#m62625b0cb4" y="280.43996"/>
     <use style="fill:#f668c2;fill-opacity:0.8;stroke:#f668c2;stroke-opacity:0.8;" x="144.346935" xlink:href="#m62625b0cb4" y="280.075778"/>
     <use style="fill:#f668c2;fill-opacity:0.8;stroke:#f668c2;stroke-opacity:0.8;" x="141.112231" xlink:href="#m62625b0cb4" y="280.606518"/>
     <use style="fill:#f668c2;fill-opacity:0.8;stroke:#f668c2;stroke-opacity:0.8;" x="147.698289" xlink:href="#m62625b0cb4" y="280.19673"/>
     <use style="fill:#f668c2;fill-opacity:0.8;stroke:#f668c2;stroke-opacity:0.8;" x="161.506432" xlink:href="#m62625b0cb4" y="279.881088"/>
     <use style="fill:#f668c2;fill-opacity:0.8;stroke:#f668c2;stroke-opacity:0.8;" x="147.960807" xlink:href="#m62625b0cb4" y="280.303492"/>
     <use style="fill:#f668c2;fill-opacity:0.8;stroke:#f668c2;stroke-opacity:0.8;" x="162.469958" xlink:href="#m62625b0cb4" y="279.96788"/>
    </g>
   </g>
   <g id="line2d_1">
    <path clip-path="url(#p25cade690d)" d="M 198.938807 239.4503 
L 200.085586 238.8959 
L 201.232365 238.341499 
L 202.379144 237.787098 
L 203.525924 237.232698 
L 204.672703 236.678297 
L 205.819482 236.123897 
L 206.966261 235.569496 
L 208.11304 235.015096 
L 209.259819 234.460695 
L 210.406598 233.906295 
L 211.553377 233.351894 
L 212.700156 232.797494 
L 213.846935 232.243093 
L 214.993714 231.688692 
L 216.140493 231.134292 
L 217.287272 230.579891 
L 218.434051 230.025491 
L 219.58083 229.47109 
L 220.727609 228.91669 
L 221.874388 228.362289 
L 223.021167 227.807889 
L 224.167946 227.253488 
L 225.314725 226.699087 
L 226.461505 226.144687 
L 227.608284 225.590286 
L 228.755063 225.035886 
L 229.901842 224.481485 
L 231.048621 223.927085 
L 232.1954 223.372684 
L 233.342179 222.818284 
L 234.488958 222.263883 
L 235.635737 221.709483 
L 236.782516 221.155082 
L 237.929295 220.600681 
L 239.076074 220.046281 
L 240.222853 219.49188 
L 241.369632 218.93748 
L 242.516411 218.383079 
L 243.66319 217.828679 
L 244.809969 217.274278 
L 245.956748 216.719878 
L 247.103527 216.165477 
L 248.250307 215.611076 
L 249.397086 215.056676 
L 250.543865 214.502275 
L 251.690644 213.947875 
L 252.837423 213.393474 
L 253.984202 212.839074 
L 255.130981 212.284673 
L 256.27776 211.730273 
L 257.424539 211.175872 
L 258.571318 210.621472 
L 259.718097 210.067071 
L 260.864876 209.51267 
L 262.011655 208.95827 
L 263.158434 208.403869 
L 264.305213 207.849469 
L 265.451992 207.295068 
L 266.598771 206.740668 
L 267.74555 206.186267 
L 268.892329 205.631867 
L 270.039109 205.077466 
L 271.185888 204.523065 
L 272.332667 203.968665 
L 273.479446 203.414264 
L 274.626225 202.859864 
L 275.773004 202.305463 
L 276.919783 201.751063 
L 278.066562 201.196662 
L 279.213341 200.642262 
L 280.36012 200.087861 
L 281.506899 199.533461 
L 282.653678 198.97906 
L 283.800457 198.424659 
L 284.947236 197.870259 
L 286.094015 197.315858 
L 287.240794 196.761458 
L 288.387573 196.207057 
L 289.534352 195.652657 
L 290.681131 195.098256 
L 291.827911 194.543856 
L 292.97469 193.989455 
L 294.121469 193.435054 
L 295.268248 192.880654 
L 296.415027 192.326253 
L 297.561806 191.771853 
L 298.708585 191.217452 
L 299.855364 190.663052 
L 301.002143 190.108651 
L 302.148922 189.554251 
L 303.295701 188.99985 
L 304.44248 188.44545 
L 305.589259 187.891049 
L 306.736038 187.336648 
L 307.882817 186.782248 
L 309.029596 186.227847 
L 310.176375 185.673447 
L 311.323154 185.119046 
L 312.469933 184.564646 
" style="fill:none;stroke:#f77189;stroke-linecap:round;stroke-width:2.25;"/>
   </g>
   <g id="line2d_2">
    <path clip-path="url(#p25cade690d)" d="M 110.607649 246.78188 
L 111.508126 246.899894 
L 112.408603 247.017909 
L 113.30908 247.135924 
L 114.209558 247.253939 
L 115.110035 247.371954 
L 116.010512 247.489969 
L 116.910989 247.607984 
L 117.811466 247.725998 
L 118.711943 247.844013 
L 119.61242 247.962028 
L 120.512897 248.080043 
L 121.413375 248.198058 
L 122.313852 248.316073 
L 123.214329 248.434087 
L 124.114806 248.552102 
L 125.015283 248.670117 
L 125.91576 248.788132 
L 126.816237 248.906147 
L 127.716715 249.024162 
L 128.617192 249.142177 
L 129.517669 249.260191 
L 130.418146 249.378206 
L 131.318623 249.496221 
L 132.2191 249.614236 
L 133.119577 249.732251 
L 134.020054 249.850266 
L 134.920532 249.96828 
L 135.821009 250.086295 
L 136.721486 250.20431 
L 137.621963 250.322325 
L 138.52244 250.44034 
L 139.422917 250.558355 
L 140.323394 250.67637 
L 141.223871 250.794384 
L 142.124349 250.912399 
L 143.024826 251.030414 
L 143.925303 251.148429 
L 144.82578 251.266444 
L 145.726257 251.384459 
L 146.626734 251.502473 
L 147.527211 251.620488 
L 148.427689 251.738503 
L 149.328166 251.856518 
L 150.228643 251.974533 
L 151.12912 252.092548 
L 152.029597 252.210563 
L 152.930074 252.328577 
L 153.830551 252.446592 
L 154.731028 252.564607 
L 155.631506 252.682622 
L 156.531983 252.800637 
L 157.43246 252.918652 
L 158.332937 253.036666 
L 159.233414 253.154681 
L 160.133891 253.272696 
L 161.034368 253.390711 
L 161.934845 253.508726 
L 162.835323 253.626741 
L 163.7358 253.744756 
L 164.636277 253.86277 
L 165.536754 253.980785 
L 166.437231 254.0988 
L 167.337708 254.216815 
L 168.238185 254.33483 
L 169.138663 254.452845 
L 170.03914 254.570859 
L 170.939617 254.688874 
L 171.840094 254.806889 
L 172.740571 254.924904 
L 173.641048 255.042919 
L 174.541525 255.160934 
L 175.442002 255.278949 
L 176.34248 255.396963 
L 177.242957 255.514978 
L 178.143434 255.632993 
L 179.043911 255.751008 
L 179.944388 255.869023 
L 180.844865 255.987038 
L 181.745342 256.105052 
L 182.645819 256.223067 
L 183.546297 256.341082 
L 184.446774 256.459097 
L 185.347251 256.577112 
L 186.247728 256.695127 
L 187.148205 256.813141 
L 188.048682 256.931156 
L 188.949159 257.049171 
L 189.849637 257.167186 
L 190.750114 257.285201 
L 191.650591 257.403216 
L 192.551068 257.521231 
L 193.451545 257.639245 
L 194.352022 257.75726 
L 195.252499 257.875275 
L 196.152976 257.99329 
L 197.053454 258.111305 
L 197.953931 258.22932 
L 198.854408 258.347334 
L 199.754885 258.465349 
" style="fill:none;stroke:#e68332;stroke-linecap:round;stroke-width:2.25;"/>
   </g>
   <g id="line2d_3">
    <path clip-path="url(#p25cade690d)" d="M 219.096378 208.671632 
L 220.066504 207.507473 
L 221.036631 206.343315 
L 222.006757 205.179156 
L 222.976884 204.014997 
L 223.94701 202.850838 
L 224.917136 201.686679 
L 225.887263 200.52252 
L 226.857389 199.358361 
L 227.827516 198.194203 
L 228.797642 197.030044 
L 229.767769 195.865885 
L 230.737895 194.701726 
L 231.708021 193.537567 
L 232.678148 192.373408 
L 233.648274 191.20925 
L 234.618401 190.045091 
L 235.588527 188.880932 
L 236.558653 187.716773 
L 237.52878 186.552614 
L 238.498906 185.388455 
L 239.469033 184.224296 
L 240.439159 183.060138 
L 241.409285 181.895979 
L 242.379412 180.73182 
L 243.349538 179.567661 
L 244.319665 178.403502 
L 245.289791 177.239343 
L 246.259917 176.075185 
L 247.230044 174.911026 
L 248.20017 173.746867 
L 249.170297 172.582708 
L 250.140423 171.418549 
L 251.110549 170.25439 
L 252.080676 169.090231 
L 253.050802 167.926073 
L 254.020929 166.761914 
L 254.991055 165.597755 
L 255.961182 164.433596 
L 256.931308 163.269437 
L 257.901434 162.105278 
L 258.871561 160.941119 
L 259.841687 159.776961 
L 260.811814 158.612802 
L 261.78194 157.448643 
L 262.752066 156.284484 
L 263.722193 155.120325 
L 264.692319 153.956166 
L 265.662446 152.792008 
L 266.632572 151.627849 
L 267.602698 150.46369 
L 268.572825 149.299531 
L 269.542951 148.135372 
L 270.513078 146.971213 
L 271.483204 145.807054 
L 272.45333 144.642896 
L 273.423457 143.478737 
L 274.393583 142.314578 
L 275.36371 141.150419 
L 276.333836 139.98626 
L 277.303962 138.822101 
L 278.274089 137.657943 
L 279.244215 136.493784 
L 280.214342 135.329625 
L 281.184468 134.165466 
L 282.154595 133.001307 
L 283.124721 131.837148 
L 284.094847 130.672989 
L 285.064974 129.508831 
L 286.0351 128.344672 
L 287.005227 127.180513 
L 287.975353 126.016354 
L 288.945479 124.852195 
L 289.915606 123.688036 
L 290.885732 122.523878 
L 291.855859 121.359719 
L 292.825985 120.19556 
L 293.796111 119.031401 
L 294.766238 117.867242 
L 295.736364 116.703083 
L 296.706491 115.538924 
L 297.676617 114.374766 
L 298.646743 113.210607 
L 299.61687 112.046448 
L 300.586996 110.882289 
L 301.557123 109.71813 
L 302.527249 108.553971 
L 303.497375 107.389813 
L 304.467502 106.225654 
L 305.437628 105.061495 
L 306.407755 103.897336 
L 307.377881 102.733177 
L 308.348007 101.569018 
L 309.318134 100.404859 
L 310.28826 99.240701 
L 311.258387 98.076542 
L 312.228513 96.912383 
L 313.19864 95.748224 
L 314.168766 94.584065 
L 315.138892 93.419906 
" style="fill:none;stroke:#bb9832;stroke-linecap:round;stroke-width:2.25;"/>
   </g>
   <g id="line2d_4">
    <path clip-path="url(#p25cade690d)" d="M 102.877835 306.295455 
L 105.229868 305.218723 
L 107.581901 304.141992 
L 109.933934 303.06526 
L 112.285967 301.988528 
L 114.638 300.911797 
L 116.990033 299.835065 
L 119.342066 298.758334 
L 121.694099 297.681602 
L 124.046133 296.604871 
L 126.398166 295.528139 
L 128.750199 294.451408 
L 131.102232 293.374676 
L 133.454265 292.297945 
L 135.806298 291.221213 
L 138.158331 290.144482 
L 140.510364 289.06775 
L 142.862398 287.991019 
L 145.214431 286.914287 
L 147.566464 285.837556 
L 149.918497 284.760824 
L 152.27053 283.684093 
L 154.622563 282.607361 
L 156.974596 281.53063 
L 159.326629 280.453898 
L 161.678662 279.377166 
L 164.030696 278.300435 
L 166.382729 277.223703 
L 168.734762 276.146972 
L 171.086795 275.07024 
L 173.438828 273.993509 
L 175.790861 272.916777 
L 178.142894 271.840046 
L 180.494927 270.763314 
L 182.84696 269.686583 
L 185.198994 268.609851 
L 187.551027 267.53312 
L 189.90306 266.456388 
L 192.255093 265.379657 
L 194.607126 264.302925 
L 196.959159 263.226194 
L 199.311192 262.149462 
L 201.663225 261.072731 
L 204.015258 259.995999 
L 206.367292 258.919268 
L 208.719325 257.842536 
L 211.071358 256.765805 
L 213.423391 255.689073 
L 215.775424 254.612341 
L 218.127457 253.53561 
L 220.47949 252.458878 
L 222.831523 251.382147 
L 225.183556 250.305415 
L 227.53559 249.228684 
L 229.887623 248.151952 
L 232.239656 247.075221 
L 234.591689 245.998489 
L 236.943722 244.921758 
L 239.295755 243.845026 
L 241.647788 242.768295 
L 243.999821 241.691563 
L 246.351855 240.614832 
L 248.703888 239.5381 
L 251.055921 238.461369 
L 253.407954 237.384637 
L 255.759987 236.307906 
L 258.11202 235.231174 
L 260.464053 234.154443 
L 262.816086 233.077711 
L 265.168119 232.00098 
L 267.520153 230.924248 
L 269.872186 229.847516 
L 272.224219 228.770785 
L 274.576252 227.694053 
L 276.928285 226.617322 
L 279.280318 225.54059 
L 281.632351 224.463859 
L 283.984384 223.387127 
L 286.336417 222.310396 
L 288.688451 221.233664 
L 291.040484 220.156933 
L 293.392517 219.080201 
L 295.74455 218.00347 
L 298.096583 216.926738 
L 300.448616 215.850007 
L 302.800649 214.773275 
L 305.152682 213.696544 
L 307.504715 212.619812 
L 309.856749 211.543081 
L 312.208782 210.466349 
L 314.560815 209.389618 
L 316.912848 208.312886 
L 319.264881 207.236154 
L 321.616914 206.159423 
L 323.968947 205.082691 
L 326.32098 204.00596 
L 328.673014 202.929228 
L 331.025047 201.852497 
L 333.37708 200.775765 
L 335.729113 199.699034 
" style="fill:none;stroke:#97a431;stroke-linecap:round;stroke-width:2.25;"/>
   </g>
   <g id="line2d_5">
    <path clip-path="url(#p25cade690d)" d="M 192.626249 272.956846 
L 193.75653 272.931891 
L 194.88681 272.906936 
L 196.01709 272.881981 
L 197.14737 272.857026 
L 198.27765 272.832071 
L 199.40793 272.807116 
L 200.53821 272.782162 
L 201.66849 272.757207 
L 202.798771 272.732252 
L 203.929051 272.707297 
L 205.059331 272.682342 
L 206.189611 272.657387 
L 207.319891 272.632432 
L 208.450171 272.607477 
L 209.580451 272.582522 
L 210.710731 272.557567 
L 211.841012 272.532612 
L 212.971292 272.507657 
L 214.101572 272.482702 
L 215.231852 272.457747 
L 216.362132 272.432792 
L 217.492412 272.407837 
L 218.622692 272.382883 
L 219.752972 272.357928 
L 220.883253 272.332973 
L 222.013533 272.308018 
L 223.143813 272.283063 
L 224.274093 272.258108 
L 225.404373 272.233153 
L 226.534653 272.208198 
L 227.664933 272.183243 
L 228.795213 272.158288 
L 229.925494 272.133333 
L 231.055774 272.108378 
L 232.186054 272.083423 
L 233.316334 272.058468 
L 234.446614 272.033513 
L 235.576894 272.008559 
L 236.707174 271.983604 
L 237.837454 271.958649 
L 238.967735 271.933694 
L 240.098015 271.908739 
L 241.228295 271.883784 
L 242.358575 271.858829 
L 243.488855 271.833874 
L 244.619135 271.808919 
L 245.749415 271.783964 
L 246.879696 271.759009 
L 248.009976 271.734054 
L 249.140256 271.709099 
L 250.270536 271.684144 
L 251.400816 271.659189 
L 252.531096 271.634234 
L 253.661376 271.60928 
L 254.791656 271.584325 
L 255.921937 271.55937 
L 257.052217 271.534415 
L 258.182497 271.50946 
L 259.312777 271.484505 
L 260.443057 271.45955 
L 261.573337 271.434595 
L 262.703617 271.40964 
L 263.833897 271.384685 
L 264.964178 271.35973 
L 266.094458 271.334775 
L 267.224738 271.30982 
L 268.355018 271.284865 
L 269.485298 271.25991 
L 270.615578 271.234956 
L 271.745858 271.210001 
L 272.876138 271.185046 
L 274.006419 271.160091 
L 275.136699 271.135136 
L 276.266979 271.110181 
L 277.397259 271.085226 
L 278.527539 271.060271 
L 279.657819 271.035316 
L 280.788099 271.010361 
L 281.918379 270.985406 
L 283.04866 270.960451 
L 284.17894 270.935496 
L 285.30922 270.910541 
L 286.4395 270.885586 
L 287.56978 270.860631 
L 288.70006 270.835677 
L 289.83034 270.810722 
L 290.96062 270.785767 
L 292.090901 270.760812 
L 293.221181 270.735857 
L 294.351461 270.710902 
L 295.481741 270.685947 
L 296.612021 270.660992 
L 297.742301 270.636037 
L 298.872581 270.611082 
L 300.002861 270.586127 
L 301.133142 270.561172 
L 302.263422 270.536217 
L 303.393702 270.511262 
L 304.523982 270.486307 
" style="fill:none;stroke:#50b131;stroke-linecap:round;stroke-width:2.25;"/>
   </g>
   <g id="line2d_6">
    <path clip-path="url(#p25cade690d)" d="M 161.690252 214.233458 
L 162.526671 213.732634 
L 163.36309 213.23181 
L 164.199509 212.730986 
L 165.035928 212.230162 
L 165.872347 211.729338 
L 166.708766 211.228514 
L 167.545185 210.72769 
L 168.381604 210.226865 
L 169.218023 209.726041 
L 170.054442 209.225217 
L 170.890862 208.724393 
L 171.727281 208.223569 
L 172.5637 207.722745 
L 173.400119 207.221921 
L 174.236538 206.721097 
L 175.072957 206.220273 
L 175.909376 205.719449 
L 176.745795 205.218625 
L 177.582214 204.717801 
L 178.418633 204.216977 
L 179.255052 203.716153 
L 180.091471 203.215329 
L 180.92789 202.714505 
L 181.764309 202.213681 
L 182.600728 201.712857 
L 183.437147 201.212033 
L 184.273566 200.711209 
L 185.109985 200.210385 
L 185.946404 199.709561 
L 186.782823 199.208737 
L 187.619242 198.707913 
L 188.455661 198.207089 
L 189.29208 197.706265 
L 190.128499 197.205441 
L 190.964918 196.704616 
L 191.801337 196.203792 
L 192.637756 195.702968 
L 193.474175 195.202144 
L 194.310594 194.70132 
L 195.147013 194.200496 
L 195.983432 193.699672 
L 196.819851 193.198848 
L 197.656271 192.698024 
L 198.49269 192.1972 
L 199.329109 191.696376 
L 200.165528 191.195552 
L 201.001947 190.694728 
L 201.838366 190.193904 
L 202.674785 189.69308 
L 203.511204 189.192256 
L 204.347623 188.691432 
L 205.184042 188.190608 
L 206.020461 187.689784 
L 206.85688 187.18896 
L 207.693299 186.688136 
L 208.529718 186.187312 
L 209.366137 185.686488 
L 210.202556 185.185664 
L 211.038975 184.68484 
L 211.875394 184.184016 
L 212.711813 183.683192 
L 213.548232 183.182367 
L 214.384651 182.681543 
L 215.22107 182.180719 
L 216.057489 181.679895 
L 216.893908 181.179071 
L 217.730327 180.678247 
L 218.566746 180.177423 
L 219.403165 179.676599 
L 220.239584 179.175775 
L 221.076003 178.674951 
L 221.912422 178.174127 
L 222.748841 177.673303 
L 223.585261 177.172479 
L 224.42168 176.671655 
L 225.258099 176.170831 
L 226.094518 175.670007 
L 226.930937 175.169183 
L 227.767356 174.668359 
L 228.603775 174.167535 
L 229.440194 173.666711 
L 230.276613 173.165887 
L 231.113032 172.665063 
L 231.949451 172.164239 
L 232.78587 171.663415 
L 233.622289 171.162591 
L 234.458708 170.661767 
L 235.295127 170.160943 
L 236.131546 169.660118 
L 236.967965 169.159294 
L 237.804384 168.65847 
L 238.640803 168.157646 
L 239.477222 167.656822 
L 240.313641 167.155998 
L 241.15006 166.655174 
L 241.986479 166.15435 
L 242.822898 165.653526 
L 243.659317 165.152702 
L 244.495736 164.651878 
" style="fill:none;stroke:#34af84;stroke-linecap:round;stroke-width:2.25;"/>
   </g>
   <g id="line2d_7">
    <path clip-path="url(#p25cade690d)" d="M 192.873868 219.958557 
L 194.013625 219.638578 
L 195.153381 219.318599 
L 196.293137 218.99862 
L 197.432894 218.678641 
L 198.57265 218.358662 
L 199.712407 218.038683 
L 200.852163 217.718704 
L 201.991919 217.398725 
L 203.131676 217.078746 
L 204.271432 216.758767 
L 205.411189 216.438789 
L 206.550945 216.11881 
L 207.690701 215.798831 
L 208.830458 215.478852 
L 209.970214 215.158873 
L 211.109971 214.838894 
L 212.249727 214.518915 
L 213.389484 214.198936 
L 214.52924 213.878957 
L 215.668996 213.558978 
L 216.808753 213.238999 
L 217.948509 212.91902 
L 219.088266 212.599041 
L 220.228022 212.279062 
L 221.367778 211.959083 
L 222.507535 211.639104 
L 223.647291 211.319125 
L 224.787048 210.999146 
L 225.926804 210.679167 
L 227.066561 210.359188 
L 228.206317 210.039209 
L 229.346073 209.719231 
L 230.48583 209.399252 
L 231.625586 209.079273 
L 232.765343 208.759294 
L 233.905099 208.439315 
L 235.044855 208.119336 
L 236.184612 207.799357 
L 237.324368 207.479378 
L 238.464125 207.159399 
L 239.603881 206.83942 
L 240.743637 206.519441 
L 241.883394 206.199462 
L 243.02315 205.879483 
L 244.162907 205.559504 
L 245.302663 205.239525 
L 246.44242 204.919546 
L 247.582176 204.599567 
L 248.721932 204.279588 
L 249.861689 203.959609 
L 251.001445 203.63963 
L 252.141202 203.319652 
L 253.280958 202.999673 
L 254.420714 202.679694 
L 255.560471 202.359715 
L 256.700227 202.039736 
L 257.839984 201.719757 
L 258.97974 201.399778 
L 260.119497 201.079799 
L 261.259253 200.75982 
L 262.399009 200.439841 
L 263.538766 200.119862 
L 264.678522 199.799883 
L 265.818279 199.479904 
L 266.958035 199.159925 
L 268.097791 198.839946 
L 269.237548 198.519967 
L 270.377304 198.199988 
L 271.517061 197.880009 
L 272.656817 197.56003 
L 273.796573 197.240051 
L 274.93633 196.920072 
L 276.076086 196.600094 
L 277.215843 196.280115 
L 278.355599 195.960136 
L 279.495356 195.640157 
L 280.635112 195.320178 
L 281.774868 195.000199 
L 282.914625 194.68022 
L 284.054381 194.360241 
L 285.194138 194.040262 
L 286.333894 193.720283 
L 287.47365 193.400304 
L 288.613407 193.080325 
L 289.753163 192.760346 
L 290.89292 192.440367 
L 292.032676 192.120388 
L 293.172432 191.800409 
L 294.312189 191.48043 
L 295.451945 191.160451 
L 296.591702 190.840472 
L 297.731458 190.520493 
L 298.871215 190.200514 
L 300.010971 189.880536 
L 301.150727 189.560557 
L 302.290484 189.240578 
L 303.43024 188.920599 
L 304.569997 188.60062 
L 305.709753 188.280641 
" style="fill:none;stroke:#36ada4;stroke-linecap:round;stroke-width:2.25;"/>
   </g>
   <g id="line2d_8">
    <path clip-path="url(#p25cade690d)" d="M 71.369325 139.279978 
L 72.947749 139.553037 
L 74.526174 139.826097 
L 76.104599 140.099157 
L 77.683023 140.372216 
L 79.261448 140.645276 
L 80.839873 140.918336 
L 82.418297 141.191395 
L 83.996722 141.464455 
L 85.575147 141.737514 
L 87.153571 142.010574 
L 88.731996 142.283634 
L 90.31042 142.556693 
L 91.888845 142.829753 
L 93.46727 143.102813 
L 95.045694 143.375872 
L 96.624119 143.648932 
L 98.202544 143.921992 
L 99.780968 144.195051 
L 101.359393 144.468111 
L 102.937818 144.74117 
L 104.516242 145.01423 
L 106.094667 145.28729 
L 107.673092 145.560349 
L 109.251516 145.833409 
L 110.829941 146.106469 
L 112.408366 146.379528 
L 113.98679 146.652588 
L 115.565215 146.925648 
L 117.14364 147.198707 
L 118.722064 147.471767 
L 120.300489 147.744826 
L 121.878914 148.017886 
L 123.457338 148.290946 
L 125.035763 148.564005 
L 126.614187 148.837065 
L 128.192612 149.110125 
L 129.771037 149.383184 
L 131.349461 149.656244 
L 132.927886 149.929303 
L 134.506311 150.202363 
L 136.084735 150.475423 
L 137.66316 150.748482 
L 139.241585 151.021542 
L 140.820009 151.294602 
L 142.398434 151.567661 
L 143.976859 151.840721 
L 145.555283 152.113781 
L 147.133708 152.38684 
L 148.712133 152.6599 
L 150.290557 152.932959 
L 151.868982 153.206019 
L 153.447407 153.479079 
L 155.025831 153.752138 
L 156.604256 154.025198 
L 158.182681 154.298258 
L 159.761105 154.571317 
L 161.33953 154.844377 
L 162.917954 155.117437 
L 164.496379 155.390496 
L 166.074804 155.663556 
L 167.653228 155.936615 
L 169.231653 156.209675 
L 170.810078 156.482735 
L 172.388502 156.755794 
L 173.966927 157.028854 
L 175.545352 157.301914 
L 177.123776 157.574973 
L 178.702201 157.848033 
L 180.280626 158.121093 
L 181.85905 158.394152 
L 183.437475 158.667212 
L 185.0159 158.940271 
L 186.594324 159.213331 
L 188.172749 159.486391 
L 189.751174 159.75945 
L 191.329598 160.03251 
L 192.908023 160.30557 
L 194.486448 160.578629 
L 196.064872 160.851689 
L 197.643297 161.124748 
L 199.221722 161.397808 
L 200.800146 161.670868 
L 202.378571 161.943927 
L 203.956995 162.216987 
L 205.53542 162.490047 
L 207.113845 162.763106 
L 208.692269 163.036166 
L 210.270694 163.309226 
L 211.849119 163.582285 
L 213.427543 163.855345 
L 215.005968 164.128404 
L 216.584393 164.401464 
L 218.162817 164.674524 
L 219.741242 164.947583 
L 221.319667 165.220643 
L 222.898091 165.493703 
L 224.476516 165.766762 
L 226.054941 166.039822 
L 227.633365 166.312882 
" style="fill:none;stroke:#38aabf;stroke-linecap:round;stroke-width:2.25;"/>
   </g>
   <g id="line2d_9">
    <path clip-path="url(#p25cade690d)" d="M 149.197887 286.909803 
L 150.175276 286.214718 
L 151.152665 285.519633 
L 152.130054 284.824548 
L 153.107443 284.129463 
L 154.084831 283.434378 
L 155.06222 282.739293 
L 156.039609 282.044209 
L 157.016998 281.349124 
L 157.994387 280.654039 
L 158.971776 279.958954 
L 159.949165 279.263869 
L 160.926554 278.568784 
L 161.903943 277.873699 
L 162.881332 277.178615 
L 163.858721 276.48353 
L 164.83611 275.788445 
L 165.813499 275.09336 
L 166.790888 274.398275 
L 167.768277 273.70319 
L 168.745665 273.008105 
L 169.723054 272.31302 
L 170.700443 271.617936 
L 171.677832 270.922851 
L 172.655221 270.227766 
L 173.63261 269.532681 
L 174.609999 268.837596 
L 175.587388 268.142511 
L 176.564777 267.447426 
L 177.542166 266.752342 
L 178.519555 266.057257 
L 179.496944 265.362172 
L 180.474333 264.667087 
L 181.451722 263.972002 
L 182.429111 263.276917 
L 183.4065 262.581832 
L 184.383888 261.886747 
L 185.361277 261.191663 
L 186.338666 260.496578 
L 187.316055 259.801493 
L 188.293444 259.106408 
L 189.270833 258.411323 
L 190.248222 257.716238 
L 191.225611 257.021153 
L 192.203 256.326069 
L 193.180389 255.630984 
L 194.157778 254.935899 
L 195.135167 254.240814 
L 196.112556 253.545729 
L 197.089945 252.850644 
L 198.067334 252.155559 
L 199.044723 251.460474 
L 200.022111 250.76539 
L 200.9995 250.070305 
L 201.976889 249.37522 
L 202.954278 248.680135 
L 203.931667 247.98505 
L 204.909056 247.289965 
L 205.886445 246.59488 
L 206.863834 245.899796 
L 207.841223 245.204711 
L 208.818612 244.509626 
L 209.796001 243.814541 
L 210.77339 243.119456 
L 211.750779 242.424371 
L 212.728168 241.729286 
L 213.705557 241.034201 
L 214.682945 240.339117 
L 215.660334 239.644032 
L 216.637723 238.948947 
L 217.615112 238.253862 
L 218.592501 237.558777 
L 219.56989 236.863692 
L 220.547279 236.168607 
L 221.524668 235.473523 
L 222.502057 234.778438 
L 223.479446 234.083353 
L 224.456835 233.388268 
L 225.434224 232.693183 
L 226.411613 231.998098 
L 227.389002 231.303013 
L 228.366391 230.607928 
L 229.34378 229.912844 
L 230.321168 229.217759 
L 231.298557 228.522674 
L 232.275946 227.827589 
L 233.253335 227.132504 
L 234.230724 226.437419 
L 235.208113 225.742334 
L 236.185502 225.04725 
L 237.162891 224.352165 
L 238.14028 223.65708 
L 239.117669 222.961995 
L 240.095058 222.26691 
L 241.072447 221.571825 
L 242.049836 220.87674 
L 243.027225 220.181655 
L 244.004614 219.486571 
L 244.982003 218.791486 
L 245.959391 218.096401 
" style="fill:none;stroke:#3ba3ec;stroke-linecap:round;stroke-width:2.25;"/>
   </g>
   <g id="line2d_10">
    <path clip-path="url(#p25cade690d)" d="M 119.251855 279.460749 
L 121.196181 278.297307 
L 123.140507 277.133865 
L 125.084833 275.970423 
L 127.029159 274.806981 
L 128.973485 273.643539 
L 130.917811 272.480097 
L 132.862136 271.316656 
L 134.806462 270.153214 
L 136.750788 268.989772 
L 138.695114 267.82633 
L 140.63944 266.662888 
L 142.583766 265.499446 
L 144.528092 264.336004 
L 146.472418 263.172562 
L 148.416744 262.009121 
L 150.361069 260.845679 
L 152.305395 259.682237 
L 154.249721 258.518795 
L 156.194047 257.355353 
L 158.138373 256.191911 
L 160.082699 255.028469 
L 162.027025 253.865028 
L 163.971351 252.701586 
L 165.915676 251.538144 
L 167.860002 250.374702 
L 169.804328 249.21126 
L 171.748654 248.047818 
L 173.69298 246.884376 
L 175.637306 245.720934 
L 177.581632 244.557493 
L 179.525958 243.394051 
L 181.470283 242.230609 
L 183.414609 241.067167 
L 185.358935 239.903725 
L 187.303261 238.740283 
L 189.247587 237.576841 
L 191.191913 236.413399 
L 193.136239 235.249958 
L 195.080565 234.086516 
L 197.024891 232.923074 
L 198.969216 231.759632 
L 200.913542 230.59619 
L 202.857868 229.432748 
L 204.802194 228.269306 
L 206.74652 227.105865 
L 208.690846 225.942423 
L 210.635172 224.778981 
L 212.579498 223.615539 
L 214.523823 222.452097 
L 216.468149 221.288655 
L 218.412475 220.125213 
L 220.356801 218.961771 
L 222.301127 217.79833 
L 224.245453 216.634888 
L 226.189779 215.471446 
L 228.134105 214.308004 
L 230.07843 213.144562 
L 232.022756 211.98112 
L 233.967082 210.817678 
L 235.911408 209.654236 
L 237.855734 208.490795 
L 239.80006 207.327353 
L 241.744386 206.163911 
L 243.688712 205.000469 
L 245.633038 203.837027 
L 247.577363 202.673585 
L 249.521689 201.510143 
L 251.466015 200.346702 
L 253.410341 199.18326 
L 255.354667 198.019818 
L 257.298993 196.856376 
L 259.243319 195.692934 
L 261.187645 194.529492 
L 263.13197 193.36605 
L 265.076296 192.202608 
L 267.020622 191.039167 
L 268.964948 189.875725 
L 270.909274 188.712283 
L 272.8536 187.548841 
L 274.797926 186.385399 
L 276.742252 185.221957 
L 278.686577 184.058515 
L 280.630903 182.895073 
L 282.575229 181.731632 
L 284.519555 180.56819 
L 286.463881 179.404748 
L 288.408207 178.241306 
L 290.352533 177.077864 
L 292.296859 175.914422 
L 294.241185 174.75098 
L 296.18551 173.587539 
L 298.129836 172.424097 
L 300.074162 171.260655 
L 302.018488 170.097213 
L 303.962814 168.933771 
L 305.90714 167.770329 
L 307.851466 166.606887 
L 309.795792 165.443445 
L 311.740117 164.280004 
" style="fill:none;stroke:#a48cf4;stroke-linecap:round;stroke-width:2.25;"/>
   </g>
   <g id="line2d_11">
    <path clip-path="url(#p25cade690d)" d="M 148.166224 263.570178 
L 148.929075 263.17364 
L 149.691925 262.777101 
L 150.454775 262.380563 
L 151.217626 261.984025 
L 151.980476 261.587486 
L 152.743326 261.190948 
L 153.506176 260.794409 
L 154.269027 260.397871 
L 155.031877 260.001332 
L 155.794727 259.604794 
L 156.557577 259.208256 
L 157.320428 258.811717 
L 158.083278 258.415179 
L 158.846128 258.01864 
L 159.608979 257.622102 
L 160.371829 257.225564 
L 161.134679 256.829025 
L 161.897529 256.432487 
L 162.66038 256.035948 
L 163.42323 255.63941 
L 164.18608 255.242872 
L 164.94893 254.846333 
L 165.711781 254.449795 
L 166.474631 254.053256 
L 167.237481 253.656718 
L 168.000332 253.26018 
L 168.763182 252.863641 
L 169.526032 252.467103 
L 170.288882 252.070564 
L 171.051733 251.674026 
L 171.814583 251.277488 
L 172.577433 250.880949 
L 173.340283 250.484411 
L 174.103134 250.087872 
L 174.865984 249.691334 
L 175.628834 249.294795 
L 176.391685 248.898257 
L 177.154535 248.501719 
L 177.917385 248.10518 
L 178.680235 247.708642 
L 179.443086 247.312103 
L 180.205936 246.915565 
L 180.968786 246.519027 
L 181.731636 246.122488 
L 182.494487 245.72595 
L 183.257337 245.329411 
L 184.020187 244.932873 
L 184.783038 244.536335 
L 185.545888 244.139796 
L 186.308738 243.743258 
L 187.071588 243.346719 
L 187.834439 242.950181 
L 188.597289 242.553643 
L 189.360139 242.157104 
L 190.122989 241.760566 
L 190.88584 241.364027 
L 191.64869 240.967489 
L 192.41154 240.570951 
L 193.174391 240.174412 
L 193.937241 239.777874 
L 194.700091 239.381335 
L 195.462941 238.984797 
L 196.225792 238.588258 
L 196.988642 238.19172 
L 197.751492 237.795182 
L 198.514342 237.398643 
L 199.277193 237.002105 
L 200.040043 236.605566 
L 200.802893 236.209028 
L 201.565744 235.81249 
L 202.328594 235.415951 
L 203.091444 235.019413 
L 203.854294 234.622874 
L 204.617145 234.226336 
L 205.379995 233.829798 
L 206.142845 233.433259 
L 206.905695 233.036721 
L 207.668546 232.640182 
L 208.431396 232.243644 
L 209.194246 231.847106 
L 209.957096 231.450567 
L 210.719947 231.054029 
L 211.482797 230.65749 
L 212.245647 230.260952 
L 213.008498 229.864413 
L 213.771348 229.467875 
L 214.534198 229.071337 
L 215.297048 228.674798 
L 216.059899 228.27826 
L 216.822749 227.881721 
L 217.585599 227.485183 
L 218.348449 227.088645 
L 219.1113 226.692106 
L 219.87415 226.295568 
L 220.637 225.899029 
L 221.399851 225.502491 
L 222.162701 225.105953 
L 222.925551 224.709414 
L 223.688401 224.312876 
" style="fill:none;stroke:#e866f4;stroke-linecap:round;stroke-width:2.25;"/>
   </g>
   <g id="line2d_12">
    <path clip-path="url(#p25cade690d)" d="M 141.112231 280.442043 
L 141.327966 280.43674 
L 141.5437 280.431437 
L 141.759435 280.426135 
L 141.97517 280.420832 
L 142.190904 280.415529 
L 142.406639 280.410226 
L 142.622374 280.404924 
L 142.838108 280.399621 
L 143.053843 280.394318 
L 143.269577 280.389016 
L 143.485312 280.383713 
L 143.701047 280.37841 
L 143.916781 280.373108 
L 144.132516 280.367805 
L 144.34825 280.362502 
L 144.563985 280.3572 
L 144.77972 280.351897 
L 144.995454 280.346594 
L 145.211189 280.341291 
L 145.426923 280.335989 
L 145.642658 280.330686 
L 145.858393 280.325383 
L 146.074127 280.320081 
L 146.289862 280.314778 
L 146.505596 280.309475 
L 146.721331 280.304173 
L 146.937066 280.29887 
L 147.1528 280.293567 
L 147.368535 280.288264 
L 147.58427 280.282962 
L 147.800004 280.277659 
L 148.015739 280.272356 
L 148.231473 280.267054 
L 148.447208 280.261751 
L 148.662943 280.256448 
L 148.878677 280.251146 
L 149.094412 280.245843 
L 149.310146 280.24054 
L 149.525881 280.235237 
L 149.741616 280.229935 
L 149.95735 280.224632 
L 150.173085 280.219329 
L 150.388819 280.214027 
L 150.604554 280.208724 
L 150.820289 280.203421 
L 151.036023 280.198119 
L 151.251758 280.192816 
L 151.467493 280.187513 
L 151.683227 280.18221 
L 151.898962 280.176908 
L 152.114696 280.171605 
L 152.330431 280.166302 
L 152.546166 280.161 
L 152.7619 280.155697 
L 152.977635 280.150394 
L 153.193369 280.145092 
L 153.409104 280.139789 
L 153.624839 280.134486 
L 153.840573 280.129183 
L 154.056308 280.123881 
L 154.272042 280.118578 
L 154.487777 280.113275 
L 154.703512 280.107973 
L 154.919246 280.10267 
L 155.134981 280.097367 
L 155.350716 280.092065 
L 155.56645 280.086762 
L 155.782185 280.081459 
L 155.997919 280.076157 
L 156.213654 280.070854 
L 156.429389 280.065551 
L 156.645123 280.060248 
L 156.860858 280.054946 
L 157.076592 280.049643 
L 157.292327 280.04434 
L 157.508062 280.039038 
L 157.723796 280.033735 
L 157.939531 280.028432 
L 158.155265 280.02313 
L 158.371 280.017827 
L 158.586735 280.012524 
L 158.802469 280.007221 
L 159.018204 280.001919 
L 159.233939 279.996616 
L 159.449673 279.991313 
L 159.665408 279.986011 
L 159.881142 279.980708 
L 160.096877 279.975405 
L 160.312612 279.970103 
L 160.528346 279.9648 
L 160.744081 279.959497 
L 160.959815 279.954194 
L 161.17555 279.948892 
L 161.391285 279.943589 
L 161.607019 279.938286 
L 161.822754 279.932984 
L 162.038488 279.927681 
L 162.254223 279.922378 
L 162.469958 279.917076 
" style="fill:none;stroke:#f668c2;stroke-linecap:round;stroke-width:2.25;"/>
   </g>
   <g id="patch_3">
    <path d="M 51.479688 320.2 
L 51.479688 14.3 
" style="fill:none;stroke:#262626;stroke-linecap:square;stroke-linejoin:miter;stroke-width:0.8;"/>
   </g>
   <g id="patch_4">
    <path d="M 51.479687 320.2 
L 355.61875 320.2 
" style="fill:none;stroke:#262626;stroke-linecap:square;stroke-linejoin:miter;stroke-width:0.8;"/>
   </g>
   <g id="text_17">
    <!-- r=0.399, p=0.0011 -->
    <defs>
     <path d="M 52.828125 42.09375 
L 5.5625 42.09375 
L 5.5625 50.296875 
L 52.828125 50.296875 
z
M 52.828125 20.359375 
L 5.5625 20.359375 
L 5.5625 28.5625 
L 52.828125 28.5625 
z
" id="ArialMT-61"/>
     <path d="M 5.46875 16.546875 
L 13.921875 17.328125 
Q 14.984375 11.375 18.015625 8.6875 
Q 21.046875 6 25.78125 6 
Q 29.828125 6 32.875 7.859375 
Q 35.9375 9.71875 37.890625 12.8125 
Q 39.84375 15.921875 41.15625 21.1875 
Q 42.484375 26.46875 42.484375 31.9375 
Q 42.484375 32.515625 42.4375 33.6875 
Q 39.796875 29.5 35.234375 26.875 
Q 30.671875 24.265625 25.34375 24.265625 
Q 16.453125 24.265625 10.296875 30.703125 
Q 4.15625 37.15625 4.15625 47.703125 
Q 4.15625 58.59375 10.578125 65.234375 
Q 17 71.875 26.65625 71.875 
Q 33.640625 71.875 39.421875 68.109375 
Q 45.21875 64.359375 48.21875 57.390625 
Q 51.21875 50.4375 51.21875 37.25 
Q 51.21875 23.53125 48.234375 15.40625 
Q 45.265625 7.28125 39.375 3.03125 
Q 33.5 -1.21875 25.59375 -1.21875 
Q 17.1875 -1.21875 11.859375 3.4375 
Q 6.546875 8.109375 5.46875 16.546875 
z
M 41.453125 48.140625 
Q 41.453125 55.71875 37.421875 60.15625 
Q 33.40625 64.59375 27.734375 64.59375 
Q 21.875 64.59375 17.53125 59.8125 
Q 13.1875 55.03125 13.1875 47.40625 
Q 13.1875 40.578125 17.3125 36.296875 
Q 21.4375 32.03125 27.484375 32.03125 
Q 33.59375 32.03125 37.515625 36.296875 
Q 41.453125 40.578125 41.453125 48.140625 
z
" id="ArialMT-57"/>
     <path d="M 8.890625 0 
L 8.890625 10.015625 
L 18.890625 10.015625 
L 18.890625 0 
Q 18.890625 -5.515625 16.9375 -8.90625 
Q 14.984375 -12.3125 10.75 -14.15625 
L 8.296875 -10.40625 
Q 11.078125 -9.1875 12.390625 -6.8125 
Q 13.71875 -4.4375 13.875 0 
z
" id="ArialMT-44"/>
     <path d="M 6.59375 -19.875 
L 6.59375 51.859375 
L 14.59375 51.859375 
L 14.59375 45.125 
Q 17.4375 49.078125 21 51.046875 
Q 24.5625 53.03125 29.640625 53.03125 
Q 36.28125 53.03125 41.359375 49.609375 
Q 46.4375 46.1875 49.015625 39.953125 
Q 51.609375 33.734375 51.609375 26.3125 
Q 51.609375 18.359375 48.75 11.984375 
Q 45.90625 5.609375 40.453125 2.21875 
Q 35.015625 -1.171875 29 -1.171875 
Q 24.609375 -1.171875 21.109375 0.6875 
Q 17.625 2.546875 15.375 5.375 
L 15.375 -19.875 
z
M 14.546875 25.640625 
Q 14.546875 15.625 18.59375 10.84375 
Q 22.65625 6.0625 28.421875 6.0625 
Q 34.28125 6.0625 38.453125 11.015625 
Q 42.625 15.96875 42.625 26.375 
Q 42.625 36.28125 38.546875 41.203125 
Q 34.46875 46.140625 28.8125 46.140625 
Q 23.1875 46.140625 18.859375 40.890625 
Q 14.546875 35.640625 14.546875 25.640625 
z
" id="ArialMT-112"/>
    </defs>
    <g style="fill:#262626;" transform="translate(129.531133 99.83541)scale(0.15 -0.15)">
     <use xlink:href="#ArialMT-114"/>
     <use x="33.300781" xlink:href="#ArialMT-61"/>
     <use x="91.699219" xlink:href="#ArialMT-48"/>
     <use x="147.314453" xlink:href="#ArialMT-46"/>
     <use x="175.097656" xlink:href="#ArialMT-51"/>
     <use x="230.712891" xlink:href="#ArialMT-57"/>
     <use x="286.328125" xlink:href="#ArialMT-57"/>
     <use x="341.943359" xlink:href="#ArialMT-44"/>
     <use x="369.726562" xlink:href="#ArialMT-32"/>
     <use x="397.509766" xlink:href="#ArialMT-112"/>
     <use x="453.125" xlink:href="#ArialMT-61"/>
     <use x="511.523438" xlink:href="#ArialMT-48"/>
     <use x="567.138672" xlink:href="#ArialMT-46"/>
     <use x="594.921875" xlink:href="#ArialMT-48"/>
     <use x="650.537109" xlink:href="#ArialMT-48"/>
     <use x="706.152344" xlink:href="#ArialMT-49"/>
     <use x="761.658203" xlink:href="#ArialMT-49"/>
    </g>
   </g>
  </g>
  <g id="legend_1">
   <g id="text_18">
    <!-- host_subject_id -->
    <defs>
     <path d="M -1.515625 -19.875 
L -1.515625 -13.53125 
L 56.734375 -13.53125 
L 56.734375 -19.875 
z
" id="ArialMT-95"/>
     <path d="M 40.578125 0 
L 40.578125 7.625 
Q 34.515625 -1.171875 24.125 -1.171875 
Q 19.53125 -1.171875 15.546875 0.578125 
Q 11.578125 2.34375 9.640625 5 
Q 7.71875 7.671875 6.9375 11.53125 
Q 6.390625 14.109375 6.390625 19.734375 
L 6.390625 51.859375 
L 15.1875 51.859375 
L 15.1875 23.09375 
Q 15.1875 16.21875 15.71875 13.8125 
Q 16.546875 10.359375 19.234375 8.375 
Q 21.921875 6.390625 25.875 6.390625 
Q 29.828125 6.390625 33.296875 8.421875 
Q 36.765625 10.453125 38.203125 13.9375 
Q 39.65625 17.4375 39.65625 24.078125 
L 39.65625 51.859375 
L 48.4375 51.859375 
L 48.4375 0 
z
" id="ArialMT-117"/>
     <path d="M 14.703125 0 
L 6.546875 0 
L 6.546875 71.578125 
L 15.328125 71.578125 
L 15.328125 46.046875 
Q 20.90625 53.03125 29.546875 53.03125 
Q 34.328125 53.03125 38.59375 51.09375 
Q 42.875 49.171875 45.625 45.671875 
Q 48.390625 42.1875 49.953125 37.25 
Q 51.515625 32.328125 51.515625 26.703125 
Q 51.515625 13.375 44.921875 6.09375 
Q 38.328125 -1.171875 29.109375 -1.171875 
Q 19.921875 -1.171875 14.703125 6.5 
z
M 14.59375 26.3125 
Q 14.59375 17 17.140625 12.84375 
Q 21.296875 6.0625 28.375 6.0625 
Q 34.125 6.0625 38.328125 11.0625 
Q 42.53125 16.0625 42.53125 25.984375 
Q 42.53125 36.140625 38.5 40.96875 
Q 34.46875 45.796875 28.765625 45.796875 
Q 23 45.796875 18.796875 40.796875 
Q 14.59375 35.796875 14.59375 26.3125 
z
" id="ArialMT-98"/>
     <path d="M 6.546875 61.375 
L 6.546875 71.578125 
L 15.328125 71.578125 
L 15.328125 61.375 
z
M -4.59375 -20.125 
L -2.9375 -12.640625 
Q -0.296875 -13.328125 1.21875 -13.328125 
Q 3.90625 -13.328125 5.21875 -11.546875 
Q 6.546875 -9.765625 6.546875 -2.640625 
L 6.546875 51.859375 
L 15.328125 51.859375 
L 15.328125 -2.828125 
Q 15.328125 -12.40625 12.84375 -16.15625 
Q 9.671875 -21.046875 2.296875 -21.046875 
Q -1.265625 -21.046875 -4.59375 -20.125 
z
" id="ArialMT-106"/>
    </defs>
    <g style="fill:#262626;" transform="translate(359.6375 97.654688)scale(0.1 -0.1)">
     <use xlink:href="#ArialMT-104"/>
     <use x="55.615234" xlink:href="#ArialMT-111"/>
     <use x="111.230469" xlink:href="#ArialMT-115"/>
     <use x="161.230469" xlink:href="#ArialMT-116"/>
     <use x="189.013672" xlink:href="#ArialMT-95"/>
     <use x="244.628906" xlink:href="#ArialMT-115"/>
     <use x="294.628906" xlink:href="#ArialMT-117"/>
     <use x="350.244141" xlink:href="#ArialMT-98"/>
     <use x="405.859375" xlink:href="#ArialMT-106"/>
     <use x="428.076172" xlink:href="#ArialMT-101"/>
     <use x="483.691406" xlink:href="#ArialMT-99"/>
     <use x="533.691406" xlink:href="#ArialMT-116"/>
     <use x="561.474609" xlink:href="#ArialMT-95"/>
     <use x="617.089844" xlink:href="#ArialMT-105"/>
     <use x="639.306641" xlink:href="#ArialMT-100"/>
    </g>
   </g>
   <g id="PathCollection_13">
    <g>
     <use style="fill:#f77189;fill-opacity:0.8;stroke:#f77189;stroke-opacity:0.8;" x="374.264062" xlink:href="#ma36253ffcb" y="109.292188"/>
    </g>
   </g>
   <g id="text_19">
    <!-- DM001 -->
    <defs>
     <path d="M 7.421875 0 
L 7.421875 71.578125 
L 21.6875 71.578125 
L 38.625 20.90625 
Q 40.96875 13.8125 42.046875 10.296875 
Q 43.265625 14.203125 45.84375 21.78125 
L 62.984375 71.578125 
L 75.734375 71.578125 
L 75.734375 0 
L 66.609375 0 
L 66.609375 59.90625 
L 45.796875 0 
L 37.25 0 
L 16.546875 60.9375 
L 16.546875 0 
z
" id="ArialMT-77"/>
    </defs>
    <g style="fill:#262626;" transform="translate(392.264062 111.917188)scale(0.1 -0.1)">
     <use xlink:href="#ArialMT-68"/>
     <use x="72.216797" xlink:href="#ArialMT-77"/>
     <use x="155.517578" xlink:href="#ArialMT-48"/>
     <use x="211.132812" xlink:href="#ArialMT-48"/>
     <use x="266.748047" xlink:href="#ArialMT-49"/>
    </g>
   </g>
   <g id="PathCollection_14">
    <g>
     <use style="fill:#e68332;fill-opacity:0.8;stroke:#e68332;stroke-opacity:0.8;" x="374.264062" xlink:href="#m0fae8d748a" y="123.4375"/>
    </g>
   </g>
   <g id="text_20">
    <!-- DM002 -->
    <g style="fill:#262626;" transform="translate(392.264062 126.0625)scale(0.1 -0.1)">
     <use xlink:href="#ArialMT-68"/>
     <use x="72.216797" xlink:href="#ArialMT-77"/>
     <use x="155.517578" xlink:href="#ArialMT-48"/>
     <use x="211.132812" xlink:href="#ArialMT-48"/>
     <use x="266.748047" xlink:href="#ArialMT-50"/>
    </g>
   </g>
   <g id="PathCollection_15">
    <g>
     <use style="fill:#bb9832;fill-opacity:0.8;stroke:#bb9832;stroke-opacity:0.8;" x="374.264062" xlink:href="#m87885bbc2d" y="137.582813"/>
    </g>
   </g>
   <g id="text_21">
    <!-- DM003 -->
    <g style="fill:#262626;" transform="translate(392.264062 140.207813)scale(0.1 -0.1)">
     <use xlink:href="#ArialMT-68"/>
     <use x="72.216797" xlink:href="#ArialMT-77"/>
     <use x="155.517578" xlink:href="#ArialMT-48"/>
     <use x="211.132812" xlink:href="#ArialMT-48"/>
     <use x="266.748047" xlink:href="#ArialMT-51"/>
    </g>
   </g>
   <g id="PathCollection_16">
    <g>
     <use style="fill:#97a431;fill-opacity:0.8;stroke:#97a431;stroke-opacity:0.8;" x="374.264062" xlink:href="#me5b077ddc2" y="151.728125"/>
    </g>
   </g>
   <g id="text_22">
    <!-- DM006 -->
    <g style="fill:#262626;" transform="translate(392.264062 154.353125)scale(0.1 -0.1)">
     <use xlink:href="#ArialMT-68"/>
     <use x="72.216797" xlink:href="#ArialMT-77"/>
     <use x="155.517578" xlink:href="#ArialMT-48"/>
     <use x="211.132812" xlink:href="#ArialMT-48"/>
     <use x="266.748047" xlink:href="#ArialMT-54"/>
    </g>
   </g>
   <g id="PathCollection_17">
    <g>
     <use style="fill:#50b131;fill-opacity:0.8;stroke:#50b131;stroke-opacity:0.8;" x="374.264062" xlink:href="#mb4d1183b09" y="165.873438"/>
    </g>
   </g>
   <g id="text_23">
    <!-- DM008 -->
    <defs>
     <path d="M 17.671875 38.8125 
Q 12.203125 40.828125 9.5625 44.53125 
Q 6.9375 48.25 6.9375 53.421875 
Q 6.9375 61.234375 12.546875 66.546875 
Q 18.171875 71.875 27.484375 71.875 
Q 36.859375 71.875 42.578125 66.421875 
Q 48.296875 60.984375 48.296875 53.171875 
Q 48.296875 48.1875 45.671875 44.5 
Q 43.0625 40.828125 37.75 38.8125 
Q 44.34375 36.671875 47.78125 31.875 
Q 51.21875 27.09375 51.21875 20.453125 
Q 51.21875 11.28125 44.71875 5.03125 
Q 38.234375 -1.21875 27.640625 -1.21875 
Q 17.046875 -1.21875 10.546875 5.046875 
Q 4.046875 11.328125 4.046875 20.703125 
Q 4.046875 27.6875 7.59375 32.390625 
Q 11.140625 37.109375 17.671875 38.8125 
z
M 15.921875 53.71875 
Q 15.921875 48.640625 19.1875 45.40625 
Q 22.46875 42.1875 27.6875 42.1875 
Q 32.765625 42.1875 36.015625 45.375 
Q 39.265625 48.578125 39.265625 53.21875 
Q 39.265625 58.0625 35.90625 61.359375 
Q 32.5625 64.65625 27.59375 64.65625 
Q 22.5625 64.65625 19.234375 61.421875 
Q 15.921875 58.203125 15.921875 53.71875 
z
M 13.09375 20.65625 
Q 13.09375 16.890625 14.875 13.375 
Q 16.65625 9.859375 20.171875 7.921875 
Q 23.6875 6 27.734375 6 
Q 34.03125 6 38.125 10.046875 
Q 42.234375 14.109375 42.234375 20.359375 
Q 42.234375 26.703125 38.015625 30.859375 
Q 33.796875 35.015625 27.4375 35.015625 
Q 21.234375 35.015625 17.15625 30.90625 
Q 13.09375 26.8125 13.09375 20.65625 
z
" id="ArialMT-56"/>
    </defs>
    <g style="fill:#262626;" transform="translate(392.264062 168.498438)scale(0.1 -0.1)">
     <use xlink:href="#ArialMT-68"/>
     <use x="72.216797" xlink:href="#ArialMT-77"/>
     <use x="155.517578" xlink:href="#ArialMT-48"/>
     <use x="211.132812" xlink:href="#ArialMT-48"/>
     <use x="266.748047" xlink:href="#ArialMT-56"/>
    </g>
   </g>
   <g id="PathCollection_18">
    <g>
     <use style="fill:#34af84;fill-opacity:0.8;stroke:#34af84;stroke-opacity:0.8;" x="374.264062" xlink:href="#m27a1d2f449" y="180.01875"/>
    </g>
   </g>
   <g id="text_24">
    <!-- DM009 -->
    <g style="fill:#262626;" transform="translate(392.264062 182.64375)scale(0.1 -0.1)">
     <use xlink:href="#ArialMT-68"/>
     <use x="72.216797" xlink:href="#ArialMT-77"/>
     <use x="155.517578" xlink:href="#ArialMT-48"/>
     <use x="211.132812" xlink:href="#ArialMT-48"/>
     <use x="266.748047" xlink:href="#ArialMT-57"/>
    </g>
   </g>
   <g id="PathCollection_19">
    <g>
     <use style="fill:#36ada4;fill-opacity:0.8;stroke:#36ada4;stroke-opacity:0.8;" x="374.264062" xlink:href="#mc5e1cbaa87" y="194.164063"/>
    </g>
   </g>
   <g id="text_25">
    <!-- DM011 -->
    <g style="fill:#262626;" transform="translate(392.264062 196.789063)scale(0.1 -0.1)">
     <use xlink:href="#ArialMT-68"/>
     <use x="72.216797" xlink:href="#ArialMT-77"/>
     <use x="155.517578" xlink:href="#ArialMT-48"/>
     <use x="211.132812" xlink:href="#ArialMT-49"/>
     <use x="266.638672" xlink:href="#ArialMT-49"/>
    </g>
   </g>
   <g id="PathCollection_20">
    <g>
     <use style="fill:#38aabf;fill-opacity:0.8;stroke:#38aabf;stroke-opacity:0.8;" x="374.264062" xlink:href="#md9cc5a015c" y="208.309375"/>
    </g>
   </g>
   <g id="text_26">
    <!-- DM013 -->
    <g style="fill:#262626;" transform="translate(392.264062 210.934375)scale(0.1 -0.1)">
     <use xlink:href="#ArialMT-68"/>
     <use x="72.216797" xlink:href="#ArialMT-77"/>
     <use x="155.517578" xlink:href="#ArialMT-48"/>
     <use x="211.132812" xlink:href="#ArialMT-49"/>
     <use x="266.748047" xlink:href="#ArialMT-51"/>
    </g>
   </g>
   <g id="PathCollection_21">
    <g>
     <use style="fill:#3ba3ec;fill-opacity:0.8;stroke:#3ba3ec;stroke-opacity:0.8;" x="374.264062" xlink:href="#mba45ee8e57" y="222.454688"/>
    </g>
   </g>
   <g id="text_27">
    <!-- DM014 -->
    <g style="fill:#262626;" transform="translate(392.264062 225.079688)scale(0.1 -0.1)">
     <use xlink:href="#ArialMT-68"/>
     <use x="72.216797" xlink:href="#ArialMT-77"/>
     <use x="155.517578" xlink:href="#ArialMT-48"/>
     <use x="211.132812" xlink:href="#ArialMT-49"/>
     <use x="266.748047" xlink:href="#ArialMT-52"/>
    </g>
   </g>
   <g id="PathCollection_22">
    <g>
     <use style="fill:#a48cf4;fill-opacity:0.8;stroke:#a48cf4;stroke-opacity:0.8;" x="374.264062" xlink:href="#m0cd1cc0f17" y="236.6"/>
    </g>
   </g>
   <g id="text_28">
    <!-- DM015 -->
    <g style="fill:#262626;" transform="translate(392.264062 239.225)scale(0.1 -0.1)">
     <use xlink:href="#ArialMT-68"/>
     <use x="72.216797" xlink:href="#ArialMT-77"/>
     <use x="155.517578" xlink:href="#ArialMT-48"/>
     <use x="211.132812" xlink:href="#ArialMT-49"/>
     <use x="266.748047" xlink:href="#ArialMT-53"/>
    </g>
   </g>
   <g id="PathCollection_23">
    <g>
     <use style="fill:#e866f4;fill-opacity:0.8;stroke:#e866f4;stroke-opacity:0.8;" x="374.264062" xlink:href="#m07302bb819" y="250.745313"/>
    </g>
   </g>
   <g id="text_29">
    <!-- DM016 -->
    <g style="fill:#262626;" transform="translate(392.264062 253.370313)scale(0.1 -0.1)">
     <use xlink:href="#ArialMT-68"/>
     <use x="72.216797" xlink:href="#ArialMT-77"/>
     <use x="155.517578" xlink:href="#ArialMT-48"/>
     <use x="211.132812" xlink:href="#ArialMT-49"/>
     <use x="266.748047" xlink:href="#ArialMT-54"/>
    </g>
   </g>
   <g id="PathCollection_24">
    <g>
     <use style="fill:#f668c2;fill-opacity:0.8;stroke:#f668c2;stroke-opacity:0.8;" x="374.264062" xlink:href="#m62625b0cb4" y="264.890625"/>
    </g>
   </g>
   <g id="text_30">
    <!-- DM017 -->
    <g style="fill:#262626;" transform="translate(392.264062 267.515625)scale(0.1 -0.1)">
     <use xlink:href="#ArialMT-68"/>
     <use x="72.216797" xlink:href="#ArialMT-77"/>
     <use x="155.517578" xlink:href="#ArialMT-48"/>
     <use x="211.132812" xlink:href="#ArialMT-49"/>
     <use x="266.748047" xlink:href="#ArialMT-55"/>
    </g>
   </g>
  </g>
 </g>
 <defs>
  <clipPath id="p25cade690d">
   <rect height="305.9" width="304.139062" x="51.479688" y="14.3"/>
  </clipPath>
 </defs>
</svg>
