<?xml version="1.0" encoding="utf-8" standalone="no"?>
<!DOCTYPE svg PUBLIC "-//W3C//DTD SVG 1.1//EN"
  "http://www.w3.org/Graphics/SVG/1.1/DTD/svg11.dtd">
<!-- Created with matplotlib (https://matplotlib.org/) -->
<svg height="360pt" version="1.1" viewBox="0 0 438.125 360" width="438.125pt" xmlns="http://www.w3.org/2000/svg" xmlns:xlink="http://www.w3.org/1999/xlink">
 <defs>
  <style type="text/css">
*{stroke-linecap:butt;stroke-linejoin:round;}
  </style>
 </defs>
 <g id="figure_1">
  <g id="patch_1">
   <path d="M 0 360 
L 438.125 360 
L 438.125 0 
L 0 0 
z
" style="fill:#ffffff;"/>
  </g>
  <g id="axes_1">
   <g id="patch_2">
    <path d="M 51.479688 320.2 
L 355.61875 320.2 
L 355.61875 14.3 
L 51.479688 14.3 
z
" style="fill:#ffffff;"/>
   </g>
   <g id="matplotlib.axis_1">
    <g id="xtick_1">
     <g id="text_1">
      <!-- 50 -->
      <defs>
       <path d="M 4.15625 18.75 
L 13.375 19.53125 
Q 14.40625 12.796875 18.140625 9.390625 
Q 21.875 6 27.15625 6 
Q 33.5 6 37.890625 10.78125 
Q 42.28125 15.578125 42.28125 23.484375 
Q 42.28125 31 38.0625 35.34375 
Q 33.84375 39.703125 27 39.703125 
Q 22.75 39.703125 19.328125 37.765625 
Q 15.921875 35.84375 13.96875 32.765625 
L 5.71875 33.84375 
L 12.640625 70.609375 
L 48.25 70.609375 
L 48.25 62.203125 
L 19.671875 62.203125 
L 15.828125 42.96875 
Q 22.265625 47.46875 29.34375 47.46875 
Q 38.71875 47.46875 45.15625 40.96875 
Q 51.609375 34.46875 51.609375 24.265625 
Q 51.609375 14.546875 45.953125 7.46875 
Q 39.0625 -1.21875 27.15625 -1.21875 
Q 17.390625 -1.21875 11.203125 4.25 
Q 5.03125 9.71875 4.15625 18.75 
z
" id="ArialMT-53"/>
       <path d="M 4.15625 35.296875 
Q 4.15625 48 6.765625 55.734375 
Q 9.375 63.484375 14.515625 67.671875 
Q 19.671875 71.875 27.484375 71.875 
Q 33.25 71.875 37.59375 69.546875 
Q 41.9375 67.234375 44.765625 62.859375 
Q 47.609375 58.5 49.21875 52.21875 
Q 50.828125 45.953125 50.828125 35.296875 
Q 50.828125 22.703125 48.234375 14.96875 
Q 45.65625 7.234375 40.5 3 
Q 35.359375 -1.21875 27.484375 -1.21875 
Q 17.140625 -1.21875 11.234375 6.203125 
Q 4.15625 15.140625 4.15625 35.296875 
z
M 13.1875 35.296875 
Q 13.1875 17.671875 17.3125 11.828125 
Q 21.4375 6 27.484375 6 
Q 33.546875 6 37.671875 11.859375 
Q 41.796875 17.71875 41.796875 35.296875 
Q 41.796875 52.984375 37.671875 58.78125 
Q 33.546875 64.59375 27.390625 64.59375 
Q 21.34375 64.59375 17.71875 59.46875 
Q 13.1875 52.9375 13.1875 35.296875 
z
" id="ArialMT-48"/>
      </defs>
      <g style="fill:#262626;" transform="translate(70.803799 335.789375)scale(0.12 -0.12)">
       <use xlink:href="#ArialMT-53"/>
       <use x="55.615234" xlink:href="#ArialMT-48"/>
      </g>
     </g>
    </g>
    <g id="xtick_2">
     <g id="text_2">
      <!-- 100 -->
      <defs>
       <path d="M 37.25 0 
L 28.46875 0 
L 28.46875 56 
Q 25.296875 52.984375 20.140625 49.953125 
Q 14.984375 46.921875 10.890625 45.40625 
L 10.890625 53.90625 
Q 18.265625 57.375 23.78125 62.296875 
Q 29.296875 67.234375 31.59375 71.875 
L 37.25 71.875 
z
" id="ArialMT-49"/>
      </defs>
      <g style="fill:#262626;" transform="translate(125.558045 335.789375)scale(0.12 -0.12)">
       <use xlink:href="#ArialMT-49"/>
       <use x="55.615234" xlink:href="#ArialMT-48"/>
       <use x="111.230469" xlink:href="#ArialMT-48"/>
      </g>
     </g>
    </g>
    <g id="xtick_3">
     <g id="text_3">
      <!-- 150 -->
      <g style="fill:#262626;" transform="translate(183.648854 335.789375)scale(0.12 -0.12)">
       <use xlink:href="#ArialMT-49"/>
       <use x="55.615234" xlink:href="#ArialMT-53"/>
       <use x="111.230469" xlink:href="#ArialMT-48"/>
      </g>
     </g>
    </g>
    <g id="xtick_4">
     <g id="text_4">
      <!-- 200 -->
      <defs>
       <path d="M 50.34375 8.453125 
L 50.34375 0 
L 3.03125 0 
Q 2.9375 3.171875 4.046875 6.109375 
Q 5.859375 10.9375 9.828125 15.625 
Q 13.8125 20.3125 21.34375 26.46875 
Q 33.015625 36.03125 37.109375 41.625 
Q 41.21875 47.21875 41.21875 52.203125 
Q 41.21875 57.421875 37.46875 61 
Q 33.734375 64.59375 27.734375 64.59375 
Q 21.390625 64.59375 17.578125 60.78125 
Q 13.765625 56.984375 13.71875 50.25 
L 4.6875 51.171875 
Q 5.609375 61.28125 11.65625 66.578125 
Q 17.71875 71.875 27.9375 71.875 
Q 38.234375 71.875 44.234375 66.15625 
Q 50.25 60.453125 50.25 52 
Q 50.25 47.703125 48.484375 43.546875 
Q 46.734375 39.40625 42.65625 34.8125 
Q 38.578125 30.21875 29.109375 22.21875 
Q 21.1875 15.578125 18.9375 13.203125 
Q 16.703125 10.84375 15.234375 8.453125 
z
" id="ArialMT-50"/>
      </defs>
      <g style="fill:#262626;" transform="translate(241.739662 335.789375)scale(0.12 -0.12)">
       <use xlink:href="#ArialMT-50"/>
       <use x="55.615234" xlink:href="#ArialMT-48"/>
       <use x="111.230469" xlink:href="#ArialMT-48"/>
      </g>
     </g>
    </g>
    <g id="xtick_5">
     <g id="text_5">
      <!-- 250 -->
      <g style="fill:#262626;" transform="translate(299.830471 335.789375)scale(0.12 -0.12)">
       <use xlink:href="#ArialMT-50"/>
       <use x="55.615234" xlink:href="#ArialMT-53"/>
       <use x="111.230469" xlink:href="#ArialMT-48"/>
      </g>
     </g>
    </g>
    <g id="text_6">
     <!-- Observed OTUs -->
     <defs>
      <path d="M 4.828125 34.859375 
Q 4.828125 52.6875 14.390625 62.765625 
Q 23.96875 72.859375 39.109375 72.859375 
Q 49.03125 72.859375 56.984375 68.109375 
Q 64.9375 63.375 69.109375 54.90625 
Q 73.296875 46.4375 73.296875 35.6875 
Q 73.296875 24.8125 68.890625 16.21875 
Q 64.5 7.625 56.4375 3.203125 
Q 48.390625 -1.21875 39.0625 -1.21875 
Q 28.953125 -1.21875 20.984375 3.65625 
Q 13.03125 8.546875 8.921875 16.984375 
Q 4.828125 25.4375 4.828125 34.859375 
z
M 14.59375 34.71875 
Q 14.59375 21.78125 21.546875 14.328125 
Q 28.515625 6.890625 39.015625 6.890625 
Q 49.703125 6.890625 56.609375 14.40625 
Q 63.53125 21.921875 63.53125 35.75 
Q 63.53125 44.484375 60.578125 51 
Q 57.625 57.515625 51.921875 61.109375 
Q 46.234375 64.703125 39.15625 64.703125 
Q 29.109375 64.703125 21.84375 57.78125 
Q 14.59375 50.875 14.59375 34.71875 
z
" id="ArialMT-79"/>
      <path d="M 14.703125 0 
L 6.546875 0 
L 6.546875 71.578125 
L 15.328125 71.578125 
L 15.328125 46.046875 
Q 20.90625 53.03125 29.546875 53.03125 
Q 34.328125 53.03125 38.59375 51.09375 
Q 42.875 49.171875 45.625 45.671875 
Q 48.390625 42.1875 49.953125 37.25 
Q 51.515625 32.328125 51.515625 26.703125 
Q 51.515625 13.375 44.921875 6.09375 
Q 38.328125 -1.171875 29.109375 -1.171875 
Q 19.921875 -1.171875 14.703125 6.5 
z
M 14.59375 26.3125 
Q 14.59375 17 17.140625 12.84375 
Q 21.296875 6.0625 28.375 6.0625 
Q 34.125 6.0625 38.328125 11.0625 
Q 42.53125 16.0625 42.53125 25.984375 
Q 42.53125 36.140625 38.5 40.96875 
Q 34.46875 45.796875 28.765625 45.796875 
Q 23 45.796875 18.796875 40.796875 
Q 14.59375 35.796875 14.59375 26.3125 
z
" id="ArialMT-98"/>
      <path d="M 3.078125 15.484375 
L 11.765625 16.84375 
Q 12.5 11.625 15.84375 8.84375 
Q 19.1875 6.0625 25.203125 6.0625 
Q 31.25 6.0625 34.171875 8.515625 
Q 37.109375 10.984375 37.109375 14.3125 
Q 37.109375 17.28125 34.515625 19 
Q 32.71875 20.171875 25.53125 21.96875 
Q 15.875 24.421875 12.140625 26.203125 
Q 8.40625 27.984375 6.46875 31.125 
Q 4.546875 34.28125 4.546875 38.09375 
Q 4.546875 41.546875 6.125 44.5 
Q 7.71875 47.46875 10.453125 49.421875 
Q 12.5 50.921875 16.03125 51.96875 
Q 19.578125 53.03125 23.640625 53.03125 
Q 29.734375 53.03125 34.34375 51.265625 
Q 38.96875 49.515625 41.15625 46.5 
Q 43.359375 43.5 44.1875 38.484375 
L 35.59375 37.3125 
Q 35.015625 41.3125 32.203125 43.546875 
Q 29.390625 45.796875 24.265625 45.796875 
Q 18.21875 45.796875 15.625 43.796875 
Q 13.03125 41.796875 13.03125 39.109375 
Q 13.03125 37.40625 14.109375 36.03125 
Q 15.1875 34.625 17.484375 33.6875 
Q 18.796875 33.203125 25.25 31.453125 
Q 34.578125 28.953125 38.25 27.359375 
Q 41.9375 25.78125 44.03125 22.75 
Q 46.140625 19.734375 46.140625 15.234375 
Q 46.140625 10.84375 43.578125 6.953125 
Q 41.015625 3.078125 36.171875 0.953125 
Q 31.34375 -1.171875 25.25 -1.171875 
Q 15.140625 -1.171875 9.84375 3.03125 
Q 4.546875 7.234375 3.078125 15.484375 
z
" id="ArialMT-115"/>
      <path d="M 42.09375 16.703125 
L 51.171875 15.578125 
Q 49.03125 7.625 43.21875 3.21875 
Q 37.40625 -1.171875 28.375 -1.171875 
Q 17 -1.171875 10.328125 5.828125 
Q 3.65625 12.84375 3.65625 25.484375 
Q 3.65625 38.578125 10.390625 45.796875 
Q 17.140625 53.03125 27.875 53.03125 
Q 38.28125 53.03125 44.875 45.953125 
Q 51.46875 38.875 51.46875 26.03125 
Q 51.46875 25.25 51.421875 23.6875 
L 12.75 23.6875 
Q 13.234375 15.140625 17.578125 10.59375 
Q 21.921875 6.0625 28.421875 6.0625 
Q 33.25 6.0625 36.671875 8.59375 
Q 40.09375 11.140625 42.09375 16.703125 
z
M 13.234375 30.90625 
L 42.1875 30.90625 
Q 41.609375 37.453125 38.875 40.71875 
Q 34.671875 45.796875 27.984375 45.796875 
Q 21.921875 45.796875 17.796875 41.75 
Q 13.671875 37.703125 13.234375 30.90625 
z
" id="ArialMT-101"/>
      <path d="M 6.5 0 
L 6.5 51.859375 
L 14.40625 51.859375 
L 14.40625 44 
Q 17.4375 49.515625 20 51.265625 
Q 22.5625 53.03125 25.640625 53.03125 
Q 30.078125 53.03125 34.671875 50.203125 
L 31.640625 42.046875 
Q 28.421875 43.953125 25.203125 43.953125 
Q 22.3125 43.953125 20.015625 42.21875 
Q 17.71875 40.484375 16.75 37.40625 
Q 15.28125 32.71875 15.28125 27.15625 
L 15.28125 0 
z
" id="ArialMT-114"/>
      <path d="M 21 0 
L 1.265625 51.859375 
L 10.546875 51.859375 
L 21.6875 20.796875 
Q 23.484375 15.765625 25 10.359375 
Q 26.171875 14.453125 28.265625 20.21875 
L 39.796875 51.859375 
L 48.828125 51.859375 
L 29.203125 0 
z
" id="ArialMT-118"/>
      <path d="M 40.234375 0 
L 40.234375 6.546875 
Q 35.296875 -1.171875 25.734375 -1.171875 
Q 19.53125 -1.171875 14.328125 2.25 
Q 9.125 5.671875 6.265625 11.796875 
Q 3.421875 17.921875 3.421875 25.875 
Q 3.421875 33.640625 6 39.96875 
Q 8.59375 46.296875 13.765625 49.65625 
Q 18.953125 53.03125 25.34375 53.03125 
Q 30.03125 53.03125 33.6875 51.046875 
Q 37.359375 49.078125 39.65625 45.90625 
L 39.65625 71.578125 
L 48.390625 71.578125 
L 48.390625 0 
z
M 12.453125 25.875 
Q 12.453125 15.921875 16.640625 10.984375 
Q 20.84375 6.0625 26.5625 6.0625 
Q 32.328125 6.0625 36.34375 10.765625 
Q 40.375 15.484375 40.375 25.140625 
Q 40.375 35.796875 36.265625 40.765625 
Q 32.171875 45.75 26.171875 45.75 
Q 20.3125 45.75 16.375 40.96875 
Q 12.453125 36.1875 12.453125 25.875 
z
" id="ArialMT-100"/>
      <path id="ArialMT-32"/>
      <path d="M 25.921875 0 
L 25.921875 63.140625 
L 2.34375 63.140625 
L 2.34375 71.578125 
L 59.078125 71.578125 
L 59.078125 63.140625 
L 35.40625 63.140625 
L 35.40625 0 
z
" id="ArialMT-84"/>
      <path d="M 54.6875 71.578125 
L 64.15625 71.578125 
L 64.15625 30.21875 
Q 64.15625 19.4375 61.71875 13.078125 
Q 59.28125 6.734375 52.90625 2.75 
Q 46.53125 -1.21875 36.1875 -1.21875 
Q 26.125 -1.21875 19.71875 2.25 
Q 13.328125 5.71875 10.59375 12.28125 
Q 7.859375 18.84375 7.859375 30.21875 
L 7.859375 71.578125 
L 17.328125 71.578125 
L 17.328125 30.28125 
Q 17.328125 20.953125 19.0625 16.53125 
Q 20.796875 12.109375 25.015625 9.71875 
Q 29.25 7.328125 35.359375 7.328125 
Q 45.796875 7.328125 50.234375 12.0625 
Q 54.6875 16.796875 54.6875 30.28125 
z
" id="ArialMT-85"/>
     </defs>
     <g style="fill:#262626;" transform="translate(149.371094 352.911094)scale(0.15 -0.15)">
      <use xlink:href="#ArialMT-79"/>
      <use x="77.783203" xlink:href="#ArialMT-98"/>
      <use x="133.398438" xlink:href="#ArialMT-115"/>
      <use x="183.398438" xlink:href="#ArialMT-101"/>
      <use x="239.013672" xlink:href="#ArialMT-114"/>
      <use x="272.314453" xlink:href="#ArialMT-118"/>
      <use x="322.314453" xlink:href="#ArialMT-101"/>
      <use x="377.929688" xlink:href="#ArialMT-100"/>
      <use x="433.544922" xlink:href="#ArialMT-32"/>
      <use x="461.328125" xlink:href="#ArialMT-79"/>
      <use x="539.111328" xlink:href="#ArialMT-84"/>
      <use x="600.195312" xlink:href="#ArialMT-85"/>
      <use x="672.412109" xlink:href="#ArialMT-115"/>
     </g>
    </g>
   </g>
   <g id="matplotlib.axis_2">
    <g id="ytick_1">
     <g id="text_7">
      <!-- −1 -->
      <defs>
       <path d="M 52.828125 31.203125 
L 5.5625 31.203125 
L 5.5625 39.40625 
L 52.828125 39.40625 
z
" id="ArialMT-8722"/>
      </defs>
      <g style="fill:#262626;" transform="translate(30.797813 314.888901)scale(0.12 -0.12)">
       <use xlink:href="#ArialMT-8722"/>
       <use x="58.398438" xlink:href="#ArialMT-49"/>
      </g>
     </g>
    </g>
    <g id="ytick_2">
     <g id="text_8">
      <!-- 0 -->
      <g style="fill:#262626;" transform="translate(37.806563 279.548337)scale(0.12 -0.12)">
       <use xlink:href="#ArialMT-48"/>
      </g>
     </g>
    </g>
    <g id="ytick_3">
     <g id="text_9">
      <!-- 1 -->
      <g style="fill:#262626;" transform="translate(37.806563 244.207774)scale(0.12 -0.12)">
       <use xlink:href="#ArialMT-49"/>
      </g>
     </g>
    </g>
    <g id="ytick_4">
     <g id="text_10">
      <!-- 2 -->
      <g style="fill:#262626;" transform="translate(37.806563 208.86721)scale(0.12 -0.12)">
       <use xlink:href="#ArialMT-50"/>
      </g>
     </g>
    </g>
    <g id="ytick_5">
     <g id="text_11">
      <!-- 3 -->
      <defs>
       <path d="M 4.203125 18.890625 
L 12.984375 20.0625 
Q 14.5 12.59375 18.140625 9.296875 
Q 21.78125 6 27 6 
Q 33.203125 6 37.46875 10.296875 
Q 41.75 14.59375 41.75 20.953125 
Q 41.75 27 37.796875 30.921875 
Q 33.84375 34.859375 27.734375 34.859375 
Q 25.25 34.859375 21.53125 33.890625 
L 22.515625 41.609375 
Q 23.390625 41.5 23.921875 41.5 
Q 29.546875 41.5 34.03125 44.421875 
Q 38.53125 47.359375 38.53125 53.46875 
Q 38.53125 58.296875 35.25 61.46875 
Q 31.984375 64.65625 26.8125 64.65625 
Q 21.6875 64.65625 18.265625 61.421875 
Q 14.84375 58.203125 13.875 51.765625 
L 5.078125 53.328125 
Q 6.6875 62.15625 12.390625 67.015625 
Q 18.109375 71.875 26.609375 71.875 
Q 32.46875 71.875 37.390625 69.359375 
Q 42.328125 66.84375 44.9375 62.5 
Q 47.5625 58.15625 47.5625 53.265625 
Q 47.5625 48.640625 45.0625 44.828125 
Q 42.578125 41.015625 37.703125 38.765625 
Q 44.046875 37.3125 47.5625 32.6875 
Q 51.078125 28.078125 51.078125 21.140625 
Q 51.078125 11.765625 44.234375 5.25 
Q 37.40625 -1.265625 26.953125 -1.265625 
Q 17.53125 -1.265625 11.296875 4.34375 
Q 5.078125 9.96875 4.203125 18.890625 
z
" id="ArialMT-51"/>
      </defs>
      <g style="fill:#262626;" transform="translate(37.806563 173.526647)scale(0.12 -0.12)">
       <use xlink:href="#ArialMT-51"/>
      </g>
     </g>
    </g>
    <g id="ytick_6">
     <g id="text_12">
      <!-- 4 -->
      <defs>
       <path d="M 32.328125 0 
L 32.328125 17.140625 
L 1.265625 17.140625 
L 1.265625 25.203125 
L 33.9375 71.578125 
L 41.109375 71.578125 
L 41.109375 25.203125 
L 50.78125 25.203125 
L 50.78125 17.140625 
L 41.109375 17.140625 
L 41.109375 0 
z
M 32.328125 25.203125 
L 32.328125 57.46875 
L 9.90625 25.203125 
z
" id="ArialMT-52"/>
      </defs>
      <g style="fill:#262626;" transform="translate(37.806563 138.186083)scale(0.12 -0.12)">
       <use xlink:href="#ArialMT-52"/>
      </g>
     </g>
    </g>
    <g id="ytick_7">
     <g id="text_13">
      <!-- 5 -->
      <g style="fill:#262626;" transform="translate(37.806563 102.845519)scale(0.12 -0.12)">
       <use xlink:href="#ArialMT-53"/>
      </g>
     </g>
    </g>
    <g id="ytick_8">
     <g id="text_14">
      <!-- 6 -->
      <defs>
       <path d="M 49.75 54.046875 
L 41.015625 53.375 
Q 39.84375 58.546875 37.703125 60.890625 
Q 34.125 64.65625 28.90625 64.65625 
Q 24.703125 64.65625 21.53125 62.3125 
Q 17.390625 59.28125 14.984375 53.46875 
Q 12.59375 47.65625 12.5 36.921875 
Q 15.671875 41.75 20.265625 44.09375 
Q 24.859375 46.4375 29.890625 46.4375 
Q 38.671875 46.4375 44.84375 39.96875 
Q 51.03125 33.5 51.03125 23.25 
Q 51.03125 16.5 48.125 10.71875 
Q 45.21875 4.9375 40.140625 1.859375 
Q 35.0625 -1.21875 28.609375 -1.21875 
Q 17.625 -1.21875 10.6875 6.859375 
Q 3.765625 14.9375 3.765625 33.5 
Q 3.765625 54.25 11.421875 63.671875 
Q 18.109375 71.875 29.4375 71.875 
Q 37.890625 71.875 43.28125 67.140625 
Q 48.6875 62.40625 49.75 54.046875 
z
M 13.875 23.1875 
Q 13.875 18.65625 15.796875 14.5 
Q 17.71875 10.359375 21.1875 8.171875 
Q 24.65625 6 28.46875 6 
Q 34.03125 6 38.03125 10.484375 
Q 42.046875 14.984375 42.046875 22.703125 
Q 42.046875 30.125 38.078125 34.390625 
Q 34.125 38.671875 28.125 38.671875 
Q 22.171875 38.671875 18.015625 34.390625 
Q 13.875 30.125 13.875 23.1875 
z
" id="ArialMT-54"/>
      </defs>
      <g style="fill:#262626;" transform="translate(37.806563 67.504956)scale(0.12 -0.12)">
       <use xlink:href="#ArialMT-54"/>
      </g>
     </g>
    </g>
    <g id="ytick_9">
     <g id="text_15">
      <!-- 7 -->
      <defs>
       <path d="M 4.734375 62.203125 
L 4.734375 70.65625 
L 51.078125 70.65625 
L 51.078125 63.8125 
Q 44.234375 56.546875 37.515625 44.484375 
Q 30.8125 32.421875 27.15625 19.671875 
Q 24.515625 10.6875 23.78125 0 
L 14.75 0 
Q 14.890625 8.453125 18.0625 20.40625 
Q 21.234375 32.375 27.171875 43.484375 
Q 33.109375 54.59375 39.796875 62.203125 
z
" id="ArialMT-55"/>
      </defs>
      <g style="fill:#262626;" transform="translate(37.806563 32.164392)scale(0.12 -0.12)">
       <use xlink:href="#ArialMT-55"/>
      </g>
     </g>
    </g>
    <g id="text_16">
     <!-- Caffeine -->
     <defs>
      <path d="M 58.796875 25.09375 
L 68.265625 22.703125 
Q 65.28125 11.03125 57.546875 4.90625 
Q 49.8125 -1.21875 38.625 -1.21875 
Q 27.046875 -1.21875 19.796875 3.484375 
Q 12.546875 8.203125 8.765625 17.140625 
Q 4.984375 26.078125 4.984375 36.328125 
Q 4.984375 47.515625 9.25 55.828125 
Q 13.53125 64.15625 21.40625 68.46875 
Q 29.296875 72.796875 38.765625 72.796875 
Q 49.515625 72.796875 56.828125 67.328125 
Q 64.15625 61.859375 67.046875 51.953125 
L 57.71875 49.75 
Q 55.21875 57.5625 50.484375 61.125 
Q 45.75 64.703125 38.578125 64.703125 
Q 30.328125 64.703125 24.78125 60.734375 
Q 19.234375 56.78125 16.984375 50.109375 
Q 14.75 43.453125 14.75 36.375 
Q 14.75 27.25 17.40625 20.4375 
Q 20.0625 13.625 25.671875 10.25 
Q 31.296875 6.890625 37.84375 6.890625 
Q 45.796875 6.890625 51.3125 11.46875 
Q 56.84375 16.0625 58.796875 25.09375 
z
" id="ArialMT-67"/>
      <path d="M 40.4375 6.390625 
Q 35.546875 2.25 31.03125 0.53125 
Q 26.515625 -1.171875 21.34375 -1.171875 
Q 12.796875 -1.171875 8.203125 3 
Q 3.609375 7.171875 3.609375 13.671875 
Q 3.609375 17.484375 5.34375 20.625 
Q 7.078125 23.78125 9.890625 25.6875 
Q 12.703125 27.59375 16.21875 28.5625 
Q 18.796875 29.25 24.03125 29.890625 
Q 34.671875 31.15625 39.703125 32.90625 
Q 39.75 34.71875 39.75 35.203125 
Q 39.75 40.578125 37.25 42.78125 
Q 33.890625 45.75 27.25 45.75 
Q 21.046875 45.75 18.09375 43.578125 
Q 15.140625 41.40625 13.71875 35.890625 
L 5.125 37.0625 
Q 6.296875 42.578125 8.984375 45.96875 
Q 11.671875 49.359375 16.75 51.1875 
Q 21.828125 53.03125 28.515625 53.03125 
Q 35.15625 53.03125 39.296875 51.46875 
Q 43.453125 49.90625 45.40625 47.53125 
Q 47.359375 45.171875 48.140625 41.546875 
Q 48.578125 39.3125 48.578125 33.453125 
L 48.578125 21.734375 
Q 48.578125 9.46875 49.140625 6.21875 
Q 49.703125 2.984375 51.375 0 
L 42.1875 0 
Q 40.828125 2.734375 40.4375 6.390625 
z
M 39.703125 26.03125 
Q 34.90625 24.078125 25.34375 22.703125 
Q 19.921875 21.921875 17.671875 20.9375 
Q 15.4375 19.96875 14.203125 18.09375 
Q 12.984375 16.21875 12.984375 13.921875 
Q 12.984375 10.40625 15.640625 8.0625 
Q 18.3125 5.71875 23.4375 5.71875 
Q 28.515625 5.71875 32.46875 7.9375 
Q 36.421875 10.15625 38.28125 14.015625 
Q 39.703125 17 39.703125 22.796875 
z
" id="ArialMT-97"/>
      <path d="M 8.6875 0 
L 8.6875 45.015625 
L 0.921875 45.015625 
L 0.921875 51.859375 
L 8.6875 51.859375 
L 8.6875 57.375 
Q 8.6875 62.59375 9.625 65.140625 
Q 10.890625 68.5625 14.078125 70.671875 
Q 17.28125 72.796875 23.046875 72.796875 
Q 26.765625 72.796875 31.25 71.921875 
L 29.9375 64.265625 
Q 27.203125 64.75 24.75 64.75 
Q 20.75 64.75 19.09375 63.03125 
Q 17.4375 61.328125 17.4375 56.640625 
L 17.4375 51.859375 
L 27.546875 51.859375 
L 27.546875 45.015625 
L 17.4375 45.015625 
L 17.4375 0 
z
" id="ArialMT-102"/>
      <path d="M 6.640625 61.46875 
L 6.640625 71.578125 
L 15.4375 71.578125 
L 15.4375 61.46875 
z
M 6.640625 0 
L 6.640625 51.859375 
L 15.4375 51.859375 
L 15.4375 0 
z
" id="ArialMT-105"/>
      <path d="M 6.59375 0 
L 6.59375 51.859375 
L 14.5 51.859375 
L 14.5 44.484375 
Q 20.21875 53.03125 31 53.03125 
Q 35.6875 53.03125 39.625 51.34375 
Q 43.5625 49.65625 45.515625 46.921875 
Q 47.46875 44.1875 48.25 40.4375 
Q 48.734375 37.984375 48.734375 31.890625 
L 48.734375 0 
L 39.9375 0 
L 39.9375 31.546875 
Q 39.9375 36.921875 38.90625 39.578125 
Q 37.890625 42.234375 35.28125 43.8125 
Q 32.671875 45.40625 29.15625 45.40625 
Q 23.53125 45.40625 19.453125 41.84375 
Q 15.375 38.28125 15.375 28.328125 
L 15.375 0 
z
" id="ArialMT-110"/>
     </defs>
     <g style="fill:#262626;" transform="translate(23.816563 195.181641)rotate(-90)scale(0.15 -0.15)">
      <use xlink:href="#ArialMT-67"/>
      <use x="72.216797" xlink:href="#ArialMT-97"/>
      <use x="127.832031" xlink:href="#ArialMT-102"/>
      <use x="155.599609" xlink:href="#ArialMT-102"/>
      <use x="183.382812" xlink:href="#ArialMT-101"/>
      <use x="238.998047" xlink:href="#ArialMT-105"/>
      <use x="261.214844" xlink:href="#ArialMT-110"/>
      <use x="316.830078" xlink:href="#ArialMT-101"/>
     </g>
    </g>
   </g>
   <g id="PathCollection_1">
    <defs>
     <path d="M 0 3 
C 0.795609 3 1.55874 2.683901 2.12132 2.12132 
C 2.683901 1.55874 3 0.795609 3 0 
C 3 -0.795609 2.683901 -1.55874 2.12132 -2.12132 
C 1.55874 -2.683901 0.795609 -3 0 -3 
C -0.795609 -3 -1.55874 -2.683901 -2.12132 -2.12132 
C -2.683901 -1.55874 -3 -0.795609 -3 0 
C -3 0.795609 -2.683901 1.55874 -2.12132 2.12132 
C -1.55874 2.683901 -0.795609 3 0 3 
z
" id="me6a923530f" style="stroke:#f77189;stroke-opacity:0.8;"/>
    </defs>
    <g clip-path="url(#pf943784cd6)">
     <use style="fill:#f77189;fill-opacity:0.8;stroke:#f77189;stroke-opacity:0.8;" x="133.2441" xlink:href="#me6a923530f" y="260.919956"/>
     <use style="fill:#f77189;fill-opacity:0.8;stroke:#f77189;stroke-opacity:0.8;" x="110.007777" xlink:href="#me6a923530f" y="136.716864"/>
     <use style="fill:#f77189;fill-opacity:0.8;stroke:#f77189;stroke-opacity:0.8;" x="99.551431" xlink:href="#me6a923530f" y="198.48456"/>
     <use style="fill:#f77189;fill-opacity:0.8;stroke:#f77189;stroke-opacity:0.8;" x="72.829659" xlink:href="#me6a923530f" y="173.378562"/>
     <use style="fill:#f77189;fill-opacity:0.8;stroke:#f77189;stroke-opacity:0.8;" x="73.991475" xlink:href="#me6a923530f" y="201.269381"/>
     <use style="fill:#f77189;fill-opacity:0.8;stroke:#f77189;stroke-opacity:0.8;" x="106.522328" xlink:href="#me6a923530f" y="239.971266"/>
    </g>
   </g>
   <g id="PathCollection_2">
    <defs>
     <path d="M 0 3 
C 0.795609 3 1.55874 2.683901 2.12132 2.12132 
C 2.683901 1.55874 3 0.795609 3 0 
C 3 -0.795609 2.683901 -1.55874 2.12132 -2.12132 
C 1.55874 -2.683901 0.795609 -3 0 -3 
C -0.795609 -3 -1.55874 -2.683901 -2.12132 -2.12132 
C -2.683901 -1.55874 -3 -0.795609 -3 0 
C -3 0.795609 -2.683901 1.55874 -2.12132 2.12132 
C -1.55874 2.683901 -0.795609 3 0 3 
z
" id="m1d5d7947ed" style="stroke:#ef7d32;stroke-opacity:0.8;"/>
    </defs>
    <g clip-path="url(#pf943784cd6)">
     <use style="fill:#ef7d32;fill-opacity:0.8;stroke:#ef7d32;stroke-opacity:0.8;" x="247.102085" xlink:href="#m1d5d7947ed" y="141.206828"/>
     <use style="fill:#ef7d32;fill-opacity:0.8;stroke:#ef7d32;stroke-opacity:0.8;" x="184.364012" xlink:href="#m1d5d7947ed" y="274.085696"/>
     <use style="fill:#ef7d32;fill-opacity:0.8;stroke:#ef7d32;stroke-opacity:0.8;" x="197.14399" xlink:href="#m1d5d7947ed" y="274.447559"/>
     <use style="fill:#ef7d32;fill-opacity:0.8;stroke:#ef7d32;stroke-opacity:0.8;" x="187.84946" xlink:href="#m1d5d7947ed" y="239.340243"/>
     <use style="fill:#ef7d32;fill-opacity:0.8;stroke:#ef7d32;stroke-opacity:0.8;" x="185.525828" xlink:href="#m1d5d7947ed" y="259.015804"/>
     <use style="fill:#ef7d32;fill-opacity:0.8;stroke:#ef7d32;stroke-opacity:0.8;" x="201.791254" xlink:href="#m1d5d7947ed" y="263.29972"/>
     <use style="fill:#ef7d32;fill-opacity:0.8;stroke:#ef7d32;stroke-opacity:0.8;" x="207.600335" xlink:href="#m1d5d7947ed" y="273.128605"/>
     <use style="fill:#ef7d32;fill-opacity:0.8;stroke:#ef7d32;stroke-opacity:0.8;" x="201.791254" xlink:href="#m1d5d7947ed" y="270.311443"/>
    </g>
   </g>
   <g id="PathCollection_3">
    <defs>
     <path d="M 0 3 
C 0.795609 3 1.55874 2.683901 2.12132 2.12132 
C 2.683901 1.55874 3 0.795609 3 0 
C 3 -0.795609 2.683901 -1.55874 2.12132 -2.12132 
C 1.55874 -2.683901 0.795609 -3 0 -3 
C -0.795609 -3 -1.55874 -2.683901 -2.12132 -2.12132 
C -2.683901 -1.55874 -3 -0.795609 -3 0 
C -3 0.795609 -2.683901 1.55874 -2.12132 2.12132 
C -1.55874 2.683901 -0.795609 3 0 3 
z
" id="md2e123e44d" style="stroke:#c69432;stroke-opacity:0.8;"/>
    </defs>
    <g clip-path="url(#pf943784cd6)">
     <use style="fill:#c69432;fill-opacity:0.8;stroke:#c69432;stroke-opacity:0.8;" x="218.056681" xlink:href="#md2e123e44d" y="259.612194"/>
     <use style="fill:#c69432;fill-opacity:0.8;stroke:#c69432;stroke-opacity:0.8;" x="219.218497" xlink:href="#md2e123e44d" y="138.897983"/>
     <use style="fill:#c69432;fill-opacity:0.8;stroke:#c69432;stroke-opacity:0.8;" x="189.011277" xlink:href="#md2e123e44d" y="185.320061"/>
     <use style="fill:#c69432;fill-opacity:0.8;stroke:#c69432;stroke-opacity:0.8;" x="113.493225" xlink:href="#md2e123e44d" y="79.7341"/>
     <use style="fill:#c69432;fill-opacity:0.8;stroke:#c69432;stroke-opacity:0.8;" x="146.024078" xlink:href="#md2e123e44d" y="116.258461"/>
    </g>
   </g>
   <g id="PathCollection_4">
    <defs>
     <path d="M 0 3 
C 0.795609 3 1.55874 2.683901 2.12132 2.12132 
C 2.683901 1.55874 3 0.795609 3 0 
C 3 -0.795609 2.683901 -1.55874 2.12132 -2.12132 
C 1.55874 -2.683901 0.795609 -3 0 -3 
C -0.795609 -3 -1.55874 -2.683901 -2.12132 -2.12132 
C -2.683901 -1.55874 -3 -0.795609 -3 0 
C -3 0.795609 -2.683901 1.55874 -2.12132 2.12132 
C -1.55874 2.683901 -0.795609 3 0 3 
z
" id="ma53b4e9e66" style="stroke:#a79f31;stroke-opacity:0.8;"/>
    </defs>
    <g clip-path="url(#pf943784cd6)">
     <use style="fill:#a79f31;fill-opacity:0.8;stroke:#a79f31;stroke-opacity:0.8;" x="228.513026" xlink:href="#ma53b4e9e66" y="274.996083"/>
     <use style="fill:#a79f31;fill-opacity:0.8;stroke:#a79f31;stroke-opacity:0.8;" x="244.778453" xlink:href="#ma53b4e9e66" y="274.823545"/>
     <use style="fill:#a79f31;fill-opacity:0.8;stroke:#a79f31;stroke-opacity:0.8;" x="92.580534" xlink:href="#ma53b4e9e66" y="97.938326"/>
     <use style="fill:#a79f31;fill-opacity:0.8;stroke:#a79f31;stroke-opacity:0.8;" x="133.2441" xlink:href="#ma53b4e9e66" y="235.233139"/>
     <use style="fill:#a79f31;fill-opacity:0.8;stroke:#a79f31;stroke-opacity:0.8;" x="168.098585" xlink:href="#ma53b4e9e66" y="273.125708"/>
     <use style="fill:#a79f31;fill-opacity:0.8;stroke:#a79f31;stroke-opacity:0.8;" x="179.716747" xlink:href="#ma53b4e9e66" y="274.47544"/>
     <use style="fill:#a79f31;fill-opacity:0.8;stroke:#a79f31;stroke-opacity:0.8;" x="129.758652" xlink:href="#ma53b4e9e66" y="272.999714"/>
    </g>
   </g>
   <g id="PathCollection_5">
    <defs>
     <path d="M 0 3 
C 0.795609 3 1.55874 2.683901 2.12132 2.12132 
C 2.683901 1.55874 3 0.795609 3 0 
C 3 -0.795609 2.683901 -1.55874 2.12132 -2.12132 
C 1.55874 -2.683901 0.795609 -3 0 -3 
C -0.795609 -3 -1.55874 -2.683901 -2.12132 -2.12132 
C -2.683901 -1.55874 -3 -0.795609 -3 0 
C -3 0.795609 -2.683901 1.55874 -2.12132 2.12132 
C -1.55874 2.683901 -0.795609 3 0 3 
z
" id="m7a36558053" style="stroke:#82a931;stroke-opacity:0.8;"/>
    </defs>
    <g clip-path="url(#pf943784cd6)">
     <use style="fill:#82a931;fill-opacity:0.8;stroke:#82a931;stroke-opacity:0.8;" x="185.525828" xlink:href="#m7a36558053" y="269.862258"/>
     <use style="fill:#82a931;fill-opacity:0.8;stroke:#82a931;stroke-opacity:0.8;" x="219.218497" xlink:href="#m7a36558053" y="241.218452"/>
     <use style="fill:#82a931;fill-opacity:0.8;stroke:#82a931;stroke-opacity:0.8;" x="222.703946" xlink:href="#m7a36558053" y="273.495247"/>
     <use style="fill:#82a931;fill-opacity:0.8;stroke:#82a931;stroke-opacity:0.8;" x="146.024078" xlink:href="#m7a36558053" y="273.484308"/>
     <use style="fill:#82a931;fill-opacity:0.8;stroke:#82a931;stroke-opacity:0.8;" x="146.024078" xlink:href="#m7a36558053" y="273.063902"/>
     <use style="fill:#82a931;fill-opacity:0.8;stroke:#82a931;stroke-opacity:0.8;" x="200.629438" xlink:href="#m7a36558053" y="265.272175"/>
     <use style="fill:#82a931;fill-opacity:0.8;stroke:#82a931;stroke-opacity:0.8;" x="148.34771" xlink:href="#m7a36558053" y="265.701519"/>
    </g>
   </g>
   <g id="PathCollection_6">
    <defs>
     <path d="M 0 3 
C 0.795609 3 1.55874 2.683901 2.12132 2.12132 
C 2.683901 1.55874 3 0.795609 3 0 
C 3 -0.795609 2.683901 -1.55874 2.12132 -2.12132 
C 1.55874 -2.683901 0.795609 -3 0 -3 
C -0.795609 -3 -1.55874 -2.683901 -2.12132 -2.12132 
C -2.683901 -1.55874 -3 -0.795609 -3 0 
C -3 0.795609 -2.683901 1.55874 -2.12132 2.12132 
C -1.55874 2.683901 -0.795609 3 0 3 
z
" id="m505be7c13b" style="stroke:#32b24e;stroke-opacity:0.8;"/>
    </defs>
    <g clip-path="url(#pf943784cd6)">
     <use style="fill:#32b24e;fill-opacity:0.8;stroke:#32b24e;stroke-opacity:0.8;" x="176.231299" xlink:href="#m505be7c13b" y="121.291096"/>
     <use style="fill:#32b24e;fill-opacity:0.8;stroke:#32b24e;stroke-opacity:0.8;" x="120.464122" xlink:href="#m505be7c13b" y="225.668568"/>
     <use style="fill:#32b24e;fill-opacity:0.8;stroke:#32b24e;stroke-opacity:0.8;" x="120.464122" xlink:href="#m505be7c13b" y="201.990787"/>
     <use style="fill:#32b24e;fill-opacity:0.8;stroke:#32b24e;stroke-opacity:0.8;" x="105.360512" xlink:href="#m505be7c13b" y="145.66159"/>
     <use style="fill:#32b24e;fill-opacity:0.8;stroke:#32b24e;stroke-opacity:0.8;" x="107.684144" xlink:href="#m505be7c13b" y="212.77693"/>
     <use style="fill:#32b24e;fill-opacity:0.8;stroke:#32b24e;stroke-opacity:0.8;" x="125.111387" xlink:href="#m505be7c13b" y="199.991027"/>
     <use style="fill:#32b24e;fill-opacity:0.8;stroke:#32b24e;stroke-opacity:0.8;" x="141.376813" xlink:href="#m505be7c13b" y="192.5699"/>
    </g>
   </g>
   <g id="PathCollection_7">
    <defs>
     <path d="M 0 3 
C 0.795609 3 1.55874 2.683901 2.12132 2.12132 
C 2.683901 1.55874 3 0.795609 3 0 
C 3 -0.795609 2.683901 -1.55874 2.12132 -2.12132 
C 1.55874 -2.683901 0.795609 -3 0 -3 
C -0.795609 -3 -1.55874 -2.683901 -2.12132 -2.12132 
C -2.683901 -1.55874 -3 -0.795609 -3 0 
C -3 0.795609 -2.683901 1.55874 -2.12132 2.12132 
C -1.55874 2.683901 -0.795609 3 0 3 
z
" id="mcbc0bb21b8" style="stroke:#34af8a;stroke-opacity:0.8;"/>
    </defs>
    <g clip-path="url(#pf943784cd6)">
     <use style="fill:#34af8a;fill-opacity:0.8;stroke:#34af8a;stroke-opacity:0.8;" x="183.202196" xlink:href="#mcbc0bb21b8" y="249.30019"/>
     <use style="fill:#34af8a;fill-opacity:0.8;stroke:#34af8a;stroke-opacity:0.8;" x="120.464122" xlink:href="#mcbc0bb21b8" y="213.510531"/>
     <use style="fill:#34af8a;fill-opacity:0.8;stroke:#34af8a;stroke-opacity:0.8;" x="97.227799" xlink:href="#mcbc0bb21b8" y="136.399085"/>
     <use style="fill:#34af8a;fill-opacity:0.8;stroke:#34af8a;stroke-opacity:0.8;" x="139.053181" xlink:href="#mcbc0bb21b8" y="182.097293"/>
     <use style="fill:#34af8a;fill-opacity:0.8;stroke:#34af8a;stroke-opacity:0.8;" x="94.904166" xlink:href="#mcbc0bb21b8" y="101.774351"/>
     <use style="fill:#34af8a;fill-opacity:0.8;stroke:#34af8a;stroke-opacity:0.8;" x="75.153292" xlink:href="#mcbc0bb21b8" y="34.521665"/>
     <use style="fill:#34af8a;fill-opacity:0.8;stroke:#34af8a;stroke-opacity:0.8;" x="68.182394" xlink:href="#mcbc0bb21b8" y="148.541567"/>
     <use style="fill:#34af8a;fill-opacity:0.8;stroke:#34af8a;stroke-opacity:0.8;" x="89.095086" xlink:href="#mcbc0bb21b8" y="145.965488"/>
    </g>
   </g>
   <g id="PathCollection_8">
    <defs>
     <path d="M 0 3 
C 0.795609 3 1.55874 2.683901 2.12132 2.12132 
C 2.683901 1.55874 3 0.795609 3 0 
C 3 -0.795609 2.683901 -1.55874 2.12132 -2.12132 
C 1.55874 -2.683901 0.795609 -3 0 -3 
C -0.795609 -3 -1.55874 -2.683901 -2.12132 -2.12132 
C -2.683901 -1.55874 -3 -0.795609 -3 0 
C -3 0.795609 -2.683901 1.55874 -2.12132 2.12132 
C -1.55874 2.683901 -0.795609 3 0 3 
z
" id="m996e5618c0" style="stroke:#36ada4;stroke-opacity:0.8;"/>
    </defs>
    <g clip-path="url(#pf943784cd6)">
     <use style="fill:#36ada4;fill-opacity:0.8;stroke:#36ada4;stroke-opacity:0.8;" x="190.173093" xlink:href="#m996e5618c0" y="273.032399"/>
     <use style="fill:#36ada4;fill-opacity:0.8;stroke:#36ada4;stroke-opacity:0.8;" x="119.302306" xlink:href="#m996e5618c0" y="230.351898"/>
     <use style="fill:#36ada4;fill-opacity:0.8;stroke:#36ada4;stroke-opacity:0.8;" x="135.567733" xlink:href="#m996e5618c0" y="188.690272"/>
     <use style="fill:#36ada4;fill-opacity:0.8;stroke:#36ada4;stroke-opacity:0.8;" x="142.53863" xlink:href="#m996e5618c0" y="238.929802"/>
     <use style="fill:#36ada4;fill-opacity:0.8;stroke:#36ada4;stroke-opacity:0.8;" x="173.907666" xlink:href="#m996e5618c0" y="66.148266"/>
    </g>
   </g>
   <g id="PathCollection_9">
    <defs>
     <path d="M 0 3 
C 0.795609 3 1.55874 2.683901 2.12132 2.12132 
C 2.683901 1.55874 3 0.795609 3 0 
C 3 -0.795609 2.683901 -1.55874 2.12132 -2.12132 
C 1.55874 -2.683901 0.795609 -3 0 -3 
C -0.795609 -3 -1.55874 -2.683901 -2.12132 -2.12132 
C -2.683901 -1.55874 -3 -0.795609 -3 0 
C -3 0.795609 -2.683901 1.55874 -2.12132 2.12132 
C -1.55874 2.683901 -0.795609 3 0 3 
z
" id="me20c9cc1e5" style="stroke:#37aabb;stroke-opacity:0.8;"/>
    </defs>
    <g clip-path="url(#pf943784cd6)">
     <use style="fill:#37aabb;fill-opacity:0.8;stroke:#37aabb;stroke-opacity:0.8;" x="185.525828" xlink:href="#me20c9cc1e5" y="177.701486"/>
     <use style="fill:#37aabb;fill-opacity:0.8;stroke:#37aabb;stroke-opacity:0.8;" x="120.464122" xlink:href="#me20c9cc1e5" y="31.041301"/>
     <use style="fill:#37aabb;fill-opacity:0.8;stroke:#37aabb;stroke-opacity:0.8;" x="113.493225" xlink:href="#me20c9cc1e5" y="222.333573"/>
     <use style="fill:#37aabb;fill-opacity:0.8;stroke:#37aabb;stroke-opacity:0.8;" x="146.024078" xlink:href="#me20c9cc1e5" y="161.726485"/>
     <use style="fill:#37aabb;fill-opacity:0.8;stroke:#37aabb;stroke-opacity:0.8;" x="120.464122" xlink:href="#me20c9cc1e5" y="129.277526"/>
     <use style="fill:#37aabb;fill-opacity:0.8;stroke:#37aabb;stroke-opacity:0.8;" x="122.787755" xlink:href="#me20c9cc1e5" y="204.615075"/>
    </g>
   </g>
   <g id="PathCollection_10">
    <defs>
     <path d="M 0 3 
C 0.795609 3 1.55874 2.683901 2.12132 2.12132 
C 2.683901 1.55874 3 0.795609 3 0 
C 3 -0.795609 2.683901 -1.55874 2.12132 -2.12132 
C 1.55874 -2.683901 0.795609 -3 0 -3 
C -0.795609 -3 -1.55874 -2.683901 -2.12132 -2.12132 
C -2.683901 -1.55874 -3 -0.795609 -3 0 
C -3 0.795609 -2.683901 1.55874 -2.12132 2.12132 
C -1.55874 2.683901 -0.795609 3 0 3 
z
" id="m0eea9e46d1" style="stroke:#3aa6da;stroke-opacity:0.8;"/>
    </defs>
    <g clip-path="url(#pf943784cd6)">
     <use style="fill:#3aa6da;fill-opacity:0.8;stroke:#3aa6da;stroke-opacity:0.8;" x="182.040379" xlink:href="#m0eea9e46d1" y="265.5668"/>
     <use style="fill:#3aa6da;fill-opacity:0.8;stroke:#3aa6da;stroke-opacity:0.8;" x="111.169593" xlink:href="#m0eea9e46d1" y="195.500447"/>
     <use style="fill:#3aa6da;fill-opacity:0.8;stroke:#3aa6da;stroke-opacity:0.8;" x="148.34771" xlink:href="#m0eea9e46d1" y="271.141738"/>
     <use style="fill:#3aa6da;fill-opacity:0.8;stroke:#3aa6da;stroke-opacity:0.8;" x="80.962372" xlink:href="#m0eea9e46d1" y="235.595117"/>
    </g>
   </g>
   <g id="PathCollection_11">
    <defs>
     <path d="M 0 3 
C 0.795609 3 1.55874 2.683901 2.12132 2.12132 
C 2.683901 1.55874 3 0.795609 3 0 
C 3 -0.795609 2.683901 -1.55874 2.12132 -2.12132 
C 1.55874 -2.683901 0.795609 -3 0 -3 
C -0.795609 -3 -1.55874 -2.683901 -2.12132 -2.12132 
C -2.683901 -1.55874 -3 -0.795609 -3 0 
C -3 0.795609 -2.683901 1.55874 -2.12132 2.12132 
C -1.55874 2.683901 -0.795609 3 0 3 
z
" id="mf02e2c131d" style="stroke:#8197f4;stroke-opacity:0.8;"/>
    </defs>
    <g clip-path="url(#pf943784cd6)">
     <use style="fill:#8197f4;fill-opacity:0.8;stroke:#8197f4;stroke-opacity:0.8;" x="183.202196" xlink:href="#mf02e2c131d" y="272.516878"/>
     <use style="fill:#8197f4;fill-opacity:0.8;stroke:#8197f4;stroke-opacity:0.8;" x="162.289505" xlink:href="#mf02e2c131d" y="256.36145"/>
     <use style="fill:#8197f4;fill-opacity:0.8;stroke:#8197f4;stroke-opacity:0.8;" x="90.256902" xlink:href="#mf02e2c131d" y="135.577115"/>
     <use style="fill:#8197f4;fill-opacity:0.8;stroke:#8197f4;stroke-opacity:0.8;" x="92.580534" xlink:href="#mf02e2c131d" y="225.669776"/>
     <use style="fill:#8197f4;fill-opacity:0.8;stroke:#8197f4;stroke-opacity:0.8;" x="114.655041" xlink:href="#mf02e2c131d" y="237.537964"/>
     <use style="fill:#8197f4;fill-opacity:0.8;stroke:#8197f4;stroke-opacity:0.8;" x="91.418718" xlink:href="#mf02e2c131d" y="194.541921"/>
     <use style="fill:#8197f4;fill-opacity:0.8;stroke:#8197f4;stroke-opacity:0.8;" x="90.256902" xlink:href="#mf02e2c131d" y="135.953396"/>
    </g>
   </g>
   <g id="PathCollection_12">
    <defs>
     <path d="M 0 3 
C 0.795609 3 1.55874 2.683901 2.12132 2.12132 
C 2.683901 1.55874 3 0.795609 3 0 
C 3 -0.795609 2.683901 -1.55874 2.12132 -2.12132 
C 1.55874 -2.683901 0.795609 -3 0 -3 
C -0.795609 -3 -1.55874 -2.683901 -2.12132 -2.12132 
C -2.683901 -1.55874 -3 -0.795609 -3 0 
C -3 0.795609 -2.683901 1.55874 -2.12132 2.12132 
C -1.55874 2.683901 -0.795609 3 0 3 
z
" id="mb8f3433546" style="stroke:#c180f4;stroke-opacity:0.8;"/>
    </defs>
    <g clip-path="url(#pf943784cd6)">
     <use style="fill:#c180f4;fill-opacity:0.8;stroke:#c180f4;stroke-opacity:0.8;" x="209.923968" xlink:href="#mb8f3433546" y="255.707931"/>
     <use style="fill:#c180f4;fill-opacity:0.8;stroke:#c180f4;stroke-opacity:0.8;" x="186.687644" xlink:href="#mb8f3433546" y="228.18423"/>
     <use style="fill:#c180f4;fill-opacity:0.8;stroke:#c180f4;stroke-opacity:0.8;" x="149.509527" xlink:href="#mb8f3433546" y="157.134603"/>
     <use style="fill:#c180f4;fill-opacity:0.8;stroke:#c180f4;stroke-opacity:0.8;" x="176.231299" xlink:href="#mb8f3433546" y="269.915253"/>
     <use style="fill:#c180f4;fill-opacity:0.8;stroke:#c180f4;stroke-opacity:0.8;" x="164.613137" xlink:href="#mb8f3433546" y="269.058167"/>
     <use style="fill:#c180f4;fill-opacity:0.8;stroke:#c180f4;stroke-opacity:0.8;" x="211.085784" xlink:href="#mb8f3433546" y="270.384507"/>
    </g>
   </g>
   <g id="PathCollection_13">
    <defs>
     <path d="M 0 3 
C 0.795609 3 1.55874 2.683901 2.12132 2.12132 
C 2.683901 1.55874 3 0.795609 3 0 
C 3 -0.795609 2.683901 -1.55874 2.12132 -2.12132 
C 1.55874 -2.683901 0.795609 -3 0 -3 
C -0.795609 -3 -1.55874 -2.683901 -2.12132 -2.12132 
C -2.683901 -1.55874 -3 -0.795609 -3 0 
C -3 0.795609 -2.683901 1.55874 -2.12132 2.12132 
C -1.55874 2.683901 -0.795609 3 0 3 
z
" id="m9c9eb63193" style="stroke:#f45deb;stroke-opacity:0.8;"/>
    </defs>
    <g clip-path="url(#pf943784cd6)">
     <use style="fill:#f45deb;fill-opacity:0.8;stroke:#f45deb;stroke-opacity:0.8;" x="242.454821" xlink:href="#m9c9eb63193" y="274.930176"/>
     <use style="fill:#f45deb;fill-opacity:0.8;stroke:#f45deb;stroke-opacity:0.8;" x="270.338409" xlink:href="#m9c9eb63193" y="274.574514"/>
     <use style="fill:#f45deb;fill-opacity:0.8;stroke:#f45deb;stroke-opacity:0.8;" x="245.940269" xlink:href="#m9c9eb63193" y="275.092837"/>
     <use style="fill:#f45deb;fill-opacity:0.8;stroke:#f45deb;stroke-opacity:0.8;" x="215.733049" xlink:href="#m9c9eb63193" y="274.692636"/>
     <use style="fill:#f45deb;fill-opacity:0.8;stroke:#f45deb;stroke-opacity:0.8;" x="206.438519" xlink:href="#m9c9eb63193" y="274.384378"/>
     <use style="fill:#f45deb;fill-opacity:0.8;stroke:#f45deb;stroke-opacity:0.8;" x="208.762151" xlink:href="#m9c9eb63193" y="274.796901"/>
     <use style="fill:#f45deb;fill-opacity:0.8;stroke:#f45deb;stroke-opacity:0.8;" x="192.496725" xlink:href="#m9c9eb63193" y="274.46914"/>
    </g>
   </g>
   <g id="PathCollection_14">
    <defs>
     <path d="M 0 3 
C 0.795609 3 1.55874 2.683901 2.12132 2.12132 
C 2.683901 1.55874 3 0.795609 3 0 
C 3 -0.795609 2.683901 -1.55874 2.12132 -2.12132 
C 1.55874 -2.683901 0.795609 -3 0 -3 
C -0.795609 -3 -1.55874 -2.683901 -2.12132 -2.12132 
C -2.683901 -1.55874 -3 -0.795609 -3 0 
C -3 0.795609 -2.683901 1.55874 -2.12132 2.12132 
C -1.55874 2.683901 -0.795609 3 0 3 
z
" id="mcf413e7e6e" style="stroke:#f669ba;stroke-opacity:0.8;"/>
    </defs>
    <g clip-path="url(#pf943784cd6)">
     <use style="fill:#f669ba;fill-opacity:0.8;stroke:#f669ba;stroke-opacity:0.8;" x="338.885563" xlink:href="#mcf413e7e6e" y="273.617033"/>
     <use style="fill:#f669ba;fill-opacity:0.8;stroke:#f669ba;stroke-opacity:0.8;" x="301.707445" xlink:href="#mcf413e7e6e" y="271.425742"/>
     <use style="fill:#f669ba;fill-opacity:0.8;stroke:#f669ba;stroke-opacity:0.8;" x="321.45832" xlink:href="#mcf413e7e6e" y="270.56799"/>
     <use style="fill:#f669ba;fill-opacity:0.8;stroke:#f669ba;stroke-opacity:0.8;" x="286.603835" xlink:href="#mcf413e7e6e" y="273.575676"/>
     <use style="fill:#f669ba;fill-opacity:0.8;stroke:#f669ba;stroke-opacity:0.8;" x="278.471122" xlink:href="#mcf413e7e6e" y="274.005937"/>
     <use style="fill:#f669ba;fill-opacity:0.8;stroke:#f669ba;stroke-opacity:0.8;" x="293.574732" xlink:href="#mcf413e7e6e" y="275.005283"/>
     <use style="fill:#f669ba;fill-opacity:0.8;stroke:#f669ba;stroke-opacity:0.8;" x="269.176593" xlink:href="#mcf413e7e6e" y="273.388054"/>
    </g>
   </g>
   <g id="line2d_1">
    <path clip-path="url(#pf943784cd6)" d="M 72.829659 178.351051 
L 73.439906 178.890237 
L 74.050153 179.429423 
L 74.6604 179.968609 
L 75.270647 180.507795 
L 75.880894 181.046982 
L 76.49114 181.586168 
L 77.101387 182.125354 
L 77.711634 182.66454 
L 78.321881 183.203727 
L 78.932128 183.742913 
L 79.542375 184.282099 
L 80.152622 184.821285 
L 80.762869 185.360472 
L 81.373115 185.899658 
L 81.983362 186.438844 
L 82.593609 186.97803 
L 83.203856 187.517216 
L 83.814103 188.056403 
L 84.42435 188.595589 
L 85.034597 189.134775 
L 85.644844 189.673961 
L 86.255091 190.213148 
L 86.865337 190.752334 
L 87.475584 191.29152 
L 88.085831 191.830706 
L 88.696078 192.369893 
L 89.306325 192.909079 
L 89.916572 193.448265 
L 90.526819 193.987451 
L 91.137066 194.526638 
L 91.747312 195.065824 
L 92.357559 195.60501 
L 92.967806 196.144196 
L 93.578053 196.683382 
L 94.1883 197.222569 
L 94.798547 197.761755 
L 95.408794 198.300941 
L 96.019041 198.840127 
L 96.629287 199.379314 
L 97.239534 199.9185 
L 97.849781 200.457686 
L 98.460028 200.996872 
L 99.070275 201.536059 
L 99.680522 202.075245 
L 100.290769 202.614431 
L 100.901016 203.153617 
L 101.511262 203.692803 
L 102.121509 204.23199 
L 102.731756 204.771176 
L 103.342003 205.310362 
L 103.95225 205.849548 
L 104.562497 206.388735 
L 105.172744 206.927921 
L 105.782991 207.467107 
L 106.393238 208.006293 
L 107.003484 208.54548 
L 107.613731 209.084666 
L 108.223978 209.623852 
L 108.834225 210.163038 
L 109.444472 210.702224 
L 110.054719 211.241411 
L 110.664966 211.780597 
L 111.275213 212.319783 
L 111.885459 212.858969 
L 112.495706 213.398156 
L 113.105953 213.937342 
L 113.7162 214.476528 
L 114.326447 215.015714 
L 114.936694 215.554901 
L 115.546941 216.094087 
L 116.157188 216.633273 
L 116.767434 217.172459 
L 117.377681 217.711645 
L 117.987928 218.250832 
L 118.598175 218.790018 
L 119.208422 219.329204 
L 119.818669 219.86839 
L 120.428916 220.407577 
L 121.039163 220.946763 
L 121.64941 221.485949 
L 122.259656 222.025135 
L 122.869903 222.564322 
L 123.48015 223.103508 
L 124.090397 223.642694 
L 124.700644 224.18188 
L 125.310891 224.721066 
L 125.921138 225.260253 
L 126.531385 225.799439 
L 127.141631 226.338625 
L 127.751878 226.877811 
L 128.362125 227.416998 
L 128.972372 227.956184 
L 129.582619 228.49537 
L 130.192866 229.034556 
L 130.803113 229.573743 
L 131.41336 230.112929 
L 132.023606 230.652115 
L 132.633853 231.191301 
L 133.2441 231.730487 
" style="fill:none;stroke:#f77189;stroke-linecap:round;stroke-width:2.25;"/>
   </g>
   <g id="line2d_2">
    <path clip-path="url(#pf943784cd6)" d="M 184.364012 281.423403 
L 184.99773 280.247462 
L 185.631448 279.07152 
L 186.265166 277.895578 
L 186.898883 276.719636 
L 187.532601 275.543694 
L 188.166319 274.367752 
L 188.800037 273.19181 
L 189.433755 272.015868 
L 190.067473 270.839926 
L 190.701191 269.663984 
L 191.334909 268.488042 
L 191.968627 267.3121 
L 192.602345 266.136158 
L 193.236063 264.960217 
L 193.869781 263.784275 
L 194.503498 262.608333 
L 195.137216 261.432391 
L 195.770934 260.256449 
L 196.404652 259.080507 
L 197.03837 257.904565 
L 197.672088 256.728623 
L 198.305806 255.552681 
L 198.939524 254.376739 
L 199.573242 253.200797 
L 200.20696 252.024855 
L 200.840678 250.848913 
L 201.474395 249.672971 
L 202.108113 248.49703 
L 202.741831 247.321088 
L 203.375549 246.145146 
L 204.009267 244.969204 
L 204.642985 243.793262 
L 205.276703 242.61732 
L 205.910421 241.441378 
L 206.544139 240.265436 
L 207.177857 239.089494 
L 207.811575 237.913552 
L 208.445293 236.73761 
L 209.07901 235.561668 
L 209.712728 234.385726 
L 210.346446 233.209785 
L 210.980164 232.033843 
L 211.613882 230.857901 
L 212.2476 229.681959 
L 212.881318 228.506017 
L 213.515036 227.330075 
L 214.148754 226.154133 
L 214.782472 224.978191 
L 215.41619 223.802249 
L 216.049907 222.626307 
L 216.683625 221.450365 
L 217.317343 220.274423 
L 217.951061 219.098481 
L 218.584779 217.922539 
L 219.218497 216.746598 
L 219.852215 215.570656 
L 220.485933 214.394714 
L 221.119651 213.218772 
L 221.753369 212.04283 
L 222.387087 210.866888 
L 223.020805 209.690946 
L 223.654522 208.515004 
L 224.28824 207.339062 
L 224.921958 206.16312 
L 225.555676 204.987178 
L 226.189394 203.811236 
L 226.823112 202.635294 
L 227.45683 201.459353 
L 228.090548 200.283411 
L 228.724266 199.107469 
L 229.357984 197.931527 
L 229.991702 196.755585 
L 230.625419 195.579643 
L 231.259137 194.403701 
L 231.892855 193.227759 
L 232.526573 192.051817 
L 233.160291 190.875875 
L 233.794009 189.699933 
L 234.427727 188.523991 
L 235.061445 187.348049 
L 235.695163 186.172107 
L 236.328881 184.996166 
L 236.962599 183.820224 
L 237.596317 182.644282 
L 238.230034 181.46834 
L 238.863752 180.292398 
L 239.49747 179.116456 
L 240.131188 177.940514 
L 240.764906 176.764572 
L 241.398624 175.58863 
L 242.032342 174.412688 
L 242.66606 173.236746 
L 243.299778 172.060804 
L 243.933496 170.884862 
L 244.567214 169.708921 
L 245.200931 168.532979 
L 245.834649 167.357037 
L 246.468367 166.181095 
L 247.102085 165.005153 
" style="fill:none;stroke:#ef7d32;stroke-linecap:round;stroke-width:2.25;"/>
   </g>
   <g id="line2d_3">
    <path clip-path="url(#pf943784cd6)" d="M 113.493225 82.2804 
L 114.561157 83.516347 
L 115.629089 84.752294 
L 116.697021 85.98824 
L 117.764953 87.224187 
L 118.832885 88.460134 
L 119.900817 89.696081 
L 120.96875 90.932028 
L 122.036682 92.167974 
L 123.104614 93.403921 
L 124.172546 94.639868 
L 125.240478 95.875815 
L 126.30841 97.111762 
L 127.376342 98.347708 
L 128.444274 99.583655 
L 129.512206 100.819602 
L 130.580138 102.055549 
L 131.64807 103.291496 
L 132.716002 104.527442 
L 133.783934 105.763389 
L 134.851866 106.999336 
L 135.919798 108.235283 
L 136.98773 109.47123 
L 138.055662 110.707176 
L 139.123594 111.943123 
L 140.191526 113.17907 
L 141.259458 114.415017 
L 142.32739 115.650963 
L 143.395322 116.88691 
L 144.463254 118.122857 
L 145.531186 119.358804 
L 146.599118 120.594751 
L 147.66705 121.830697 
L 148.734983 123.066644 
L 149.802915 124.302591 
L 150.870847 125.538538 
L 151.938779 126.774485 
L 153.006711 128.010431 
L 154.074643 129.246378 
L 155.142575 130.482325 
L 156.210507 131.718272 
L 157.278439 132.954219 
L 158.346371 134.190165 
L 159.414303 135.426112 
L 160.482235 136.662059 
L 161.550167 137.898006 
L 162.618099 139.133953 
L 163.686031 140.369899 
L 164.753963 141.605846 
L 165.821895 142.841793 
L 166.889827 144.07774 
L 167.957759 145.313687 
L 169.025691 146.549633 
L 170.093623 147.78558 
L 171.161555 149.021527 
L 172.229487 150.257474 
L 173.297419 151.49342 
L 174.365351 152.729367 
L 175.433283 153.965314 
L 176.501216 155.201261 
L 177.569148 156.437208 
L 178.63708 157.673154 
L 179.705012 158.909101 
L 180.772944 160.145048 
L 181.840876 161.380995 
L 182.908808 162.616942 
L 183.97674 163.852888 
L 185.044672 165.088835 
L 186.112604 166.324782 
L 187.180536 167.560729 
L 188.248468 168.796676 
L 189.3164 170.032622 
L 190.384332 171.268569 
L 191.452264 172.504516 
L 192.520196 173.740463 
L 193.588128 174.97641 
L 194.65606 176.212356 
L 195.723992 177.448303 
L 196.791924 178.68425 
L 197.859856 179.920197 
L 198.927788 181.156144 
L 199.99572 182.39209 
L 201.063652 183.628037 
L 202.131584 184.863984 
L 203.199516 186.099931 
L 204.267449 187.335877 
L 205.335381 188.571824 
L 206.403313 189.807771 
L 207.471245 191.043718 
L 208.539177 192.279665 
L 209.607109 193.515611 
L 210.675041 194.751558 
L 211.742973 195.987505 
L 212.810905 197.223452 
L 213.878837 198.459399 
L 214.946769 199.695345 
L 216.014701 200.931292 
L 217.082633 202.167239 
L 218.150565 203.403186 
L 219.218497 204.639133 
" style="fill:none;stroke:#c69432;stroke-linecap:round;stroke-width:2.25;"/>
   </g>
   <g id="line2d_4">
    <path clip-path="url(#pf943784cd6)" d="M 92.580534 181.398516 
L 94.117887 182.660101 
L 95.65524 183.921686 
L 97.192592 185.183272 
L 98.729945 186.444857 
L 100.267298 187.706442 
L 101.80465 188.968027 
L 103.342003 190.229612 
L 104.879356 191.491198 
L 106.416709 192.752783 
L 107.954061 194.014368 
L 109.491414 195.275953 
L 111.028767 196.537539 
L 112.566119 197.799124 
L 114.103472 199.060709 
L 115.640825 200.322294 
L 117.178178 201.58388 
L 118.71553 202.845465 
L 120.252883 204.10705 
L 121.790236 205.368635 
L 123.327588 206.630221 
L 124.864941 207.891806 
L 126.402294 209.153391 
L 127.939647 210.414976 
L 129.476999 211.676562 
L 131.014352 212.938147 
L 132.551705 214.199732 
L 134.089057 215.461317 
L 135.62641 216.722903 
L 137.163763 217.984488 
L 138.701116 219.246073 
L 140.238468 220.507658 
L 141.775821 221.769243 
L 143.313174 223.030829 
L 144.850526 224.292414 
L 146.387879 225.553999 
L 147.925232 226.815584 
L 149.462585 228.07717 
L 150.999937 229.338755 
L 152.53729 230.60034 
L 154.074643 231.861925 
L 155.611995 233.123511 
L 157.149348 234.385096 
L 158.686701 235.646681 
L 160.224054 236.908266 
L 161.761406 238.169852 
L 163.298759 239.431437 
L 164.836112 240.693022 
L 166.373464 241.954607 
L 167.910817 243.216193 
L 169.44817 244.477778 
L 170.985523 245.739363 
L 172.522875 247.000948 
L 174.060228 248.262534 
L 175.597581 249.524119 
L 177.134933 250.785704 
L 178.672286 252.047289 
L 180.209639 253.308874 
L 181.746992 254.57046 
L 183.284344 255.832045 
L 184.821697 257.09363 
L 186.35905 258.355215 
L 187.896402 259.616801 
L 189.433755 260.878386 
L 190.971108 262.139971 
L 192.508461 263.401556 
L 194.045813 264.663142 
L 195.583166 265.924727 
L 197.120519 267.186312 
L 198.657871 268.447897 
L 200.195224 269.709483 
L 201.732577 270.971068 
L 203.26993 272.232653 
L 204.807282 273.494238 
L 206.344635 274.755824 
L 207.881988 276.017409 
L 209.41934 277.278994 
L 210.956693 278.540579 
L 212.494046 279.802165 
L 214.031399 281.06375 
L 215.568751 282.325335 
L 217.106104 283.58692 
L 218.643457 284.848505 
L 220.180809 286.110091 
L 221.718162 287.371676 
L 223.255515 288.633261 
L 224.792868 289.894846 
L 226.33022 291.156432 
L 227.867573 292.418017 
L 229.404926 293.679602 
L 230.942278 294.941187 
L 232.479631 296.202773 
L 234.016984 297.464358 
L 235.554337 298.725943 
L 237.091689 299.987528 
L 238.629042 301.249114 
L 240.166395 302.510699 
L 241.703747 303.772284 
L 243.2411 305.033869 
L 244.778453 306.295455 
" style="fill:none;stroke:#a79f31;stroke-linecap:round;stroke-width:2.25;"/>
   </g>
   <g id="line2d_5">
    <path clip-path="url(#pf943784cd6)" d="M 146.024078 271.602013 
L 146.798622 271.479006 
L 147.573166 271.355999 
L 148.34771 271.232992 
L 149.122255 271.109985 
L 149.896799 270.986978 
L 150.671343 270.863971 
L 151.445887 270.740964 
L 152.220431 270.617957 
L 152.994975 270.49495 
L 153.769519 270.371943 
L 154.544063 270.248936 
L 155.318608 270.125929 
L 156.093152 270.002922 
L 156.867696 269.879915 
L 157.64224 269.756908 
L 158.416784 269.633901 
L 159.191328 269.510894 
L 159.965872 269.387887 
L 160.740416 269.26488 
L 161.51496 269.141873 
L 162.289505 269.018866 
L 163.064049 268.895859 
L 163.838593 268.772852 
L 164.613137 268.649845 
L 165.387681 268.526838 
L 166.162225 268.40383 
L 166.936769 268.280823 
L 167.711313 268.157816 
L 168.485857 268.034809 
L 169.260402 267.911802 
L 170.034946 267.788795 
L 170.80949 267.665788 
L 171.584034 267.542781 
L 172.358578 267.419774 
L 173.133122 267.296767 
L 173.907666 267.17376 
L 174.68221 267.050753 
L 175.456755 266.927746 
L 176.231299 266.804739 
L 177.005843 266.681732 
L 177.780387 266.558725 
L 178.554931 266.435718 
L 179.329475 266.312711 
L 180.104019 266.189704 
L 180.878563 266.066697 
L 181.653107 265.94369 
L 182.427652 265.820683 
L 183.202196 265.697676 
L 183.97674 265.574669 
L 184.751284 265.451662 
L 185.525828 265.328655 
L 186.300372 265.205648 
L 187.074916 265.082641 
L 187.84946 264.959634 
L 188.624004 264.836627 
L 189.398549 264.71362 
L 190.173093 264.590613 
L 190.947637 264.467606 
L 191.722181 264.344599 
L 192.496725 264.221592 
L 193.271269 264.098585 
L 194.045813 263.975578 
L 194.820357 263.852571 
L 195.594902 263.729564 
L 196.369446 263.606557 
L 197.14399 263.48355 
L 197.918534 263.360543 
L 198.693078 263.237536 
L 199.467622 263.114529 
L 200.242166 262.991522 
L 201.01671 262.868515 
L 201.791254 262.745508 
L 202.565799 262.622501 
L 203.340343 262.499494 
L 204.114887 262.376487 
L 204.889431 262.25348 
L 205.663975 262.130473 
L 206.438519 262.007466 
L 207.213063 261.884459 
L 207.987607 261.761452 
L 208.762151 261.638445 
L 209.536696 261.515438 
L 210.31124 261.392431 
L 211.085784 261.269424 
L 211.860328 261.146417 
L 212.634872 261.02341 
L 213.409416 260.900403 
L 214.18396 260.777396 
L 214.958504 260.654389 
L 215.733049 260.531382 
L 216.507593 260.408375 
L 217.282137 260.285368 
L 218.056681 260.162361 
L 218.831225 260.039354 
L 219.605769 259.916347 
L 220.380313 259.79334 
L 221.154857 259.670333 
L 221.929401 259.547326 
L 222.703946 259.424319 
" style="fill:none;stroke:#82a931;stroke-linecap:round;stroke-width:2.25;"/>
   </g>
   <g id="line2d_6">
    <path clip-path="url(#pf943784cd6)" d="M 105.360512 205.700709 
L 106.076379 205.071257 
L 106.792245 204.441805 
L 107.508112 203.812352 
L 108.223978 203.1829 
L 108.939845 202.553448 
L 109.655711 201.923996 
L 110.371578 201.294544 
L 111.087444 200.665092 
L 111.803311 200.03564 
L 112.519177 199.406188 
L 113.235044 198.776736 
L 113.95091 198.147283 
L 114.666777 197.517831 
L 115.382643 196.888379 
L 116.09851 196.258927 
L 116.814377 195.629475 
L 117.530243 195.000023 
L 118.24611 194.370571 
L 118.961976 193.741119 
L 119.677843 193.111667 
L 120.393709 192.482215 
L 121.109576 191.852762 
L 121.825442 191.22331 
L 122.541309 190.593858 
L 123.257175 189.964406 
L 123.973042 189.334954 
L 124.688908 188.705502 
L 125.404775 188.07605 
L 126.120641 187.446598 
L 126.836508 186.817146 
L 127.552375 186.187693 
L 128.268241 185.558241 
L 128.984108 184.928789 
L 129.699974 184.299337 
L 130.415841 183.669885 
L 131.131707 183.040433 
L 131.847574 182.410981 
L 132.56344 181.781529 
L 133.279307 181.152077 
L 133.995173 180.522624 
L 134.71104 179.893172 
L 135.426906 179.26372 
L 136.142773 178.634268 
L 136.858639 178.004816 
L 137.574506 177.375364 
L 138.290372 176.745912 
L 139.006239 176.11646 
L 139.722106 175.487008 
L 140.437972 174.857555 
L 141.153839 174.228103 
L 141.869705 173.598651 
L 142.585572 172.969199 
L 143.301438 172.339747 
L 144.017305 171.710295 
L 144.733171 171.080843 
L 145.449038 170.451391 
L 146.164904 169.821939 
L 146.880771 169.192486 
L 147.596637 168.563034 
L 148.312504 167.933582 
L 149.02837 167.30413 
L 149.744237 166.674678 
L 150.460104 166.045226 
L 151.17597 165.415774 
L 151.891837 164.786322 
L 152.607703 164.15687 
L 153.32357 163.527417 
L 154.039436 162.897965 
L 154.755303 162.268513 
L 155.471169 161.639061 
L 156.187036 161.009609 
L 156.902902 160.380157 
L 157.618769 159.750705 
L 158.334635 159.121253 
L 159.050502 158.491801 
L 159.766368 157.862348 
L 160.482235 157.232896 
L 161.198101 156.603444 
L 161.913968 155.973992 
L 162.629835 155.34454 
L 163.345701 154.715088 
L 164.061568 154.085636 
L 164.777434 153.456184 
L 165.493301 152.826732 
L 166.209167 152.197279 
L 166.925034 151.567827 
L 167.6409 150.938375 
L 168.356767 150.308923 
L 169.072633 149.679471 
L 169.7885 149.050019 
L 170.504366 148.420567 
L 171.220233 147.791115 
L 171.936099 147.161663 
L 172.651966 146.53221 
L 173.367833 145.902758 
L 174.083699 145.273306 
L 174.799566 144.643854 
L 175.515432 144.014402 
L 176.231299 143.38495 
" style="fill:none;stroke:#32b24e;stroke-linecap:round;stroke-width:2.25;"/>
   </g>
   <g id="line2d_7">
    <path clip-path="url(#pf943784cd6)" d="M 68.182394 95.831905 
L 69.344211 97.440045 
L 70.506027 99.048186 
L 71.667843 100.656326 
L 72.829659 102.264467 
L 73.991475 103.872607 
L 75.153292 105.480748 
L 76.315108 107.088888 
L 77.476924 108.697029 
L 78.63874 110.30517 
L 79.800556 111.91331 
L 80.962372 113.521451 
L 82.124189 115.129591 
L 83.286005 116.737732 
L 84.447821 118.345872 
L 85.609637 119.954013 
L 86.771453 121.562153 
L 87.933269 123.170294 
L 89.095086 124.778434 
L 90.256902 126.386575 
L 91.418718 127.994716 
L 92.580534 129.602856 
L 93.74235 131.210997 
L 94.904166 132.819137 
L 96.065983 134.427278 
L 97.227799 136.035418 
L 98.389615 137.643559 
L 99.551431 139.251699 
L 100.713247 140.85984 
L 101.875064 142.467981 
L 103.03688 144.076121 
L 104.198696 145.684262 
L 105.360512 147.292402 
L 106.522328 148.900543 
L 107.684144 150.508683 
L 108.845961 152.116824 
L 110.007777 153.724964 
L 111.169593 155.333105 
L 112.331409 156.941246 
L 113.493225 158.549386 
L 114.655041 160.157527 
L 115.816858 161.765667 
L 116.978674 163.373808 
L 118.14049 164.981948 
L 119.302306 166.590089 
L 120.464122 168.198229 
L 121.625938 169.80637 
L 122.787755 171.41451 
L 123.949571 173.022651 
L 125.111387 174.630792 
L 126.273203 176.238932 
L 127.435019 177.847073 
L 128.596836 179.455213 
L 129.758652 181.063354 
L 130.920468 182.671494 
L 132.082284 184.279635 
L 133.2441 185.887775 
L 134.405916 187.495916 
L 135.567733 189.104057 
L 136.729549 190.712197 
L 137.891365 192.320338 
L 139.053181 193.928478 
L 140.214997 195.536619 
L 141.376813 197.144759 
L 142.53863 198.7529 
L 143.700446 200.36104 
L 144.862262 201.969181 
L 146.024078 203.577321 
L 147.185894 205.185462 
L 148.34771 206.793603 
L 149.509527 208.401743 
L 150.671343 210.009884 
L 151.833159 211.618024 
L 152.994975 213.226165 
L 154.156791 214.834305 
L 155.318608 216.442446 
L 156.480424 218.050586 
L 157.64224 219.658727 
L 158.804056 221.266868 
L 159.965872 222.875008 
L 161.127688 224.483149 
L 162.289505 226.091289 
L 163.451321 227.69943 
L 164.613137 229.30757 
L 165.774953 230.915711 
L 166.936769 232.523851 
L 168.098585 234.131992 
L 169.260402 235.740133 
L 170.422218 237.348273 
L 171.584034 238.956414 
L 172.74585 240.564554 
L 173.907666 242.172695 
L 175.069482 243.780835 
L 176.231299 245.388976 
L 177.393115 246.997116 
L 178.554931 248.605257 
L 179.716747 250.213397 
L 180.878563 251.821538 
L 182.040379 253.429679 
L 183.202196 255.037819 
" style="fill:none;stroke:#34af8a;stroke-linecap:round;stroke-width:2.25;"/>
   </g>
   <g id="line2d_8">
    <path clip-path="url(#pf943784cd6)" d="M 119.302306 212.358499 
L 120.018173 212.078016 
L 120.734039 211.797533 
L 121.449906 211.51705 
L 122.165772 211.236566 
L 122.881639 210.956083 
L 123.597505 210.6756 
L 124.313372 210.395117 
L 125.029238 210.114634 
L 125.745105 209.834151 
L 126.460971 209.553668 
L 127.176838 209.273185 
L 127.892704 208.992702 
L 128.608571 208.712219 
L 129.324438 208.431736 
L 130.040304 208.151252 
L 130.756171 207.870769 
L 131.472037 207.590286 
L 132.187904 207.309803 
L 132.90377 207.02932 
L 133.619637 206.748837 
L 134.335503 206.468354 
L 135.05137 206.187871 
L 135.767236 205.907388 
L 136.483103 205.626905 
L 137.198969 205.346422 
L 137.914836 205.065938 
L 138.630702 204.785455 
L 139.346569 204.504972 
L 140.062436 204.224489 
L 140.778302 203.944006 
L 141.494169 203.663523 
L 142.210035 203.38304 
L 142.925902 203.102557 
L 143.641768 202.822074 
L 144.357635 202.541591 
L 145.073501 202.261108 
L 145.789368 201.980624 
L 146.505234 201.700141 
L 147.221101 201.419658 
L 147.936967 201.139175 
L 148.652834 200.858692 
L 149.3687 200.578209 
L 150.084567 200.297726 
L 150.800433 200.017243 
L 151.5163 199.73676 
L 152.232167 199.456277 
L 152.948033 199.175794 
L 153.6639 198.895311 
L 154.379766 198.614827 
L 155.095633 198.334344 
L 155.811499 198.053861 
L 156.527366 197.773378 
L 157.243232 197.492895 
L 157.959099 197.212412 
L 158.674965 196.931929 
L 159.390832 196.651446 
L 160.106698 196.370963 
L 160.822565 196.09048 
L 161.538431 195.809997 
L 162.254298 195.529513 
L 162.970165 195.24903 
L 163.686031 194.968547 
L 164.401898 194.688064 
L 165.117764 194.407581 
L 165.833631 194.127098 
L 166.549497 193.846615 
L 167.265364 193.566132 
L 167.98123 193.285649 
L 168.697097 193.005166 
L 169.412963 192.724683 
L 170.12883 192.444199 
L 170.844696 192.163716 
L 171.560563 191.883233 
L 172.276429 191.60275 
L 172.992296 191.322267 
L 173.708162 191.041784 
L 174.424029 190.761301 
L 175.139896 190.480818 
L 175.855762 190.200335 
L 176.571629 189.919852 
L 177.287495 189.639369 
L 178.003362 189.358885 
L 178.719228 189.078402 
L 179.435095 188.797919 
L 180.150961 188.517436 
L 180.866828 188.236953 
L 181.582694 187.95647 
L 182.298561 187.675987 
L 183.014427 187.395504 
L 183.730294 187.115021 
L 184.44616 186.834538 
L 185.162027 186.554055 
L 185.877894 186.273571 
L 186.59376 185.993088 
L 187.309627 185.712605 
L 188.025493 185.432122 
L 188.74136 185.151639 
L 189.457226 184.871156 
L 190.173093 184.590673 
" style="fill:none;stroke:#36ada4;stroke-linecap:round;stroke-width:2.25;"/>
   </g>
   <g id="line2d_9">
    <path clip-path="url(#pf943784cd6)" d="M 113.493225 146.740094 
L 114.220827 147.003436 
L 114.948429 147.266779 
L 115.676031 147.530122 
L 116.403633 147.793465 
L 117.131235 148.056808 
L 117.858838 148.32015 
L 118.58644 148.583493 
L 119.314042 148.846836 
L 120.041644 149.110179 
L 120.769246 149.373521 
L 121.496848 149.636864 
L 122.22445 149.900207 
L 122.952052 150.16355 
L 123.679654 150.426893 
L 124.407256 150.690235 
L 125.134858 150.953578 
L 125.86246 151.216921 
L 126.590062 151.480264 
L 127.317664 151.743606 
L 128.045266 152.006949 
L 128.772868 152.270292 
L 129.50047 152.533635 
L 130.228072 152.796978 
L 130.955674 153.06032 
L 131.683276 153.323663 
L 132.410879 153.587006 
L 133.138481 153.850349 
L 133.866083 154.113691 
L 134.593685 154.377034 
L 135.321287 154.640377 
L 136.048889 154.90372 
L 136.776491 155.167063 
L 137.504093 155.430405 
L 138.231695 155.693748 
L 138.959297 155.957091 
L 139.686899 156.220434 
L 140.414501 156.483776 
L 141.142103 156.747119 
L 141.869705 157.010462 
L 142.597307 157.273805 
L 143.324909 157.537148 
L 144.052511 157.80049 
L 144.780113 158.063833 
L 145.507715 158.327176 
L 146.235317 158.590519 
L 146.962919 158.853861 
L 147.690522 159.117204 
L 148.418124 159.380547 
L 149.145726 159.64389 
L 149.873328 159.907233 
L 150.60093 160.170575 
L 151.328532 160.433918 
L 152.056134 160.697261 
L 152.783736 160.960604 
L 153.511338 161.223946 
L 154.23894 161.487289 
L 154.966542 161.750632 
L 155.694144 162.013975 
L 156.421746 162.277318 
L 157.149348 162.54066 
L 157.87695 162.804003 
L 158.604552 163.067346 
L 159.332154 163.330689 
L 160.059756 163.594031 
L 160.787358 163.857374 
L 161.51496 164.120717 
L 162.242562 164.38406 
L 162.970165 164.647403 
L 163.697767 164.910745 
L 164.425369 165.174088 
L 165.152971 165.437431 
L 165.880573 165.700774 
L 166.608175 165.964116 
L 167.335777 166.227459 
L 168.063379 166.490802 
L 168.790981 166.754145 
L 169.518583 167.017488 
L 170.246185 167.28083 
L 170.973787 167.544173 
L 171.701389 167.807516 
L 172.428991 168.070859 
L 173.156593 168.334201 
L 173.884195 168.597544 
L 174.611797 168.860887 
L 175.339399 169.12423 
L 176.067001 169.387573 
L 176.794603 169.650915 
L 177.522205 169.914258 
L 178.249808 170.177601 
L 178.97741 170.440944 
L 179.705012 170.704286 
L 180.432614 170.967629 
L 181.160216 171.230972 
L 181.887818 171.494315 
L 182.61542 171.757657 
L 183.343022 172.021 
L 184.070624 172.284343 
L 184.798226 172.547686 
L 185.525828 172.811029 
" style="fill:none;stroke:#37aabb;stroke-linecap:round;stroke-width:2.25;"/>
   </g>
   <g id="line2d_10">
    <path clip-path="url(#pf943784cd6)" d="M 80.962372 216.692166 
L 81.983362 217.211398 
L 83.004352 217.730631 
L 84.025342 218.249863 
L 85.046332 218.769095 
L 86.067322 219.288328 
L 87.088312 219.80756 
L 88.109302 220.326792 
L 89.130292 220.846024 
L 90.151282 221.365257 
L 91.172272 221.884489 
L 92.193262 222.403721 
L 93.214252 222.922953 
L 94.235242 223.442186 
L 95.256232 223.961418 
L 96.277222 224.48065 
L 97.298212 224.999882 
L 98.319202 225.519115 
L 99.340192 226.038347 
L 100.361182 226.557579 
L 101.382172 227.076811 
L 102.403162 227.596044 
L 103.424152 228.115276 
L 104.445142 228.634508 
L 105.466132 229.153741 
L 106.487122 229.672973 
L 107.508112 230.192205 
L 108.529102 230.711437 
L 109.550092 231.23067 
L 110.571082 231.749902 
L 111.592072 232.269134 
L 112.613061 232.788366 
L 113.634051 233.307599 
L 114.655041 233.826831 
L 115.676031 234.346063 
L 116.697021 234.865295 
L 117.718011 235.384528 
L 118.739001 235.90376 
L 119.759991 236.422992 
L 120.780981 236.942225 
L 121.801971 237.461457 
L 122.822961 237.980689 
L 123.843951 238.499921 
L 124.864941 239.019154 
L 125.885931 239.538386 
L 126.906921 240.057618 
L 127.927911 240.57685 
L 128.948901 241.096083 
L 129.969891 241.615315 
L 130.990881 242.134547 
L 132.011871 242.653779 
L 133.032861 243.173012 
L 134.053851 243.692244 
L 135.074841 244.211476 
L 136.095831 244.730709 
L 137.116821 245.249941 
L 138.137811 245.769173 
L 139.158801 246.288405 
L 140.179791 246.807638 
L 141.200781 247.32687 
L 142.221771 247.846102 
L 143.242761 248.365334 
L 144.263751 248.884567 
L 145.284741 249.403799 
L 146.305731 249.923031 
L 147.32672 250.442263 
L 148.34771 250.961496 
L 149.3687 251.480728 
L 150.38969 251.99996 
L 151.41068 252.519193 
L 152.43167 253.038425 
L 153.45266 253.557657 
L 154.47365 254.076889 
L 155.49464 254.596122 
L 156.51563 255.115354 
L 157.53662 255.634586 
L 158.55761 256.153818 
L 159.5786 256.673051 
L 160.59959 257.192283 
L 161.62058 257.711515 
L 162.64157 258.230747 
L 163.66256 258.74998 
L 164.68355 259.269212 
L 165.70454 259.788444 
L 166.72553 260.307676 
L 167.74652 260.826909 
L 168.76751 261.346141 
L 169.7885 261.865373 
L 170.80949 262.384606 
L 171.83048 262.903838 
L 172.85147 263.42307 
L 173.87246 263.942302 
L 174.89345 264.461535 
L 175.91444 264.980767 
L 176.93543 265.499999 
L 177.95642 266.019231 
L 178.97741 266.538464 
L 179.9984 267.057696 
L 181.01939 267.576928 
L 182.040379 268.09616 
" style="fill:none;stroke:#3aa6da;stroke-linecap:round;stroke-width:2.25;"/>
   </g>
   <g id="line2d_11">
    <path clip-path="url(#pf943784cd6)" d="M 90.256902 177.580584 
L 91.195743 178.627654 
L 92.134584 179.674724 
L 93.073426 180.721795 
L 94.012267 181.768865 
L 94.951109 182.815935 
L 95.88995 183.863006 
L 96.828791 184.910076 
L 97.767633 185.957146 
L 98.706474 187.004216 
L 99.645315 188.051287 
L 100.584157 189.098357 
L 101.522998 190.145427 
L 102.461839 191.192498 
L 103.400681 192.239568 
L 104.339522 193.286638 
L 105.278363 194.333708 
L 106.217205 195.380779 
L 107.156046 196.427849 
L 108.094887 197.474919 
L 109.033729 198.52199 
L 109.97257 199.56906 
L 110.911412 200.61613 
L 111.850253 201.6632 
L 112.789094 202.710271 
L 113.727936 203.757341 
L 114.666777 204.804411 
L 115.605618 205.851481 
L 116.54446 206.898552 
L 117.483301 207.945622 
L 118.422142 208.992692 
L 119.360984 210.039763 
L 120.299825 211.086833 
L 121.238666 212.133903 
L 122.177508 213.180973 
L 123.116349 214.228044 
L 124.05519 215.275114 
L 124.994032 216.322184 
L 125.932873 217.369255 
L 126.871715 218.416325 
L 127.810556 219.463395 
L 128.749397 220.510465 
L 129.688239 221.557536 
L 130.62708 222.604606 
L 131.565921 223.651676 
L 132.504763 224.698747 
L 133.443604 225.745817 
L 134.382445 226.792887 
L 135.321287 227.839957 
L 136.260128 228.887028 
L 137.198969 229.934098 
L 138.137811 230.981168 
L 139.076652 232.028239 
L 140.015493 233.075309 
L 140.954335 234.122379 
L 141.893176 235.169449 
L 142.832018 236.21652 
L 143.770859 237.26359 
L 144.7097 238.31066 
L 145.648542 239.357731 
L 146.587383 240.404801 
L 147.526224 241.451871 
L 148.465066 242.498941 
L 149.403907 243.546012 
L 150.342748 244.593082 
L 151.28159 245.640152 
L 152.220431 246.687223 
L 153.159272 247.734293 
L 154.098114 248.781363 
L 155.036955 249.828433 
L 155.975796 250.875504 
L 156.914638 251.922574 
L 157.853479 252.969644 
L 158.792321 254.016715 
L 159.731162 255.063785 
L 160.670003 256.110855 
L 161.608845 257.157925 
L 162.547686 258.204996 
L 163.486527 259.252066 
L 164.425369 260.299136 
L 165.36421 261.346207 
L 166.303051 262.393277 
L 167.241893 263.440347 
L 168.180734 264.487417 
L 169.119575 265.534488 
L 170.058417 266.581558 
L 170.997258 267.628628 
L 171.936099 268.675699 
L 172.874941 269.722769 
L 173.813782 270.769839 
L 174.752623 271.816909 
L 175.691465 272.86398 
L 176.630306 273.91105 
L 177.569148 274.95812 
L 178.507989 276.00519 
L 179.44683 277.052261 
L 180.385672 278.099331 
L 181.324513 279.146401 
L 182.263354 280.193472 
L 183.202196 281.240542 
" style="fill:none;stroke:#8197f4;stroke-linecap:round;stroke-width:2.25;"/>
   </g>
   <g id="line2d_12">
    <path clip-path="url(#pf943784cd6)" d="M 149.509527 205.600225 
L 150.131509 206.271068 
L 150.753491 206.94191 
L 151.375474 207.612752 
L 151.997456 208.283595 
L 152.619439 208.954437 
L 153.241421 209.62528 
L 153.863403 210.296122 
L 154.485386 210.966964 
L 155.107368 211.637807 
L 155.729351 212.308649 
L 156.351333 212.979491 
L 156.973315 213.650334 
L 157.595298 214.321176 
L 158.21728 214.992018 
L 158.839263 215.662861 
L 159.461245 216.333703 
L 160.083227 217.004545 
L 160.70521 217.675388 
L 161.327192 218.34623 
L 161.949175 219.017072 
L 162.571157 219.687915 
L 163.193139 220.358757 
L 163.815122 221.029599 
L 164.437104 221.700442 
L 165.059087 222.371284 
L 165.681069 223.042127 
L 166.303051 223.712969 
L 166.925034 224.383811 
L 167.547016 225.054654 
L 168.168999 225.725496 
L 168.790981 226.396338 
L 169.412963 227.067181 
L 170.034946 227.738023 
L 170.656928 228.408865 
L 171.27891 229.079708 
L 171.900893 229.75055 
L 172.522875 230.421392 
L 173.144858 231.092235 
L 173.76684 231.763077 
L 174.388822 232.433919 
L 175.010805 233.104762 
L 175.632787 233.775604 
L 176.25477 234.446446 
L 176.876752 235.117289 
L 177.498734 235.788131 
L 178.120717 236.458974 
L 178.742699 237.129816 
L 179.364682 237.800658 
L 179.986664 238.471501 
L 180.608646 239.142343 
L 181.230629 239.813185 
L 181.852611 240.484028 
L 182.474594 241.15487 
L 183.096576 241.825712 
L 183.718558 242.496555 
L 184.340541 243.167397 
L 184.962523 243.838239 
L 185.584506 244.509082 
L 186.206488 245.179924 
L 186.82847 245.850766 
L 187.450453 246.521609 
L 188.072435 247.192451 
L 188.694418 247.863293 
L 189.3164 248.534136 
L 189.938382 249.204978 
L 190.560365 249.875821 
L 191.182347 250.546663 
L 191.80433 251.217505 
L 192.426312 251.888348 
L 193.048294 252.55919 
L 193.670277 253.230032 
L 194.292259 253.900875 
L 194.914242 254.571717 
L 195.536224 255.242559 
L 196.158206 255.913402 
L 196.780189 256.584244 
L 197.402171 257.255086 
L 198.024154 257.925929 
L 198.646136 258.596771 
L 199.268118 259.267613 
L 199.890101 259.938456 
L 200.512083 260.609298 
L 201.134066 261.28014 
L 201.756048 261.950983 
L 202.37803 262.621825 
L 203.000013 263.292668 
L 203.621995 263.96351 
L 204.243977 264.634352 
L 204.86596 265.305195 
L 205.487942 265.976037 
L 206.109925 266.646879 
L 206.731907 267.317722 
L 207.353889 267.988564 
L 207.975872 268.659406 
L 208.597854 269.330249 
L 209.219837 270.001091 
L 209.841819 270.671933 
L 210.463801 271.342776 
L 211.085784 272.013618 
" style="fill:none;stroke:#c180f4;stroke-linecap:round;stroke-width:2.25;"/>
   </g>
   <g id="line2d_13">
    <path clip-path="url(#pf943784cd6)" d="M 192.496725 274.570199 
L 193.283005 274.57338 
L 194.069284 274.57656 
L 194.855564 274.57974 
L 195.641844 274.58292 
L 196.428123 274.5861 
L 197.214403 274.58928 
L 198.000682 274.59246 
L 198.786962 274.59564 
L 199.573242 274.59882 
L 200.359521 274.602 
L 201.145801 274.60518 
L 201.932081 274.608361 
L 202.71836 274.611541 
L 203.50464 274.614721 
L 204.29092 274.617901 
L 205.077199 274.621081 
L 205.863479 274.624261 
L 206.649758 274.627441 
L 207.436038 274.630621 
L 208.222318 274.633801 
L 209.008597 274.636981 
L 209.794877 274.640162 
L 210.581157 274.643342 
L 211.367436 274.646522 
L 212.153716 274.649702 
L 212.939996 274.652882 
L 213.726275 274.656062 
L 214.512555 274.659242 
L 215.298834 274.662422 
L 216.085114 274.665602 
L 216.871394 274.668782 
L 217.657673 274.671963 
L 218.443953 274.675143 
L 219.230233 274.678323 
L 220.016512 274.681503 
L 220.802792 274.684683 
L 221.589071 274.687863 
L 222.375351 274.691043 
L 223.161631 274.694223 
L 223.94791 274.697403 
L 224.73419 274.700583 
L 225.52047 274.703763 
L 226.306749 274.706944 
L 227.093029 274.710124 
L 227.879309 274.713304 
L 228.665588 274.716484 
L 229.451868 274.719664 
L 230.238147 274.722844 
L 231.024427 274.726024 
L 231.810707 274.729204 
L 232.596986 274.732384 
L 233.383266 274.735564 
L 234.169546 274.738745 
L 234.955825 274.741925 
L 235.742105 274.745105 
L 236.528384 274.748285 
L 237.314664 274.751465 
L 238.100944 274.754645 
L 238.887223 274.757825 
L 239.673503 274.761005 
L 240.459783 274.764185 
L 241.246062 274.767365 
L 242.032342 274.770546 
L 242.818622 274.773726 
L 243.604901 274.776906 
L 244.391181 274.780086 
L 245.17746 274.783266 
L 245.96374 274.786446 
L 246.75002 274.789626 
L 247.536299 274.792806 
L 248.322579 274.795986 
L 249.108859 274.799166 
L 249.895138 274.802347 
L 250.681418 274.805527 
L 251.467698 274.808707 
L 252.253977 274.811887 
L 253.040257 274.815067 
L 253.826536 274.818247 
L 254.612816 274.821427 
L 255.399096 274.824607 
L 256.185375 274.827787 
L 256.971655 274.830967 
L 257.757935 274.834147 
L 258.544214 274.837328 
L 259.330494 274.840508 
L 260.116773 274.843688 
L 260.903053 274.846868 
L 261.689333 274.850048 
L 262.475612 274.853228 
L 263.261892 274.856408 
L 264.048172 274.859588 
L 264.834451 274.862768 
L 265.620731 274.865948 
L 266.407011 274.869129 
L 267.19329 274.872309 
L 267.97957 274.875489 
L 268.765849 274.878669 
L 269.552129 274.881849 
L 270.338409 274.885029 
" style="fill:none;stroke:#f45deb;stroke-linecap:round;stroke-width:2.25;"/>
   </g>
   <g id="line2d_14">
    <path clip-path="url(#pf943784cd6)" d="M 269.176593 273.772101 
L 269.880724 273.7556 
L 270.584855 273.7391 
L 271.288986 273.722599 
L 271.993117 273.706099 
L 272.697248 273.689598 
L 273.401379 273.673098 
L 274.10551 273.656597 
L 274.809641 273.640096 
L 275.513772 273.623596 
L 276.217903 273.607095 
L 276.922034 273.590595 
L 277.626165 273.574094 
L 278.330296 273.557594 
L 279.034427 273.541093 
L 279.738558 273.524592 
L 280.442689 273.508092 
L 281.14682 273.491591 
L 281.850951 273.475091 
L 282.555082 273.45859 
L 283.259213 273.44209 
L 283.963344 273.425589 
L 284.667475 273.409088 
L 285.371606 273.392588 
L 286.075737 273.376087 
L 286.779868 273.359587 
L 287.483999 273.343086 
L 288.18813 273.326586 
L 288.892261 273.310085 
L 289.596392 273.293584 
L 290.300523 273.277084 
L 291.004654 273.260583 
L 291.708785 273.244083 
L 292.412916 273.227582 
L 293.117047 273.211082 
L 293.821178 273.194581 
L 294.525309 273.17808 
L 295.22944 273.16158 
L 295.933571 273.145079 
L 296.637702 273.128579 
L 297.341833 273.112078 
L 298.045964 273.095578 
L 298.750095 273.079077 
L 299.454226 273.062576 
L 300.158357 273.046076 
L 300.862488 273.029575 
L 301.566619 273.013075 
L 302.27075 272.996574 
L 302.974881 272.980074 
L 303.679012 272.963573 
L 304.383143 272.947072 
L 305.087274 272.930572 
L 305.791405 272.914071 
L 306.495536 272.897571 
L 307.199667 272.88107 
L 307.903798 272.86457 
L 308.607929 272.848069 
L 309.31206 272.831568 
L 310.016191 272.815068 
L 310.720322 272.798567 
L 311.424453 272.782067 
L 312.128584 272.765566 
L 312.832715 272.749066 
L 313.536846 272.732565 
L 314.240977 272.716064 
L 314.945108 272.699564 
L 315.649239 272.683063 
L 316.35337 272.666563 
L 317.057501 272.650062 
L 317.761633 272.633562 
L 318.465764 272.617061 
L 319.169895 272.60056 
L 319.874026 272.58406 
L 320.578157 272.567559 
L 321.282288 272.551059 
L 321.986419 272.534558 
L 322.69055 272.518058 
L 323.394681 272.501557 
L 324.098812 272.485056 
L 324.802943 272.468556 
L 325.507074 272.452055 
L 326.211205 272.435555 
L 326.915336 272.419054 
L 327.619467 272.402554 
L 328.323598 272.386053 
L 329.027729 272.369552 
L 329.73186 272.353052 
L 330.435991 272.336551 
L 331.140122 272.320051 
L 331.844253 272.30355 
L 332.548384 272.28705 
L 333.252515 272.270549 
L 333.956646 272.254048 
L 334.660777 272.237548 
L 335.364908 272.221047 
L 336.069039 272.204547 
L 336.77317 272.188046 
L 337.477301 272.171546 
L 338.181432 272.155045 
L 338.885563 272.138544 
" style="fill:none;stroke:#f669ba;stroke-linecap:round;stroke-width:2.25;"/>
   </g>
   <g id="patch_3">
    <path d="M 51.479688 320.2 
L 51.479688 14.3 
" style="fill:none;stroke:#262626;stroke-linecap:square;stroke-linejoin:miter;stroke-width:0.8;"/>
   </g>
   <g id="patch_4">
    <path d="M 51.479688 320.2 
L 355.61875 320.2 
" style="fill:none;stroke:#262626;stroke-linecap:square;stroke-linejoin:miter;stroke-width:0.8;"/>
   </g>
   <g id="text_17">
    <!-- r=-0.373, p=0.00083 -->
    <defs>
     <path d="M 52.828125 42.09375 
L 5.5625 42.09375 
L 5.5625 50.296875 
L 52.828125 50.296875 
z
M 52.828125 20.359375 
L 5.5625 20.359375 
L 5.5625 28.5625 
L 52.828125 28.5625 
z
" id="ArialMT-61"/>
     <path d="M 3.171875 21.484375 
L 3.171875 30.328125 
L 30.171875 30.328125 
L 30.171875 21.484375 
z
" id="ArialMT-45"/>
     <path d="M 9.078125 0 
L 9.078125 10.015625 
L 19.09375 10.015625 
L 19.09375 0 
z
" id="ArialMT-46"/>
     <path d="M 8.890625 0 
L 8.890625 10.015625 
L 18.890625 10.015625 
L 18.890625 0 
Q 18.890625 -5.515625 16.9375 -8.90625 
Q 14.984375 -12.3125 10.75 -14.15625 
L 8.296875 -10.40625 
Q 11.078125 -9.1875 12.390625 -6.8125 
Q 13.71875 -4.4375 13.875 0 
z
" id="ArialMT-44"/>
     <path d="M 6.59375 -19.875 
L 6.59375 51.859375 
L 14.59375 51.859375 
L 14.59375 45.125 
Q 17.4375 49.078125 21 51.046875 
Q 24.5625 53.03125 29.640625 53.03125 
Q 36.28125 53.03125 41.359375 49.609375 
Q 46.4375 46.1875 49.015625 39.953125 
Q 51.609375 33.734375 51.609375 26.3125 
Q 51.609375 18.359375 48.75 11.984375 
Q 45.90625 5.609375 40.453125 2.21875 
Q 35.015625 -1.171875 29 -1.171875 
Q 24.609375 -1.171875 21.109375 0.6875 
Q 17.625 2.546875 15.375 5.375 
L 15.375 -19.875 
z
M 14.546875 25.640625 
Q 14.546875 15.625 18.59375 10.84375 
Q 22.65625 6.0625 28.421875 6.0625 
Q 34.28125 6.0625 38.453125 11.015625 
Q 42.625 15.96875 42.625 26.375 
Q 42.625 36.28125 38.546875 41.203125 
Q 34.46875 46.140625 28.8125 46.140625 
Q 23.1875 46.140625 18.859375 40.890625 
Q 14.546875 35.640625 14.546875 25.640625 
z
" id="ArialMT-112"/>
     <path d="M 17.671875 38.8125 
Q 12.203125 40.828125 9.5625 44.53125 
Q 6.9375 48.25 6.9375 53.421875 
Q 6.9375 61.234375 12.546875 66.546875 
Q 18.171875 71.875 27.484375 71.875 
Q 36.859375 71.875 42.578125 66.421875 
Q 48.296875 60.984375 48.296875 53.171875 
Q 48.296875 48.1875 45.671875 44.5 
Q 43.0625 40.828125 37.75 38.8125 
Q 44.34375 36.671875 47.78125 31.875 
Q 51.21875 27.09375 51.21875 20.453125 
Q 51.21875 11.28125 44.71875 5.03125 
Q 38.234375 -1.21875 27.640625 -1.21875 
Q 17.046875 -1.21875 10.546875 5.046875 
Q 4.046875 11.328125 4.046875 20.703125 
Q 4.046875 27.6875 7.59375 32.390625 
Q 11.140625 37.109375 17.671875 38.8125 
z
M 15.921875 53.71875 
Q 15.921875 48.640625 19.1875 45.40625 
Q 22.46875 42.1875 27.6875 42.1875 
Q 32.765625 42.1875 36.015625 45.375 
Q 39.265625 48.578125 39.265625 53.21875 
Q 39.265625 58.0625 35.90625 61.359375 
Q 32.5625 64.65625 27.59375 64.65625 
Q 22.5625 64.65625 19.234375 61.421875 
Q 15.921875 58.203125 15.921875 53.71875 
z
M 13.09375 20.65625 
Q 13.09375 16.890625 14.875 13.375 
Q 16.65625 9.859375 20.171875 7.921875 
Q 23.6875 6 27.734375 6 
Q 34.03125 6 38.125 10.046875 
Q 42.234375 14.109375 42.234375 20.359375 
Q 42.234375 26.703125 38.015625 30.859375 
Q 33.796875 35.015625 27.4375 35.015625 
Q 21.234375 35.015625 17.15625 30.90625 
Q 13.09375 26.8125 13.09375 20.65625 
z
" id="ArialMT-56"/>
    </defs>
    <g style="fill:#262626;" transform="translate(193.658541 98.550832)scale(0.15 -0.15)">
     <use xlink:href="#ArialMT-114"/>
     <use x="33.300781" xlink:href="#ArialMT-61"/>
     <use x="91.699219" xlink:href="#ArialMT-45"/>
     <use x="125" xlink:href="#ArialMT-48"/>
     <use x="180.615234" xlink:href="#ArialMT-46"/>
     <use x="208.398438" xlink:href="#ArialMT-51"/>
     <use x="264.013672" xlink:href="#ArialMT-55"/>
     <use x="319.628906" xlink:href="#ArialMT-51"/>
     <use x="375.244141" xlink:href="#ArialMT-44"/>
     <use x="403.027344" xlink:href="#ArialMT-32"/>
     <use x="430.810547" xlink:href="#ArialMT-112"/>
     <use x="486.425781" xlink:href="#ArialMT-61"/>
     <use x="544.824219" xlink:href="#ArialMT-48"/>
     <use x="600.439453" xlink:href="#ArialMT-46"/>
     <use x="628.222656" xlink:href="#ArialMT-48"/>
     <use x="683.837891" xlink:href="#ArialMT-48"/>
     <use x="739.453125" xlink:href="#ArialMT-48"/>
     <use x="795.068359" xlink:href="#ArialMT-56"/>
     <use x="850.683594" xlink:href="#ArialMT-51"/>
    </g>
   </g>
  </g>
  <g id="legend_1">
   <g id="text_18">
    <!-- host_subject_id -->
    <defs>
     <path d="M 6.59375 0 
L 6.59375 71.578125 
L 15.375 71.578125 
L 15.375 45.90625 
Q 21.53125 53.03125 30.90625 53.03125 
Q 36.671875 53.03125 40.921875 50.75 
Q 45.171875 48.484375 47 44.484375 
Q 48.828125 40.484375 48.828125 32.859375 
L 48.828125 0 
L 40.046875 0 
L 40.046875 32.859375 
Q 40.046875 39.453125 37.1875 42.453125 
Q 34.328125 45.453125 29.109375 45.453125 
Q 25.203125 45.453125 21.75 43.421875 
Q 18.3125 41.40625 16.84375 37.9375 
Q 15.375 34.46875 15.375 28.375 
L 15.375 0 
z
" id="ArialMT-104"/>
     <path d="M 3.328125 25.921875 
Q 3.328125 40.328125 11.328125 47.265625 
Q 18.015625 53.03125 27.640625 53.03125 
Q 38.328125 53.03125 45.109375 46.015625 
Q 51.90625 39.015625 51.90625 26.65625 
Q 51.90625 16.65625 48.90625 10.90625 
Q 45.90625 5.171875 40.15625 2 
Q 34.421875 -1.171875 27.640625 -1.171875 
Q 16.75 -1.171875 10.03125 5.8125 
Q 3.328125 12.796875 3.328125 25.921875 
z
M 12.359375 25.921875 
Q 12.359375 15.96875 16.703125 11.015625 
Q 21.046875 6.0625 27.640625 6.0625 
Q 34.1875 6.0625 38.53125 11.03125 
Q 42.875 16.015625 42.875 26.21875 
Q 42.875 35.84375 38.5 40.796875 
Q 34.125 45.75 27.640625 45.75 
Q 21.046875 45.75 16.703125 40.8125 
Q 12.359375 35.890625 12.359375 25.921875 
z
" id="ArialMT-111"/>
     <path d="M 25.78125 7.859375 
L 27.046875 0.09375 
Q 23.34375 -0.6875 20.40625 -0.6875 
Q 15.625 -0.6875 12.984375 0.828125 
Q 10.359375 2.34375 9.28125 4.8125 
Q 8.203125 7.28125 8.203125 15.1875 
L 8.203125 45.015625 
L 1.765625 45.015625 
L 1.765625 51.859375 
L 8.203125 51.859375 
L 8.203125 64.703125 
L 16.9375 69.96875 
L 16.9375 51.859375 
L 25.78125 51.859375 
L 25.78125 45.015625 
L 16.9375 45.015625 
L 16.9375 14.703125 
Q 16.9375 10.9375 17.40625 9.859375 
Q 17.875 8.796875 18.921875 8.15625 
Q 19.96875 7.515625 21.921875 7.515625 
Q 23.390625 7.515625 25.78125 7.859375 
z
" id="ArialMT-116"/>
     <path d="M -1.515625 -19.875 
L -1.515625 -13.53125 
L 56.734375 -13.53125 
L 56.734375 -19.875 
z
" id="ArialMT-95"/>
     <path d="M 40.578125 0 
L 40.578125 7.625 
Q 34.515625 -1.171875 24.125 -1.171875 
Q 19.53125 -1.171875 15.546875 0.578125 
Q 11.578125 2.34375 9.640625 5 
Q 7.71875 7.671875 6.9375 11.53125 
Q 6.390625 14.109375 6.390625 19.734375 
L 6.390625 51.859375 
L 15.1875 51.859375 
L 15.1875 23.09375 
Q 15.1875 16.21875 15.71875 13.8125 
Q 16.546875 10.359375 19.234375 8.375 
Q 21.921875 6.390625 25.875 6.390625 
Q 29.828125 6.390625 33.296875 8.421875 
Q 36.765625 10.453125 38.203125 13.9375 
Q 39.65625 17.4375 39.65625 24.078125 
L 39.65625 51.859375 
L 48.4375 51.859375 
L 48.4375 0 
z
" id="ArialMT-117"/>
     <path d="M 6.546875 61.375 
L 6.546875 71.578125 
L 15.328125 71.578125 
L 15.328125 61.375 
z
M -4.59375 -20.125 
L -2.9375 -12.640625 
Q -0.296875 -13.328125 1.21875 -13.328125 
Q 3.90625 -13.328125 5.21875 -11.546875 
Q 6.546875 -9.765625 6.546875 -2.640625 
L 6.546875 51.859375 
L 15.328125 51.859375 
L 15.328125 -2.828125 
Q 15.328125 -12.40625 12.84375 -16.15625 
Q 9.671875 -21.046875 2.296875 -21.046875 
Q -1.265625 -21.046875 -4.59375 -20.125 
z
" id="ArialMT-106"/>
     <path d="M 40.4375 19 
L 49.078125 17.875 
Q 47.65625 8.9375 41.8125 3.875 
Q 35.984375 -1.171875 27.484375 -1.171875 
Q 16.84375 -1.171875 10.375 5.78125 
Q 3.90625 12.75 3.90625 25.734375 
Q 3.90625 34.125 6.6875 40.421875 
Q 9.46875 46.734375 15.15625 49.875 
Q 20.84375 53.03125 27.546875 53.03125 
Q 35.984375 53.03125 41.359375 48.75 
Q 46.734375 44.484375 48.25 36.625 
L 39.703125 35.296875 
Q 38.484375 40.53125 35.375 43.15625 
Q 32.28125 45.796875 27.875 45.796875 
Q 21.234375 45.796875 17.078125 41.03125 
Q 12.9375 36.28125 12.9375 25.984375 
Q 12.9375 15.53125 16.9375 10.796875 
Q 20.953125 6.0625 27.390625 6.0625 
Q 32.5625 6.0625 36.03125 9.234375 
Q 39.5 12.40625 40.4375 19 
z
" id="ArialMT-99"/>
    </defs>
    <g style="fill:#262626;" transform="translate(359.6375 83.509375)scale(0.1 -0.1)">
     <use xlink:href="#ArialMT-104"/>
     <use x="55.615234" xlink:href="#ArialMT-111"/>
     <use x="111.230469" xlink:href="#ArialMT-115"/>
     <use x="161.230469" xlink:href="#ArialMT-116"/>
     <use x="189.013672" xlink:href="#ArialMT-95"/>
     <use x="244.628906" xlink:href="#ArialMT-115"/>
     <use x="294.628906" xlink:href="#ArialMT-117"/>
     <use x="350.244141" xlink:href="#ArialMT-98"/>
     <use x="405.859375" xlink:href="#ArialMT-106"/>
     <use x="428.076172" xlink:href="#ArialMT-101"/>
     <use x="483.691406" xlink:href="#ArialMT-99"/>
     <use x="533.691406" xlink:href="#ArialMT-116"/>
     <use x="561.474609" xlink:href="#ArialMT-95"/>
     <use x="617.089844" xlink:href="#ArialMT-105"/>
     <use x="639.306641" xlink:href="#ArialMT-100"/>
    </g>
   </g>
   <g id="PathCollection_15">
    <g>
     <use style="fill:#f77189;fill-opacity:0.8;stroke:#f77189;stroke-opacity:0.8;" x="374.264062" xlink:href="#me6a923530f" y="95.146875"/>
    </g>
   </g>
   <g id="text_19">
    <!-- DM001 -->
    <defs>
     <path d="M 7.71875 0 
L 7.71875 71.578125 
L 32.375 71.578125 
Q 40.71875 71.578125 45.125 70.5625 
Q 51.265625 69.140625 55.609375 65.4375 
Q 61.28125 60.640625 64.078125 53.1875 
Q 66.890625 45.75 66.890625 36.1875 
Q 66.890625 28.03125 64.984375 21.734375 
Q 63.09375 15.4375 60.109375 11.296875 
Q 57.125 7.171875 53.578125 4.796875 
Q 50.046875 2.4375 45.046875 1.21875 
Q 40.046875 0 33.546875 0 
z
M 17.1875 8.453125 
L 32.46875 8.453125 
Q 39.546875 8.453125 43.578125 9.765625 
Q 47.609375 11.078125 50 13.484375 
Q 53.375 16.84375 55.25 22.53125 
Q 57.125 28.21875 57.125 36.328125 
Q 57.125 47.5625 53.4375 53.59375 
Q 49.75 59.625 44.484375 61.671875 
Q 40.671875 63.140625 32.234375 63.140625 
L 17.1875 63.140625 
z
" id="ArialMT-68"/>
     <path d="M 7.421875 0 
L 7.421875 71.578125 
L 21.6875 71.578125 
L 38.625 20.90625 
Q 40.96875 13.8125 42.046875 10.296875 
Q 43.265625 14.203125 45.84375 21.78125 
L 62.984375 71.578125 
L 75.734375 71.578125 
L 75.734375 0 
L 66.609375 0 
L 66.609375 59.90625 
L 45.796875 0 
L 37.25 0 
L 16.546875 60.9375 
L 16.546875 0 
z
" id="ArialMT-77"/>
    </defs>
    <g style="fill:#262626;" transform="translate(392.264062 97.771875)scale(0.1 -0.1)">
     <use xlink:href="#ArialMT-68"/>
     <use x="72.216797" xlink:href="#ArialMT-77"/>
     <use x="155.517578" xlink:href="#ArialMT-48"/>
     <use x="211.132812" xlink:href="#ArialMT-48"/>
     <use x="266.748047" xlink:href="#ArialMT-49"/>
    </g>
   </g>
   <g id="PathCollection_16">
    <g>
     <use style="fill:#ef7d32;fill-opacity:0.8;stroke:#ef7d32;stroke-opacity:0.8;" x="374.264062" xlink:href="#m1d5d7947ed" y="109.292188"/>
    </g>
   </g>
   <g id="text_20">
    <!-- DM002 -->
    <g style="fill:#262626;" transform="translate(392.264062 111.917188)scale(0.1 -0.1)">
     <use xlink:href="#ArialMT-68"/>
     <use x="72.216797" xlink:href="#ArialMT-77"/>
     <use x="155.517578" xlink:href="#ArialMT-48"/>
     <use x="211.132812" xlink:href="#ArialMT-48"/>
     <use x="266.748047" xlink:href="#ArialMT-50"/>
    </g>
   </g>
   <g id="PathCollection_17">
    <g>
     <use style="fill:#c69432;fill-opacity:0.8;stroke:#c69432;stroke-opacity:0.8;" x="374.264062" xlink:href="#md2e123e44d" y="123.4375"/>
    </g>
   </g>
   <g id="text_21">
    <!-- DM003 -->
    <g style="fill:#262626;" transform="translate(392.264062 126.0625)scale(0.1 -0.1)">
     <use xlink:href="#ArialMT-68"/>
     <use x="72.216797" xlink:href="#ArialMT-77"/>
     <use x="155.517578" xlink:href="#ArialMT-48"/>
     <use x="211.132812" xlink:href="#ArialMT-48"/>
     <use x="266.748047" xlink:href="#ArialMT-51"/>
    </g>
   </g>
   <g id="PathCollection_18">
    <g>
     <use style="fill:#a79f31;fill-opacity:0.8;stroke:#a79f31;stroke-opacity:0.8;" x="374.264062" xlink:href="#ma53b4e9e66" y="137.582813"/>
    </g>
   </g>
   <g id="text_22">
    <!-- DM006 -->
    <g style="fill:#262626;" transform="translate(392.264062 140.207813)scale(0.1 -0.1)">
     <use xlink:href="#ArialMT-68"/>
     <use x="72.216797" xlink:href="#ArialMT-77"/>
     <use x="155.517578" xlink:href="#ArialMT-48"/>
     <use x="211.132812" xlink:href="#ArialMT-48"/>
     <use x="266.748047" xlink:href="#ArialMT-54"/>
    </g>
   </g>
   <g id="PathCollection_19">
    <g>
     <use style="fill:#82a931;fill-opacity:0.8;stroke:#82a931;stroke-opacity:0.8;" x="374.264062" xlink:href="#m7a36558053" y="151.728125"/>
    </g>
   </g>
   <g id="text_23">
    <!-- DM008 -->
    <g style="fill:#262626;" transform="translate(392.264062 154.353125)scale(0.1 -0.1)">
     <use xlink:href="#ArialMT-68"/>
     <use x="72.216797" xlink:href="#ArialMT-77"/>
     <use x="155.517578" xlink:href="#ArialMT-48"/>
     <use x="211.132812" xlink:href="#ArialMT-48"/>
     <use x="266.748047" xlink:href="#ArialMT-56"/>
    </g>
   </g>
   <g id="PathCollection_20">
    <g>
     <use style="fill:#32b24e;fill-opacity:0.8;stroke:#32b24e;stroke-opacity:0.8;" x="374.264062" xlink:href="#m505be7c13b" y="165.873438"/>
    </g>
   </g>
   <g id="text_24">
    <!-- DM009 -->
    <defs>
     <path d="M 5.46875 16.546875 
L 13.921875 17.328125 
Q 14.984375 11.375 18.015625 8.6875 
Q 21.046875 6 25.78125 6 
Q 29.828125 6 32.875 7.859375 
Q 35.9375 9.71875 37.890625 12.8125 
Q 39.84375 15.921875 41.15625 21.1875 
Q 42.484375 26.46875 42.484375 31.9375 
Q 42.484375 32.515625 42.4375 33.6875 
Q 39.796875 29.5 35.234375 26.875 
Q 30.671875 24.265625 25.34375 24.265625 
Q 16.453125 24.265625 10.296875 30.703125 
Q 4.15625 37.15625 4.15625 47.703125 
Q 4.15625 58.59375 10.578125 65.234375 
Q 17 71.875 26.65625 71.875 
Q 33.640625 71.875 39.421875 68.109375 
Q 45.21875 64.359375 48.21875 57.390625 
Q 51.21875 50.4375 51.21875 37.25 
Q 51.21875 23.53125 48.234375 15.40625 
Q 45.265625 7.28125 39.375 3.03125 
Q 33.5 -1.21875 25.59375 -1.21875 
Q 17.1875 -1.21875 11.859375 3.4375 
Q 6.546875 8.109375 5.46875 16.546875 
z
M 41.453125 48.140625 
Q 41.453125 55.71875 37.421875 60.15625 
Q 33.40625 64.59375 27.734375 64.59375 
Q 21.875 64.59375 17.53125 59.8125 
Q 13.1875 55.03125 13.1875 47.40625 
Q 13.1875 40.578125 17.3125 36.296875 
Q 21.4375 32.03125 27.484375 32.03125 
Q 33.59375 32.03125 37.515625 36.296875 
Q 41.453125 40.578125 41.453125 48.140625 
z
" id="ArialMT-57"/>
    </defs>
    <g style="fill:#262626;" transform="translate(392.264062 168.498438)scale(0.1 -0.1)">
     <use xlink:href="#ArialMT-68"/>
     <use x="72.216797" xlink:href="#ArialMT-77"/>
     <use x="155.517578" xlink:href="#ArialMT-48"/>
     <use x="211.132812" xlink:href="#ArialMT-48"/>
     <use x="266.748047" xlink:href="#ArialMT-57"/>
    </g>
   </g>
   <g id="PathCollection_21">
    <g>
     <use style="fill:#34af8a;fill-opacity:0.8;stroke:#34af8a;stroke-opacity:0.8;" x="374.264062" xlink:href="#mcbc0bb21b8" y="180.01875"/>
    </g>
   </g>
   <g id="text_25">
    <!-- DM010 -->
    <g style="fill:#262626;" transform="translate(392.264062 182.64375)scale(0.1 -0.1)">
     <use xlink:href="#ArialMT-68"/>
     <use x="72.216797" xlink:href="#ArialMT-77"/>
     <use x="155.517578" xlink:href="#ArialMT-48"/>
     <use x="211.132812" xlink:href="#ArialMT-49"/>
     <use x="266.748047" xlink:href="#ArialMT-48"/>
    </g>
   </g>
   <g id="PathCollection_22">
    <g>
     <use style="fill:#36ada4;fill-opacity:0.8;stroke:#36ada4;stroke-opacity:0.8;" x="374.264062" xlink:href="#m996e5618c0" y="194.164063"/>
    </g>
   </g>
   <g id="text_26">
    <!-- DM011 -->
    <g style="fill:#262626;" transform="translate(392.264062 196.789063)scale(0.1 -0.1)">
     <use xlink:href="#ArialMT-68"/>
     <use x="72.216797" xlink:href="#ArialMT-77"/>
     <use x="155.517578" xlink:href="#ArialMT-48"/>
     <use x="211.132812" xlink:href="#ArialMT-49"/>
     <use x="266.638672" xlink:href="#ArialMT-49"/>
    </g>
   </g>
   <g id="PathCollection_23">
    <g>
     <use style="fill:#37aabb;fill-opacity:0.8;stroke:#37aabb;stroke-opacity:0.8;" x="374.264062" xlink:href="#me20c9cc1e5" y="208.309375"/>
    </g>
   </g>
   <g id="text_27">
    <!-- DM013 -->
    <g style="fill:#262626;" transform="translate(392.264062 210.934375)scale(0.1 -0.1)">
     <use xlink:href="#ArialMT-68"/>
     <use x="72.216797" xlink:href="#ArialMT-77"/>
     <use x="155.517578" xlink:href="#ArialMT-48"/>
     <use x="211.132812" xlink:href="#ArialMT-49"/>
     <use x="266.748047" xlink:href="#ArialMT-51"/>
    </g>
   </g>
   <g id="PathCollection_24">
    <g>
     <use style="fill:#3aa6da;fill-opacity:0.8;stroke:#3aa6da;stroke-opacity:0.8;" x="374.264062" xlink:href="#m0eea9e46d1" y="222.454688"/>
    </g>
   </g>
   <g id="text_28">
    <!-- DM014 -->
    <g style="fill:#262626;" transform="translate(392.264062 225.079688)scale(0.1 -0.1)">
     <use xlink:href="#ArialMT-68"/>
     <use x="72.216797" xlink:href="#ArialMT-77"/>
     <use x="155.517578" xlink:href="#ArialMT-48"/>
     <use x="211.132812" xlink:href="#ArialMT-49"/>
     <use x="266.748047" xlink:href="#ArialMT-52"/>
    </g>
   </g>
   <g id="PathCollection_25">
    <g>
     <use style="fill:#8197f4;fill-opacity:0.8;stroke:#8197f4;stroke-opacity:0.8;" x="374.264062" xlink:href="#mf02e2c131d" y="236.6"/>
    </g>
   </g>
   <g id="text_29">
    <!-- DM015 -->
    <g style="fill:#262626;" transform="translate(392.264062 239.225)scale(0.1 -0.1)">
     <use xlink:href="#ArialMT-68"/>
     <use x="72.216797" xlink:href="#ArialMT-77"/>
     <use x="155.517578" xlink:href="#ArialMT-48"/>
     <use x="211.132812" xlink:href="#ArialMT-49"/>
     <use x="266.748047" xlink:href="#ArialMT-53"/>
    </g>
   </g>
   <g id="PathCollection_26">
    <g>
     <use style="fill:#c180f4;fill-opacity:0.8;stroke:#c180f4;stroke-opacity:0.8;" x="374.264062" xlink:href="#mb8f3433546" y="250.745313"/>
    </g>
   </g>
   <g id="text_30">
    <!-- DM016 -->
    <g style="fill:#262626;" transform="translate(392.264062 253.370313)scale(0.1 -0.1)">
     <use xlink:href="#ArialMT-68"/>
     <use x="72.216797" xlink:href="#ArialMT-77"/>
     <use x="155.517578" xlink:href="#ArialMT-48"/>
     <use x="211.132812" xlink:href="#ArialMT-49"/>
     <use x="266.748047" xlink:href="#ArialMT-54"/>
    </g>
   </g>
   <g id="PathCollection_27">
    <g>
     <use style="fill:#f45deb;fill-opacity:0.8;stroke:#f45deb;stroke-opacity:0.8;" x="374.264062" xlink:href="#m9c9eb63193" y="264.890625"/>
    </g>
   </g>
   <g id="text_31">
    <!-- DM017 -->
    <g style="fill:#262626;" transform="translate(392.264062 267.515625)scale(0.1 -0.1)">
     <use xlink:href="#ArialMT-68"/>
     <use x="72.216797" xlink:href="#ArialMT-77"/>
     <use x="155.517578" xlink:href="#ArialMT-48"/>
     <use x="211.132812" xlink:href="#ArialMT-49"/>
     <use x="266.748047" xlink:href="#ArialMT-55"/>
    </g>
   </g>
   <g id="PathCollection_28">
    <g>
     <use style="fill:#f669ba;fill-opacity:0.8;stroke:#f669ba;stroke-opacity:0.8;" x="374.264062" xlink:href="#mcf413e7e6e" y="279.035937"/>
    </g>
   </g>
   <g id="text_32">
    <!-- DM018 -->
    <g style="fill:#262626;" transform="translate(392.264062 281.660937)scale(0.1 -0.1)">
     <use xlink:href="#ArialMT-68"/>
     <use x="72.216797" xlink:href="#ArialMT-77"/>
     <use x="155.517578" xlink:href="#ArialMT-48"/>
     <use x="211.132812" xlink:href="#ArialMT-49"/>
     <use x="266.748047" xlink:href="#ArialMT-56"/>
    </g>
   </g>
  </g>
 </g>
 <defs>
  <clipPath id="pf943784cd6">
   <rect height="305.9" width="304.139062" x="51.479688" y="14.3"/>
  </clipPath>
 </defs>
</svg>
