<?xml version="1.0" encoding="utf-8" standalone="no"?>
<!DOCTYPE svg PUBLIC "-//W3C//DTD SVG 1.1//EN"
  "http://www.w3.org/Graphics/SVG/1.1/DTD/svg11.dtd">
<!-- Created with matplotlib (https://matplotlib.org/) -->
<svg height="360pt" version="1.1" viewBox="0 0 576 360" width="576pt" xmlns="http://www.w3.org/2000/svg" xmlns:xlink="http://www.w3.org/1999/xlink">
 <defs>
  <style type="text/css">
*{stroke-linecap:butt;stroke-linejoin:round;}
  </style>
 </defs>
 <g id="figure_1">
  <g id="patch_1">
   <path d="M 0 360 
L 576 360 
L 576 0 
L 0 0 
z
" style="fill:#ffffff;"/>
  </g>
  <g id="axes_1">
   <g id="patch_2">
    <path d="M 72 315 
L 518.4 315 
L 518.4 43.2 
L 72 43.2 
z
" style="fill:#ffffff;"/>
   </g>
   <g id="matplotlib.axis_1">
    <g id="xtick_1">
     <g id="text_1">
      <!-- 0 -->
      <defs>
       <path d="M 4.15625 35.296875 
Q 4.15625 48 6.765625 55.734375 
Q 9.375 63.484375 14.515625 67.671875 
Q 19.671875 71.875 27.484375 71.875 
Q 33.25 71.875 37.59375 69.546875 
Q 41.9375 67.234375 44.765625 62.859375 
Q 47.609375 58.5 49.21875 52.21875 
Q 50.828125 45.953125 50.828125 35.296875 
Q 50.828125 22.703125 48.234375 14.96875 
Q 45.65625 7.234375 40.5 3 
Q 35.359375 -1.21875 27.484375 -1.21875 
Q 17.140625 -1.21875 11.234375 6.203125 
Q 4.15625 15.140625 4.15625 35.296875 
z
M 13.1875 35.296875 
Q 13.1875 17.671875 17.3125 11.828125 
Q 21.4375 6 27.484375 6 
Q 33.546875 6 37.671875 11.859375 
Q 41.796875 17.71875 41.796875 35.296875 
Q 41.796875 52.984375 37.671875 58.78125 
Q 33.546875 64.59375 27.390625 64.59375 
Q 21.34375 64.59375 17.71875 59.46875 
Q 13.1875 52.9375 13.1875 35.296875 
z
" id="ArialMT-48"/>
      </defs>
      <g style="fill:#262626;" transform="translate(87.263437 330.589375)scale(0.12 -0.12)">
       <use xlink:href="#ArialMT-48"/>
      </g>
     </g>
    </g>
    <g id="xtick_2">
     <g id="text_2">
      <!-- 1 -->
      <defs>
       <path d="M 37.25 0 
L 28.46875 0 
L 28.46875 56 
Q 25.296875 52.984375 20.140625 49.953125 
Q 14.984375 46.921875 10.890625 45.40625 
L 10.890625 53.90625 
Q 18.265625 57.375 23.78125 62.296875 
Q 29.296875 67.234375 31.59375 71.875 
L 37.25 71.875 
z
" id="ArialMT-49"/>
      </defs>
      <g style="fill:#262626;" transform="translate(124.463437 330.589375)scale(0.12 -0.12)">
       <use xlink:href="#ArialMT-49"/>
      </g>
     </g>
    </g>
    <g id="xtick_3">
     <g id="text_3">
      <!-- 2 -->
      <defs>
       <path d="M 50.34375 8.453125 
L 50.34375 0 
L 3.03125 0 
Q 2.9375 3.171875 4.046875 6.109375 
Q 5.859375 10.9375 9.828125 15.625 
Q 13.8125 20.3125 21.34375 26.46875 
Q 33.015625 36.03125 37.109375 41.625 
Q 41.21875 47.21875 41.21875 52.203125 
Q 41.21875 57.421875 37.46875 61 
Q 33.734375 64.59375 27.734375 64.59375 
Q 21.390625 64.59375 17.578125 60.78125 
Q 13.765625 56.984375 13.71875 50.25 
L 4.6875 51.171875 
Q 5.609375 61.28125 11.65625 66.578125 
Q 17.71875 71.875 27.9375 71.875 
Q 38.234375 71.875 44.234375 66.15625 
Q 50.25 60.453125 50.25 52 
Q 50.25 47.703125 48.484375 43.546875 
Q 46.734375 39.40625 42.65625 34.8125 
Q 38.578125 30.21875 29.109375 22.21875 
Q 21.1875 15.578125 18.9375 13.203125 
Q 16.703125 10.84375 15.234375 8.453125 
z
" id="ArialMT-50"/>
      </defs>
      <g style="fill:#262626;" transform="translate(161.663437 330.589375)scale(0.12 -0.12)">
       <use xlink:href="#ArialMT-50"/>
      </g>
     </g>
    </g>
    <g id="xtick_4">
     <g id="text_4">
      <!-- 3 -->
      <defs>
       <path d="M 4.203125 18.890625 
L 12.984375 20.0625 
Q 14.5 12.59375 18.140625 9.296875 
Q 21.78125 6 27 6 
Q 33.203125 6 37.46875 10.296875 
Q 41.75 14.59375 41.75 20.953125 
Q 41.75 27 37.796875 30.921875 
Q 33.84375 34.859375 27.734375 34.859375 
Q 25.25 34.859375 21.53125 33.890625 
L 22.515625 41.609375 
Q 23.390625 41.5 23.921875 41.5 
Q 29.546875 41.5 34.03125 44.421875 
Q 38.53125 47.359375 38.53125 53.46875 
Q 38.53125 58.296875 35.25 61.46875 
Q 31.984375 64.65625 26.8125 64.65625 
Q 21.6875 64.65625 18.265625 61.421875 
Q 14.84375 58.203125 13.875 51.765625 
L 5.078125 53.328125 
Q 6.6875 62.15625 12.390625 67.015625 
Q 18.109375 71.875 26.609375 71.875 
Q 32.46875 71.875 37.390625 69.359375 
Q 42.328125 66.84375 44.9375 62.5 
Q 47.5625 58.15625 47.5625 53.265625 
Q 47.5625 48.640625 45.0625 44.828125 
Q 42.578125 41.015625 37.703125 38.765625 
Q 44.046875 37.3125 47.5625 32.6875 
Q 51.078125 28.078125 51.078125 21.140625 
Q 51.078125 11.765625 44.234375 5.25 
Q 37.40625 -1.265625 26.953125 -1.265625 
Q 17.53125 -1.265625 11.296875 4.34375 
Q 5.078125 9.96875 4.203125 18.890625 
z
" id="ArialMT-51"/>
      </defs>
      <g style="fill:#262626;" transform="translate(198.863437 330.589375)scale(0.12 -0.12)">
       <use xlink:href="#ArialMT-51"/>
      </g>
     </g>
    </g>
    <g id="xtick_5">
     <g id="text_5">
      <!-- 4 -->
      <defs>
       <path d="M 32.328125 0 
L 32.328125 17.140625 
L 1.265625 17.140625 
L 1.265625 25.203125 
L 33.9375 71.578125 
L 41.109375 71.578125 
L 41.109375 25.203125 
L 50.78125 25.203125 
L 50.78125 17.140625 
L 41.109375 17.140625 
L 41.109375 0 
z
M 32.328125 25.203125 
L 32.328125 57.46875 
L 9.90625 25.203125 
z
" id="ArialMT-52"/>
      </defs>
      <g style="fill:#262626;" transform="translate(236.063437 330.589375)scale(0.12 -0.12)">
       <use xlink:href="#ArialMT-52"/>
      </g>
     </g>
    </g>
    <g id="xtick_6">
     <g id="text_6">
      <!-- 5 -->
      <defs>
       <path d="M 4.15625 18.75 
L 13.375 19.53125 
Q 14.40625 12.796875 18.140625 9.390625 
Q 21.875 6 27.15625 6 
Q 33.5 6 37.890625 10.78125 
Q 42.28125 15.578125 42.28125 23.484375 
Q 42.28125 31 38.0625 35.34375 
Q 33.84375 39.703125 27 39.703125 
Q 22.75 39.703125 19.328125 37.765625 
Q 15.921875 35.84375 13.96875 32.765625 
L 5.71875 33.84375 
L 12.640625 70.609375 
L 48.25 70.609375 
L 48.25 62.203125 
L 19.671875 62.203125 
L 15.828125 42.96875 
Q 22.265625 47.46875 29.34375 47.46875 
Q 38.71875 47.46875 45.15625 40.96875 
Q 51.609375 34.46875 51.609375 24.265625 
Q 51.609375 14.546875 45.953125 7.46875 
Q 39.0625 -1.21875 27.15625 -1.21875 
Q 17.390625 -1.21875 11.203125 4.25 
Q 5.03125 9.71875 4.15625 18.75 
z
" id="ArialMT-53"/>
      </defs>
      <g style="fill:#262626;" transform="translate(273.263437 330.589375)scale(0.12 -0.12)">
       <use xlink:href="#ArialMT-53"/>
      </g>
     </g>
    </g>
    <g id="xtick_7">
     <g id="text_7">
      <!-- 6 -->
      <defs>
       <path d="M 49.75 54.046875 
L 41.015625 53.375 
Q 39.84375 58.546875 37.703125 60.890625 
Q 34.125 64.65625 28.90625 64.65625 
Q 24.703125 64.65625 21.53125 62.3125 
Q 17.390625 59.28125 14.984375 53.46875 
Q 12.59375 47.65625 12.5 36.921875 
Q 15.671875 41.75 20.265625 44.09375 
Q 24.859375 46.4375 29.890625 46.4375 
Q 38.671875 46.4375 44.84375 39.96875 
Q 51.03125 33.5 51.03125 23.25 
Q 51.03125 16.5 48.125 10.71875 
Q 45.21875 4.9375 40.140625 1.859375 
Q 35.0625 -1.21875 28.609375 -1.21875 
Q 17.625 -1.21875 10.6875 6.859375 
Q 3.765625 14.9375 3.765625 33.5 
Q 3.765625 54.25 11.421875 63.671875 
Q 18.109375 71.875 29.4375 71.875 
Q 37.890625 71.875 43.28125 67.140625 
Q 48.6875 62.40625 49.75 54.046875 
z
M 13.875 23.1875 
Q 13.875 18.65625 15.796875 14.5 
Q 17.71875 10.359375 21.1875 8.171875 
Q 24.65625 6 28.46875 6 
Q 34.03125 6 38.03125 10.484375 
Q 42.046875 14.984375 42.046875 22.703125 
Q 42.046875 30.125 38.078125 34.390625 
Q 34.125 38.671875 28.125 38.671875 
Q 22.171875 38.671875 18.015625 34.390625 
Q 13.875 30.125 13.875 23.1875 
z
" id="ArialMT-54"/>
      </defs>
      <g style="fill:#262626;" transform="translate(310.463437 330.589375)scale(0.12 -0.12)">
       <use xlink:href="#ArialMT-54"/>
      </g>
     </g>
    </g>
    <g id="xtick_8">
     <g id="text_8">
      <!-- 7 -->
      <defs>
       <path d="M 4.734375 62.203125 
L 4.734375 70.65625 
L 51.078125 70.65625 
L 51.078125 63.8125 
Q 44.234375 56.546875 37.515625 44.484375 
Q 30.8125 32.421875 27.15625 19.671875 
Q 24.515625 10.6875 23.78125 0 
L 14.75 0 
Q 14.890625 8.453125 18.0625 20.40625 
Q 21.234375 32.375 27.171875 43.484375 
Q 33.109375 54.59375 39.796875 62.203125 
z
" id="ArialMT-55"/>
      </defs>
      <g style="fill:#262626;" transform="translate(347.663437 330.589375)scale(0.12 -0.12)">
       <use xlink:href="#ArialMT-55"/>
      </g>
     </g>
    </g>
    <g id="xtick_9">
     <g id="text_9">
      <!-- 8 -->
      <defs>
       <path d="M 17.671875 38.8125 
Q 12.203125 40.828125 9.5625 44.53125 
Q 6.9375 48.25 6.9375 53.421875 
Q 6.9375 61.234375 12.546875 66.546875 
Q 18.171875 71.875 27.484375 71.875 
Q 36.859375 71.875 42.578125 66.421875 
Q 48.296875 60.984375 48.296875 53.171875 
Q 48.296875 48.1875 45.671875 44.5 
Q 43.0625 40.828125 37.75 38.8125 
Q 44.34375 36.671875 47.78125 31.875 
Q 51.21875 27.09375 51.21875 20.453125 
Q 51.21875 11.28125 44.71875 5.03125 
Q 38.234375 -1.21875 27.640625 -1.21875 
Q 17.046875 -1.21875 10.546875 5.046875 
Q 4.046875 11.328125 4.046875 20.703125 
Q 4.046875 27.6875 7.59375 32.390625 
Q 11.140625 37.109375 17.671875 38.8125 
z
M 15.921875 53.71875 
Q 15.921875 48.640625 19.1875 45.40625 
Q 22.46875 42.1875 27.6875 42.1875 
Q 32.765625 42.1875 36.015625 45.375 
Q 39.265625 48.578125 39.265625 53.21875 
Q 39.265625 58.0625 35.90625 61.359375 
Q 32.5625 64.65625 27.59375 64.65625 
Q 22.5625 64.65625 19.234375 61.421875 
Q 15.921875 58.203125 15.921875 53.71875 
z
M 13.09375 20.65625 
Q 13.09375 16.890625 14.875 13.375 
Q 16.65625 9.859375 20.171875 7.921875 
Q 23.6875 6 27.734375 6 
Q 34.03125 6 38.125 10.046875 
Q 42.234375 14.109375 42.234375 20.359375 
Q 42.234375 26.703125 38.015625 30.859375 
Q 33.796875 35.015625 27.4375 35.015625 
Q 21.234375 35.015625 17.15625 30.90625 
Q 13.09375 26.8125 13.09375 20.65625 
z
" id="ArialMT-56"/>
      </defs>
      <g style="fill:#262626;" transform="translate(384.863437 330.589375)scale(0.12 -0.12)">
       <use xlink:href="#ArialMT-56"/>
      </g>
     </g>
    </g>
    <g id="xtick_10">
     <g id="text_10">
      <!-- 9 -->
      <defs>
       <path d="M 5.46875 16.546875 
L 13.921875 17.328125 
Q 14.984375 11.375 18.015625 8.6875 
Q 21.046875 6 25.78125 6 
Q 29.828125 6 32.875 7.859375 
Q 35.9375 9.71875 37.890625 12.8125 
Q 39.84375 15.921875 41.15625 21.1875 
Q 42.484375 26.46875 42.484375 31.9375 
Q 42.484375 32.515625 42.4375 33.6875 
Q 39.796875 29.5 35.234375 26.875 
Q 30.671875 24.265625 25.34375 24.265625 
Q 16.453125 24.265625 10.296875 30.703125 
Q 4.15625 37.15625 4.15625 47.703125 
Q 4.15625 58.59375 10.578125 65.234375 
Q 17 71.875 26.65625 71.875 
Q 33.640625 71.875 39.421875 68.109375 
Q 45.21875 64.359375 48.21875 57.390625 
Q 51.21875 50.4375 51.21875 37.25 
Q 51.21875 23.53125 48.234375 15.40625 
Q 45.265625 7.28125 39.375 3.03125 
Q 33.5 -1.21875 25.59375 -1.21875 
Q 17.1875 -1.21875 11.859375 3.4375 
Q 6.546875 8.109375 5.46875 16.546875 
z
M 41.453125 48.140625 
Q 41.453125 55.71875 37.421875 60.15625 
Q 33.40625 64.59375 27.734375 64.59375 
Q 21.875 64.59375 17.53125 59.8125 
Q 13.1875 55.03125 13.1875 47.40625 
Q 13.1875 40.578125 17.3125 36.296875 
Q 21.4375 32.03125 27.484375 32.03125 
Q 33.59375 32.03125 37.515625 36.296875 
Q 41.453125 40.578125 41.453125 48.140625 
z
" id="ArialMT-57"/>
      </defs>
      <g style="fill:#262626;" transform="translate(422.063437 330.589375)scale(0.12 -0.12)">
       <use xlink:href="#ArialMT-57"/>
      </g>
     </g>
    </g>
    <g id="xtick_11">
     <g id="text_11">
      <!-- 15 -->
      <g style="fill:#262626;" transform="translate(455.926875 330.589375)scale(0.12 -0.12)">
       <use xlink:href="#ArialMT-49"/>
       <use x="55.615234" xlink:href="#ArialMT-53"/>
      </g>
     </g>
    </g>
    <g id="xtick_12">
     <g id="text_12">
      <!-- 38 -->
      <g style="fill:#262626;" transform="translate(493.126875 330.589375)scale(0.12 -0.12)">
       <use xlink:href="#ArialMT-51"/>
       <use x="55.615234" xlink:href="#ArialMT-56"/>
      </g>
     </g>
    </g>
    <g id="text_13">
     <!-- Day -->
     <defs>
      <path d="M 7.71875 0 
L 7.71875 71.578125 
L 32.375 71.578125 
Q 40.71875 71.578125 45.125 70.5625 
Q 51.265625 69.140625 55.609375 65.4375 
Q 61.28125 60.640625 64.078125 53.1875 
Q 66.890625 45.75 66.890625 36.1875 
Q 66.890625 28.03125 64.984375 21.734375 
Q 63.09375 15.4375 60.109375 11.296875 
Q 57.125 7.171875 53.578125 4.796875 
Q 50.046875 2.4375 45.046875 1.21875 
Q 40.046875 0 33.546875 0 
z
M 17.1875 8.453125 
L 32.46875 8.453125 
Q 39.546875 8.453125 43.578125 9.765625 
Q 47.609375 11.078125 50 13.484375 
Q 53.375 16.84375 55.25 22.53125 
Q 57.125 28.21875 57.125 36.328125 
Q 57.125 47.5625 53.4375 53.59375 
Q 49.75 59.625 44.484375 61.671875 
Q 40.671875 63.140625 32.234375 63.140625 
L 17.1875 63.140625 
z
" id="ArialMT-68"/>
      <path d="M 40.4375 6.390625 
Q 35.546875 2.25 31.03125 0.53125 
Q 26.515625 -1.171875 21.34375 -1.171875 
Q 12.796875 -1.171875 8.203125 3 
Q 3.609375 7.171875 3.609375 13.671875 
Q 3.609375 17.484375 5.34375 20.625 
Q 7.078125 23.78125 9.890625 25.6875 
Q 12.703125 27.59375 16.21875 28.5625 
Q 18.796875 29.25 24.03125 29.890625 
Q 34.671875 31.15625 39.703125 32.90625 
Q 39.75 34.71875 39.75 35.203125 
Q 39.75 40.578125 37.25 42.78125 
Q 33.890625 45.75 27.25 45.75 
Q 21.046875 45.75 18.09375 43.578125 
Q 15.140625 41.40625 13.71875 35.890625 
L 5.125 37.0625 
Q 6.296875 42.578125 8.984375 45.96875 
Q 11.671875 49.359375 16.75 51.1875 
Q 21.828125 53.03125 28.515625 53.03125 
Q 35.15625 53.03125 39.296875 51.46875 
Q 43.453125 49.90625 45.40625 47.53125 
Q 47.359375 45.171875 48.140625 41.546875 
Q 48.578125 39.3125 48.578125 33.453125 
L 48.578125 21.734375 
Q 48.578125 9.46875 49.140625 6.21875 
Q 49.703125 2.984375 51.375 0 
L 42.1875 0 
Q 40.828125 2.734375 40.4375 6.390625 
z
M 39.703125 26.03125 
Q 34.90625 24.078125 25.34375 22.703125 
Q 19.921875 21.921875 17.671875 20.9375 
Q 15.4375 19.96875 14.203125 18.09375 
Q 12.984375 16.21875 12.984375 13.921875 
Q 12.984375 10.40625 15.640625 8.0625 
Q 18.3125 5.71875 23.4375 5.71875 
Q 28.515625 5.71875 32.46875 7.9375 
Q 36.421875 10.15625 38.28125 14.015625 
Q 39.703125 17 39.703125 22.796875 
z
" id="ArialMT-97"/>
      <path d="M 6.203125 -19.96875 
L 5.21875 -11.71875 
Q 8.109375 -12.5 10.25 -12.5 
Q 13.1875 -12.5 14.9375 -11.515625 
Q 16.703125 -10.546875 17.828125 -8.796875 
Q 18.65625 -7.46875 20.515625 -2.25 
Q 20.75 -1.515625 21.296875 -0.09375 
L 1.609375 51.859375 
L 11.078125 51.859375 
L 21.875 21.828125 
Q 23.96875 16.109375 25.640625 9.8125 
Q 27.15625 15.875 29.25 21.625 
L 40.328125 51.859375 
L 49.125 51.859375 
L 29.390625 -0.875 
Q 26.21875 -9.421875 24.46875 -12.640625 
Q 22.125 -17 19.09375 -19.015625 
Q 16.0625 -21.046875 11.859375 -21.046875 
Q 9.328125 -21.046875 6.203125 -19.96875 
z
" id="ArialMT-121"/>
     </defs>
     <g style="fill:#262626;" transform="translate(281.862891 347.711094)scale(0.15 -0.15)">
      <use xlink:href="#ArialMT-68"/>
      <use x="72.216797" xlink:href="#ArialMT-97"/>
      <use x="127.832031" xlink:href="#ArialMT-121"/>
     </g>
    </g>
   </g>
   <g id="matplotlib.axis_2">
    <g id="ytick_1">
     <g id="text_14">
      <!-- 50 -->
      <g style="fill:#262626;" transform="translate(51.65375 296.525321)scale(0.12 -0.12)">
       <use xlink:href="#ArialMT-53"/>
       <use x="55.615234" xlink:href="#ArialMT-48"/>
      </g>
     </g>
    </g>
    <g id="ytick_2">
     <g id="text_15">
      <!-- 100 -->
      <g style="fill:#262626;" transform="translate(44.980625 246.901186)scale(0.12 -0.12)">
       <use xlink:href="#ArialMT-49"/>
       <use x="55.615234" xlink:href="#ArialMT-48"/>
       <use x="111.230469" xlink:href="#ArialMT-48"/>
      </g>
     </g>
    </g>
    <g id="ytick_3">
     <g id="text_16">
      <!-- 150 -->
      <g style="fill:#262626;" transform="translate(44.980625 197.27705)scale(0.12 -0.12)">
       <use xlink:href="#ArialMT-49"/>
       <use x="55.615234" xlink:href="#ArialMT-53"/>
       <use x="111.230469" xlink:href="#ArialMT-48"/>
      </g>
     </g>
    </g>
    <g id="ytick_4">
     <g id="text_17">
      <!-- 200 -->
      <g style="fill:#262626;" transform="translate(44.980625 147.652915)scale(0.12 -0.12)">
       <use xlink:href="#ArialMT-50"/>
       <use x="55.615234" xlink:href="#ArialMT-48"/>
       <use x="111.230469" xlink:href="#ArialMT-48"/>
      </g>
     </g>
    </g>
    <g id="ytick_5">
     <g id="text_18">
      <!-- 250 -->
      <g style="fill:#262626;" transform="translate(44.980625 98.028779)scale(0.12 -0.12)">
       <use xlink:href="#ArialMT-50"/>
       <use x="55.615234" xlink:href="#ArialMT-53"/>
       <use x="111.230469" xlink:href="#ArialMT-48"/>
      </g>
     </g>
    </g>
    <g id="ytick_6">
     <g id="text_19">
      <!-- 300 -->
      <g style="fill:#262626;" transform="translate(44.980625 48.404644)scale(0.12 -0.12)">
       <use xlink:href="#ArialMT-51"/>
       <use x="55.615234" xlink:href="#ArialMT-48"/>
       <use x="111.230469" xlink:href="#ArialMT-48"/>
      </g>
     </g>
    </g>
    <g id="text_20">
     <!-- Observed Otus -->
     <defs>
      <path d="M 4.828125 34.859375 
Q 4.828125 52.6875 14.390625 62.765625 
Q 23.96875 72.859375 39.109375 72.859375 
Q 49.03125 72.859375 56.984375 68.109375 
Q 64.9375 63.375 69.109375 54.90625 
Q 73.296875 46.4375 73.296875 35.6875 
Q 73.296875 24.8125 68.890625 16.21875 
Q 64.5 7.625 56.4375 3.203125 
Q 48.390625 -1.21875 39.0625 -1.21875 
Q 28.953125 -1.21875 20.984375 3.65625 
Q 13.03125 8.546875 8.921875 16.984375 
Q 4.828125 25.4375 4.828125 34.859375 
z
M 14.59375 34.71875 
Q 14.59375 21.78125 21.546875 14.328125 
Q 28.515625 6.890625 39.015625 6.890625 
Q 49.703125 6.890625 56.609375 14.40625 
Q 63.53125 21.921875 63.53125 35.75 
Q 63.53125 44.484375 60.578125 51 
Q 57.625 57.515625 51.921875 61.109375 
Q 46.234375 64.703125 39.15625 64.703125 
Q 29.109375 64.703125 21.84375 57.78125 
Q 14.59375 50.875 14.59375 34.71875 
z
" id="ArialMT-79"/>
      <path d="M 14.703125 0 
L 6.546875 0 
L 6.546875 71.578125 
L 15.328125 71.578125 
L 15.328125 46.046875 
Q 20.90625 53.03125 29.546875 53.03125 
Q 34.328125 53.03125 38.59375 51.09375 
Q 42.875 49.171875 45.625 45.671875 
Q 48.390625 42.1875 49.953125 37.25 
Q 51.515625 32.328125 51.515625 26.703125 
Q 51.515625 13.375 44.921875 6.09375 
Q 38.328125 -1.171875 29.109375 -1.171875 
Q 19.921875 -1.171875 14.703125 6.5 
z
M 14.59375 26.3125 
Q 14.59375 17 17.140625 12.84375 
Q 21.296875 6.0625 28.375 6.0625 
Q 34.125 6.0625 38.328125 11.0625 
Q 42.53125 16.0625 42.53125 25.984375 
Q 42.53125 36.140625 38.5 40.96875 
Q 34.46875 45.796875 28.765625 45.796875 
Q 23 45.796875 18.796875 40.796875 
Q 14.59375 35.796875 14.59375 26.3125 
z
" id="ArialMT-98"/>
      <path d="M 3.078125 15.484375 
L 11.765625 16.84375 
Q 12.5 11.625 15.84375 8.84375 
Q 19.1875 6.0625 25.203125 6.0625 
Q 31.25 6.0625 34.171875 8.515625 
Q 37.109375 10.984375 37.109375 14.3125 
Q 37.109375 17.28125 34.515625 19 
Q 32.71875 20.171875 25.53125 21.96875 
Q 15.875 24.421875 12.140625 26.203125 
Q 8.40625 27.984375 6.46875 31.125 
Q 4.546875 34.28125 4.546875 38.09375 
Q 4.546875 41.546875 6.125 44.5 
Q 7.71875 47.46875 10.453125 49.421875 
Q 12.5 50.921875 16.03125 51.96875 
Q 19.578125 53.03125 23.640625 53.03125 
Q 29.734375 53.03125 34.34375 51.265625 
Q 38.96875 49.515625 41.15625 46.5 
Q 43.359375 43.5 44.1875 38.484375 
L 35.59375 37.3125 
Q 35.015625 41.3125 32.203125 43.546875 
Q 29.390625 45.796875 24.265625 45.796875 
Q 18.21875 45.796875 15.625 43.796875 
Q 13.03125 41.796875 13.03125 39.109375 
Q 13.03125 37.40625 14.109375 36.03125 
Q 15.1875 34.625 17.484375 33.6875 
Q 18.796875 33.203125 25.25 31.453125 
Q 34.578125 28.953125 38.25 27.359375 
Q 41.9375 25.78125 44.03125 22.75 
Q 46.140625 19.734375 46.140625 15.234375 
Q 46.140625 10.84375 43.578125 6.953125 
Q 41.015625 3.078125 36.171875 0.953125 
Q 31.34375 -1.171875 25.25 -1.171875 
Q 15.140625 -1.171875 9.84375 3.03125 
Q 4.546875 7.234375 3.078125 15.484375 
z
" id="ArialMT-115"/>
      <path d="M 42.09375 16.703125 
L 51.171875 15.578125 
Q 49.03125 7.625 43.21875 3.21875 
Q 37.40625 -1.171875 28.375 -1.171875 
Q 17 -1.171875 10.328125 5.828125 
Q 3.65625 12.84375 3.65625 25.484375 
Q 3.65625 38.578125 10.390625 45.796875 
Q 17.140625 53.03125 27.875 53.03125 
Q 38.28125 53.03125 44.875 45.953125 
Q 51.46875 38.875 51.46875 26.03125 
Q 51.46875 25.25 51.421875 23.6875 
L 12.75 23.6875 
Q 13.234375 15.140625 17.578125 10.59375 
Q 21.921875 6.0625 28.421875 6.0625 
Q 33.25 6.0625 36.671875 8.59375 
Q 40.09375 11.140625 42.09375 16.703125 
z
M 13.234375 30.90625 
L 42.1875 30.90625 
Q 41.609375 37.453125 38.875 40.71875 
Q 34.671875 45.796875 27.984375 45.796875 
Q 21.921875 45.796875 17.796875 41.75 
Q 13.671875 37.703125 13.234375 30.90625 
z
" id="ArialMT-101"/>
      <path d="M 6.5 0 
L 6.5 51.859375 
L 14.40625 51.859375 
L 14.40625 44 
Q 17.4375 49.515625 20 51.265625 
Q 22.5625 53.03125 25.640625 53.03125 
Q 30.078125 53.03125 34.671875 50.203125 
L 31.640625 42.046875 
Q 28.421875 43.953125 25.203125 43.953125 
Q 22.3125 43.953125 20.015625 42.21875 
Q 17.71875 40.484375 16.75 37.40625 
Q 15.28125 32.71875 15.28125 27.15625 
L 15.28125 0 
z
" id="ArialMT-114"/>
      <path d="M 21 0 
L 1.265625 51.859375 
L 10.546875 51.859375 
L 21.6875 20.796875 
Q 23.484375 15.765625 25 10.359375 
Q 26.171875 14.453125 28.265625 20.21875 
L 39.796875 51.859375 
L 48.828125 51.859375 
L 29.203125 0 
z
" id="ArialMT-118"/>
      <path d="M 40.234375 0 
L 40.234375 6.546875 
Q 35.296875 -1.171875 25.734375 -1.171875 
Q 19.53125 -1.171875 14.328125 2.25 
Q 9.125 5.671875 6.265625 11.796875 
Q 3.421875 17.921875 3.421875 25.875 
Q 3.421875 33.640625 6 39.96875 
Q 8.59375 46.296875 13.765625 49.65625 
Q 18.953125 53.03125 25.34375 53.03125 
Q 30.03125 53.03125 33.6875 51.046875 
Q 37.359375 49.078125 39.65625 45.90625 
L 39.65625 71.578125 
L 48.390625 71.578125 
L 48.390625 0 
z
M 12.453125 25.875 
Q 12.453125 15.921875 16.640625 10.984375 
Q 20.84375 6.0625 26.5625 6.0625 
Q 32.328125 6.0625 36.34375 10.765625 
Q 40.375 15.484375 40.375 25.140625 
Q 40.375 35.796875 36.265625 40.765625 
Q 32.171875 45.75 26.171875 45.75 
Q 20.3125 45.75 16.375 40.96875 
Q 12.453125 36.1875 12.453125 25.875 
z
" id="ArialMT-100"/>
      <path id="ArialMT-32"/>
      <path d="M 25.78125 7.859375 
L 27.046875 0.09375 
Q 23.34375 -0.6875 20.40625 -0.6875 
Q 15.625 -0.6875 12.984375 0.828125 
Q 10.359375 2.34375 9.28125 4.8125 
Q 8.203125 7.28125 8.203125 15.1875 
L 8.203125 45.015625 
L 1.765625 45.015625 
L 1.765625 51.859375 
L 8.203125 51.859375 
L 8.203125 64.703125 
L 16.9375 69.96875 
L 16.9375 51.859375 
L 25.78125 51.859375 
L 25.78125 45.015625 
L 16.9375 45.015625 
L 16.9375 14.703125 
Q 16.9375 10.9375 17.40625 9.859375 
Q 17.875 8.796875 18.921875 8.15625 
Q 19.96875 7.515625 21.921875 7.515625 
Q 23.390625 7.515625 25.78125 7.859375 
z
" id="ArialMT-116"/>
      <path d="M 40.578125 0 
L 40.578125 7.625 
Q 34.515625 -1.171875 24.125 -1.171875 
Q 19.53125 -1.171875 15.546875 0.578125 
Q 11.578125 2.34375 9.640625 5 
Q 7.71875 7.671875 6.9375 11.53125 
Q 6.390625 14.109375 6.390625 19.734375 
L 6.390625 51.859375 
L 15.1875 51.859375 
L 15.1875 23.09375 
Q 15.1875 16.21875 15.71875 13.8125 
Q 16.546875 10.359375 19.234375 8.375 
Q 21.921875 6.390625 25.875 6.390625 
Q 29.828125 6.390625 33.296875 8.421875 
Q 36.765625 10.453125 38.203125 13.9375 
Q 39.65625 17.4375 39.65625 24.078125 
L 39.65625 51.859375 
L 48.4375 51.859375 
L 48.4375 0 
z
" id="ArialMT-117"/>
     </defs>
     <g style="fill:#262626;" transform="translate(38.396875 222.810469)rotate(-90)scale(0.13 -0.13)">
      <use xlink:href="#ArialMT-79"/>
      <use x="77.783203" xlink:href="#ArialMT-98"/>
      <use x="133.398438" xlink:href="#ArialMT-115"/>
      <use x="183.398438" xlink:href="#ArialMT-101"/>
      <use x="239.013672" xlink:href="#ArialMT-114"/>
      <use x="272.314453" xlink:href="#ArialMT-118"/>
      <use x="322.314453" xlink:href="#ArialMT-101"/>
      <use x="377.929688" xlink:href="#ArialMT-100"/>
      <use x="433.544922" xlink:href="#ArialMT-32"/>
      <use x="461.328125" xlink:href="#ArialMT-79"/>
      <use x="539.111328" xlink:href="#ArialMT-116"/>
      <use x="566.894531" xlink:href="#ArialMT-117"/>
      <use x="622.509766" xlink:href="#ArialMT-115"/>
     </g>
    </g>
   </g>
   <g id="patch_3">
    <path clip-path="url(#p7fe685f4cb)" d="M 75.72 210.847052 
L 105.48 210.847052 
L 105.48 155.764261 
L 75.72 155.764261 
L 75.72 210.847052 
z
" style="fill:#ffffff;stroke:#4d4d4d;stroke-linejoin:miter;stroke-width:1.5;"/>
   </g>
   <g id="patch_4">
    <path clip-path="url(#p7fe685f4cb)" d="M 112.92 213.8245 
L 142.68 213.8245 
L 142.68 163.952244 
L 112.92 163.952244 
L 112.92 213.8245 
z
" style="fill:#ffffff;stroke:#4d4d4d;stroke-linejoin:miter;stroke-width:1.5;"/>
   </g>
   <g id="patch_5">
    <path clip-path="url(#p7fe685f4cb)" d="M 150.12 201.914707 
L 179.88 201.914707 
L 179.88 150.305606 
L 150.12 150.305606 
L 150.12 201.914707 
z
" style="fill:#808080;stroke:#4d4d4d;stroke-linejoin:miter;stroke-width:1.5;"/>
   </g>
   <g id="patch_6">
    <path clip-path="url(#p7fe685f4cb)" d="M 187.32 210.847052 
L 217.08 210.847052 
L 217.08 165.689088 
L 187.32 165.689088 
L 187.32 210.847052 
z
" style="fill:#808080;stroke:#4d4d4d;stroke-linejoin:miter;stroke-width:1.5;"/>
   </g>
   <g id="patch_7">
    <path clip-path="url(#p7fe685f4cb)" d="M 224.52 255.508774 
L 254.28 255.508774 
L 254.28 168.170295 
L 224.52 168.170295 
L 224.52 255.508774 
z
" style="fill:#808080;stroke:#4d4d4d;stroke-linejoin:miter;stroke-width:1.5;"/>
   </g>
   <g id="patch_8">
    <path clip-path="url(#p7fe685f4cb)" d="M 261.72 262.456153 
L 291.48 262.456153 
L 291.48 214.320741 
L 261.72 214.320741 
L 261.72 262.456153 
z
" style="fill:#808080;stroke:#4d4d4d;stroke-linejoin:miter;stroke-width:1.5;"/>
   </g>
   <g id="patch_9">
    <path clip-path="url(#p7fe685f4cb)" d="M 298.92 262.456153 
L 328.68 262.456153 
L 328.68 197.696656 
L 298.92 197.696656 
L 298.92 262.456153 
z
" style="fill:#808080;stroke:#4d4d4d;stroke-linejoin:miter;stroke-width:1.5;"/>
   </g>
   <g id="patch_10">
    <path clip-path="url(#p7fe685f4cb)" d="M 336.12 260.471187 
L 365.88 260.471187 
L 365.88 207.869604 
L 336.12 207.869604 
L 336.12 260.471187 
z
" style="fill:#808080;stroke:#4d4d4d;stroke-linejoin:miter;stroke-width:1.5;"/>
   </g>
   <g id="patch_11">
    <path clip-path="url(#p7fe685f4cb)" d="M 373.32 261.46367 
L 403.08 261.46367 
L 403.08 193.974846 
L 373.32 193.974846 
L 373.32 261.46367 
z
" style="fill:#808080;stroke:#4d4d4d;stroke-linejoin:miter;stroke-width:1.5;"/>
   </g>
   <g id="patch_12">
    <path clip-path="url(#p7fe685f4cb)" d="M 410.52 270.892256 
L 440.28 270.892256 
L 440.28 203.899673 
L 410.52 203.899673 
L 410.52 270.892256 
z
" style="fill:#ffffff;stroke:#4d4d4d;stroke-linejoin:miter;stroke-width:1.5;"/>
   </g>
   <g id="patch_13">
    <path clip-path="url(#p7fe685f4cb)" d="M 447.72 214.568862 
L 477.48 214.568862 
L 477.48 163.704123 
L 447.72 163.704123 
L 447.72 214.568862 
z
" style="fill:#ffffff;stroke:#4d4d4d;stroke-linejoin:miter;stroke-width:1.5;"/>
   </g>
   <g id="patch_14">
    <path clip-path="url(#p7fe685f4cb)" d="M 484.92 204.892155 
L 514.68 204.892155 
L 514.68 149.809365 
L 484.92 149.809365 
L 484.92 204.892155 
z
" style="fill:#ffffff;stroke:#4d4d4d;stroke-linejoin:miter;stroke-width:1.5;"/>
   </g>
   <g id="line2d_1">
    <path clip-path="url(#p7fe685f4cb)" d="M 90.6 210.847052 
L 90.6 251.538843 
" style="fill:none;stroke:#4d4d4d;stroke-linecap:round;stroke-width:1.5;"/>
   </g>
   <g id="line2d_2">
    <path clip-path="url(#p7fe685f4cb)" d="M 90.6 155.764261 
L 90.6 101.673954 
" style="fill:none;stroke:#4d4d4d;stroke-linecap:round;stroke-width:1.5;"/>
   </g>
   <g id="line2d_3">
    <path clip-path="url(#p7fe685f4cb)" d="M 83.16 251.538843 
L 98.04 251.538843 
" style="fill:none;stroke:#4d4d4d;stroke-linecap:round;stroke-width:1.5;"/>
   </g>
   <g id="line2d_4">
    <path clip-path="url(#p7fe685f4cb)" d="M 83.16 101.673954 
L 98.04 101.673954 
" style="fill:none;stroke:#4d4d4d;stroke-linecap:round;stroke-width:1.5;"/>
   </g>
   <g id="line2d_5"/>
   <g id="line2d_6">
    <path clip-path="url(#p7fe685f4cb)" d="M 127.8 213.8245 
L 127.8 257.493739 
" style="fill:none;stroke:#4d4d4d;stroke-linecap:round;stroke-width:1.5;"/>
   </g>
   <g id="line2d_7">
    <path clip-path="url(#p7fe685f4cb)" d="M 127.8 163.952244 
L 127.8 150.305606 
" style="fill:none;stroke:#4d4d4d;stroke-linecap:round;stroke-width:1.5;"/>
   </g>
   <g id="line2d_8">
    <path clip-path="url(#p7fe685f4cb)" d="M 120.36 257.493739 
L 135.24 257.493739 
" style="fill:none;stroke:#4d4d4d;stroke-linecap:round;stroke-width:1.5;"/>
   </g>
   <g id="line2d_9">
    <path clip-path="url(#p7fe685f4cb)" d="M 120.36 150.305606 
L 135.24 150.305606 
" style="fill:none;stroke:#4d4d4d;stroke-linecap:round;stroke-width:1.5;"/>
   </g>
   <g id="line2d_10">
    <defs>
     <path d="M -0 3.535534 
L 2.12132 0 
L -0 -3.535534 
L -2.12132 -0 
z
" id="mbef0b62b19" style="stroke:#4d4d4d;stroke-linejoin:miter;"/>
    </defs>
    <g clip-path="url(#p7fe685f4cb)">
     <use style="fill:#4d4d4d;stroke:#4d4d4d;stroke-linejoin:miter;" x="127.8" xlink:href="#mbef0b62b19" y="58.004714"/>
    </g>
   </g>
   <g id="line2d_11">
    <path clip-path="url(#p7fe685f4cb)" d="M 165 201.914707 
L 165 244.591464 
" style="fill:none;stroke:#4d4d4d;stroke-linecap:round;stroke-width:1.5;"/>
   </g>
   <g id="line2d_12">
    <path clip-path="url(#p7fe685f4cb)" d="M 165 150.305606 
L 165 137.403331 
" style="fill:none;stroke:#4d4d4d;stroke-linecap:round;stroke-width:1.5;"/>
   </g>
   <g id="line2d_13">
    <path clip-path="url(#p7fe685f4cb)" d="M 157.56 244.591464 
L 172.44 244.591464 
" style="fill:none;stroke:#4d4d4d;stroke-linecap:round;stroke-width:1.5;"/>
   </g>
   <g id="line2d_14">
    <path clip-path="url(#p7fe685f4cb)" d="M 157.56 137.403331 
L 172.44 137.403331 
" style="fill:none;stroke:#4d4d4d;stroke-linecap:round;stroke-width:1.5;"/>
   </g>
   <g id="line2d_15">
    <g clip-path="url(#p7fe685f4cb)">
     <use style="fill:#4d4d4d;stroke:#4d4d4d;stroke-linejoin:miter;" x="165" xlink:href="#mbef0b62b19" y="68.922024"/>
    </g>
   </g>
   <g id="line2d_16">
    <path clip-path="url(#p7fe685f4cb)" d="M 202.2 210.847052 
L 202.2 264.441118 
" style="fill:none;stroke:#4d4d4d;stroke-linecap:round;stroke-width:1.5;"/>
   </g>
   <g id="line2d_17">
    <path clip-path="url(#p7fe685f4cb)" d="M 202.2 165.689088 
L 202.2 100.681471 
" style="fill:none;stroke:#4d4d4d;stroke-linecap:round;stroke-width:1.5;"/>
   </g>
   <g id="line2d_18">
    <path clip-path="url(#p7fe685f4cb)" d="M 194.76 264.441118 
L 209.64 264.441118 
" style="fill:none;stroke:#4d4d4d;stroke-linecap:round;stroke-width:1.5;"/>
   </g>
   <g id="line2d_19">
    <path clip-path="url(#p7fe685f4cb)" d="M 194.76 100.681471 
L 209.64 100.681471 
" style="fill:none;stroke:#4d4d4d;stroke-linecap:round;stroke-width:1.5;"/>
   </g>
   <g id="line2d_20"/>
   <g id="line2d_21">
    <path clip-path="url(#p7fe685f4cb)" d="M 239.4 255.508774 
L 239.4 275.358428 
" style="fill:none;stroke:#4d4d4d;stroke-linecap:round;stroke-width:1.5;"/>
   </g>
   <g id="line2d_22">
    <path clip-path="url(#p7fe685f4cb)" d="M 239.4 168.170295 
L 239.4 83.809265 
" style="fill:none;stroke:#4d4d4d;stroke-linecap:round;stroke-width:1.5;"/>
   </g>
   <g id="line2d_23">
    <path clip-path="url(#p7fe685f4cb)" d="M 231.96 275.358428 
L 246.84 275.358428 
" style="fill:none;stroke:#4d4d4d;stroke-linecap:round;stroke-width:1.5;"/>
   </g>
   <g id="line2d_24">
    <path clip-path="url(#p7fe685f4cb)" d="M 231.96 83.809265 
L 246.84 83.809265 
" style="fill:none;stroke:#4d4d4d;stroke-linecap:round;stroke-width:1.5;"/>
   </g>
   <g id="line2d_25"/>
   <g id="line2d_26">
    <path clip-path="url(#p7fe685f4cb)" d="M 276.6 262.456153 
L 276.6 281.313324 
" style="fill:none;stroke:#4d4d4d;stroke-linecap:round;stroke-width:1.5;"/>
   </g>
   <g id="line2d_27">
    <path clip-path="url(#p7fe685f4cb)" d="M 276.6 214.320741 
L 276.6 171.147743 
" style="fill:none;stroke:#4d4d4d;stroke-linecap:round;stroke-width:1.5;"/>
   </g>
   <g id="line2d_28">
    <path clip-path="url(#p7fe685f4cb)" d="M 269.16 281.313324 
L 284.04 281.313324 
" style="fill:none;stroke:#4d4d4d;stroke-linecap:round;stroke-width:1.5;"/>
   </g>
   <g id="line2d_29">
    <path clip-path="url(#p7fe685f4cb)" d="M 269.16 171.147743 
L 284.04 171.147743 
" style="fill:none;stroke:#4d4d4d;stroke-linecap:round;stroke-width:1.5;"/>
   </g>
   <g id="line2d_30"/>
   <g id="line2d_31">
    <path clip-path="url(#p7fe685f4cb)" d="M 313.8 262.456153 
L 313.8 279.328359 
" style="fill:none;stroke:#4d4d4d;stroke-linecap:round;stroke-width:1.5;"/>
   </g>
   <g id="line2d_32">
    <path clip-path="url(#p7fe685f4cb)" d="M 313.8 197.696656 
L 313.8 113.583746 
" style="fill:none;stroke:#4d4d4d;stroke-linecap:round;stroke-width:1.5;"/>
   </g>
   <g id="line2d_33">
    <path clip-path="url(#p7fe685f4cb)" d="M 306.36 279.328359 
L 321.24 279.328359 
" style="fill:none;stroke:#4d4d4d;stroke-linecap:round;stroke-width:1.5;"/>
   </g>
   <g id="line2d_34">
    <path clip-path="url(#p7fe685f4cb)" d="M 306.36 113.583746 
L 321.24 113.583746 
" style="fill:none;stroke:#4d4d4d;stroke-linecap:round;stroke-width:1.5;"/>
   </g>
   <g id="line2d_35"/>
   <g id="line2d_36">
    <path clip-path="url(#p7fe685f4cb)" d="M 351 260.471187 
L 351 296.200565 
" style="fill:none;stroke:#4d4d4d;stroke-linecap:round;stroke-width:1.5;"/>
   </g>
   <g id="line2d_37">
    <path clip-path="url(#p7fe685f4cb)" d="M 351 207.869604 
L 351 180.080088 
" style="fill:none;stroke:#4d4d4d;stroke-linecap:round;stroke-width:1.5;"/>
   </g>
   <g id="line2d_38">
    <path clip-path="url(#p7fe685f4cb)" d="M 343.56 296.200565 
L 358.44 296.200565 
" style="fill:none;stroke:#4d4d4d;stroke-linecap:round;stroke-width:1.5;"/>
   </g>
   <g id="line2d_39">
    <path clip-path="url(#p7fe685f4cb)" d="M 343.56 180.080088 
L 358.44 180.080088 
" style="fill:none;stroke:#4d4d4d;stroke-linecap:round;stroke-width:1.5;"/>
   </g>
   <g id="line2d_40">
    <g clip-path="url(#p7fe685f4cb)">
     <use style="fill:#4d4d4d;stroke:#4d4d4d;stroke-linejoin:miter;" x="351" xlink:href="#mbef0b62b19" y="120.531125"/>
    </g>
   </g>
   <g id="line2d_41">
    <path clip-path="url(#p7fe685f4cb)" d="M 388.2 261.46367 
L 388.2 300.170496 
" style="fill:none;stroke:#4d4d4d;stroke-linecap:round;stroke-width:1.5;"/>
   </g>
   <g id="line2d_42">
    <path clip-path="url(#p7fe685f4cb)" d="M 388.2 193.974846 
L 388.2 107.62885 
" style="fill:none;stroke:#4d4d4d;stroke-linecap:round;stroke-width:1.5;"/>
   </g>
   <g id="line2d_43">
    <path clip-path="url(#p7fe685f4cb)" d="M 380.76 300.170496 
L 395.64 300.170496 
" style="fill:none;stroke:#4d4d4d;stroke-linecap:round;stroke-width:1.5;"/>
   </g>
   <g id="line2d_44">
    <path clip-path="url(#p7fe685f4cb)" d="M 380.76 107.62885 
L 395.64 107.62885 
" style="fill:none;stroke:#4d4d4d;stroke-linecap:round;stroke-width:1.5;"/>
   </g>
   <g id="line2d_45"/>
   <g id="line2d_46">
    <path clip-path="url(#p7fe685f4cb)" d="M 425.4 270.892256 
L 425.4 289.253186 
" style="fill:none;stroke:#4d4d4d;stroke-linecap:round;stroke-width:1.5;"/>
   </g>
   <g id="line2d_47">
    <path clip-path="url(#p7fe685f4cb)" d="M 425.4 203.899673 
L 425.4 128.470987 
" style="fill:none;stroke:#4d4d4d;stroke-linecap:round;stroke-width:1.5;"/>
   </g>
   <g id="line2d_48">
    <path clip-path="url(#p7fe685f4cb)" d="M 417.96 289.253186 
L 432.84 289.253186 
" style="fill:none;stroke:#4d4d4d;stroke-linecap:round;stroke-width:1.5;"/>
   </g>
   <g id="line2d_49">
    <path clip-path="url(#p7fe685f4cb)" d="M 417.96 128.470987 
L 432.84 128.470987 
" style="fill:none;stroke:#4d4d4d;stroke-linecap:round;stroke-width:1.5;"/>
   </g>
   <g id="line2d_50"/>
   <g id="line2d_51">
    <path clip-path="url(#p7fe685f4cb)" d="M 462.6 214.568862 
L 462.6 223.749327 
" style="fill:none;stroke:#4d4d4d;stroke-linecap:round;stroke-width:1.5;"/>
   </g>
   <g id="line2d_52">
    <path clip-path="url(#p7fe685f4cb)" d="M 462.6 163.704123 
L 462.6 149.313124 
" style="fill:none;stroke:#4d4d4d;stroke-linecap:round;stroke-width:1.5;"/>
   </g>
   <g id="line2d_53">
    <path clip-path="url(#p7fe685f4cb)" d="M 455.16 223.749327 
L 470.04 223.749327 
" style="fill:none;stroke:#4d4d4d;stroke-linecap:round;stroke-width:1.5;"/>
   </g>
   <g id="line2d_54">
    <path clip-path="url(#p7fe685f4cb)" d="M 455.16 149.313124 
L 470.04 149.313124 
" style="fill:none;stroke:#4d4d4d;stroke-linecap:round;stroke-width:1.5;"/>
   </g>
   <g id="line2d_55">
    <g clip-path="url(#p7fe685f4cb)">
     <use style="fill:#4d4d4d;stroke:#4d4d4d;stroke-linejoin:miter;" x="462.6" xlink:href="#mbef0b62b19" y="82.816782"/>
    </g>
   </g>
   <g id="line2d_56">
    <path clip-path="url(#p7fe685f4cb)" d="M 499.8 204.892155 
L 499.8 233.674154 
" style="fill:none;stroke:#4d4d4d;stroke-linecap:round;stroke-width:1.5;"/>
   </g>
   <g id="line2d_57">
    <path clip-path="url(#p7fe685f4cb)" d="M 499.8 149.809365 
L 499.8 70.90699 
" style="fill:none;stroke:#4d4d4d;stroke-linecap:round;stroke-width:1.5;"/>
   </g>
   <g id="line2d_58">
    <path clip-path="url(#p7fe685f4cb)" d="M 492.36 233.674154 
L 507.24 233.674154 
" style="fill:none;stroke:#4d4d4d;stroke-linecap:round;stroke-width:1.5;"/>
   </g>
   <g id="line2d_59">
    <path clip-path="url(#p7fe685f4cb)" d="M 492.36 70.90699 
L 507.24 70.90699 
" style="fill:none;stroke:#4d4d4d;stroke-linecap:round;stroke-width:1.5;"/>
   </g>
   <g id="line2d_60"/>
   <g id="line2d_61">
    <path clip-path="url(#p7fe685f4cb)" d="M 75.72 177.10264 
L 105.48 177.10264 
" style="fill:none;stroke:#4d4d4d;stroke-linecap:round;stroke-width:1.5;"/>
   </g>
   <g id="line2d_62">
    <path clip-path="url(#p7fe685f4cb)" d="M 112.92 179.583846 
L 142.68 179.583846 
" style="fill:none;stroke:#4d4d4d;stroke-linecap:round;stroke-width:1.5;"/>
   </g>
   <g id="line2d_63">
    <path clip-path="url(#p7fe685f4cb)" d="M 150.12 181.568812 
L 179.88 181.568812 
" style="fill:none;stroke:#4d4d4d;stroke-linecap:round;stroke-width:1.5;"/>
   </g>
   <g id="line2d_64">
    <path clip-path="url(#p7fe685f4cb)" d="M 187.32 187.523708 
L 217.08 187.523708 
" style="fill:none;stroke:#4d4d4d;stroke-linecap:round;stroke-width:1.5;"/>
   </g>
   <g id="line2d_65">
    <path clip-path="url(#p7fe685f4cb)" d="M 224.52 198.937259 
L 254.28 198.937259 
" style="fill:none;stroke:#4d4d4d;stroke-linecap:round;stroke-width:1.5;"/>
   </g>
   <g id="line2d_66">
    <path clip-path="url(#p7fe685f4cb)" d="M 261.72 255.508774 
L 291.48 255.508774 
" style="fill:none;stroke:#4d4d4d;stroke-linecap:round;stroke-width:1.5;"/>
   </g>
   <g id="line2d_67">
    <path clip-path="url(#p7fe685f4cb)" d="M 298.92 233.674154 
L 328.68 233.674154 
" style="fill:none;stroke:#4d4d4d;stroke-linecap:round;stroke-width:1.5;"/>
   </g>
   <g id="line2d_68">
    <path clip-path="url(#p7fe685f4cb)" d="M 336.12 233.674154 
L 365.88 233.674154 
" style="fill:none;stroke:#4d4d4d;stroke-linecap:round;stroke-width:1.5;"/>
   </g>
   <g id="line2d_69">
    <path clip-path="url(#p7fe685f4cb)" d="M 373.32 236.651602 
L 403.08 236.651602 
" style="fill:none;stroke:#4d4d4d;stroke-linecap:round;stroke-width:1.5;"/>
   </g>
   <g id="line2d_70">
    <path clip-path="url(#p7fe685f4cb)" d="M 410.52 235.659119 
L 440.28 235.659119 
" style="fill:none;stroke:#4d4d4d;stroke-linecap:round;stroke-width:1.5;"/>
   </g>
   <g id="line2d_71">
    <path clip-path="url(#p7fe685f4cb)" d="M 447.72 200.922225 
L 477.48 200.922225 
" style="fill:none;stroke:#4d4d4d;stroke-linecap:round;stroke-width:1.5;"/>
   </g>
   <g id="line2d_72">
    <path clip-path="url(#p7fe685f4cb)" d="M 484.92 176.110157 
L 514.68 176.110157 
" style="fill:none;stroke:#4d4d4d;stroke-linecap:round;stroke-width:1.5;"/>
   </g>
   <g id="patch_15">
    <path d="M 72 315 
L 72 43.2 
" style="fill:none;stroke:#262626;stroke-linecap:square;stroke-linejoin:miter;stroke-width:0.8;"/>
   </g>
   <g id="patch_16">
    <path d="M 518.4 315 
L 518.4 43.2 
" style="fill:none;stroke:#262626;stroke-linecap:square;stroke-linejoin:miter;stroke-width:0.8;"/>
   </g>
   <g id="patch_17">
    <path d="M 72 315 
L 518.4 315 
" style="fill:none;stroke:#262626;stroke-linecap:square;stroke-linejoin:miter;stroke-width:0.8;"/>
   </g>
   <g id="patch_18">
    <path d="M 72 43.2 
L 518.4 43.2 
" style="fill:none;stroke:#262626;stroke-linecap:square;stroke-linejoin:miter;stroke-width:0.8;"/>
   </g>
   <g id="PathCollection_1">
    <defs>
     <path d="M 0 2.5 
C 0.663008 2.5 1.29895 2.236584 1.767767 1.767767 
C 2.236584 1.29895 2.5 0.663008 2.5 0 
C 2.5 -0.663008 2.236584 -1.29895 1.767767 -1.767767 
C 1.29895 -2.236584 0.663008 -2.5 0 -2.5 
C -0.663008 -2.5 -1.29895 -2.236584 -1.767767 -1.767767 
C -2.236584 -1.29895 -2.5 -0.663008 -2.5 0 
C -2.5 0.663008 -2.236584 1.29895 -1.767767 1.767767 
C -1.29895 2.236584 -0.663008 2.5 0 2.5 
z
" id="C0_0_287bb5bed4"/>
    </defs>
    <g clip-path="url(#p7fe685f4cb)">
     <use x="90.6" xlink:href="#C0_0_287bb5bed4" y="251.538843"/>
    </g>
    <g clip-path="url(#p7fe685f4cb)">
     <use x="90.6" xlink:href="#C0_0_287bb5bed4" y="236.651602"/>
    </g>
    <g clip-path="url(#p7fe685f4cb)">
     <use x="90.6" xlink:href="#C0_0_287bb5bed4" y="228.71174"/>
    </g>
    <g clip-path="url(#p7fe685f4cb)">
     <use x="90.6" xlink:href="#C0_0_287bb5bed4" y="204.892155"/>
    </g>
    <g clip-path="url(#p7fe685f4cb)">
     <use x="85.35" xlink:href="#C0_0_287bb5bed4" y="204.892155"/>
    </g>
    <g clip-path="url(#p7fe685f4cb)">
     <use x="90.6" xlink:href="#C0_0_287bb5bed4" y="188.019949"/>
    </g>
    <g clip-path="url(#p7fe685f4cb)">
     <use x="90.6" xlink:href="#C0_0_287bb5bed4" y="166.18533"/>
    </g>
    <g clip-path="url(#p7fe685f4cb)">
     <use x="85.35" xlink:href="#C0_0_287bb5bed4" y="166.18533"/>
    </g>
    <g clip-path="url(#p7fe685f4cb)">
     <use x="90.6" xlink:href="#C0_0_287bb5bed4" y="158.245468"/>
    </g>
    <g clip-path="url(#p7fe685f4cb)">
     <use x="90.6" xlink:href="#C0_0_287bb5bed4" y="148.320641"/>
    </g>
    <g clip-path="url(#p7fe685f4cb)">
     <use x="87.408337" xlink:href="#C0_0_287bb5bed4" y="144.35071"/>
    </g>
    <g clip-path="url(#p7fe685f4cb)">
     <use x="90.6" xlink:href="#C0_0_287bb5bed4" y="101.673954"/>
    </g>
   </g>
   <g id="PathCollection_2">
    <defs>
     <path d="M 0 2.5 
C 0.663008 2.5 1.29895 2.236584 1.767767 1.767767 
C 2.236584 1.29895 2.5 0.663008 2.5 0 
C 2.5 -0.663008 2.236584 -1.29895 1.767767 -1.767767 
C 1.29895 -2.236584 0.663008 -2.5 0 -2.5 
C -0.663008 -2.5 -1.29895 -2.236584 -1.767767 -1.767767 
C -2.236584 -1.29895 -2.5 -0.663008 -2.5 0 
C -2.5 0.663008 -2.236584 1.29895 -1.767767 1.767767 
C -1.29895 2.236584 -0.663008 2.5 0 2.5 
z
" id="C1_0_f2dede9b82"/>
    </defs>
    <g clip-path="url(#p7fe685f4cb)">
     <use x="127.8" xlink:href="#C1_0_f2dede9b82" y="257.493739"/>
    </g>
    <g clip-path="url(#p7fe685f4cb)">
     <use x="127.8" xlink:href="#C1_0_f2dede9b82" y="240.621533"/>
    </g>
    <g clip-path="url(#p7fe685f4cb)">
     <use x="127.8" xlink:href="#C1_0_f2dede9b82" y="234.666637"/>
    </g>
    <g clip-path="url(#p7fe685f4cb)">
     <use x="127.8" xlink:href="#C1_0_f2dede9b82" y="206.877121"/>
    </g>
    <g clip-path="url(#p7fe685f4cb)">
     <use x="127.8" xlink:href="#C1_0_f2dede9b82" y="186.034984"/>
    </g>
    <g clip-path="url(#p7fe685f4cb)">
     <use x="122.55" xlink:href="#C1_0_f2dede9b82" y="186.034984"/>
    </g>
    <g clip-path="url(#p7fe685f4cb)">
     <use x="127.8" xlink:href="#C1_0_f2dede9b82" y="173.132709"/>
    </g>
    <g clip-path="url(#p7fe685f4cb)">
     <use x="127.8" xlink:href="#C1_0_f2dede9b82" y="166.18533"/>
    </g>
    <g clip-path="url(#p7fe685f4cb)">
     <use x="122.654467" xlink:href="#C1_0_f2dede9b82" y="165.192847"/>
    </g>
    <g clip-path="url(#p7fe685f4cb)">
     <use x="127.8" xlink:href="#C1_0_f2dede9b82" y="160.230433"/>
    </g>
    <g clip-path="url(#p7fe685f4cb)">
     <use x="127.8" xlink:href="#C1_0_f2dede9b82" y="150.305606"/>
    </g>
    <g clip-path="url(#p7fe685f4cb)">
     <use x="127.8" xlink:href="#C1_0_f2dede9b82" y="58.004714"/>
    </g>
   </g>
   <g id="PathCollection_3">
    <defs>
     <path d="M 0 2.5 
C 0.663008 2.5 1.29895 2.236584 1.767767 1.767767 
C 2.236584 1.29895 2.5 0.663008 2.5 0 
C 2.5 -0.663008 2.236584 -1.29895 1.767767 -1.767767 
C 1.29895 -2.236584 0.663008 -2.5 0 -2.5 
C -0.663008 -2.5 -1.29895 -2.236584 -1.767767 -1.767767 
C -2.236584 -1.29895 -2.5 -0.663008 -2.5 0 
C -2.5 0.663008 -2.236584 1.29895 -1.767767 1.767767 
C -1.29895 2.236584 -0.663008 2.5 0 2.5 
z
" id="C2_0_f0fc75de1e"/>
    </defs>
    <g clip-path="url(#p7fe685f4cb)">
     <use x="165" xlink:href="#C2_0_f0fc75de1e" y="244.591464"/>
    </g>
    <g clip-path="url(#p7fe685f4cb)">
     <use x="165" xlink:href="#C2_0_f0fc75de1e" y="202.90719"/>
    </g>
    <g clip-path="url(#p7fe685f4cb)">
     <use x="159.854467" xlink:href="#C2_0_f0fc75de1e" y="201.914707"/>
    </g>
    <g clip-path="url(#p7fe685f4cb)">
     <use x="170.145533" xlink:href="#C2_0_f0fc75de1e" y="201.914707"/>
    </g>
    <g clip-path="url(#p7fe685f4cb)">
     <use x="155.035903" xlink:href="#C2_0_f0fc75de1e" y="199.929742"/>
    </g>
    <g clip-path="url(#p7fe685f4cb)">
     <use x="174.964097" xlink:href="#C2_0_f0fc75de1e" y="199.929742"/>
    </g>
    <g clip-path="url(#p7fe685f4cb)">
     <use x="165" xlink:href="#C2_0_f0fc75de1e" y="163.207882"/>
    </g>
    <g clip-path="url(#p7fe685f4cb)">
     <use x="165" xlink:href="#C2_0_f0fc75de1e" y="156.260503"/>
    </g>
    <g clip-path="url(#p7fe685f4cb)">
     <use x="164.357479" xlink:href="#C2_0_f0fc75de1e" y="151.298089"/>
    </g>
    <g clip-path="url(#p7fe685f4cb)">
     <use x="167.549142" xlink:href="#C2_0_f0fc75de1e" y="147.328158"/>
    </g>
    <g clip-path="url(#p7fe685f4cb)">
     <use x="165" xlink:href="#C2_0_f0fc75de1e" y="137.403331"/>
    </g>
    <g clip-path="url(#p7fe685f4cb)">
     <use x="165" xlink:href="#C2_0_f0fc75de1e" y="68.922024"/>
    </g>
   </g>
   <g id="PathCollection_4">
    <defs>
     <path d="M 0 2.5 
C 0.663008 2.5 1.29895 2.236584 1.767767 1.767767 
C 2.236584 1.29895 2.5 0.663008 2.5 0 
C 2.5 -0.663008 2.236584 -1.29895 1.767767 -1.767767 
C 1.29895 -2.236584 0.663008 -2.5 0 -2.5 
C -0.663008 -2.5 -1.29895 -2.236584 -1.767767 -1.767767 
C -2.236584 -1.29895 -2.5 -0.663008 -2.5 0 
C -2.5 0.663008 -2.236584 1.29895 -1.767767 1.767767 
C -1.29895 2.236584 -0.663008 2.5 0 2.5 
z
" id="C3_0_8639c28c53"/>
    </defs>
    <g clip-path="url(#p7fe685f4cb)">
     <use x="202.2" xlink:href="#C3_0_8639c28c53" y="264.441118"/>
    </g>
    <g clip-path="url(#p7fe685f4cb)">
     <use x="202.2" xlink:href="#C3_0_8639c28c53" y="255.508774"/>
    </g>
    <g clip-path="url(#p7fe685f4cb)">
     <use x="202.2" xlink:href="#C3_0_8639c28c53" y="219.779396"/>
    </g>
    <g clip-path="url(#p7fe685f4cb)">
     <use x="202.2" xlink:href="#C3_0_8639c28c53" y="207.869604"/>
    </g>
    <g clip-path="url(#p7fe685f4cb)">
     <use x="202.2" xlink:href="#C3_0_8639c28c53" y="200.922225"/>
    </g>
    <g clip-path="url(#p7fe685f4cb)">
     <use x="201.557479" xlink:href="#C3_0_8639c28c53" y="195.959811"/>
    </g>
    <g clip-path="url(#p7fe685f4cb)">
     <use x="202.2" xlink:href="#C3_0_8639c28c53" y="179.087605"/>
    </g>
    <g clip-path="url(#p7fe685f4cb)">
     <use x="202.2" xlink:href="#C3_0_8639c28c53" y="172.140226"/>
    </g>
    <g clip-path="url(#p7fe685f4cb)">
     <use x="197.054467" xlink:href="#C3_0_8639c28c53" y="171.147743"/>
    </g>
    <g clip-path="url(#p7fe685f4cb)">
     <use x="202.2" xlink:href="#C3_0_8639c28c53" y="149.313124"/>
    </g>
    <g clip-path="url(#p7fe685f4cb)">
     <use x="202.2" xlink:href="#C3_0_8639c28c53" y="127.478504"/>
    </g>
    <g clip-path="url(#p7fe685f4cb)">
     <use x="202.2" xlink:href="#C3_0_8639c28c53" y="100.681471"/>
    </g>
   </g>
   <g id="PathCollection_5">
    <defs>
     <path d="M 0 2.5 
C 0.663008 2.5 1.29895 2.236584 1.767767 1.767767 
C 2.236584 1.29895 2.5 0.663008 2.5 0 
C 2.5 -0.663008 2.236584 -1.29895 1.767767 -1.767767 
C 1.29895 -2.236584 0.663008 -2.5 0 -2.5 
C -0.663008 -2.5 -1.29895 -2.236584 -1.767767 -1.767767 
C -2.236584 -1.29895 -2.5 -0.663008 -2.5 0 
C -2.5 0.663008 -2.236584 1.29895 -1.767767 1.767767 
C -1.29895 2.236584 -0.663008 2.5 0 2.5 
z
" id="C4_0_cc830e66e2"/>
    </defs>
    <g clip-path="url(#p7fe685f4cb)">
     <use x="239.4" xlink:href="#C4_0_cc830e66e2" y="275.358428"/>
    </g>
    <g clip-path="url(#p7fe685f4cb)">
     <use x="234.581437" xlink:href="#C4_0_cc830e66e2" y="273.373462"/>
    </g>
    <g clip-path="url(#p7fe685f4cb)">
     <use x="239.4" xlink:href="#C4_0_cc830e66e2" y="255.508774"/>
    </g>
    <g clip-path="url(#p7fe685f4cb)">
     <use x="234.15" xlink:href="#C4_0_cc830e66e2" y="255.508774"/>
    </g>
    <g clip-path="url(#p7fe685f4cb)">
     <use x="239.4" xlink:href="#C4_0_cc830e66e2" y="198.937259"/>
    </g>
    <g clip-path="url(#p7fe685f4cb)">
     <use x="239.4" xlink:href="#C4_0_cc830e66e2" y="190.004915"/>
    </g>
    <g clip-path="url(#p7fe685f4cb)">
     <use x="239.4" xlink:href="#C4_0_cc830e66e2" y="168.170295"/>
    </g>
    <g clip-path="url(#p7fe685f4cb)">
     <use x="239.4" xlink:href="#C4_0_cc830e66e2" y="148.320641"/>
    </g>
    <g clip-path="url(#p7fe685f4cb)">
     <use x="239.4" xlink:href="#C4_0_cc830e66e2" y="83.809265"/>
    </g>
   </g>
   <g id="PathCollection_6">
    <defs>
     <path d="M 0 2.5 
C 0.663008 2.5 1.29895 2.236584 1.767767 1.767767 
C 2.236584 1.29895 2.5 0.663008 2.5 0 
C 2.5 -0.663008 2.236584 -1.29895 1.767767 -1.767767 
C 1.29895 -2.236584 0.663008 -2.5 0 -2.5 
C -0.663008 -2.5 -1.29895 -2.236584 -1.767767 -1.767767 
C -2.236584 -1.29895 -2.5 -0.663008 -2.5 0 
C -2.5 0.663008 -2.236584 1.29895 -1.767767 1.767767 
C -1.29895 2.236584 -0.663008 2.5 0 2.5 
z
" id="C5_0_8e926a8b1b"/>
    </defs>
    <g clip-path="url(#p7fe685f4cb)">
     <use x="276.6" xlink:href="#C5_0_8e926a8b1b" y="281.313324"/>
    </g>
    <g clip-path="url(#p7fe685f4cb)">
     <use x="271.781437" xlink:href="#C5_0_8e926a8b1b" y="279.328359"/>
    </g>
    <g clip-path="url(#p7fe685f4cb)">
     <use x="276.6" xlink:href="#C5_0_8e926a8b1b" y="263.448635"/>
    </g>
    <g clip-path="url(#p7fe685f4cb)">
     <use x="271.781437" xlink:href="#C5_0_8e926a8b1b" y="261.46367"/>
    </g>
    <g clip-path="url(#p7fe685f4cb)">
     <use x="276.6" xlink:href="#C5_0_8e926a8b1b" y="256.501256"/>
    </g>
    <g clip-path="url(#p7fe685f4cb)">
     <use x="271.454467" xlink:href="#C5_0_8e926a8b1b" y="255.508774"/>
    </g>
    <g clip-path="url(#p7fe685f4cb)">
     <use x="276.6" xlink:href="#C5_0_8e926a8b1b" y="239.62905"/>
    </g>
    <g clip-path="url(#p7fe685f4cb)">
     <use x="276.6" xlink:href="#C5_0_8e926a8b1b" y="230.696706"/>
    </g>
    <g clip-path="url(#p7fe685f4cb)">
     <use x="276.6" xlink:href="#C5_0_8e926a8b1b" y="197.944776"/>
    </g>
    <g clip-path="url(#p7fe685f4cb)">
     <use x="276.6" xlink:href="#C5_0_8e926a8b1b" y="174.125191"/>
    </g>
    <g clip-path="url(#p7fe685f4cb)">
     <use x="272.382344" xlink:href="#C5_0_8e926a8b1b" y="171.147743"/>
    </g>
   </g>
   <g id="PathCollection_7">
    <defs>
     <path d="M 0 2.5 
C 0.663008 2.5 1.29895 2.236584 1.767767 1.767767 
C 2.236584 1.29895 2.5 0.663008 2.5 0 
C 2.5 -0.663008 2.236584 -1.29895 1.767767 -1.767767 
C 1.29895 -2.236584 0.663008 -2.5 0 -2.5 
C -0.663008 -2.5 -1.29895 -2.236584 -1.767767 -1.767767 
C -2.236584 -1.29895 -2.5 -0.663008 -2.5 0 
C -2.5 0.663008 -2.236584 1.29895 -1.767767 1.767767 
C -1.29895 2.236584 -0.663008 2.5 0 2.5 
z
" id="C6_0_1ab2f1af28"/>
    </defs>
    <g clip-path="url(#p7fe685f4cb)">
     <use x="313.8" xlink:href="#C6_0_1ab2f1af28" y="279.328359"/>
    </g>
    <g clip-path="url(#p7fe685f4cb)">
     <use x="308.981437" xlink:href="#C6_0_1ab2f1af28" y="277.343393"/>
    </g>
    <g clip-path="url(#p7fe685f4cb)">
     <use x="313.8" xlink:href="#C6_0_1ab2f1af28" y="268.411049"/>
    </g>
    <g clip-path="url(#p7fe685f4cb)">
     <use x="313.8" xlink:href="#C6_0_1ab2f1af28" y="244.591464"/>
    </g>
    <g clip-path="url(#p7fe685f4cb)">
     <use x="313.8" xlink:href="#C6_0_1ab2f1af28" y="233.674154"/>
    </g>
    <g clip-path="url(#p7fe685f4cb)">
     <use x="308.55" xlink:href="#C6_0_1ab2f1af28" y="233.674154"/>
    </g>
    <g clip-path="url(#p7fe685f4cb)">
     <use x="313.8" xlink:href="#C6_0_1ab2f1af28" y="199.929742"/>
    </g>
    <g clip-path="url(#p7fe685f4cb)">
     <use x="309.582344" xlink:href="#C6_0_1ab2f1af28" y="196.952294"/>
    </g>
    <g clip-path="url(#p7fe685f4cb)">
     <use x="313.8" xlink:href="#C6_0_1ab2f1af28" y="182.065053"/>
    </g>
    <g clip-path="url(#p7fe685f4cb)">
     <use x="313.8" xlink:href="#C6_0_1ab2f1af28" y="113.583746"/>
    </g>
   </g>
   <g id="PathCollection_8">
    <defs>
     <path d="M 0 2.5 
C 0.663008 2.5 1.29895 2.236584 1.767767 1.767767 
C 2.236584 1.29895 2.5 0.663008 2.5 0 
C 2.5 -0.663008 2.236584 -1.29895 1.767767 -1.767767 
C 1.29895 -2.236584 0.663008 -2.5 0 -2.5 
C -0.663008 -2.5 -1.29895 -2.236584 -1.767767 -1.767767 
C -2.236584 -1.29895 -2.5 -0.663008 -2.5 0 
C -2.5 0.663008 -2.236584 1.29895 -1.767767 1.767767 
C -1.29895 2.236584 -0.663008 2.5 0 2.5 
z
" id="C7_0_a91865f89b"/>
    </defs>
    <g clip-path="url(#p7fe685f4cb)">
     <use x="351" xlink:href="#C7_0_a91865f89b" y="296.200565"/>
    </g>
    <g clip-path="url(#p7fe685f4cb)">
     <use x="346.181437" xlink:href="#C7_0_a91865f89b" y="294.215599"/>
    </g>
    <g clip-path="url(#p7fe685f4cb)">
     <use x="351" xlink:href="#C7_0_a91865f89b" y="266.426083"/>
    </g>
    <g clip-path="url(#p7fe685f4cb)">
     <use x="351" xlink:href="#C7_0_a91865f89b" y="260.471187"/>
    </g>
    <g clip-path="url(#p7fe685f4cb)">
     <use x="350.357479" xlink:href="#C7_0_a91865f89b" y="255.508774"/>
    </g>
    <g clip-path="url(#p7fe685f4cb)">
     <use x="351" xlink:href="#C7_0_a91865f89b" y="242.606498"/>
    </g>
    <g clip-path="url(#p7fe685f4cb)">
     <use x="351" xlink:href="#C7_0_a91865f89b" y="233.674154"/>
    </g>
    <g clip-path="url(#p7fe685f4cb)">
     <use x="346.181437" xlink:href="#C7_0_a91865f89b" y="231.689189"/>
    </g>
    <g clip-path="url(#p7fe685f4cb)">
     <use x="351" xlink:href="#C7_0_a91865f89b" y="214.816982"/>
    </g>
    <g clip-path="url(#p7fe685f4cb)">
     <use x="351" xlink:href="#C7_0_a91865f89b" y="207.869604"/>
    </g>
    <g clip-path="url(#p7fe685f4cb)">
     <use x="351" xlink:href="#C7_0_a91865f89b" y="186.034984"/>
    </g>
    <g clip-path="url(#p7fe685f4cb)">
     <use x="351" xlink:href="#C7_0_a91865f89b" y="180.080088"/>
    </g>
    <g clip-path="url(#p7fe685f4cb)">
     <use x="351" xlink:href="#C7_0_a91865f89b" y="120.531125"/>
    </g>
   </g>
   <g id="PathCollection_9">
    <defs>
     <path d="M 0 2.5 
C 0.663008 2.5 1.29895 2.236584 1.767767 1.767767 
C 2.236584 1.29895 2.5 0.663008 2.5 0 
C 2.5 -0.663008 2.236584 -1.29895 1.767767 -1.767767 
C 1.29895 -2.236584 0.663008 -2.5 0 -2.5 
C -0.663008 -2.5 -1.29895 -2.236584 -1.767767 -1.767767 
C -2.236584 -1.29895 -2.5 -0.663008 -2.5 0 
C -2.5 0.663008 -2.236584 1.29895 -1.767767 1.767767 
C -1.29895 2.236584 -0.663008 2.5 0 2.5 
z
" id="C8_0_4002323854"/>
    </defs>
    <g clip-path="url(#p7fe685f4cb)">
     <use x="388.2" xlink:href="#C8_0_4002323854" y="300.170496"/>
    </g>
    <g clip-path="url(#p7fe685f4cb)">
     <use x="387.557479" xlink:href="#C8_0_4002323854" y="295.208082"/>
    </g>
    <g clip-path="url(#p7fe685f4cb)">
     <use x="388.2" xlink:href="#C8_0_4002323854" y="280.320841"/>
    </g>
    <g clip-path="url(#p7fe685f4cb)">
     <use x="388.2" xlink:href="#C8_0_4002323854" y="261.46367"/>
    </g>
    <g clip-path="url(#p7fe685f4cb)">
     <use x="388.2" xlink:href="#C8_0_4002323854" y="253.523808"/>
    </g>
    <g clip-path="url(#p7fe685f4cb)">
     <use x="383.381437" xlink:href="#C8_0_4002323854" y="251.538843"/>
    </g>
    <g clip-path="url(#p7fe685f4cb)">
     <use x="388.2" xlink:href="#C8_0_4002323854" y="236.651602"/>
    </g>
    <g clip-path="url(#p7fe685f4cb)">
     <use x="388.2" xlink:href="#C8_0_4002323854" y="217.794431"/>
    </g>
    <g clip-path="url(#p7fe685f4cb)">
     <use x="388.2" xlink:href="#C8_0_4002323854" y="204.892155"/>
    </g>
    <g clip-path="url(#p7fe685f4cb)">
     <use x="388.2" xlink:href="#C8_0_4002323854" y="193.974846"/>
    </g>
    <g clip-path="url(#p7fe685f4cb)">
     <use x="388.2" xlink:href="#C8_0_4002323854" y="187.027467"/>
    </g>
    <g clip-path="url(#p7fe685f4cb)">
     <use x="388.2" xlink:href="#C8_0_4002323854" y="181.07257"/>
    </g>
    <g clip-path="url(#p7fe685f4cb)">
     <use x="388.2" xlink:href="#C8_0_4002323854" y="107.62885"/>
    </g>
   </g>
   <g id="PathCollection_10">
    <defs>
     <path d="M 0 2.5 
C 0.663008 2.5 1.29895 2.236584 1.767767 1.767767 
C 2.236584 1.29895 2.5 0.663008 2.5 0 
C 2.5 -0.663008 2.236584 -1.29895 1.767767 -1.767767 
C 1.29895 -2.236584 0.663008 -2.5 0 -2.5 
C -0.663008 -2.5 -1.29895 -2.236584 -1.767767 -1.767767 
C -2.236584 -1.29895 -2.5 -0.663008 -2.5 0 
C -2.5 0.663008 -2.236584 1.29895 -1.767767 1.767767 
C -1.29895 2.236584 -0.663008 2.5 0 2.5 
z
" id="C9_0_1af3e965d5"/>
    </defs>
    <g clip-path="url(#p7fe685f4cb)">
     <use x="425.4" xlink:href="#C9_0_1af3e965d5" y="289.253186"/>
    </g>
    <g clip-path="url(#p7fe685f4cb)">
     <use x="425.4" xlink:href="#C9_0_1af3e965d5" y="282.305807"/>
    </g>
    <g clip-path="url(#p7fe685f4cb)">
     <use x="420.254467" xlink:href="#C9_0_1af3e965d5" y="281.313324"/>
    </g>
    <g clip-path="url(#p7fe685f4cb)">
     <use x="425.4" xlink:href="#C9_0_1af3e965d5" y="267.418566"/>
    </g>
    <g clip-path="url(#p7fe685f4cb)">
     <use x="425.4" xlink:href="#C9_0_1af3e965d5" y="247.568912"/>
    </g>
    <g clip-path="url(#p7fe685f4cb)">
     <use x="425.4" xlink:href="#C9_0_1af3e965d5" y="237.644085"/>
    </g>
    <g clip-path="url(#p7fe685f4cb)">
     <use x="422.208337" xlink:href="#C9_0_1af3e965d5" y="233.674154"/>
    </g>
    <g clip-path="url(#p7fe685f4cb)">
     <use x="427.0269" xlink:href="#C9_0_1af3e965d5" y="231.689189"/>
    </g>
    <g clip-path="url(#p7fe685f4cb)">
     <use x="425.4" xlink:href="#C9_0_1af3e965d5" y="209.854569"/>
    </g>
    <g clip-path="url(#p7fe685f4cb)">
     <use x="425.4" xlink:href="#C9_0_1af3e965d5" y="186.034984"/>
    </g>
    <g clip-path="url(#p7fe685f4cb)">
     <use x="425.4" xlink:href="#C9_0_1af3e965d5" y="178.095122"/>
    </g>
    <g clip-path="url(#p7fe685f4cb)">
     <use x="425.4" xlink:href="#C9_0_1af3e965d5" y="128.470987"/>
    </g>
   </g>
   <g id="PathCollection_11">
    <defs>
     <path d="M 0 2.5 
C 0.663008 2.5 1.29895 2.236584 1.767767 1.767767 
C 2.236584 1.29895 2.5 0.663008 2.5 0 
C 2.5 -0.663008 2.236584 -1.29895 1.767767 -1.767767 
C 1.29895 -2.236584 0.663008 -2.5 0 -2.5 
C -0.663008 -2.5 -1.29895 -2.236584 -1.767767 -1.767767 
C -2.236584 -1.29895 -2.5 -0.663008 -2.5 0 
C -2.5 0.663008 -2.236584 1.29895 -1.767767 1.767767 
C -1.29895 2.236584 -0.663008 2.5 0 2.5 
z
" id="Ca_0_54bb63fe7f"/>
    </defs>
    <g clip-path="url(#p7fe685f4cb)">
     <use x="462.6" xlink:href="#Ca_0_54bb63fe7f" y="223.749327"/>
    </g>
    <g clip-path="url(#p7fe685f4cb)">
     <use x="458.382344" xlink:href="#Ca_0_54bb63fe7f" y="220.771879"/>
    </g>
    <g clip-path="url(#p7fe685f4cb)">
     <use x="462.6" xlink:href="#Ca_0_54bb63fe7f" y="216.801948"/>
    </g>
    <g clip-path="url(#p7fe685f4cb)">
     <use x="458.382344" xlink:href="#Ca_0_54bb63fe7f" y="213.8245"/>
    </g>
    <g clip-path="url(#p7fe685f4cb)">
     <use x="462.6" xlink:href="#Ca_0_54bb63fe7f" y="210.847052"/>
    </g>
    <g clip-path="url(#p7fe685f4cb)">
     <use x="462.6" xlink:href="#Ca_0_54bb63fe7f" y="204.892155"/>
    </g>
    <g clip-path="url(#p7fe685f4cb)">
     <use x="462.6" xlink:href="#Ca_0_54bb63fe7f" y="196.952294"/>
    </g>
    <g clip-path="url(#p7fe685f4cb)">
     <use x="462.6" xlink:href="#Ca_0_54bb63fe7f" y="173.132709"/>
    </g>
    <g clip-path="url(#p7fe685f4cb)">
     <use x="462.6" xlink:href="#Ca_0_54bb63fe7f" y="166.18533"/>
    </g>
    <g clip-path="url(#p7fe685f4cb)">
     <use x="462.6" xlink:href="#Ca_0_54bb63fe7f" y="156.260503"/>
    </g>
    <g clip-path="url(#p7fe685f4cb)">
     <use x="462.6" xlink:href="#Ca_0_54bb63fe7f" y="149.313124"/>
    </g>
    <g clip-path="url(#p7fe685f4cb)">
     <use x="462.6" xlink:href="#Ca_0_54bb63fe7f" y="82.816782"/>
    </g>
   </g>
   <g id="PathCollection_12">
    <defs>
     <path d="M 0 2.5 
C 0.663008 2.5 1.29895 2.236584 1.767767 1.767767 
C 2.236584 1.29895 2.5 0.663008 2.5 0 
C 2.5 -0.663008 2.236584 -1.29895 1.767767 -1.767767 
C 1.29895 -2.236584 0.663008 -2.5 0 -2.5 
C -0.663008 -2.5 -1.29895 -2.236584 -1.767767 -1.767767 
C -2.236584 -1.29895 -2.5 -0.663008 -2.5 0 
C -2.5 0.663008 -2.236584 1.29895 -1.767767 1.767767 
C -1.29895 2.236584 -0.663008 2.5 0 2.5 
z
" id="Cb_0_ca788ef4fd"/>
    </defs>
    <g clip-path="url(#p7fe685f4cb)">
     <use x="499.8" xlink:href="#Cb_0_ca788ef4fd" y="233.674154"/>
    </g>
    <g clip-path="url(#p7fe685f4cb)">
     <use x="496.608337" xlink:href="#Cb_0_ca788ef4fd" y="229.704223"/>
    </g>
    <g clip-path="url(#p7fe685f4cb)">
     <use x="499.8" xlink:href="#Cb_0_ca788ef4fd" y="217.794431"/>
    </g>
    <g clip-path="url(#p7fe685f4cb)">
     <use x="499.8" xlink:href="#Cb_0_ca788ef4fd" y="191.98988"/>
    </g>
    <g clip-path="url(#p7fe685f4cb)">
     <use x="499.8" xlink:href="#Cb_0_ca788ef4fd" y="186.034984"/>
    </g>
    <g clip-path="url(#p7fe685f4cb)">
     <use x="499.8" xlink:href="#Cb_0_ca788ef4fd" y="176.110157"/>
    </g>
    <g clip-path="url(#p7fe685f4cb)">
     <use x="494.981437" xlink:href="#Cb_0_ca788ef4fd" y="174.125191"/>
    </g>
    <g clip-path="url(#p7fe685f4cb)">
     <use x="499.8" xlink:href="#Cb_0_ca788ef4fd" y="151.298089"/>
    </g>
    <g clip-path="url(#p7fe685f4cb)">
     <use x="495.582344" xlink:href="#Cb_0_ca788ef4fd" y="148.320641"/>
    </g>
    <g clip-path="url(#p7fe685f4cb)">
     <use x="499.8" xlink:href="#Cb_0_ca788ef4fd" y="115.568711"/>
    </g>
    <g clip-path="url(#p7fe685f4cb)">
     <use x="499.8" xlink:href="#Cb_0_ca788ef4fd" y="70.90699"/>
    </g>
   </g>
   <g id="text_21">
    <!-- * -->
    <defs>
     <path d="M 3.125 58.453125 
L 5.375 65.375 
Q 13.140625 62.640625 16.65625 60.640625 
Q 15.71875 69.484375 15.671875 72.796875 
L 22.75 72.796875 
Q 22.609375 67.96875 21.625 60.6875 
Q 26.65625 63.234375 33.15625 65.375 
L 35.40625 58.453125 
Q 29.203125 56.390625 23.25 55.71875 
Q 26.21875 53.125 31.640625 46.484375 
L 25.78125 42.328125 
Q 22.953125 46.1875 19.09375 52.828125 
Q 15.484375 45.953125 12.75 42.328125 
L 6.984375 46.484375 
Q 12.640625 53.46875 15.09375 55.71875 
Q 8.796875 56.9375 3.125 58.453125 
z
" id="ArialMT-42"/>
    </defs>
    <g style="fill:#262626;" transform="translate(271.02 163.207882)scale(0.23 -0.23)">
     <use xlink:href="#ArialMT-42"/>
    </g>
   </g>
   <g id="text_22">
    <!-- * -->
    <g style="fill:#262626;" transform="translate(345.42 113.583746)scale(0.23 -0.23)">
     <use xlink:href="#ArialMT-42"/>
    </g>
   </g>
   <g id="text_23">
    <!-- * -->
    <g style="fill:#262626;" transform="translate(382.62 103.658919)scale(0.23 -0.23)">
     <use xlink:href="#ArialMT-42"/>
    </g>
   </g>
   <g id="text_24">
    <!-- * -->
    <g style="fill:#262626;" transform="translate(419.82 123.508573)scale(0.23 -0.23)">
     <use xlink:href="#ArialMT-42"/>
    </g>
   </g>
   <g id="text_25">
    <!-- Alpha Diversity -->
    <defs>
     <path d="M -0.140625 0 
L 27.34375 71.578125 
L 37.546875 71.578125 
L 66.84375 0 
L 56.0625 0 
L 47.703125 21.6875 
L 17.78125 21.6875 
L 9.90625 0 
z
M 20.515625 29.390625 
L 44.78125 29.390625 
L 37.3125 49.21875 
Q 33.890625 58.25 32.234375 64.0625 
Q 30.859375 57.171875 28.375 50.390625 
z
" id="ArialMT-65"/>
     <path d="M 6.390625 0 
L 6.390625 71.578125 
L 15.1875 71.578125 
L 15.1875 0 
z
" id="ArialMT-108"/>
     <path d="M 6.59375 -19.875 
L 6.59375 51.859375 
L 14.59375 51.859375 
L 14.59375 45.125 
Q 17.4375 49.078125 21 51.046875 
Q 24.5625 53.03125 29.640625 53.03125 
Q 36.28125 53.03125 41.359375 49.609375 
Q 46.4375 46.1875 49.015625 39.953125 
Q 51.609375 33.734375 51.609375 26.3125 
Q 51.609375 18.359375 48.75 11.984375 
Q 45.90625 5.609375 40.453125 2.21875 
Q 35.015625 -1.171875 29 -1.171875 
Q 24.609375 -1.171875 21.109375 0.6875 
Q 17.625 2.546875 15.375 5.375 
L 15.375 -19.875 
z
M 14.546875 25.640625 
Q 14.546875 15.625 18.59375 10.84375 
Q 22.65625 6.0625 28.421875 6.0625 
Q 34.28125 6.0625 38.453125 11.015625 
Q 42.625 15.96875 42.625 26.375 
Q 42.625 36.28125 38.546875 41.203125 
Q 34.46875 46.140625 28.8125 46.140625 
Q 23.1875 46.140625 18.859375 40.890625 
Q 14.546875 35.640625 14.546875 25.640625 
z
" id="ArialMT-112"/>
     <path d="M 6.59375 0 
L 6.59375 71.578125 
L 15.375 71.578125 
L 15.375 45.90625 
Q 21.53125 53.03125 30.90625 53.03125 
Q 36.671875 53.03125 40.921875 50.75 
Q 45.171875 48.484375 47 44.484375 
Q 48.828125 40.484375 48.828125 32.859375 
L 48.828125 0 
L 40.046875 0 
L 40.046875 32.859375 
Q 40.046875 39.453125 37.1875 42.453125 
Q 34.328125 45.453125 29.109375 45.453125 
Q 25.203125 45.453125 21.75 43.421875 
Q 18.3125 41.40625 16.84375 37.9375 
Q 15.375 34.46875 15.375 28.375 
L 15.375 0 
z
" id="ArialMT-104"/>
     <path d="M 6.640625 61.46875 
L 6.640625 71.578125 
L 15.4375 71.578125 
L 15.4375 61.46875 
z
M 6.640625 0 
L 6.640625 51.859375 
L 15.4375 51.859375 
L 15.4375 0 
z
" id="ArialMT-105"/>
    </defs>
    <g style="fill:#262626;" transform="translate(245.184375 37.2)scale(0.15 -0.15)">
     <use xlink:href="#ArialMT-65"/>
     <use x="66.699219" xlink:href="#ArialMT-108"/>
     <use x="88.916016" xlink:href="#ArialMT-112"/>
     <use x="144.53125" xlink:href="#ArialMT-104"/>
     <use x="200.146484" xlink:href="#ArialMT-97"/>
     <use x="255.761719" xlink:href="#ArialMT-32"/>
     <use x="283.544922" xlink:href="#ArialMT-68"/>
     <use x="355.761719" xlink:href="#ArialMT-105"/>
     <use x="377.978516" xlink:href="#ArialMT-118"/>
     <use x="427.978516" xlink:href="#ArialMT-101"/>
     <use x="483.59375" xlink:href="#ArialMT-114"/>
     <use x="516.894531" xlink:href="#ArialMT-115"/>
     <use x="566.894531" xlink:href="#ArialMT-105"/>
     <use x="589.111328" xlink:href="#ArialMT-116"/>
     <use x="616.894531" xlink:href="#ArialMT-121"/>
    </g>
   </g>
  </g>
 </g>
 <defs>
  <clipPath id="p7fe685f4cb">
   <rect height="271.8" width="446.4" x="72" y="43.2"/>
  </clipPath>
 </defs>
</svg>
