<?xml version="1.0" encoding="utf-8" standalone="no"?>
<!DOCTYPE svg PUBLIC "-//W3C//DTD SVG 1.1//EN"
  "http://www.w3.org/Graphics/SVG/1.1/DTD/svg11.dtd">
<!-- Created with matplotlib (https://matplotlib.org/) -->
<svg height="360pt" version="1.1" viewBox="0 0 438.125 360" width="438.125pt" xmlns="http://www.w3.org/2000/svg" xmlns:xlink="http://www.w3.org/1999/xlink">
 <defs>
  <style type="text/css">
*{stroke-linecap:butt;stroke-linejoin:round;}
  </style>
 </defs>
 <g id="figure_1">
  <g id="patch_1">
   <path d="M 0 360 
L 438.125 360 
L 438.125 0 
L 0 0 
z
" style="fill:#ffffff;"/>
  </g>
  <g id="axes_1">
   <g id="patch_2">
    <path d="M 54.522222 320.2 
L 355.61875 320.2 
L 355.61875 14.3 
L 54.522222 14.3 
z
" style="fill:#ffffff;"/>
   </g>
   <g id="matplotlib.axis_1">
    <g id="xtick_1">
     <g id="text_1">
      <!-- 50 -->
      <defs>
       <path d="M 4.15625 18.75 
L 13.375 19.53125 
Q 14.40625 12.796875 18.140625 9.390625 
Q 21.875 6 27.15625 6 
Q 33.5 6 37.890625 10.78125 
Q 42.28125 15.578125 42.28125 23.484375 
Q 42.28125 31 38.0625 35.34375 
Q 33.84375 39.703125 27 39.703125 
Q 22.75 39.703125 19.328125 37.765625 
Q 15.921875 35.84375 13.96875 32.765625 
L 5.71875 33.84375 
L 12.640625 70.609375 
L 48.25 70.609375 
L 48.25 62.203125 
L 19.671875 62.203125 
L 15.828125 42.96875 
Q 22.265625 47.46875 29.34375 47.46875 
Q 38.71875 47.46875 45.15625 40.96875 
Q 51.609375 34.46875 51.609375 24.265625 
Q 51.609375 14.546875 45.953125 7.46875 
Q 39.0625 -1.21875 27.15625 -1.21875 
Q 17.390625 -1.21875 11.203125 4.25 
Q 5.03125 9.71875 4.15625 18.75 
z
" id="ArialMT-53"/>
       <path d="M 4.15625 35.296875 
Q 4.15625 48 6.765625 55.734375 
Q 9.375 63.484375 14.515625 67.671875 
Q 19.671875 71.875 27.484375 71.875 
Q 33.25 71.875 37.59375 69.546875 
Q 41.9375 67.234375 44.765625 62.859375 
Q 47.609375 58.5 49.21875 52.21875 
Q 50.828125 45.953125 50.828125 35.296875 
Q 50.828125 22.703125 48.234375 14.96875 
Q 45.65625 7.234375 40.5 3 
Q 35.359375 -1.21875 27.484375 -1.21875 
Q 17.140625 -1.21875 11.234375 6.203125 
Q 4.15625 15.140625 4.15625 35.296875 
z
M 13.1875 35.296875 
Q 13.1875 17.671875 17.3125 11.828125 
Q 21.4375 6 27.484375 6 
Q 33.546875 6 37.671875 11.859375 
Q 41.796875 17.71875 41.796875 35.296875 
Q 41.796875 52.984375 37.671875 58.78125 
Q 33.546875 64.59375 27.390625 64.59375 
Q 21.34375 64.59375 17.71875 59.46875 
Q 13.1875 52.9375 13.1875 35.296875 
z
" id="ArialMT-48"/>
      </defs>
      <g style="fill:#262626;" transform="translate(73.586263 335.789375)scale(0.12 -0.12)">
       <use xlink:href="#ArialMT-53"/>
       <use x="55.615234" xlink:href="#ArialMT-48"/>
      </g>
     </g>
    </g>
    <g id="xtick_2">
     <g id="text_2">
      <!-- 100 -->
      <defs>
       <path d="M 37.25 0 
L 28.46875 0 
L 28.46875 56 
Q 25.296875 52.984375 20.140625 49.953125 
Q 14.984375 46.921875 10.890625 45.40625 
L 10.890625 53.90625 
Q 18.265625 57.375 23.78125 62.296875 
Q 29.296875 67.234375 31.59375 71.875 
L 37.25 71.875 
z
" id="ArialMT-49"/>
      </defs>
      <g style="fill:#262626;" transform="translate(127.759383 335.789375)scale(0.12 -0.12)">
       <use xlink:href="#ArialMT-49"/>
       <use x="55.615234" xlink:href="#ArialMT-48"/>
       <use x="111.230469" xlink:href="#ArialMT-48"/>
      </g>
     </g>
    </g>
    <g id="xtick_3">
     <g id="text_3">
      <!-- 150 -->
      <g style="fill:#262626;" transform="translate(185.269065 335.789375)scale(0.12 -0.12)">
       <use xlink:href="#ArialMT-49"/>
       <use x="55.615234" xlink:href="#ArialMT-53"/>
       <use x="111.230469" xlink:href="#ArialMT-48"/>
      </g>
     </g>
    </g>
    <g id="xtick_4">
     <g id="text_4">
      <!-- 200 -->
      <defs>
       <path d="M 50.34375 8.453125 
L 50.34375 0 
L 3.03125 0 
Q 2.9375 3.171875 4.046875 6.109375 
Q 5.859375 10.9375 9.828125 15.625 
Q 13.8125 20.3125 21.34375 26.46875 
Q 33.015625 36.03125 37.109375 41.625 
Q 41.21875 47.21875 41.21875 52.203125 
Q 41.21875 57.421875 37.46875 61 
Q 33.734375 64.59375 27.734375 64.59375 
Q 21.390625 64.59375 17.578125 60.78125 
Q 13.765625 56.984375 13.71875 50.25 
L 4.6875 51.171875 
Q 5.609375 61.28125 11.65625 66.578125 
Q 17.71875 71.875 27.9375 71.875 
Q 38.234375 71.875 44.234375 66.15625 
Q 50.25 60.453125 50.25 52 
Q 50.25 47.703125 48.484375 43.546875 
Q 46.734375 39.40625 42.65625 34.8125 
Q 38.578125 30.21875 29.109375 22.21875 
Q 21.1875 15.578125 18.9375 13.203125 
Q 16.703125 10.84375 15.234375 8.453125 
z
" id="ArialMT-50"/>
      </defs>
      <g style="fill:#262626;" transform="translate(242.778747 335.789375)scale(0.12 -0.12)">
       <use xlink:href="#ArialMT-50"/>
       <use x="55.615234" xlink:href="#ArialMT-48"/>
       <use x="111.230469" xlink:href="#ArialMT-48"/>
      </g>
     </g>
    </g>
    <g id="xtick_5">
     <g id="text_5">
      <!-- 250 -->
      <g style="fill:#262626;" transform="translate(300.288429 335.789375)scale(0.12 -0.12)">
       <use xlink:href="#ArialMT-50"/>
       <use x="55.615234" xlink:href="#ArialMT-53"/>
       <use x="111.230469" xlink:href="#ArialMT-48"/>
      </g>
     </g>
    </g>
    <g id="text_6">
     <!-- Observed OTUs -->
     <defs>
      <path d="M 4.828125 34.859375 
Q 4.828125 52.6875 14.390625 62.765625 
Q 23.96875 72.859375 39.109375 72.859375 
Q 49.03125 72.859375 56.984375 68.109375 
Q 64.9375 63.375 69.109375 54.90625 
Q 73.296875 46.4375 73.296875 35.6875 
Q 73.296875 24.8125 68.890625 16.21875 
Q 64.5 7.625 56.4375 3.203125 
Q 48.390625 -1.21875 39.0625 -1.21875 
Q 28.953125 -1.21875 20.984375 3.65625 
Q 13.03125 8.546875 8.921875 16.984375 
Q 4.828125 25.4375 4.828125 34.859375 
z
M 14.59375 34.71875 
Q 14.59375 21.78125 21.546875 14.328125 
Q 28.515625 6.890625 39.015625 6.890625 
Q 49.703125 6.890625 56.609375 14.40625 
Q 63.53125 21.921875 63.53125 35.75 
Q 63.53125 44.484375 60.578125 51 
Q 57.625 57.515625 51.921875 61.109375 
Q 46.234375 64.703125 39.15625 64.703125 
Q 29.109375 64.703125 21.84375 57.78125 
Q 14.59375 50.875 14.59375 34.71875 
z
" id="ArialMT-79"/>
      <path d="M 14.703125 0 
L 6.546875 0 
L 6.546875 71.578125 
L 15.328125 71.578125 
L 15.328125 46.046875 
Q 20.90625 53.03125 29.546875 53.03125 
Q 34.328125 53.03125 38.59375 51.09375 
Q 42.875 49.171875 45.625 45.671875 
Q 48.390625 42.1875 49.953125 37.25 
Q 51.515625 32.328125 51.515625 26.703125 
Q 51.515625 13.375 44.921875 6.09375 
Q 38.328125 -1.171875 29.109375 -1.171875 
Q 19.921875 -1.171875 14.703125 6.5 
z
M 14.59375 26.3125 
Q 14.59375 17 17.140625 12.84375 
Q 21.296875 6.0625 28.375 6.0625 
Q 34.125 6.0625 38.328125 11.0625 
Q 42.53125 16.0625 42.53125 25.984375 
Q 42.53125 36.140625 38.5 40.96875 
Q 34.46875 45.796875 28.765625 45.796875 
Q 23 45.796875 18.796875 40.796875 
Q 14.59375 35.796875 14.59375 26.3125 
z
" id="ArialMT-98"/>
      <path d="M 3.078125 15.484375 
L 11.765625 16.84375 
Q 12.5 11.625 15.84375 8.84375 
Q 19.1875 6.0625 25.203125 6.0625 
Q 31.25 6.0625 34.171875 8.515625 
Q 37.109375 10.984375 37.109375 14.3125 
Q 37.109375 17.28125 34.515625 19 
Q 32.71875 20.171875 25.53125 21.96875 
Q 15.875 24.421875 12.140625 26.203125 
Q 8.40625 27.984375 6.46875 31.125 
Q 4.546875 34.28125 4.546875 38.09375 
Q 4.546875 41.546875 6.125 44.5 
Q 7.71875 47.46875 10.453125 49.421875 
Q 12.5 50.921875 16.03125 51.96875 
Q 19.578125 53.03125 23.640625 53.03125 
Q 29.734375 53.03125 34.34375 51.265625 
Q 38.96875 49.515625 41.15625 46.5 
Q 43.359375 43.5 44.1875 38.484375 
L 35.59375 37.3125 
Q 35.015625 41.3125 32.203125 43.546875 
Q 29.390625 45.796875 24.265625 45.796875 
Q 18.21875 45.796875 15.625 43.796875 
Q 13.03125 41.796875 13.03125 39.109375 
Q 13.03125 37.40625 14.109375 36.03125 
Q 15.1875 34.625 17.484375 33.6875 
Q 18.796875 33.203125 25.25 31.453125 
Q 34.578125 28.953125 38.25 27.359375 
Q 41.9375 25.78125 44.03125 22.75 
Q 46.140625 19.734375 46.140625 15.234375 
Q 46.140625 10.84375 43.578125 6.953125 
Q 41.015625 3.078125 36.171875 0.953125 
Q 31.34375 -1.171875 25.25 -1.171875 
Q 15.140625 -1.171875 9.84375 3.03125 
Q 4.546875 7.234375 3.078125 15.484375 
z
" id="ArialMT-115"/>
      <path d="M 42.09375 16.703125 
L 51.171875 15.578125 
Q 49.03125 7.625 43.21875 3.21875 
Q 37.40625 -1.171875 28.375 -1.171875 
Q 17 -1.171875 10.328125 5.828125 
Q 3.65625 12.84375 3.65625 25.484375 
Q 3.65625 38.578125 10.390625 45.796875 
Q 17.140625 53.03125 27.875 53.03125 
Q 38.28125 53.03125 44.875 45.953125 
Q 51.46875 38.875 51.46875 26.03125 
Q 51.46875 25.25 51.421875 23.6875 
L 12.75 23.6875 
Q 13.234375 15.140625 17.578125 10.59375 
Q 21.921875 6.0625 28.421875 6.0625 
Q 33.25 6.0625 36.671875 8.59375 
Q 40.09375 11.140625 42.09375 16.703125 
z
M 13.234375 30.90625 
L 42.1875 30.90625 
Q 41.609375 37.453125 38.875 40.71875 
Q 34.671875 45.796875 27.984375 45.796875 
Q 21.921875 45.796875 17.796875 41.75 
Q 13.671875 37.703125 13.234375 30.90625 
z
" id="ArialMT-101"/>
      <path d="M 6.5 0 
L 6.5 51.859375 
L 14.40625 51.859375 
L 14.40625 44 
Q 17.4375 49.515625 20 51.265625 
Q 22.5625 53.03125 25.640625 53.03125 
Q 30.078125 53.03125 34.671875 50.203125 
L 31.640625 42.046875 
Q 28.421875 43.953125 25.203125 43.953125 
Q 22.3125 43.953125 20.015625 42.21875 
Q 17.71875 40.484375 16.75 37.40625 
Q 15.28125 32.71875 15.28125 27.15625 
L 15.28125 0 
z
" id="ArialMT-114"/>
      <path d="M 21 0 
L 1.265625 51.859375 
L 10.546875 51.859375 
L 21.6875 20.796875 
Q 23.484375 15.765625 25 10.359375 
Q 26.171875 14.453125 28.265625 20.21875 
L 39.796875 51.859375 
L 48.828125 51.859375 
L 29.203125 0 
z
" id="ArialMT-118"/>
      <path d="M 40.234375 0 
L 40.234375 6.546875 
Q 35.296875 -1.171875 25.734375 -1.171875 
Q 19.53125 -1.171875 14.328125 2.25 
Q 9.125 5.671875 6.265625 11.796875 
Q 3.421875 17.921875 3.421875 25.875 
Q 3.421875 33.640625 6 39.96875 
Q 8.59375 46.296875 13.765625 49.65625 
Q 18.953125 53.03125 25.34375 53.03125 
Q 30.03125 53.03125 33.6875 51.046875 
Q 37.359375 49.078125 39.65625 45.90625 
L 39.65625 71.578125 
L 48.390625 71.578125 
L 48.390625 0 
z
M 12.453125 25.875 
Q 12.453125 15.921875 16.640625 10.984375 
Q 20.84375 6.0625 26.5625 6.0625 
Q 32.328125 6.0625 36.34375 10.765625 
Q 40.375 15.484375 40.375 25.140625 
Q 40.375 35.796875 36.265625 40.765625 
Q 32.171875 45.75 26.171875 45.75 
Q 20.3125 45.75 16.375 40.96875 
Q 12.453125 36.1875 12.453125 25.875 
z
" id="ArialMT-100"/>
      <path id="ArialMT-32"/>
      <path d="M 25.921875 0 
L 25.921875 63.140625 
L 2.34375 63.140625 
L 2.34375 71.578125 
L 59.078125 71.578125 
L 59.078125 63.140625 
L 35.40625 63.140625 
L 35.40625 0 
z
" id="ArialMT-84"/>
      <path d="M 54.6875 71.578125 
L 64.15625 71.578125 
L 64.15625 30.21875 
Q 64.15625 19.4375 61.71875 13.078125 
Q 59.28125 6.734375 52.90625 2.75 
Q 46.53125 -1.21875 36.1875 -1.21875 
Q 26.125 -1.21875 19.71875 2.25 
Q 13.328125 5.71875 10.59375 12.28125 
Q 7.859375 18.84375 7.859375 30.21875 
L 7.859375 71.578125 
L 17.328125 71.578125 
L 17.328125 30.28125 
Q 17.328125 20.953125 19.0625 16.53125 
Q 20.796875 12.109375 25.015625 9.71875 
Q 29.25 7.328125 35.359375 7.328125 
Q 45.796875 7.328125 50.234375 12.0625 
Q 54.6875 16.796875 54.6875 30.28125 
z
" id="ArialMT-85"/>
     </defs>
     <g style="fill:#262626;" transform="translate(150.892361 352.911094)scale(0.15 -0.15)">
      <use xlink:href="#ArialMT-79"/>
      <use x="77.783203" xlink:href="#ArialMT-98"/>
      <use x="133.398438" xlink:href="#ArialMT-115"/>
      <use x="183.398438" xlink:href="#ArialMT-101"/>
      <use x="239.013672" xlink:href="#ArialMT-114"/>
      <use x="272.314453" xlink:href="#ArialMT-118"/>
      <use x="322.314453" xlink:href="#ArialMT-101"/>
      <use x="377.929688" xlink:href="#ArialMT-100"/>
      <use x="433.544922" xlink:href="#ArialMT-32"/>
      <use x="461.328125" xlink:href="#ArialMT-79"/>
      <use x="539.111328" xlink:href="#ArialMT-84"/>
      <use x="600.195312" xlink:href="#ArialMT-85"/>
      <use x="672.412109" xlink:href="#ArialMT-115"/>
     </g>
    </g>
   </g>
   <g id="matplotlib.axis_2">
    <g id="ytick_1">
     <g id="text_7">
      <!-- 0.0 -->
      <defs>
       <path d="M 9.078125 0 
L 9.078125 10.015625 
L 19.09375 10.015625 
L 19.09375 0 
z
" id="ArialMT-46"/>
      </defs>
      <g style="fill:#262626;" transform="translate(30.842222 292.289452)scale(0.12 -0.12)">
       <use xlink:href="#ArialMT-48"/>
       <use x="55.615234" xlink:href="#ArialMT-46"/>
       <use x="83.398438" xlink:href="#ArialMT-48"/>
      </g>
     </g>
    </g>
    <g id="ytick_2">
     <g id="text_8">
      <!-- 0.1 -->
      <g style="fill:#262626;" transform="translate(30.842222 256.866587)scale(0.12 -0.12)">
       <use xlink:href="#ArialMT-48"/>
       <use x="55.615234" xlink:href="#ArialMT-46"/>
       <use x="83.398438" xlink:href="#ArialMT-49"/>
      </g>
     </g>
    </g>
    <g id="ytick_3">
     <g id="text_9">
      <!-- 0.2 -->
      <g style="fill:#262626;" transform="translate(30.842222 221.443722)scale(0.12 -0.12)">
       <use xlink:href="#ArialMT-48"/>
       <use x="55.615234" xlink:href="#ArialMT-46"/>
       <use x="83.398438" xlink:href="#ArialMT-50"/>
      </g>
     </g>
    </g>
    <g id="ytick_4">
     <g id="text_10">
      <!-- 0.3 -->
      <defs>
       <path d="M 4.203125 18.890625 
L 12.984375 20.0625 
Q 14.5 12.59375 18.140625 9.296875 
Q 21.78125 6 27 6 
Q 33.203125 6 37.46875 10.296875 
Q 41.75 14.59375 41.75 20.953125 
Q 41.75 27 37.796875 30.921875 
Q 33.84375 34.859375 27.734375 34.859375 
Q 25.25 34.859375 21.53125 33.890625 
L 22.515625 41.609375 
Q 23.390625 41.5 23.921875 41.5 
Q 29.546875 41.5 34.03125 44.421875 
Q 38.53125 47.359375 38.53125 53.46875 
Q 38.53125 58.296875 35.25 61.46875 
Q 31.984375 64.65625 26.8125 64.65625 
Q 21.6875 64.65625 18.265625 61.421875 
Q 14.84375 58.203125 13.875 51.765625 
L 5.078125 53.328125 
Q 6.6875 62.15625 12.390625 67.015625 
Q 18.109375 71.875 26.609375 71.875 
Q 32.46875 71.875 37.390625 69.359375 
Q 42.328125 66.84375 44.9375 62.5 
Q 47.5625 58.15625 47.5625 53.265625 
Q 47.5625 48.640625 45.0625 44.828125 
Q 42.578125 41.015625 37.703125 38.765625 
Q 44.046875 37.3125 47.5625 32.6875 
Q 51.078125 28.078125 51.078125 21.140625 
Q 51.078125 11.765625 44.234375 5.25 
Q 37.40625 -1.265625 26.953125 -1.265625 
Q 17.53125 -1.265625 11.296875 4.34375 
Q 5.078125 9.96875 4.203125 18.890625 
z
" id="ArialMT-51"/>
      </defs>
      <g style="fill:#262626;" transform="translate(30.842222 186.020856)scale(0.12 -0.12)">
       <use xlink:href="#ArialMT-48"/>
       <use x="55.615234" xlink:href="#ArialMT-46"/>
       <use x="83.398438" xlink:href="#ArialMT-51"/>
      </g>
     </g>
    </g>
    <g id="ytick_5">
     <g id="text_11">
      <!-- 0.4 -->
      <defs>
       <path d="M 32.328125 0 
L 32.328125 17.140625 
L 1.265625 17.140625 
L 1.265625 25.203125 
L 33.9375 71.578125 
L 41.109375 71.578125 
L 41.109375 25.203125 
L 50.78125 25.203125 
L 50.78125 17.140625 
L 41.109375 17.140625 
L 41.109375 0 
z
M 32.328125 25.203125 
L 32.328125 57.46875 
L 9.90625 25.203125 
z
" id="ArialMT-52"/>
      </defs>
      <g style="fill:#262626;" transform="translate(30.842222 150.597991)scale(0.12 -0.12)">
       <use xlink:href="#ArialMT-48"/>
       <use x="55.615234" xlink:href="#ArialMT-46"/>
       <use x="83.398438" xlink:href="#ArialMT-52"/>
      </g>
     </g>
    </g>
    <g id="ytick_6">
     <g id="text_12">
      <!-- 0.5 -->
      <g style="fill:#262626;" transform="translate(30.842222 115.175126)scale(0.12 -0.12)">
       <use xlink:href="#ArialMT-48"/>
       <use x="55.615234" xlink:href="#ArialMT-46"/>
       <use x="83.398438" xlink:href="#ArialMT-53"/>
      </g>
     </g>
    </g>
    <g id="ytick_7">
     <g id="text_13">
      <!-- 0.6 -->
      <defs>
       <path d="M 49.75 54.046875 
L 41.015625 53.375 
Q 39.84375 58.546875 37.703125 60.890625 
Q 34.125 64.65625 28.90625 64.65625 
Q 24.703125 64.65625 21.53125 62.3125 
Q 17.390625 59.28125 14.984375 53.46875 
Q 12.59375 47.65625 12.5 36.921875 
Q 15.671875 41.75 20.265625 44.09375 
Q 24.859375 46.4375 29.890625 46.4375 
Q 38.671875 46.4375 44.84375 39.96875 
Q 51.03125 33.5 51.03125 23.25 
Q 51.03125 16.5 48.125 10.71875 
Q 45.21875 4.9375 40.140625 1.859375 
Q 35.0625 -1.21875 28.609375 -1.21875 
Q 17.625 -1.21875 10.6875 6.859375 
Q 3.765625 14.9375 3.765625 33.5 
Q 3.765625 54.25 11.421875 63.671875 
Q 18.109375 71.875 29.4375 71.875 
Q 37.890625 71.875 43.28125 67.140625 
Q 48.6875 62.40625 49.75 54.046875 
z
M 13.875 23.1875 
Q 13.875 18.65625 15.796875 14.5 
Q 17.71875 10.359375 21.1875 8.171875 
Q 24.65625 6 28.46875 6 
Q 34.03125 6 38.03125 10.484375 
Q 42.046875 14.984375 42.046875 22.703125 
Q 42.046875 30.125 38.078125 34.390625 
Q 34.125 38.671875 28.125 38.671875 
Q 22.171875 38.671875 18.015625 34.390625 
Q 13.875 30.125 13.875 23.1875 
z
" id="ArialMT-54"/>
      </defs>
      <g style="fill:#262626;" transform="translate(30.842222 79.752261)scale(0.12 -0.12)">
       <use xlink:href="#ArialMT-48"/>
       <use x="55.615234" xlink:href="#ArialMT-46"/>
       <use x="83.398438" xlink:href="#ArialMT-54"/>
      </g>
     </g>
    </g>
    <g id="ytick_8">
     <g id="text_14">
      <!-- 0.7 -->
      <defs>
       <path d="M 4.734375 62.203125 
L 4.734375 70.65625 
L 51.078125 70.65625 
L 51.078125 63.8125 
Q 44.234375 56.546875 37.515625 44.484375 
Q 30.8125 32.421875 27.15625 19.671875 
Q 24.515625 10.6875 23.78125 0 
L 14.75 0 
Q 14.890625 8.453125 18.0625 20.40625 
Q 21.234375 32.375 27.171875 43.484375 
Q 33.109375 54.59375 39.796875 62.203125 
z
" id="ArialMT-55"/>
      </defs>
      <g style="fill:#262626;" transform="translate(30.842222 44.329396)scale(0.12 -0.12)">
       <use xlink:href="#ArialMT-48"/>
       <use x="55.615234" xlink:href="#ArialMT-46"/>
       <use x="83.398438" xlink:href="#ArialMT-55"/>
      </g>
     </g>
    </g>
    <g id="text_15">
     <!-- Hydroxyomeprazole -->
     <defs>
      <path d="M 8.015625 0 
L 8.015625 71.578125 
L 17.484375 71.578125 
L 17.484375 42.1875 
L 54.6875 42.1875 
L 54.6875 71.578125 
L 64.15625 71.578125 
L 64.15625 0 
L 54.6875 0 
L 54.6875 33.734375 
L 17.484375 33.734375 
L 17.484375 0 
z
" id="ArialMT-72"/>
      <path d="M 6.203125 -19.96875 
L 5.21875 -11.71875 
Q 8.109375 -12.5 10.25 -12.5 
Q 13.1875 -12.5 14.9375 -11.515625 
Q 16.703125 -10.546875 17.828125 -8.796875 
Q 18.65625 -7.46875 20.515625 -2.25 
Q 20.75 -1.515625 21.296875 -0.09375 
L 1.609375 51.859375 
L 11.078125 51.859375 
L 21.875 21.828125 
Q 23.96875 16.109375 25.640625 9.8125 
Q 27.15625 15.875 29.25 21.625 
L 40.328125 51.859375 
L 49.125 51.859375 
L 29.390625 -0.875 
Q 26.21875 -9.421875 24.46875 -12.640625 
Q 22.125 -17 19.09375 -19.015625 
Q 16.0625 -21.046875 11.859375 -21.046875 
Q 9.328125 -21.046875 6.203125 -19.96875 
z
" id="ArialMT-121"/>
      <path d="M 3.328125 25.921875 
Q 3.328125 40.328125 11.328125 47.265625 
Q 18.015625 53.03125 27.640625 53.03125 
Q 38.328125 53.03125 45.109375 46.015625 
Q 51.90625 39.015625 51.90625 26.65625 
Q 51.90625 16.65625 48.90625 10.90625 
Q 45.90625 5.171875 40.15625 2 
Q 34.421875 -1.171875 27.640625 -1.171875 
Q 16.75 -1.171875 10.03125 5.8125 
Q 3.328125 12.796875 3.328125 25.921875 
z
M 12.359375 25.921875 
Q 12.359375 15.96875 16.703125 11.015625 
Q 21.046875 6.0625 27.640625 6.0625 
Q 34.1875 6.0625 38.53125 11.03125 
Q 42.875 16.015625 42.875 26.21875 
Q 42.875 35.84375 38.5 40.796875 
Q 34.125 45.75 27.640625 45.75 
Q 21.046875 45.75 16.703125 40.8125 
Q 12.359375 35.890625 12.359375 25.921875 
z
" id="ArialMT-111"/>
      <path d="M 0.734375 0 
L 19.671875 26.953125 
L 2.15625 51.859375 
L 13.140625 51.859375 
L 21.09375 39.703125 
Q 23.34375 36.234375 24.703125 33.890625 
Q 26.859375 37.109375 28.65625 39.59375 
L 37.40625 51.859375 
L 47.90625 51.859375 
L 29.984375 27.4375 
L 49.265625 0 
L 38.484375 0 
L 27.828125 16.109375 
L 25 20.453125 
L 11.375 0 
z
" id="ArialMT-120"/>
      <path d="M 6.59375 0 
L 6.59375 51.859375 
L 14.453125 51.859375 
L 14.453125 44.578125 
Q 16.890625 48.390625 20.9375 50.703125 
Q 25 53.03125 30.171875 53.03125 
Q 35.9375 53.03125 39.625 50.640625 
Q 43.3125 48.25 44.828125 43.953125 
Q 50.984375 53.03125 60.84375 53.03125 
Q 68.5625 53.03125 72.703125 48.75 
Q 76.859375 44.484375 76.859375 35.59375 
L 76.859375 0 
L 68.109375 0 
L 68.109375 32.671875 
Q 68.109375 37.9375 67.25 40.25 
Q 66.40625 42.578125 64.15625 43.984375 
Q 61.921875 45.40625 58.890625 45.40625 
Q 53.421875 45.40625 49.796875 41.765625 
Q 46.1875 38.140625 46.1875 30.125 
L 46.1875 0 
L 37.40625 0 
L 37.40625 33.6875 
Q 37.40625 39.546875 35.25 42.46875 
Q 33.109375 45.40625 28.21875 45.40625 
Q 24.515625 45.40625 21.359375 43.453125 
Q 18.21875 41.5 16.796875 37.734375 
Q 15.375 33.984375 15.375 26.90625 
L 15.375 0 
z
" id="ArialMT-109"/>
      <path d="M 6.59375 -19.875 
L 6.59375 51.859375 
L 14.59375 51.859375 
L 14.59375 45.125 
Q 17.4375 49.078125 21 51.046875 
Q 24.5625 53.03125 29.640625 53.03125 
Q 36.28125 53.03125 41.359375 49.609375 
Q 46.4375 46.1875 49.015625 39.953125 
Q 51.609375 33.734375 51.609375 26.3125 
Q 51.609375 18.359375 48.75 11.984375 
Q 45.90625 5.609375 40.453125 2.21875 
Q 35.015625 -1.171875 29 -1.171875 
Q 24.609375 -1.171875 21.109375 0.6875 
Q 17.625 2.546875 15.375 5.375 
L 15.375 -19.875 
z
M 14.546875 25.640625 
Q 14.546875 15.625 18.59375 10.84375 
Q 22.65625 6.0625 28.421875 6.0625 
Q 34.28125 6.0625 38.453125 11.015625 
Q 42.625 15.96875 42.625 26.375 
Q 42.625 36.28125 38.546875 41.203125 
Q 34.46875 46.140625 28.8125 46.140625 
Q 23.1875 46.140625 18.859375 40.890625 
Q 14.546875 35.640625 14.546875 25.640625 
z
" id="ArialMT-112"/>
      <path d="M 40.4375 6.390625 
Q 35.546875 2.25 31.03125 0.53125 
Q 26.515625 -1.171875 21.34375 -1.171875 
Q 12.796875 -1.171875 8.203125 3 
Q 3.609375 7.171875 3.609375 13.671875 
Q 3.609375 17.484375 5.34375 20.625 
Q 7.078125 23.78125 9.890625 25.6875 
Q 12.703125 27.59375 16.21875 28.5625 
Q 18.796875 29.25 24.03125 29.890625 
Q 34.671875 31.15625 39.703125 32.90625 
Q 39.75 34.71875 39.75 35.203125 
Q 39.75 40.578125 37.25 42.78125 
Q 33.890625 45.75 27.25 45.75 
Q 21.046875 45.75 18.09375 43.578125 
Q 15.140625 41.40625 13.71875 35.890625 
L 5.125 37.0625 
Q 6.296875 42.578125 8.984375 45.96875 
Q 11.671875 49.359375 16.75 51.1875 
Q 21.828125 53.03125 28.515625 53.03125 
Q 35.15625 53.03125 39.296875 51.46875 
Q 43.453125 49.90625 45.40625 47.53125 
Q 47.359375 45.171875 48.140625 41.546875 
Q 48.578125 39.3125 48.578125 33.453125 
L 48.578125 21.734375 
Q 48.578125 9.46875 49.140625 6.21875 
Q 49.703125 2.984375 51.375 0 
L 42.1875 0 
Q 40.828125 2.734375 40.4375 6.390625 
z
M 39.703125 26.03125 
Q 34.90625 24.078125 25.34375 22.703125 
Q 19.921875 21.921875 17.671875 20.9375 
Q 15.4375 19.96875 14.203125 18.09375 
Q 12.984375 16.21875 12.984375 13.921875 
Q 12.984375 10.40625 15.640625 8.0625 
Q 18.3125 5.71875 23.4375 5.71875 
Q 28.515625 5.71875 32.46875 7.9375 
Q 36.421875 10.15625 38.28125 14.015625 
Q 39.703125 17 39.703125 22.796875 
z
" id="ArialMT-97"/>
      <path d="M 1.953125 0 
L 1.953125 7.125 
L 34.96875 45.015625 
Q 29.34375 44.734375 25.046875 44.734375 
L 3.90625 44.734375 
L 3.90625 51.859375 
L 46.296875 51.859375 
L 46.296875 46.046875 
L 18.21875 13.140625 
L 12.796875 7.125 
Q 18.703125 7.5625 23.875 7.5625 
L 47.859375 7.5625 
L 47.859375 0 
z
" id="ArialMT-122"/>
      <path d="M 6.390625 0 
L 6.390625 71.578125 
L 15.1875 71.578125 
L 15.1875 0 
z
" id="ArialMT-108"/>
     </defs>
     <g style="fill:#262626;" transform="translate(23.685191 233.940234)rotate(-90)scale(0.15 -0.15)">
      <use xlink:href="#ArialMT-72"/>
      <use x="72.216797" xlink:href="#ArialMT-121"/>
      <use x="122.216797" xlink:href="#ArialMT-100"/>
      <use x="177.832031" xlink:href="#ArialMT-114"/>
      <use x="211.132812" xlink:href="#ArialMT-111"/>
      <use x="266.748047" xlink:href="#ArialMT-120"/>
      <use x="316.748047" xlink:href="#ArialMT-121"/>
      <use x="366.748047" xlink:href="#ArialMT-111"/>
      <use x="422.363281" xlink:href="#ArialMT-109"/>
      <use x="505.664062" xlink:href="#ArialMT-101"/>
      <use x="561.279297" xlink:href="#ArialMT-112"/>
      <use x="616.894531" xlink:href="#ArialMT-114"/>
      <use x="650.195312" xlink:href="#ArialMT-97"/>
      <use x="705.810547" xlink:href="#ArialMT-122"/>
      <use x="755.810547" xlink:href="#ArialMT-111"/>
      <use x="811.425781" xlink:href="#ArialMT-108"/>
      <use x="833.642578" xlink:href="#ArialMT-101"/>
     </g>
    </g>
   </g>
   <g id="PathCollection_1">
    <defs>
     <path d="M 0 3 
C 0.795609 3 1.55874 2.683901 2.12132 2.12132 
C 2.683901 1.55874 3 0.795609 3 0 
C 3 -0.795609 2.683901 -1.55874 2.12132 -2.12132 
C 1.55874 -2.683901 0.795609 -3 0 -3 
C -0.795609 -3 -1.55874 -2.683901 -2.12132 -2.12132 
C -2.683901 -1.55874 -3 -0.795609 -3 0 
C -3 0.795609 -2.683901 1.55874 -2.12132 2.12132 
C -1.55874 2.683901 -0.795609 3 0 3 
z
" id="m1020de1a32" style="stroke:#f77189;stroke-opacity:0.8;"/>
    </defs>
    <g clip-path="url(#p056e46dbd1)">
     <use style="fill:#f77189;fill-opacity:0.8;stroke:#f77189;stroke-opacity:0.8;" x="135.468683" xlink:href="#m1020de1a32" y="281.832139"/>
     <use style="fill:#f77189;fill-opacity:0.8;stroke:#f77189;stroke-opacity:0.8;" x="112.46481" xlink:href="#m1020de1a32" y="206.512549"/>
     <use style="fill:#f77189;fill-opacity:0.8;stroke:#f77189;stroke-opacity:0.8;" x="102.113068" xlink:href="#m1020de1a32" y="28.273512"/>
     <use style="fill:#f77189;fill-opacity:0.8;stroke:#f77189;stroke-opacity:0.8;" x="75.658614" xlink:href="#m1020de1a32" y="219.925226"/>
     <use style="fill:#f77189;fill-opacity:0.8;stroke:#f77189;stroke-opacity:0.8;" x="76.808808" xlink:href="#m1020de1a32" y="239.083058"/>
     <use style="fill:#f77189;fill-opacity:0.8;stroke:#f77189;stroke-opacity:0.8;" x="109.014229" xlink:href="#m1020de1a32" y="246.682406"/>
    </g>
   </g>
   <g id="PathCollection_2">
    <defs>
     <path d="M 0 3 
C 0.795609 3 1.55874 2.683901 2.12132 2.12132 
C 2.683901 1.55874 3 0.795609 3 0 
C 3 -0.795609 2.683901 -1.55874 2.12132 -2.12132 
C 1.55874 -2.683901 0.795609 -3 0 -3 
C -0.795609 -3 -1.55874 -2.683901 -2.12132 -2.12132 
C -2.683901 -1.55874 -3 -0.795609 -3 0 
C -3 0.795609 -2.683901 1.55874 -2.12132 2.12132 
C -1.55874 2.683901 -0.795609 3 0 3 
z
" id="m4a1cc58862" style="stroke:#ef7d32;stroke-opacity:0.8;"/>
    </defs>
    <g clip-path="url(#p056e46dbd1)">
     <use style="fill:#ef7d32;fill-opacity:0.8;stroke:#ef7d32;stroke-opacity:0.8;" x="248.18766" xlink:href="#m4a1cc58862" y="247.667591"/>
     <use style="fill:#ef7d32;fill-opacity:0.8;stroke:#ef7d32;stroke-opacity:0.8;" x="186.077203" xlink:href="#m4a1cc58862" y="286.798619"/>
     <use style="fill:#ef7d32;fill-opacity:0.8;stroke:#ef7d32;stroke-opacity:0.8;" x="198.729333" xlink:href="#m4a1cc58862" y="286.71573"/>
     <use style="fill:#ef7d32;fill-opacity:0.8;stroke:#ef7d32;stroke-opacity:0.8;" x="189.527784" xlink:href="#m4a1cc58862" y="274.011031"/>
     <use style="fill:#ef7d32;fill-opacity:0.8;stroke:#ef7d32;stroke-opacity:0.8;" x="187.227397" xlink:href="#m4a1cc58862" y="276.112309"/>
     <use style="fill:#ef7d32;fill-opacity:0.8;stroke:#ef7d32;stroke-opacity:0.8;" x="203.330108" xlink:href="#m4a1cc58862" y="280.341243"/>
     <use style="fill:#ef7d32;fill-opacity:0.8;stroke:#ef7d32;stroke-opacity:0.8;" x="209.081076" xlink:href="#m4a1cc58862" y="286.261091"/>
     <use style="fill:#ef7d32;fill-opacity:0.8;stroke:#ef7d32;stroke-opacity:0.8;" x="203.330108" xlink:href="#m4a1cc58862" y="284.122243"/>
    </g>
   </g>
   <g id="PathCollection_3">
    <defs>
     <path d="M 0 3 
C 0.795609 3 1.55874 2.683901 2.12132 2.12132 
C 2.683901 1.55874 3 0.795609 3 0 
C 3 -0.795609 2.683901 -1.55874 2.12132 -2.12132 
C 1.55874 -2.683901 0.795609 -3 0 -3 
C -0.795609 -3 -1.55874 -2.683901 -2.12132 -2.12132 
C -2.683901 -1.55874 -3 -0.795609 -3 0 
C -3 0.795609 -2.683901 1.55874 -2.12132 2.12132 
C -1.55874 2.683901 -0.795609 3 0 3 
z
" id="m846a84df37" style="stroke:#c69432;stroke-opacity:0.8;"/>
    </defs>
    <g clip-path="url(#p056e46dbd1)">
     <use style="fill:#c69432;fill-opacity:0.8;stroke:#c69432;stroke-opacity:0.8;" x="219.432819" xlink:href="#m846a84df37" y="278.411664"/>
     <use style="fill:#c69432;fill-opacity:0.8;stroke:#c69432;stroke-opacity:0.8;" x="220.583013" xlink:href="#m846a84df37" y="235.201207"/>
     <use style="fill:#c69432;fill-opacity:0.8;stroke:#c69432;stroke-opacity:0.8;" x="190.677978" xlink:href="#m846a84df37" y="268.111454"/>
     <use style="fill:#c69432;fill-opacity:0.8;stroke:#c69432;stroke-opacity:0.8;" x="115.915391" xlink:href="#m846a84df37" y="169.191883"/>
     <use style="fill:#c69432;fill-opacity:0.8;stroke:#c69432;stroke-opacity:0.8;" x="148.120813" xlink:href="#m846a84df37" y="218.216488"/>
    </g>
   </g>
   <g id="PathCollection_4">
    <defs>
     <path d="M 0 3 
C 0.795609 3 1.55874 2.683901 2.12132 2.12132 
C 2.683901 1.55874 3 0.795609 3 0 
C 3 -0.795609 2.683901 -1.55874 2.12132 -2.12132 
C 1.55874 -2.683901 0.795609 -3 0 -3 
C -0.795609 -3 -1.55874 -2.683901 -2.12132 -2.12132 
C -2.683901 -1.55874 -3 -0.795609 -3 0 
C -3 0.795609 -2.683901 1.55874 -2.12132 2.12132 
C -1.55874 2.683901 -0.795609 3 0 3 
z
" id="m861931c114" style="stroke:#a79f31;stroke-opacity:0.8;"/>
    </defs>
    <g clip-path="url(#p056e46dbd1)">
     <use style="fill:#a79f31;fill-opacity:0.8;stroke:#a79f31;stroke-opacity:0.8;" x="229.784562" xlink:href="#m861931c114" y="287.595828"/>
     <use style="fill:#a79f31;fill-opacity:0.8;stroke:#a79f31;stroke-opacity:0.8;" x="245.887273" xlink:href="#m861931c114" y="286.215969"/>
     <use style="fill:#a79f31;fill-opacity:0.8;stroke:#a79f31;stroke-opacity:0.8;" x="95.211906" xlink:href="#m861931c114" y="177.30988"/>
     <use style="fill:#a79f31;fill-opacity:0.8;stroke:#a79f31;stroke-opacity:0.8;" x="135.468683" xlink:href="#m861931c114" y="255.087875"/>
     <use style="fill:#a79f31;fill-opacity:0.8;stroke:#a79f31;stroke-opacity:0.8;" x="169.974492" xlink:href="#m861931c114" y="285.569611"/>
     <use style="fill:#a79f31;fill-opacity:0.8;stroke:#a79f31;stroke-opacity:0.8;" x="181.476429" xlink:href="#m861931c114" y="286.674395"/>
     <use style="fill:#a79f31;fill-opacity:0.8;stroke:#a79f31;stroke-opacity:0.8;" x="132.018102" xlink:href="#m861931c114" y="286.469869"/>
    </g>
   </g>
   <g id="PathCollection_5">
    <defs>
     <path d="M 0 3 
C 0.795609 3 1.55874 2.683901 2.12132 2.12132 
C 2.683901 1.55874 3 0.795609 3 0 
C 3 -0.795609 2.683901 -1.55874 2.12132 -2.12132 
C 1.55874 -2.683901 0.795609 -3 0 -3 
C -0.795609 -3 -1.55874 -2.683901 -2.12132 -2.12132 
C -2.683901 -1.55874 -3 -0.795609 -3 0 
C -3 0.795609 -2.683901 1.55874 -2.12132 2.12132 
C -1.55874 2.683901 -0.795609 3 0 3 
z
" id="ma5e47da2ee" style="stroke:#82a931;stroke-opacity:0.8;"/>
    </defs>
    <g clip-path="url(#p056e46dbd1)">
     <use style="fill:#82a931;fill-opacity:0.8;stroke:#82a931;stroke-opacity:0.8;" x="187.227397" xlink:href="#ma5e47da2ee" y="280.42521"/>
     <use style="fill:#82a931;fill-opacity:0.8;stroke:#82a931;stroke-opacity:0.8;" x="220.583013" xlink:href="#ma5e47da2ee" y="268.941871"/>
     <use style="fill:#82a931;fill-opacity:0.8;stroke:#82a931;stroke-opacity:0.8;" x="224.033594" xlink:href="#ma5e47da2ee" y="284.553219"/>
     <use style="fill:#82a931;fill-opacity:0.8;stroke:#82a931;stroke-opacity:0.8;" x="148.120813" xlink:href="#ma5e47da2ee" y="284.581731"/>
     <use style="fill:#82a931;fill-opacity:0.8;stroke:#82a931;stroke-opacity:0.8;" x="148.120813" xlink:href="#ma5e47da2ee" y="283.237305"/>
     <use style="fill:#82a931;fill-opacity:0.8;stroke:#82a931;stroke-opacity:0.8;" x="202.179914" xlink:href="#ma5e47da2ee" y="278.77493"/>
     <use style="fill:#82a931;fill-opacity:0.8;stroke:#82a931;stroke-opacity:0.8;" x="150.421201" xlink:href="#ma5e47da2ee" y="274.715062"/>
    </g>
   </g>
   <g id="PathCollection_6">
    <defs>
     <path d="M 0 3 
C 0.795609 3 1.55874 2.683901 2.12132 2.12132 
C 2.683901 1.55874 3 0.795609 3 0 
C 3 -0.795609 2.683901 -1.55874 2.12132 -2.12132 
C 1.55874 -2.683901 0.795609 -3 0 -3 
C -0.795609 -3 -1.55874 -2.683901 -2.12132 -2.12132 
C -2.683901 -1.55874 -3 -0.795609 -3 0 
C -3 0.795609 -2.683901 1.55874 -2.12132 2.12132 
C -1.55874 2.683901 -0.795609 3 0 3 
z
" id="m7904c0c76d" style="stroke:#32b24e;stroke-opacity:0.8;"/>
    </defs>
    <g clip-path="url(#p056e46dbd1)">
     <use style="fill:#32b24e;fill-opacity:0.8;stroke:#32b24e;stroke-opacity:0.8;" x="178.025848" xlink:href="#m7904c0c76d" y="206.867655"/>
     <use style="fill:#32b24e;fill-opacity:0.8;stroke:#32b24e;stroke-opacity:0.8;" x="122.816553" xlink:href="#m7904c0c76d" y="203.370614"/>
     <use style="fill:#32b24e;fill-opacity:0.8;stroke:#32b24e;stroke-opacity:0.8;" x="122.816553" xlink:href="#m7904c0c76d" y="242.201223"/>
     <use style="fill:#32b24e;fill-opacity:0.8;stroke:#32b24e;stroke-opacity:0.8;" x="107.864036" xlink:href="#m7904c0c76d" y="252.359465"/>
     <use style="fill:#32b24e;fill-opacity:0.8;stroke:#32b24e;stroke-opacity:0.8;" x="110.164423" xlink:href="#m7904c0c76d" y="239.22583"/>
     <use style="fill:#32b24e;fill-opacity:0.8;stroke:#32b24e;stroke-opacity:0.8;" x="127.417328" xlink:href="#m7904c0c76d" y="232.151389"/>
     <use style="fill:#32b24e;fill-opacity:0.8;stroke:#32b24e;stroke-opacity:0.8;" x="143.520039" xlink:href="#m7904c0c76d" y="230.556276"/>
    </g>
   </g>
   <g id="PathCollection_7">
    <defs>
     <path d="M 0 3 
C 0.795609 3 1.55874 2.683901 2.12132 2.12132 
C 2.683901 1.55874 3 0.795609 3 0 
C 3 -0.795609 2.683901 -1.55874 2.12132 -2.12132 
C 1.55874 -2.683901 0.795609 -3 0 -3 
C -0.795609 -3 -1.55874 -2.683901 -2.12132 -2.12132 
C -2.683901 -1.55874 -3 -0.795609 -3 0 
C -3 0.795609 -2.683901 1.55874 -2.12132 2.12132 
C -1.55874 2.683901 -0.795609 3 0 3 
z
" id="m4e4b9e2554" style="stroke:#34af8a;stroke-opacity:0.8;"/>
    </defs>
    <g clip-path="url(#p056e46dbd1)">
     <use style="fill:#34af8a;fill-opacity:0.8;stroke:#34af8a;stroke-opacity:0.8;" x="184.92701" xlink:href="#m4e4b9e2554" y="273.372094"/>
     <use style="fill:#34af8a;fill-opacity:0.8;stroke:#34af8a;stroke-opacity:0.8;" x="122.816553" xlink:href="#m4e4b9e2554" y="246.942142"/>
     <use style="fill:#34af8a;fill-opacity:0.8;stroke:#34af8a;stroke-opacity:0.8;" x="99.81268" xlink:href="#m4e4b9e2554" y="198.930821"/>
     <use style="fill:#34af8a;fill-opacity:0.8;stroke:#34af8a;stroke-opacity:0.8;" x="141.219651" xlink:href="#m4e4b9e2554" y="256.558148"/>
     <use style="fill:#34af8a;fill-opacity:0.8;stroke:#34af8a;stroke-opacity:0.8;" x="97.512293" xlink:href="#m4e4b9e2554" y="197.477019"/>
     <use style="fill:#34af8a;fill-opacity:0.8;stroke:#34af8a;stroke-opacity:0.8;" x="77.959001" xlink:href="#m4e4b9e2554" y="201.873548"/>
     <use style="fill:#34af8a;fill-opacity:0.8;stroke:#34af8a;stroke-opacity:0.8;" x="71.057839" xlink:href="#m4e4b9e2554" y="174.061215"/>
     <use style="fill:#34af8a;fill-opacity:0.8;stroke:#34af8a;stroke-opacity:0.8;" x="91.761325" xlink:href="#m4e4b9e2554" y="231.124247"/>
    </g>
   </g>
   <g id="PathCollection_8">
    <defs>
     <path d="M 0 3 
C 0.795609 3 1.55874 2.683901 2.12132 2.12132 
C 2.683901 1.55874 3 0.795609 3 0 
C 3 -0.795609 2.683901 -1.55874 2.12132 -2.12132 
C 1.55874 -2.683901 0.795609 -3 0 -3 
C -0.795609 -3 -1.55874 -2.683901 -2.12132 -2.12132 
C -2.683901 -1.55874 -3 -0.795609 -3 0 
C -3 0.795609 -2.683901 1.55874 -2.12132 2.12132 
C -1.55874 2.683901 -0.795609 3 0 3 
z
" id="mfa4859f3ee" style="stroke:#36ada4;stroke-opacity:0.8;"/>
    </defs>
    <g clip-path="url(#p056e46dbd1)">
     <use style="fill:#36ada4;fill-opacity:0.8;stroke:#36ada4;stroke-opacity:0.8;" x="191.828172" xlink:href="#mfa4859f3ee" y="284.73551"/>
     <use style="fill:#36ada4;fill-opacity:0.8;stroke:#36ada4;stroke-opacity:0.8;" x="121.66636" xlink:href="#mfa4859f3ee" y="225.172071"/>
     <use style="fill:#36ada4;fill-opacity:0.8;stroke:#36ada4;stroke-opacity:0.8;" x="137.769071" xlink:href="#mfa4859f3ee" y="217.621371"/>
     <use style="fill:#36ada4;fill-opacity:0.8;stroke:#36ada4;stroke-opacity:0.8;" x="144.670232" xlink:href="#mfa4859f3ee" y="233.754509"/>
     <use style="fill:#36ada4;fill-opacity:0.8;stroke:#36ada4;stroke-opacity:0.8;" x="175.725461" xlink:href="#mfa4859f3ee" y="200.022232"/>
    </g>
   </g>
   <g id="PathCollection_9">
    <defs>
     <path d="M 0 3 
C 0.795609 3 1.55874 2.683901 2.12132 2.12132 
C 2.683901 1.55874 3 0.795609 3 0 
C 3 -0.795609 2.683901 -1.55874 2.12132 -2.12132 
C 1.55874 -2.683901 0.795609 -3 0 -3 
C -0.795609 -3 -1.55874 -2.683901 -2.12132 -2.12132 
C -2.683901 -1.55874 -3 -0.795609 -3 0 
C -3 0.795609 -2.683901 1.55874 -2.12132 2.12132 
C -1.55874 2.683901 -0.795609 3 0 3 
z
" id="mf5a887e020" style="stroke:#37aabb;stroke-opacity:0.8;"/>
    </defs>
    <g clip-path="url(#p056e46dbd1)">
     <use style="fill:#37aabb;fill-opacity:0.8;stroke:#37aabb;stroke-opacity:0.8;" x="187.227397" xlink:href="#mf5a887e020" y="217.204817"/>
     <use style="fill:#37aabb;fill-opacity:0.8;stroke:#37aabb;stroke-opacity:0.8;" x="122.816553" xlink:href="#mf5a887e020" y="219.842613"/>
     <use style="fill:#37aabb;fill-opacity:0.8;stroke:#37aabb;stroke-opacity:0.8;" x="115.915391" xlink:href="#mf5a887e020" y="250.990089"/>
     <use style="fill:#37aabb;fill-opacity:0.8;stroke:#37aabb;stroke-opacity:0.8;" x="148.120813" xlink:href="#mf5a887e020" y="224.911864"/>
     <use style="fill:#37aabb;fill-opacity:0.8;stroke:#37aabb;stroke-opacity:0.8;" x="122.816553" xlink:href="#mf5a887e020" y="215.81847"/>
     <use style="fill:#37aabb;fill-opacity:0.8;stroke:#37aabb;stroke-opacity:0.8;" x="125.11694" xlink:href="#mf5a887e020" y="243.631066"/>
    </g>
   </g>
   <g id="PathCollection_10">
    <defs>
     <path d="M 0 3 
C 0.795609 3 1.55874 2.683901 2.12132 2.12132 
C 2.683901 1.55874 3 0.795609 3 0 
C 3 -0.795609 2.683901 -1.55874 2.12132 -2.12132 
C 1.55874 -2.683901 0.795609 -3 0 -3 
C -0.795609 -3 -1.55874 -2.683901 -2.12132 -2.12132 
C -2.683901 -1.55874 -3 -0.795609 -3 0 
C -3 0.795609 -2.683901 1.55874 -2.12132 2.12132 
C -1.55874 2.683901 -0.795609 3 0 3 
z
" id="m7e1f75db2d" style="stroke:#3aa6da;stroke-opacity:0.8;"/>
    </defs>
    <g clip-path="url(#p056e46dbd1)">
     <use style="fill:#3aa6da;fill-opacity:0.8;stroke:#3aa6da;stroke-opacity:0.8;" x="183.776816" xlink:href="#m7e1f75db2d" y="279.222165"/>
     <use style="fill:#3aa6da;fill-opacity:0.8;stroke:#3aa6da;stroke-opacity:0.8;" x="113.615004" xlink:href="#m7e1f75db2d" y="238.151062"/>
     <use style="fill:#3aa6da;fill-opacity:0.8;stroke:#3aa6da;stroke-opacity:0.8;" x="150.421201" xlink:href="#m7e1f75db2d" y="284.531138"/>
     <use style="fill:#3aa6da;fill-opacity:0.8;stroke:#3aa6da;stroke-opacity:0.8;" x="83.709969" xlink:href="#m7e1f75db2d" y="253.351961"/>
    </g>
   </g>
   <g id="PathCollection_11">
    <defs>
     <path d="M 0 3 
C 0.795609 3 1.55874 2.683901 2.12132 2.12132 
C 2.683901 1.55874 3 0.795609 3 0 
C 3 -0.795609 2.683901 -1.55874 2.12132 -2.12132 
C 1.55874 -2.683901 0.795609 -3 0 -3 
C -0.795609 -3 -1.55874 -2.683901 -2.12132 -2.12132 
C -2.683901 -1.55874 -3 -0.795609 -3 0 
C -3 0.795609 -2.683901 1.55874 -2.12132 2.12132 
C -1.55874 2.683901 -0.795609 3 0 3 
z
" id="m0378769d88" style="stroke:#8197f4;stroke-opacity:0.8;"/>
    </defs>
    <g clip-path="url(#p056e46dbd1)">
     <use style="fill:#8197f4;fill-opacity:0.8;stroke:#8197f4;stroke-opacity:0.8;" x="184.92701" xlink:href="#m0378769d88" y="285.183023"/>
     <use style="fill:#8197f4;fill-opacity:0.8;stroke:#8197f4;stroke-opacity:0.8;" x="164.223524" xlink:href="#m0378769d88" y="275.223871"/>
     <use style="fill:#8197f4;fill-opacity:0.8;stroke:#8197f4;stroke-opacity:0.8;" x="92.911518" xlink:href="#m0378769d88" y="240.181787"/>
     <use style="fill:#8197f4;fill-opacity:0.8;stroke:#8197f4;stroke-opacity:0.8;" x="95.211906" xlink:href="#m0378769d88" y="251.152086"/>
     <use style="fill:#8197f4;fill-opacity:0.8;stroke:#8197f4;stroke-opacity:0.8;" x="117.065585" xlink:href="#m0378769d88" y="255.343181"/>
     <use style="fill:#8197f4;fill-opacity:0.8;stroke:#8197f4;stroke-opacity:0.8;" x="94.061712" xlink:href="#m0378769d88" y="252.462122"/>
     <use style="fill:#8197f4;fill-opacity:0.8;stroke:#8197f4;stroke-opacity:0.8;" x="92.911518" xlink:href="#m0378769d88" y="206.978533"/>
    </g>
   </g>
   <g id="PathCollection_12">
    <defs>
     <path d="M 0 3 
C 0.795609 3 1.55874 2.683901 2.12132 2.12132 
C 2.683901 1.55874 3 0.795609 3 0 
C 3 -0.795609 2.683901 -1.55874 2.12132 -2.12132 
C 1.55874 -2.683901 0.795609 -3 0 -3 
C -0.795609 -3 -1.55874 -2.683901 -2.12132 -2.12132 
C -2.683901 -1.55874 -3 -0.795609 -3 0 
C -3 0.795609 -2.683901 1.55874 -2.12132 2.12132 
C -1.55874 2.683901 -0.795609 3 0 3 
z
" id="mcb62d5fe6d" style="stroke:#c180f4;stroke-opacity:0.8;"/>
    </defs>
    <g clip-path="url(#p056e46dbd1)">
     <use style="fill:#c180f4;fill-opacity:0.8;stroke:#c180f4;stroke-opacity:0.8;" x="211.381464" xlink:href="#mcb62d5fe6d" y="277.75783"/>
     <use style="fill:#c180f4;fill-opacity:0.8;stroke:#c180f4;stroke-opacity:0.8;" x="188.377591" xlink:href="#mcb62d5fe6d" y="260.840695"/>
     <use style="fill:#c180f4;fill-opacity:0.8;stroke:#c180f4;stroke-opacity:0.8;" x="151.571394" xlink:href="#mcb62d5fe6d" y="222.951337"/>
     <use style="fill:#c180f4;fill-opacity:0.8;stroke:#c180f4;stroke-opacity:0.8;" x="178.025848" xlink:href="#mcb62d5fe6d" y="282.77272"/>
     <use style="fill:#c180f4;fill-opacity:0.8;stroke:#c180f4;stroke-opacity:0.8;" x="166.523912" xlink:href="#mcb62d5fe6d" y="282.541045"/>
     <use style="fill:#c180f4;fill-opacity:0.8;stroke:#c180f4;stroke-opacity:0.8;" x="212.531657" xlink:href="#mcb62d5fe6d" y="285.310888"/>
    </g>
   </g>
   <g id="PathCollection_13">
    <defs>
     <path d="M 0 3 
C 0.795609 3 1.55874 2.683901 2.12132 2.12132 
C 2.683901 1.55874 3 0.795609 3 0 
C 3 -0.795609 2.683901 -1.55874 2.12132 -2.12132 
C 1.55874 -2.683901 0.795609 -3 0 -3 
C -0.795609 -3 -1.55874 -2.683901 -2.12132 -2.12132 
C -2.683901 -1.55874 -3 -0.795609 -3 0 
C -3 0.795609 -2.683901 1.55874 -2.12132 2.12132 
C -1.55874 2.683901 -0.795609 3 0 3 
z
" id="m256844a1fb" style="stroke:#f45deb;stroke-opacity:0.8;"/>
    </defs>
    <g clip-path="url(#p056e46dbd1)">
     <use style="fill:#f45deb;fill-opacity:0.8;stroke:#f45deb;stroke-opacity:0.8;" x="243.586886" xlink:href="#m256844a1fb" y="287.56571"/>
     <use style="fill:#f45deb;fill-opacity:0.8;stroke:#f45deb;stroke-opacity:0.8;" x="271.191533" xlink:href="#m256844a1fb" y="287.193314"/>
     <use style="fill:#f45deb;fill-opacity:0.8;stroke:#f45deb;stroke-opacity:0.8;" x="247.037466" xlink:href="#m256844a1fb" y="287.3088"/>
     <use style="fill:#f45deb;fill-opacity:0.8;stroke:#f45deb;stroke-opacity:0.8;" x="217.132432" xlink:href="#m256844a1fb" y="286.549545"/>
     <use style="fill:#f45deb;fill-opacity:0.8;stroke:#f45deb;stroke-opacity:0.8;" x="207.930883" xlink:href="#m256844a1fb" y="286.690893"/>
     <use style="fill:#f45deb;fill-opacity:0.8;stroke:#f45deb;stroke-opacity:0.8;" x="210.23127" xlink:href="#m256844a1fb" y="287.360295"/>
     <use style="fill:#f45deb;fill-opacity:0.8;stroke:#f45deb;stroke-opacity:0.8;" x="194.128559" xlink:href="#m256844a1fb" y="287.232935"/>
    </g>
   </g>
   <g id="PathCollection_14">
    <defs>
     <path d="M 0 3 
C 0.795609 3 1.55874 2.683901 2.12132 2.12132 
C 2.683901 1.55874 3 0.795609 3 0 
C 3 -0.795609 2.683901 -1.55874 2.12132 -2.12132 
C 1.55874 -2.683901 0.795609 -3 0 -3 
C -0.795609 -3 -1.55874 -2.683901 -2.12132 -2.12132 
C -2.683901 -1.55874 -3 -0.795609 -3 0 
C -3 0.795609 -2.683901 1.55874 -2.12132 2.12132 
C -1.55874 2.683901 -0.795609 3 0 3 
z
" id="mffba58df2e" style="stroke:#f669ba;stroke-opacity:0.8;"/>
    </defs>
    <g clip-path="url(#p056e46dbd1)">
     <use style="fill:#f669ba;fill-opacity:0.8;stroke:#f669ba;stroke-opacity:0.8;" x="339.052958" xlink:href="#mffba58df2e" y="287.159103"/>
     <use style="fill:#f669ba;fill-opacity:0.8;stroke:#f669ba;stroke-opacity:0.8;" x="302.246761" xlink:href="#mffba58df2e" y="285.667435"/>
     <use style="fill:#f669ba;fill-opacity:0.8;stroke:#f669ba;stroke-opacity:0.8;" x="321.800053" xlink:href="#mffba58df2e" y="285.167244"/>
     <use style="fill:#f669ba;fill-opacity:0.8;stroke:#f669ba;stroke-opacity:0.8;" x="287.294244" xlink:href="#mffba58df2e" y="287.188656"/>
     <use style="fill:#f669ba;fill-opacity:0.8;stroke:#f669ba;stroke-opacity:0.8;" x="279.242888" xlink:href="#mffba58df2e" y="287.075181"/>
     <use style="fill:#f669ba;fill-opacity:0.8;stroke:#f669ba;stroke-opacity:0.8;" x="294.195406" xlink:href="#mffba58df2e" y="287.677388"/>
     <use style="fill:#f669ba;fill-opacity:0.8;stroke:#f669ba;stroke-opacity:0.8;" x="270.041339" xlink:href="#mffba58df2e" y="286.960855"/>
    </g>
   </g>
   <g id="line2d_1">
    <path clip-path="url(#p056e46dbd1)" d="M 75.658614 187.527818 
L 76.262756 187.900256 
L 76.866898 188.272695 
L 77.47104 188.645133 
L 78.075182 189.017572 
L 78.679324 189.39001 
L 79.283467 189.762449 
L 79.887609 190.134887 
L 80.491751 190.507326 
L 81.095893 190.879764 
L 81.700035 191.252202 
L 82.304177 191.624641 
L 82.908319 191.997079 
L 83.512461 192.369518 
L 84.116603 192.741956 
L 84.720746 193.114395 
L 85.324888 193.486833 
L 85.92903 193.859272 
L 86.533172 194.23171 
L 87.137314 194.604149 
L 87.741456 194.976587 
L 88.345598 195.349026 
L 88.94974 195.721464 
L 89.553883 196.093903 
L 90.158025 196.466341 
L 90.762167 196.83878 
L 91.366309 197.211218 
L 91.970451 197.583657 
L 92.574593 197.956095 
L 93.178735 198.328534 
L 93.782877 198.700972 
L 94.387019 199.073411 
L 94.991162 199.445849 
L 95.595304 199.818288 
L 96.199446 200.190726 
L 96.803588 200.563165 
L 97.40773 200.935603 
L 98.011872 201.308042 
L 98.616014 201.68048 
L 99.220156 202.052919 
L 99.824298 202.425357 
L 100.428441 202.797796 
L 101.032583 203.170234 
L 101.636725 203.542673 
L 102.240867 203.915111 
L 102.845009 204.28755 
L 103.449151 204.659988 
L 104.053293 205.032427 
L 104.657435 205.404865 
L 105.261577 205.777304 
L 105.86572 206.149742 
L 106.469862 206.522181 
L 107.074004 206.894619 
L 107.678146 207.267058 
L 108.282288 207.639496 
L 108.88643 208.011934 
L 109.490572 208.384373 
L 110.094714 208.756811 
L 110.698857 209.12925 
L 111.302999 209.501688 
L 111.907141 209.874127 
L 112.511283 210.246565 
L 113.115425 210.619004 
L 113.719567 210.991442 
L 114.323709 211.363881 
L 114.927851 211.736319 
L 115.531993 212.108758 
L 116.136136 212.481196 
L 116.740278 212.853635 
L 117.34442 213.226073 
L 117.948562 213.598512 
L 118.552704 213.97095 
L 119.156846 214.343389 
L 119.760988 214.715827 
L 120.36513 215.088266 
L 120.969272 215.460704 
L 121.573415 215.833143 
L 122.177557 216.205581 
L 122.781699 216.57802 
L 123.385841 216.950458 
L 123.989983 217.322897 
L 124.594125 217.695335 
L 125.198267 218.067774 
L 125.802409 218.440212 
L 126.406552 218.812651 
L 127.010694 219.185089 
L 127.614836 219.557528 
L 128.218978 219.929966 
L 128.82312 220.302405 
L 129.427262 220.674843 
L 130.031404 221.047282 
L 130.635546 221.41972 
L 131.239688 221.792159 
L 131.843831 222.164597 
L 132.447973 222.537036 
L 133.052115 222.909474 
L 133.656257 223.281913 
L 134.260399 223.654351 
L 134.864541 224.02679 
L 135.468683 224.399228 
" style="fill:none;stroke:#f77189;stroke-linecap:round;stroke-width:2.25;"/>
   </g>
   <g id="line2d_2">
    <path clip-path="url(#p056e46dbd1)" d="M 186.077203 286.387276 
L 186.704582 286.070691 
L 187.33196 285.754106 
L 187.959338 285.43752 
L 188.586717 285.120935 
L 189.214095 284.80435 
L 189.841474 284.487765 
L 190.468852 284.171179 
L 191.09623 283.854594 
L 191.723609 283.538009 
L 192.350987 283.221424 
L 192.978365 282.904838 
L 193.605744 282.588253 
L 194.233122 282.271668 
L 194.8605 281.955082 
L 195.487879 281.638497 
L 196.115257 281.321912 
L 196.742635 281.005327 
L 197.370014 280.688741 
L 197.997392 280.372156 
L 198.62477 280.055571 
L 199.252149 279.738986 
L 199.879527 279.4224 
L 200.506905 279.105815 
L 201.134284 278.78923 
L 201.761662 278.472645 
L 202.389041 278.156059 
L 203.016419 277.839474 
L 203.643797 277.522889 
L 204.271176 277.206304 
L 204.898554 276.889718 
L 205.525932 276.573133 
L 206.153311 276.256548 
L 206.780689 275.939963 
L 207.408067 275.623377 
L 208.035446 275.306792 
L 208.662824 274.990207 
L 209.290202 274.673621 
L 209.917581 274.357036 
L 210.544959 274.040451 
L 211.172337 273.723866 
L 211.799716 273.40728 
L 212.427094 273.090695 
L 213.054472 272.77411 
L 213.681851 272.457525 
L 214.309229 272.140939 
L 214.936608 271.824354 
L 215.563986 271.507769 
L 216.191364 271.191184 
L 216.818743 270.874598 
L 217.446121 270.558013 
L 218.073499 270.241428 
L 218.700878 269.924843 
L 219.328256 269.608257 
L 219.955634 269.291672 
L 220.583013 268.975087 
L 221.210391 268.658502 
L 221.837769 268.341916 
L 222.465148 268.025331 
L 223.092526 267.708746 
L 223.719904 267.392161 
L 224.347283 267.075575 
L 224.974661 266.75899 
L 225.602039 266.442405 
L 226.229418 266.125819 
L 226.856796 265.809234 
L 227.484175 265.492649 
L 228.111553 265.176064 
L 228.738931 264.859478 
L 229.36631 264.542893 
L 229.993688 264.226308 
L 230.621066 263.909723 
L 231.248445 263.593137 
L 231.875823 263.276552 
L 232.503201 262.959967 
L 233.13058 262.643382 
L 233.757958 262.326796 
L 234.385336 262.010211 
L 235.012715 261.693626 
L 235.640093 261.377041 
L 236.267471 261.060455 
L 236.89485 260.74387 
L 237.522228 260.427285 
L 238.149606 260.1107 
L 238.776985 259.794114 
L 239.404363 259.477529 
L 240.031742 259.160944 
L 240.65912 258.844358 
L 241.286498 258.527773 
L 241.913877 258.211188 
L 242.541255 257.894603 
L 243.168633 257.578017 
L 243.796012 257.261432 
L 244.42339 256.944847 
L 245.050768 256.628262 
L 245.678147 256.311676 
L 246.305525 255.995091 
L 246.932903 255.678506 
L 247.560282 255.361921 
L 248.18766 255.045335 
" style="fill:none;stroke:#ef7d32;stroke-linecap:round;stroke-width:2.25;"/>
   </g>
   <g id="line2d_3">
    <path clip-path="url(#p056e46dbd1)" d="M 115.915391 182.857123 
L 116.97264 183.712063 
L 118.029889 184.567002 
L 119.087137 185.421941 
L 120.144386 186.27688 
L 121.201635 187.13182 
L 122.258884 187.986759 
L 123.316132 188.841698 
L 124.373381 189.696638 
L 125.43063 190.551577 
L 126.487878 191.406516 
L 127.545127 192.261456 
L 128.602376 193.116395 
L 129.659624 193.971334 
L 130.716873 194.826274 
L 131.774122 195.681213 
L 132.831371 196.536152 
L 133.888619 197.391092 
L 134.945868 198.246031 
L 136.003117 199.10097 
L 137.060365 199.95591 
L 138.117614 200.810849 
L 139.174863 201.665788 
L 140.232111 202.520728 
L 141.28936 203.375667 
L 142.346609 204.230606 
L 143.403858 205.085546 
L 144.461106 205.940485 
L 145.518355 206.795424 
L 146.575604 207.650364 
L 147.632852 208.505303 
L 148.690101 209.360242 
L 149.74735 210.215182 
L 150.804598 211.070121 
L 151.861847 211.92506 
L 152.919096 212.78 
L 153.976345 213.634939 
L 155.033593 214.489878 
L 156.090842 215.344818 
L 157.148091 216.199757 
L 158.205339 217.054696 
L 159.262588 217.909636 
L 160.319837 218.764575 
L 161.377085 219.619514 
L 162.434334 220.474454 
L 163.491583 221.329393 
L 164.548832 222.184332 
L 165.60608 223.039272 
L 166.663329 223.894211 
L 167.720578 224.74915 
L 168.777826 225.60409 
L 169.835075 226.459029 
L 170.892324 227.313968 
L 171.949572 228.168908 
L 173.006821 229.023847 
L 174.06407 229.878786 
L 175.121319 230.733726 
L 176.178567 231.588665 
L 177.235816 232.443604 
L 178.293065 233.298544 
L 179.350313 234.153483 
L 180.407562 235.008422 
L 181.464811 235.863362 
L 182.522059 236.718301 
L 183.579308 237.57324 
L 184.636557 238.42818 
L 185.693806 239.283119 
L 186.751054 240.138058 
L 187.808303 240.992998 
L 188.865552 241.847937 
L 189.9228 242.702876 
L 190.980049 243.557815 
L 192.037298 244.412755 
L 193.094546 245.267694 
L 194.151795 246.122633 
L 195.209044 246.977573 
L 196.266293 247.832512 
L 197.323541 248.687451 
L 198.38079 249.542391 
L 199.438039 250.39733 
L 200.495287 251.252269 
L 201.552536 252.107209 
L 202.609785 252.962148 
L 203.667033 253.817087 
L 204.724282 254.672027 
L 205.781531 255.526966 
L 206.83878 256.381905 
L 207.896028 257.236845 
L 208.953277 258.091784 
L 210.010526 258.946723 
L 211.067774 259.801663 
L 212.125023 260.656602 
L 213.182272 261.511541 
L 214.23952 262.366481 
L 215.296769 263.22142 
L 216.354018 264.076359 
L 217.411267 264.931299 
L 218.468515 265.786238 
L 219.525764 266.641177 
L 220.583013 267.496117 
" style="fill:none;stroke:#c69432;stroke-linecap:round;stroke-width:2.25;"/>
   </g>
   <g id="line2d_4">
    <path clip-path="url(#p056e46dbd1)" d="M 95.211906 227.14402 
L 96.733879 227.943529 
L 98.255853 228.743038 
L 99.777826 229.542548 
L 101.299799 230.342057 
L 102.821773 231.141567 
L 104.343746 231.941076 
L 105.86572 232.740586 
L 107.387693 233.540095 
L 108.909666 234.339605 
L 110.43164 235.139114 
L 111.953613 235.938623 
L 113.475587 236.738133 
L 114.99756 237.537642 
L 116.519533 238.337152 
L 118.041507 239.136661 
L 119.56348 239.936171 
L 121.085454 240.73568 
L 122.607427 241.53519 
L 124.1294 242.334699 
L 125.651374 243.134208 
L 127.173347 243.933718 
L 128.695321 244.733227 
L 130.217294 245.532737 
L 131.739267 246.332246 
L 133.261241 247.131756 
L 134.783214 247.931265 
L 136.305188 248.730775 
L 137.827161 249.530284 
L 139.349134 250.329793 
L 140.871108 251.129303 
L 142.393081 251.928812 
L 143.915055 252.728322 
L 145.437028 253.527831 
L 146.959002 254.327341 
L 148.480975 255.12685 
L 150.002948 255.92636 
L 151.524922 256.725869 
L 153.046895 257.525378 
L 154.568869 258.324888 
L 156.090842 259.124397 
L 157.612815 259.923907 
L 159.134789 260.723416 
L 160.656762 261.522926 
L 162.178736 262.322435 
L 163.700709 263.121945 
L 165.222682 263.921454 
L 166.744656 264.720963 
L 168.266629 265.520473 
L 169.788603 266.319982 
L 171.310576 267.119492 
L 172.832549 267.919001 
L 174.354523 268.718511 
L 175.876496 269.51802 
L 177.39847 270.31753 
L 178.920443 271.117039 
L 180.442416 271.916548 
L 181.96439 272.716058 
L 183.486363 273.515567 
L 185.008337 274.315077 
L 186.53031 275.114586 
L 188.052283 275.914096 
L 189.574257 276.713605 
L 191.09623 277.513115 
L 192.618204 278.312624 
L 194.140177 279.112133 
L 195.66215 279.911643 
L 197.184124 280.711152 
L 198.706097 281.510662 
L 200.228071 282.310171 
L 201.750044 283.109681 
L 203.272017 283.90919 
L 204.793991 284.7087 
L 206.315964 285.508209 
L 207.837938 286.307718 
L 209.359911 287.107228 
L 210.881884 287.906737 
L 212.403858 288.706247 
L 213.925831 289.505756 
L 215.447805 290.305266 
L 216.969778 291.104775 
L 218.491752 291.904285 
L 220.013725 292.703794 
L 221.535698 293.503303 
L 223.057672 294.302813 
L 224.579645 295.102322 
L 226.101619 295.901832 
L 227.623592 296.701341 
L 229.145565 297.500851 
L 230.667539 298.30036 
L 232.189512 299.09987 
L 233.711486 299.899379 
L 235.233459 300.698888 
L 236.755432 301.498398 
L 238.277406 302.297907 
L 239.799379 303.097417 
L 241.321353 303.896926 
L 242.843326 304.696436 
L 244.365299 305.495945 
L 245.887273 306.295455 
" style="fill:none;stroke:#a79f31;stroke-linecap:round;stroke-width:2.25;"/>
   </g>
   <g id="line2d_5">
    <path clip-path="url(#p056e46dbd1)" d="M 148.120813 281.072168 
L 148.887609 281.033564 
L 149.654405 280.994961 
L 150.421201 280.956358 
L 151.187996 280.917754 
L 151.954792 280.879151 
L 152.721588 280.840548 
L 153.488384 280.801945 
L 154.255179 280.763341 
L 155.021975 280.724738 
L 155.788771 280.686135 
L 156.555567 280.647531 
L 157.322362 280.608928 
L 158.089158 280.570325 
L 158.855954 280.531722 
L 159.62275 280.493118 
L 160.389545 280.454515 
L 161.156341 280.415912 
L 161.923137 280.377308 
L 162.689933 280.338705 
L 163.456728 280.300102 
L 164.223524 280.261499 
L 164.99032 280.222895 
L 165.757116 280.184292 
L 166.523912 280.145689 
L 167.290707 280.107085 
L 168.057503 280.068482 
L 168.824299 280.029879 
L 169.591095 279.991276 
L 170.35789 279.952672 
L 171.124686 279.914069 
L 171.891482 279.875466 
L 172.658278 279.836862 
L 173.425073 279.798259 
L 174.191869 279.759656 
L 174.958665 279.721053 
L 175.725461 279.682449 
L 176.492256 279.643846 
L 177.259052 279.605243 
L 178.025848 279.566639 
L 178.792644 279.528036 
L 179.559439 279.489433 
L 180.326235 279.45083 
L 181.093031 279.412226 
L 181.859827 279.373623 
L 182.626623 279.33502 
L 183.393418 279.296417 
L 184.160214 279.257813 
L 184.92701 279.21921 
L 185.693806 279.180607 
L 186.460601 279.142003 
L 187.227397 279.1034 
L 187.994193 279.064797 
L 188.760989 279.026194 
L 189.527784 278.98759 
L 190.29458 278.948987 
L 191.061376 278.910384 
L 191.828172 278.87178 
L 192.594967 278.833177 
L 193.361763 278.794574 
L 194.128559 278.755971 
L 194.895355 278.717367 
L 195.66215 278.678764 
L 196.428946 278.640161 
L 197.195742 278.601557 
L 197.962538 278.562954 
L 198.729333 278.524351 
L 199.496129 278.485748 
L 200.262925 278.447144 
L 201.029721 278.408541 
L 201.796517 278.369938 
L 202.563312 278.331334 
L 203.330108 278.292731 
L 204.096904 278.254128 
L 204.8637 278.215525 
L 205.630495 278.176921 
L 206.397291 278.138318 
L 207.164087 278.099715 
L 207.930883 278.061111 
L 208.697678 278.022508 
L 209.464474 277.983905 
L 210.23127 277.945302 
L 210.998066 277.906698 
L 211.764861 277.868095 
L 212.531657 277.829492 
L 213.298453 277.790888 
L 214.065249 277.752285 
L 214.832044 277.713682 
L 215.59884 277.675079 
L 216.365636 277.636475 
L 217.132432 277.597872 
L 217.899228 277.559269 
L 218.666023 277.520665 
L 219.432819 277.482062 
L 220.199615 277.443459 
L 220.966411 277.404856 
L 221.733206 277.366252 
L 222.500002 277.327649 
L 223.266798 277.289046 
L 224.033594 277.250443 
" style="fill:none;stroke:#82a931;stroke-linecap:round;stroke-width:2.25;"/>
   </g>
   <g id="line2d_6">
    <path clip-path="url(#p056e46dbd1)" d="M 107.864036 240.408865 
L 108.572741 240.06647 
L 109.281446 239.724075 
L 109.990151 239.38168 
L 110.698857 239.039284 
L 111.407562 238.696889 
L 112.116267 238.354494 
L 112.824972 238.012099 
L 113.533677 237.669704 
L 114.242382 237.327308 
L 114.951088 236.984913 
L 115.659793 236.642518 
L 116.368498 236.300123 
L 117.077203 235.957728 
L 117.785908 235.615333 
L 118.494613 235.272937 
L 119.203319 234.930542 
L 119.912024 234.588147 
L 120.620729 234.245752 
L 121.329434 233.903357 
L 122.038139 233.560961 
L 122.746844 233.218566 
L 123.45555 232.876171 
L 124.164255 232.533776 
L 124.87296 232.191381 
L 125.581665 231.848986 
L 126.29037 231.50659 
L 126.999076 231.164195 
L 127.707781 230.8218 
L 128.416486 230.479405 
L 129.125191 230.13701 
L 129.833896 229.794614 
L 130.542601 229.452219 
L 131.251307 229.109824 
L 131.960012 228.767429 
L 132.668717 228.425034 
L 133.377422 228.082639 
L 134.086127 227.740243 
L 134.794832 227.397848 
L 135.503538 227.055453 
L 136.212243 226.713058 
L 136.920948 226.370663 
L 137.629653 226.028267 
L 138.338358 225.685872 
L 139.047063 225.343477 
L 139.755769 225.001082 
L 140.464474 224.658687 
L 141.173179 224.316292 
L 141.881884 223.973896 
L 142.590589 223.631501 
L 143.299294 223.289106 
L 144.008 222.946711 
L 144.716705 222.604316 
L 145.42541 222.26192 
L 146.134115 221.919525 
L 146.84282 221.57713 
L 147.551526 221.234735 
L 148.260231 220.89234 
L 148.968936 220.549945 
L 149.677641 220.207549 
L 150.386346 219.865154 
L 151.095051 219.522759 
L 151.803757 219.180364 
L 152.512462 218.837969 
L 153.221167 218.495573 
L 153.929872 218.153178 
L 154.638577 217.810783 
L 155.347282 217.468388 
L 156.055988 217.125993 
L 156.764693 216.783598 
L 157.473398 216.441202 
L 158.182103 216.098807 
L 158.890808 215.756412 
L 159.599513 215.414017 
L 160.308219 215.071622 
L 161.016924 214.729226 
L 161.725629 214.386831 
L 162.434334 214.044436 
L 163.143039 213.702041 
L 163.851744 213.359646 
L 164.56045 213.01725 
L 165.269155 212.674855 
L 165.97786 212.33246 
L 166.686565 211.990065 
L 167.39527 211.64767 
L 168.103976 211.305275 
L 168.812681 210.962879 
L 169.521386 210.620484 
L 170.230091 210.278089 
L 170.938796 209.935694 
L 171.647501 209.593299 
L 172.356207 209.250903 
L 173.064912 208.908508 
L 173.773617 208.566113 
L 174.482322 208.223718 
L 175.191027 207.881323 
L 175.899732 207.538928 
L 176.608438 207.196532 
L 177.317143 206.854137 
L 178.025848 206.511742 
" style="fill:none;stroke:#32b24e;stroke-linecap:round;stroke-width:2.25;"/>
   </g>
   <g id="line2d_7">
    <path clip-path="url(#p056e46dbd1)" d="M 71.057839 189.776712 
L 72.208033 190.723014 
L 73.358227 191.669316 
L 74.50842 192.615617 
L 75.658614 193.561919 
L 76.808808 194.50822 
L 77.959001 195.454522 
L 79.109195 196.400823 
L 80.259388 197.347125 
L 81.409582 198.293427 
L 82.559776 199.239728 
L 83.709969 200.18603 
L 84.860163 201.132331 
L 86.010357 202.078633 
L 87.16055 203.024934 
L 88.310744 203.971236 
L 89.460938 204.917538 
L 90.611131 205.863839 
L 91.761325 206.810141 
L 92.911518 207.756442 
L 94.061712 208.702744 
L 95.211906 209.649045 
L 96.362099 210.595347 
L 97.512293 211.541649 
L 98.662487 212.48795 
L 99.81268 213.434252 
L 100.962874 214.380553 
L 102.113068 215.326855 
L 103.263261 216.273156 
L 104.413455 217.219458 
L 105.563649 218.16576 
L 106.713842 219.112061 
L 107.864036 220.058363 
L 109.014229 221.004664 
L 110.164423 221.950966 
L 111.314617 222.897267 
L 112.46481 223.843569 
L 113.615004 224.78987 
L 114.765198 225.736172 
L 115.915391 226.682474 
L 117.065585 227.628775 
L 118.215779 228.575077 
L 119.365972 229.521378 
L 120.516166 230.46768 
L 121.66636 231.413981 
L 122.816553 232.360283 
L 123.966747 233.306585 
L 125.11694 234.252886 
L 126.267134 235.199188 
L 127.417328 236.145489 
L 128.567521 237.091791 
L 129.717715 238.038092 
L 130.867909 238.984394 
L 132.018102 239.930696 
L 133.168296 240.876997 
L 134.31849 241.823299 
L 135.468683 242.7696 
L 136.618877 243.715902 
L 137.769071 244.662203 
L 138.919264 245.608505 
L 140.069458 246.554807 
L 141.219651 247.501108 
L 142.369845 248.44741 
L 143.520039 249.393711 
L 144.670232 250.340013 
L 145.820426 251.286314 
L 146.97062 252.232616 
L 148.120813 253.178918 
L 149.271007 254.125219 
L 150.421201 255.071521 
L 151.571394 256.017822 
L 152.721588 256.964124 
L 153.871781 257.910425 
L 155.021975 258.856727 
L 156.172169 259.803029 
L 157.322362 260.74933 
L 158.472556 261.695632 
L 159.62275 262.641933 
L 160.772943 263.588235 
L 161.923137 264.534536 
L 163.073331 265.480838 
L 164.223524 266.42714 
L 165.373718 267.373441 
L 166.523912 268.319743 
L 167.674105 269.266044 
L 168.824299 270.212346 
L 169.974492 271.158647 
L 171.124686 272.104949 
L 172.27488 273.051251 
L 173.425073 273.997552 
L 174.575267 274.943854 
L 175.725461 275.890155 
L 176.875654 276.836457 
L 178.025848 277.782758 
L 179.176042 278.72906 
L 180.326235 279.675362 
L 181.476429 280.621663 
L 182.626623 281.567965 
L 183.776816 282.514266 
L 184.92701 283.460568 
" style="fill:none;stroke:#34af8a;stroke-linecap:round;stroke-width:2.25;"/>
   </g>
   <g id="line2d_8">
    <path clip-path="url(#p056e46dbd1)" d="M 121.66636 215.053706 
L 122.375065 215.427035 
L 123.08377 215.800365 
L 123.792475 216.173694 
L 124.50118 216.547024 
L 125.209885 216.920354 
L 125.918591 217.293683 
L 126.627296 217.667013 
L 127.336001 218.040342 
L 128.044706 218.413672 
L 128.753411 218.787001 
L 129.462116 219.160331 
L 130.170822 219.53366 
L 130.879527 219.90699 
L 131.588232 220.28032 
L 132.296937 220.653649 
L 133.005642 221.026979 
L 133.714347 221.400308 
L 134.423053 221.773638 
L 135.131758 222.146967 
L 135.840463 222.520297 
L 136.549168 222.893627 
L 137.257873 223.266956 
L 137.966579 223.640286 
L 138.675284 224.013615 
L 139.383989 224.386945 
L 140.092694 224.760274 
L 140.801399 225.133604 
L 141.510104 225.506934 
L 142.21881 225.880263 
L 142.927515 226.253593 
L 143.63622 226.626922 
L 144.344925 227.000252 
L 145.05363 227.373581 
L 145.762335 227.746911 
L 146.471041 228.12024 
L 147.179746 228.49357 
L 147.888451 228.8669 
L 148.597156 229.240229 
L 149.305861 229.613559 
L 150.014566 229.986888 
L 150.723272 230.360218 
L 151.431977 230.733547 
L 152.140682 231.106877 
L 152.849387 231.480207 
L 153.558092 231.853536 
L 154.266797 232.226866 
L 154.975503 232.600195 
L 155.684208 232.973525 
L 156.392913 233.346854 
L 157.101618 233.720184 
L 157.810323 234.093514 
L 158.519029 234.466843 
L 159.227734 234.840173 
L 159.936439 235.213502 
L 160.645144 235.586832 
L 161.353849 235.960161 
L 162.062554 236.333491 
L 162.77126 236.706821 
L 163.479965 237.08015 
L 164.18867 237.45348 
L 164.897375 237.826809 
L 165.60608 238.200139 
L 166.314785 238.573468 
L 167.023491 238.946798 
L 167.732196 239.320127 
L 168.440901 239.693457 
L 169.149606 240.066787 
L 169.858311 240.440116 
L 170.567016 240.813446 
L 171.275722 241.186775 
L 171.984427 241.560105 
L 172.693132 241.933434 
L 173.401837 242.306764 
L 174.110542 242.680094 
L 174.819247 243.053423 
L 175.527953 243.426753 
L 176.236658 243.800082 
L 176.945363 244.173412 
L 177.654068 244.546741 
L 178.362773 244.920071 
L 179.071479 245.293401 
L 179.780184 245.66673 
L 180.488889 246.04006 
L 181.197594 246.413389 
L 181.906299 246.786719 
L 182.615004 247.160048 
L 183.32371 247.533378 
L 184.032415 247.906707 
L 184.74112 248.280037 
L 185.449825 248.653367 
L 186.15853 249.026696 
L 186.867235 249.400026 
L 187.575941 249.773355 
L 188.284646 250.146685 
L 188.993351 250.520014 
L 189.702056 250.893344 
L 190.410761 251.266674 
L 191.119466 251.640003 
L 191.828172 252.013333 
" style="fill:none;stroke:#36ada4;stroke-linecap:round;stroke-width:2.25;"/>
   </g>
   <g id="line2d_9">
    <path clip-path="url(#p056e46dbd1)" d="M 115.915391 234.294553 
L 116.635715 234.104576 
L 117.356038 233.9146 
L 118.076361 233.724624 
L 118.796684 233.534648 
L 119.517008 233.344672 
L 120.237331 233.154695 
L 120.957654 232.964719 
L 121.677978 232.774743 
L 122.398301 232.584767 
L 123.118624 232.394791 
L 123.838948 232.204815 
L 124.559271 232.014838 
L 125.279594 231.824862 
L 125.999917 231.634886 
L 126.720241 231.44491 
L 127.440564 231.254934 
L 128.160887 231.064957 
L 128.881211 230.874981 
L 129.601534 230.685005 
L 130.321857 230.495029 
L 131.04218 230.305053 
L 131.762504 230.115077 
L 132.482827 229.9251 
L 133.20315 229.735124 
L 133.923474 229.545148 
L 134.643797 229.355172 
L 135.36412 229.165196 
L 136.084443 228.97522 
L 136.804767 228.785243 
L 137.52509 228.595267 
L 138.245413 228.405291 
L 138.965737 228.215315 
L 139.68606 228.025339 
L 140.406383 227.835362 
L 141.126706 227.645386 
L 141.84703 227.45541 
L 142.567353 227.265434 
L 143.287676 227.075458 
L 144.008 226.885482 
L 144.728323 226.695505 
L 145.448646 226.505529 
L 146.16897 226.315553 
L 146.889293 226.125577 
L 147.609616 225.935601 
L 148.329939 225.745624 
L 149.050263 225.555648 
L 149.770586 225.365672 
L 150.490909 225.175696 
L 151.211233 224.98572 
L 151.931556 224.795744 
L 152.651879 224.605767 
L 153.372202 224.415791 
L 154.092526 224.225815 
L 154.812849 224.035839 
L 155.533172 223.845863 
L 156.253496 223.655887 
L 156.973819 223.46591 
L 157.694142 223.275934 
L 158.414465 223.085958 
L 159.134789 222.895982 
L 159.855112 222.706006 
L 160.575435 222.516029 
L 161.295759 222.326053 
L 162.016082 222.136077 
L 162.736405 221.946101 
L 163.456728 221.756125 
L 164.177052 221.566149 
L 164.897375 221.376172 
L 165.617698 221.186196 
L 166.338022 220.99622 
L 167.058345 220.806244 
L 167.778668 220.616268 
L 168.498992 220.426291 
L 169.219315 220.236315 
L 169.939638 220.046339 
L 170.659961 219.856363 
L 171.380285 219.666387 
L 172.100608 219.476411 
L 172.820931 219.286434 
L 173.541255 219.096458 
L 174.261578 218.906482 
L 174.981901 218.716506 
L 175.702224 218.52653 
L 176.422548 218.336554 
L 177.142871 218.146577 
L 177.863194 217.956601 
L 178.583518 217.766625 
L 179.303841 217.576649 
L 180.024164 217.386673 
L 180.744487 217.196696 
L 181.464811 217.00672 
L 182.185134 216.816744 
L 182.905457 216.626768 
L 183.625781 216.436792 
L 184.346104 216.246816 
L 185.066427 216.056839 
L 185.786751 215.866863 
L 186.507074 215.676887 
L 187.227397 215.486911 
" style="fill:none;stroke:#37aabb;stroke-linecap:round;stroke-width:2.25;"/>
   </g>
   <g id="line2d_10">
    <path clip-path="url(#p056e46dbd1)" d="M 83.709969 245.169124 
L 84.720746 245.552398 
L 85.731522 245.935672 
L 86.742298 246.318946 
L 87.753074 246.70222 
L 88.763851 247.085494 
L 89.774627 247.468768 
L 90.785403 247.852042 
L 91.796179 248.235316 
L 92.806955 248.61859 
L 93.817732 249.001864 
L 94.828508 249.385138 
L 95.839284 249.768412 
L 96.85006 250.151686 
L 97.860837 250.53496 
L 98.871613 250.918234 
L 99.882389 251.301508 
L 100.893165 251.684782 
L 101.903942 252.068056 
L 102.914718 252.45133 
L 103.925494 252.834604 
L 104.93627 253.217878 
L 105.947046 253.601152 
L 106.957823 253.984426 
L 107.968599 254.3677 
L 108.979375 254.750974 
L 109.990151 255.134248 
L 111.000928 255.517522 
L 112.011704 255.900796 
L 113.02248 256.28407 
L 114.033256 256.667343 
L 115.044033 257.050617 
L 116.054809 257.433891 
L 117.065585 257.817165 
L 118.076361 258.200439 
L 119.087137 258.583713 
L 120.097914 258.966987 
L 121.10869 259.350261 
L 122.119466 259.733535 
L 123.130242 260.116809 
L 124.141019 260.500083 
L 125.151795 260.883357 
L 126.162571 261.266631 
L 127.173347 261.649905 
L 128.184123 262.033179 
L 129.1949 262.416453 
L 130.205676 262.799727 
L 131.216452 263.183001 
L 132.227228 263.566275 
L 133.238005 263.949549 
L 134.248781 264.332823 
L 135.259557 264.716097 
L 136.270333 265.099371 
L 137.28111 265.482645 
L 138.291886 265.865919 
L 139.302662 266.249193 
L 140.313438 266.632467 
L 141.324214 267.015741 
L 142.334991 267.399015 
L 143.345767 267.782289 
L 144.356543 268.165563 
L 145.367319 268.548837 
L 146.378096 268.932111 
L 147.388872 269.315385 
L 148.399648 269.698659 
L 149.410424 270.081932 
L 150.421201 270.465206 
L 151.431977 270.84848 
L 152.442753 271.231754 
L 153.453529 271.615028 
L 154.464305 271.998302 
L 155.475082 272.381576 
L 156.485858 272.76485 
L 157.496634 273.148124 
L 158.50741 273.531398 
L 159.518187 273.914672 
L 160.528963 274.297946 
L 161.539739 274.68122 
L 162.550515 275.064494 
L 163.561292 275.447768 
L 164.572068 275.831042 
L 165.582844 276.214316 
L 166.59362 276.59759 
L 167.604396 276.980864 
L 168.615173 277.364138 
L 169.625949 277.747412 
L 170.636725 278.130686 
L 171.647501 278.51396 
L 172.658278 278.897234 
L 173.669054 279.280508 
L 174.67983 279.663782 
L 175.690606 280.047056 
L 176.701383 280.43033 
L 177.712159 280.813604 
L 178.722935 281.196878 
L 179.733711 281.580152 
L 180.744487 281.963426 
L 181.755264 282.3467 
L 182.76604 282.729974 
L 183.776816 283.113247 
" style="fill:none;stroke:#3aa6da;stroke-linecap:round;stroke-width:2.25;"/>
   </g>
   <g id="line2d_11">
    <path clip-path="url(#p056e46dbd1)" d="M 92.911518 237.951006 
L 93.840968 238.442025 
L 94.770417 238.933044 
L 95.699867 239.424063 
L 96.629316 239.915082 
L 97.558766 240.406101 
L 98.488215 240.89712 
L 99.417664 241.388138 
L 100.347114 241.879157 
L 101.276563 242.370176 
L 102.206013 242.861195 
L 103.135462 243.352214 
L 104.064911 243.843233 
L 104.994361 244.334252 
L 105.92381 244.825271 
L 106.85326 245.31629 
L 107.782709 245.807309 
L 108.712158 246.298328 
L 109.641608 246.789347 
L 110.571057 247.280366 
L 111.500507 247.771384 
L 112.429956 248.262403 
L 113.359405 248.753422 
L 114.288855 249.244441 
L 115.218304 249.73546 
L 116.147754 250.226479 
L 117.077203 250.717498 
L 118.006652 251.208517 
L 118.936102 251.699536 
L 119.865551 252.190555 
L 120.795001 252.681574 
L 121.72445 253.172593 
L 122.6539 253.663612 
L 123.583349 254.154631 
L 124.512798 254.645649 
L 125.442248 255.136668 
L 126.371697 255.627687 
L 127.301147 256.118706 
L 128.230596 256.609725 
L 129.160045 257.100744 
L 130.089495 257.591763 
L 131.018944 258.082782 
L 131.948394 258.573801 
L 132.877843 259.06482 
L 133.807292 259.555839 
L 134.736742 260.046858 
L 135.666191 260.537877 
L 136.595641 261.028895 
L 137.52509 261.519914 
L 138.454539 262.010933 
L 139.383989 262.501952 
L 140.313438 262.992971 
L 141.242888 263.48399 
L 142.172337 263.975009 
L 143.101786 264.466028 
L 144.031236 264.957047 
L 144.960685 265.448066 
L 145.890135 265.939085 
L 146.819584 266.430104 
L 147.749034 266.921123 
L 148.678483 267.412142 
L 149.607932 267.90316 
L 150.537382 268.394179 
L 151.466831 268.885198 
L 152.396281 269.376217 
L 153.32573 269.867236 
L 154.255179 270.358255 
L 155.184629 270.849274 
L 156.114078 271.340293 
L 157.043528 271.831312 
L 157.972977 272.322331 
L 158.902426 272.81335 
L 159.831876 273.304369 
L 160.761325 273.795388 
L 161.690775 274.286407 
L 162.620224 274.777425 
L 163.549673 275.268444 
L 164.479123 275.759463 
L 165.408572 276.250482 
L 166.338022 276.741501 
L 167.267471 277.23252 
L 168.19692 277.723539 
L 169.12637 278.214558 
L 170.055819 278.705577 
L 170.985269 279.196596 
L 171.914718 279.687615 
L 172.844168 280.178634 
L 173.773617 280.669653 
L 174.703066 281.160671 
L 175.632516 281.65169 
L 176.561965 282.142709 
L 177.491415 282.633728 
L 178.420864 283.124747 
L 179.350313 283.615766 
L 180.279763 284.106785 
L 181.209212 284.597804 
L 182.138662 285.088823 
L 183.068111 285.579842 
L 183.99756 286.070861 
L 184.92701 286.56188 
" style="fill:none;stroke:#8197f4;stroke-linecap:round;stroke-width:2.25;"/>
   </g>
   <g id="line2d_12">
    <path clip-path="url(#p056e46dbd1)" d="M 151.571394 248.108901 
L 152.187154 248.491141 
L 152.802915 248.87338 
L 153.418675 249.25562 
L 154.034435 249.63786 
L 154.650195 250.020099 
L 155.265956 250.402339 
L 155.881716 250.784579 
L 156.497476 251.166818 
L 157.113236 251.549058 
L 157.728997 251.931298 
L 158.344757 252.313537 
L 158.960517 252.695777 
L 159.576277 253.078017 
L 160.192037 253.460256 
L 160.807798 253.842496 
L 161.423558 254.224736 
L 162.039318 254.606975 
L 162.655078 254.989215 
L 163.270839 255.371455 
L 163.886599 255.753694 
L 164.502359 256.135934 
L 165.118119 256.518174 
L 165.73388 256.900413 
L 166.34964 257.282653 
L 166.9654 257.664893 
L 167.58116 258.047132 
L 168.19692 258.429372 
L 168.812681 258.811612 
L 169.428441 259.193851 
L 170.044201 259.576091 
L 170.659961 259.958331 
L 171.275722 260.34057 
L 171.891482 260.72281 
L 172.507242 261.10505 
L 173.123002 261.487289 
L 173.738763 261.869529 
L 174.354523 262.251769 
L 174.970283 262.634008 
L 175.586043 263.016248 
L 176.201803 263.398487 
L 176.817564 263.780727 
L 177.433324 264.162967 
L 178.049084 264.545206 
L 178.664844 264.927446 
L 179.280605 265.309686 
L 179.896365 265.691925 
L 180.512125 266.074165 
L 181.127885 266.456405 
L 181.743646 266.838644 
L 182.359406 267.220884 
L 182.975166 267.603124 
L 183.590926 267.985363 
L 184.206687 268.367603 
L 184.822447 268.749843 
L 185.438207 269.132082 
L 186.053967 269.514322 
L 186.669727 269.896562 
L 187.285488 270.278801 
L 187.901248 270.661041 
L 188.517008 271.043281 
L 189.132768 271.42552 
L 189.748529 271.80776 
L 190.364289 272.19 
L 190.980049 272.572239 
L 191.595809 272.954479 
L 192.21157 273.336719 
L 192.82733 273.718958 
L 193.44309 274.101198 
L 194.05885 274.483438 
L 194.67461 274.865677 
L 195.290371 275.247917 
L 195.906131 275.630157 
L 196.521891 276.012396 
L 197.137651 276.394636 
L 197.753412 276.776876 
L 198.369172 277.159115 
L 198.984932 277.541355 
L 199.600692 277.923595 
L 200.216453 278.305834 
L 200.832213 278.688074 
L 201.447973 279.070314 
L 202.063733 279.452553 
L 202.679493 279.834793 
L 203.295254 280.217033 
L 203.911014 280.599272 
L 204.526774 280.981512 
L 205.142534 281.363752 
L 205.758295 281.745991 
L 206.374055 282.128231 
L 206.989815 282.510471 
L 207.605575 282.89271 
L 208.221336 283.27495 
L 208.837096 283.65719 
L 209.452856 284.039429 
L 210.068616 284.421669 
L 210.684376 284.803909 
L 211.300137 285.186148 
L 211.915897 285.568388 
L 212.531657 285.950628 
" style="fill:none;stroke:#c180f4;stroke-linecap:round;stroke-width:2.25;"/>
   </g>
   <g id="line2d_13">
    <path clip-path="url(#p056e46dbd1)" d="M 194.128559 286.976186 
L 194.906973 286.979765 
L 195.685387 286.983344 
L 196.463801 286.986922 
L 197.242214 286.990501 
L 198.020628 286.99408 
L 198.799042 286.997659 
L 199.577456 287.001237 
L 200.35587 287.004816 
L 201.134284 287.008395 
L 201.912698 287.011974 
L 202.691112 287.015553 
L 203.469525 287.019131 
L 204.247939 287.02271 
L 205.026353 287.026289 
L 205.804767 287.029868 
L 206.583181 287.033447 
L 207.361595 287.037025 
L 208.140009 287.040604 
L 208.918423 287.044183 
L 209.696837 287.047762 
L 210.47525 287.051341 
L 211.253664 287.054919 
L 212.032078 287.058498 
L 212.810492 287.062077 
L 213.588906 287.065656 
L 214.36732 287.069235 
L 215.145734 287.072813 
L 215.924148 287.076392 
L 216.702561 287.079971 
L 217.480975 287.08355 
L 218.259389 287.087129 
L 219.037803 287.090707 
L 219.816217 287.094286 
L 220.594631 287.097865 
L 221.373045 287.101444 
L 222.151459 287.105023 
L 222.929872 287.108601 
L 223.708286 287.11218 
L 224.4867 287.115759 
L 225.265114 287.119338 
L 226.043528 287.122917 
L 226.821942 287.126495 
L 227.600356 287.130074 
L 228.37877 287.133653 
L 229.157183 287.137232 
L 229.935597 287.140811 
L 230.714011 287.144389 
L 231.492425 287.147968 
L 232.270839 287.151547 
L 233.049253 287.155126 
L 233.827667 287.158705 
L 234.606081 287.162283 
L 235.384494 287.165862 
L 236.162908 287.169441 
L 236.941322 287.17302 
L 237.719736 287.176599 
L 238.49815 287.180177 
L 239.276564 287.183756 
L 240.054978 287.187335 
L 240.833392 287.190914 
L 241.611806 287.194493 
L 242.390219 287.198071 
L 243.168633 287.20165 
L 243.947047 287.205229 
L 244.725461 287.208808 
L 245.503875 287.212387 
L 246.282289 287.215965 
L 247.060703 287.219544 
L 247.839117 287.223123 
L 248.61753 287.226702 
L 249.395944 287.230281 
L 250.174358 287.233859 
L 250.952772 287.237438 
L 251.731186 287.241017 
L 252.5096 287.244596 
L 253.288014 287.248175 
L 254.066428 287.251753 
L 254.844841 287.255332 
L 255.623255 287.258911 
L 256.401669 287.26249 
L 257.180083 287.266069 
L 257.958497 287.269647 
L 258.736911 287.273226 
L 259.515325 287.276805 
L 260.293739 287.280384 
L 261.072152 287.283963 
L 261.850566 287.287541 
L 262.62898 287.29112 
L 263.407394 287.294699 
L 264.185808 287.298278 
L 264.964222 287.301857 
L 265.742636 287.305435 
L 266.52105 287.309014 
L 267.299464 287.312593 
L 268.077877 287.316172 
L 268.856291 287.319751 
L 269.634705 287.323329 
L 270.413119 287.326908 
L 271.191533 287.330487 
" style="fill:none;stroke:#f45deb;stroke-linecap:round;stroke-width:2.25;"/>
   </g>
   <g id="line2d_14">
    <path clip-path="url(#p056e46dbd1)" d="M 270.041339 287.073256 
L 270.738426 287.064296 
L 271.435513 287.055335 
L 272.1326 287.046374 
L 272.829687 287.037414 
L 273.526775 287.028453 
L 274.223862 287.019493 
L 274.920949 287.010532 
L 275.618036 287.001572 
L 276.315123 286.992611 
L 277.01221 286.983651 
L 277.709297 286.97469 
L 278.406384 286.965729 
L 279.103471 286.956769 
L 279.800558 286.947808 
L 280.497645 286.938848 
L 281.194732 286.929887 
L 281.891819 286.920927 
L 282.588906 286.911966 
L 283.285993 286.903006 
L 283.98308 286.894045 
L 284.680167 286.885084 
L 285.377254 286.876124 
L 286.074342 286.867163 
L 286.771429 286.858203 
L 287.468516 286.849242 
L 288.165603 286.840282 
L 288.86269 286.831321 
L 289.559777 286.82236 
L 290.256864 286.8134 
L 290.953951 286.804439 
L 291.651038 286.795479 
L 292.348125 286.786518 
L 293.045212 286.777558 
L 293.742299 286.768597 
L 294.439386 286.759637 
L 295.136473 286.750676 
L 295.83356 286.741715 
L 296.530647 286.732755 
L 297.227734 286.723794 
L 297.924821 286.714834 
L 298.621909 286.705873 
L 299.318996 286.696913 
L 300.016083 286.687952 
L 300.71317 286.678992 
L 301.410257 286.670031 
L 302.107344 286.66107 
L 302.804431 286.65211 
L 303.501518 286.643149 
L 304.198605 286.634189 
L 304.895692 286.625228 
L 305.592779 286.616268 
L 306.289866 286.607307 
L 306.986953 286.598347 
L 307.68404 286.589386 
L 308.381127 286.580425 
L 309.078214 286.571465 
L 309.775301 286.562504 
L 310.472388 286.553544 
L 311.169476 286.544583 
L 311.866563 286.535623 
L 312.56365 286.526662 
L 313.260737 286.517701 
L 313.957824 286.508741 
L 314.654911 286.49978 
L 315.351998 286.49082 
L 316.049085 286.481859 
L 316.746172 286.472899 
L 317.443259 286.463938 
L 318.140346 286.454978 
L 318.837433 286.446017 
L 319.53452 286.437056 
L 320.231607 286.428096 
L 320.928694 286.419135 
L 321.625781 286.410175 
L 322.322868 286.401214 
L 323.019955 286.392254 
L 323.717043 286.383293 
L 324.41413 286.374333 
L 325.111217 286.365372 
L 325.808304 286.356411 
L 326.505391 286.347451 
L 327.202478 286.33849 
L 327.899565 286.32953 
L 328.596652 286.320569 
L 329.293739 286.311609 
L 329.990826 286.302648 
L 330.687913 286.293688 
L 331.385 286.284727 
L 332.082087 286.275766 
L 332.779174 286.266806 
L 333.476261 286.257845 
L 334.173348 286.248885 
L 334.870435 286.239924 
L 335.567522 286.230964 
L 336.26461 286.222003 
L 336.961697 286.213042 
L 337.658784 286.204082 
L 338.355871 286.195121 
L 339.052958 286.186161 
" style="fill:none;stroke:#f669ba;stroke-linecap:round;stroke-width:2.25;"/>
   </g>
   <g id="patch_3">
    <path d="M 54.522222 320.2 
L 54.522222 14.3 
" style="fill:none;stroke:#262626;stroke-linecap:square;stroke-linejoin:miter;stroke-width:0.8;"/>
   </g>
   <g id="patch_4">
    <path d="M 54.522222 320.2 
L 355.61875 320.2 
" style="fill:none;stroke:#262626;stroke-linecap:square;stroke-linejoin:miter;stroke-width:0.8;"/>
   </g>
   <g id="text_16">
    <!-- r=-0.381, p=0.00063 -->
    <defs>
     <path d="M 52.828125 42.09375 
L 5.5625 42.09375 
L 5.5625 50.296875 
L 52.828125 50.296875 
z
M 52.828125 20.359375 
L 5.5625 20.359375 
L 5.5625 28.5625 
L 52.828125 28.5625 
z
" id="ArialMT-61"/>
     <path d="M 3.171875 21.484375 
L 3.171875 30.328125 
L 30.171875 30.328125 
L 30.171875 21.484375 
z
" id="ArialMT-45"/>
     <path d="M 17.671875 38.8125 
Q 12.203125 40.828125 9.5625 44.53125 
Q 6.9375 48.25 6.9375 53.421875 
Q 6.9375 61.234375 12.546875 66.546875 
Q 18.171875 71.875 27.484375 71.875 
Q 36.859375 71.875 42.578125 66.421875 
Q 48.296875 60.984375 48.296875 53.171875 
Q 48.296875 48.1875 45.671875 44.5 
Q 43.0625 40.828125 37.75 38.8125 
Q 44.34375 36.671875 47.78125 31.875 
Q 51.21875 27.09375 51.21875 20.453125 
Q 51.21875 11.28125 44.71875 5.03125 
Q 38.234375 -1.21875 27.640625 -1.21875 
Q 17.046875 -1.21875 10.546875 5.046875 
Q 4.046875 11.328125 4.046875 20.703125 
Q 4.046875 27.6875 7.59375 32.390625 
Q 11.140625 37.109375 17.671875 38.8125 
z
M 15.921875 53.71875 
Q 15.921875 48.640625 19.1875 45.40625 
Q 22.46875 42.1875 27.6875 42.1875 
Q 32.765625 42.1875 36.015625 45.375 
Q 39.265625 48.578125 39.265625 53.21875 
Q 39.265625 58.0625 35.90625 61.359375 
Q 32.5625 64.65625 27.59375 64.65625 
Q 22.5625 64.65625 19.234375 61.421875 
Q 15.921875 58.203125 15.921875 53.71875 
z
M 13.09375 20.65625 
Q 13.09375 16.890625 14.875 13.375 
Q 16.65625 9.859375 20.171875 7.921875 
Q 23.6875 6 27.734375 6 
Q 34.03125 6 38.125 10.046875 
Q 42.234375 14.109375 42.234375 20.359375 
Q 42.234375 26.703125 38.015625 30.859375 
Q 33.796875 35.015625 27.4375 35.015625 
Q 21.234375 35.015625 17.15625 30.90625 
Q 13.09375 26.8125 13.09375 20.65625 
z
" id="ArialMT-56"/>
     <path d="M 8.890625 0 
L 8.890625 10.015625 
L 18.890625 10.015625 
L 18.890625 0 
Q 18.890625 -5.515625 16.9375 -8.90625 
Q 14.984375 -12.3125 10.75 -14.15625 
L 8.296875 -10.40625 
Q 11.078125 -9.1875 12.390625 -6.8125 
Q 13.71875 -4.4375 13.875 0 
z
" id="ArialMT-44"/>
    </defs>
    <g style="fill:#262626;" transform="translate(195.278753 110.880439)scale(0.15 -0.15)">
     <use xlink:href="#ArialMT-114"/>
     <use x="33.300781" xlink:href="#ArialMT-61"/>
     <use x="91.699219" xlink:href="#ArialMT-45"/>
     <use x="125" xlink:href="#ArialMT-48"/>
     <use x="180.615234" xlink:href="#ArialMT-46"/>
     <use x="208.398438" xlink:href="#ArialMT-51"/>
     <use x="264.013672" xlink:href="#ArialMT-56"/>
     <use x="319.628906" xlink:href="#ArialMT-49"/>
     <use x="375.244141" xlink:href="#ArialMT-44"/>
     <use x="403.027344" xlink:href="#ArialMT-32"/>
     <use x="430.810547" xlink:href="#ArialMT-112"/>
     <use x="486.425781" xlink:href="#ArialMT-61"/>
     <use x="544.824219" xlink:href="#ArialMT-48"/>
     <use x="600.439453" xlink:href="#ArialMT-46"/>
     <use x="628.222656" xlink:href="#ArialMT-48"/>
     <use x="683.837891" xlink:href="#ArialMT-48"/>
     <use x="739.453125" xlink:href="#ArialMT-48"/>
     <use x="795.068359" xlink:href="#ArialMT-54"/>
     <use x="850.683594" xlink:href="#ArialMT-51"/>
    </g>
   </g>
  </g>
  <g id="legend_1">
   <g id="text_17">
    <!-- host_subject_id -->
    <defs>
     <path d="M 6.59375 0 
L 6.59375 71.578125 
L 15.375 71.578125 
L 15.375 45.90625 
Q 21.53125 53.03125 30.90625 53.03125 
Q 36.671875 53.03125 40.921875 50.75 
Q 45.171875 48.484375 47 44.484375 
Q 48.828125 40.484375 48.828125 32.859375 
L 48.828125 0 
L 40.046875 0 
L 40.046875 32.859375 
Q 40.046875 39.453125 37.1875 42.453125 
Q 34.328125 45.453125 29.109375 45.453125 
Q 25.203125 45.453125 21.75 43.421875 
Q 18.3125 41.40625 16.84375 37.9375 
Q 15.375 34.46875 15.375 28.375 
L 15.375 0 
z
" id="ArialMT-104"/>
     <path d="M 25.78125 7.859375 
L 27.046875 0.09375 
Q 23.34375 -0.6875 20.40625 -0.6875 
Q 15.625 -0.6875 12.984375 0.828125 
Q 10.359375 2.34375 9.28125 4.8125 
Q 8.203125 7.28125 8.203125 15.1875 
L 8.203125 45.015625 
L 1.765625 45.015625 
L 1.765625 51.859375 
L 8.203125 51.859375 
L 8.203125 64.703125 
L 16.9375 69.96875 
L 16.9375 51.859375 
L 25.78125 51.859375 
L 25.78125 45.015625 
L 16.9375 45.015625 
L 16.9375 14.703125 
Q 16.9375 10.9375 17.40625 9.859375 
Q 17.875 8.796875 18.921875 8.15625 
Q 19.96875 7.515625 21.921875 7.515625 
Q 23.390625 7.515625 25.78125 7.859375 
z
" id="ArialMT-116"/>
     <path d="M -1.515625 -19.875 
L -1.515625 -13.53125 
L 56.734375 -13.53125 
L 56.734375 -19.875 
z
" id="ArialMT-95"/>
     <path d="M 40.578125 0 
L 40.578125 7.625 
Q 34.515625 -1.171875 24.125 -1.171875 
Q 19.53125 -1.171875 15.546875 0.578125 
Q 11.578125 2.34375 9.640625 5 
Q 7.71875 7.671875 6.9375 11.53125 
Q 6.390625 14.109375 6.390625 19.734375 
L 6.390625 51.859375 
L 15.1875 51.859375 
L 15.1875 23.09375 
Q 15.1875 16.21875 15.71875 13.8125 
Q 16.546875 10.359375 19.234375 8.375 
Q 21.921875 6.390625 25.875 6.390625 
Q 29.828125 6.390625 33.296875 8.421875 
Q 36.765625 10.453125 38.203125 13.9375 
Q 39.65625 17.4375 39.65625 24.078125 
L 39.65625 51.859375 
L 48.4375 51.859375 
L 48.4375 0 
z
" id="ArialMT-117"/>
     <path d="M 6.546875 61.375 
L 6.546875 71.578125 
L 15.328125 71.578125 
L 15.328125 61.375 
z
M -4.59375 -20.125 
L -2.9375 -12.640625 
Q -0.296875 -13.328125 1.21875 -13.328125 
Q 3.90625 -13.328125 5.21875 -11.546875 
Q 6.546875 -9.765625 6.546875 -2.640625 
L 6.546875 51.859375 
L 15.328125 51.859375 
L 15.328125 -2.828125 
Q 15.328125 -12.40625 12.84375 -16.15625 
Q 9.671875 -21.046875 2.296875 -21.046875 
Q -1.265625 -21.046875 -4.59375 -20.125 
z
" id="ArialMT-106"/>
     <path d="M 40.4375 19 
L 49.078125 17.875 
Q 47.65625 8.9375 41.8125 3.875 
Q 35.984375 -1.171875 27.484375 -1.171875 
Q 16.84375 -1.171875 10.375 5.78125 
Q 3.90625 12.75 3.90625 25.734375 
Q 3.90625 34.125 6.6875 40.421875 
Q 9.46875 46.734375 15.15625 49.875 
Q 20.84375 53.03125 27.546875 53.03125 
Q 35.984375 53.03125 41.359375 48.75 
Q 46.734375 44.484375 48.25 36.625 
L 39.703125 35.296875 
Q 38.484375 40.53125 35.375 43.15625 
Q 32.28125 45.796875 27.875 45.796875 
Q 21.234375 45.796875 17.078125 41.03125 
Q 12.9375 36.28125 12.9375 25.984375 
Q 12.9375 15.53125 16.9375 10.796875 
Q 20.953125 6.0625 27.390625 6.0625 
Q 32.5625 6.0625 36.03125 9.234375 
Q 39.5 12.40625 40.4375 19 
z
" id="ArialMT-99"/>
     <path d="M 6.640625 61.46875 
L 6.640625 71.578125 
L 15.4375 71.578125 
L 15.4375 61.46875 
z
M 6.640625 0 
L 6.640625 51.859375 
L 15.4375 51.859375 
L 15.4375 0 
z
" id="ArialMT-105"/>
    </defs>
    <g style="fill:#262626;" transform="translate(359.6375 83.509375)scale(0.1 -0.1)">
     <use xlink:href="#ArialMT-104"/>
     <use x="55.615234" xlink:href="#ArialMT-111"/>
     <use x="111.230469" xlink:href="#ArialMT-115"/>
     <use x="161.230469" xlink:href="#ArialMT-116"/>
     <use x="189.013672" xlink:href="#ArialMT-95"/>
     <use x="244.628906" xlink:href="#ArialMT-115"/>
     <use x="294.628906" xlink:href="#ArialMT-117"/>
     <use x="350.244141" xlink:href="#ArialMT-98"/>
     <use x="405.859375" xlink:href="#ArialMT-106"/>
     <use x="428.076172" xlink:href="#ArialMT-101"/>
     <use x="483.691406" xlink:href="#ArialMT-99"/>
     <use x="533.691406" xlink:href="#ArialMT-116"/>
     <use x="561.474609" xlink:href="#ArialMT-95"/>
     <use x="617.089844" xlink:href="#ArialMT-105"/>
     <use x="639.306641" xlink:href="#ArialMT-100"/>
    </g>
   </g>
   <g id="PathCollection_15">
    <g>
     <use style="fill:#f77189;fill-opacity:0.8;stroke:#f77189;stroke-opacity:0.8;" x="374.264062" xlink:href="#m1020de1a32" y="95.146875"/>
    </g>
   </g>
   <g id="text_18">
    <!-- DM001 -->
    <defs>
     <path d="M 7.71875 0 
L 7.71875 71.578125 
L 32.375 71.578125 
Q 40.71875 71.578125 45.125 70.5625 
Q 51.265625 69.140625 55.609375 65.4375 
Q 61.28125 60.640625 64.078125 53.1875 
Q 66.890625 45.75 66.890625 36.1875 
Q 66.890625 28.03125 64.984375 21.734375 
Q 63.09375 15.4375 60.109375 11.296875 
Q 57.125 7.171875 53.578125 4.796875 
Q 50.046875 2.4375 45.046875 1.21875 
Q 40.046875 0 33.546875 0 
z
M 17.1875 8.453125 
L 32.46875 8.453125 
Q 39.546875 8.453125 43.578125 9.765625 
Q 47.609375 11.078125 50 13.484375 
Q 53.375 16.84375 55.25 22.53125 
Q 57.125 28.21875 57.125 36.328125 
Q 57.125 47.5625 53.4375 53.59375 
Q 49.75 59.625 44.484375 61.671875 
Q 40.671875 63.140625 32.234375 63.140625 
L 17.1875 63.140625 
z
" id="ArialMT-68"/>
     <path d="M 7.421875 0 
L 7.421875 71.578125 
L 21.6875 71.578125 
L 38.625 20.90625 
Q 40.96875 13.8125 42.046875 10.296875 
Q 43.265625 14.203125 45.84375 21.78125 
L 62.984375 71.578125 
L 75.734375 71.578125 
L 75.734375 0 
L 66.609375 0 
L 66.609375 59.90625 
L 45.796875 0 
L 37.25 0 
L 16.546875 60.9375 
L 16.546875 0 
z
" id="ArialMT-77"/>
    </defs>
    <g style="fill:#262626;" transform="translate(392.264062 97.771875)scale(0.1 -0.1)">
     <use xlink:href="#ArialMT-68"/>
     <use x="72.216797" xlink:href="#ArialMT-77"/>
     <use x="155.517578" xlink:href="#ArialMT-48"/>
     <use x="211.132812" xlink:href="#ArialMT-48"/>
     <use x="266.748047" xlink:href="#ArialMT-49"/>
    </g>
   </g>
   <g id="PathCollection_16">
    <g>
     <use style="fill:#ef7d32;fill-opacity:0.8;stroke:#ef7d32;stroke-opacity:0.8;" x="374.264062" xlink:href="#m4a1cc58862" y="109.292188"/>
    </g>
   </g>
   <g id="text_19">
    <!-- DM002 -->
    <g style="fill:#262626;" transform="translate(392.264062 111.917188)scale(0.1 -0.1)">
     <use xlink:href="#ArialMT-68"/>
     <use x="72.216797" xlink:href="#ArialMT-77"/>
     <use x="155.517578" xlink:href="#ArialMT-48"/>
     <use x="211.132812" xlink:href="#ArialMT-48"/>
     <use x="266.748047" xlink:href="#ArialMT-50"/>
    </g>
   </g>
   <g id="PathCollection_17">
    <g>
     <use style="fill:#c69432;fill-opacity:0.8;stroke:#c69432;stroke-opacity:0.8;" x="374.264062" xlink:href="#m846a84df37" y="123.4375"/>
    </g>
   </g>
   <g id="text_20">
    <!-- DM003 -->
    <g style="fill:#262626;" transform="translate(392.264062 126.0625)scale(0.1 -0.1)">
     <use xlink:href="#ArialMT-68"/>
     <use x="72.216797" xlink:href="#ArialMT-77"/>
     <use x="155.517578" xlink:href="#ArialMT-48"/>
     <use x="211.132812" xlink:href="#ArialMT-48"/>
     <use x="266.748047" xlink:href="#ArialMT-51"/>
    </g>
   </g>
   <g id="PathCollection_18">
    <g>
     <use style="fill:#a79f31;fill-opacity:0.8;stroke:#a79f31;stroke-opacity:0.8;" x="374.264062" xlink:href="#m861931c114" y="137.582813"/>
    </g>
   </g>
   <g id="text_21">
    <!-- DM006 -->
    <g style="fill:#262626;" transform="translate(392.264062 140.207813)scale(0.1 -0.1)">
     <use xlink:href="#ArialMT-68"/>
     <use x="72.216797" xlink:href="#ArialMT-77"/>
     <use x="155.517578" xlink:href="#ArialMT-48"/>
     <use x="211.132812" xlink:href="#ArialMT-48"/>
     <use x="266.748047" xlink:href="#ArialMT-54"/>
    </g>
   </g>
   <g id="PathCollection_19">
    <g>
     <use style="fill:#82a931;fill-opacity:0.8;stroke:#82a931;stroke-opacity:0.8;" x="374.264062" xlink:href="#ma5e47da2ee" y="151.728125"/>
    </g>
   </g>
   <g id="text_22">
    <!-- DM008 -->
    <g style="fill:#262626;" transform="translate(392.264062 154.353125)scale(0.1 -0.1)">
     <use xlink:href="#ArialMT-68"/>
     <use x="72.216797" xlink:href="#ArialMT-77"/>
     <use x="155.517578" xlink:href="#ArialMT-48"/>
     <use x="211.132812" xlink:href="#ArialMT-48"/>
     <use x="266.748047" xlink:href="#ArialMT-56"/>
    </g>
   </g>
   <g id="PathCollection_20">
    <g>
     <use style="fill:#32b24e;fill-opacity:0.8;stroke:#32b24e;stroke-opacity:0.8;" x="374.264062" xlink:href="#m7904c0c76d" y="165.873438"/>
    </g>
   </g>
   <g id="text_23">
    <!-- DM009 -->
    <defs>
     <path d="M 5.46875 16.546875 
L 13.921875 17.328125 
Q 14.984375 11.375 18.015625 8.6875 
Q 21.046875 6 25.78125 6 
Q 29.828125 6 32.875 7.859375 
Q 35.9375 9.71875 37.890625 12.8125 
Q 39.84375 15.921875 41.15625 21.1875 
Q 42.484375 26.46875 42.484375 31.9375 
Q 42.484375 32.515625 42.4375 33.6875 
Q 39.796875 29.5 35.234375 26.875 
Q 30.671875 24.265625 25.34375 24.265625 
Q 16.453125 24.265625 10.296875 30.703125 
Q 4.15625 37.15625 4.15625 47.703125 
Q 4.15625 58.59375 10.578125 65.234375 
Q 17 71.875 26.65625 71.875 
Q 33.640625 71.875 39.421875 68.109375 
Q 45.21875 64.359375 48.21875 57.390625 
Q 51.21875 50.4375 51.21875 37.25 
Q 51.21875 23.53125 48.234375 15.40625 
Q 45.265625 7.28125 39.375 3.03125 
Q 33.5 -1.21875 25.59375 -1.21875 
Q 17.1875 -1.21875 11.859375 3.4375 
Q 6.546875 8.109375 5.46875 16.546875 
z
M 41.453125 48.140625 
Q 41.453125 55.71875 37.421875 60.15625 
Q 33.40625 64.59375 27.734375 64.59375 
Q 21.875 64.59375 17.53125 59.8125 
Q 13.1875 55.03125 13.1875 47.40625 
Q 13.1875 40.578125 17.3125 36.296875 
Q 21.4375 32.03125 27.484375 32.03125 
Q 33.59375 32.03125 37.515625 36.296875 
Q 41.453125 40.578125 41.453125 48.140625 
z
" id="ArialMT-57"/>
    </defs>
    <g style="fill:#262626;" transform="translate(392.264062 168.498438)scale(0.1 -0.1)">
     <use xlink:href="#ArialMT-68"/>
     <use x="72.216797" xlink:href="#ArialMT-77"/>
     <use x="155.517578" xlink:href="#ArialMT-48"/>
     <use x="211.132812" xlink:href="#ArialMT-48"/>
     <use x="266.748047" xlink:href="#ArialMT-57"/>
    </g>
   </g>
   <g id="PathCollection_21">
    <g>
     <use style="fill:#34af8a;fill-opacity:0.8;stroke:#34af8a;stroke-opacity:0.8;" x="374.264062" xlink:href="#m4e4b9e2554" y="180.01875"/>
    </g>
   </g>
   <g id="text_24">
    <!-- DM010 -->
    <g style="fill:#262626;" transform="translate(392.264062 182.64375)scale(0.1 -0.1)">
     <use xlink:href="#ArialMT-68"/>
     <use x="72.216797" xlink:href="#ArialMT-77"/>
     <use x="155.517578" xlink:href="#ArialMT-48"/>
     <use x="211.132812" xlink:href="#ArialMT-49"/>
     <use x="266.748047" xlink:href="#ArialMT-48"/>
    </g>
   </g>
   <g id="PathCollection_22">
    <g>
     <use style="fill:#36ada4;fill-opacity:0.8;stroke:#36ada4;stroke-opacity:0.8;" x="374.264062" xlink:href="#mfa4859f3ee" y="194.164063"/>
    </g>
   </g>
   <g id="text_25">
    <!-- DM011 -->
    <g style="fill:#262626;" transform="translate(392.264062 196.789063)scale(0.1 -0.1)">
     <use xlink:href="#ArialMT-68"/>
     <use x="72.216797" xlink:href="#ArialMT-77"/>
     <use x="155.517578" xlink:href="#ArialMT-48"/>
     <use x="211.132812" xlink:href="#ArialMT-49"/>
     <use x="266.638672" xlink:href="#ArialMT-49"/>
    </g>
   </g>
   <g id="PathCollection_23">
    <g>
     <use style="fill:#37aabb;fill-opacity:0.8;stroke:#37aabb;stroke-opacity:0.8;" x="374.264062" xlink:href="#mf5a887e020" y="208.309375"/>
    </g>
   </g>
   <g id="text_26">
    <!-- DM013 -->
    <g style="fill:#262626;" transform="translate(392.264062 210.934375)scale(0.1 -0.1)">
     <use xlink:href="#ArialMT-68"/>
     <use x="72.216797" xlink:href="#ArialMT-77"/>
     <use x="155.517578" xlink:href="#ArialMT-48"/>
     <use x="211.132812" xlink:href="#ArialMT-49"/>
     <use x="266.748047" xlink:href="#ArialMT-51"/>
    </g>
   </g>
   <g id="PathCollection_24">
    <g>
     <use style="fill:#3aa6da;fill-opacity:0.8;stroke:#3aa6da;stroke-opacity:0.8;" x="374.264062" xlink:href="#m7e1f75db2d" y="222.454688"/>
    </g>
   </g>
   <g id="text_27">
    <!-- DM014 -->
    <g style="fill:#262626;" transform="translate(392.264062 225.079688)scale(0.1 -0.1)">
     <use xlink:href="#ArialMT-68"/>
     <use x="72.216797" xlink:href="#ArialMT-77"/>
     <use x="155.517578" xlink:href="#ArialMT-48"/>
     <use x="211.132812" xlink:href="#ArialMT-49"/>
     <use x="266.748047" xlink:href="#ArialMT-52"/>
    </g>
   </g>
   <g id="PathCollection_25">
    <g>
     <use style="fill:#8197f4;fill-opacity:0.8;stroke:#8197f4;stroke-opacity:0.8;" x="374.264062" xlink:href="#m0378769d88" y="236.6"/>
    </g>
   </g>
   <g id="text_28">
    <!-- DM015 -->
    <g style="fill:#262626;" transform="translate(392.264062 239.225)scale(0.1 -0.1)">
     <use xlink:href="#ArialMT-68"/>
     <use x="72.216797" xlink:href="#ArialMT-77"/>
     <use x="155.517578" xlink:href="#ArialMT-48"/>
     <use x="211.132812" xlink:href="#ArialMT-49"/>
     <use x="266.748047" xlink:href="#ArialMT-53"/>
    </g>
   </g>
   <g id="PathCollection_26">
    <g>
     <use style="fill:#c180f4;fill-opacity:0.8;stroke:#c180f4;stroke-opacity:0.8;" x="374.264062" xlink:href="#mcb62d5fe6d" y="250.745313"/>
    </g>
   </g>
   <g id="text_29">
    <!-- DM016 -->
    <g style="fill:#262626;" transform="translate(392.264062 253.370313)scale(0.1 -0.1)">
     <use xlink:href="#ArialMT-68"/>
     <use x="72.216797" xlink:href="#ArialMT-77"/>
     <use x="155.517578" xlink:href="#ArialMT-48"/>
     <use x="211.132812" xlink:href="#ArialMT-49"/>
     <use x="266.748047" xlink:href="#ArialMT-54"/>
    </g>
   </g>
   <g id="PathCollection_27">
    <g>
     <use style="fill:#f45deb;fill-opacity:0.8;stroke:#f45deb;stroke-opacity:0.8;" x="374.264062" xlink:href="#m256844a1fb" y="264.890625"/>
    </g>
   </g>
   <g id="text_30">
    <!-- DM017 -->
    <g style="fill:#262626;" transform="translate(392.264062 267.515625)scale(0.1 -0.1)">
     <use xlink:href="#ArialMT-68"/>
     <use x="72.216797" xlink:href="#ArialMT-77"/>
     <use x="155.517578" xlink:href="#ArialMT-48"/>
     <use x="211.132812" xlink:href="#ArialMT-49"/>
     <use x="266.748047" xlink:href="#ArialMT-55"/>
    </g>
   </g>
   <g id="PathCollection_28">
    <g>
     <use style="fill:#f669ba;fill-opacity:0.8;stroke:#f669ba;stroke-opacity:0.8;" x="374.264062" xlink:href="#mffba58df2e" y="279.035937"/>
    </g>
   </g>
   <g id="text_31">
    <!-- DM018 -->
    <g style="fill:#262626;" transform="translate(392.264062 281.660937)scale(0.1 -0.1)">
     <use xlink:href="#ArialMT-68"/>
     <use x="72.216797" xlink:href="#ArialMT-77"/>
     <use x="155.517578" xlink:href="#ArialMT-48"/>
     <use x="211.132812" xlink:href="#ArialMT-49"/>
     <use x="266.748047" xlink:href="#ArialMT-56"/>
    </g>
   </g>
  </g>
 </g>
 <defs>
  <clipPath id="p056e46dbd1">
   <rect height="305.9" width="301.096528" x="54.522222" y="14.3"/>
  </clipPath>
 </defs>
</svg>
