<?xml version="1.0" encoding="utf-8" standalone="no"?>
<!DOCTYPE svg PUBLIC "-//W3C//DTD SVG 1.1//EN"
  "http://www.w3.org/Graphics/SVG/1.1/DTD/svg11.dtd">
<!-- Created with matplotlib (https://matplotlib.org/) -->
<svg height="360pt" version="1.1" viewBox="0 0 438.125 360" width="438.125pt" xmlns="http://www.w3.org/2000/svg" xmlns:xlink="http://www.w3.org/1999/xlink">
 <defs>
  <style type="text/css">
*{stroke-linecap:butt;stroke-linejoin:round;}
  </style>
 </defs>
 <g id="figure_1">
  <g id="patch_1">
   <path d="M 0 360 
L 438.125 360 
L 438.125 0 
L 0 0 
z
" style="fill:#ffffff;"/>
  </g>
  <g id="axes_1">
   <g id="patch_2">
    <path d="M 61.367925 320.2 
L 355.61875 320.2 
L 355.61875 14.3 
L 61.367925 14.3 
z
" style="fill:#ffffff;"/>
   </g>
   <g id="matplotlib.axis_1">
    <g id="xtick_1">
     <g id="text_1">
      <!-- 2 -->
      <defs>
       <path d="M 50.34375 8.453125 
L 50.34375 0 
L 3.03125 0 
Q 2.9375 3.171875 4.046875 6.109375 
Q 5.859375 10.9375 9.828125 15.625 
Q 13.8125 20.3125 21.34375 26.46875 
Q 33.015625 36.03125 37.109375 41.625 
Q 41.21875 47.21875 41.21875 52.203125 
Q 41.21875 57.421875 37.46875 61 
Q 33.734375 64.59375 27.734375 64.59375 
Q 21.390625 64.59375 17.578125 60.78125 
Q 13.765625 56.984375 13.71875 50.25 
L 4.6875 51.171875 
Q 5.609375 61.28125 11.65625 66.578125 
Q 17.71875 71.875 27.9375 71.875 
Q 38.234375 71.875 44.234375 66.15625 
Q 50.25 60.453125 50.25 52 
Q 50.25 47.703125 48.484375 43.546875 
Q 46.734375 39.40625 42.65625 34.8125 
Q 38.578125 30.21875 29.109375 22.21875 
Q 21.1875 15.578125 18.9375 13.203125 
Q 16.703125 10.84375 15.234375 8.453125 
z
" id="ArialMT-50"/>
      </defs>
      <g style="fill:#262626;" transform="translate(74.250319 335.789375)scale(0.12 -0.12)">
       <use xlink:href="#ArialMT-50"/>
      </g>
     </g>
    </g>
    <g id="xtick_2">
     <g id="text_2">
      <!-- 3 -->
      <defs>
       <path d="M 4.203125 18.890625 
L 12.984375 20.0625 
Q 14.5 12.59375 18.140625 9.296875 
Q 21.78125 6 27 6 
Q 33.203125 6 37.46875 10.296875 
Q 41.75 14.59375 41.75 20.953125 
Q 41.75 27 37.796875 30.921875 
Q 33.84375 34.859375 27.734375 34.859375 
Q 25.25 34.859375 21.53125 33.890625 
L 22.515625 41.609375 
Q 23.390625 41.5 23.921875 41.5 
Q 29.546875 41.5 34.03125 44.421875 
Q 38.53125 47.359375 38.53125 53.46875 
Q 38.53125 58.296875 35.25 61.46875 
Q 31.984375 64.65625 26.8125 64.65625 
Q 21.6875 64.65625 18.265625 61.421875 
Q 14.84375 58.203125 13.875 51.765625 
L 5.078125 53.328125 
Q 6.6875 62.15625 12.390625 67.015625 
Q 18.109375 71.875 26.609375 71.875 
Q 32.46875 71.875 37.390625 69.359375 
Q 42.328125 66.84375 44.9375 62.5 
Q 47.5625 58.15625 47.5625 53.265625 
Q 47.5625 48.640625 45.0625 44.828125 
Q 42.578125 41.015625 37.703125 38.765625 
Q 44.046875 37.3125 47.5625 32.6875 
Q 51.078125 28.078125 51.078125 21.140625 
Q 51.078125 11.765625 44.234375 5.25 
Q 37.40625 -1.265625 26.953125 -1.265625 
Q 17.53125 -1.265625 11.296875 4.34375 
Q 5.078125 9.96875 4.203125 18.890625 
z
" id="ArialMT-51"/>
      </defs>
      <g style="fill:#262626;" transform="translate(111.652164 335.789375)scale(0.12 -0.12)">
       <use xlink:href="#ArialMT-51"/>
      </g>
     </g>
    </g>
    <g id="xtick_3">
     <g id="text_3">
      <!-- 4 -->
      <defs>
       <path d="M 32.328125 0 
L 32.328125 17.140625 
L 1.265625 17.140625 
L 1.265625 25.203125 
L 33.9375 71.578125 
L 41.109375 71.578125 
L 41.109375 25.203125 
L 50.78125 25.203125 
L 50.78125 17.140625 
L 41.109375 17.140625 
L 41.109375 0 
z
M 32.328125 25.203125 
L 32.328125 57.46875 
L 9.90625 25.203125 
z
" id="ArialMT-52"/>
      </defs>
      <g style="fill:#262626;" transform="translate(149.054008 335.789375)scale(0.12 -0.12)">
       <use xlink:href="#ArialMT-52"/>
      </g>
     </g>
    </g>
    <g id="xtick_4">
     <g id="text_4">
      <!-- 5 -->
      <defs>
       <path d="M 4.15625 18.75 
L 13.375 19.53125 
Q 14.40625 12.796875 18.140625 9.390625 
Q 21.875 6 27.15625 6 
Q 33.5 6 37.890625 10.78125 
Q 42.28125 15.578125 42.28125 23.484375 
Q 42.28125 31 38.0625 35.34375 
Q 33.84375 39.703125 27 39.703125 
Q 22.75 39.703125 19.328125 37.765625 
Q 15.921875 35.84375 13.96875 32.765625 
L 5.71875 33.84375 
L 12.640625 70.609375 
L 48.25 70.609375 
L 48.25 62.203125 
L 19.671875 62.203125 
L 15.828125 42.96875 
Q 22.265625 47.46875 29.34375 47.46875 
Q 38.71875 47.46875 45.15625 40.96875 
Q 51.609375 34.46875 51.609375 24.265625 
Q 51.609375 14.546875 45.953125 7.46875 
Q 39.0625 -1.21875 27.15625 -1.21875 
Q 17.390625 -1.21875 11.203125 4.25 
Q 5.03125 9.71875 4.15625 18.75 
z
" id="ArialMT-53"/>
      </defs>
      <g style="fill:#262626;" transform="translate(186.455853 335.789375)scale(0.12 -0.12)">
       <use xlink:href="#ArialMT-53"/>
      </g>
     </g>
    </g>
    <g id="xtick_5">
     <g id="text_5">
      <!-- 6 -->
      <defs>
       <path d="M 49.75 54.046875 
L 41.015625 53.375 
Q 39.84375 58.546875 37.703125 60.890625 
Q 34.125 64.65625 28.90625 64.65625 
Q 24.703125 64.65625 21.53125 62.3125 
Q 17.390625 59.28125 14.984375 53.46875 
Q 12.59375 47.65625 12.5 36.921875 
Q 15.671875 41.75 20.265625 44.09375 
Q 24.859375 46.4375 29.890625 46.4375 
Q 38.671875 46.4375 44.84375 39.96875 
Q 51.03125 33.5 51.03125 23.25 
Q 51.03125 16.5 48.125 10.71875 
Q 45.21875 4.9375 40.140625 1.859375 
Q 35.0625 -1.21875 28.609375 -1.21875 
Q 17.625 -1.21875 10.6875 6.859375 
Q 3.765625 14.9375 3.765625 33.5 
Q 3.765625 54.25 11.421875 63.671875 
Q 18.109375 71.875 29.4375 71.875 
Q 37.890625 71.875 43.28125 67.140625 
Q 48.6875 62.40625 49.75 54.046875 
z
M 13.875 23.1875 
Q 13.875 18.65625 15.796875 14.5 
Q 17.71875 10.359375 21.1875 8.171875 
Q 24.65625 6 28.46875 6 
Q 34.03125 6 38.03125 10.484375 
Q 42.046875 14.984375 42.046875 22.703125 
Q 42.046875 30.125 38.078125 34.390625 
Q 34.125 38.671875 28.125 38.671875 
Q 22.171875 38.671875 18.015625 34.390625 
Q 13.875 30.125 13.875 23.1875 
z
" id="ArialMT-54"/>
      </defs>
      <g style="fill:#262626;" transform="translate(223.857697 335.789375)scale(0.12 -0.12)">
       <use xlink:href="#ArialMT-54"/>
      </g>
     </g>
    </g>
    <g id="xtick_6">
     <g id="text_6">
      <!-- 7 -->
      <defs>
       <path d="M 4.734375 62.203125 
L 4.734375 70.65625 
L 51.078125 70.65625 
L 51.078125 63.8125 
Q 44.234375 56.546875 37.515625 44.484375 
Q 30.8125 32.421875 27.15625 19.671875 
Q 24.515625 10.6875 23.78125 0 
L 14.75 0 
Q 14.890625 8.453125 18.0625 20.40625 
Q 21.234375 32.375 27.171875 43.484375 
Q 33.109375 54.59375 39.796875 62.203125 
z
" id="ArialMT-55"/>
      </defs>
      <g style="fill:#262626;" transform="translate(261.259542 335.789375)scale(0.12 -0.12)">
       <use xlink:href="#ArialMT-55"/>
      </g>
     </g>
    </g>
    <g id="xtick_7">
     <g id="text_7">
      <!-- 8 -->
      <defs>
       <path d="M 17.671875 38.8125 
Q 12.203125 40.828125 9.5625 44.53125 
Q 6.9375 48.25 6.9375 53.421875 
Q 6.9375 61.234375 12.546875 66.546875 
Q 18.171875 71.875 27.484375 71.875 
Q 36.859375 71.875 42.578125 66.421875 
Q 48.296875 60.984375 48.296875 53.171875 
Q 48.296875 48.1875 45.671875 44.5 
Q 43.0625 40.828125 37.75 38.8125 
Q 44.34375 36.671875 47.78125 31.875 
Q 51.21875 27.09375 51.21875 20.453125 
Q 51.21875 11.28125 44.71875 5.03125 
Q 38.234375 -1.21875 27.640625 -1.21875 
Q 17.046875 -1.21875 10.546875 5.046875 
Q 4.046875 11.328125 4.046875 20.703125 
Q 4.046875 27.6875 7.59375 32.390625 
Q 11.140625 37.109375 17.671875 38.8125 
z
M 15.921875 53.71875 
Q 15.921875 48.640625 19.1875 45.40625 
Q 22.46875 42.1875 27.6875 42.1875 
Q 32.765625 42.1875 36.015625 45.375 
Q 39.265625 48.578125 39.265625 53.21875 
Q 39.265625 58.0625 35.90625 61.359375 
Q 32.5625 64.65625 27.59375 64.65625 
Q 22.5625 64.65625 19.234375 61.421875 
Q 15.921875 58.203125 15.921875 53.71875 
z
M 13.09375 20.65625 
Q 13.09375 16.890625 14.875 13.375 
Q 16.65625 9.859375 20.171875 7.921875 
Q 23.6875 6 27.734375 6 
Q 34.03125 6 38.125 10.046875 
Q 42.234375 14.109375 42.234375 20.359375 
Q 42.234375 26.703125 38.015625 30.859375 
Q 33.796875 35.015625 27.4375 35.015625 
Q 21.234375 35.015625 17.15625 30.90625 
Q 13.09375 26.8125 13.09375 20.65625 
z
" id="ArialMT-56"/>
      </defs>
      <g style="fill:#262626;" transform="translate(298.661386 335.789375)scale(0.12 -0.12)">
       <use xlink:href="#ArialMT-56"/>
      </g>
     </g>
    </g>
    <g id="xtick_8">
     <g id="text_8">
      <!-- 9 -->
      <defs>
       <path d="M 5.46875 16.546875 
L 13.921875 17.328125 
Q 14.984375 11.375 18.015625 8.6875 
Q 21.046875 6 25.78125 6 
Q 29.828125 6 32.875 7.859375 
Q 35.9375 9.71875 37.890625 12.8125 
Q 39.84375 15.921875 41.15625 21.1875 
Q 42.484375 26.46875 42.484375 31.9375 
Q 42.484375 32.515625 42.4375 33.6875 
Q 39.796875 29.5 35.234375 26.875 
Q 30.671875 24.265625 25.34375 24.265625 
Q 16.453125 24.265625 10.296875 30.703125 
Q 4.15625 37.15625 4.15625 47.703125 
Q 4.15625 58.59375 10.578125 65.234375 
Q 17 71.875 26.65625 71.875 
Q 33.640625 71.875 39.421875 68.109375 
Q 45.21875 64.359375 48.21875 57.390625 
Q 51.21875 50.4375 51.21875 37.25 
Q 51.21875 23.53125 48.234375 15.40625 
Q 45.265625 7.28125 39.375 3.03125 
Q 33.5 -1.21875 25.59375 -1.21875 
Q 17.1875 -1.21875 11.859375 3.4375 
Q 6.546875 8.109375 5.46875 16.546875 
z
M 41.453125 48.140625 
Q 41.453125 55.71875 37.421875 60.15625 
Q 33.40625 64.59375 27.734375 64.59375 
Q 21.875 64.59375 17.53125 59.8125 
Q 13.1875 55.03125 13.1875 47.40625 
Q 13.1875 40.578125 17.3125 36.296875 
Q 21.4375 32.03125 27.484375 32.03125 
Q 33.59375 32.03125 37.515625 36.296875 
Q 41.453125 40.578125 41.453125 48.140625 
z
" id="ArialMT-57"/>
      </defs>
      <g style="fill:#262626;" transform="translate(336.063231 335.789375)scale(0.12 -0.12)">
       <use xlink:href="#ArialMT-57"/>
      </g>
     </g>
    </g>
    <g id="text_9">
     <!-- Day -->
     <defs>
      <path d="M 7.71875 0 
L 7.71875 71.578125 
L 32.375 71.578125 
Q 40.71875 71.578125 45.125 70.5625 
Q 51.265625 69.140625 55.609375 65.4375 
Q 61.28125 60.640625 64.078125 53.1875 
Q 66.890625 45.75 66.890625 36.1875 
Q 66.890625 28.03125 64.984375 21.734375 
Q 63.09375 15.4375 60.109375 11.296875 
Q 57.125 7.171875 53.578125 4.796875 
Q 50.046875 2.4375 45.046875 1.21875 
Q 40.046875 0 33.546875 0 
z
M 17.1875 8.453125 
L 32.46875 8.453125 
Q 39.546875 8.453125 43.578125 9.765625 
Q 47.609375 11.078125 50 13.484375 
Q 53.375 16.84375 55.25 22.53125 
Q 57.125 28.21875 57.125 36.328125 
Q 57.125 47.5625 53.4375 53.59375 
Q 49.75 59.625 44.484375 61.671875 
Q 40.671875 63.140625 32.234375 63.140625 
L 17.1875 63.140625 
z
" id="ArialMT-68"/>
      <path d="M 40.4375 6.390625 
Q 35.546875 2.25 31.03125 0.53125 
Q 26.515625 -1.171875 21.34375 -1.171875 
Q 12.796875 -1.171875 8.203125 3 
Q 3.609375 7.171875 3.609375 13.671875 
Q 3.609375 17.484375 5.34375 20.625 
Q 7.078125 23.78125 9.890625 25.6875 
Q 12.703125 27.59375 16.21875 28.5625 
Q 18.796875 29.25 24.03125 29.890625 
Q 34.671875 31.15625 39.703125 32.90625 
Q 39.75 34.71875 39.75 35.203125 
Q 39.75 40.578125 37.25 42.78125 
Q 33.890625 45.75 27.25 45.75 
Q 21.046875 45.75 18.09375 43.578125 
Q 15.140625 41.40625 13.71875 35.890625 
L 5.125 37.0625 
Q 6.296875 42.578125 8.984375 45.96875 
Q 11.671875 49.359375 16.75 51.1875 
Q 21.828125 53.03125 28.515625 53.03125 
Q 35.15625 53.03125 39.296875 51.46875 
Q 43.453125 49.90625 45.40625 47.53125 
Q 47.359375 45.171875 48.140625 41.546875 
Q 48.578125 39.3125 48.578125 33.453125 
L 48.578125 21.734375 
Q 48.578125 9.46875 49.140625 6.21875 
Q 49.703125 2.984375 51.375 0 
L 42.1875 0 
Q 40.828125 2.734375 40.4375 6.390625 
z
M 39.703125 26.03125 
Q 34.90625 24.078125 25.34375 22.703125 
Q 19.921875 21.921875 17.671875 20.9375 
Q 15.4375 19.96875 14.203125 18.09375 
Q 12.984375 16.21875 12.984375 13.921875 
Q 12.984375 10.40625 15.640625 8.0625 
Q 18.3125 5.71875 23.4375 5.71875 
Q 28.515625 5.71875 32.46875 7.9375 
Q 36.421875 10.15625 38.28125 14.015625 
Q 39.703125 17 39.703125 22.796875 
z
" id="ArialMT-97"/>
      <path d="M 6.203125 -19.96875 
L 5.21875 -11.71875 
Q 8.109375 -12.5 10.25 -12.5 
Q 13.1875 -12.5 14.9375 -11.515625 
Q 16.703125 -10.546875 17.828125 -8.796875 
Q 18.65625 -7.46875 20.515625 -2.25 
Q 20.75 -1.515625 21.296875 -0.09375 
L 1.609375 51.859375 
L 11.078125 51.859375 
L 21.875 21.828125 
Q 23.96875 16.109375 25.640625 9.8125 
Q 27.15625 15.875 29.25 21.625 
L 40.328125 51.859375 
L 49.125 51.859375 
L 29.390625 -0.875 
Q 26.21875 -9.421875 24.46875 -12.640625 
Q 22.125 -17 19.09375 -19.015625 
Q 16.0625 -21.046875 11.859375 -21.046875 
Q 9.328125 -21.046875 6.203125 -19.96875 
z
" id="ArialMT-121"/>
     </defs>
     <g style="fill:#262626;" transform="translate(195.156228 352.911094)scale(0.15 -0.15)">
      <use xlink:href="#ArialMT-68"/>
      <use x="72.216797" xlink:href="#ArialMT-97"/>
      <use x="127.832031" xlink:href="#ArialMT-121"/>
     </g>
    </g>
   </g>
   <g id="matplotlib.axis_2">
    <g id="ytick_1">
     <g id="text_10">
      <!-- 0.00 -->
      <defs>
       <path d="M 4.15625 35.296875 
Q 4.15625 48 6.765625 55.734375 
Q 9.375 63.484375 14.515625 67.671875 
Q 19.671875 71.875 27.484375 71.875 
Q 33.25 71.875 37.59375 69.546875 
Q 41.9375 67.234375 44.765625 62.859375 
Q 47.609375 58.5 49.21875 52.21875 
Q 50.828125 45.953125 50.828125 35.296875 
Q 50.828125 22.703125 48.234375 14.96875 
Q 45.65625 7.234375 40.5 3 
Q 35.359375 -1.21875 27.484375 -1.21875 
Q 17.140625 -1.21875 11.234375 6.203125 
Q 4.15625 15.140625 4.15625 35.296875 
z
M 13.1875 35.296875 
Q 13.1875 17.671875 17.3125 11.828125 
Q 21.4375 6 27.484375 6 
Q 33.546875 6 37.671875 11.859375 
Q 41.796875 17.71875 41.796875 35.296875 
Q 41.796875 52.984375 37.671875 58.78125 
Q 33.546875 64.59375 27.390625 64.59375 
Q 21.34375 64.59375 17.71875 59.46875 
Q 13.1875 52.9375 13.1875 35.296875 
z
" id="ArialMT-48"/>
       <path d="M 9.078125 0 
L 9.078125 10.015625 
L 19.09375 10.015625 
L 19.09375 0 
z
" id="ArialMT-46"/>
      </defs>
      <g style="fill:#262626;" transform="translate(31.0148 300.915098)scale(0.12 -0.12)">
       <use xlink:href="#ArialMT-48"/>
       <use x="55.615234" xlink:href="#ArialMT-46"/>
       <use x="83.398438" xlink:href="#ArialMT-48"/>
       <use x="139.013672" xlink:href="#ArialMT-48"/>
      </g>
     </g>
    </g>
    <g id="ytick_2">
     <g id="text_11">
      <!-- 0.02 -->
      <g style="fill:#262626;" transform="translate(31.0148 236.768461)scale(0.12 -0.12)">
       <use xlink:href="#ArialMT-48"/>
       <use x="55.615234" xlink:href="#ArialMT-46"/>
       <use x="83.398438" xlink:href="#ArialMT-48"/>
       <use x="139.013672" xlink:href="#ArialMT-50"/>
      </g>
     </g>
    </g>
    <g id="ytick_3">
     <g id="text_12">
      <!-- 0.04 -->
      <g style="fill:#262626;" transform="translate(31.0148 172.621825)scale(0.12 -0.12)">
       <use xlink:href="#ArialMT-48"/>
       <use x="55.615234" xlink:href="#ArialMT-46"/>
       <use x="83.398438" xlink:href="#ArialMT-48"/>
       <use x="139.013672" xlink:href="#ArialMT-52"/>
      </g>
     </g>
    </g>
    <g id="ytick_4">
     <g id="text_13">
      <!-- 0.06 -->
      <g style="fill:#262626;" transform="translate(31.0148 108.475188)scale(0.12 -0.12)">
       <use xlink:href="#ArialMT-48"/>
       <use x="55.615234" xlink:href="#ArialMT-46"/>
       <use x="83.398438" xlink:href="#ArialMT-48"/>
       <use x="139.013672" xlink:href="#ArialMT-54"/>
      </g>
     </g>
    </g>
    <g id="ytick_5">
     <g id="text_14">
      <!-- 0.08 -->
      <g style="fill:#262626;" transform="translate(31.0148 44.328552)scale(0.12 -0.12)">
       <use xlink:href="#ArialMT-48"/>
       <use x="55.615234" xlink:href="#ArialMT-46"/>
       <use x="83.398438" xlink:href="#ArialMT-48"/>
       <use x="139.013672" xlink:href="#ArialMT-56"/>
      </g>
     </g>
    </g>
    <g id="text_15">
     <!-- Hydroxyomeprazole sulfide -->
     <defs>
      <path d="M 8.015625 0 
L 8.015625 71.578125 
L 17.484375 71.578125 
L 17.484375 42.1875 
L 54.6875 42.1875 
L 54.6875 71.578125 
L 64.15625 71.578125 
L 64.15625 0 
L 54.6875 0 
L 54.6875 33.734375 
L 17.484375 33.734375 
L 17.484375 0 
z
" id="ArialMT-72"/>
      <path d="M 40.234375 0 
L 40.234375 6.546875 
Q 35.296875 -1.171875 25.734375 -1.171875 
Q 19.53125 -1.171875 14.328125 2.25 
Q 9.125 5.671875 6.265625 11.796875 
Q 3.421875 17.921875 3.421875 25.875 
Q 3.421875 33.640625 6 39.96875 
Q 8.59375 46.296875 13.765625 49.65625 
Q 18.953125 53.03125 25.34375 53.03125 
Q 30.03125 53.03125 33.6875 51.046875 
Q 37.359375 49.078125 39.65625 45.90625 
L 39.65625 71.578125 
L 48.390625 71.578125 
L 48.390625 0 
z
M 12.453125 25.875 
Q 12.453125 15.921875 16.640625 10.984375 
Q 20.84375 6.0625 26.5625 6.0625 
Q 32.328125 6.0625 36.34375 10.765625 
Q 40.375 15.484375 40.375 25.140625 
Q 40.375 35.796875 36.265625 40.765625 
Q 32.171875 45.75 26.171875 45.75 
Q 20.3125 45.75 16.375 40.96875 
Q 12.453125 36.1875 12.453125 25.875 
z
" id="ArialMT-100"/>
      <path d="M 6.5 0 
L 6.5 51.859375 
L 14.40625 51.859375 
L 14.40625 44 
Q 17.4375 49.515625 20 51.265625 
Q 22.5625 53.03125 25.640625 53.03125 
Q 30.078125 53.03125 34.671875 50.203125 
L 31.640625 42.046875 
Q 28.421875 43.953125 25.203125 43.953125 
Q 22.3125 43.953125 20.015625 42.21875 
Q 17.71875 40.484375 16.75 37.40625 
Q 15.28125 32.71875 15.28125 27.15625 
L 15.28125 0 
z
" id="ArialMT-114"/>
      <path d="M 3.328125 25.921875 
Q 3.328125 40.328125 11.328125 47.265625 
Q 18.015625 53.03125 27.640625 53.03125 
Q 38.328125 53.03125 45.109375 46.015625 
Q 51.90625 39.015625 51.90625 26.65625 
Q 51.90625 16.65625 48.90625 10.90625 
Q 45.90625 5.171875 40.15625 2 
Q 34.421875 -1.171875 27.640625 -1.171875 
Q 16.75 -1.171875 10.03125 5.8125 
Q 3.328125 12.796875 3.328125 25.921875 
z
M 12.359375 25.921875 
Q 12.359375 15.96875 16.703125 11.015625 
Q 21.046875 6.0625 27.640625 6.0625 
Q 34.1875 6.0625 38.53125 11.03125 
Q 42.875 16.015625 42.875 26.21875 
Q 42.875 35.84375 38.5 40.796875 
Q 34.125 45.75 27.640625 45.75 
Q 21.046875 45.75 16.703125 40.8125 
Q 12.359375 35.890625 12.359375 25.921875 
z
" id="ArialMT-111"/>
      <path d="M 0.734375 0 
L 19.671875 26.953125 
L 2.15625 51.859375 
L 13.140625 51.859375 
L 21.09375 39.703125 
Q 23.34375 36.234375 24.703125 33.890625 
Q 26.859375 37.109375 28.65625 39.59375 
L 37.40625 51.859375 
L 47.90625 51.859375 
L 29.984375 27.4375 
L 49.265625 0 
L 38.484375 0 
L 27.828125 16.109375 
L 25 20.453125 
L 11.375 0 
z
" id="ArialMT-120"/>
      <path d="M 6.59375 0 
L 6.59375 51.859375 
L 14.453125 51.859375 
L 14.453125 44.578125 
Q 16.890625 48.390625 20.9375 50.703125 
Q 25 53.03125 30.171875 53.03125 
Q 35.9375 53.03125 39.625 50.640625 
Q 43.3125 48.25 44.828125 43.953125 
Q 50.984375 53.03125 60.84375 53.03125 
Q 68.5625 53.03125 72.703125 48.75 
Q 76.859375 44.484375 76.859375 35.59375 
L 76.859375 0 
L 68.109375 0 
L 68.109375 32.671875 
Q 68.109375 37.9375 67.25 40.25 
Q 66.40625 42.578125 64.15625 43.984375 
Q 61.921875 45.40625 58.890625 45.40625 
Q 53.421875 45.40625 49.796875 41.765625 
Q 46.1875 38.140625 46.1875 30.125 
L 46.1875 0 
L 37.40625 0 
L 37.40625 33.6875 
Q 37.40625 39.546875 35.25 42.46875 
Q 33.109375 45.40625 28.21875 45.40625 
Q 24.515625 45.40625 21.359375 43.453125 
Q 18.21875 41.5 16.796875 37.734375 
Q 15.375 33.984375 15.375 26.90625 
L 15.375 0 
z
" id="ArialMT-109"/>
      <path d="M 42.09375 16.703125 
L 51.171875 15.578125 
Q 49.03125 7.625 43.21875 3.21875 
Q 37.40625 -1.171875 28.375 -1.171875 
Q 17 -1.171875 10.328125 5.828125 
Q 3.65625 12.84375 3.65625 25.484375 
Q 3.65625 38.578125 10.390625 45.796875 
Q 17.140625 53.03125 27.875 53.03125 
Q 38.28125 53.03125 44.875 45.953125 
Q 51.46875 38.875 51.46875 26.03125 
Q 51.46875 25.25 51.421875 23.6875 
L 12.75 23.6875 
Q 13.234375 15.140625 17.578125 10.59375 
Q 21.921875 6.0625 28.421875 6.0625 
Q 33.25 6.0625 36.671875 8.59375 
Q 40.09375 11.140625 42.09375 16.703125 
z
M 13.234375 30.90625 
L 42.1875 30.90625 
Q 41.609375 37.453125 38.875 40.71875 
Q 34.671875 45.796875 27.984375 45.796875 
Q 21.921875 45.796875 17.796875 41.75 
Q 13.671875 37.703125 13.234375 30.90625 
z
" id="ArialMT-101"/>
      <path d="M 6.59375 -19.875 
L 6.59375 51.859375 
L 14.59375 51.859375 
L 14.59375 45.125 
Q 17.4375 49.078125 21 51.046875 
Q 24.5625 53.03125 29.640625 53.03125 
Q 36.28125 53.03125 41.359375 49.609375 
Q 46.4375 46.1875 49.015625 39.953125 
Q 51.609375 33.734375 51.609375 26.3125 
Q 51.609375 18.359375 48.75 11.984375 
Q 45.90625 5.609375 40.453125 2.21875 
Q 35.015625 -1.171875 29 -1.171875 
Q 24.609375 -1.171875 21.109375 0.6875 
Q 17.625 2.546875 15.375 5.375 
L 15.375 -19.875 
z
M 14.546875 25.640625 
Q 14.546875 15.625 18.59375 10.84375 
Q 22.65625 6.0625 28.421875 6.0625 
Q 34.28125 6.0625 38.453125 11.015625 
Q 42.625 15.96875 42.625 26.375 
Q 42.625 36.28125 38.546875 41.203125 
Q 34.46875 46.140625 28.8125 46.140625 
Q 23.1875 46.140625 18.859375 40.890625 
Q 14.546875 35.640625 14.546875 25.640625 
z
" id="ArialMT-112"/>
      <path d="M 1.953125 0 
L 1.953125 7.125 
L 34.96875 45.015625 
Q 29.34375 44.734375 25.046875 44.734375 
L 3.90625 44.734375 
L 3.90625 51.859375 
L 46.296875 51.859375 
L 46.296875 46.046875 
L 18.21875 13.140625 
L 12.796875 7.125 
Q 18.703125 7.5625 23.875 7.5625 
L 47.859375 7.5625 
L 47.859375 0 
z
" id="ArialMT-122"/>
      <path d="M 6.390625 0 
L 6.390625 71.578125 
L 15.1875 71.578125 
L 15.1875 0 
z
" id="ArialMT-108"/>
      <path id="ArialMT-32"/>
      <path d="M 3.078125 15.484375 
L 11.765625 16.84375 
Q 12.5 11.625 15.84375 8.84375 
Q 19.1875 6.0625 25.203125 6.0625 
Q 31.25 6.0625 34.171875 8.515625 
Q 37.109375 10.984375 37.109375 14.3125 
Q 37.109375 17.28125 34.515625 19 
Q 32.71875 20.171875 25.53125 21.96875 
Q 15.875 24.421875 12.140625 26.203125 
Q 8.40625 27.984375 6.46875 31.125 
Q 4.546875 34.28125 4.546875 38.09375 
Q 4.546875 41.546875 6.125 44.5 
Q 7.71875 47.46875 10.453125 49.421875 
Q 12.5 50.921875 16.03125 51.96875 
Q 19.578125 53.03125 23.640625 53.03125 
Q 29.734375 53.03125 34.34375 51.265625 
Q 38.96875 49.515625 41.15625 46.5 
Q 43.359375 43.5 44.1875 38.484375 
L 35.59375 37.3125 
Q 35.015625 41.3125 32.203125 43.546875 
Q 29.390625 45.796875 24.265625 45.796875 
Q 18.21875 45.796875 15.625 43.796875 
Q 13.03125 41.796875 13.03125 39.109375 
Q 13.03125 37.40625 14.109375 36.03125 
Q 15.1875 34.625 17.484375 33.6875 
Q 18.796875 33.203125 25.25 31.453125 
Q 34.578125 28.953125 38.25 27.359375 
Q 41.9375 25.78125 44.03125 22.75 
Q 46.140625 19.734375 46.140625 15.234375 
Q 46.140625 10.84375 43.578125 6.953125 
Q 41.015625 3.078125 36.171875 0.953125 
Q 31.34375 -1.171875 25.25 -1.171875 
Q 15.140625 -1.171875 9.84375 3.03125 
Q 4.546875 7.234375 3.078125 15.484375 
z
" id="ArialMT-115"/>
      <path d="M 40.578125 0 
L 40.578125 7.625 
Q 34.515625 -1.171875 24.125 -1.171875 
Q 19.53125 -1.171875 15.546875 0.578125 
Q 11.578125 2.34375 9.640625 5 
Q 7.71875 7.671875 6.9375 11.53125 
Q 6.390625 14.109375 6.390625 19.734375 
L 6.390625 51.859375 
L 15.1875 51.859375 
L 15.1875 23.09375 
Q 15.1875 16.21875 15.71875 13.8125 
Q 16.546875 10.359375 19.234375 8.375 
Q 21.921875 6.390625 25.875 6.390625 
Q 29.828125 6.390625 33.296875 8.421875 
Q 36.765625 10.453125 38.203125 13.9375 
Q 39.65625 17.4375 39.65625 24.078125 
L 39.65625 51.859375 
L 48.4375 51.859375 
L 48.4375 0 
z
" id="ArialMT-117"/>
      <path d="M 8.6875 0 
L 8.6875 45.015625 
L 0.921875 45.015625 
L 0.921875 51.859375 
L 8.6875 51.859375 
L 8.6875 57.375 
Q 8.6875 62.59375 9.625 65.140625 
Q 10.890625 68.5625 14.078125 70.671875 
Q 17.28125 72.796875 23.046875 72.796875 
Q 26.765625 72.796875 31.25 71.921875 
L 29.9375 64.265625 
Q 27.203125 64.75 24.75 64.75 
Q 20.75 64.75 19.09375 63.03125 
Q 17.4375 61.328125 17.4375 56.640625 
L 17.4375 51.859375 
L 27.546875 51.859375 
L 27.546875 45.015625 
L 17.4375 45.015625 
L 17.4375 0 
z
" id="ArialMT-102"/>
      <path d="M 6.640625 61.46875 
L 6.640625 71.578125 
L 15.4375 71.578125 
L 15.4375 61.46875 
z
M 6.640625 0 
L 6.640625 51.859375 
L 15.4375 51.859375 
L 15.4375 0 
z
" id="ArialMT-105"/>
     </defs>
     <g style="fill:#262626;" transform="translate(23.857769 257.702344)rotate(-90)scale(0.15 -0.15)">
      <use xlink:href="#ArialMT-72"/>
      <use x="72.216797" xlink:href="#ArialMT-121"/>
      <use x="122.216797" xlink:href="#ArialMT-100"/>
      <use x="177.832031" xlink:href="#ArialMT-114"/>
      <use x="211.132812" xlink:href="#ArialMT-111"/>
      <use x="266.748047" xlink:href="#ArialMT-120"/>
      <use x="316.748047" xlink:href="#ArialMT-121"/>
      <use x="366.748047" xlink:href="#ArialMT-111"/>
      <use x="422.363281" xlink:href="#ArialMT-109"/>
      <use x="505.664062" xlink:href="#ArialMT-101"/>
      <use x="561.279297" xlink:href="#ArialMT-112"/>
      <use x="616.894531" xlink:href="#ArialMT-114"/>
      <use x="650.195312" xlink:href="#ArialMT-97"/>
      <use x="705.810547" xlink:href="#ArialMT-122"/>
      <use x="755.810547" xlink:href="#ArialMT-111"/>
      <use x="811.425781" xlink:href="#ArialMT-108"/>
      <use x="833.642578" xlink:href="#ArialMT-101"/>
      <use x="889.257812" xlink:href="#ArialMT-32"/>
      <use x="917.041016" xlink:href="#ArialMT-115"/>
      <use x="967.041016" xlink:href="#ArialMT-117"/>
      <use x="1022.65625" xlink:href="#ArialMT-108"/>
      <use x="1044.873047" xlink:href="#ArialMT-102"/>
      <use x="1072.65625" xlink:href="#ArialMT-105"/>
      <use x="1094.873047" xlink:href="#ArialMT-100"/>
      <use x="1150.488281" xlink:href="#ArialMT-101"/>
     </g>
    </g>
   </g>
   <g id="PathCollection_1">
    <defs>
     <path d="M 0 3 
C 0.795609 3 1.55874 2.683901 2.12132 2.12132 
C 2.683901 1.55874 3 0.795609 3 0 
C 3 -0.795609 2.683901 -1.55874 2.12132 -2.12132 
C 1.55874 -2.683901 0.795609 -3 0 -3 
C -0.795609 -3 -1.55874 -2.683901 -2.12132 -2.12132 
C -2.683901 -1.55874 -3 -0.795609 -3 0 
C -3 0.795609 -2.683901 1.55874 -2.12132 2.12132 
C -1.55874 2.683901 -0.795609 3 0 3 
z
" id="m7d87bc6224" style="stroke:#f77189;stroke-opacity:0.8;"/>
    </defs>
    <g clip-path="url(#p1db3d2ad11)">
     <use style="fill:#f77189;fill-opacity:0.8;stroke:#f77189;stroke-opacity:0.8;" x="77.586882" xlink:href="#m7d87bc6224" y="291.753323"/>
     <use style="fill:#f77189;fill-opacity:0.8;stroke:#f77189;stroke-opacity:0.8;" x="114.988726" xlink:href="#m7d87bc6224" y="242.833985"/>
     <use style="fill:#f77189;fill-opacity:0.8;stroke:#f77189;stroke-opacity:0.8;" x="152.390571" xlink:href="#m7d87bc6224" y="184.216955"/>
     <use style="fill:#f77189;fill-opacity:0.8;stroke:#f77189;stroke-opacity:0.8;" x="264.596104" xlink:href="#m7d87bc6224" y="209.969963"/>
     <use style="fill:#f77189;fill-opacity:0.8;stroke:#f77189;stroke-opacity:0.8;" x="301.997949" xlink:href="#m7d87bc6224" y="197.425232"/>
     <use style="fill:#f77189;fill-opacity:0.8;stroke:#f77189;stroke-opacity:0.8;" x="339.399793" xlink:href="#m7d87bc6224" y="242.1593"/>
    </g>
   </g>
   <g id="PathCollection_2">
    <defs>
     <path d="M 0 3 
C 0.795609 3 1.55874 2.683901 2.12132 2.12132 
C 2.683901 1.55874 3 0.795609 3 0 
C 3 -0.795609 2.683901 -1.55874 2.12132 -2.12132 
C 1.55874 -2.683901 0.795609 -3 0 -3 
C -0.795609 -3 -1.55874 -2.683901 -2.12132 -2.12132 
C -2.683901 -1.55874 -3 -0.795609 -3 0 
C -3 0.795609 -2.683901 1.55874 -2.12132 2.12132 
C -1.55874 2.683901 -0.795609 3 0 3 
z
" id="m806ff7bcd0" style="stroke:#ef7d32;stroke-opacity:0.8;"/>
    </defs>
    <g clip-path="url(#p1db3d2ad11)">
     <use style="fill:#ef7d32;fill-opacity:0.8;stroke:#ef7d32;stroke-opacity:0.8;" x="77.586882" xlink:href="#m806ff7bcd0" y="296.62041"/>
     <use style="fill:#ef7d32;fill-opacity:0.8;stroke:#ef7d32;stroke-opacity:0.8;" x="114.988726" xlink:href="#m806ff7bcd0" y="294.667344"/>
     <use style="fill:#ef7d32;fill-opacity:0.8;stroke:#ef7d32;stroke-opacity:0.8;" x="152.390571" xlink:href="#m806ff7bcd0" y="293.096204"/>
     <use style="fill:#ef7d32;fill-opacity:0.8;stroke:#ef7d32;stroke-opacity:0.8;" x="189.792415" xlink:href="#m806ff7bcd0" y="296.62041"/>
     <use style="fill:#ef7d32;fill-opacity:0.8;stroke:#ef7d32;stroke-opacity:0.8;" x="227.19426" xlink:href="#m806ff7bcd0" y="286.655028"/>
     <use style="fill:#ef7d32;fill-opacity:0.8;stroke:#ef7d32;stroke-opacity:0.8;" x="264.596104" xlink:href="#m806ff7bcd0" y="276.762177"/>
     <use style="fill:#ef7d32;fill-opacity:0.8;stroke:#ef7d32;stroke-opacity:0.8;" x="301.997949" xlink:href="#m806ff7bcd0" y="292.691862"/>
     <use style="fill:#ef7d32;fill-opacity:0.8;stroke:#ef7d32;stroke-opacity:0.8;" x="339.399793" xlink:href="#m806ff7bcd0" y="293.425886"/>
    </g>
   </g>
   <g id="PathCollection_3">
    <defs>
     <path d="M 0 3 
C 0.795609 3 1.55874 2.683901 2.12132 2.12132 
C 2.683901 1.55874 3 0.795609 3 0 
C 3 -0.795609 2.683901 -1.55874 2.12132 -2.12132 
C 1.55874 -2.683901 0.795609 -3 0 -3 
C -0.795609 -3 -1.55874 -2.683901 -2.12132 -2.12132 
C -2.683901 -1.55874 -3 -0.795609 -3 0 
C -3 0.795609 -2.683901 1.55874 -2.12132 2.12132 
C -1.55874 2.683901 -0.795609 3 0 3 
z
" id="m8e31014d47" style="stroke:#c69432;stroke-opacity:0.8;"/>
    </defs>
    <g clip-path="url(#p1db3d2ad11)">
     <use style="fill:#c69432;fill-opacity:0.8;stroke:#c69432;stroke-opacity:0.8;" x="114.988726" xlink:href="#m8e31014d47" y="281.266987"/>
     <use style="fill:#c69432;fill-opacity:0.8;stroke:#c69432;stroke-opacity:0.8;" x="189.792415" xlink:href="#m8e31014d47" y="182.375103"/>
     <use style="fill:#c69432;fill-opacity:0.8;stroke:#c69432;stroke-opacity:0.8;" x="227.19426" xlink:href="#m8e31014d47" y="206.146445"/>
     <use style="fill:#c69432;fill-opacity:0.8;stroke:#c69432;stroke-opacity:0.8;" x="301.997949" xlink:href="#m8e31014d47" y="188.815535"/>
     <use style="fill:#c69432;fill-opacity:0.8;stroke:#c69432;stroke-opacity:0.8;" x="339.399793" xlink:href="#m8e31014d47" y="296.62041"/>
    </g>
   </g>
   <g id="PathCollection_4">
    <defs>
     <path d="M 0 3 
C 0.795609 3 1.55874 2.683901 2.12132 2.12132 
C 2.683901 1.55874 3 0.795609 3 0 
C 3 -0.795609 2.683901 -1.55874 2.12132 -2.12132 
C 1.55874 -2.683901 0.795609 -3 0 -3 
C -0.795609 -3 -1.55874 -2.683901 -2.12132 -2.12132 
C -2.683901 -1.55874 -3 -0.795609 -3 0 
C -3 0.795609 -2.683901 1.55874 -2.12132 2.12132 
C -1.55874 2.683901 -0.795609 3 0 3 
z
" id="mcbd94caad1" style="stroke:#a79f31;stroke-opacity:0.8;"/>
    </defs>
    <g clip-path="url(#p1db3d2ad11)">
     <use style="fill:#a79f31;fill-opacity:0.8;stroke:#a79f31;stroke-opacity:0.8;" x="77.586882" xlink:href="#mcbd94caad1" y="295.363727"/>
     <use style="fill:#a79f31;fill-opacity:0.8;stroke:#a79f31;stroke-opacity:0.8;" x="114.988726" xlink:href="#mcbd94caad1" y="295.520235"/>
     <use style="fill:#a79f31;fill-opacity:0.8;stroke:#a79f31;stroke-opacity:0.8;" x="189.792415" xlink:href="#mcbd94caad1" y="129.074213"/>
     <use style="fill:#a79f31;fill-opacity:0.8;stroke:#a79f31;stroke-opacity:0.8;" x="227.19426" xlink:href="#mcbd94caad1" y="233.444941"/>
     <use style="fill:#a79f31;fill-opacity:0.8;stroke:#a79f31;stroke-opacity:0.8;" x="264.596104" xlink:href="#mcbd94caad1" y="288.628743"/>
     <use style="fill:#a79f31;fill-opacity:0.8;stroke:#a79f31;stroke-opacity:0.8;" x="301.997949" xlink:href="#mcbd94caad1" y="293.73292"/>
     <use style="fill:#a79f31;fill-opacity:0.8;stroke:#a79f31;stroke-opacity:0.8;" x="339.399793" xlink:href="#mcbd94caad1" y="290.995517"/>
    </g>
   </g>
   <g id="PathCollection_5">
    <defs>
     <path d="M 0 3 
C 0.795609 3 1.55874 2.683901 2.12132 2.12132 
C 2.683901 1.55874 3 0.795609 3 0 
C 3 -0.795609 2.683901 -1.55874 2.12132 -2.12132 
C 1.55874 -2.683901 0.795609 -3 0 -3 
C -0.795609 -3 -1.55874 -2.683901 -2.12132 -2.12132 
C -2.683901 -1.55874 -3 -0.795609 -3 0 
C -3 0.795609 -2.683901 1.55874 -2.12132 2.12132 
C -1.55874 2.683901 -0.795609 3 0 3 
z
" id="m64b3c8324c" style="stroke:#82a931;stroke-opacity:0.8;"/>
    </defs>
    <g clip-path="url(#p1db3d2ad11)">
     <use style="fill:#82a931;fill-opacity:0.8;stroke:#82a931;stroke-opacity:0.8;" x="77.586882" xlink:href="#m64b3c8324c" y="276.595312"/>
     <use style="fill:#82a931;fill-opacity:0.8;stroke:#82a931;stroke-opacity:0.8;" x="114.988726" xlink:href="#m64b3c8324c" y="270.948635"/>
     <use style="fill:#82a931;fill-opacity:0.8;stroke:#82a931;stroke-opacity:0.8;" x="152.390571" xlink:href="#m64b3c8324c" y="290.005163"/>
     <use style="fill:#82a931;fill-opacity:0.8;stroke:#82a931;stroke-opacity:0.8;" x="227.19426" xlink:href="#m64b3c8324c" y="285.355071"/>
     <use style="fill:#82a931;fill-opacity:0.8;stroke:#82a931;stroke-opacity:0.8;" x="264.596104" xlink:href="#m64b3c8324c" y="273.025783"/>
     <use style="fill:#82a931;fill-opacity:0.8;stroke:#82a931;stroke-opacity:0.8;" x="301.997949" xlink:href="#m64b3c8324c" y="277.4794"/>
     <use style="fill:#82a931;fill-opacity:0.8;stroke:#82a931;stroke-opacity:0.8;" x="339.399793" xlink:href="#m64b3c8324c" y="250.135392"/>
    </g>
   </g>
   <g id="PathCollection_6">
    <defs>
     <path d="M 0 3 
C 0.795609 3 1.55874 2.683901 2.12132 2.12132 
C 2.683901 1.55874 3 0.795609 3 0 
C 3 -0.795609 2.683901 -1.55874 2.12132 -2.12132 
C 1.55874 -2.683901 0.795609 -3 0 -3 
C -0.795609 -3 -1.55874 -2.683901 -2.12132 -2.12132 
C -2.683901 -1.55874 -3 -0.795609 -3 0 
C -3 0.795609 -2.683901 1.55874 -2.12132 2.12132 
C -1.55874 2.683901 -0.795609 3 0 3 
z
" id="m228d935381" style="stroke:#32b24e;stroke-opacity:0.8;"/>
    </defs>
    <g clip-path="url(#p1db3d2ad11)">
     <use style="fill:#32b24e;fill-opacity:0.8;stroke:#32b24e;stroke-opacity:0.8;" x="114.988726" xlink:href="#m228d935381" y="296.62041"/>
     <use style="fill:#32b24e;fill-opacity:0.8;stroke:#32b24e;stroke-opacity:0.8;" x="152.390571" xlink:href="#m228d935381" y="260.699282"/>
     <use style="fill:#32b24e;fill-opacity:0.8;stroke:#32b24e;stroke-opacity:0.8;" x="189.792415" xlink:href="#m228d935381" y="296.62041"/>
     <use style="fill:#32b24e;fill-opacity:0.8;stroke:#32b24e;stroke-opacity:0.8;" x="227.19426" xlink:href="#m228d935381" y="296.62041"/>
     <use style="fill:#32b24e;fill-opacity:0.8;stroke:#32b24e;stroke-opacity:0.8;" x="264.596104" xlink:href="#m228d935381" y="225.570492"/>
     <use style="fill:#32b24e;fill-opacity:0.8;stroke:#32b24e;stroke-opacity:0.8;" x="301.997949" xlink:href="#m228d935381" y="296.62041"/>
     <use style="fill:#32b24e;fill-opacity:0.8;stroke:#32b24e;stroke-opacity:0.8;" x="339.399793" xlink:href="#m228d935381" y="296.62041"/>
    </g>
   </g>
   <g id="PathCollection_7">
    <defs>
     <path d="M 0 3 
C 0.795609 3 1.55874 2.683901 2.12132 2.12132 
C 2.683901 1.55874 3 0.795609 3 0 
C 3 -0.795609 2.683901 -1.55874 2.12132 -2.12132 
C 1.55874 -2.683901 0.795609 -3 0 -3 
C -0.795609 -3 -1.55874 -2.683901 -2.12132 -2.12132 
C -2.683901 -1.55874 -3 -0.795609 -3 0 
C -3 0.795609 -2.683901 1.55874 -2.12132 2.12132 
C -1.55874 2.683901 -0.795609 3 0 3 
z
" id="m772a7693ca" style="stroke:#34af8a;stroke-opacity:0.8;"/>
    </defs>
    <g clip-path="url(#p1db3d2ad11)">
     <use style="fill:#34af8a;fill-opacity:0.8;stroke:#34af8a;stroke-opacity:0.8;" x="77.586882" xlink:href="#m772a7693ca" y="296.62041"/>
     <use style="fill:#34af8a;fill-opacity:0.8;stroke:#34af8a;stroke-opacity:0.8;" x="114.988726" xlink:href="#m772a7693ca" y="257.638605"/>
     <use style="fill:#34af8a;fill-opacity:0.8;stroke:#34af8a;stroke-opacity:0.8;" x="152.390571" xlink:href="#m772a7693ca" y="220.831057"/>
     <use style="fill:#34af8a;fill-opacity:0.8;stroke:#34af8a;stroke-opacity:0.8;" x="189.792415" xlink:href="#m772a7693ca" y="296.62041"/>
     <use style="fill:#34af8a;fill-opacity:0.8;stroke:#34af8a;stroke-opacity:0.8;" x="227.19426" xlink:href="#m772a7693ca" y="296.62041"/>
     <use style="fill:#34af8a;fill-opacity:0.8;stroke:#34af8a;stroke-opacity:0.8;" x="264.596104" xlink:href="#m772a7693ca" y="296.62041"/>
     <use style="fill:#34af8a;fill-opacity:0.8;stroke:#34af8a;stroke-opacity:0.8;" x="301.997949" xlink:href="#m772a7693ca" y="238.777522"/>
     <use style="fill:#34af8a;fill-opacity:0.8;stroke:#34af8a;stroke-opacity:0.8;" x="339.399793" xlink:href="#m772a7693ca" y="296.62041"/>
    </g>
   </g>
   <g id="PathCollection_8">
    <defs>
     <path d="M 0 3 
C 0.795609 3 1.55874 2.683901 2.12132 2.12132 
C 2.683901 1.55874 3 0.795609 3 0 
C 3 -0.795609 2.683901 -1.55874 2.12132 -2.12132 
C 1.55874 -2.683901 0.795609 -3 0 -3 
C -0.795609 -3 -1.55874 -2.683901 -2.12132 -2.12132 
C -2.683901 -1.55874 -3 -0.795609 -3 0 
C -3 0.795609 -2.683901 1.55874 -2.12132 2.12132 
C -1.55874 2.683901 -0.795609 3 0 3 
z
" id="m8e6a811f89" style="stroke:#36ada4;stroke-opacity:0.8;"/>
    </defs>
    <g clip-path="url(#p1db3d2ad11)">
     <use style="fill:#36ada4;fill-opacity:0.8;stroke:#36ada4;stroke-opacity:0.8;" x="114.988726" xlink:href="#m8e6a811f89" y="292.071381"/>
     <use style="fill:#36ada4;fill-opacity:0.8;stroke:#36ada4;stroke-opacity:0.8;" x="189.792415" xlink:href="#m8e6a811f89" y="224.098792"/>
     <use style="fill:#36ada4;fill-opacity:0.8;stroke:#36ada4;stroke-opacity:0.8;" x="264.596104" xlink:href="#m8e6a811f89" y="123.10305"/>
     <use style="fill:#36ada4;fill-opacity:0.8;stroke:#36ada4;stroke-opacity:0.8;" x="301.997949" xlink:href="#m8e6a811f89" y="108.507361"/>
     <use style="fill:#36ada4;fill-opacity:0.8;stroke:#36ada4;stroke-opacity:0.8;" x="339.399793" xlink:href="#m8e6a811f89" y="29.969071"/>
    </g>
   </g>
   <g id="PathCollection_9">
    <defs>
     <path d="M 0 3 
C 0.795609 3 1.55874 2.683901 2.12132 2.12132 
C 2.683901 1.55874 3 0.795609 3 0 
C 3 -0.795609 2.683901 -1.55874 2.12132 -2.12132 
C 1.55874 -2.683901 0.795609 -3 0 -3 
C -0.795609 -3 -1.55874 -2.683901 -2.12132 -2.12132 
C -2.683901 -1.55874 -3 -0.795609 -3 0 
C -3 0.795609 -2.683901 1.55874 -2.12132 2.12132 
C -1.55874 2.683901 -0.795609 3 0 3 
z
" id="m6da2e8e533" style="stroke:#37aabb;stroke-opacity:0.8;"/>
    </defs>
    <g clip-path="url(#p1db3d2ad11)">
     <use style="fill:#37aabb;fill-opacity:0.8;stroke:#37aabb;stroke-opacity:0.8;" x="77.586882" xlink:href="#m6da2e8e533" y="220.306546"/>
     <use style="fill:#37aabb;fill-opacity:0.8;stroke:#37aabb;stroke-opacity:0.8;" x="152.390571" xlink:href="#m6da2e8e533" y="149.290443"/>
     <use style="fill:#37aabb;fill-opacity:0.8;stroke:#37aabb;stroke-opacity:0.8;" x="189.792415" xlink:href="#m6da2e8e533" y="242.701647"/>
     <use style="fill:#37aabb;fill-opacity:0.8;stroke:#37aabb;stroke-opacity:0.8;" x="227.19426" xlink:href="#m6da2e8e533" y="242.536713"/>
     <use style="fill:#37aabb;fill-opacity:0.8;stroke:#37aabb;stroke-opacity:0.8;" x="264.596104" xlink:href="#m6da2e8e533" y="203.371407"/>
     <use style="fill:#37aabb;fill-opacity:0.8;stroke:#37aabb;stroke-opacity:0.8;" x="301.997949" xlink:href="#m6da2e8e533" y="150.550324"/>
    </g>
   </g>
   <g id="PathCollection_10">
    <defs>
     <path d="M 0 3 
C 0.795609 3 1.55874 2.683901 2.12132 2.12132 
C 2.683901 1.55874 3 0.795609 3 0 
C 3 -0.795609 2.683901 -1.55874 2.12132 -2.12132 
C 1.55874 -2.683901 0.795609 -3 0 -3 
C -0.795609 -3 -1.55874 -2.683901 -2.12132 -2.12132 
C -2.683901 -1.55874 -3 -0.795609 -3 0 
C -3 0.795609 -2.683901 1.55874 -2.12132 2.12132 
C -1.55874 2.683901 -0.795609 3 0 3 
z
" id="m4b73e3b534" style="stroke:#3aa6da;stroke-opacity:0.8;"/>
    </defs>
    <g clip-path="url(#p1db3d2ad11)">
     <use style="fill:#3aa6da;fill-opacity:0.8;stroke:#3aa6da;stroke-opacity:0.8;" x="77.586882" xlink:href="#m4b73e3b534" y="276.048469"/>
     <use style="fill:#3aa6da;fill-opacity:0.8;stroke:#3aa6da;stroke-opacity:0.8;" x="189.792415" xlink:href="#m4b73e3b534" y="296.62041"/>
     <use style="fill:#3aa6da;fill-opacity:0.8;stroke:#3aa6da;stroke-opacity:0.8;" x="264.596104" xlink:href="#m4b73e3b534" y="278.124972"/>
     <use style="fill:#3aa6da;fill-opacity:0.8;stroke:#3aa6da;stroke-opacity:0.8;" x="339.399793" xlink:href="#m4b73e3b534" y="165.226574"/>
    </g>
   </g>
   <g id="PathCollection_11">
    <defs>
     <path d="M 0 3 
C 0.795609 3 1.55874 2.683901 2.12132 2.12132 
C 2.683901 1.55874 3 0.795609 3 0 
C 3 -0.795609 2.683901 -1.55874 2.12132 -2.12132 
C 1.55874 -2.683901 0.795609 -3 0 -3 
C -0.795609 -3 -1.55874 -2.683901 -2.12132 -2.12132 
C -2.683901 -1.55874 -3 -0.795609 -3 0 
C -3 0.795609 -2.683901 1.55874 -2.12132 2.12132 
C -1.55874 2.683901 -0.795609 3 0 3 
z
" id="m19a74141e5" style="stroke:#8197f4;stroke-opacity:0.8;"/>
    </defs>
    <g clip-path="url(#p1db3d2ad11)">
     <use style="fill:#8197f4;fill-opacity:0.8;stroke:#8197f4;stroke-opacity:0.8;" x="77.586882" xlink:href="#m19a74141e5" y="293.419394"/>
     <use style="fill:#8197f4;fill-opacity:0.8;stroke:#8197f4;stroke-opacity:0.8;" x="114.988726" xlink:href="#m19a74141e5" y="286.08862"/>
     <use style="fill:#8197f4;fill-opacity:0.8;stroke:#8197f4;stroke-opacity:0.8;" x="189.792415" xlink:href="#m19a74141e5" y="194.076434"/>
     <use style="fill:#8197f4;fill-opacity:0.8;stroke:#8197f4;stroke-opacity:0.8;" x="227.19426" xlink:href="#m19a74141e5" y="296.62041"/>
     <use style="fill:#8197f4;fill-opacity:0.8;stroke:#8197f4;stroke-opacity:0.8;" x="264.596104" xlink:href="#m19a74141e5" y="270.44807"/>
     <use style="fill:#8197f4;fill-opacity:0.8;stroke:#8197f4;stroke-opacity:0.8;" x="301.997949" xlink:href="#m19a74141e5" y="296.62041"/>
     <use style="fill:#8197f4;fill-opacity:0.8;stroke:#8197f4;stroke-opacity:0.8;" x="339.399793" xlink:href="#m19a74141e5" y="296.62041"/>
    </g>
   </g>
   <g id="PathCollection_12">
    <defs>
     <path d="M 0 3 
C 0.795609 3 1.55874 2.683901 2.12132 2.12132 
C 2.683901 1.55874 3 0.795609 3 0 
C 3 -0.795609 2.683901 -1.55874 2.12132 -2.12132 
C 1.55874 -2.683901 0.795609 -3 0 -3 
C -0.795609 -3 -1.55874 -2.683901 -2.12132 -2.12132 
C -2.683901 -1.55874 -3 -0.795609 -3 0 
C -3 0.795609 -2.683901 1.55874 -2.12132 2.12132 
C -1.55874 2.683901 -0.795609 3 0 3 
z
" id="m48ef914c4d" style="stroke:#c180f4;stroke-opacity:0.8;"/>
    </defs>
    <g clip-path="url(#p1db3d2ad11)">
     <use style="fill:#c180f4;fill-opacity:0.8;stroke:#c180f4;stroke-opacity:0.8;" x="114.988726" xlink:href="#m48ef914c4d" y="296.62041"/>
     <use style="fill:#c180f4;fill-opacity:0.8;stroke:#c180f4;stroke-opacity:0.8;" x="152.390571" xlink:href="#m48ef914c4d" y="267.306514"/>
     <use style="fill:#c180f4;fill-opacity:0.8;stroke:#c180f4;stroke-opacity:0.8;" x="189.792415" xlink:href="#m48ef914c4d" y="296.62041"/>
     <use style="fill:#c180f4;fill-opacity:0.8;stroke:#c180f4;stroke-opacity:0.8;" x="264.596104" xlink:href="#m48ef914c4d" y="296.62041"/>
     <use style="fill:#c180f4;fill-opacity:0.8;stroke:#c180f4;stroke-opacity:0.8;" x="301.997949" xlink:href="#m48ef914c4d" y="296.62041"/>
     <use style="fill:#c180f4;fill-opacity:0.8;stroke:#c180f4;stroke-opacity:0.8;" x="339.399793" xlink:href="#m48ef914c4d" y="296.62041"/>
    </g>
   </g>
   <g id="PathCollection_13">
    <defs>
     <path d="M 0 3 
C 0.795609 3 1.55874 2.683901 2.12132 2.12132 
C 2.683901 1.55874 3 0.795609 3 0 
C 3 -0.795609 2.683901 -1.55874 2.12132 -2.12132 
C 1.55874 -2.683901 0.795609 -3 0 -3 
C -0.795609 -3 -1.55874 -2.683901 -2.12132 -2.12132 
C -2.683901 -1.55874 -3 -0.795609 -3 0 
C -3 0.795609 -2.683901 1.55874 -2.12132 2.12132 
C -1.55874 2.683901 -0.795609 3 0 3 
z
" id="m8bbdfbe2af" style="stroke:#f45deb;stroke-opacity:0.8;"/>
    </defs>
    <g clip-path="url(#p1db3d2ad11)">
     <use style="fill:#f45deb;fill-opacity:0.8;stroke:#f45deb;stroke-opacity:0.8;" x="77.586882" xlink:href="#m8bbdfbe2af" y="295.505946"/>
     <use style="fill:#f45deb;fill-opacity:0.8;stroke:#f45deb;stroke-opacity:0.8;" x="114.988726" xlink:href="#m8bbdfbe2af" y="296.259355"/>
     <use style="fill:#f45deb;fill-opacity:0.8;stroke:#f45deb;stroke-opacity:0.8;" x="152.390571" xlink:href="#m8bbdfbe2af" y="295.677012"/>
     <use style="fill:#f45deb;fill-opacity:0.8;stroke:#f45deb;stroke-opacity:0.8;" x="189.792415" xlink:href="#m8bbdfbe2af" y="294.4297"/>
     <use style="fill:#f45deb;fill-opacity:0.8;stroke:#f45deb;stroke-opacity:0.8;" x="227.19426" xlink:href="#m8bbdfbe2af" y="293.970827"/>
     <use style="fill:#f45deb;fill-opacity:0.8;stroke:#f45deb;stroke-opacity:0.8;" x="264.596104" xlink:href="#m8bbdfbe2af" y="295.855792"/>
     <use style="fill:#f45deb;fill-opacity:0.8;stroke:#f45deb;stroke-opacity:0.8;" x="301.997949" xlink:href="#m8bbdfbe2af" y="295.159381"/>
    </g>
   </g>
   <g id="PathCollection_14">
    <defs>
     <path d="M 0 3 
C 0.795609 3 1.55874 2.683901 2.12132 2.12132 
C 2.683901 1.55874 3 0.795609 3 0 
C 3 -0.795609 2.683901 -1.55874 2.12132 -2.12132 
C 1.55874 -2.683901 0.795609 -3 0 -3 
C -0.795609 -3 -1.55874 -2.683901 -2.12132 -2.12132 
C -2.683901 -1.55874 -3 -0.795609 -3 0 
C -3 0.795609 -2.683901 1.55874 -2.12132 2.12132 
C -1.55874 2.683901 -0.795609 3 0 3 
z
" id="mec24bd3251" style="stroke:#f669ba;stroke-opacity:0.8;"/>
    </defs>
    <g clip-path="url(#p1db3d2ad11)">
     <use style="fill:#f669ba;fill-opacity:0.8;stroke:#f669ba;stroke-opacity:0.8;" x="77.586882" xlink:href="#mec24bd3251" y="296.62041"/>
     <use style="fill:#f669ba;fill-opacity:0.8;stroke:#f669ba;stroke-opacity:0.8;" x="114.988726" xlink:href="#mec24bd3251" y="291.739563"/>
     <use style="fill:#f669ba;fill-opacity:0.8;stroke:#f669ba;stroke-opacity:0.8;" x="152.390571" xlink:href="#mec24bd3251" y="296.62041"/>
     <use style="fill:#f669ba;fill-opacity:0.8;stroke:#f669ba;stroke-opacity:0.8;" x="227.19426" xlink:href="#mec24bd3251" y="295.639589"/>
     <use style="fill:#f669ba;fill-opacity:0.8;stroke:#f669ba;stroke-opacity:0.8;" x="264.596104" xlink:href="#mec24bd3251" y="295.264302"/>
     <use style="fill:#f669ba;fill-opacity:0.8;stroke:#f669ba;stroke-opacity:0.8;" x="301.997949" xlink:href="#mec24bd3251" y="295.081876"/>
     <use style="fill:#f669ba;fill-opacity:0.8;stroke:#f669ba;stroke-opacity:0.8;" x="339.399793" xlink:href="#mec24bd3251" y="296.62041"/>
    </g>
   </g>
   <g id="line2d_1">
    <path clip-path="url(#p1db3d2ad11)" d="M 77.586882 249.015217 
L 80.231457 248.591875 
L 82.876032 248.168533 
L 85.520606 247.745191 
L 88.165181 247.321849 
L 90.809756 246.898507 
L 93.454331 246.475165 
L 96.098906 246.051823 
L 98.743481 245.628481 
L 101.388056 245.20514 
L 104.032631 244.781798 
L 106.677205 244.358456 
L 109.32178 243.935114 
L 111.966355 243.511772 
L 114.61093 243.08843 
L 117.255505 242.665088 
L 119.90008 242.241746 
L 122.544655 241.818404 
L 125.189229 241.395063 
L 127.833804 240.971721 
L 130.478379 240.548379 
L 133.122954 240.125037 
L 135.767529 239.701695 
L 138.412104 239.278353 
L 141.056679 238.855011 
L 143.701253 238.431669 
L 146.345828 238.008327 
L 148.990403 237.584986 
L 151.634978 237.161644 
L 154.279553 236.738302 
L 156.924128 236.31496 
L 159.568703 235.891618 
L 162.213278 235.468276 
L 164.857852 235.044934 
L 167.502427 234.621592 
L 170.147002 234.19825 
L 172.791577 233.774909 
L 175.436152 233.351567 
L 178.080727 232.928225 
L 180.725302 232.504883 
L 183.369876 232.081541 
L 186.014451 231.658199 
L 188.659026 231.234857 
L 191.303601 230.811515 
L 193.948176 230.388173 
L 196.592751 229.964832 
L 199.237326 229.54149 
L 201.881901 229.118148 
L 204.526475 228.694806 
L 207.17105 228.271464 
L 209.815625 227.848122 
L 212.4602 227.42478 
L 215.104775 227.001438 
L 217.74935 226.578096 
L 220.393925 226.154755 
L 223.038499 225.731413 
L 225.683074 225.308071 
L 228.327649 224.884729 
L 230.972224 224.461387 
L 233.616799 224.038045 
L 236.261374 223.614703 
L 238.905949 223.191361 
L 241.550523 222.768019 
L 244.195098 222.344678 
L 246.839673 221.921336 
L 249.484248 221.497994 
L 252.128823 221.074652 
L 254.773398 220.65131 
L 257.417973 220.227968 
L 260.062548 219.804626 
L 262.707122 219.381284 
L 265.351697 218.957942 
L 267.996272 218.534601 
L 270.640847 218.111259 
L 273.285422 217.687917 
L 275.929997 217.264575 
L 278.574572 216.841233 
L 281.219146 216.417891 
L 283.863721 215.994549 
L 286.508296 215.571207 
L 289.152871 215.147865 
L 291.797446 214.724524 
L 294.442021 214.301182 
L 297.086596 213.87784 
L 299.73117 213.454498 
L 302.375745 213.031156 
L 305.02032 212.607814 
L 307.664895 212.184472 
L 310.30947 211.76113 
L 312.954045 211.337788 
L 315.59862 210.914447 
L 318.243195 210.491105 
L 320.887769 210.067763 
L 323.532344 209.644421 
L 326.176919 209.221079 
L 328.821494 208.797737 
L 331.466069 208.374395 
L 334.110644 207.951053 
L 336.755219 207.527711 
L 339.399793 207.10437 
" style="fill:none;stroke:#f77189;stroke-linecap:round;stroke-width:2.25;"/>
   </g>
   <g id="line2d_2">
    <path clip-path="url(#p1db3d2ad11)" d="M 77.586882 295.117688 
L 80.231457 295.040915 
L 82.876032 294.964142 
L 85.520606 294.887369 
L 88.165181 294.810595 
L 90.809756 294.733822 
L 93.454331 294.657049 
L 96.098906 294.580276 
L 98.743481 294.503503 
L 101.388056 294.426729 
L 104.032631 294.349956 
L 106.677205 294.273183 
L 109.32178 294.19641 
L 111.966355 294.119637 
L 114.61093 294.042863 
L 117.255505 293.96609 
L 119.90008 293.889317 
L 122.544655 293.812544 
L 125.189229 293.735771 
L 127.833804 293.658997 
L 130.478379 293.582224 
L 133.122954 293.505451 
L 135.767529 293.428678 
L 138.412104 293.351905 
L 141.056679 293.275132 
L 143.701253 293.198358 
L 146.345828 293.121585 
L 148.990403 293.044812 
L 151.634978 292.968039 
L 154.279553 292.891266 
L 156.924128 292.814492 
L 159.568703 292.737719 
L 162.213278 292.660946 
L 164.857852 292.584173 
L 167.502427 292.5074 
L 170.147002 292.430626 
L 172.791577 292.353853 
L 175.436152 292.27708 
L 178.080727 292.200307 
L 180.725302 292.123534 
L 183.369876 292.046761 
L 186.014451 291.969987 
L 188.659026 291.893214 
L 191.303601 291.816441 
L 193.948176 291.739668 
L 196.592751 291.662895 
L 199.237326 291.586121 
L 201.881901 291.509348 
L 204.526475 291.432575 
L 207.17105 291.355802 
L 209.815625 291.279029 
L 212.4602 291.202255 
L 215.104775 291.125482 
L 217.74935 291.048709 
L 220.393925 290.971936 
L 223.038499 290.895163 
L 225.683074 290.818389 
L 228.327649 290.741616 
L 230.972224 290.664843 
L 233.616799 290.58807 
L 236.261374 290.511297 
L 238.905949 290.434524 
L 241.550523 290.35775 
L 244.195098 290.280977 
L 246.839673 290.204204 
L 249.484248 290.127431 
L 252.128823 290.050658 
L 254.773398 289.973884 
L 257.417973 289.897111 
L 260.062548 289.820338 
L 262.707122 289.743565 
L 265.351697 289.666792 
L 267.996272 289.590018 
L 270.640847 289.513245 
L 273.285422 289.436472 
L 275.929997 289.359699 
L 278.574572 289.282926 
L 281.219146 289.206153 
L 283.863721 289.129379 
L 286.508296 289.052606 
L 289.152871 288.975833 
L 291.797446 288.89906 
L 294.442021 288.822287 
L 297.086596 288.745513 
L 299.73117 288.66874 
L 302.375745 288.591967 
L 305.02032 288.515194 
L 307.664895 288.438421 
L 310.30947 288.361647 
L 312.954045 288.284874 
L 315.59862 288.208101 
L 318.243195 288.131328 
L 320.887769 288.054555 
L 323.532344 287.977781 
L 326.176919 287.901008 
L 328.821494 287.824235 
L 331.466069 287.747462 
L 334.110644 287.670689 
L 336.755219 287.593916 
L 339.399793 287.517142 
" style="fill:none;stroke:#ef7d32;stroke-linecap:round;stroke-width:2.25;"/>
   </g>
   <g id="line2d_3">
    <path clip-path="url(#p1db3d2ad11)" d="M 114.988726 229.603304 
L 117.255505 229.630607 
L 119.522283 229.65791 
L 121.789062 229.685213 
L 124.05584 229.712516 
L 126.322619 229.739819 
L 128.589397 229.767122 
L 130.856176 229.794424 
L 133.122954 229.821727 
L 135.389732 229.84903 
L 137.656511 229.876333 
L 139.923289 229.903636 
L 142.190068 229.930939 
L 144.456846 229.958242 
L 146.723625 229.985545 
L 148.990403 230.012847 
L 151.257182 230.04015 
L 153.52396 230.067453 
L 155.790739 230.094756 
L 158.057517 230.122059 
L 160.324295 230.149362 
L 162.591074 230.176665 
L 164.857852 230.203968 
L 167.124631 230.23127 
L 169.391409 230.258573 
L 171.658188 230.285876 
L 173.924966 230.313179 
L 176.191745 230.340482 
L 178.458523 230.367785 
L 180.725302 230.395088 
L 182.99208 230.422391 
L 185.258859 230.449693 
L 187.525637 230.476996 
L 189.792415 230.504299 
L 192.059194 230.531602 
L 194.325972 230.558905 
L 196.592751 230.586208 
L 198.859529 230.613511 
L 201.126308 230.640814 
L 203.393086 230.668116 
L 205.659865 230.695419 
L 207.926643 230.722722 
L 210.193422 230.750025 
L 212.4602 230.777328 
L 214.726978 230.804631 
L 216.993757 230.831934 
L 219.260535 230.859236 
L 221.527314 230.886539 
L 223.794092 230.913842 
L 226.060871 230.941145 
L 228.327649 230.968448 
L 230.594428 230.995751 
L 232.861206 231.023054 
L 235.127985 231.050357 
L 237.394763 231.077659 
L 239.661541 231.104962 
L 241.92832 231.132265 
L 244.195098 231.159568 
L 246.461877 231.186871 
L 248.728655 231.214174 
L 250.995434 231.241477 
L 253.262212 231.26878 
L 255.528991 231.296082 
L 257.795769 231.323385 
L 260.062548 231.350688 
L 262.329326 231.377991 
L 264.596104 231.405294 
L 266.862883 231.432597 
L 269.129661 231.4599 
L 271.39644 231.487203 
L 273.663218 231.514505 
L 275.929997 231.541808 
L 278.196775 231.569111 
L 280.463554 231.596414 
L 282.730332 231.623717 
L 284.997111 231.65102 
L 287.263889 231.678323 
L 289.530667 231.705626 
L 291.797446 231.732928 
L 294.064224 231.760231 
L 296.331003 231.787534 
L 298.597781 231.814837 
L 300.86456 231.84214 
L 303.131338 231.869443 
L 305.398117 231.896746 
L 307.664895 231.924049 
L 309.931674 231.951351 
L 312.198452 231.978654 
L 314.46523 232.005957 
L 316.732009 232.03326 
L 318.998787 232.060563 
L 321.265566 232.087866 
L 323.532344 232.115169 
L 325.799123 232.142472 
L 328.065901 232.169774 
L 330.33268 232.197077 
L 332.599458 232.22438 
L 334.866237 232.251683 
L 337.133015 232.278986 
L 339.399793 232.306289 
" style="fill:none;stroke:#c69432;stroke-linecap:round;stroke-width:2.25;"/>
   </g>
   <g id="line2d_4">
    <path clip-path="url(#p1db3d2ad11)" d="M 77.586882 254.002012 
L 80.231457 254.134578 
L 82.876032 254.267143 
L 85.520606 254.399709 
L 88.165181 254.532274 
L 90.809756 254.66484 
L 93.454331 254.797405 
L 96.098906 254.92997 
L 98.743481 255.062536 
L 101.388056 255.195101 
L 104.032631 255.327667 
L 106.677205 255.460232 
L 109.32178 255.592798 
L 111.966355 255.725363 
L 114.61093 255.857929 
L 117.255505 255.990494 
L 119.90008 256.123059 
L 122.544655 256.255625 
L 125.189229 256.38819 
L 127.833804 256.520756 
L 130.478379 256.653321 
L 133.122954 256.785887 
L 135.767529 256.918452 
L 138.412104 257.051018 
L 141.056679 257.183583 
L 143.701253 257.316149 
L 146.345828 257.448714 
L 148.990403 257.581279 
L 151.634978 257.713845 
L 154.279553 257.84641 
L 156.924128 257.978976 
L 159.568703 258.111541 
L 162.213278 258.244107 
L 164.857852 258.376672 
L 167.502427 258.509238 
L 170.147002 258.641803 
L 172.791577 258.774369 
L 175.436152 258.906934 
L 178.080727 259.039499 
L 180.725302 259.172065 
L 183.369876 259.30463 
L 186.014451 259.437196 
L 188.659026 259.569761 
L 191.303601 259.702327 
L 193.948176 259.834892 
L 196.592751 259.967458 
L 199.237326 260.100023 
L 201.881901 260.232588 
L 204.526475 260.365154 
L 207.17105 260.497719 
L 209.815625 260.630285 
L 212.4602 260.76285 
L 215.104775 260.895416 
L 217.74935 261.027981 
L 220.393925 261.160547 
L 223.038499 261.293112 
L 225.683074 261.425678 
L 228.327649 261.558243 
L 230.972224 261.690808 
L 233.616799 261.823374 
L 236.261374 261.955939 
L 238.905949 262.088505 
L 241.550523 262.22107 
L 244.195098 262.353636 
L 246.839673 262.486201 
L 249.484248 262.618767 
L 252.128823 262.751332 
L 254.773398 262.883898 
L 257.417973 263.016463 
L 260.062548 263.149028 
L 262.707122 263.281594 
L 265.351697 263.414159 
L 267.996272 263.546725 
L 270.640847 263.67929 
L 273.285422 263.811856 
L 275.929997 263.944421 
L 278.574572 264.076987 
L 281.219146 264.209552 
L 283.863721 264.342117 
L 286.508296 264.474683 
L 289.152871 264.607248 
L 291.797446 264.739814 
L 294.442021 264.872379 
L 297.086596 265.004945 
L 299.73117 265.13751 
L 302.375745 265.270076 
L 305.02032 265.402641 
L 307.664895 265.535207 
L 310.30947 265.667772 
L 312.954045 265.800337 
L 315.59862 265.932903 
L 318.243195 266.065468 
L 320.887769 266.198034 
L 323.532344 266.330599 
L 326.176919 266.463165 
L 328.821494 266.59573 
L 331.466069 266.728296 
L 334.110644 266.860861 
L 336.755219 266.993427 
L 339.399793 267.125992 
" style="fill:none;stroke:#a79f31;stroke-linecap:round;stroke-width:2.25;"/>
   </g>
   <g id="line2d_5">
    <path clip-path="url(#p1db3d2ad11)" d="M 77.586882 283.05156 
L 80.231457 282.888039 
L 82.876032 282.724519 
L 85.520606 282.560998 
L 88.165181 282.397478 
L 90.809756 282.233957 
L 93.454331 282.070437 
L 96.098906 281.906917 
L 98.743481 281.743396 
L 101.388056 281.579876 
L 104.032631 281.416355 
L 106.677205 281.252835 
L 109.32178 281.089314 
L 111.966355 280.925794 
L 114.61093 280.762273 
L 117.255505 280.598753 
L 119.90008 280.435232 
L 122.544655 280.271712 
L 125.189229 280.108192 
L 127.833804 279.944671 
L 130.478379 279.781151 
L 133.122954 279.61763 
L 135.767529 279.45411 
L 138.412104 279.290589 
L 141.056679 279.127069 
L 143.701253 278.963548 
L 146.345828 278.800028 
L 148.990403 278.636507 
L 151.634978 278.472987 
L 154.279553 278.309467 
L 156.924128 278.145946 
L 159.568703 277.982426 
L 162.213278 277.818905 
L 164.857852 277.655385 
L 167.502427 277.491864 
L 170.147002 277.328344 
L 172.791577 277.164823 
L 175.436152 277.001303 
L 178.080727 276.837782 
L 180.725302 276.674262 
L 183.369876 276.510742 
L 186.014451 276.347221 
L 188.659026 276.183701 
L 191.303601 276.02018 
L 193.948176 275.85666 
L 196.592751 275.693139 
L 199.237326 275.529619 
L 201.881901 275.366098 
L 204.526475 275.202578 
L 207.17105 275.039057 
L 209.815625 274.875537 
L 212.4602 274.712017 
L 215.104775 274.548496 
L 217.74935 274.384976 
L 220.393925 274.221455 
L 223.038499 274.057935 
L 225.683074 273.894414 
L 228.327649 273.730894 
L 230.972224 273.567373 
L 233.616799 273.403853 
L 236.261374 273.240332 
L 238.905949 273.076812 
L 241.550523 272.913292 
L 244.195098 272.749771 
L 246.839673 272.586251 
L 249.484248 272.42273 
L 252.128823 272.25921 
L 254.773398 272.095689 
L 257.417973 271.932169 
L 260.062548 271.768648 
L 262.707122 271.605128 
L 265.351697 271.441607 
L 267.996272 271.278087 
L 270.640847 271.114567 
L 273.285422 270.951046 
L 275.929997 270.787526 
L 278.574572 270.624005 
L 281.219146 270.460485 
L 283.863721 270.296964 
L 286.508296 270.133444 
L 289.152871 269.969923 
L 291.797446 269.806403 
L 294.442021 269.642882 
L 297.086596 269.479362 
L 299.73117 269.315842 
L 302.375745 269.152321 
L 305.02032 268.988801 
L 307.664895 268.82528 
L 310.30947 268.66176 
L 312.954045 268.498239 
L 315.59862 268.334719 
L 318.243195 268.171198 
L 320.887769 268.007678 
L 323.532344 267.844157 
L 326.176919 267.680637 
L 328.821494 267.517117 
L 331.466069 267.353596 
L 334.110644 267.190076 
L 336.755219 267.026555 
L 339.399793 266.863035 
" style="fill:none;stroke:#82a931;stroke-linecap:round;stroke-width:2.25;"/>
   </g>
   <g id="line2d_6">
    <path clip-path="url(#p1db3d2ad11)" d="M 114.988726 281.253939 
L 117.255505 281.255654 
L 119.522283 281.257369 
L 121.789062 281.259084 
L 124.05584 281.260799 
L 126.322619 281.262514 
L 128.589397 281.264229 
L 130.856176 281.265944 
L 133.122954 281.267659 
L 135.389732 281.269374 
L 137.656511 281.271089 
L 139.923289 281.272804 
L 142.190068 281.274519 
L 144.456846 281.276234 
L 146.723625 281.277949 
L 148.990403 281.279664 
L 151.257182 281.281379 
L 153.52396 281.283094 
L 155.790739 281.284809 
L 158.057517 281.286524 
L 160.324295 281.288239 
L 162.591074 281.289954 
L 164.857852 281.291669 
L 167.124631 281.293384 
L 169.391409 281.295099 
L 171.658188 281.296814 
L 173.924966 281.298529 
L 176.191745 281.300244 
L 178.458523 281.301959 
L 180.725302 281.303674 
L 182.99208 281.305389 
L 185.258859 281.307105 
L 187.525637 281.30882 
L 189.792415 281.310535 
L 192.059194 281.31225 
L 194.325972 281.313965 
L 196.592751 281.31568 
L 198.859529 281.317395 
L 201.126308 281.31911 
L 203.393086 281.320825 
L 205.659865 281.32254 
L 207.926643 281.324255 
L 210.193422 281.32597 
L 212.4602 281.327685 
L 214.726978 281.3294 
L 216.993757 281.331115 
L 219.260535 281.33283 
L 221.527314 281.334545 
L 223.794092 281.33626 
L 226.060871 281.337975 
L 228.327649 281.33969 
L 230.594428 281.341405 
L 232.861206 281.34312 
L 235.127985 281.344835 
L 237.394763 281.34655 
L 239.661541 281.348265 
L 241.92832 281.34998 
L 244.195098 281.351695 
L 246.461877 281.35341 
L 248.728655 281.355125 
L 250.995434 281.35684 
L 253.262212 281.358555 
L 255.528991 281.36027 
L 257.795769 281.361985 
L 260.062548 281.3637 
L 262.329326 281.365415 
L 264.596104 281.36713 
L 266.862883 281.368845 
L 269.129661 281.37056 
L 271.39644 281.372275 
L 273.663218 281.37399 
L 275.929997 281.375705 
L 278.196775 281.37742 
L 280.463554 281.379135 
L 282.730332 281.38085 
L 284.997111 281.382565 
L 287.263889 281.38428 
L 289.530667 281.385995 
L 291.797446 281.38771 
L 294.064224 281.389425 
L 296.331003 281.39114 
L 298.597781 281.392856 
L 300.86456 281.394571 
L 303.131338 281.396286 
L 305.398117 281.398001 
L 307.664895 281.399716 
L 309.931674 281.401431 
L 312.198452 281.403146 
L 314.46523 281.404861 
L 316.732009 281.406576 
L 318.998787 281.408291 
L 321.265566 281.410006 
L 323.532344 281.411721 
L 325.799123 281.413436 
L 328.065901 281.415151 
L 330.33268 281.416866 
L 332.599458 281.418581 
L 334.866237 281.420296 
L 337.133015 281.422011 
L 339.399793 281.423726 
" style="fill:none;stroke:#32b24e;stroke-linecap:round;stroke-width:2.25;"/>
   </g>
   <g id="line2d_7">
    <path clip-path="url(#p1db3d2ad11)" d="M 77.586882 269.499378 
L 80.231457 269.611383 
L 82.876032 269.723389 
L 85.520606 269.835394 
L 88.165181 269.9474 
L 90.809756 270.059406 
L 93.454331 270.171411 
L 96.098906 270.283417 
L 98.743481 270.395422 
L 101.388056 270.507428 
L 104.032631 270.619434 
L 106.677205 270.731439 
L 109.32178 270.843445 
L 111.966355 270.95545 
L 114.61093 271.067456 
L 117.255505 271.179462 
L 119.90008 271.291467 
L 122.544655 271.403473 
L 125.189229 271.515478 
L 127.833804 271.627484 
L 130.478379 271.73949 
L 133.122954 271.851495 
L 135.767529 271.963501 
L 138.412104 272.075506 
L 141.056679 272.187512 
L 143.701253 272.299517 
L 146.345828 272.411523 
L 148.990403 272.523529 
L 151.634978 272.635534 
L 154.279553 272.74754 
L 156.924128 272.859545 
L 159.568703 272.971551 
L 162.213278 273.083557 
L 164.857852 273.195562 
L 167.502427 273.307568 
L 170.147002 273.419573 
L 172.791577 273.531579 
L 175.436152 273.643585 
L 178.080727 273.75559 
L 180.725302 273.867596 
L 183.369876 273.979601 
L 186.014451 274.091607 
L 188.659026 274.203613 
L 191.303601 274.315618 
L 193.948176 274.427624 
L 196.592751 274.539629 
L 199.237326 274.651635 
L 201.881901 274.763641 
L 204.526475 274.875646 
L 207.17105 274.987652 
L 209.815625 275.099657 
L 212.4602 275.211663 
L 215.104775 275.323668 
L 217.74935 275.435674 
L 220.393925 275.54768 
L 223.038499 275.659685 
L 225.683074 275.771691 
L 228.327649 275.883696 
L 230.972224 275.995702 
L 233.616799 276.107708 
L 236.261374 276.219713 
L 238.905949 276.331719 
L 241.550523 276.443724 
L 244.195098 276.55573 
L 246.839673 276.667736 
L 249.484248 276.779741 
L 252.128823 276.891747 
L 254.773398 277.003752 
L 257.417973 277.115758 
L 260.062548 277.227764 
L 262.707122 277.339769 
L 265.351697 277.451775 
L 267.996272 277.56378 
L 270.640847 277.675786 
L 273.285422 277.787791 
L 275.929997 277.899797 
L 278.574572 278.011803 
L 281.219146 278.123808 
L 283.863721 278.235814 
L 286.508296 278.347819 
L 289.152871 278.459825 
L 291.797446 278.571831 
L 294.442021 278.683836 
L 297.086596 278.795842 
L 299.73117 278.907847 
L 302.375745 279.019853 
L 305.02032 279.131859 
L 307.664895 279.243864 
L 310.30947 279.35587 
L 312.954045 279.467875 
L 315.59862 279.579881 
L 318.243195 279.691887 
L 320.887769 279.803892 
L 323.532344 279.915898 
L 326.176919 280.027903 
L 328.821494 280.139909 
L 331.466069 280.251914 
L 334.110644 280.36392 
L 336.755219 280.475926 
L 339.399793 280.587931 
" style="fill:none;stroke:#34af8a;stroke-linecap:round;stroke-width:2.25;"/>
   </g>
   <g id="line2d_8">
    <path clip-path="url(#p1db3d2ad11)" d="M 114.988726 299.374007 
L 117.255505 296.810298 
L 119.522283 294.246589 
L 121.789062 291.68288 
L 124.05584 289.119171 
L 126.322619 286.555462 
L 128.589397 283.991753 
L 130.856176 281.428044 
L 133.122954 278.864335 
L 135.389732 276.300626 
L 137.656511 273.736917 
L 139.923289 271.173208 
L 142.190068 268.609499 
L 144.456846 266.04579 
L 146.723625 263.482081 
L 148.990403 260.918372 
L 151.257182 258.354663 
L 153.52396 255.790954 
L 155.790739 253.227245 
L 158.057517 250.663536 
L 160.324295 248.099827 
L 162.591074 245.536118 
L 164.857852 242.972409 
L 167.124631 240.4087 
L 169.391409 237.844991 
L 171.658188 235.281282 
L 173.924966 232.717573 
L 176.191745 230.153864 
L 178.458523 227.590155 
L 180.725302 225.026446 
L 182.99208 222.462737 
L 185.258859 219.899027 
L 187.525637 217.335318 
L 189.792415 214.771609 
L 192.059194 212.2079 
L 194.325972 209.644191 
L 196.592751 207.080482 
L 198.859529 204.516773 
L 201.126308 201.953064 
L 203.393086 199.389355 
L 205.659865 196.825646 
L 207.926643 194.261937 
L 210.193422 191.698228 
L 212.4602 189.134519 
L 214.726978 186.57081 
L 216.993757 184.007101 
L 219.260535 181.443392 
L 221.527314 178.879683 
L 223.794092 176.315974 
L 226.060871 173.752265 
L 228.327649 171.188556 
L 230.594428 168.624847 
L 232.861206 166.061138 
L 235.127985 163.497429 
L 237.394763 160.93372 
L 239.661541 158.370011 
L 241.92832 155.806302 
L 244.195098 153.242593 
L 246.461877 150.678884 
L 248.728655 148.115175 
L 250.995434 145.551466 
L 253.262212 142.987757 
L 255.528991 140.424048 
L 257.795769 137.860339 
L 260.062548 135.29663 
L 262.329326 132.732921 
L 264.596104 130.169212 
L 266.862883 127.605503 
L 269.129661 125.041794 
L 271.39644 122.478085 
L 273.663218 119.914376 
L 275.929997 117.350667 
L 278.196775 114.786958 
L 280.463554 112.223249 
L 282.730332 109.65954 
L 284.997111 107.095831 
L 287.263889 104.532122 
L 289.530667 101.968413 
L 291.797446 99.404704 
L 294.064224 96.840995 
L 296.331003 94.277286 
L 298.597781 91.713577 
L 300.86456 89.149868 
L 303.131338 86.586158 
L 305.398117 84.022449 
L 307.664895 81.45874 
L 309.931674 78.895031 
L 312.198452 76.331322 
L 314.46523 73.767613 
L 316.732009 71.203904 
L 318.998787 68.640195 
L 321.265566 66.076486 
L 323.532344 63.512777 
L 325.799123 60.949068 
L 328.065901 58.385359 
L 330.33268 55.82165 
L 332.599458 53.257941 
L 334.866237 50.694232 
L 337.133015 48.130523 
L 339.399793 45.566814 
" style="fill:none;stroke:#36ada4;stroke-linecap:round;stroke-width:2.25;"/>
   </g>
   <g id="line2d_9">
    <path clip-path="url(#p1db3d2ad11)" d="M 77.586882 217.487886 
L 79.85366 217.196461 
L 82.120439 216.905036 
L 84.387217 216.613611 
L 86.653996 216.322186 
L 88.920774 216.030761 
L 91.187553 215.739336 
L 93.454331 215.447911 
L 95.72111 215.156486 
L 97.987888 214.865061 
L 100.254666 214.573636 
L 102.521445 214.282211 
L 104.788223 213.990786 
L 107.055002 213.699361 
L 109.32178 213.407936 
L 111.588559 213.116511 
L 113.855337 212.825086 
L 116.122116 212.533662 
L 118.388894 212.242237 
L 120.655673 211.950812 
L 122.922451 211.659387 
L 125.189229 211.367962 
L 127.456008 211.076537 
L 129.722786 210.785112 
L 131.989565 210.493687 
L 134.256343 210.202262 
L 136.523122 209.910837 
L 138.7899 209.619412 
L 141.056679 209.327987 
L 143.323457 209.036562 
L 145.590236 208.745137 
L 147.857014 208.453712 
L 150.123792 208.162287 
L 152.390571 207.870862 
L 154.657349 207.579437 
L 156.924128 207.288012 
L 159.190906 206.996587 
L 161.457685 206.705163 
L 163.724463 206.413738 
L 165.991242 206.122313 
L 168.25802 205.830888 
L 170.524799 205.539463 
L 172.791577 205.248038 
L 175.058355 204.956613 
L 177.325134 204.665188 
L 179.591912 204.373763 
L 181.858691 204.082338 
L 184.125469 203.790913 
L 186.392248 203.499488 
L 188.659026 203.208063 
L 190.925805 202.916638 
L 193.192583 202.625213 
L 195.459362 202.333788 
L 197.72614 202.042363 
L 199.992918 201.750938 
L 202.259697 201.459513 
L 204.526475 201.168088 
L 206.793254 200.876663 
L 209.060032 200.585239 
L 211.326811 200.293814 
L 213.593589 200.002389 
L 215.860368 199.710964 
L 218.127146 199.419539 
L 220.393925 199.128114 
L 222.660703 198.836689 
L 224.927481 198.545264 
L 227.19426 198.253839 
L 229.461038 197.962414 
L 231.727817 197.670989 
L 233.994595 197.379564 
L 236.261374 197.088139 
L 238.528152 196.796714 
L 240.794931 196.505289 
L 243.061709 196.213864 
L 245.328488 195.922439 
L 247.595266 195.631014 
L 249.862044 195.339589 
L 252.128823 195.048164 
L 254.395601 194.75674 
L 256.66238 194.465315 
L 258.929158 194.17389 
L 261.195937 193.882465 
L 263.462715 193.59104 
L 265.729494 193.299615 
L 267.996272 193.00819 
L 270.263051 192.716765 
L 272.529829 192.42534 
L 274.796607 192.133915 
L 277.063386 191.84249 
L 279.330164 191.551065 
L 281.596943 191.25964 
L 283.863721 190.968215 
L 286.1305 190.67679 
L 288.397278 190.385365 
L 290.664057 190.09394 
L 292.930835 189.802515 
L 295.197614 189.51109 
L 297.464392 189.219665 
L 299.73117 188.92824 
L 301.997949 188.636816 
" style="fill:none;stroke:#37aabb;stroke-linecap:round;stroke-width:2.25;"/>
   </g>
   <g id="line2d_10">
    <path clip-path="url(#p1db3d2ad11)" d="M 77.586882 306.295455 
L 80.231457 305.309509 
L 82.876032 304.323563 
L 85.520606 303.337617 
L 88.165181 302.351671 
L 90.809756 301.365725 
L 93.454331 300.379779 
L 96.098906 299.393833 
L 98.743481 298.407887 
L 101.388056 297.421941 
L 104.032631 296.435995 
L 106.677205 295.450049 
L 109.32178 294.464103 
L 111.966355 293.478157 
L 114.61093 292.492211 
L 117.255505 291.506265 
L 119.90008 290.520319 
L 122.544655 289.534373 
L 125.189229 288.548427 
L 127.833804 287.562481 
L 130.478379 286.576535 
L 133.122954 285.590589 
L 135.767529 284.604643 
L 138.412104 283.618698 
L 141.056679 282.632752 
L 143.701253 281.646806 
L 146.345828 280.66086 
L 148.990403 279.674914 
L 151.634978 278.688968 
L 154.279553 277.703022 
L 156.924128 276.717076 
L 159.568703 275.73113 
L 162.213278 274.745184 
L 164.857852 273.759238 
L 167.502427 272.773292 
L 170.147002 271.787346 
L 172.791577 270.8014 
L 175.436152 269.815454 
L 178.080727 268.829508 
L 180.725302 267.843562 
L 183.369876 266.857616 
L 186.014451 265.87167 
L 188.659026 264.885724 
L 191.303601 263.899778 
L 193.948176 262.913832 
L 196.592751 261.927886 
L 199.237326 260.94194 
L 201.881901 259.955995 
L 204.526475 258.970049 
L 207.17105 257.984103 
L 209.815625 256.998157 
L 212.4602 256.012211 
L 215.104775 255.026265 
L 217.74935 254.040319 
L 220.393925 253.054373 
L 223.038499 252.068427 
L 225.683074 251.082481 
L 228.327649 250.096535 
L 230.972224 249.110589 
L 233.616799 248.124643 
L 236.261374 247.138697 
L 238.905949 246.152751 
L 241.550523 245.166805 
L 244.195098 244.180859 
L 246.839673 243.194913 
L 249.484248 242.208967 
L 252.128823 241.223021 
L 254.773398 240.237075 
L 257.417973 239.251129 
L 260.062548 238.265183 
L 262.707122 237.279238 
L 265.351697 236.293292 
L 267.996272 235.307346 
L 270.640847 234.3214 
L 273.285422 233.335454 
L 275.929997 232.349508 
L 278.574572 231.363562 
L 281.219146 230.377616 
L 283.863721 229.39167 
L 286.508296 228.405724 
L 289.152871 227.419778 
L 291.797446 226.433832 
L 294.442021 225.447886 
L 297.086596 224.46194 
L 299.73117 223.475994 
L 302.375745 222.490048 
L 305.02032 221.504102 
L 307.664895 220.518156 
L 310.30947 219.53221 
L 312.954045 218.546264 
L 315.59862 217.560318 
L 318.243195 216.574372 
L 320.887769 215.588426 
L 323.532344 214.60248 
L 326.176919 213.616535 
L 328.821494 212.630589 
L 331.466069 211.644643 
L 334.110644 210.658697 
L 336.755219 209.672751 
L 339.399793 208.686805 
" style="fill:none;stroke:#3aa6da;stroke-linecap:round;stroke-width:2.25;"/>
   </g>
   <g id="line2d_11">
    <path clip-path="url(#p1db3d2ad11)" d="M 77.586882 268.727585 
L 80.231457 268.871176 
L 82.876032 269.014768 
L 85.520606 269.158359 
L 88.165181 269.301951 
L 90.809756 269.445542 
L 93.454331 269.589134 
L 96.098906 269.732726 
L 98.743481 269.876317 
L 101.388056 270.019909 
L 104.032631 270.1635 
L 106.677205 270.307092 
L 109.32178 270.450683 
L 111.966355 270.594275 
L 114.61093 270.737866 
L 117.255505 270.881458 
L 119.90008 271.025049 
L 122.544655 271.168641 
L 125.189229 271.312232 
L 127.833804 271.455824 
L 130.478379 271.599415 
L 133.122954 271.743007 
L 135.767529 271.886598 
L 138.412104 272.03019 
L 141.056679 272.173781 
L 143.701253 272.317373 
L 146.345828 272.460965 
L 148.990403 272.604556 
L 151.634978 272.748148 
L 154.279553 272.891739 
L 156.924128 273.035331 
L 159.568703 273.178922 
L 162.213278 273.322514 
L 164.857852 273.466105 
L 167.502427 273.609697 
L 170.147002 273.753288 
L 172.791577 273.89688 
L 175.436152 274.040471 
L 178.080727 274.184063 
L 180.725302 274.327654 
L 183.369876 274.471246 
L 186.014451 274.614837 
L 188.659026 274.758429 
L 191.303601 274.90202 
L 193.948176 275.045612 
L 196.592751 275.189204 
L 199.237326 275.332795 
L 201.881901 275.476387 
L 204.526475 275.619978 
L 207.17105 275.76357 
L 209.815625 275.907161 
L 212.4602 276.050753 
L 215.104775 276.194344 
L 217.74935 276.337936 
L 220.393925 276.481527 
L 223.038499 276.625119 
L 225.683074 276.76871 
L 228.327649 276.912302 
L 230.972224 277.055893 
L 233.616799 277.199485 
L 236.261374 277.343076 
L 238.905949 277.486668 
L 241.550523 277.630259 
L 244.195098 277.773851 
L 246.839673 277.917442 
L 249.484248 278.061034 
L 252.128823 278.204626 
L 254.773398 278.348217 
L 257.417973 278.491809 
L 260.062548 278.6354 
L 262.707122 278.778992 
L 265.351697 278.922583 
L 267.996272 279.066175 
L 270.640847 279.209766 
L 273.285422 279.353358 
L 275.929997 279.496949 
L 278.574572 279.640541 
L 281.219146 279.784132 
L 283.863721 279.927724 
L 286.508296 280.071315 
L 289.152871 280.214907 
L 291.797446 280.358498 
L 294.442021 280.50209 
L 297.086596 280.645681 
L 299.73117 280.789273 
L 302.375745 280.932865 
L 305.02032 281.076456 
L 307.664895 281.220048 
L 310.30947 281.363639 
L 312.954045 281.507231 
L 315.59862 281.650822 
L 318.243195 281.794414 
L 320.887769 281.938005 
L 323.532344 282.081597 
L 326.176919 282.225188 
L 328.821494 282.36878 
L 331.466069 282.512371 
L 334.110644 282.655963 
L 336.755219 282.799554 
L 339.399793 282.943146 
" style="fill:none;stroke:#8197f4;stroke-linecap:round;stroke-width:2.25;"/>
   </g>
   <g id="line2d_12">
    <path clip-path="url(#p1db3d2ad11)" d="M 114.988726 285.453212 
L 117.255505 285.580112 
L 119.522283 285.707012 
L 121.789062 285.833912 
L 124.05584 285.960812 
L 126.322619 286.087712 
L 128.589397 286.214612 
L 130.856176 286.341512 
L 133.122954 286.468412 
L 135.389732 286.595312 
L 137.656511 286.722212 
L 139.923289 286.849112 
L 142.190068 286.976012 
L 144.456846 287.102912 
L 146.723625 287.229811 
L 148.990403 287.356711 
L 151.257182 287.483611 
L 153.52396 287.610511 
L 155.790739 287.737411 
L 158.057517 287.864311 
L 160.324295 287.991211 
L 162.591074 288.118111 
L 164.857852 288.245011 
L 167.124631 288.371911 
L 169.391409 288.498811 
L 171.658188 288.625711 
L 173.924966 288.752611 
L 176.191745 288.879511 
L 178.458523 289.006411 
L 180.725302 289.133311 
L 182.99208 289.260211 
L 185.258859 289.387111 
L 187.525637 289.514011 
L 189.792415 289.640911 
L 192.059194 289.767811 
L 194.325972 289.894711 
L 196.592751 290.021611 
L 198.859529 290.148511 
L 201.126308 290.275411 
L 203.393086 290.402311 
L 205.659865 290.529211 
L 207.926643 290.656111 
L 210.193422 290.783011 
L 212.4602 290.909911 
L 214.726978 291.036811 
L 216.993757 291.163711 
L 219.260535 291.290611 
L 221.527314 291.417511 
L 223.794092 291.544411 
L 226.060871 291.671311 
L 228.327649 291.798211 
L 230.594428 291.925111 
L 232.861206 292.052011 
L 235.127985 292.178911 
L 237.394763 292.305811 
L 239.661541 292.432711 
L 241.92832 292.559611 
L 244.195098 292.686511 
L 246.461877 292.813411 
L 248.728655 292.940311 
L 250.995434 293.067211 
L 253.262212 293.194111 
L 255.528991 293.321011 
L 257.795769 293.447911 
L 260.062548 293.574811 
L 262.329326 293.701711 
L 264.596104 293.828611 
L 266.862883 293.955511 
L 269.129661 294.082411 
L 271.39644 294.209311 
L 273.663218 294.336211 
L 275.929997 294.463111 
L 278.196775 294.590011 
L 280.463554 294.716911 
L 282.730332 294.843811 
L 284.997111 294.970711 
L 287.263889 295.097611 
L 289.530667 295.224511 
L 291.797446 295.351411 
L 294.064224 295.478311 
L 296.331003 295.605211 
L 298.597781 295.732111 
L 300.86456 295.859011 
L 303.131338 295.985911 
L 305.398117 296.112811 
L 307.664895 296.23971 
L 309.931674 296.36661 
L 312.198452 296.49351 
L 314.46523 296.62041 
L 316.732009 296.74731 
L 318.998787 296.87421 
L 321.265566 297.00111 
L 323.532344 297.12801 
L 325.799123 297.25491 
L 328.065901 297.38181 
L 330.33268 297.50871 
L 332.599458 297.63561 
L 334.866237 297.76251 
L 337.133015 297.88941 
L 339.399793 298.01631 
" style="fill:none;stroke:#c180f4;stroke-linecap:round;stroke-width:2.25;"/>
   </g>
   <g id="line2d_13">
    <path clip-path="url(#p1db3d2ad11)" d="M 77.586882 295.64611 
L 79.85366 295.638419 
L 82.120439 295.630729 
L 84.387217 295.623038 
L 86.653996 295.615348 
L 88.920774 295.607657 
L 91.187553 295.599967 
L 93.454331 295.592276 
L 95.72111 295.584586 
L 97.987888 295.576895 
L 100.254666 295.569205 
L 102.521445 295.561514 
L 104.788223 295.553824 
L 107.055002 295.546133 
L 109.32178 295.538443 
L 111.588559 295.530752 
L 113.855337 295.523062 
L 116.122116 295.515371 
L 118.388894 295.507681 
L 120.655673 295.49999 
L 122.922451 295.4923 
L 125.189229 295.484609 
L 127.456008 295.476919 
L 129.722786 295.469228 
L 131.989565 295.461538 
L 134.256343 295.453847 
L 136.523122 295.446157 
L 138.7899 295.438466 
L 141.056679 295.430776 
L 143.323457 295.423086 
L 145.590236 295.415395 
L 147.857014 295.407705 
L 150.123792 295.400014 
L 152.390571 295.392324 
L 154.657349 295.384633 
L 156.924128 295.376943 
L 159.190906 295.369252 
L 161.457685 295.361562 
L 163.724463 295.353871 
L 165.991242 295.346181 
L 168.25802 295.33849 
L 170.524799 295.3308 
L 172.791577 295.323109 
L 175.058355 295.315419 
L 177.325134 295.307728 
L 179.591912 295.300038 
L 181.858691 295.292347 
L 184.125469 295.284657 
L 186.392248 295.276966 
L 188.659026 295.269276 
L 190.925805 295.261585 
L 193.192583 295.253895 
L 195.459362 295.246204 
L 197.72614 295.238514 
L 199.992918 295.230823 
L 202.259697 295.223133 
L 204.526475 295.215442 
L 206.793254 295.207752 
L 209.060032 295.200061 
L 211.326811 295.192371 
L 213.593589 295.18468 
L 215.860368 295.17699 
L 218.127146 295.169299 
L 220.393925 295.161609 
L 222.660703 295.153918 
L 224.927481 295.146228 
L 227.19426 295.138537 
L 229.461038 295.130847 
L 231.727817 295.123156 
L 233.994595 295.115466 
L 236.261374 295.107776 
L 238.528152 295.100085 
L 240.794931 295.092395 
L 243.061709 295.084704 
L 245.328488 295.077014 
L 247.595266 295.069323 
L 249.862044 295.061633 
L 252.128823 295.053942 
L 254.395601 295.046252 
L 256.66238 295.038561 
L 258.929158 295.030871 
L 261.195937 295.02318 
L 263.462715 295.01549 
L 265.729494 295.007799 
L 267.996272 295.000109 
L 270.263051 294.992418 
L 272.529829 294.984728 
L 274.796607 294.977037 
L 277.063386 294.969347 
L 279.330164 294.961656 
L 281.596943 294.953966 
L 283.863721 294.946275 
L 286.1305 294.938585 
L 288.397278 294.930894 
L 290.664057 294.923204 
L 292.930835 294.915513 
L 295.197614 294.907823 
L 297.464392 294.900132 
L 299.73117 294.892442 
L 301.997949 294.884751 
" style="fill:none;stroke:#f45deb;stroke-linecap:round;stroke-width:2.25;"/>
   </g>
   <g id="line2d_14">
    <path clip-path="url(#p1db3d2ad11)" d="M 77.586882 294.816713 
L 80.231457 294.827657 
L 82.876032 294.838601 
L 85.520606 294.849545 
L 88.165181 294.86049 
L 90.809756 294.871434 
L 93.454331 294.882378 
L 96.098906 294.893322 
L 98.743481 294.904267 
L 101.388056 294.915211 
L 104.032631 294.926155 
L 106.677205 294.937099 
L 109.32178 294.948044 
L 111.966355 294.958988 
L 114.61093 294.969932 
L 117.255505 294.980876 
L 119.90008 294.991821 
L 122.544655 295.002765 
L 125.189229 295.013709 
L 127.833804 295.024653 
L 130.478379 295.035598 
L 133.122954 295.046542 
L 135.767529 295.057486 
L 138.412104 295.06843 
L 141.056679 295.079375 
L 143.701253 295.090319 
L 146.345828 295.101263 
L 148.990403 295.112207 
L 151.634978 295.123152 
L 154.279553 295.134096 
L 156.924128 295.14504 
L 159.568703 295.155984 
L 162.213278 295.166929 
L 164.857852 295.177873 
L 167.502427 295.188817 
L 170.147002 295.199761 
L 172.791577 295.210706 
L 175.436152 295.22165 
L 178.080727 295.232594 
L 180.725302 295.243538 
L 183.369876 295.254483 
L 186.014451 295.265427 
L 188.659026 295.276371 
L 191.303601 295.287315 
L 193.948176 295.29826 
L 196.592751 295.309204 
L 199.237326 295.320148 
L 201.881901 295.331092 
L 204.526475 295.342037 
L 207.17105 295.352981 
L 209.815625 295.363925 
L 212.4602 295.374869 
L 215.104775 295.385814 
L 217.74935 295.396758 
L 220.393925 295.407702 
L 223.038499 295.418646 
L 225.683074 295.429591 
L 228.327649 295.440535 
L 230.972224 295.451479 
L 233.616799 295.462423 
L 236.261374 295.473368 
L 238.905949 295.484312 
L 241.550523 295.495256 
L 244.195098 295.5062 
L 246.839673 295.517145 
L 249.484248 295.528089 
L 252.128823 295.539033 
L 254.773398 295.549977 
L 257.417973 295.560922 
L 260.062548 295.571866 
L 262.707122 295.58281 
L 265.351697 295.593754 
L 267.996272 295.604699 
L 270.640847 295.615643 
L 273.285422 295.626587 
L 275.929997 295.637531 
L 278.574572 295.648476 
L 281.219146 295.65942 
L 283.863721 295.670364 
L 286.508296 295.681308 
L 289.152871 295.692253 
L 291.797446 295.703197 
L 294.442021 295.714141 
L 297.086596 295.725085 
L 299.73117 295.736029 
L 302.375745 295.746974 
L 305.02032 295.757918 
L 307.664895 295.768862 
L 310.30947 295.779806 
L 312.954045 295.790751 
L 315.59862 295.801695 
L 318.243195 295.812639 
L 320.887769 295.823583 
L 323.532344 295.834528 
L 326.176919 295.845472 
L 328.821494 295.856416 
L 331.466069 295.86736 
L 334.110644 295.878305 
L 336.755219 295.889249 
L 339.399793 295.900193 
" style="fill:none;stroke:#f669ba;stroke-linecap:round;stroke-width:2.25;"/>
   </g>
   <g id="patch_3">
    <path d="M 61.367925 320.2 
L 61.367925 14.3 
" style="fill:none;stroke:#262626;stroke-linecap:square;stroke-linejoin:miter;stroke-width:0.8;"/>
   </g>
   <g id="patch_4">
    <path d="M 61.367925 320.2 
L 355.61875 320.2 
" style="fill:none;stroke:#262626;stroke-linecap:square;stroke-linejoin:miter;stroke-width:0.8;"/>
   </g>
   <g id="text_16">
    <!-- r=0.206, p=0.072 -->
    <defs>
     <path d="M 52.828125 42.09375 
L 5.5625 42.09375 
L 5.5625 50.296875 
L 52.828125 50.296875 
z
M 52.828125 20.359375 
L 5.5625 20.359375 
L 5.5625 28.5625 
L 52.828125 28.5625 
z
" id="ArialMT-61"/>
     <path d="M 8.890625 0 
L 8.890625 10.015625 
L 18.890625 10.015625 
L 18.890625 0 
Q 18.890625 -5.515625 16.9375 -8.90625 
Q 14.984375 -12.3125 10.75 -14.15625 
L 8.296875 -10.40625 
Q 11.078125 -9.1875 12.390625 -6.8125 
Q 13.71875 -4.4375 13.875 0 
z
" id="ArialMT-44"/>
    </defs>
    <g style="fill:#262626;" transform="translate(152.390571 104.180501)scale(0.15 -0.15)">
     <use xlink:href="#ArialMT-114"/>
     <use x="33.300781" xlink:href="#ArialMT-61"/>
     <use x="91.699219" xlink:href="#ArialMT-48"/>
     <use x="147.314453" xlink:href="#ArialMT-46"/>
     <use x="175.097656" xlink:href="#ArialMT-50"/>
     <use x="230.712891" xlink:href="#ArialMT-48"/>
     <use x="286.328125" xlink:href="#ArialMT-54"/>
     <use x="341.943359" xlink:href="#ArialMT-44"/>
     <use x="369.726562" xlink:href="#ArialMT-32"/>
     <use x="397.509766" xlink:href="#ArialMT-112"/>
     <use x="453.125" xlink:href="#ArialMT-61"/>
     <use x="511.523438" xlink:href="#ArialMT-48"/>
     <use x="567.138672" xlink:href="#ArialMT-46"/>
     <use x="594.921875" xlink:href="#ArialMT-48"/>
     <use x="650.537109" xlink:href="#ArialMT-55"/>
     <use x="706.152344" xlink:href="#ArialMT-50"/>
    </g>
   </g>
  </g>
  <g id="legend_1">
   <g id="text_17">
    <!-- host_subject_id -->
    <defs>
     <path d="M 6.59375 0 
L 6.59375 71.578125 
L 15.375 71.578125 
L 15.375 45.90625 
Q 21.53125 53.03125 30.90625 53.03125 
Q 36.671875 53.03125 40.921875 50.75 
Q 45.171875 48.484375 47 44.484375 
Q 48.828125 40.484375 48.828125 32.859375 
L 48.828125 0 
L 40.046875 0 
L 40.046875 32.859375 
Q 40.046875 39.453125 37.1875 42.453125 
Q 34.328125 45.453125 29.109375 45.453125 
Q 25.203125 45.453125 21.75 43.421875 
Q 18.3125 41.40625 16.84375 37.9375 
Q 15.375 34.46875 15.375 28.375 
L 15.375 0 
z
" id="ArialMT-104"/>
     <path d="M 25.78125 7.859375 
L 27.046875 0.09375 
Q 23.34375 -0.6875 20.40625 -0.6875 
Q 15.625 -0.6875 12.984375 0.828125 
Q 10.359375 2.34375 9.28125 4.8125 
Q 8.203125 7.28125 8.203125 15.1875 
L 8.203125 45.015625 
L 1.765625 45.015625 
L 1.765625 51.859375 
L 8.203125 51.859375 
L 8.203125 64.703125 
L 16.9375 69.96875 
L 16.9375 51.859375 
L 25.78125 51.859375 
L 25.78125 45.015625 
L 16.9375 45.015625 
L 16.9375 14.703125 
Q 16.9375 10.9375 17.40625 9.859375 
Q 17.875 8.796875 18.921875 8.15625 
Q 19.96875 7.515625 21.921875 7.515625 
Q 23.390625 7.515625 25.78125 7.859375 
z
" id="ArialMT-116"/>
     <path d="M -1.515625 -19.875 
L -1.515625 -13.53125 
L 56.734375 -13.53125 
L 56.734375 -19.875 
z
" id="ArialMT-95"/>
     <path d="M 14.703125 0 
L 6.546875 0 
L 6.546875 71.578125 
L 15.328125 71.578125 
L 15.328125 46.046875 
Q 20.90625 53.03125 29.546875 53.03125 
Q 34.328125 53.03125 38.59375 51.09375 
Q 42.875 49.171875 45.625 45.671875 
Q 48.390625 42.1875 49.953125 37.25 
Q 51.515625 32.328125 51.515625 26.703125 
Q 51.515625 13.375 44.921875 6.09375 
Q 38.328125 -1.171875 29.109375 -1.171875 
Q 19.921875 -1.171875 14.703125 6.5 
z
M 14.59375 26.3125 
Q 14.59375 17 17.140625 12.84375 
Q 21.296875 6.0625 28.375 6.0625 
Q 34.125 6.0625 38.328125 11.0625 
Q 42.53125 16.0625 42.53125 25.984375 
Q 42.53125 36.140625 38.5 40.96875 
Q 34.46875 45.796875 28.765625 45.796875 
Q 23 45.796875 18.796875 40.796875 
Q 14.59375 35.796875 14.59375 26.3125 
z
" id="ArialMT-98"/>
     <path d="M 6.546875 61.375 
L 6.546875 71.578125 
L 15.328125 71.578125 
L 15.328125 61.375 
z
M -4.59375 -20.125 
L -2.9375 -12.640625 
Q -0.296875 -13.328125 1.21875 -13.328125 
Q 3.90625 -13.328125 5.21875 -11.546875 
Q 6.546875 -9.765625 6.546875 -2.640625 
L 6.546875 51.859375 
L 15.328125 51.859375 
L 15.328125 -2.828125 
Q 15.328125 -12.40625 12.84375 -16.15625 
Q 9.671875 -21.046875 2.296875 -21.046875 
Q -1.265625 -21.046875 -4.59375 -20.125 
z
" id="ArialMT-106"/>
     <path d="M 40.4375 19 
L 49.078125 17.875 
Q 47.65625 8.9375 41.8125 3.875 
Q 35.984375 -1.171875 27.484375 -1.171875 
Q 16.84375 -1.171875 10.375 5.78125 
Q 3.90625 12.75 3.90625 25.734375 
Q 3.90625 34.125 6.6875 40.421875 
Q 9.46875 46.734375 15.15625 49.875 
Q 20.84375 53.03125 27.546875 53.03125 
Q 35.984375 53.03125 41.359375 48.75 
Q 46.734375 44.484375 48.25 36.625 
L 39.703125 35.296875 
Q 38.484375 40.53125 35.375 43.15625 
Q 32.28125 45.796875 27.875 45.796875 
Q 21.234375 45.796875 17.078125 41.03125 
Q 12.9375 36.28125 12.9375 25.984375 
Q 12.9375 15.53125 16.9375 10.796875 
Q 20.953125 6.0625 27.390625 6.0625 
Q 32.5625 6.0625 36.03125 9.234375 
Q 39.5 12.40625 40.4375 19 
z
" id="ArialMT-99"/>
    </defs>
    <g style="fill:#262626;" transform="translate(359.6375 83.509375)scale(0.1 -0.1)">
     <use xlink:href="#ArialMT-104"/>
     <use x="55.615234" xlink:href="#ArialMT-111"/>
     <use x="111.230469" xlink:href="#ArialMT-115"/>
     <use x="161.230469" xlink:href="#ArialMT-116"/>
     <use x="189.013672" xlink:href="#ArialMT-95"/>
     <use x="244.628906" xlink:href="#ArialMT-115"/>
     <use x="294.628906" xlink:href="#ArialMT-117"/>
     <use x="350.244141" xlink:href="#ArialMT-98"/>
     <use x="405.859375" xlink:href="#ArialMT-106"/>
     <use x="428.076172" xlink:href="#ArialMT-101"/>
     <use x="483.691406" xlink:href="#ArialMT-99"/>
     <use x="533.691406" xlink:href="#ArialMT-116"/>
     <use x="561.474609" xlink:href="#ArialMT-95"/>
     <use x="617.089844" xlink:href="#ArialMT-105"/>
     <use x="639.306641" xlink:href="#ArialMT-100"/>
    </g>
   </g>
   <g id="PathCollection_15">
    <g>
     <use style="fill:#f77189;fill-opacity:0.8;stroke:#f77189;stroke-opacity:0.8;" x="374.264062" xlink:href="#m7d87bc6224" y="95.146875"/>
    </g>
   </g>
   <g id="text_18">
    <!-- DM001 -->
    <defs>
     <path d="M 7.421875 0 
L 7.421875 71.578125 
L 21.6875 71.578125 
L 38.625 20.90625 
Q 40.96875 13.8125 42.046875 10.296875 
Q 43.265625 14.203125 45.84375 21.78125 
L 62.984375 71.578125 
L 75.734375 71.578125 
L 75.734375 0 
L 66.609375 0 
L 66.609375 59.90625 
L 45.796875 0 
L 37.25 0 
L 16.546875 60.9375 
L 16.546875 0 
z
" id="ArialMT-77"/>
     <path d="M 37.25 0 
L 28.46875 0 
L 28.46875 56 
Q 25.296875 52.984375 20.140625 49.953125 
Q 14.984375 46.921875 10.890625 45.40625 
L 10.890625 53.90625 
Q 18.265625 57.375 23.78125 62.296875 
Q 29.296875 67.234375 31.59375 71.875 
L 37.25 71.875 
z
" id="ArialMT-49"/>
    </defs>
    <g style="fill:#262626;" transform="translate(392.264062 97.771875)scale(0.1 -0.1)">
     <use xlink:href="#ArialMT-68"/>
     <use x="72.216797" xlink:href="#ArialMT-77"/>
     <use x="155.517578" xlink:href="#ArialMT-48"/>
     <use x="211.132812" xlink:href="#ArialMT-48"/>
     <use x="266.748047" xlink:href="#ArialMT-49"/>
    </g>
   </g>
   <g id="PathCollection_16">
    <g>
     <use style="fill:#ef7d32;fill-opacity:0.8;stroke:#ef7d32;stroke-opacity:0.8;" x="374.264062" xlink:href="#m806ff7bcd0" y="109.292188"/>
    </g>
   </g>
   <g id="text_19">
    <!-- DM002 -->
    <g style="fill:#262626;" transform="translate(392.264062 111.917188)scale(0.1 -0.1)">
     <use xlink:href="#ArialMT-68"/>
     <use x="72.216797" xlink:href="#ArialMT-77"/>
     <use x="155.517578" xlink:href="#ArialMT-48"/>
     <use x="211.132812" xlink:href="#ArialMT-48"/>
     <use x="266.748047" xlink:href="#ArialMT-50"/>
    </g>
   </g>
   <g id="PathCollection_17">
    <g>
     <use style="fill:#c69432;fill-opacity:0.8;stroke:#c69432;stroke-opacity:0.8;" x="374.264062" xlink:href="#m8e31014d47" y="123.4375"/>
    </g>
   </g>
   <g id="text_20">
    <!-- DM003 -->
    <g style="fill:#262626;" transform="translate(392.264062 126.0625)scale(0.1 -0.1)">
     <use xlink:href="#ArialMT-68"/>
     <use x="72.216797" xlink:href="#ArialMT-77"/>
     <use x="155.517578" xlink:href="#ArialMT-48"/>
     <use x="211.132812" xlink:href="#ArialMT-48"/>
     <use x="266.748047" xlink:href="#ArialMT-51"/>
    </g>
   </g>
   <g id="PathCollection_18">
    <g>
     <use style="fill:#a79f31;fill-opacity:0.8;stroke:#a79f31;stroke-opacity:0.8;" x="374.264062" xlink:href="#mcbd94caad1" y="137.582813"/>
    </g>
   </g>
   <g id="text_21">
    <!-- DM006 -->
    <g style="fill:#262626;" transform="translate(392.264062 140.207813)scale(0.1 -0.1)">
     <use xlink:href="#ArialMT-68"/>
     <use x="72.216797" xlink:href="#ArialMT-77"/>
     <use x="155.517578" xlink:href="#ArialMT-48"/>
     <use x="211.132812" xlink:href="#ArialMT-48"/>
     <use x="266.748047" xlink:href="#ArialMT-54"/>
    </g>
   </g>
   <g id="PathCollection_19">
    <g>
     <use style="fill:#82a931;fill-opacity:0.8;stroke:#82a931;stroke-opacity:0.8;" x="374.264062" xlink:href="#m64b3c8324c" y="151.728125"/>
    </g>
   </g>
   <g id="text_22">
    <!-- DM008 -->
    <g style="fill:#262626;" transform="translate(392.264062 154.353125)scale(0.1 -0.1)">
     <use xlink:href="#ArialMT-68"/>
     <use x="72.216797" xlink:href="#ArialMT-77"/>
     <use x="155.517578" xlink:href="#ArialMT-48"/>
     <use x="211.132812" xlink:href="#ArialMT-48"/>
     <use x="266.748047" xlink:href="#ArialMT-56"/>
    </g>
   </g>
   <g id="PathCollection_20">
    <g>
     <use style="fill:#32b24e;fill-opacity:0.8;stroke:#32b24e;stroke-opacity:0.8;" x="374.264062" xlink:href="#m228d935381" y="165.873438"/>
    </g>
   </g>
   <g id="text_23">
    <!-- DM009 -->
    <g style="fill:#262626;" transform="translate(392.264062 168.498438)scale(0.1 -0.1)">
     <use xlink:href="#ArialMT-68"/>
     <use x="72.216797" xlink:href="#ArialMT-77"/>
     <use x="155.517578" xlink:href="#ArialMT-48"/>
     <use x="211.132812" xlink:href="#ArialMT-48"/>
     <use x="266.748047" xlink:href="#ArialMT-57"/>
    </g>
   </g>
   <g id="PathCollection_21">
    <g>
     <use style="fill:#34af8a;fill-opacity:0.8;stroke:#34af8a;stroke-opacity:0.8;" x="374.264062" xlink:href="#m772a7693ca" y="180.01875"/>
    </g>
   </g>
   <g id="text_24">
    <!-- DM010 -->
    <g style="fill:#262626;" transform="translate(392.264062 182.64375)scale(0.1 -0.1)">
     <use xlink:href="#ArialMT-68"/>
     <use x="72.216797" xlink:href="#ArialMT-77"/>
     <use x="155.517578" xlink:href="#ArialMT-48"/>
     <use x="211.132812" xlink:href="#ArialMT-49"/>
     <use x="266.748047" xlink:href="#ArialMT-48"/>
    </g>
   </g>
   <g id="PathCollection_22">
    <g>
     <use style="fill:#36ada4;fill-opacity:0.8;stroke:#36ada4;stroke-opacity:0.8;" x="374.264062" xlink:href="#m8e6a811f89" y="194.164063"/>
    </g>
   </g>
   <g id="text_25">
    <!-- DM011 -->
    <g style="fill:#262626;" transform="translate(392.264062 196.789063)scale(0.1 -0.1)">
     <use xlink:href="#ArialMT-68"/>
     <use x="72.216797" xlink:href="#ArialMT-77"/>
     <use x="155.517578" xlink:href="#ArialMT-48"/>
     <use x="211.132812" xlink:href="#ArialMT-49"/>
     <use x="266.638672" xlink:href="#ArialMT-49"/>
    </g>
   </g>
   <g id="PathCollection_23">
    <g>
     <use style="fill:#37aabb;fill-opacity:0.8;stroke:#37aabb;stroke-opacity:0.8;" x="374.264062" xlink:href="#m6da2e8e533" y="208.309375"/>
    </g>
   </g>
   <g id="text_26">
    <!-- DM013 -->
    <g style="fill:#262626;" transform="translate(392.264062 210.934375)scale(0.1 -0.1)">
     <use xlink:href="#ArialMT-68"/>
     <use x="72.216797" xlink:href="#ArialMT-77"/>
     <use x="155.517578" xlink:href="#ArialMT-48"/>
     <use x="211.132812" xlink:href="#ArialMT-49"/>
     <use x="266.748047" xlink:href="#ArialMT-51"/>
    </g>
   </g>
   <g id="PathCollection_24">
    <g>
     <use style="fill:#3aa6da;fill-opacity:0.8;stroke:#3aa6da;stroke-opacity:0.8;" x="374.264062" xlink:href="#m4b73e3b534" y="222.454688"/>
    </g>
   </g>
   <g id="text_27">
    <!-- DM014 -->
    <g style="fill:#262626;" transform="translate(392.264062 225.079688)scale(0.1 -0.1)">
     <use xlink:href="#ArialMT-68"/>
     <use x="72.216797" xlink:href="#ArialMT-77"/>
     <use x="155.517578" xlink:href="#ArialMT-48"/>
     <use x="211.132812" xlink:href="#ArialMT-49"/>
     <use x="266.748047" xlink:href="#ArialMT-52"/>
    </g>
   </g>
   <g id="PathCollection_25">
    <g>
     <use style="fill:#8197f4;fill-opacity:0.8;stroke:#8197f4;stroke-opacity:0.8;" x="374.264062" xlink:href="#m19a74141e5" y="236.6"/>
    </g>
   </g>
   <g id="text_28">
    <!-- DM015 -->
    <g style="fill:#262626;" transform="translate(392.264062 239.225)scale(0.1 -0.1)">
     <use xlink:href="#ArialMT-68"/>
     <use x="72.216797" xlink:href="#ArialMT-77"/>
     <use x="155.517578" xlink:href="#ArialMT-48"/>
     <use x="211.132812" xlink:href="#ArialMT-49"/>
     <use x="266.748047" xlink:href="#ArialMT-53"/>
    </g>
   </g>
   <g id="PathCollection_26">
    <g>
     <use style="fill:#c180f4;fill-opacity:0.8;stroke:#c180f4;stroke-opacity:0.8;" x="374.264062" xlink:href="#m48ef914c4d" y="250.745313"/>
    </g>
   </g>
   <g id="text_29">
    <!-- DM016 -->
    <g style="fill:#262626;" transform="translate(392.264062 253.370313)scale(0.1 -0.1)">
     <use xlink:href="#ArialMT-68"/>
     <use x="72.216797" xlink:href="#ArialMT-77"/>
     <use x="155.517578" xlink:href="#ArialMT-48"/>
     <use x="211.132812" xlink:href="#ArialMT-49"/>
     <use x="266.748047" xlink:href="#ArialMT-54"/>
    </g>
   </g>
   <g id="PathCollection_27">
    <g>
     <use style="fill:#f45deb;fill-opacity:0.8;stroke:#f45deb;stroke-opacity:0.8;" x="374.264062" xlink:href="#m8bbdfbe2af" y="264.890625"/>
    </g>
   </g>
   <g id="text_30">
    <!-- DM017 -->
    <g style="fill:#262626;" transform="translate(392.264062 267.515625)scale(0.1 -0.1)">
     <use xlink:href="#ArialMT-68"/>
     <use x="72.216797" xlink:href="#ArialMT-77"/>
     <use x="155.517578" xlink:href="#ArialMT-48"/>
     <use x="211.132812" xlink:href="#ArialMT-49"/>
     <use x="266.748047" xlink:href="#ArialMT-55"/>
    </g>
   </g>
   <g id="PathCollection_28">
    <g>
     <use style="fill:#f669ba;fill-opacity:0.8;stroke:#f669ba;stroke-opacity:0.8;" x="374.264062" xlink:href="#mec24bd3251" y="279.035937"/>
    </g>
   </g>
   <g id="text_31">
    <!-- DM018 -->
    <g style="fill:#262626;" transform="translate(392.264062 281.660937)scale(0.1 -0.1)">
     <use xlink:href="#ArialMT-68"/>
     <use x="72.216797" xlink:href="#ArialMT-77"/>
     <use x="155.517578" xlink:href="#ArialMT-48"/>
     <use x="211.132812" xlink:href="#ArialMT-49"/>
     <use x="266.748047" xlink:href="#ArialMT-56"/>
    </g>
   </g>
  </g>
 </g>
 <defs>
  <clipPath id="p1db3d2ad11">
   <rect height="305.9" width="294.250825" x="61.367925" y="14.3"/>
  </clipPath>
 </defs>
</svg>
