<?xml version="1.0" encoding="utf-8" standalone="no"?>
<!DOCTYPE svg PUBLIC "-//W3C//DTD SVG 1.1//EN"
  "http://www.w3.org/Graphics/SVG/1.1/DTD/svg11.dtd">
<!-- Created with matplotlib (https://matplotlib.org/) -->
<svg height="360pt" version="1.1" viewBox="0 0 438.125 360" width="438.125pt" xmlns="http://www.w3.org/2000/svg" xmlns:xlink="http://www.w3.org/1999/xlink">
 <defs>
  <style type="text/css">
*{stroke-linecap:butt;stroke-linejoin:round;}
  </style>
 </defs>
 <g id="figure_1">
  <g id="patch_1">
   <path d="M 0 360 
L 438.125 360 
L 438.125 0 
L 0 0 
z
" style="fill:#ffffff;"/>
  </g>
  <g id="axes_1">
   <g id="patch_2">
    <path d="M 54.522222 320.2 
L 355.61875 320.2 
L 355.61875 14.3 
L 54.522222 14.3 
z
" style="fill:#ffffff;"/>
   </g>
   <g id="matplotlib.axis_1">
    <g id="xtick_1">
     <g id="text_1">
      <!-- 2 -->
      <defs>
       <path d="M 50.34375 8.453125 
L 50.34375 0 
L 3.03125 0 
Q 2.9375 3.171875 4.046875 6.109375 
Q 5.859375 10.9375 9.828125 15.625 
Q 13.8125 20.3125 21.34375 26.46875 
Q 33.015625 36.03125 37.109375 41.625 
Q 41.21875 47.21875 41.21875 52.203125 
Q 41.21875 57.421875 37.46875 61 
Q 33.734375 64.59375 27.734375 64.59375 
Q 21.390625 64.59375 17.578125 60.78125 
Q 13.765625 56.984375 13.71875 50.25 
L 4.6875 51.171875 
Q 5.609375 61.28125 11.65625 66.578125 
Q 17.71875 71.875 27.9375 71.875 
Q 38.234375 71.875 44.234375 66.15625 
Q 50.25 60.453125 50.25 52 
Q 50.25 47.703125 48.484375 43.546875 
Q 46.734375 39.40625 42.65625 34.8125 
Q 38.578125 30.21875 29.109375 22.21875 
Q 21.1875 15.578125 18.9375 13.203125 
Q 16.703125 10.84375 15.234375 8.453125 
z
" id="ArialMT-50"/>
      </defs>
      <g style="fill:#262626;" transform="translate(67.781948 335.789375)scale(0.12 -0.12)">
       <use xlink:href="#ArialMT-50"/>
      </g>
     </g>
    </g>
    <g id="xtick_2">
     <g id="text_2">
      <!-- 3 -->
      <defs>
       <path d="M 4.203125 18.890625 
L 12.984375 20.0625 
Q 14.5 12.59375 18.140625 9.296875 
Q 21.78125 6 27 6 
Q 33.203125 6 37.46875 10.296875 
Q 41.75 14.59375 41.75 20.953125 
Q 41.75 27 37.796875 30.921875 
Q 33.84375 34.859375 27.734375 34.859375 
Q 25.25 34.859375 21.53125 33.890625 
L 22.515625 41.609375 
Q 23.390625 41.5 23.921875 41.5 
Q 29.546875 41.5 34.03125 44.421875 
Q 38.53125 47.359375 38.53125 53.46875 
Q 38.53125 58.296875 35.25 61.46875 
Q 31.984375 64.65625 26.8125 64.65625 
Q 21.6875 64.65625 18.265625 61.421875 
Q 14.84375 58.203125 13.875 51.765625 
L 5.078125 53.328125 
Q 6.6875 62.15625 12.390625 67.015625 
Q 18.109375 71.875 26.609375 71.875 
Q 32.46875 71.875 37.390625 69.359375 
Q 42.328125 66.84375 44.9375 62.5 
Q 47.5625 58.15625 47.5625 53.265625 
Q 47.5625 48.640625 45.0625 44.828125 
Q 42.578125 41.015625 37.703125 38.765625 
Q 44.046875 37.3125 47.5625 32.6875 
Q 51.078125 28.078125 51.078125 21.140625 
Q 51.078125 11.765625 44.234375 5.25 
Q 37.40625 -1.265625 26.953125 -1.265625 
Q 17.53125 -1.265625 11.296875 4.34375 
Q 5.078125 9.96875 4.203125 18.890625 
z
" id="ArialMT-51"/>
      </defs>
      <g style="fill:#262626;" transform="translate(106.053941 335.789375)scale(0.12 -0.12)">
       <use xlink:href="#ArialMT-51"/>
      </g>
     </g>
    </g>
    <g id="xtick_3">
     <g id="text_3">
      <!-- 4 -->
      <defs>
       <path d="M 32.328125 0 
L 32.328125 17.140625 
L 1.265625 17.140625 
L 1.265625 25.203125 
L 33.9375 71.578125 
L 41.109375 71.578125 
L 41.109375 25.203125 
L 50.78125 25.203125 
L 50.78125 17.140625 
L 41.109375 17.140625 
L 41.109375 0 
z
M 32.328125 25.203125 
L 32.328125 57.46875 
L 9.90625 25.203125 
z
" id="ArialMT-52"/>
      </defs>
      <g style="fill:#262626;" transform="translate(144.325934 335.789375)scale(0.12 -0.12)">
       <use xlink:href="#ArialMT-52"/>
      </g>
     </g>
    </g>
    <g id="xtick_4">
     <g id="text_4">
      <!-- 5 -->
      <defs>
       <path d="M 4.15625 18.75 
L 13.375 19.53125 
Q 14.40625 12.796875 18.140625 9.390625 
Q 21.875 6 27.15625 6 
Q 33.5 6 37.890625 10.78125 
Q 42.28125 15.578125 42.28125 23.484375 
Q 42.28125 31 38.0625 35.34375 
Q 33.84375 39.703125 27 39.703125 
Q 22.75 39.703125 19.328125 37.765625 
Q 15.921875 35.84375 13.96875 32.765625 
L 5.71875 33.84375 
L 12.640625 70.609375 
L 48.25 70.609375 
L 48.25 62.203125 
L 19.671875 62.203125 
L 15.828125 42.96875 
Q 22.265625 47.46875 29.34375 47.46875 
Q 38.71875 47.46875 45.15625 40.96875 
Q 51.609375 34.46875 51.609375 24.265625 
Q 51.609375 14.546875 45.953125 7.46875 
Q 39.0625 -1.21875 27.15625 -1.21875 
Q 17.390625 -1.21875 11.203125 4.25 
Q 5.03125 9.71875 4.15625 18.75 
z
" id="ArialMT-53"/>
      </defs>
      <g style="fill:#262626;" transform="translate(182.597927 335.789375)scale(0.12 -0.12)">
       <use xlink:href="#ArialMT-53"/>
      </g>
     </g>
    </g>
    <g id="xtick_5">
     <g id="text_5">
      <!-- 6 -->
      <defs>
       <path d="M 49.75 54.046875 
L 41.015625 53.375 
Q 39.84375 58.546875 37.703125 60.890625 
Q 34.125 64.65625 28.90625 64.65625 
Q 24.703125 64.65625 21.53125 62.3125 
Q 17.390625 59.28125 14.984375 53.46875 
Q 12.59375 47.65625 12.5 36.921875 
Q 15.671875 41.75 20.265625 44.09375 
Q 24.859375 46.4375 29.890625 46.4375 
Q 38.671875 46.4375 44.84375 39.96875 
Q 51.03125 33.5 51.03125 23.25 
Q 51.03125 16.5 48.125 10.71875 
Q 45.21875 4.9375 40.140625 1.859375 
Q 35.0625 -1.21875 28.609375 -1.21875 
Q 17.625 -1.21875 10.6875 6.859375 
Q 3.765625 14.9375 3.765625 33.5 
Q 3.765625 54.25 11.421875 63.671875 
Q 18.109375 71.875 29.4375 71.875 
Q 37.890625 71.875 43.28125 67.140625 
Q 48.6875 62.40625 49.75 54.046875 
z
M 13.875 23.1875 
Q 13.875 18.65625 15.796875 14.5 
Q 17.71875 10.359375 21.1875 8.171875 
Q 24.65625 6 28.46875 6 
Q 34.03125 6 38.03125 10.484375 
Q 42.046875 14.984375 42.046875 22.703125 
Q 42.046875 30.125 38.078125 34.390625 
Q 34.125 38.671875 28.125 38.671875 
Q 22.171875 38.671875 18.015625 34.390625 
Q 13.875 30.125 13.875 23.1875 
z
" id="ArialMT-54"/>
      </defs>
      <g style="fill:#262626;" transform="translate(220.86992 335.789375)scale(0.12 -0.12)">
       <use xlink:href="#ArialMT-54"/>
      </g>
     </g>
    </g>
    <g id="xtick_6">
     <g id="text_6">
      <!-- 7 -->
      <defs>
       <path d="M 4.734375 62.203125 
L 4.734375 70.65625 
L 51.078125 70.65625 
L 51.078125 63.8125 
Q 44.234375 56.546875 37.515625 44.484375 
Q 30.8125 32.421875 27.15625 19.671875 
Q 24.515625 10.6875 23.78125 0 
L 14.75 0 
Q 14.890625 8.453125 18.0625 20.40625 
Q 21.234375 32.375 27.171875 43.484375 
Q 33.109375 54.59375 39.796875 62.203125 
z
" id="ArialMT-55"/>
      </defs>
      <g style="fill:#262626;" transform="translate(259.141913 335.789375)scale(0.12 -0.12)">
       <use xlink:href="#ArialMT-55"/>
      </g>
     </g>
    </g>
    <g id="xtick_7">
     <g id="text_7">
      <!-- 8 -->
      <defs>
       <path d="M 17.671875 38.8125 
Q 12.203125 40.828125 9.5625 44.53125 
Q 6.9375 48.25 6.9375 53.421875 
Q 6.9375 61.234375 12.546875 66.546875 
Q 18.171875 71.875 27.484375 71.875 
Q 36.859375 71.875 42.578125 66.421875 
Q 48.296875 60.984375 48.296875 53.171875 
Q 48.296875 48.1875 45.671875 44.5 
Q 43.0625 40.828125 37.75 38.8125 
Q 44.34375 36.671875 47.78125 31.875 
Q 51.21875 27.09375 51.21875 20.453125 
Q 51.21875 11.28125 44.71875 5.03125 
Q 38.234375 -1.21875 27.640625 -1.21875 
Q 17.046875 -1.21875 10.546875 5.046875 
Q 4.046875 11.328125 4.046875 20.703125 
Q 4.046875 27.6875 7.59375 32.390625 
Q 11.140625 37.109375 17.671875 38.8125 
z
M 15.921875 53.71875 
Q 15.921875 48.640625 19.1875 45.40625 
Q 22.46875 42.1875 27.6875 42.1875 
Q 32.765625 42.1875 36.015625 45.375 
Q 39.265625 48.578125 39.265625 53.21875 
Q 39.265625 58.0625 35.90625 61.359375 
Q 32.5625 64.65625 27.59375 64.65625 
Q 22.5625 64.65625 19.234375 61.421875 
Q 15.921875 58.203125 15.921875 53.71875 
z
M 13.09375 20.65625 
Q 13.09375 16.890625 14.875 13.375 
Q 16.65625 9.859375 20.171875 7.921875 
Q 23.6875 6 27.734375 6 
Q 34.03125 6 38.125 10.046875 
Q 42.234375 14.109375 42.234375 20.359375 
Q 42.234375 26.703125 38.015625 30.859375 
Q 33.796875 35.015625 27.4375 35.015625 
Q 21.234375 35.015625 17.15625 30.90625 
Q 13.09375 26.8125 13.09375 20.65625 
z
" id="ArialMT-56"/>
      </defs>
      <g style="fill:#262626;" transform="translate(297.413906 335.789375)scale(0.12 -0.12)">
       <use xlink:href="#ArialMT-56"/>
      </g>
     </g>
    </g>
    <g id="xtick_8">
     <g id="text_8">
      <!-- 9 -->
      <defs>
       <path d="M 5.46875 16.546875 
L 13.921875 17.328125 
Q 14.984375 11.375 18.015625 8.6875 
Q 21.046875 6 25.78125 6 
Q 29.828125 6 32.875 7.859375 
Q 35.9375 9.71875 37.890625 12.8125 
Q 39.84375 15.921875 41.15625 21.1875 
Q 42.484375 26.46875 42.484375 31.9375 
Q 42.484375 32.515625 42.4375 33.6875 
Q 39.796875 29.5 35.234375 26.875 
Q 30.671875 24.265625 25.34375 24.265625 
Q 16.453125 24.265625 10.296875 30.703125 
Q 4.15625 37.15625 4.15625 47.703125 
Q 4.15625 58.59375 10.578125 65.234375 
Q 17 71.875 26.65625 71.875 
Q 33.640625 71.875 39.421875 68.109375 
Q 45.21875 64.359375 48.21875 57.390625 
Q 51.21875 50.4375 51.21875 37.25 
Q 51.21875 23.53125 48.234375 15.40625 
Q 45.265625 7.28125 39.375 3.03125 
Q 33.5 -1.21875 25.59375 -1.21875 
Q 17.1875 -1.21875 11.859375 3.4375 
Q 6.546875 8.109375 5.46875 16.546875 
z
M 41.453125 48.140625 
Q 41.453125 55.71875 37.421875 60.15625 
Q 33.40625 64.59375 27.734375 64.59375 
Q 21.875 64.59375 17.53125 59.8125 
Q 13.1875 55.03125 13.1875 47.40625 
Q 13.1875 40.578125 17.3125 36.296875 
Q 21.4375 32.03125 27.484375 32.03125 
Q 33.59375 32.03125 37.515625 36.296875 
Q 41.453125 40.578125 41.453125 48.140625 
z
" id="ArialMT-57"/>
      </defs>
      <g style="fill:#262626;" transform="translate(335.685899 335.789375)scale(0.12 -0.12)">
       <use xlink:href="#ArialMT-57"/>
      </g>
     </g>
    </g>
    <g id="text_9">
     <!-- Day -->
     <defs>
      <path d="M 7.71875 0 
L 7.71875 71.578125 
L 32.375 71.578125 
Q 40.71875 71.578125 45.125 70.5625 
Q 51.265625 69.140625 55.609375 65.4375 
Q 61.28125 60.640625 64.078125 53.1875 
Q 66.890625 45.75 66.890625 36.1875 
Q 66.890625 28.03125 64.984375 21.734375 
Q 63.09375 15.4375 60.109375 11.296875 
Q 57.125 7.171875 53.578125 4.796875 
Q 50.046875 2.4375 45.046875 1.21875 
Q 40.046875 0 33.546875 0 
z
M 17.1875 8.453125 
L 32.46875 8.453125 
Q 39.546875 8.453125 43.578125 9.765625 
Q 47.609375 11.078125 50 13.484375 
Q 53.375 16.84375 55.25 22.53125 
Q 57.125 28.21875 57.125 36.328125 
Q 57.125 47.5625 53.4375 53.59375 
Q 49.75 59.625 44.484375 61.671875 
Q 40.671875 63.140625 32.234375 63.140625 
L 17.1875 63.140625 
z
" id="ArialMT-68"/>
      <path d="M 40.4375 6.390625 
Q 35.546875 2.25 31.03125 0.53125 
Q 26.515625 -1.171875 21.34375 -1.171875 
Q 12.796875 -1.171875 8.203125 3 
Q 3.609375 7.171875 3.609375 13.671875 
Q 3.609375 17.484375 5.34375 20.625 
Q 7.078125 23.78125 9.890625 25.6875 
Q 12.703125 27.59375 16.21875 28.5625 
Q 18.796875 29.25 24.03125 29.890625 
Q 34.671875 31.15625 39.703125 32.90625 
Q 39.75 34.71875 39.75 35.203125 
Q 39.75 40.578125 37.25 42.78125 
Q 33.890625 45.75 27.25 45.75 
Q 21.046875 45.75 18.09375 43.578125 
Q 15.140625 41.40625 13.71875 35.890625 
L 5.125 37.0625 
Q 6.296875 42.578125 8.984375 45.96875 
Q 11.671875 49.359375 16.75 51.1875 
Q 21.828125 53.03125 28.515625 53.03125 
Q 35.15625 53.03125 39.296875 51.46875 
Q 43.453125 49.90625 45.40625 47.53125 
Q 47.359375 45.171875 48.140625 41.546875 
Q 48.578125 39.3125 48.578125 33.453125 
L 48.578125 21.734375 
Q 48.578125 9.46875 49.140625 6.21875 
Q 49.703125 2.984375 51.375 0 
L 42.1875 0 
Q 40.828125 2.734375 40.4375 6.390625 
z
M 39.703125 26.03125 
Q 34.90625 24.078125 25.34375 22.703125 
Q 19.921875 21.921875 17.671875 20.9375 
Q 15.4375 19.96875 14.203125 18.09375 
Q 12.984375 16.21875 12.984375 13.921875 
Q 12.984375 10.40625 15.640625 8.0625 
Q 18.3125 5.71875 23.4375 5.71875 
Q 28.515625 5.71875 32.46875 7.9375 
Q 36.421875 10.15625 38.28125 14.015625 
Q 39.703125 17 39.703125 22.796875 
z
" id="ArialMT-97"/>
      <path d="M 6.203125 -19.96875 
L 5.21875 -11.71875 
Q 8.109375 -12.5 10.25 -12.5 
Q 13.1875 -12.5 14.9375 -11.515625 
Q 16.703125 -10.546875 17.828125 -8.796875 
Q 18.65625 -7.46875 20.515625 -2.25 
Q 20.75 -1.515625 21.296875 -0.09375 
L 1.609375 51.859375 
L 11.078125 51.859375 
L 21.875 21.828125 
Q 23.96875 16.109375 25.640625 9.8125 
Q 27.15625 15.875 29.25 21.625 
L 40.328125 51.859375 
L 49.125 51.859375 
L 29.390625 -0.875 
Q 26.21875 -9.421875 24.46875 -12.640625 
Q 22.125 -17 19.09375 -19.015625 
Q 16.0625 -21.046875 11.859375 -21.046875 
Q 9.328125 -21.046875 6.203125 -19.96875 
z
" id="ArialMT-121"/>
     </defs>
     <g style="fill:#262626;" transform="translate(191.733377 352.911094)scale(0.15 -0.15)">
      <use xlink:href="#ArialMT-68"/>
      <use x="72.216797" xlink:href="#ArialMT-97"/>
      <use x="127.832031" xlink:href="#ArialMT-121"/>
     </g>
    </g>
   </g>
   <g id="matplotlib.axis_2">
    <g id="ytick_1">
     <g id="text_10">
      <!-- 0.0 -->
      <defs>
       <path d="M 4.15625 35.296875 
Q 4.15625 48 6.765625 55.734375 
Q 9.375 63.484375 14.515625 67.671875 
Q 19.671875 71.875 27.484375 71.875 
Q 33.25 71.875 37.59375 69.546875 
Q 41.9375 67.234375 44.765625 62.859375 
Q 47.609375 58.5 49.21875 52.21875 
Q 50.828125 45.953125 50.828125 35.296875 
Q 50.828125 22.703125 48.234375 14.96875 
Q 45.65625 7.234375 40.5 3 
Q 35.359375 -1.21875 27.484375 -1.21875 
Q 17.140625 -1.21875 11.234375 6.203125 
Q 4.15625 15.140625 4.15625 35.296875 
z
M 13.1875 35.296875 
Q 13.1875 17.671875 17.3125 11.828125 
Q 21.4375 6 27.484375 6 
Q 33.546875 6 37.671875 11.859375 
Q 41.796875 17.71875 41.796875 35.296875 
Q 41.796875 52.984375 37.671875 58.78125 
Q 33.546875 64.59375 27.390625 64.59375 
Q 21.34375 64.59375 17.71875 59.46875 
Q 13.1875 52.9375 13.1875 35.296875 
z
" id="ArialMT-48"/>
       <path d="M 9.078125 0 
L 9.078125 10.015625 
L 19.09375 10.015625 
L 19.09375 0 
z
" id="ArialMT-46"/>
      </defs>
      <g style="fill:#262626;" transform="translate(30.842222 308.050063)scale(0.12 -0.12)">
       <use xlink:href="#ArialMT-48"/>
       <use x="55.615234" xlink:href="#ArialMT-46"/>
       <use x="83.398438" xlink:href="#ArialMT-48"/>
      </g>
     </g>
    </g>
    <g id="ytick_2">
     <g id="text_11">
      <!-- 0.1 -->
      <defs>
       <path d="M 37.25 0 
L 28.46875 0 
L 28.46875 56 
Q 25.296875 52.984375 20.140625 49.953125 
Q 14.984375 46.921875 10.890625 45.40625 
L 10.890625 53.90625 
Q 18.265625 57.375 23.78125 62.296875 
Q 29.296875 67.234375 31.59375 71.875 
L 37.25 71.875 
z
" id="ArialMT-49"/>
      </defs>
      <g style="fill:#262626;" transform="translate(30.842222 270.47821)scale(0.12 -0.12)">
       <use xlink:href="#ArialMT-48"/>
       <use x="55.615234" xlink:href="#ArialMT-46"/>
       <use x="83.398438" xlink:href="#ArialMT-49"/>
      </g>
     </g>
    </g>
    <g id="ytick_3">
     <g id="text_12">
      <!-- 0.2 -->
      <g style="fill:#262626;" transform="translate(30.842222 232.906357)scale(0.12 -0.12)">
       <use xlink:href="#ArialMT-48"/>
       <use x="55.615234" xlink:href="#ArialMT-46"/>
       <use x="83.398438" xlink:href="#ArialMT-50"/>
      </g>
     </g>
    </g>
    <g id="ytick_4">
     <g id="text_13">
      <!-- 0.3 -->
      <g style="fill:#262626;" transform="translate(30.842222 195.334504)scale(0.12 -0.12)">
       <use xlink:href="#ArialMT-48"/>
       <use x="55.615234" xlink:href="#ArialMT-46"/>
       <use x="83.398438" xlink:href="#ArialMT-51"/>
      </g>
     </g>
    </g>
    <g id="ytick_5">
     <g id="text_14">
      <!-- 0.4 -->
      <g style="fill:#262626;" transform="translate(30.842222 157.762652)scale(0.12 -0.12)">
       <use xlink:href="#ArialMT-48"/>
       <use x="55.615234" xlink:href="#ArialMT-46"/>
       <use x="83.398438" xlink:href="#ArialMT-52"/>
      </g>
     </g>
    </g>
    <g id="ytick_6">
     <g id="text_15">
      <!-- 0.5 -->
      <g style="fill:#262626;" transform="translate(30.842222 120.190799)scale(0.12 -0.12)">
       <use xlink:href="#ArialMT-48"/>
       <use x="55.615234" xlink:href="#ArialMT-46"/>
       <use x="83.398438" xlink:href="#ArialMT-53"/>
      </g>
     </g>
    </g>
    <g id="ytick_7">
     <g id="text_16">
      <!-- 0.6 -->
      <g style="fill:#262626;" transform="translate(30.842222 82.618946)scale(0.12 -0.12)">
       <use xlink:href="#ArialMT-48"/>
       <use x="55.615234" xlink:href="#ArialMT-46"/>
       <use x="83.398438" xlink:href="#ArialMT-54"/>
      </g>
     </g>
    </g>
    <g id="ytick_8">
     <g id="text_17">
      <!-- 0.7 -->
      <g style="fill:#262626;" transform="translate(30.842222 45.047093)scale(0.12 -0.12)">
       <use xlink:href="#ArialMT-48"/>
       <use x="55.615234" xlink:href="#ArialMT-46"/>
       <use x="83.398438" xlink:href="#ArialMT-55"/>
      </g>
     </g>
    </g>
    <g id="text_18">
     <!-- Hydroxyomeprazole -->
     <defs>
      <path d="M 8.015625 0 
L 8.015625 71.578125 
L 17.484375 71.578125 
L 17.484375 42.1875 
L 54.6875 42.1875 
L 54.6875 71.578125 
L 64.15625 71.578125 
L 64.15625 0 
L 54.6875 0 
L 54.6875 33.734375 
L 17.484375 33.734375 
L 17.484375 0 
z
" id="ArialMT-72"/>
      <path d="M 40.234375 0 
L 40.234375 6.546875 
Q 35.296875 -1.171875 25.734375 -1.171875 
Q 19.53125 -1.171875 14.328125 2.25 
Q 9.125 5.671875 6.265625 11.796875 
Q 3.421875 17.921875 3.421875 25.875 
Q 3.421875 33.640625 6 39.96875 
Q 8.59375 46.296875 13.765625 49.65625 
Q 18.953125 53.03125 25.34375 53.03125 
Q 30.03125 53.03125 33.6875 51.046875 
Q 37.359375 49.078125 39.65625 45.90625 
L 39.65625 71.578125 
L 48.390625 71.578125 
L 48.390625 0 
z
M 12.453125 25.875 
Q 12.453125 15.921875 16.640625 10.984375 
Q 20.84375 6.0625 26.5625 6.0625 
Q 32.328125 6.0625 36.34375 10.765625 
Q 40.375 15.484375 40.375 25.140625 
Q 40.375 35.796875 36.265625 40.765625 
Q 32.171875 45.75 26.171875 45.75 
Q 20.3125 45.75 16.375 40.96875 
Q 12.453125 36.1875 12.453125 25.875 
z
" id="ArialMT-100"/>
      <path d="M 6.5 0 
L 6.5 51.859375 
L 14.40625 51.859375 
L 14.40625 44 
Q 17.4375 49.515625 20 51.265625 
Q 22.5625 53.03125 25.640625 53.03125 
Q 30.078125 53.03125 34.671875 50.203125 
L 31.640625 42.046875 
Q 28.421875 43.953125 25.203125 43.953125 
Q 22.3125 43.953125 20.015625 42.21875 
Q 17.71875 40.484375 16.75 37.40625 
Q 15.28125 32.71875 15.28125 27.15625 
L 15.28125 0 
z
" id="ArialMT-114"/>
      <path d="M 3.328125 25.921875 
Q 3.328125 40.328125 11.328125 47.265625 
Q 18.015625 53.03125 27.640625 53.03125 
Q 38.328125 53.03125 45.109375 46.015625 
Q 51.90625 39.015625 51.90625 26.65625 
Q 51.90625 16.65625 48.90625 10.90625 
Q 45.90625 5.171875 40.15625 2 
Q 34.421875 -1.171875 27.640625 -1.171875 
Q 16.75 -1.171875 10.03125 5.8125 
Q 3.328125 12.796875 3.328125 25.921875 
z
M 12.359375 25.921875 
Q 12.359375 15.96875 16.703125 11.015625 
Q 21.046875 6.0625 27.640625 6.0625 
Q 34.1875 6.0625 38.53125 11.03125 
Q 42.875 16.015625 42.875 26.21875 
Q 42.875 35.84375 38.5 40.796875 
Q 34.125 45.75 27.640625 45.75 
Q 21.046875 45.75 16.703125 40.8125 
Q 12.359375 35.890625 12.359375 25.921875 
z
" id="ArialMT-111"/>
      <path d="M 0.734375 0 
L 19.671875 26.953125 
L 2.15625 51.859375 
L 13.140625 51.859375 
L 21.09375 39.703125 
Q 23.34375 36.234375 24.703125 33.890625 
Q 26.859375 37.109375 28.65625 39.59375 
L 37.40625 51.859375 
L 47.90625 51.859375 
L 29.984375 27.4375 
L 49.265625 0 
L 38.484375 0 
L 27.828125 16.109375 
L 25 20.453125 
L 11.375 0 
z
" id="ArialMT-120"/>
      <path d="M 6.59375 0 
L 6.59375 51.859375 
L 14.453125 51.859375 
L 14.453125 44.578125 
Q 16.890625 48.390625 20.9375 50.703125 
Q 25 53.03125 30.171875 53.03125 
Q 35.9375 53.03125 39.625 50.640625 
Q 43.3125 48.25 44.828125 43.953125 
Q 50.984375 53.03125 60.84375 53.03125 
Q 68.5625 53.03125 72.703125 48.75 
Q 76.859375 44.484375 76.859375 35.59375 
L 76.859375 0 
L 68.109375 0 
L 68.109375 32.671875 
Q 68.109375 37.9375 67.25 40.25 
Q 66.40625 42.578125 64.15625 43.984375 
Q 61.921875 45.40625 58.890625 45.40625 
Q 53.421875 45.40625 49.796875 41.765625 
Q 46.1875 38.140625 46.1875 30.125 
L 46.1875 0 
L 37.40625 0 
L 37.40625 33.6875 
Q 37.40625 39.546875 35.25 42.46875 
Q 33.109375 45.40625 28.21875 45.40625 
Q 24.515625 45.40625 21.359375 43.453125 
Q 18.21875 41.5 16.796875 37.734375 
Q 15.375 33.984375 15.375 26.90625 
L 15.375 0 
z
" id="ArialMT-109"/>
      <path d="M 42.09375 16.703125 
L 51.171875 15.578125 
Q 49.03125 7.625 43.21875 3.21875 
Q 37.40625 -1.171875 28.375 -1.171875 
Q 17 -1.171875 10.328125 5.828125 
Q 3.65625 12.84375 3.65625 25.484375 
Q 3.65625 38.578125 10.390625 45.796875 
Q 17.140625 53.03125 27.875 53.03125 
Q 38.28125 53.03125 44.875 45.953125 
Q 51.46875 38.875 51.46875 26.03125 
Q 51.46875 25.25 51.421875 23.6875 
L 12.75 23.6875 
Q 13.234375 15.140625 17.578125 10.59375 
Q 21.921875 6.0625 28.421875 6.0625 
Q 33.25 6.0625 36.671875 8.59375 
Q 40.09375 11.140625 42.09375 16.703125 
z
M 13.234375 30.90625 
L 42.1875 30.90625 
Q 41.609375 37.453125 38.875 40.71875 
Q 34.671875 45.796875 27.984375 45.796875 
Q 21.921875 45.796875 17.796875 41.75 
Q 13.671875 37.703125 13.234375 30.90625 
z
" id="ArialMT-101"/>
      <path d="M 6.59375 -19.875 
L 6.59375 51.859375 
L 14.59375 51.859375 
L 14.59375 45.125 
Q 17.4375 49.078125 21 51.046875 
Q 24.5625 53.03125 29.640625 53.03125 
Q 36.28125 53.03125 41.359375 49.609375 
Q 46.4375 46.1875 49.015625 39.953125 
Q 51.609375 33.734375 51.609375 26.3125 
Q 51.609375 18.359375 48.75 11.984375 
Q 45.90625 5.609375 40.453125 2.21875 
Q 35.015625 -1.171875 29 -1.171875 
Q 24.609375 -1.171875 21.109375 0.6875 
Q 17.625 2.546875 15.375 5.375 
L 15.375 -19.875 
z
M 14.546875 25.640625 
Q 14.546875 15.625 18.59375 10.84375 
Q 22.65625 6.0625 28.421875 6.0625 
Q 34.28125 6.0625 38.453125 11.015625 
Q 42.625 15.96875 42.625 26.375 
Q 42.625 36.28125 38.546875 41.203125 
Q 34.46875 46.140625 28.8125 46.140625 
Q 23.1875 46.140625 18.859375 40.890625 
Q 14.546875 35.640625 14.546875 25.640625 
z
" id="ArialMT-112"/>
      <path d="M 1.953125 0 
L 1.953125 7.125 
L 34.96875 45.015625 
Q 29.34375 44.734375 25.046875 44.734375 
L 3.90625 44.734375 
L 3.90625 51.859375 
L 46.296875 51.859375 
L 46.296875 46.046875 
L 18.21875 13.140625 
L 12.796875 7.125 
Q 18.703125 7.5625 23.875 7.5625 
L 47.859375 7.5625 
L 47.859375 0 
z
" id="ArialMT-122"/>
      <path d="M 6.390625 0 
L 6.390625 71.578125 
L 15.1875 71.578125 
L 15.1875 0 
z
" id="ArialMT-108"/>
     </defs>
     <g style="fill:#262626;" transform="translate(23.685191 233.940234)rotate(-90)scale(0.15 -0.15)">
      <use xlink:href="#ArialMT-72"/>
      <use x="72.216797" xlink:href="#ArialMT-121"/>
      <use x="122.216797" xlink:href="#ArialMT-100"/>
      <use x="177.832031" xlink:href="#ArialMT-114"/>
      <use x="211.132812" xlink:href="#ArialMT-111"/>
      <use x="266.748047" xlink:href="#ArialMT-120"/>
      <use x="316.748047" xlink:href="#ArialMT-121"/>
      <use x="366.748047" xlink:href="#ArialMT-111"/>
      <use x="422.363281" xlink:href="#ArialMT-109"/>
      <use x="505.664062" xlink:href="#ArialMT-101"/>
      <use x="561.279297" xlink:href="#ArialMT-112"/>
      <use x="616.894531" xlink:href="#ArialMT-114"/>
      <use x="650.195312" xlink:href="#ArialMT-97"/>
      <use x="705.810547" xlink:href="#ArialMT-122"/>
      <use x="755.810547" xlink:href="#ArialMT-111"/>
      <use x="811.425781" xlink:href="#ArialMT-108"/>
      <use x="833.642578" xlink:href="#ArialMT-101"/>
     </g>
    </g>
   </g>
   <g id="PathCollection_1">
    <defs>
     <path d="M 0 3 
C 0.795609 3 1.55874 2.683901 2.12132 2.12132 
C 2.683901 1.55874 3 0.795609 3 0 
C 3 -0.795609 2.683901 -1.55874 2.12132 -2.12132 
C 1.55874 -2.683901 0.795609 -3 0 -3 
C -0.795609 -3 -1.55874 -2.683901 -2.12132 -2.12132 
C -2.683901 -1.55874 -3 -0.795609 -3 0 
C -3 0.795609 -2.683901 1.55874 -2.12132 2.12132 
C -1.55874 2.683901 -0.795609 3 0 3 
z
" id="mca6b91eaa3" style="stroke:#f77189;stroke-opacity:0.8;"/>
    </defs>
    <g clip-path="url(#pa8437b8660)">
     <use style="fill:#f77189;fill-opacity:0.8;stroke:#f77189;stroke-opacity:0.8;" x="71.11851" xlink:href="#mca6b91eaa3" y="297.218884"/>
     <use style="fill:#f77189;fill-opacity:0.8;stroke:#f77189;stroke-opacity:0.8;" x="109.390503" xlink:href="#mca6b91eaa3" y="217.329905"/>
     <use style="fill:#f77189;fill-opacity:0.8;stroke:#f77189;stroke-opacity:0.8;" x="147.662497" xlink:href="#mca6b91eaa3" y="28.277696"/>
     <use style="fill:#f77189;fill-opacity:0.8;stroke:#f77189;stroke-opacity:0.8;" x="262.478476" xlink:href="#mca6b91eaa3" y="231.556284"/>
     <use style="fill:#f77189;fill-opacity:0.8;stroke:#f77189;stroke-opacity:0.8;" x="300.750469" xlink:href="#mca6b91eaa3" y="251.876358"/>
     <use style="fill:#f77189;fill-opacity:0.8;stroke:#f77189;stroke-opacity:0.8;" x="339.022462" xlink:href="#mca6b91eaa3" y="259.936733"/>
    </g>
   </g>
   <g id="PathCollection_2">
    <defs>
     <path d="M 0 3 
C 0.795609 3 1.55874 2.683901 2.12132 2.12132 
C 2.683901 1.55874 3 0.795609 3 0 
C 3 -0.795609 2.683901 -1.55874 2.12132 -2.12132 
C 1.55874 -2.683901 0.795609 -3 0 -3 
C -0.795609 -3 -1.55874 -2.683901 -2.12132 -2.12132 
C -2.683901 -1.55874 -3 -0.795609 -3 0 
C -3 0.795609 -2.683901 1.55874 -2.12132 2.12132 
C -1.55874 2.683901 -0.795609 3 0 3 
z
" id="m8b3528d71a" style="stroke:#ef7d32;stroke-opacity:0.8;"/>
    </defs>
    <g clip-path="url(#pa8437b8660)">
     <use style="fill:#ef7d32;fill-opacity:0.8;stroke:#ef7d32;stroke-opacity:0.8;" x="71.11851" xlink:href="#m8b3528d71a" y="260.981686"/>
     <use style="fill:#ef7d32;fill-opacity:0.8;stroke:#ef7d32;stroke-opacity:0.8;" x="109.390503" xlink:href="#m8b3528d71a" y="302.486664"/>
     <use style="fill:#ef7d32;fill-opacity:0.8;stroke:#ef7d32;stroke-opacity:0.8;" x="147.662497" xlink:href="#m8b3528d71a" y="302.398746"/>
     <use style="fill:#ef7d32;fill-opacity:0.8;stroke:#ef7d32;stroke-opacity:0.8;" x="185.93449" xlink:href="#m8b3528d71a" y="288.923296"/>
     <use style="fill:#ef7d32;fill-opacity:0.8;stroke:#ef7d32;stroke-opacity:0.8;" x="224.206483" xlink:href="#m8b3528d71a" y="291.152051"/>
     <use style="fill:#ef7d32;fill-opacity:0.8;stroke:#ef7d32;stroke-opacity:0.8;" x="262.478476" xlink:href="#m8b3528d71a" y="295.637541"/>
     <use style="fill:#ef7d32;fill-opacity:0.8;stroke:#ef7d32;stroke-opacity:0.8;" x="300.750469" xlink:href="#m8b3528d71a" y="301.916526"/>
     <use style="fill:#ef7d32;fill-opacity:0.8;stroke:#ef7d32;stroke-opacity:0.8;" x="339.022462" xlink:href="#m8b3528d71a" y="299.647921"/>
    </g>
   </g>
   <g id="PathCollection_3">
    <defs>
     <path d="M 0 3 
C 0.795609 3 1.55874 2.683901 2.12132 2.12132 
C 2.683901 1.55874 3 0.795609 3 0 
C 3 -0.795609 2.683901 -1.55874 2.12132 -2.12132 
C 1.55874 -2.683901 0.795609 -3 0 -3 
C -0.795609 -3 -1.55874 -2.683901 -2.12132 -2.12132 
C -2.683901 -1.55874 -3 -0.795609 -3 0 
C -3 0.795609 -2.683901 1.55874 -2.12132 2.12132 
C -1.55874 2.683901 -0.795609 3 0 3 
z
" id="m47c057384c" style="stroke:#c69432;stroke-opacity:0.8;"/>
    </defs>
    <g clip-path="url(#pa8437b8660)">
     <use style="fill:#c69432;fill-opacity:0.8;stroke:#c69432;stroke-opacity:0.8;" x="109.390503" xlink:href="#m47c057384c" y="293.5909"/>
     <use style="fill:#c69432;fill-opacity:0.8;stroke:#c69432;stroke-opacity:0.8;" x="185.93449" xlink:href="#m47c057384c" y="247.759008"/>
     <use style="fill:#c69432;fill-opacity:0.8;stroke:#c69432;stroke-opacity:0.8;" x="224.206483" xlink:href="#m47c057384c" y="282.665811"/>
     <use style="fill:#c69432;fill-opacity:0.8;stroke:#c69432;stroke-opacity:0.8;" x="300.750469" xlink:href="#m47c057384c" y="177.745117"/>
     <use style="fill:#c69432;fill-opacity:0.8;stroke:#c69432;stroke-opacity:0.8;" x="339.022462" xlink:href="#m47c057384c" y="229.743882"/>
    </g>
   </g>
   <g id="PathCollection_4">
    <defs>
     <path d="M 0 3 
C 0.795609 3 1.55874 2.683901 2.12132 2.12132 
C 2.683901 1.55874 3 0.795609 3 0 
C 3 -0.795609 2.683901 -1.55874 2.12132 -2.12132 
C 1.55874 -2.683901 0.795609 -3 0 -3 
C -0.795609 -3 -1.55874 -2.683901 -2.12132 -2.12132 
C -2.683901 -1.55874 -3 -0.795609 -3 0 
C -3 0.795609 -2.683901 1.55874 -2.12132 2.12132 
C -1.55874 2.683901 -0.795609 3 0 3 
z
" id="me4cef1ddf6" style="stroke:#a79f31;stroke-opacity:0.8;"/>
    </defs>
    <g clip-path="url(#pa8437b8660)">
     <use style="fill:#a79f31;fill-opacity:0.8;stroke:#a79f31;stroke-opacity:0.8;" x="71.11851" xlink:href="#me4cef1ddf6" y="303.332237"/>
     <use style="fill:#a79f31;fill-opacity:0.8;stroke:#a79f31;stroke-opacity:0.8;" x="109.390503" xlink:href="#me4cef1ddf6" y="301.868667"/>
     <use style="fill:#a79f31;fill-opacity:0.8;stroke:#a79f31;stroke-opacity:0.8;" x="185.93449" xlink:href="#me4cef1ddf6" y="186.355606"/>
     <use style="fill:#a79f31;fill-opacity:0.8;stroke:#a79f31;stroke-opacity:0.8;" x="224.206483" xlink:href="#me4cef1ddf6" y="268.852134"/>
     <use style="fill:#a79f31;fill-opacity:0.8;stroke:#a79f31;stroke-opacity:0.8;" x="262.478476" xlink:href="#me4cef1ddf6" y="301.183096"/>
     <use style="fill:#a79f31;fill-opacity:0.8;stroke:#a79f31;stroke-opacity:0.8;" x="300.750469" xlink:href="#me4cef1ddf6" y="302.354904"/>
     <use style="fill:#a79f31;fill-opacity:0.8;stroke:#a79f31;stroke-opacity:0.8;" x="339.022462" xlink:href="#me4cef1ddf6" y="302.13797"/>
    </g>
   </g>
   <g id="PathCollection_5">
    <defs>
     <path d="M 0 3 
C 0.795609 3 1.55874 2.683901 2.12132 2.12132 
C 2.683901 1.55874 3 0.795609 3 0 
C 3 -0.795609 2.683901 -1.55874 2.12132 -2.12132 
C 1.55874 -2.683901 0.795609 -3 0 -3 
C -0.795609 -3 -1.55874 -2.683901 -2.12132 -2.12132 
C -2.683901 -1.55874 -3 -0.795609 -3 0 
C -3 0.795609 -2.683901 1.55874 -2.12132 2.12132 
C -1.55874 2.683901 -0.795609 3 0 3 
z
" id="m9755a23a2d" style="stroke:#82a931;stroke-opacity:0.8;"/>
    </defs>
    <g clip-path="url(#pa8437b8660)">
     <use style="fill:#82a931;fill-opacity:0.8;stroke:#82a931;stroke-opacity:0.8;" x="71.11851" xlink:href="#m9755a23a2d" y="295.726601"/>
     <use style="fill:#82a931;fill-opacity:0.8;stroke:#82a931;stroke-opacity:0.8;" x="109.390503" xlink:href="#m9755a23a2d" y="283.546606"/>
     <use style="fill:#82a931;fill-opacity:0.8;stroke:#82a931;stroke-opacity:0.8;" x="147.662497" xlink:href="#m9755a23a2d" y="300.105043"/>
     <use style="fill:#82a931;fill-opacity:0.8;stroke:#82a931;stroke-opacity:0.8;" x="224.206483" xlink:href="#m9755a23a2d" y="300.135285"/>
     <use style="fill:#82a931;fill-opacity:0.8;stroke:#82a931;stroke-opacity:0.8;" x="262.478476" xlink:href="#m9755a23a2d" y="298.709296"/>
     <use style="fill:#82a931;fill-opacity:0.8;stroke:#82a931;stroke-opacity:0.8;" x="300.750469" xlink:href="#m9755a23a2d" y="293.976205"/>
     <use style="fill:#82a931;fill-opacity:0.8;stroke:#82a931;stroke-opacity:0.8;" x="339.022462" xlink:href="#m9755a23a2d" y="289.670038"/>
    </g>
   </g>
   <g id="PathCollection_6">
    <defs>
     <path d="M 0 3 
C 0.795609 3 1.55874 2.683901 2.12132 2.12132 
C 2.683901 1.55874 3 0.795609 3 0 
C 3 -0.795609 2.683901 -1.55874 2.12132 -2.12132 
C 1.55874 -2.683901 0.795609 -3 0 -3 
C -0.795609 -3 -1.55874 -2.683901 -2.12132 -2.12132 
C -2.683901 -1.55874 -3 -0.795609 -3 0 
C -3 0.795609 -2.683901 1.55874 -2.12132 2.12132 
C -1.55874 2.683901 -0.795609 3 0 3 
z
" id="m123658ccf0" style="stroke:#32b24e;stroke-opacity:0.8;"/>
    </defs>
    <g clip-path="url(#pa8437b8660)">
     <use style="fill:#32b24e;fill-opacity:0.8;stroke:#32b24e;stroke-opacity:0.8;" x="109.390503" xlink:href="#m123658ccf0" y="217.706554"/>
     <use style="fill:#32b24e;fill-opacity:0.8;stroke:#32b24e;stroke-opacity:0.8;" x="147.662497" xlink:href="#m123658ccf0" y="213.997358"/>
     <use style="fill:#32b24e;fill-opacity:0.8;stroke:#32b24e;stroke-opacity:0.8;" x="185.93449" xlink:href="#m123658ccf0" y="255.183692"/>
     <use style="fill:#32b24e;fill-opacity:0.8;stroke:#32b24e;stroke-opacity:0.8;" x="224.206483" xlink:href="#m123658ccf0" y="265.958201"/>
     <use style="fill:#32b24e;fill-opacity:0.8;stroke:#32b24e;stroke-opacity:0.8;" x="262.478476" xlink:href="#m123658ccf0" y="252.027791"/>
     <use style="fill:#32b24e;fill-opacity:0.8;stroke:#32b24e;stroke-opacity:0.8;" x="300.750469" xlink:href="#m123658ccf0" y="244.524168"/>
     <use style="fill:#32b24e;fill-opacity:0.8;stroke:#32b24e;stroke-opacity:0.8;" x="339.022462" xlink:href="#m123658ccf0" y="242.832284"/>
    </g>
   </g>
   <g id="PathCollection_7">
    <defs>
     <path d="M 0 3 
C 0.795609 3 1.55874 2.683901 2.12132 2.12132 
C 2.683901 1.55874 3 0.795609 3 0 
C 3 -0.795609 2.683901 -1.55874 2.12132 -2.12132 
C 1.55874 -2.683901 0.795609 -3 0 -3 
C -0.795609 -3 -1.55874 -2.683901 -2.12132 -2.12132 
C -2.683901 -1.55874 -3 -0.795609 -3 0 
C -3 0.795609 -2.683901 1.55874 -2.12132 2.12132 
C -1.55874 2.683901 -0.795609 3 0 3 
z
" id="mddf4e13cf5" style="stroke:#34af8a;stroke-opacity:0.8;"/>
    </defs>
    <g clip-path="url(#pa8437b8660)">
     <use style="fill:#34af8a;fill-opacity:0.8;stroke:#34af8a;stroke-opacity:0.8;" x="71.11851" xlink:href="#mddf4e13cf5" y="288.245596"/>
     <use style="fill:#34af8a;fill-opacity:0.8;stroke:#34af8a;stroke-opacity:0.8;" x="109.390503" xlink:href="#mddf4e13cf5" y="260.212227"/>
     <use style="fill:#34af8a;fill-opacity:0.8;stroke:#34af8a;stroke-opacity:0.8;" x="147.662497" xlink:href="#mddf4e13cf5" y="209.288218"/>
     <use style="fill:#34af8a;fill-opacity:0.8;stroke:#34af8a;stroke-opacity:0.8;" x="185.93449" xlink:href="#mddf4e13cf5" y="270.411604"/>
     <use style="fill:#34af8a;fill-opacity:0.8;stroke:#34af8a;stroke-opacity:0.8;" x="224.206483" xlink:href="#mddf4e13cf5" y="207.746218"/>
     <use style="fill:#34af8a;fill-opacity:0.8;stroke:#34af8a;stroke-opacity:0.8;" x="262.478476" xlink:href="#mddf4e13cf5" y="212.40947"/>
     <use style="fill:#34af8a;fill-opacity:0.8;stroke:#34af8a;stroke-opacity:0.8;" x="300.750469" xlink:href="#mddf4e13cf5" y="182.909856"/>
     <use style="fill:#34af8a;fill-opacity:0.8;stroke:#34af8a;stroke-opacity:0.8;" x="339.022462" xlink:href="#mddf4e13cf5" y="243.434712"/>
    </g>
   </g>
   <g id="PathCollection_8">
    <defs>
     <path d="M 0 3 
C 0.795609 3 1.55874 2.683901 2.12132 2.12132 
C 2.683901 1.55874 3 0.795609 3 0 
C 3 -0.795609 2.683901 -1.55874 2.12132 -2.12132 
C 1.55874 -2.683901 0.795609 -3 0 -3 
C -0.795609 -3 -1.55874 -2.683901 -2.12132 -2.12132 
C -2.683901 -1.55874 -3 -0.795609 -3 0 
C -3 0.795609 -2.683901 1.55874 -2.12132 2.12132 
C -1.55874 2.683901 -0.795609 3 0 3 
z
" id="mf145ddc52c" style="stroke:#36ada4;stroke-opacity:0.8;"/>
    </defs>
    <g clip-path="url(#pa8437b8660)">
     <use style="fill:#36ada4;fill-opacity:0.8;stroke:#36ada4;stroke-opacity:0.8;" x="109.390503" xlink:href="#mf145ddc52c" y="300.298393"/>
     <use style="fill:#36ada4;fill-opacity:0.8;stroke:#36ada4;stroke-opacity:0.8;" x="185.93449" xlink:href="#mf145ddc52c" y="237.121438"/>
     <use style="fill:#36ada4;fill-opacity:0.8;stroke:#36ada4;stroke-opacity:0.8;" x="262.478476" xlink:href="#mf145ddc52c" y="229.112661"/>
     <use style="fill:#36ada4;fill-opacity:0.8;stroke:#36ada4;stroke-opacity:0.8;" x="300.750469" xlink:href="#mf145ddc52c" y="246.224544"/>
     <use style="fill:#36ada4;fill-opacity:0.8;stroke:#36ada4;stroke-opacity:0.8;" x="339.022462" xlink:href="#mf145ddc52c" y="210.445841"/>
    </g>
   </g>
   <g id="PathCollection_9">
    <defs>
     <path d="M 0 3 
C 0.795609 3 1.55874 2.683901 2.12132 2.12132 
C 2.683901 1.55874 3 0.795609 3 0 
C 3 -0.795609 2.683901 -1.55874 2.12132 -2.12132 
C 1.55874 -2.683901 0.795609 -3 0 -3 
C -0.795609 -3 -1.55874 -2.683901 -2.12132 -2.12132 
C -2.683901 -1.55874 -3 -0.795609 -3 0 
C -3 0.795609 -2.683901 1.55874 -2.12132 2.12132 
C -1.55874 2.683901 -0.795609 3 0 3 
z
" id="m655f251ff3" style="stroke:#37aabb;stroke-opacity:0.8;"/>
    </defs>
    <g clip-path="url(#pa8437b8660)">
     <use style="fill:#37aabb;fill-opacity:0.8;stroke:#37aabb;stroke-opacity:0.8;" x="71.11851" xlink:href="#m655f251ff3" y="228.670837"/>
     <use style="fill:#37aabb;fill-opacity:0.8;stroke:#37aabb;stroke-opacity:0.8;" x="147.662497" xlink:href="#m655f251ff3" y="231.46866"/>
     <use style="fill:#37aabb;fill-opacity:0.8;stroke:#37aabb;stroke-opacity:0.8;" x="185.93449" xlink:href="#m655f251ff3" y="264.505749"/>
     <use style="fill:#37aabb;fill-opacity:0.8;stroke:#37aabb;stroke-opacity:0.8;" x="224.206483" xlink:href="#m655f251ff3" y="236.845445"/>
     <use style="fill:#37aabb;fill-opacity:0.8;stroke:#37aabb;stroke-opacity:0.8;" x="262.478476" xlink:href="#m655f251ff3" y="227.200385"/>
     <use style="fill:#37aabb;fill-opacity:0.8;stroke:#37aabb;stroke-opacity:0.8;" x="300.750469" xlink:href="#m655f251ff3" y="256.700278"/>
    </g>
   </g>
   <g id="PathCollection_10">
    <defs>
     <path d="M 0 3 
C 0.795609 3 1.55874 2.683901 2.12132 2.12132 
C 2.683901 1.55874 3 0.795609 3 0 
C 3 -0.795609 2.683901 -1.55874 2.12132 -2.12132 
C 1.55874 -2.683901 0.795609 -3 0 -3 
C -0.795609 -3 -1.55874 -2.683901 -2.12132 -2.12132 
C -2.683901 -1.55874 -3 -0.795609 -3 0 
C -3 0.795609 -2.683901 1.55874 -2.12132 2.12132 
C -1.55874 2.683901 -0.795609 3 0 3 
z
" id="m2f5c1fb72e" style="stroke:#3aa6da;stroke-opacity:0.8;"/>
    </defs>
    <g clip-path="url(#pa8437b8660)">
     <use style="fill:#3aa6da;fill-opacity:0.8;stroke:#3aa6da;stroke-opacity:0.8;" x="71.11851" xlink:href="#m2f5c1fb72e" y="294.450571"/>
     <use style="fill:#3aa6da;fill-opacity:0.8;stroke:#3aa6da;stroke-opacity:0.8;" x="185.93449" xlink:href="#m2f5c1fb72e" y="250.887821"/>
     <use style="fill:#3aa6da;fill-opacity:0.8;stroke:#3aa6da;stroke-opacity:0.8;" x="262.478476" xlink:href="#m2f5c1fb72e" y="300.081622"/>
     <use style="fill:#3aa6da;fill-opacity:0.8;stroke:#3aa6da;stroke-opacity:0.8;" x="339.022462" xlink:href="#m2f5c1fb72e" y="267.010908"/>
    </g>
   </g>
   <g id="PathCollection_11">
    <defs>
     <path d="M 0 3 
C 0.795609 3 1.55874 2.683901 2.12132 2.12132 
C 2.683901 1.55874 3 0.795609 3 0 
C 3 -0.795609 2.683901 -1.55874 2.12132 -2.12132 
C 1.55874 -2.683901 0.795609 -3 0 -3 
C -0.795609 -3 -1.55874 -2.683901 -2.12132 -2.12132 
C -2.683901 -1.55874 -3 -0.795609 -3 0 
C -3 0.795609 -2.683901 1.55874 -2.12132 2.12132 
C -1.55874 2.683901 -0.795609 3 0 3 
z
" id="m99213cbf0b" style="stroke:#8197f4;stroke-opacity:0.8;"/>
    </defs>
    <g clip-path="url(#pa8437b8660)">
     <use style="fill:#8197f4;fill-opacity:0.8;stroke:#8197f4;stroke-opacity:0.8;" x="71.11851" xlink:href="#m99213cbf0b" y="300.773056"/>
     <use style="fill:#8197f4;fill-opacity:0.8;stroke:#8197f4;stroke-opacity:0.8;" x="109.390503" xlink:href="#m99213cbf0b" y="290.209715"/>
     <use style="fill:#8197f4;fill-opacity:0.8;stroke:#8197f4;stroke-opacity:0.8;" x="185.93449" xlink:href="#m99213cbf0b" y="253.041744"/>
     <use style="fill:#8197f4;fill-opacity:0.8;stroke:#8197f4;stroke-opacity:0.8;" x="224.206483" xlink:href="#m99213cbf0b" y="264.677575"/>
     <use style="fill:#8197f4;fill-opacity:0.8;stroke:#8197f4;stroke-opacity:0.8;" x="262.478476" xlink:href="#m99213cbf0b" y="269.122929"/>
     <use style="fill:#8197f4;fill-opacity:0.8;stroke:#8197f4;stroke-opacity:0.8;" x="300.750469" xlink:href="#m99213cbf0b" y="266.067086"/>
     <use style="fill:#8197f4;fill-opacity:0.8;stroke:#8197f4;stroke-opacity:0.8;" x="339.022462" xlink:href="#m99213cbf0b" y="217.824158"/>
    </g>
   </g>
   <g id="PathCollection_12">
    <defs>
     <path d="M 0 3 
C 0.795609 3 1.55874 2.683901 2.12132 2.12132 
C 2.683901 1.55874 3 0.795609 3 0 
C 3 -0.795609 2.683901 -1.55874 2.12132 -2.12132 
C 1.55874 -2.683901 0.795609 -3 0 -3 
C -0.795609 -3 -1.55874 -2.683901 -2.12132 -2.12132 
C -2.683901 -1.55874 -3 -0.795609 -3 0 
C -3 0.795609 -2.683901 1.55874 -2.12132 2.12132 
C -1.55874 2.683901 -0.795609 3 0 3 
z
" id="med11914f15" style="stroke:#c180f4;stroke-opacity:0.8;"/>
    </defs>
    <g clip-path="url(#pa8437b8660)">
     <use style="fill:#c180f4;fill-opacity:0.8;stroke:#c180f4;stroke-opacity:0.8;" x="109.390503" xlink:href="#med11914f15" y="292.8974"/>
     <use style="fill:#c180f4;fill-opacity:0.8;stroke:#c180f4;stroke-opacity:0.8;" x="147.662497" xlink:href="#med11914f15" y="274.953958"/>
     <use style="fill:#c180f4;fill-opacity:0.8;stroke:#c180f4;stroke-opacity:0.8;" x="185.93449" xlink:href="#med11914f15" y="234.765979"/>
     <use style="fill:#c180f4;fill-opacity:0.8;stroke:#c180f4;stroke-opacity:0.8;" x="262.478476" xlink:href="#med11914f15" y="298.216527"/>
     <use style="fill:#c180f4;fill-opacity:0.8;stroke:#c180f4;stroke-opacity:0.8;" x="300.750469" xlink:href="#med11914f15" y="297.970797"/>
     <use style="fill:#c180f4;fill-opacity:0.8;stroke:#c180f4;stroke-opacity:0.8;" x="339.022462" xlink:href="#med11914f15" y="300.908677"/>
    </g>
   </g>
   <g id="PathCollection_13">
    <defs>
     <path d="M 0 3 
C 0.795609 3 1.55874 2.683901 2.12132 2.12132 
C 2.683901 1.55874 3 0.795609 3 0 
C 3 -0.795609 2.683901 -1.55874 2.12132 -2.12132 
C 1.55874 -2.683901 0.795609 -3 0 -3 
C -0.795609 -3 -1.55874 -2.683901 -2.12132 -2.12132 
C -2.683901 -1.55874 -3 -0.795609 -3 0 
C -3 0.795609 -2.683901 1.55874 -2.12132 2.12132 
C -1.55874 2.683901 -0.795609 3 0 3 
z
" id="mc1e60ad803" style="stroke:#f45deb;stroke-opacity:0.8;"/>
    </defs>
    <g clip-path="url(#pa8437b8660)">
     <use style="fill:#f45deb;fill-opacity:0.8;stroke:#f45deb;stroke-opacity:0.8;" x="71.11851" xlink:href="#mc1e60ad803" y="303.300292"/>
     <use style="fill:#f45deb;fill-opacity:0.8;stroke:#f45deb;stroke-opacity:0.8;" x="109.390503" xlink:href="#mc1e60ad803" y="302.905304"/>
     <use style="fill:#f45deb;fill-opacity:0.8;stroke:#f45deb;stroke-opacity:0.8;" x="147.662497" xlink:href="#mc1e60ad803" y="303.027796"/>
     <use style="fill:#f45deb;fill-opacity:0.8;stroke:#f45deb;stroke-opacity:0.8;" x="185.93449" xlink:href="#mc1e60ad803" y="302.22248"/>
     <use style="fill:#f45deb;fill-opacity:0.8;stroke:#f45deb;stroke-opacity:0.8;" x="224.206483" xlink:href="#mc1e60ad803" y="302.372403"/>
     <use style="fill:#f45deb;fill-opacity:0.8;stroke:#f45deb;stroke-opacity:0.8;" x="262.478476" xlink:href="#mc1e60ad803" y="303.082415"/>
     <use style="fill:#f45deb;fill-opacity:0.8;stroke:#f45deb;stroke-opacity:0.8;" x="300.750469" xlink:href="#mc1e60ad803" y="302.947329"/>
    </g>
   </g>
   <g id="PathCollection_14">
    <defs>
     <path d="M 0 3 
C 0.795609 3 1.55874 2.683901 2.12132 2.12132 
C 2.683901 1.55874 3 0.795609 3 0 
C 3 -0.795609 2.683901 -1.55874 2.12132 -2.12132 
C 1.55874 -2.683901 0.795609 -3 0 -3 
C -0.795609 -3 -1.55874 -2.683901 -2.12132 -2.12132 
C -2.683901 -1.55874 -3 -0.795609 -3 0 
C -3 0.795609 -2.683901 1.55874 -2.12132 2.12132 
C -1.55874 2.683901 -0.795609 3 0 3 
z
" id="mb83add9a01" style="stroke:#f669ba;stroke-opacity:0.8;"/>
    </defs>
    <g clip-path="url(#pa8437b8660)">
     <use style="fill:#f669ba;fill-opacity:0.8;stroke:#f669ba;stroke-opacity:0.8;" x="71.11851" xlink:href="#mb83add9a01" y="302.869018"/>
     <use style="fill:#f669ba;fill-opacity:0.8;stroke:#f669ba;stroke-opacity:0.8;" x="109.390503" xlink:href="#mb83add9a01" y="301.286855"/>
     <use style="fill:#f669ba;fill-opacity:0.8;stroke:#f669ba;stroke-opacity:0.8;" x="147.662497" xlink:href="#mb83add9a01" y="300.756318"/>
     <use style="fill:#f669ba;fill-opacity:0.8;stroke:#f669ba;stroke-opacity:0.8;" x="224.206483" xlink:href="#mb83add9a01" y="302.900363"/>
     <use style="fill:#f669ba;fill-opacity:0.8;stroke:#f669ba;stroke-opacity:0.8;" x="262.478476" xlink:href="#mb83add9a01" y="302.780004"/>
     <use style="fill:#f669ba;fill-opacity:0.8;stroke:#f669ba;stroke-opacity:0.8;" x="300.750469" xlink:href="#mb83add9a01" y="303.418745"/>
     <use style="fill:#f669ba;fill-opacity:0.8;stroke:#f669ba;stroke-opacity:0.8;" x="339.022462" xlink:href="#mb83add9a01" y="302.658742"/>
    </g>
   </g>
   <g id="line2d_1">
    <path clip-path="url(#pa8437b8660)" d="M 71.11851 192.371092 
L 73.824611 192.815433 
L 76.530711 193.259775 
L 79.236812 193.704116 
L 81.942913 194.148457 
L 84.649013 194.592798 
L 87.355114 195.037139 
L 90.061214 195.48148 
L 92.767315 195.925821 
L 95.473415 196.370162 
L 98.179516 196.814503 
L 100.885616 197.258844 
L 103.591717 197.703186 
L 106.297817 198.147527 
L 109.003918 198.591868 
L 111.710018 199.036209 
L 114.416119 199.48055 
L 117.122219 199.924891 
L 119.82832 200.369232 
L 122.53442 200.813573 
L 125.240521 201.257914 
L 127.946621 201.702255 
L 130.652722 202.146597 
L 133.358822 202.590938 
L 136.064923 203.035279 
L 138.771023 203.47962 
L 141.477124 203.923961 
L 144.183224 204.368302 
L 146.889325 204.812643 
L 149.595425 205.256984 
L 152.301526 205.701325 
L 155.007627 206.145666 
L 157.713727 206.590008 
L 160.419828 207.034349 
L 163.125928 207.47869 
L 165.832029 207.923031 
L 168.538129 208.367372 
L 171.24423 208.811713 
L 173.95033 209.256054 
L 176.656431 209.700395 
L 179.362531 210.144736 
L 182.068632 210.589077 
L 184.774732 211.033419 
L 187.480833 211.47776 
L 190.186933 211.922101 
L 192.893034 212.366442 
L 195.599134 212.810783 
L 198.305235 213.255124 
L 201.011335 213.699465 
L 203.717436 214.143806 
L 206.423536 214.588147 
L 209.129637 215.032488 
L 211.835737 215.476829 
L 214.541838 215.921171 
L 217.247938 216.365512 
L 219.954039 216.809853 
L 222.660139 217.254194 
L 225.36624 217.698535 
L 228.072341 218.142876 
L 230.778441 218.587217 
L 233.484542 219.031558 
L 236.190642 219.475899 
L 238.896743 219.92024 
L 241.602843 220.364582 
L 244.308944 220.808923 
L 247.015044 221.253264 
L 249.721145 221.697605 
L 252.427245 222.141946 
L 255.133346 222.586287 
L 257.839446 223.030628 
L 260.545547 223.474969 
L 263.251647 223.91931 
L 265.957748 224.363651 
L 268.663848 224.807993 
L 271.369949 225.252334 
L 274.076049 225.696675 
L 276.78215 226.141016 
L 279.48825 226.585357 
L 282.194351 227.029698 
L 284.900451 227.474039 
L 287.606552 227.91838 
L 290.312652 228.362721 
L 293.018753 228.807062 
L 295.724853 229.251404 
L 298.430954 229.695745 
L 301.137055 230.140086 
L 303.843155 230.584427 
L 306.549256 231.028768 
L 309.255356 231.473109 
L 311.961457 231.91745 
L 314.667557 232.361791 
L 317.373658 232.806132 
L 320.079758 233.250473 
L 322.785859 233.694815 
L 325.491959 234.139156 
L 328.19806 234.583497 
L 330.90416 235.027838 
L 333.610261 235.472179 
L 336.316361 235.91652 
L 339.022462 236.360861 
" style="fill:none;stroke:#f77189;stroke-linecap:round;stroke-width:2.25;"/>
   </g>
   <g id="line2d_2">
    <path clip-path="url(#pa8437b8660)" d="M 71.11851 282.486467 
L 73.824611 282.696701 
L 76.530711 282.906935 
L 79.236812 283.117169 
L 81.942913 283.327403 
L 84.649013 283.537637 
L 87.355114 283.747871 
L 90.061214 283.958105 
L 92.767315 284.168339 
L 95.473415 284.378574 
L 98.179516 284.588808 
L 100.885616 284.799042 
L 103.591717 285.009276 
L 106.297817 285.21951 
L 109.003918 285.429744 
L 111.710018 285.639978 
L 114.416119 285.850212 
L 117.122219 286.060446 
L 119.82832 286.27068 
L 122.53442 286.480914 
L 125.240521 286.691148 
L 127.946621 286.901383 
L 130.652722 287.111617 
L 133.358822 287.321851 
L 136.064923 287.532085 
L 138.771023 287.742319 
L 141.477124 287.952553 
L 144.183224 288.162787 
L 146.889325 288.373021 
L 149.595425 288.583255 
L 152.301526 288.793489 
L 155.007627 289.003723 
L 157.713727 289.213957 
L 160.419828 289.424192 
L 163.125928 289.634426 
L 165.832029 289.84466 
L 168.538129 290.054894 
L 171.24423 290.265128 
L 173.95033 290.475362 
L 176.656431 290.685596 
L 179.362531 290.89583 
L 182.068632 291.106064 
L 184.774732 291.316298 
L 187.480833 291.526532 
L 190.186933 291.736766 
L 192.893034 291.947001 
L 195.599134 292.157235 
L 198.305235 292.367469 
L 201.011335 292.577703 
L 203.717436 292.787937 
L 206.423536 292.998171 
L 209.129637 293.208405 
L 211.835737 293.418639 
L 214.541838 293.628873 
L 217.247938 293.839107 
L 219.954039 294.049341 
L 222.660139 294.259575 
L 225.36624 294.46981 
L 228.072341 294.680044 
L 230.778441 294.890278 
L 233.484542 295.100512 
L 236.190642 295.310746 
L 238.896743 295.52098 
L 241.602843 295.731214 
L 244.308944 295.941448 
L 247.015044 296.151682 
L 249.721145 296.361916 
L 252.427245 296.57215 
L 255.133346 296.782384 
L 257.839446 296.992619 
L 260.545547 297.202853 
L 263.251647 297.413087 
L 265.957748 297.623321 
L 268.663848 297.833555 
L 271.369949 298.043789 
L 274.076049 298.254023 
L 276.78215 298.464257 
L 279.48825 298.674491 
L 282.194351 298.884725 
L 284.900451 299.094959 
L 287.606552 299.305193 
L 290.312652 299.515428 
L 293.018753 299.725662 
L 295.724853 299.935896 
L 298.430954 300.14613 
L 301.137055 300.356364 
L 303.843155 300.566598 
L 306.549256 300.776832 
L 309.255356 300.987066 
L 311.961457 301.1973 
L 314.667557 301.407534 
L 317.373658 301.617768 
L 320.079758 301.828002 
L 322.785859 302.038237 
L 325.491959 302.248471 
L 328.19806 302.458705 
L 330.90416 302.668939 
L 333.610261 302.879173 
L 336.316361 303.089407 
L 339.022462 303.299641 
" style="fill:none;stroke:#ef7d32;stroke-linecap:round;stroke-width:2.25;"/>
   </g>
   <g id="line2d_3">
    <path clip-path="url(#pa8437b8660)" d="M 109.390503 292.63228 
L 111.710018 291.754792 
L 114.029533 290.877305 
L 116.349048 289.999817 
L 118.668562 289.12233 
L 120.988077 288.244843 
L 123.307592 287.367355 
L 125.627107 286.489868 
L 127.946621 285.61238 
L 130.266136 284.734893 
L 132.585651 283.857405 
L 134.905166 282.979918 
L 137.22468 282.102431 
L 139.544195 281.224943 
L 141.86371 280.347456 
L 144.183224 279.469968 
L 146.502739 278.592481 
L 148.822254 277.714993 
L 151.141769 276.837506 
L 153.461283 275.960019 
L 155.780798 275.082531 
L 158.100313 274.205044 
L 160.419828 273.327556 
L 162.739342 272.450069 
L 165.058857 271.572581 
L 167.378372 270.695094 
L 169.697886 269.817607 
L 172.017401 268.940119 
L 174.336916 268.062632 
L 176.656431 267.185144 
L 178.975945 266.307657 
L 181.29546 265.430169 
L 183.614975 264.552682 
L 185.93449 263.675195 
L 188.254004 262.797707 
L 190.573519 261.92022 
L 192.893034 261.042732 
L 195.212549 260.165245 
L 197.532063 259.287757 
L 199.851578 258.41027 
L 202.171093 257.532783 
L 204.490607 256.655295 
L 206.810122 255.777808 
L 209.129637 254.90032 
L 211.449152 254.022833 
L 213.768666 253.145346 
L 216.088181 252.267858 
L 218.407696 251.390371 
L 220.727211 250.512883 
L 223.046725 249.635396 
L 225.36624 248.757908 
L 227.685755 247.880421 
L 230.005269 247.002934 
L 232.324784 246.125446 
L 234.644299 245.247959 
L 236.963814 244.370471 
L 239.283328 243.492984 
L 241.602843 242.615496 
L 243.922358 241.738009 
L 246.241873 240.860522 
L 248.561387 239.983034 
L 250.880902 239.105547 
L 253.200417 238.228059 
L 255.519931 237.350572 
L 257.839446 236.473084 
L 260.158961 235.595597 
L 262.478476 234.71811 
L 264.79799 233.840622 
L 267.117505 232.963135 
L 269.43702 232.085647 
L 271.756535 231.20816 
L 274.076049 230.330672 
L 276.395564 229.453185 
L 278.715079 228.575698 
L 281.034594 227.69821 
L 283.354108 226.820723 
L 285.673623 225.943235 
L 287.993138 225.065748 
L 290.312652 224.18826 
L 292.632167 223.310773 
L 294.951682 222.433286 
L 297.271197 221.555798 
L 299.590711 220.678311 
L 301.910226 219.800823 
L 304.229741 218.923336 
L 306.549256 218.045848 
L 308.86877 217.168361 
L 311.188285 216.290874 
L 313.5078 215.413386 
L 315.827314 214.535899 
L 318.146829 213.658411 
L 320.466344 212.780924 
L 322.785859 211.903436 
L 325.105373 211.025949 
L 327.424888 210.148462 
L 329.744403 209.270974 
L 332.063918 208.393487 
L 334.383432 207.515999 
L 336.702947 206.638512 
L 339.022462 205.761024 
" style="fill:none;stroke:#c69432;stroke-linecap:round;stroke-width:2.25;"/>
   </g>
   <g id="line2d_4">
    <path clip-path="url(#pa8437b8660)" d="M 71.11851 274.392337 
L 73.824611 274.515634 
L 76.530711 274.638932 
L 79.236812 274.762229 
L 81.942913 274.885527 
L 84.649013 275.008824 
L 87.355114 275.132122 
L 90.061214 275.255419 
L 92.767315 275.378717 
L 95.473415 275.502014 
L 98.179516 275.625312 
L 100.885616 275.748609 
L 103.591717 275.871907 
L 106.297817 275.995204 
L 109.003918 276.118502 
L 111.710018 276.241799 
L 114.416119 276.365097 
L 117.122219 276.488394 
L 119.82832 276.611692 
L 122.53442 276.734989 
L 125.240521 276.858287 
L 127.946621 276.981584 
L 130.652722 277.104882 
L 133.358822 277.228179 
L 136.064923 277.351477 
L 138.771023 277.474774 
L 141.477124 277.598072 
L 144.183224 277.721369 
L 146.889325 277.844667 
L 149.595425 277.967965 
L 152.301526 278.091262 
L 155.007627 278.21456 
L 157.713727 278.337857 
L 160.419828 278.461155 
L 163.125928 278.584452 
L 165.832029 278.70775 
L 168.538129 278.831047 
L 171.24423 278.954345 
L 173.95033 279.077642 
L 176.656431 279.20094 
L 179.362531 279.324237 
L 182.068632 279.447535 
L 184.774732 279.570832 
L 187.480833 279.69413 
L 190.186933 279.817427 
L 192.893034 279.940725 
L 195.599134 280.064022 
L 198.305235 280.18732 
L 201.011335 280.310617 
L 203.717436 280.433915 
L 206.423536 280.557212 
L 209.129637 280.68051 
L 211.835737 280.803807 
L 214.541838 280.927105 
L 217.247938 281.050402 
L 219.954039 281.1737 
L 222.660139 281.296997 
L 225.36624 281.420295 
L 228.072341 281.543592 
L 230.778441 281.66689 
L 233.484542 281.790187 
L 236.190642 281.913485 
L 238.896743 282.036782 
L 241.602843 282.16008 
L 244.308944 282.283377 
L 247.015044 282.406675 
L 249.721145 282.529972 
L 252.427245 282.65327 
L 255.133346 282.776567 
L 257.839446 282.899865 
L 260.545547 283.023162 
L 263.251647 283.14646 
L 265.957748 283.269757 
L 268.663848 283.393055 
L 271.369949 283.516353 
L 274.076049 283.63965 
L 276.78215 283.762948 
L 279.48825 283.886245 
L 282.194351 284.009543 
L 284.900451 284.13284 
L 287.606552 284.256138 
L 290.312652 284.379435 
L 293.018753 284.502733 
L 295.724853 284.62603 
L 298.430954 284.749328 
L 301.137055 284.872625 
L 303.843155 284.995923 
L 306.549256 285.11922 
L 309.255356 285.242518 
L 311.961457 285.365815 
L 314.667557 285.489113 
L 317.373658 285.61241 
L 320.079758 285.735708 
L 322.785859 285.859005 
L 325.491959 285.982303 
L 328.19806 286.1056 
L 330.90416 286.228898 
L 333.610261 286.352195 
L 336.316361 286.475493 
L 339.022462 286.59879 
" style="fill:none;stroke:#a79f31;stroke-linecap:round;stroke-width:2.25;"/>
   </g>
   <g id="line2d_5">
    <path clip-path="url(#pa8437b8660)" d="M 71.11851 294.075526 
L 73.824611 294.084973 
L 76.530711 294.094421 
L 79.236812 294.103869 
L 81.942913 294.113316 
L 84.649013 294.122764 
L 87.355114 294.132211 
L 90.061214 294.141659 
L 92.767315 294.151106 
L 95.473415 294.160554 
L 98.179516 294.170002 
L 100.885616 294.179449 
L 103.591717 294.188897 
L 106.297817 294.198344 
L 109.003918 294.207792 
L 111.710018 294.217239 
L 114.416119 294.226687 
L 117.122219 294.236135 
L 119.82832 294.245582 
L 122.53442 294.25503 
L 125.240521 294.264477 
L 127.946621 294.273925 
L 130.652722 294.283373 
L 133.358822 294.29282 
L 136.064923 294.302268 
L 138.771023 294.311715 
L 141.477124 294.321163 
L 144.183224 294.33061 
L 146.889325 294.340058 
L 149.595425 294.349506 
L 152.301526 294.358953 
L 155.007627 294.368401 
L 157.713727 294.377848 
L 160.419828 294.387296 
L 163.125928 294.396744 
L 165.832029 294.406191 
L 168.538129 294.415639 
L 171.24423 294.425086 
L 173.95033 294.434534 
L 176.656431 294.443981 
L 179.362531 294.453429 
L 182.068632 294.462877 
L 184.774732 294.472324 
L 187.480833 294.481772 
L 190.186933 294.491219 
L 192.893034 294.500667 
L 195.599134 294.510114 
L 198.305235 294.519562 
L 201.011335 294.52901 
L 203.717436 294.538457 
L 206.423536 294.547905 
L 209.129637 294.557352 
L 211.835737 294.5668 
L 214.541838 294.576248 
L 217.247938 294.585695 
L 219.954039 294.595143 
L 222.660139 294.60459 
L 225.36624 294.614038 
L 228.072341 294.623485 
L 230.778441 294.632933 
L 233.484542 294.642381 
L 236.190642 294.651828 
L 238.896743 294.661276 
L 241.602843 294.670723 
L 244.308944 294.680171 
L 247.015044 294.689619 
L 249.721145 294.699066 
L 252.427245 294.708514 
L 255.133346 294.717961 
L 257.839446 294.727409 
L 260.545547 294.736856 
L 263.251647 294.746304 
L 265.957748 294.755752 
L 268.663848 294.765199 
L 271.369949 294.774647 
L 274.076049 294.784094 
L 276.78215 294.793542 
L 279.48825 294.802989 
L 282.194351 294.812437 
L 284.900451 294.821885 
L 287.606552 294.831332 
L 290.312652 294.84078 
L 293.018753 294.850227 
L 295.724853 294.859675 
L 298.430954 294.869123 
L 301.137055 294.87857 
L 303.843155 294.888018 
L 306.549256 294.897465 
L 309.255356 294.906913 
L 311.961457 294.91636 
L 314.667557 294.925808 
L 317.373658 294.935256 
L 320.079758 294.944703 
L 322.785859 294.954151 
L 325.491959 294.963598 
L 328.19806 294.973046 
L 330.90416 294.982494 
L 333.610261 294.991941 
L 336.316361 295.001389 
L 339.022462 295.010836 
" style="fill:none;stroke:#82a931;stroke-linecap:round;stroke-width:2.25;"/>
   </g>
   <g id="line2d_6">
    <path clip-path="url(#pa8437b8660)" d="M 109.390503 227.467695 
L 111.710018 227.756169 
L 114.029533 228.044643 
L 116.349048 228.333116 
L 118.668562 228.62159 
L 120.988077 228.910064 
L 123.307592 229.198538 
L 125.627107 229.487012 
L 127.946621 229.775486 
L 130.266136 230.063959 
L 132.585651 230.352433 
L 134.905166 230.640907 
L 137.22468 230.929381 
L 139.544195 231.217855 
L 141.86371 231.506329 
L 144.183224 231.794802 
L 146.502739 232.083276 
L 148.822254 232.37175 
L 151.141769 232.660224 
L 153.461283 232.948698 
L 155.780798 233.237172 
L 158.100313 233.525645 
L 160.419828 233.814119 
L 162.739342 234.102593 
L 165.058857 234.391067 
L 167.378372 234.679541 
L 169.697886 234.968015 
L 172.017401 235.256488 
L 174.336916 235.544962 
L 176.656431 235.833436 
L 178.975945 236.12191 
L 181.29546 236.410384 
L 183.614975 236.698858 
L 185.93449 236.987331 
L 188.254004 237.275805 
L 190.573519 237.564279 
L 192.893034 237.852753 
L 195.212549 238.141227 
L 197.532063 238.429701 
L 199.851578 238.718174 
L 202.171093 239.006648 
L 204.490607 239.295122 
L 206.810122 239.583596 
L 209.129637 239.87207 
L 211.449152 240.160544 
L 213.768666 240.449017 
L 216.088181 240.737491 
L 218.407696 241.025965 
L 220.727211 241.314439 
L 223.046725 241.602913 
L 225.36624 241.891387 
L 227.685755 242.17986 
L 230.005269 242.468334 
L 232.324784 242.756808 
L 234.644299 243.045282 
L 236.963814 243.333756 
L 239.283328 243.62223 
L 241.602843 243.910703 
L 243.922358 244.199177 
L 246.241873 244.487651 
L 248.561387 244.776125 
L 250.880902 245.064599 
L 253.200417 245.353073 
L 255.519931 245.641546 
L 257.839446 245.93002 
L 260.158961 246.218494 
L 262.478476 246.506968 
L 264.79799 246.795442 
L 267.117505 247.083916 
L 269.43702 247.372389 
L 271.756535 247.660863 
L 274.076049 247.949337 
L 276.395564 248.237811 
L 278.715079 248.526285 
L 281.034594 248.814759 
L 283.354108 249.103232 
L 285.673623 249.391706 
L 287.993138 249.68018 
L 290.312652 249.968654 
L 292.632167 250.257128 
L 294.951682 250.545602 
L 297.271197 250.834075 
L 299.590711 251.122549 
L 301.910226 251.411023 
L 304.229741 251.699497 
L 306.549256 251.987971 
L 308.86877 252.276445 
L 311.188285 252.564918 
L 313.5078 252.853392 
L 315.827314 253.141866 
L 318.146829 253.43034 
L 320.466344 253.718814 
L 322.785859 254.007288 
L 325.105373 254.295761 
L 327.424888 254.584235 
L 329.744403 254.872709 
L 332.063918 255.161183 
L 334.383432 255.449657 
L 336.702947 255.73813 
L 339.022462 256.026604 
" style="fill:none;stroke:#32b24e;stroke-linecap:round;stroke-width:2.25;"/>
   </g>
   <g id="line2d_7">
    <path clip-path="url(#pa8437b8660)" d="M 71.11851 265.727641 
L 73.824611 265.09339 
L 76.530711 264.45914 
L 79.236812 263.824889 
L 81.942913 263.190639 
L 84.649013 262.556388 
L 87.355114 261.922137 
L 90.061214 261.287887 
L 92.767315 260.653636 
L 95.473415 260.019386 
L 98.179516 259.385135 
L 100.885616 258.750885 
L 103.591717 258.116634 
L 106.297817 257.482383 
L 109.003918 256.848133 
L 111.710018 256.213882 
L 114.416119 255.579632 
L 117.122219 254.945381 
L 119.82832 254.311131 
L 122.53442 253.67688 
L 125.240521 253.042629 
L 127.946621 252.408379 
L 130.652722 251.774128 
L 133.358822 251.139878 
L 136.064923 250.505627 
L 138.771023 249.871377 
L 141.477124 249.237126 
L 144.183224 248.602875 
L 146.889325 247.968625 
L 149.595425 247.334374 
L 152.301526 246.700124 
L 155.007627 246.065873 
L 157.713727 245.431623 
L 160.419828 244.797372 
L 163.125928 244.163122 
L 165.832029 243.528871 
L 168.538129 242.89462 
L 171.24423 242.26037 
L 173.95033 241.626119 
L 176.656431 240.991869 
L 179.362531 240.357618 
L 182.068632 239.723368 
L 184.774732 239.089117 
L 187.480833 238.454866 
L 190.186933 237.820616 
L 192.893034 237.186365 
L 195.599134 236.552115 
L 198.305235 235.917864 
L 201.011335 235.283614 
L 203.717436 234.649363 
L 206.423536 234.015112 
L 209.129637 233.380862 
L 211.835737 232.746611 
L 214.541838 232.112361 
L 217.247938 231.47811 
L 219.954039 230.84386 
L 222.660139 230.209609 
L 225.36624 229.575359 
L 228.072341 228.941108 
L 230.778441 228.306857 
L 233.484542 227.672607 
L 236.190642 227.038356 
L 238.896743 226.404106 
L 241.602843 225.769855 
L 244.308944 225.135605 
L 247.015044 224.501354 
L 249.721145 223.867103 
L 252.427245 223.232853 
L 255.133346 222.598602 
L 257.839446 221.964352 
L 260.545547 221.330101 
L 263.251647 220.695851 
L 265.957748 220.0616 
L 268.663848 219.427349 
L 271.369949 218.793099 
L 274.076049 218.158848 
L 276.78215 217.524598 
L 279.48825 216.890347 
L 282.194351 216.256097 
L 284.900451 215.621846 
L 287.606552 214.987595 
L 290.312652 214.353345 
L 293.018753 213.719094 
L 295.724853 213.084844 
L 298.430954 212.450593 
L 301.137055 211.816343 
L 303.843155 211.182092 
L 306.549256 210.547842 
L 309.255356 209.913591 
L 311.961457 209.27934 
L 314.667557 208.64509 
L 317.373658 208.010839 
L 320.079758 207.376589 
L 322.785859 206.742338 
L 325.491959 206.108088 
L 328.19806 205.473837 
L 330.90416 204.839586 
L 333.610261 204.205336 
L 336.316361 203.571085 
L 339.022462 202.936835 
" style="fill:none;stroke:#34af8a;stroke-linecap:round;stroke-width:2.25;"/>
   </g>
   <g id="line2d_8">
    <path clip-path="url(#pa8437b8660)" d="M 109.390503 284.854148 
L 111.710018 284.137329 
L 114.029533 283.420509 
L 116.349048 282.70369 
L 118.668562 281.98687 
L 120.988077 281.270051 
L 123.307592 280.553231 
L 125.627107 279.836412 
L 127.946621 279.119592 
L 130.266136 278.402773 
L 132.585651 277.685953 
L 134.905166 276.969134 
L 137.22468 276.252315 
L 139.544195 275.535495 
L 141.86371 274.818676 
L 144.183224 274.101856 
L 146.502739 273.385037 
L 148.822254 272.668217 
L 151.141769 271.951398 
L 153.461283 271.234578 
L 155.780798 270.517759 
L 158.100313 269.800939 
L 160.419828 269.08412 
L 162.739342 268.3673 
L 165.058857 267.650481 
L 167.378372 266.933661 
L 169.697886 266.216842 
L 172.017401 265.500022 
L 174.336916 264.783203 
L 176.656431 264.066383 
L 178.975945 263.349564 
L 181.29546 262.632744 
L 183.614975 261.915925 
L 185.93449 261.199105 
L 188.254004 260.482286 
L 190.573519 259.765466 
L 192.893034 259.048647 
L 195.212549 258.331828 
L 197.532063 257.615008 
L 199.851578 256.898189 
L 202.171093 256.181369 
L 204.490607 255.46455 
L 206.810122 254.74773 
L 209.129637 254.030911 
L 211.449152 253.314091 
L 213.768666 252.597272 
L 216.088181 251.880452 
L 218.407696 251.163633 
L 220.727211 250.446813 
L 223.046725 249.729994 
L 225.36624 249.013174 
L 227.685755 248.296355 
L 230.005269 247.579535 
L 232.324784 246.862716 
L 234.644299 246.145896 
L 236.963814 245.429077 
L 239.283328 244.712257 
L 241.602843 243.995438 
L 243.922358 243.278618 
L 246.241873 242.561799 
L 248.561387 241.844979 
L 250.880902 241.12816 
L 253.200417 240.411341 
L 255.519931 239.694521 
L 257.839446 238.977702 
L 260.158961 238.260882 
L 262.478476 237.544063 
L 264.79799 236.827243 
L 267.117505 236.110424 
L 269.43702 235.393604 
L 271.756535 234.676785 
L 274.076049 233.959965 
L 276.395564 233.243146 
L 278.715079 232.526326 
L 281.034594 231.809507 
L 283.354108 231.092687 
L 285.673623 230.375868 
L 287.993138 229.659048 
L 290.312652 228.942229 
L 292.632167 228.225409 
L 294.951682 227.50859 
L 297.271197 226.79177 
L 299.590711 226.074951 
L 301.910226 225.358131 
L 304.229741 224.641312 
L 306.549256 223.924492 
L 308.86877 223.207673 
L 311.188285 222.490854 
L 313.5078 221.774034 
L 315.827314 221.057215 
L 318.146829 220.340395 
L 320.466344 219.623576 
L 322.785859 218.906756 
L 325.105373 218.189937 
L 327.424888 217.473117 
L 329.744403 216.756298 
L 332.063918 216.039478 
L 334.383432 215.322659 
L 336.702947 214.605839 
L 339.022462 213.88902 
" style="fill:none;stroke:#36ada4;stroke-linecap:round;stroke-width:2.25;"/>
   </g>
   <g id="line2d_9">
    <path clip-path="url(#pa8437b8660)" d="M 71.11851 232.031593 
L 73.438025 232.19281 
L 75.75754 232.354028 
L 78.077055 232.515246 
L 80.396569 232.676463 
L 82.716084 232.837681 
L 85.035599 232.998898 
L 87.355114 233.160116 
L 89.674628 233.321333 
L 91.994143 233.482551 
L 94.313658 233.643768 
L 96.633172 233.804986 
L 98.952687 233.966204 
L 101.272202 234.127421 
L 103.591717 234.288639 
L 105.911231 234.449856 
L 108.230746 234.611074 
L 110.550261 234.772291 
L 112.869776 234.933509 
L 115.18929 235.094727 
L 117.508805 235.255944 
L 119.82832 235.417162 
L 122.147835 235.578379 
L 124.467349 235.739597 
L 126.786864 235.900814 
L 129.106379 236.062032 
L 131.425893 236.223249 
L 133.745408 236.384467 
L 136.064923 236.545685 
L 138.384438 236.706902 
L 140.703952 236.86812 
L 143.023467 237.029337 
L 145.342982 237.190555 
L 147.662497 237.351772 
L 149.982011 237.51299 
L 152.301526 237.674208 
L 154.621041 237.835425 
L 156.940555 237.996643 
L 159.26007 238.15786 
L 161.579585 238.319078 
L 163.8991 238.480295 
L 166.218614 238.641513 
L 168.538129 238.80273 
L 170.857644 238.963948 
L 173.177159 239.125166 
L 175.496673 239.286383 
L 177.816188 239.447601 
L 180.135703 239.608818 
L 182.455217 239.770036 
L 184.774732 239.931253 
L 187.094247 240.092471 
L 189.413762 240.253689 
L 191.733276 240.414906 
L 194.052791 240.576124 
L 196.372306 240.737341 
L 198.691821 240.898559 
L 201.011335 241.059776 
L 203.33085 241.220994 
L 205.650365 241.382211 
L 207.96988 241.543429 
L 210.289394 241.704647 
L 212.608909 241.865864 
L 214.928424 242.027082 
L 217.247938 242.188299 
L 219.567453 242.349517 
L 221.886968 242.510734 
L 224.206483 242.671952 
L 226.525997 242.83317 
L 228.845512 242.994387 
L 231.165027 243.155605 
L 233.484542 243.316822 
L 235.804056 243.47804 
L 238.123571 243.639257 
L 240.443086 243.800475 
L 242.7626 243.961692 
L 245.082115 244.12291 
L 247.40163 244.284128 
L 249.721145 244.445345 
L 252.040659 244.606563 
L 254.360174 244.76778 
L 256.679689 244.928998 
L 258.999204 245.090215 
L 261.318718 245.251433 
L 263.638233 245.412651 
L 265.957748 245.573868 
L 268.277263 245.735086 
L 270.596777 245.896303 
L 272.916292 246.057521 
L 275.235807 246.218738 
L 277.555321 246.379956 
L 279.874836 246.541173 
L 282.194351 246.702391 
L 284.513866 246.863609 
L 286.83338 247.024826 
L 289.152895 247.186044 
L 291.47241 247.347261 
L 293.791925 247.508479 
L 296.111439 247.669696 
L 298.430954 247.830914 
L 300.750469 247.992132 
" style="fill:none;stroke:#37aabb;stroke-linecap:round;stroke-width:2.25;"/>
   </g>
   <g id="line2d_10">
    <path clip-path="url(#pa8437b8660)" d="M 71.11851 285.042501 
L 73.824611 284.911744 
L 76.530711 284.780988 
L 79.236812 284.650231 
L 81.942913 284.519475 
L 84.649013 284.388718 
L 87.355114 284.257961 
L 90.061214 284.127205 
L 92.767315 283.996448 
L 95.473415 283.865691 
L 98.179516 283.734935 
L 100.885616 283.604178 
L 103.591717 283.473422 
L 106.297817 283.342665 
L 109.003918 283.211908 
L 111.710018 283.081152 
L 114.416119 282.950395 
L 117.122219 282.819639 
L 119.82832 282.688882 
L 122.53442 282.558125 
L 125.240521 282.427369 
L 127.946621 282.296612 
L 130.652722 282.165856 
L 133.358822 282.035099 
L 136.064923 281.904342 
L 138.771023 281.773586 
L 141.477124 281.642829 
L 144.183224 281.512072 
L 146.889325 281.381316 
L 149.595425 281.250559 
L 152.301526 281.119803 
L 155.007627 280.989046 
L 157.713727 280.858289 
L 160.419828 280.727533 
L 163.125928 280.596776 
L 165.832029 280.46602 
L 168.538129 280.335263 
L 171.24423 280.204506 
L 173.95033 280.07375 
L 176.656431 279.942993 
L 179.362531 279.812237 
L 182.068632 279.68148 
L 184.774732 279.550723 
L 187.480833 279.419967 
L 190.186933 279.28921 
L 192.893034 279.158453 
L 195.599134 279.027697 
L 198.305235 278.89694 
L 201.011335 278.766184 
L 203.717436 278.635427 
L 206.423536 278.50467 
L 209.129637 278.373914 
L 211.835737 278.243157 
L 214.541838 278.112401 
L 217.247938 277.981644 
L 219.954039 277.850887 
L 222.660139 277.720131 
L 225.36624 277.589374 
L 228.072341 277.458618 
L 230.778441 277.327861 
L 233.484542 277.197104 
L 236.190642 277.066348 
L 238.896743 276.935591 
L 241.602843 276.804834 
L 244.308944 276.674078 
L 247.015044 276.543321 
L 249.721145 276.412565 
L 252.427245 276.281808 
L 255.133346 276.151051 
L 257.839446 276.020295 
L 260.545547 275.889538 
L 263.251647 275.758782 
L 265.957748 275.628025 
L 268.663848 275.497268 
L 271.369949 275.366512 
L 274.076049 275.235755 
L 276.78215 275.104999 
L 279.48825 274.974242 
L 282.194351 274.843485 
L 284.900451 274.712729 
L 287.606552 274.581972 
L 290.312652 274.451215 
L 293.018753 274.320459 
L 295.724853 274.189702 
L 298.430954 274.058946 
L 301.137055 273.928189 
L 303.843155 273.797432 
L 306.549256 273.666676 
L 309.255356 273.535919 
L 311.961457 273.405163 
L 314.667557 273.274406 
L 317.373658 273.143649 
L 320.079758 273.012893 
L 322.785859 272.882136 
L 325.491959 272.751379 
L 328.19806 272.620623 
L 330.90416 272.489866 
L 333.610261 272.35911 
L 336.316361 272.228353 
L 339.022462 272.097596 
" style="fill:none;stroke:#3aa6da;stroke-linecap:round;stroke-width:2.25;"/>
   </g>
   <g id="line2d_11">
    <path clip-path="url(#pa8437b8660)" d="M 71.11851 297.999247 
L 73.824611 297.389321 
L 76.530711 296.779396 
L 79.236812 296.16947 
L 81.942913 295.559544 
L 84.649013 294.949618 
L 87.355114 294.339692 
L 90.061214 293.729766 
L 92.767315 293.11984 
L 95.473415 292.509914 
L 98.179516 291.899988 
L 100.885616 291.290062 
L 103.591717 290.680136 
L 106.297817 290.070211 
L 109.003918 289.460285 
L 111.710018 288.850359 
L 114.416119 288.240433 
L 117.122219 287.630507 
L 119.82832 287.020581 
L 122.53442 286.410655 
L 125.240521 285.800729 
L 127.946621 285.190803 
L 130.652722 284.580877 
L 133.358822 283.970951 
L 136.064923 283.361026 
L 138.771023 282.7511 
L 141.477124 282.141174 
L 144.183224 281.531248 
L 146.889325 280.921322 
L 149.595425 280.311396 
L 152.301526 279.70147 
L 155.007627 279.091544 
L 157.713727 278.481618 
L 160.419828 277.871692 
L 163.125928 277.261766 
L 165.832029 276.651841 
L 168.538129 276.041915 
L 171.24423 275.431989 
L 173.95033 274.822063 
L 176.656431 274.212137 
L 179.362531 273.602211 
L 182.068632 272.992285 
L 184.774732 272.382359 
L 187.480833 271.772433 
L 190.186933 271.162507 
L 192.893034 270.552581 
L 195.599134 269.942655 
L 198.305235 269.33273 
L 201.011335 268.722804 
L 203.717436 268.112878 
L 206.423536 267.502952 
L 209.129637 266.893026 
L 211.835737 266.2831 
L 214.541838 265.673174 
L 217.247938 265.063248 
L 219.954039 264.453322 
L 222.660139 263.843396 
L 225.36624 263.23347 
L 228.072341 262.623545 
L 230.778441 262.013619 
L 233.484542 261.403693 
L 236.190642 260.793767 
L 238.896743 260.183841 
L 241.602843 259.573915 
L 244.308944 258.963989 
L 247.015044 258.354063 
L 249.721145 257.744137 
L 252.427245 257.134211 
L 255.133346 256.524285 
L 257.839446 255.91436 
L 260.545547 255.304434 
L 263.251647 254.694508 
L 265.957748 254.084582 
L 268.663848 253.474656 
L 271.369949 252.86473 
L 274.076049 252.254804 
L 276.78215 251.644878 
L 279.48825 251.034952 
L 282.194351 250.425026 
L 284.900451 249.8151 
L 287.606552 249.205174 
L 290.312652 248.595249 
L 293.018753 247.985323 
L 295.724853 247.375397 
L 298.430954 246.765471 
L 301.137055 246.155545 
L 303.843155 245.545619 
L 306.549256 244.935693 
L 309.255356 244.325767 
L 311.961457 243.715841 
L 314.667557 243.105915 
L 317.373658 242.495989 
L 320.079758 241.886064 
L 322.785859 241.276138 
L 325.491959 240.666212 
L 328.19806 240.056286 
L 330.90416 239.44636 
L 333.610261 238.836434 
L 336.316361 238.226508 
L 339.022462 237.616582 
" style="fill:none;stroke:#8197f4;stroke-linecap:round;stroke-width:2.25;"/>
   </g>
   <g id="line2d_12">
    <path clip-path="url(#pa8437b8660)" d="M 109.390503 268.98005 
L 111.710018 269.26905 
L 114.029533 269.55805 
L 116.349048 269.847051 
L 118.668562 270.136051 
L 120.988077 270.425051 
L 123.307592 270.714051 
L 125.627107 271.003051 
L 127.946621 271.292051 
L 130.266136 271.581051 
L 132.585651 271.870051 
L 134.905166 272.159052 
L 137.22468 272.448052 
L 139.544195 272.737052 
L 141.86371 273.026052 
L 144.183224 273.315052 
L 146.502739 273.604052 
L 148.822254 273.893052 
L 151.141769 274.182052 
L 153.461283 274.471053 
L 155.780798 274.760053 
L 158.100313 275.049053 
L 160.419828 275.338053 
L 162.739342 275.627053 
L 165.058857 275.916053 
L 167.378372 276.205053 
L 169.697886 276.494053 
L 172.017401 276.783054 
L 174.336916 277.072054 
L 176.656431 277.361054 
L 178.975945 277.650054 
L 181.29546 277.939054 
L 183.614975 278.228054 
L 185.93449 278.517054 
L 188.254004 278.806054 
L 190.573519 279.095055 
L 192.893034 279.384055 
L 195.212549 279.673055 
L 197.532063 279.962055 
L 199.851578 280.251055 
L 202.171093 280.540055 
L 204.490607 280.829055 
L 206.810122 281.118055 
L 209.129637 281.407056 
L 211.449152 281.696056 
L 213.768666 281.985056 
L 216.088181 282.274056 
L 218.407696 282.563056 
L 220.727211 282.852056 
L 223.046725 283.141056 
L 225.36624 283.430056 
L 227.685755 283.719057 
L 230.005269 284.008057 
L 232.324784 284.297057 
L 234.644299 284.586057 
L 236.963814 284.875057 
L 239.283328 285.164057 
L 241.602843 285.453057 
L 243.922358 285.742057 
L 246.241873 286.031058 
L 248.561387 286.320058 
L 250.880902 286.609058 
L 253.200417 286.898058 
L 255.519931 287.187058 
L 257.839446 287.476058 
L 260.158961 287.765058 
L 262.478476 288.054058 
L 264.79799 288.343059 
L 267.117505 288.632059 
L 269.43702 288.921059 
L 271.756535 289.210059 
L 274.076049 289.499059 
L 276.395564 289.788059 
L 278.715079 290.077059 
L 281.034594 290.366059 
L 283.354108 290.65506 
L 285.673623 290.94406 
L 287.993138 291.23306 
L 290.312652 291.52206 
L 292.632167 291.81106 
L 294.951682 292.10006 
L 297.271197 292.38906 
L 299.590711 292.67806 
L 301.910226 292.967061 
L 304.229741 293.256061 
L 306.549256 293.545061 
L 308.86877 293.834061 
L 311.188285 294.123061 
L 313.5078 294.412061 
L 315.827314 294.701061 
L 318.146829 294.990061 
L 320.466344 295.279062 
L 322.785859 295.568062 
L 325.105373 295.857062 
L 327.424888 296.146062 
L 329.744403 296.435062 
L 332.063918 296.724062 
L 334.383432 297.013062 
L 336.702947 297.302062 
L 339.022462 297.591063 
" style="fill:none;stroke:#c180f4;stroke-linecap:round;stroke-width:2.25;"/>
   </g>
   <g id="line2d_13">
    <path clip-path="url(#pa8437b8660)" d="M 71.11851 302.98258 
L 73.438025 302.979637 
L 75.75754 302.976693 
L 78.077055 302.973749 
L 80.396569 302.970805 
L 82.716084 302.967861 
L 85.035599 302.964917 
L 87.355114 302.961973 
L 89.674628 302.95903 
L 91.994143 302.956086 
L 94.313658 302.953142 
L 96.633172 302.950198 
L 98.952687 302.947254 
L 101.272202 302.94431 
L 103.591717 302.941366 
L 105.911231 302.938423 
L 108.230746 302.935479 
L 110.550261 302.932535 
L 112.869776 302.929591 
L 115.18929 302.926647 
L 117.508805 302.923703 
L 119.82832 302.920759 
L 122.147835 302.917816 
L 124.467349 302.914872 
L 126.786864 302.911928 
L 129.106379 302.908984 
L 131.425893 302.90604 
L 133.745408 302.903096 
L 136.064923 302.900152 
L 138.384438 302.897209 
L 140.703952 302.894265 
L 143.023467 302.891321 
L 145.342982 302.888377 
L 147.662497 302.885433 
L 149.982011 302.882489 
L 152.301526 302.879546 
L 154.621041 302.876602 
L 156.940555 302.873658 
L 159.26007 302.870714 
L 161.579585 302.86777 
L 163.8991 302.864826 
L 166.218614 302.861882 
L 168.538129 302.858939 
L 170.857644 302.855995 
L 173.177159 302.853051 
L 175.496673 302.850107 
L 177.816188 302.847163 
L 180.135703 302.844219 
L 182.455217 302.841275 
L 184.774732 302.838332 
L 187.094247 302.835388 
L 189.413762 302.832444 
L 191.733276 302.8295 
L 194.052791 302.826556 
L 196.372306 302.823612 
L 198.691821 302.820668 
L 201.011335 302.817725 
L 203.33085 302.814781 
L 205.650365 302.811837 
L 207.96988 302.808893 
L 210.289394 302.805949 
L 212.608909 302.803005 
L 214.928424 302.800062 
L 217.247938 302.797118 
L 219.567453 302.794174 
L 221.886968 302.79123 
L 224.206483 302.788286 
L 226.525997 302.785342 
L 228.845512 302.782398 
L 231.165027 302.779455 
L 233.484542 302.776511 
L 235.804056 302.773567 
L 238.123571 302.770623 
L 240.443086 302.767679 
L 242.7626 302.764735 
L 245.082115 302.761791 
L 247.40163 302.758848 
L 249.721145 302.755904 
L 252.040659 302.75296 
L 254.360174 302.750016 
L 256.679689 302.747072 
L 258.999204 302.744128 
L 261.318718 302.741184 
L 263.638233 302.738241 
L 265.957748 302.735297 
L 268.277263 302.732353 
L 270.596777 302.729409 
L 272.916292 302.726465 
L 275.235807 302.723521 
L 277.555321 302.720578 
L 279.874836 302.717634 
L 282.194351 302.71469 
L 284.513866 302.711746 
L 286.83338 302.708802 
L 289.152895 302.705858 
L 291.47241 302.702914 
L 293.791925 302.699971 
L 296.111439 302.697027 
L 298.430954 302.694083 
L 300.750469 302.691139 
" style="fill:none;stroke:#f45deb;stroke-linecap:round;stroke-width:2.25;"/>
   </g>
   <g id="line2d_14">
    <path clip-path="url(#pa8437b8660)" d="M 71.11851 301.706028 
L 73.824611 301.7194 
L 76.530711 301.732772 
L 79.236812 301.746143 
L 81.942913 301.759515 
L 84.649013 301.772887 
L 87.355114 301.786258 
L 90.061214 301.79963 
L 92.767315 301.813002 
L 95.473415 301.826373 
L 98.179516 301.839745 
L 100.885616 301.853117 
L 103.591717 301.866489 
L 106.297817 301.87986 
L 109.003918 301.893232 
L 111.710018 301.906604 
L 114.416119 301.919975 
L 117.122219 301.933347 
L 119.82832 301.946719 
L 122.53442 301.96009 
L 125.240521 301.973462 
L 127.946621 301.986834 
L 130.652722 302.000205 
L 133.358822 302.013577 
L 136.064923 302.026949 
L 138.771023 302.04032 
L 141.477124 302.053692 
L 144.183224 302.067064 
L 146.889325 302.080436 
L 149.595425 302.093807 
L 152.301526 302.107179 
L 155.007627 302.120551 
L 157.713727 302.133922 
L 160.419828 302.147294 
L 163.125928 302.160666 
L 165.832029 302.174037 
L 168.538129 302.187409 
L 171.24423 302.200781 
L 173.95033 302.214152 
L 176.656431 302.227524 
L 179.362531 302.240896 
L 182.068632 302.254268 
L 184.774732 302.267639 
L 187.480833 302.281011 
L 190.186933 302.294383 
L 192.893034 302.307754 
L 195.599134 302.321126 
L 198.305235 302.334498 
L 201.011335 302.347869 
L 203.717436 302.361241 
L 206.423536 302.374613 
L 209.129637 302.387984 
L 211.835737 302.401356 
L 214.541838 302.414728 
L 217.247938 302.4281 
L 219.954039 302.441471 
L 222.660139 302.454843 
L 225.36624 302.468215 
L 228.072341 302.481586 
L 230.778441 302.494958 
L 233.484542 302.50833 
L 236.190642 302.521701 
L 238.896743 302.535073 
L 241.602843 302.548445 
L 244.308944 302.561816 
L 247.015044 302.575188 
L 249.721145 302.58856 
L 252.427245 302.601931 
L 255.133346 302.615303 
L 257.839446 302.628675 
L 260.545547 302.642047 
L 263.251647 302.655418 
L 265.957748 302.66879 
L 268.663848 302.682162 
L 271.369949 302.695533 
L 274.076049 302.708905 
L 276.78215 302.722277 
L 279.48825 302.735648 
L 282.194351 302.74902 
L 284.900451 302.762392 
L 287.606552 302.775763 
L 290.312652 302.789135 
L 293.018753 302.802507 
L 295.724853 302.815879 
L 298.430954 302.82925 
L 301.137055 302.842622 
L 303.843155 302.855994 
L 306.549256 302.869365 
L 309.255356 302.882737 
L 311.961457 302.896109 
L 314.667557 302.90948 
L 317.373658 302.922852 
L 320.079758 302.936224 
L 322.785859 302.949595 
L 325.491959 302.962967 
L 328.19806 302.976339 
L 330.90416 302.989711 
L 333.610261 303.003082 
L 336.316361 303.016454 
L 339.022462 303.029826 
" style="fill:none;stroke:#f669ba;stroke-linecap:round;stroke-width:2.25;"/>
   </g>
   <g id="patch_3">
    <path d="M 54.522222 320.2 
L 54.522222 14.3 
" style="fill:none;stroke:#262626;stroke-linecap:square;stroke-linejoin:miter;stroke-width:0.8;"/>
   </g>
   <g id="patch_4">
    <path d="M 54.522222 320.2 
L 355.61875 320.2 
" style="fill:none;stroke:#262626;stroke-linecap:square;stroke-linejoin:miter;stroke-width:0.8;"/>
   </g>
   <g id="text_19">
    <!-- r=0.087, p=0.45 -->
    <defs>
     <path d="M 52.828125 42.09375 
L 5.5625 42.09375 
L 5.5625 50.296875 
L 52.828125 50.296875 
z
M 52.828125 20.359375 
L 5.5625 20.359375 
L 5.5625 28.5625 
L 52.828125 28.5625 
z
" id="ArialMT-61"/>
     <path d="M 8.890625 0 
L 8.890625 10.015625 
L 18.890625 10.015625 
L 18.890625 0 
Q 18.890625 -5.515625 16.9375 -8.90625 
Q 14.984375 -12.3125 10.75 -14.15625 
L 8.296875 -10.40625 
Q 11.078125 -9.1875 12.390625 -6.8125 
Q 13.71875 -4.4375 13.875 0 
z
" id="ArialMT-44"/>
     <path id="ArialMT-32"/>
    </defs>
    <g style="fill:#262626;" transform="translate(147.662497 115.896111)scale(0.15 -0.15)">
     <use xlink:href="#ArialMT-114"/>
     <use x="33.300781" xlink:href="#ArialMT-61"/>
     <use x="91.699219" xlink:href="#ArialMT-48"/>
     <use x="147.314453" xlink:href="#ArialMT-46"/>
     <use x="175.097656" xlink:href="#ArialMT-48"/>
     <use x="230.712891" xlink:href="#ArialMT-56"/>
     <use x="286.328125" xlink:href="#ArialMT-55"/>
     <use x="341.943359" xlink:href="#ArialMT-44"/>
     <use x="369.726562" xlink:href="#ArialMT-32"/>
     <use x="397.509766" xlink:href="#ArialMT-112"/>
     <use x="453.125" xlink:href="#ArialMT-61"/>
     <use x="511.523438" xlink:href="#ArialMT-48"/>
     <use x="567.138672" xlink:href="#ArialMT-46"/>
     <use x="594.921875" xlink:href="#ArialMT-52"/>
     <use x="650.537109" xlink:href="#ArialMT-53"/>
    </g>
   </g>
  </g>
  <g id="legend_1">
   <g id="text_20">
    <!-- host_subject_id -->
    <defs>
     <path d="M 6.59375 0 
L 6.59375 71.578125 
L 15.375 71.578125 
L 15.375 45.90625 
Q 21.53125 53.03125 30.90625 53.03125 
Q 36.671875 53.03125 40.921875 50.75 
Q 45.171875 48.484375 47 44.484375 
Q 48.828125 40.484375 48.828125 32.859375 
L 48.828125 0 
L 40.046875 0 
L 40.046875 32.859375 
Q 40.046875 39.453125 37.1875 42.453125 
Q 34.328125 45.453125 29.109375 45.453125 
Q 25.203125 45.453125 21.75 43.421875 
Q 18.3125 41.40625 16.84375 37.9375 
Q 15.375 34.46875 15.375 28.375 
L 15.375 0 
z
" id="ArialMT-104"/>
     <path d="M 3.078125 15.484375 
L 11.765625 16.84375 
Q 12.5 11.625 15.84375 8.84375 
Q 19.1875 6.0625 25.203125 6.0625 
Q 31.25 6.0625 34.171875 8.515625 
Q 37.109375 10.984375 37.109375 14.3125 
Q 37.109375 17.28125 34.515625 19 
Q 32.71875 20.171875 25.53125 21.96875 
Q 15.875 24.421875 12.140625 26.203125 
Q 8.40625 27.984375 6.46875 31.125 
Q 4.546875 34.28125 4.546875 38.09375 
Q 4.546875 41.546875 6.125 44.5 
Q 7.71875 47.46875 10.453125 49.421875 
Q 12.5 50.921875 16.03125 51.96875 
Q 19.578125 53.03125 23.640625 53.03125 
Q 29.734375 53.03125 34.34375 51.265625 
Q 38.96875 49.515625 41.15625 46.5 
Q 43.359375 43.5 44.1875 38.484375 
L 35.59375 37.3125 
Q 35.015625 41.3125 32.203125 43.546875 
Q 29.390625 45.796875 24.265625 45.796875 
Q 18.21875 45.796875 15.625 43.796875 
Q 13.03125 41.796875 13.03125 39.109375 
Q 13.03125 37.40625 14.109375 36.03125 
Q 15.1875 34.625 17.484375 33.6875 
Q 18.796875 33.203125 25.25 31.453125 
Q 34.578125 28.953125 38.25 27.359375 
Q 41.9375 25.78125 44.03125 22.75 
Q 46.140625 19.734375 46.140625 15.234375 
Q 46.140625 10.84375 43.578125 6.953125 
Q 41.015625 3.078125 36.171875 0.953125 
Q 31.34375 -1.171875 25.25 -1.171875 
Q 15.140625 -1.171875 9.84375 3.03125 
Q 4.546875 7.234375 3.078125 15.484375 
z
" id="ArialMT-115"/>
     <path d="M 25.78125 7.859375 
L 27.046875 0.09375 
Q 23.34375 -0.6875 20.40625 -0.6875 
Q 15.625 -0.6875 12.984375 0.828125 
Q 10.359375 2.34375 9.28125 4.8125 
Q 8.203125 7.28125 8.203125 15.1875 
L 8.203125 45.015625 
L 1.765625 45.015625 
L 1.765625 51.859375 
L 8.203125 51.859375 
L 8.203125 64.703125 
L 16.9375 69.96875 
L 16.9375 51.859375 
L 25.78125 51.859375 
L 25.78125 45.015625 
L 16.9375 45.015625 
L 16.9375 14.703125 
Q 16.9375 10.9375 17.40625 9.859375 
Q 17.875 8.796875 18.921875 8.15625 
Q 19.96875 7.515625 21.921875 7.515625 
Q 23.390625 7.515625 25.78125 7.859375 
z
" id="ArialMT-116"/>
     <path d="M -1.515625 -19.875 
L -1.515625 -13.53125 
L 56.734375 -13.53125 
L 56.734375 -19.875 
z
" id="ArialMT-95"/>
     <path d="M 40.578125 0 
L 40.578125 7.625 
Q 34.515625 -1.171875 24.125 -1.171875 
Q 19.53125 -1.171875 15.546875 0.578125 
Q 11.578125 2.34375 9.640625 5 
Q 7.71875 7.671875 6.9375 11.53125 
Q 6.390625 14.109375 6.390625 19.734375 
L 6.390625 51.859375 
L 15.1875 51.859375 
L 15.1875 23.09375 
Q 15.1875 16.21875 15.71875 13.8125 
Q 16.546875 10.359375 19.234375 8.375 
Q 21.921875 6.390625 25.875 6.390625 
Q 29.828125 6.390625 33.296875 8.421875 
Q 36.765625 10.453125 38.203125 13.9375 
Q 39.65625 17.4375 39.65625 24.078125 
L 39.65625 51.859375 
L 48.4375 51.859375 
L 48.4375 0 
z
" id="ArialMT-117"/>
     <path d="M 14.703125 0 
L 6.546875 0 
L 6.546875 71.578125 
L 15.328125 71.578125 
L 15.328125 46.046875 
Q 20.90625 53.03125 29.546875 53.03125 
Q 34.328125 53.03125 38.59375 51.09375 
Q 42.875 49.171875 45.625 45.671875 
Q 48.390625 42.1875 49.953125 37.25 
Q 51.515625 32.328125 51.515625 26.703125 
Q 51.515625 13.375 44.921875 6.09375 
Q 38.328125 -1.171875 29.109375 -1.171875 
Q 19.921875 -1.171875 14.703125 6.5 
z
M 14.59375 26.3125 
Q 14.59375 17 17.140625 12.84375 
Q 21.296875 6.0625 28.375 6.0625 
Q 34.125 6.0625 38.328125 11.0625 
Q 42.53125 16.0625 42.53125 25.984375 
Q 42.53125 36.140625 38.5 40.96875 
Q 34.46875 45.796875 28.765625 45.796875 
Q 23 45.796875 18.796875 40.796875 
Q 14.59375 35.796875 14.59375 26.3125 
z
" id="ArialMT-98"/>
     <path d="M 6.546875 61.375 
L 6.546875 71.578125 
L 15.328125 71.578125 
L 15.328125 61.375 
z
M -4.59375 -20.125 
L -2.9375 -12.640625 
Q -0.296875 -13.328125 1.21875 -13.328125 
Q 3.90625 -13.328125 5.21875 -11.546875 
Q 6.546875 -9.765625 6.546875 -2.640625 
L 6.546875 51.859375 
L 15.328125 51.859375 
L 15.328125 -2.828125 
Q 15.328125 -12.40625 12.84375 -16.15625 
Q 9.671875 -21.046875 2.296875 -21.046875 
Q -1.265625 -21.046875 -4.59375 -20.125 
z
" id="ArialMT-106"/>
     <path d="M 40.4375 19 
L 49.078125 17.875 
Q 47.65625 8.9375 41.8125 3.875 
Q 35.984375 -1.171875 27.484375 -1.171875 
Q 16.84375 -1.171875 10.375 5.78125 
Q 3.90625 12.75 3.90625 25.734375 
Q 3.90625 34.125 6.6875 40.421875 
Q 9.46875 46.734375 15.15625 49.875 
Q 20.84375 53.03125 27.546875 53.03125 
Q 35.984375 53.03125 41.359375 48.75 
Q 46.734375 44.484375 48.25 36.625 
L 39.703125 35.296875 
Q 38.484375 40.53125 35.375 43.15625 
Q 32.28125 45.796875 27.875 45.796875 
Q 21.234375 45.796875 17.078125 41.03125 
Q 12.9375 36.28125 12.9375 25.984375 
Q 12.9375 15.53125 16.9375 10.796875 
Q 20.953125 6.0625 27.390625 6.0625 
Q 32.5625 6.0625 36.03125 9.234375 
Q 39.5 12.40625 40.4375 19 
z
" id="ArialMT-99"/>
     <path d="M 6.640625 61.46875 
L 6.640625 71.578125 
L 15.4375 71.578125 
L 15.4375 61.46875 
z
M 6.640625 0 
L 6.640625 51.859375 
L 15.4375 51.859375 
L 15.4375 0 
z
" id="ArialMT-105"/>
    </defs>
    <g style="fill:#262626;" transform="translate(359.6375 83.509375)scale(0.1 -0.1)">
     <use xlink:href="#ArialMT-104"/>
     <use x="55.615234" xlink:href="#ArialMT-111"/>
     <use x="111.230469" xlink:href="#ArialMT-115"/>
     <use x="161.230469" xlink:href="#ArialMT-116"/>
     <use x="189.013672" xlink:href="#ArialMT-95"/>
     <use x="244.628906" xlink:href="#ArialMT-115"/>
     <use x="294.628906" xlink:href="#ArialMT-117"/>
     <use x="350.244141" xlink:href="#ArialMT-98"/>
     <use x="405.859375" xlink:href="#ArialMT-106"/>
     <use x="428.076172" xlink:href="#ArialMT-101"/>
     <use x="483.691406" xlink:href="#ArialMT-99"/>
     <use x="533.691406" xlink:href="#ArialMT-116"/>
     <use x="561.474609" xlink:href="#ArialMT-95"/>
     <use x="617.089844" xlink:href="#ArialMT-105"/>
     <use x="639.306641" xlink:href="#ArialMT-100"/>
    </g>
   </g>
   <g id="PathCollection_15">
    <g>
     <use style="fill:#f77189;fill-opacity:0.8;stroke:#f77189;stroke-opacity:0.8;" x="374.264062" xlink:href="#mca6b91eaa3" y="95.146875"/>
    </g>
   </g>
   <g id="text_21">
    <!-- DM001 -->
    <defs>
     <path d="M 7.421875 0 
L 7.421875 71.578125 
L 21.6875 71.578125 
L 38.625 20.90625 
Q 40.96875 13.8125 42.046875 10.296875 
Q 43.265625 14.203125 45.84375 21.78125 
L 62.984375 71.578125 
L 75.734375 71.578125 
L 75.734375 0 
L 66.609375 0 
L 66.609375 59.90625 
L 45.796875 0 
L 37.25 0 
L 16.546875 60.9375 
L 16.546875 0 
z
" id="ArialMT-77"/>
    </defs>
    <g style="fill:#262626;" transform="translate(392.264062 97.771875)scale(0.1 -0.1)">
     <use xlink:href="#ArialMT-68"/>
     <use x="72.216797" xlink:href="#ArialMT-77"/>
     <use x="155.517578" xlink:href="#ArialMT-48"/>
     <use x="211.132812" xlink:href="#ArialMT-48"/>
     <use x="266.748047" xlink:href="#ArialMT-49"/>
    </g>
   </g>
   <g id="PathCollection_16">
    <g>
     <use style="fill:#ef7d32;fill-opacity:0.8;stroke:#ef7d32;stroke-opacity:0.8;" x="374.264062" xlink:href="#m8b3528d71a" y="109.292188"/>
    </g>
   </g>
   <g id="text_22">
    <!-- DM002 -->
    <g style="fill:#262626;" transform="translate(392.264062 111.917188)scale(0.1 -0.1)">
     <use xlink:href="#ArialMT-68"/>
     <use x="72.216797" xlink:href="#ArialMT-77"/>
     <use x="155.517578" xlink:href="#ArialMT-48"/>
     <use x="211.132812" xlink:href="#ArialMT-48"/>
     <use x="266.748047" xlink:href="#ArialMT-50"/>
    </g>
   </g>
   <g id="PathCollection_17">
    <g>
     <use style="fill:#c69432;fill-opacity:0.8;stroke:#c69432;stroke-opacity:0.8;" x="374.264062" xlink:href="#m47c057384c" y="123.4375"/>
    </g>
   </g>
   <g id="text_23">
    <!-- DM003 -->
    <g style="fill:#262626;" transform="translate(392.264062 126.0625)scale(0.1 -0.1)">
     <use xlink:href="#ArialMT-68"/>
     <use x="72.216797" xlink:href="#ArialMT-77"/>
     <use x="155.517578" xlink:href="#ArialMT-48"/>
     <use x="211.132812" xlink:href="#ArialMT-48"/>
     <use x="266.748047" xlink:href="#ArialMT-51"/>
    </g>
   </g>
   <g id="PathCollection_18">
    <g>
     <use style="fill:#a79f31;fill-opacity:0.8;stroke:#a79f31;stroke-opacity:0.8;" x="374.264062" xlink:href="#me4cef1ddf6" y="137.582813"/>
    </g>
   </g>
   <g id="text_24">
    <!-- DM006 -->
    <g style="fill:#262626;" transform="translate(392.264062 140.207813)scale(0.1 -0.1)">
     <use xlink:href="#ArialMT-68"/>
     <use x="72.216797" xlink:href="#ArialMT-77"/>
     <use x="155.517578" xlink:href="#ArialMT-48"/>
     <use x="211.132812" xlink:href="#ArialMT-48"/>
     <use x="266.748047" xlink:href="#ArialMT-54"/>
    </g>
   </g>
   <g id="PathCollection_19">
    <g>
     <use style="fill:#82a931;fill-opacity:0.8;stroke:#82a931;stroke-opacity:0.8;" x="374.264062" xlink:href="#m9755a23a2d" y="151.728125"/>
    </g>
   </g>
   <g id="text_25">
    <!-- DM008 -->
    <g style="fill:#262626;" transform="translate(392.264062 154.353125)scale(0.1 -0.1)">
     <use xlink:href="#ArialMT-68"/>
     <use x="72.216797" xlink:href="#ArialMT-77"/>
     <use x="155.517578" xlink:href="#ArialMT-48"/>
     <use x="211.132812" xlink:href="#ArialMT-48"/>
     <use x="266.748047" xlink:href="#ArialMT-56"/>
    </g>
   </g>
   <g id="PathCollection_20">
    <g>
     <use style="fill:#32b24e;fill-opacity:0.8;stroke:#32b24e;stroke-opacity:0.8;" x="374.264062" xlink:href="#m123658ccf0" y="165.873438"/>
    </g>
   </g>
   <g id="text_26">
    <!-- DM009 -->
    <g style="fill:#262626;" transform="translate(392.264062 168.498438)scale(0.1 -0.1)">
     <use xlink:href="#ArialMT-68"/>
     <use x="72.216797" xlink:href="#ArialMT-77"/>
     <use x="155.517578" xlink:href="#ArialMT-48"/>
     <use x="211.132812" xlink:href="#ArialMT-48"/>
     <use x="266.748047" xlink:href="#ArialMT-57"/>
    </g>
   </g>
   <g id="PathCollection_21">
    <g>
     <use style="fill:#34af8a;fill-opacity:0.8;stroke:#34af8a;stroke-opacity:0.8;" x="374.264062" xlink:href="#mddf4e13cf5" y="180.01875"/>
    </g>
   </g>
   <g id="text_27">
    <!-- DM010 -->
    <g style="fill:#262626;" transform="translate(392.264062 182.64375)scale(0.1 -0.1)">
     <use xlink:href="#ArialMT-68"/>
     <use x="72.216797" xlink:href="#ArialMT-77"/>
     <use x="155.517578" xlink:href="#ArialMT-48"/>
     <use x="211.132812" xlink:href="#ArialMT-49"/>
     <use x="266.748047" xlink:href="#ArialMT-48"/>
    </g>
   </g>
   <g id="PathCollection_22">
    <g>
     <use style="fill:#36ada4;fill-opacity:0.8;stroke:#36ada4;stroke-opacity:0.8;" x="374.264062" xlink:href="#mf145ddc52c" y="194.164063"/>
    </g>
   </g>
   <g id="text_28">
    <!-- DM011 -->
    <g style="fill:#262626;" transform="translate(392.264062 196.789063)scale(0.1 -0.1)">
     <use xlink:href="#ArialMT-68"/>
     <use x="72.216797" xlink:href="#ArialMT-77"/>
     <use x="155.517578" xlink:href="#ArialMT-48"/>
     <use x="211.132812" xlink:href="#ArialMT-49"/>
     <use x="266.638672" xlink:href="#ArialMT-49"/>
    </g>
   </g>
   <g id="PathCollection_23">
    <g>
     <use style="fill:#37aabb;fill-opacity:0.8;stroke:#37aabb;stroke-opacity:0.8;" x="374.264062" xlink:href="#m655f251ff3" y="208.309375"/>
    </g>
   </g>
   <g id="text_29">
    <!-- DM013 -->
    <g style="fill:#262626;" transform="translate(392.264062 210.934375)scale(0.1 -0.1)">
     <use xlink:href="#ArialMT-68"/>
     <use x="72.216797" xlink:href="#ArialMT-77"/>
     <use x="155.517578" xlink:href="#ArialMT-48"/>
     <use x="211.132812" xlink:href="#ArialMT-49"/>
     <use x="266.748047" xlink:href="#ArialMT-51"/>
    </g>
   </g>
   <g id="PathCollection_24">
    <g>
     <use style="fill:#3aa6da;fill-opacity:0.8;stroke:#3aa6da;stroke-opacity:0.8;" x="374.264062" xlink:href="#m2f5c1fb72e" y="222.454688"/>
    </g>
   </g>
   <g id="text_30">
    <!-- DM014 -->
    <g style="fill:#262626;" transform="translate(392.264062 225.079688)scale(0.1 -0.1)">
     <use xlink:href="#ArialMT-68"/>
     <use x="72.216797" xlink:href="#ArialMT-77"/>
     <use x="155.517578" xlink:href="#ArialMT-48"/>
     <use x="211.132812" xlink:href="#ArialMT-49"/>
     <use x="266.748047" xlink:href="#ArialMT-52"/>
    </g>
   </g>
   <g id="PathCollection_25">
    <g>
     <use style="fill:#8197f4;fill-opacity:0.8;stroke:#8197f4;stroke-opacity:0.8;" x="374.264062" xlink:href="#m99213cbf0b" y="236.6"/>
    </g>
   </g>
   <g id="text_31">
    <!-- DM015 -->
    <g style="fill:#262626;" transform="translate(392.264062 239.225)scale(0.1 -0.1)">
     <use xlink:href="#ArialMT-68"/>
     <use x="72.216797" xlink:href="#ArialMT-77"/>
     <use x="155.517578" xlink:href="#ArialMT-48"/>
     <use x="211.132812" xlink:href="#ArialMT-49"/>
     <use x="266.748047" xlink:href="#ArialMT-53"/>
    </g>
   </g>
   <g id="PathCollection_26">
    <g>
     <use style="fill:#c180f4;fill-opacity:0.8;stroke:#c180f4;stroke-opacity:0.8;" x="374.264062" xlink:href="#med11914f15" y="250.745313"/>
    </g>
   </g>
   <g id="text_32">
    <!-- DM016 -->
    <g style="fill:#262626;" transform="translate(392.264062 253.370313)scale(0.1 -0.1)">
     <use xlink:href="#ArialMT-68"/>
     <use x="72.216797" xlink:href="#ArialMT-77"/>
     <use x="155.517578" xlink:href="#ArialMT-48"/>
     <use x="211.132812" xlink:href="#ArialMT-49"/>
     <use x="266.748047" xlink:href="#ArialMT-54"/>
    </g>
   </g>
   <g id="PathCollection_27">
    <g>
     <use style="fill:#f45deb;fill-opacity:0.8;stroke:#f45deb;stroke-opacity:0.8;" x="374.264062" xlink:href="#mc1e60ad803" y="264.890625"/>
    </g>
   </g>
   <g id="text_33">
    <!-- DM017 -->
    <g style="fill:#262626;" transform="translate(392.264062 267.515625)scale(0.1 -0.1)">
     <use xlink:href="#ArialMT-68"/>
     <use x="72.216797" xlink:href="#ArialMT-77"/>
     <use x="155.517578" xlink:href="#ArialMT-48"/>
     <use x="211.132812" xlink:href="#ArialMT-49"/>
     <use x="266.748047" xlink:href="#ArialMT-55"/>
    </g>
   </g>
   <g id="PathCollection_28">
    <g>
     <use style="fill:#f669ba;fill-opacity:0.8;stroke:#f669ba;stroke-opacity:0.8;" x="374.264062" xlink:href="#mb83add9a01" y="279.035937"/>
    </g>
   </g>
   <g id="text_34">
    <!-- DM018 -->
    <g style="fill:#262626;" transform="translate(392.264062 281.660937)scale(0.1 -0.1)">
     <use xlink:href="#ArialMT-68"/>
     <use x="72.216797" xlink:href="#ArialMT-77"/>
     <use x="155.517578" xlink:href="#ArialMT-48"/>
     <use x="211.132812" xlink:href="#ArialMT-49"/>
     <use x="266.748047" xlink:href="#ArialMT-56"/>
    </g>
   </g>
  </g>
 </g>
 <defs>
  <clipPath id="pa8437b8660">
   <rect height="305.9" width="301.096528" x="54.522222" y="14.3"/>
  </clipPath>
 </defs>
</svg>
