<?xml version="1.0" encoding="utf-8" standalone="no"?>
<!DOCTYPE svg PUBLIC "-//W3C//DTD SVG 1.1//EN"
  "http://www.w3.org/Graphics/SVG/1.1/DTD/svg11.dtd">
<!-- Created with matplotlib (https://matplotlib.org/) -->
<svg height="360pt" version="1.1" viewBox="0 0 438.125 360" width="438.125pt" xmlns="http://www.w3.org/2000/svg" xmlns:xlink="http://www.w3.org/1999/xlink">
 <defs>
  <style type="text/css">
*{stroke-linecap:butt;stroke-linejoin:round;}
  </style>
 </defs>
 <g id="figure_1">
  <g id="patch_1">
   <path d="M 0 360 
L 438.125 360 
L 438.125 0 
L 0 0 
z
" style="fill:#ffffff;"/>
  </g>
  <g id="axes_1">
   <g id="patch_2">
    <path d="M 54.522222 320.2 
L 355.61875 320.2 
L 355.61875 14.3 
L 54.522222 14.3 
z
" style="fill:#ffffff;"/>
   </g>
   <g id="matplotlib.axis_1">
    <g id="xtick_1">
     <g id="text_1">
      <!-- 0.2 -->
      <defs>
       <path d="M 4.15625 35.296875 
Q 4.15625 48 6.765625 55.734375 
Q 9.375 63.484375 14.515625 67.671875 
Q 19.671875 71.875 27.484375 71.875 
Q 33.25 71.875 37.59375 69.546875 
Q 41.9375 67.234375 44.765625 62.859375 
Q 47.609375 58.5 49.21875 52.21875 
Q 50.828125 45.953125 50.828125 35.296875 
Q 50.828125 22.703125 48.234375 14.96875 
Q 45.65625 7.234375 40.5 3 
Q 35.359375 -1.21875 27.484375 -1.21875 
Q 17.140625 -1.21875 11.234375 6.203125 
Q 4.15625 15.140625 4.15625 35.296875 
z
M 13.1875 35.296875 
Q 13.1875 17.671875 17.3125 11.828125 
Q 21.4375 6 27.484375 6 
Q 33.546875 6 37.671875 11.859375 
Q 41.796875 17.71875 41.796875 35.296875 
Q 41.796875 52.984375 37.671875 58.78125 
Q 33.546875 64.59375 27.390625 64.59375 
Q 21.34375 64.59375 17.71875 59.46875 
Q 13.1875 52.9375 13.1875 35.296875 
z
" id="ArialMT-48"/>
       <path d="M 9.078125 0 
L 9.078125 10.015625 
L 19.09375 10.015625 
L 19.09375 0 
z
" id="ArialMT-46"/>
       <path d="M 50.34375 8.453125 
L 50.34375 0 
L 3.03125 0 
Q 2.9375 3.171875 4.046875 6.109375 
Q 5.859375 10.9375 9.828125 15.625 
Q 13.8125 20.3125 21.34375 26.46875 
Q 33.015625 36.03125 37.109375 41.625 
Q 41.21875 47.21875 41.21875 52.203125 
Q 41.21875 57.421875 37.46875 61 
Q 33.734375 64.59375 27.734375 64.59375 
Q 21.390625 64.59375 17.578125 60.78125 
Q 13.765625 56.984375 13.71875 50.25 
L 4.6875 51.171875 
Q 5.609375 61.28125 11.65625 66.578125 
Q 17.71875 71.875 27.9375 71.875 
Q 38.234375 71.875 44.234375 66.15625 
Q 50.25 60.453125 50.25 52 
Q 50.25 47.703125 48.484375 43.546875 
Q 46.734375 39.40625 42.65625 34.8125 
Q 38.578125 30.21875 29.109375 22.21875 
Q 21.1875 15.578125 18.9375 13.203125 
Q 16.703125 10.84375 15.234375 8.453125 
z
" id="ArialMT-50"/>
      </defs>
      <g style="fill:#262626;" transform="translate(61.326712 335.789375)scale(0.12 -0.12)">
       <use xlink:href="#ArialMT-48"/>
       <use x="55.615234" xlink:href="#ArialMT-46"/>
       <use x="83.398438" xlink:href="#ArialMT-50"/>
      </g>
     </g>
    </g>
    <g id="xtick_2">
     <g id="text_2">
      <!-- 0.3 -->
      <defs>
       <path d="M 4.203125 18.890625 
L 12.984375 20.0625 
Q 14.5 12.59375 18.140625 9.296875 
Q 21.78125 6 27 6 
Q 33.203125 6 37.46875 10.296875 
Q 41.75 14.59375 41.75 20.953125 
Q 41.75 27 37.796875 30.921875 
Q 33.84375 34.859375 27.734375 34.859375 
Q 25.25 34.859375 21.53125 33.890625 
L 22.515625 41.609375 
Q 23.390625 41.5 23.921875 41.5 
Q 29.546875 41.5 34.03125 44.421875 
Q 38.53125 47.359375 38.53125 53.46875 
Q 38.53125 58.296875 35.25 61.46875 
Q 31.984375 64.65625 26.8125 64.65625 
Q 21.6875 64.65625 18.265625 61.421875 
Q 14.84375 58.203125 13.875 51.765625 
L 5.078125 53.328125 
Q 6.6875 62.15625 12.390625 67.015625 
Q 18.109375 71.875 26.609375 71.875 
Q 32.46875 71.875 37.390625 69.359375 
Q 42.328125 66.84375 44.9375 62.5 
Q 47.5625 58.15625 47.5625 53.265625 
Q 47.5625 48.640625 45.0625 44.828125 
Q 42.578125 41.015625 37.703125 38.765625 
Q 44.046875 37.3125 47.5625 32.6875 
Q 51.078125 28.078125 51.078125 21.140625 
Q 51.078125 11.765625 44.234375 5.25 
Q 37.40625 -1.265625 26.953125 -1.265625 
Q 17.53125 -1.265625 11.296875 4.34375 
Q 5.078125 9.96875 4.203125 18.890625 
z
" id="ArialMT-51"/>
      </defs>
      <g style="fill:#262626;" transform="translate(123.452859 335.789375)scale(0.12 -0.12)">
       <use xlink:href="#ArialMT-48"/>
       <use x="55.615234" xlink:href="#ArialMT-46"/>
       <use x="83.398438" xlink:href="#ArialMT-51"/>
      </g>
     </g>
    </g>
    <g id="xtick_3">
     <g id="text_3">
      <!-- 0.4 -->
      <defs>
       <path d="M 32.328125 0 
L 32.328125 17.140625 
L 1.265625 17.140625 
L 1.265625 25.203125 
L 33.9375 71.578125 
L 41.109375 71.578125 
L 41.109375 25.203125 
L 50.78125 25.203125 
L 50.78125 17.140625 
L 41.109375 17.140625 
L 41.109375 0 
z
M 32.328125 25.203125 
L 32.328125 57.46875 
L 9.90625 25.203125 
z
" id="ArialMT-52"/>
      </defs>
      <g style="fill:#262626;" transform="translate(185.579007 335.789375)scale(0.12 -0.12)">
       <use xlink:href="#ArialMT-48"/>
       <use x="55.615234" xlink:href="#ArialMT-46"/>
       <use x="83.398438" xlink:href="#ArialMT-52"/>
      </g>
     </g>
    </g>
    <g id="xtick_4">
     <g id="text_4">
      <!-- 0.5 -->
      <defs>
       <path d="M 4.15625 18.75 
L 13.375 19.53125 
Q 14.40625 12.796875 18.140625 9.390625 
Q 21.875 6 27.15625 6 
Q 33.5 6 37.890625 10.78125 
Q 42.28125 15.578125 42.28125 23.484375 
Q 42.28125 31 38.0625 35.34375 
Q 33.84375 39.703125 27 39.703125 
Q 22.75 39.703125 19.328125 37.765625 
Q 15.921875 35.84375 13.96875 32.765625 
L 5.71875 33.84375 
L 12.640625 70.609375 
L 48.25 70.609375 
L 48.25 62.203125 
L 19.671875 62.203125 
L 15.828125 42.96875 
Q 22.265625 47.46875 29.34375 47.46875 
Q 38.71875 47.46875 45.15625 40.96875 
Q 51.609375 34.46875 51.609375 24.265625 
Q 51.609375 14.546875 45.953125 7.46875 
Q 39.0625 -1.21875 27.15625 -1.21875 
Q 17.390625 -1.21875 11.203125 4.25 
Q 5.03125 9.71875 4.15625 18.75 
z
" id="ArialMT-53"/>
      </defs>
      <g style="fill:#262626;" transform="translate(247.705155 335.789375)scale(0.12 -0.12)">
       <use xlink:href="#ArialMT-48"/>
       <use x="55.615234" xlink:href="#ArialMT-46"/>
       <use x="83.398438" xlink:href="#ArialMT-53"/>
      </g>
     </g>
    </g>
    <g id="xtick_5">
     <g id="text_5">
      <!-- 0.6 -->
      <defs>
       <path d="M 49.75 54.046875 
L 41.015625 53.375 
Q 39.84375 58.546875 37.703125 60.890625 
Q 34.125 64.65625 28.90625 64.65625 
Q 24.703125 64.65625 21.53125 62.3125 
Q 17.390625 59.28125 14.984375 53.46875 
Q 12.59375 47.65625 12.5 36.921875 
Q 15.671875 41.75 20.265625 44.09375 
Q 24.859375 46.4375 29.890625 46.4375 
Q 38.671875 46.4375 44.84375 39.96875 
Q 51.03125 33.5 51.03125 23.25 
Q 51.03125 16.5 48.125 10.71875 
Q 45.21875 4.9375 40.140625 1.859375 
Q 35.0625 -1.21875 28.609375 -1.21875 
Q 17.625 -1.21875 10.6875 6.859375 
Q 3.765625 14.9375 3.765625 33.5 
Q 3.765625 54.25 11.421875 63.671875 
Q 18.109375 71.875 29.4375 71.875 
Q 37.890625 71.875 43.28125 67.140625 
Q 48.6875 62.40625 49.75 54.046875 
z
M 13.875 23.1875 
Q 13.875 18.65625 15.796875 14.5 
Q 17.71875 10.359375 21.1875 8.171875 
Q 24.65625 6 28.46875 6 
Q 34.03125 6 38.03125 10.484375 
Q 42.046875 14.984375 42.046875 22.703125 
Q 42.046875 30.125 38.078125 34.390625 
Q 34.125 38.671875 28.125 38.671875 
Q 22.171875 38.671875 18.015625 34.390625 
Q 13.875 30.125 13.875 23.1875 
z
" id="ArialMT-54"/>
      </defs>
      <g style="fill:#262626;" transform="translate(309.831303 335.789375)scale(0.12 -0.12)">
       <use xlink:href="#ArialMT-48"/>
       <use x="55.615234" xlink:href="#ArialMT-46"/>
       <use x="83.398438" xlink:href="#ArialMT-54"/>
      </g>
     </g>
    </g>
    <g id="text_6">
     <!-- Unweighted UniFrac Dist. to Baseline -->
     <defs>
      <path d="M 54.6875 71.578125 
L 64.15625 71.578125 
L 64.15625 30.21875 
Q 64.15625 19.4375 61.71875 13.078125 
Q 59.28125 6.734375 52.90625 2.75 
Q 46.53125 -1.21875 36.1875 -1.21875 
Q 26.125 -1.21875 19.71875 2.25 
Q 13.328125 5.71875 10.59375 12.28125 
Q 7.859375 18.84375 7.859375 30.21875 
L 7.859375 71.578125 
L 17.328125 71.578125 
L 17.328125 30.28125 
Q 17.328125 20.953125 19.0625 16.53125 
Q 20.796875 12.109375 25.015625 9.71875 
Q 29.25 7.328125 35.359375 7.328125 
Q 45.796875 7.328125 50.234375 12.0625 
Q 54.6875 16.796875 54.6875 30.28125 
z
" id="ArialMT-85"/>
      <path d="M 6.59375 0 
L 6.59375 51.859375 
L 14.5 51.859375 
L 14.5 44.484375 
Q 20.21875 53.03125 31 53.03125 
Q 35.6875 53.03125 39.625 51.34375 
Q 43.5625 49.65625 45.515625 46.921875 
Q 47.46875 44.1875 48.25 40.4375 
Q 48.734375 37.984375 48.734375 31.890625 
L 48.734375 0 
L 39.9375 0 
L 39.9375 31.546875 
Q 39.9375 36.921875 38.90625 39.578125 
Q 37.890625 42.234375 35.28125 43.8125 
Q 32.671875 45.40625 29.15625 45.40625 
Q 23.53125 45.40625 19.453125 41.84375 
Q 15.375 38.28125 15.375 28.328125 
L 15.375 0 
z
" id="ArialMT-110"/>
      <path d="M 16.15625 0 
L 0.296875 51.859375 
L 9.375 51.859375 
L 17.625 21.921875 
L 20.703125 10.796875 
Q 20.90625 11.625 23.390625 21.484375 
L 31.640625 51.859375 
L 40.671875 51.859375 
L 48.4375 21.78125 
L 51.03125 11.859375 
L 54 21.875 
L 62.890625 51.859375 
L 71.4375 51.859375 
L 55.21875 0 
L 46.09375 0 
L 37.84375 31.0625 
L 35.84375 39.890625 
L 25.34375 0 
z
" id="ArialMT-119"/>
      <path d="M 42.09375 16.703125 
L 51.171875 15.578125 
Q 49.03125 7.625 43.21875 3.21875 
Q 37.40625 -1.171875 28.375 -1.171875 
Q 17 -1.171875 10.328125 5.828125 
Q 3.65625 12.84375 3.65625 25.484375 
Q 3.65625 38.578125 10.390625 45.796875 
Q 17.140625 53.03125 27.875 53.03125 
Q 38.28125 53.03125 44.875 45.953125 
Q 51.46875 38.875 51.46875 26.03125 
Q 51.46875 25.25 51.421875 23.6875 
L 12.75 23.6875 
Q 13.234375 15.140625 17.578125 10.59375 
Q 21.921875 6.0625 28.421875 6.0625 
Q 33.25 6.0625 36.671875 8.59375 
Q 40.09375 11.140625 42.09375 16.703125 
z
M 13.234375 30.90625 
L 42.1875 30.90625 
Q 41.609375 37.453125 38.875 40.71875 
Q 34.671875 45.796875 27.984375 45.796875 
Q 21.921875 45.796875 17.796875 41.75 
Q 13.671875 37.703125 13.234375 30.90625 
z
" id="ArialMT-101"/>
      <path d="M 6.640625 61.46875 
L 6.640625 71.578125 
L 15.4375 71.578125 
L 15.4375 61.46875 
z
M 6.640625 0 
L 6.640625 51.859375 
L 15.4375 51.859375 
L 15.4375 0 
z
" id="ArialMT-105"/>
      <path d="M 4.984375 -4.296875 
L 13.53125 -5.5625 
Q 14.0625 -9.515625 16.5 -11.328125 
Q 19.78125 -13.765625 25.4375 -13.765625 
Q 31.546875 -13.765625 34.859375 -11.328125 
Q 38.1875 -8.890625 39.359375 -4.5 
Q 40.046875 -1.8125 39.984375 6.78125 
Q 34.234375 0 25.640625 0 
Q 14.9375 0 9.078125 7.71875 
Q 3.21875 15.4375 3.21875 26.21875 
Q 3.21875 33.640625 5.90625 39.90625 
Q 8.59375 46.1875 13.6875 49.609375 
Q 18.796875 53.03125 25.6875 53.03125 
Q 34.859375 53.03125 40.828125 45.609375 
L 40.828125 51.859375 
L 48.921875 51.859375 
L 48.921875 7.03125 
Q 48.921875 -5.078125 46.453125 -10.125 
Q 44 -15.1875 38.640625 -18.109375 
Q 33.296875 -21.046875 25.484375 -21.046875 
Q 16.21875 -21.046875 10.5 -16.875 
Q 4.78125 -12.703125 4.984375 -4.296875 
z
M 12.25 26.859375 
Q 12.25 16.65625 16.296875 11.96875 
Q 20.359375 7.28125 26.46875 7.28125 
Q 32.515625 7.28125 36.609375 11.9375 
Q 40.71875 16.609375 40.71875 26.5625 
Q 40.71875 36.078125 36.5 40.90625 
Q 32.28125 45.75 26.3125 45.75 
Q 20.453125 45.75 16.34375 40.984375 
Q 12.25 36.234375 12.25 26.859375 
z
" id="ArialMT-103"/>
      <path d="M 6.59375 0 
L 6.59375 71.578125 
L 15.375 71.578125 
L 15.375 45.90625 
Q 21.53125 53.03125 30.90625 53.03125 
Q 36.671875 53.03125 40.921875 50.75 
Q 45.171875 48.484375 47 44.484375 
Q 48.828125 40.484375 48.828125 32.859375 
L 48.828125 0 
L 40.046875 0 
L 40.046875 32.859375 
Q 40.046875 39.453125 37.1875 42.453125 
Q 34.328125 45.453125 29.109375 45.453125 
Q 25.203125 45.453125 21.75 43.421875 
Q 18.3125 41.40625 16.84375 37.9375 
Q 15.375 34.46875 15.375 28.375 
L 15.375 0 
z
" id="ArialMT-104"/>
      <path d="M 25.78125 7.859375 
L 27.046875 0.09375 
Q 23.34375 -0.6875 20.40625 -0.6875 
Q 15.625 -0.6875 12.984375 0.828125 
Q 10.359375 2.34375 9.28125 4.8125 
Q 8.203125 7.28125 8.203125 15.1875 
L 8.203125 45.015625 
L 1.765625 45.015625 
L 1.765625 51.859375 
L 8.203125 51.859375 
L 8.203125 64.703125 
L 16.9375 69.96875 
L 16.9375 51.859375 
L 25.78125 51.859375 
L 25.78125 45.015625 
L 16.9375 45.015625 
L 16.9375 14.703125 
Q 16.9375 10.9375 17.40625 9.859375 
Q 17.875 8.796875 18.921875 8.15625 
Q 19.96875 7.515625 21.921875 7.515625 
Q 23.390625 7.515625 25.78125 7.859375 
z
" id="ArialMT-116"/>
      <path d="M 40.234375 0 
L 40.234375 6.546875 
Q 35.296875 -1.171875 25.734375 -1.171875 
Q 19.53125 -1.171875 14.328125 2.25 
Q 9.125 5.671875 6.265625 11.796875 
Q 3.421875 17.921875 3.421875 25.875 
Q 3.421875 33.640625 6 39.96875 
Q 8.59375 46.296875 13.765625 49.65625 
Q 18.953125 53.03125 25.34375 53.03125 
Q 30.03125 53.03125 33.6875 51.046875 
Q 37.359375 49.078125 39.65625 45.90625 
L 39.65625 71.578125 
L 48.390625 71.578125 
L 48.390625 0 
z
M 12.453125 25.875 
Q 12.453125 15.921875 16.640625 10.984375 
Q 20.84375 6.0625 26.5625 6.0625 
Q 32.328125 6.0625 36.34375 10.765625 
Q 40.375 15.484375 40.375 25.140625 
Q 40.375 35.796875 36.265625 40.765625 
Q 32.171875 45.75 26.171875 45.75 
Q 20.3125 45.75 16.375 40.96875 
Q 12.453125 36.1875 12.453125 25.875 
z
" id="ArialMT-100"/>
      <path id="ArialMT-32"/>
      <path d="M 8.203125 0 
L 8.203125 71.578125 
L 56.5 71.578125 
L 56.5 63.140625 
L 17.671875 63.140625 
L 17.671875 40.96875 
L 51.265625 40.96875 
L 51.265625 32.515625 
L 17.671875 32.515625 
L 17.671875 0 
z
" id="ArialMT-70"/>
      <path d="M 6.5 0 
L 6.5 51.859375 
L 14.40625 51.859375 
L 14.40625 44 
Q 17.4375 49.515625 20 51.265625 
Q 22.5625 53.03125 25.640625 53.03125 
Q 30.078125 53.03125 34.671875 50.203125 
L 31.640625 42.046875 
Q 28.421875 43.953125 25.203125 43.953125 
Q 22.3125 43.953125 20.015625 42.21875 
Q 17.71875 40.484375 16.75 37.40625 
Q 15.28125 32.71875 15.28125 27.15625 
L 15.28125 0 
z
" id="ArialMT-114"/>
      <path d="M 40.4375 6.390625 
Q 35.546875 2.25 31.03125 0.53125 
Q 26.515625 -1.171875 21.34375 -1.171875 
Q 12.796875 -1.171875 8.203125 3 
Q 3.609375 7.171875 3.609375 13.671875 
Q 3.609375 17.484375 5.34375 20.625 
Q 7.078125 23.78125 9.890625 25.6875 
Q 12.703125 27.59375 16.21875 28.5625 
Q 18.796875 29.25 24.03125 29.890625 
Q 34.671875 31.15625 39.703125 32.90625 
Q 39.75 34.71875 39.75 35.203125 
Q 39.75 40.578125 37.25 42.78125 
Q 33.890625 45.75 27.25 45.75 
Q 21.046875 45.75 18.09375 43.578125 
Q 15.140625 41.40625 13.71875 35.890625 
L 5.125 37.0625 
Q 6.296875 42.578125 8.984375 45.96875 
Q 11.671875 49.359375 16.75 51.1875 
Q 21.828125 53.03125 28.515625 53.03125 
Q 35.15625 53.03125 39.296875 51.46875 
Q 43.453125 49.90625 45.40625 47.53125 
Q 47.359375 45.171875 48.140625 41.546875 
Q 48.578125 39.3125 48.578125 33.453125 
L 48.578125 21.734375 
Q 48.578125 9.46875 49.140625 6.21875 
Q 49.703125 2.984375 51.375 0 
L 42.1875 0 
Q 40.828125 2.734375 40.4375 6.390625 
z
M 39.703125 26.03125 
Q 34.90625 24.078125 25.34375 22.703125 
Q 19.921875 21.921875 17.671875 20.9375 
Q 15.4375 19.96875 14.203125 18.09375 
Q 12.984375 16.21875 12.984375 13.921875 
Q 12.984375 10.40625 15.640625 8.0625 
Q 18.3125 5.71875 23.4375 5.71875 
Q 28.515625 5.71875 32.46875 7.9375 
Q 36.421875 10.15625 38.28125 14.015625 
Q 39.703125 17 39.703125 22.796875 
z
" id="ArialMT-97"/>
      <path d="M 40.4375 19 
L 49.078125 17.875 
Q 47.65625 8.9375 41.8125 3.875 
Q 35.984375 -1.171875 27.484375 -1.171875 
Q 16.84375 -1.171875 10.375 5.78125 
Q 3.90625 12.75 3.90625 25.734375 
Q 3.90625 34.125 6.6875 40.421875 
Q 9.46875 46.734375 15.15625 49.875 
Q 20.84375 53.03125 27.546875 53.03125 
Q 35.984375 53.03125 41.359375 48.75 
Q 46.734375 44.484375 48.25 36.625 
L 39.703125 35.296875 
Q 38.484375 40.53125 35.375 43.15625 
Q 32.28125 45.796875 27.875 45.796875 
Q 21.234375 45.796875 17.078125 41.03125 
Q 12.9375 36.28125 12.9375 25.984375 
Q 12.9375 15.53125 16.9375 10.796875 
Q 20.953125 6.0625 27.390625 6.0625 
Q 32.5625 6.0625 36.03125 9.234375 
Q 39.5 12.40625 40.4375 19 
z
" id="ArialMT-99"/>
      <path d="M 7.71875 0 
L 7.71875 71.578125 
L 32.375 71.578125 
Q 40.71875 71.578125 45.125 70.5625 
Q 51.265625 69.140625 55.609375 65.4375 
Q 61.28125 60.640625 64.078125 53.1875 
Q 66.890625 45.75 66.890625 36.1875 
Q 66.890625 28.03125 64.984375 21.734375 
Q 63.09375 15.4375 60.109375 11.296875 
Q 57.125 7.171875 53.578125 4.796875 
Q 50.046875 2.4375 45.046875 1.21875 
Q 40.046875 0 33.546875 0 
z
M 17.1875 8.453125 
L 32.46875 8.453125 
Q 39.546875 8.453125 43.578125 9.765625 
Q 47.609375 11.078125 50 13.484375 
Q 53.375 16.84375 55.25 22.53125 
Q 57.125 28.21875 57.125 36.328125 
Q 57.125 47.5625 53.4375 53.59375 
Q 49.75 59.625 44.484375 61.671875 
Q 40.671875 63.140625 32.234375 63.140625 
L 17.1875 63.140625 
z
" id="ArialMT-68"/>
      <path d="M 3.078125 15.484375 
L 11.765625 16.84375 
Q 12.5 11.625 15.84375 8.84375 
Q 19.1875 6.0625 25.203125 6.0625 
Q 31.25 6.0625 34.171875 8.515625 
Q 37.109375 10.984375 37.109375 14.3125 
Q 37.109375 17.28125 34.515625 19 
Q 32.71875 20.171875 25.53125 21.96875 
Q 15.875 24.421875 12.140625 26.203125 
Q 8.40625 27.984375 6.46875 31.125 
Q 4.546875 34.28125 4.546875 38.09375 
Q 4.546875 41.546875 6.125 44.5 
Q 7.71875 47.46875 10.453125 49.421875 
Q 12.5 50.921875 16.03125 51.96875 
Q 19.578125 53.03125 23.640625 53.03125 
Q 29.734375 53.03125 34.34375 51.265625 
Q 38.96875 49.515625 41.15625 46.5 
Q 43.359375 43.5 44.1875 38.484375 
L 35.59375 37.3125 
Q 35.015625 41.3125 32.203125 43.546875 
Q 29.390625 45.796875 24.265625 45.796875 
Q 18.21875 45.796875 15.625 43.796875 
Q 13.03125 41.796875 13.03125 39.109375 
Q 13.03125 37.40625 14.109375 36.03125 
Q 15.1875 34.625 17.484375 33.6875 
Q 18.796875 33.203125 25.25 31.453125 
Q 34.578125 28.953125 38.25 27.359375 
Q 41.9375 25.78125 44.03125 22.75 
Q 46.140625 19.734375 46.140625 15.234375 
Q 46.140625 10.84375 43.578125 6.953125 
Q 41.015625 3.078125 36.171875 0.953125 
Q 31.34375 -1.171875 25.25 -1.171875 
Q 15.140625 -1.171875 9.84375 3.03125 
Q 4.546875 7.234375 3.078125 15.484375 
z
" id="ArialMT-115"/>
      <path d="M 3.328125 25.921875 
Q 3.328125 40.328125 11.328125 47.265625 
Q 18.015625 53.03125 27.640625 53.03125 
Q 38.328125 53.03125 45.109375 46.015625 
Q 51.90625 39.015625 51.90625 26.65625 
Q 51.90625 16.65625 48.90625 10.90625 
Q 45.90625 5.171875 40.15625 2 
Q 34.421875 -1.171875 27.640625 -1.171875 
Q 16.75 -1.171875 10.03125 5.8125 
Q 3.328125 12.796875 3.328125 25.921875 
z
M 12.359375 25.921875 
Q 12.359375 15.96875 16.703125 11.015625 
Q 21.046875 6.0625 27.640625 6.0625 
Q 34.1875 6.0625 38.53125 11.03125 
Q 42.875 16.015625 42.875 26.21875 
Q 42.875 35.84375 38.5 40.796875 
Q 34.125 45.75 27.640625 45.75 
Q 21.046875 45.75 16.703125 40.8125 
Q 12.359375 35.890625 12.359375 25.921875 
z
" id="ArialMT-111"/>
      <path d="M 7.328125 0 
L 7.328125 71.578125 
L 34.1875 71.578125 
Q 42.390625 71.578125 47.34375 69.40625 
Q 52.296875 67.234375 55.09375 62.71875 
Q 57.90625 58.203125 57.90625 53.265625 
Q 57.90625 48.6875 55.421875 44.625 
Q 52.9375 40.578125 47.90625 38.09375 
Q 54.390625 36.1875 57.875 31.59375 
Q 61.375 27 61.375 20.75 
Q 61.375 15.71875 59.25 11.390625 
Q 57.125 7.078125 54 4.734375 
Q 50.875 2.390625 46.15625 1.1875 
Q 41.453125 0 34.625 0 
z
M 16.796875 41.5 
L 32.28125 41.5 
Q 38.578125 41.5 41.3125 42.328125 
Q 44.921875 43.40625 46.75 45.890625 
Q 48.578125 48.390625 48.578125 52.15625 
Q 48.578125 55.71875 46.875 58.421875 
Q 45.171875 61.140625 41.984375 62.140625 
Q 38.8125 63.140625 31.109375 63.140625 
L 16.796875 63.140625 
z
M 16.796875 8.453125 
L 34.625 8.453125 
Q 39.203125 8.453125 41.0625 8.796875 
Q 44.34375 9.375 46.53125 10.734375 
Q 48.734375 12.109375 50.140625 14.71875 
Q 51.5625 17.328125 51.5625 20.75 
Q 51.5625 24.75 49.515625 27.703125 
Q 47.46875 30.671875 43.828125 31.859375 
Q 40.1875 33.0625 33.34375 33.0625 
L 16.796875 33.0625 
z
" id="ArialMT-66"/>
      <path d="M 6.390625 0 
L 6.390625 71.578125 
L 15.1875 71.578125 
L 15.1875 0 
z
" id="ArialMT-108"/>
     </defs>
     <g style="fill:#262626;" transform="translate(80.85408 352.911094)scale(0.15 -0.15)">
      <use xlink:href="#ArialMT-85"/>
      <use x="72.216797" xlink:href="#ArialMT-110"/>
      <use x="127.832031" xlink:href="#ArialMT-119"/>
      <use x="200.048828" xlink:href="#ArialMT-101"/>
      <use x="255.664062" xlink:href="#ArialMT-105"/>
      <use x="277.880859" xlink:href="#ArialMT-103"/>
      <use x="333.496094" xlink:href="#ArialMT-104"/>
      <use x="389.111328" xlink:href="#ArialMT-116"/>
      <use x="416.894531" xlink:href="#ArialMT-101"/>
      <use x="472.509766" xlink:href="#ArialMT-100"/>
      <use x="528.125" xlink:href="#ArialMT-32"/>
      <use x="555.908203" xlink:href="#ArialMT-85"/>
      <use x="628.125" xlink:href="#ArialMT-110"/>
      <use x="683.740234" xlink:href="#ArialMT-105"/>
      <use x="705.957031" xlink:href="#ArialMT-70"/>
      <use x="767.041016" xlink:href="#ArialMT-114"/>
      <use x="800.341797" xlink:href="#ArialMT-97"/>
      <use x="855.957031" xlink:href="#ArialMT-99"/>
      <use x="905.957031" xlink:href="#ArialMT-32"/>
      <use x="933.740234" xlink:href="#ArialMT-68"/>
      <use x="1005.957031" xlink:href="#ArialMT-105"/>
      <use x="1028.173828" xlink:href="#ArialMT-115"/>
      <use x="1078.173828" xlink:href="#ArialMT-116"/>
      <use x="1105.957031" xlink:href="#ArialMT-46"/>
      <use x="1133.740234" xlink:href="#ArialMT-32"/>
      <use x="1161.523438" xlink:href="#ArialMT-116"/>
      <use x="1189.306641" xlink:href="#ArialMT-111"/>
      <use x="1244.921875" xlink:href="#ArialMT-32"/>
      <use x="1272.705078" xlink:href="#ArialMT-66"/>
      <use x="1339.404297" xlink:href="#ArialMT-97"/>
      <use x="1395.019531" xlink:href="#ArialMT-115"/>
      <use x="1445.019531" xlink:href="#ArialMT-101"/>
      <use x="1500.634766" xlink:href="#ArialMT-108"/>
      <use x="1522.851562" xlink:href="#ArialMT-105"/>
      <use x="1545.068359" xlink:href="#ArialMT-110"/>
      <use x="1600.683594" xlink:href="#ArialMT-101"/>
     </g>
    </g>
   </g>
   <g id="matplotlib.axis_2">
    <g id="ytick_1">
     <g id="text_7">
      <!-- 0.0 -->
      <g style="fill:#262626;" transform="translate(30.842222 295.943574)scale(0.12 -0.12)">
       <use xlink:href="#ArialMT-48"/>
       <use x="55.615234" xlink:href="#ArialMT-46"/>
       <use x="83.398438" xlink:href="#ArialMT-48"/>
      </g>
     </g>
    </g>
    <g id="ytick_2">
     <g id="text_8">
      <!-- 0.1 -->
      <defs>
       <path d="M 37.25 0 
L 28.46875 0 
L 28.46875 56 
Q 25.296875 52.984375 20.140625 49.953125 
Q 14.984375 46.921875 10.890625 45.40625 
L 10.890625 53.90625 
Q 18.265625 57.375 23.78125 62.296875 
Q 29.296875 67.234375 31.59375 71.875 
L 37.25 71.875 
z
" id="ArialMT-49"/>
      </defs>
      <g style="fill:#262626;" transform="translate(30.842222 260.022463)scale(0.12 -0.12)">
       <use xlink:href="#ArialMT-48"/>
       <use x="55.615234" xlink:href="#ArialMT-46"/>
       <use x="83.398438" xlink:href="#ArialMT-49"/>
      </g>
     </g>
    </g>
    <g id="ytick_3">
     <g id="text_9">
      <!-- 0.2 -->
      <g style="fill:#262626;" transform="translate(30.842222 224.101352)scale(0.12 -0.12)">
       <use xlink:href="#ArialMT-48"/>
       <use x="55.615234" xlink:href="#ArialMT-46"/>
       <use x="83.398438" xlink:href="#ArialMT-50"/>
      </g>
     </g>
    </g>
    <g id="ytick_4">
     <g id="text_10">
      <!-- 0.3 -->
      <g style="fill:#262626;" transform="translate(30.842222 188.180241)scale(0.12 -0.12)">
       <use xlink:href="#ArialMT-48"/>
       <use x="55.615234" xlink:href="#ArialMT-46"/>
       <use x="83.398438" xlink:href="#ArialMT-51"/>
      </g>
     </g>
    </g>
    <g id="ytick_5">
     <g id="text_11">
      <!-- 0.4 -->
      <g style="fill:#262626;" transform="translate(30.842222 152.259129)scale(0.12 -0.12)">
       <use xlink:href="#ArialMT-48"/>
       <use x="55.615234" xlink:href="#ArialMT-46"/>
       <use x="83.398438" xlink:href="#ArialMT-52"/>
      </g>
     </g>
    </g>
    <g id="ytick_6">
     <g id="text_12">
      <!-- 0.5 -->
      <g style="fill:#262626;" transform="translate(30.842222 116.338018)scale(0.12 -0.12)">
       <use xlink:href="#ArialMT-48"/>
       <use x="55.615234" xlink:href="#ArialMT-46"/>
       <use x="83.398438" xlink:href="#ArialMT-53"/>
      </g>
     </g>
    </g>
    <g id="ytick_7">
     <g id="text_13">
      <!-- 0.6 -->
      <g style="fill:#262626;" transform="translate(30.842222 80.416907)scale(0.12 -0.12)">
       <use xlink:href="#ArialMT-48"/>
       <use x="55.615234" xlink:href="#ArialMT-46"/>
       <use x="83.398438" xlink:href="#ArialMT-54"/>
      </g>
     </g>
    </g>
    <g id="ytick_8">
     <g id="text_14">
      <!-- 0.7 -->
      <defs>
       <path d="M 4.734375 62.203125 
L 4.734375 70.65625 
L 51.078125 70.65625 
L 51.078125 63.8125 
Q 44.234375 56.546875 37.515625 44.484375 
Q 30.8125 32.421875 27.15625 19.671875 
Q 24.515625 10.6875 23.78125 0 
L 14.75 0 
Q 14.890625 8.453125 18.0625 20.40625 
Q 21.234375 32.375 27.171875 43.484375 
Q 33.109375 54.59375 39.796875 62.203125 
z
" id="ArialMT-55"/>
      </defs>
      <g style="fill:#262626;" transform="translate(30.842222 44.495796)scale(0.12 -0.12)">
       <use xlink:href="#ArialMT-48"/>
       <use x="55.615234" xlink:href="#ArialMT-46"/>
       <use x="83.398438" xlink:href="#ArialMT-55"/>
      </g>
     </g>
    </g>
    <g id="text_15">
     <!-- Hydroxyomeprazole -->
     <defs>
      <path d="M 8.015625 0 
L 8.015625 71.578125 
L 17.484375 71.578125 
L 17.484375 42.1875 
L 54.6875 42.1875 
L 54.6875 71.578125 
L 64.15625 71.578125 
L 64.15625 0 
L 54.6875 0 
L 54.6875 33.734375 
L 17.484375 33.734375 
L 17.484375 0 
z
" id="ArialMT-72"/>
      <path d="M 6.203125 -19.96875 
L 5.21875 -11.71875 
Q 8.109375 -12.5 10.25 -12.5 
Q 13.1875 -12.5 14.9375 -11.515625 
Q 16.703125 -10.546875 17.828125 -8.796875 
Q 18.65625 -7.46875 20.515625 -2.25 
Q 20.75 -1.515625 21.296875 -0.09375 
L 1.609375 51.859375 
L 11.078125 51.859375 
L 21.875 21.828125 
Q 23.96875 16.109375 25.640625 9.8125 
Q 27.15625 15.875 29.25 21.625 
L 40.328125 51.859375 
L 49.125 51.859375 
L 29.390625 -0.875 
Q 26.21875 -9.421875 24.46875 -12.640625 
Q 22.125 -17 19.09375 -19.015625 
Q 16.0625 -21.046875 11.859375 -21.046875 
Q 9.328125 -21.046875 6.203125 -19.96875 
z
" id="ArialMT-121"/>
      <path d="M 0.734375 0 
L 19.671875 26.953125 
L 2.15625 51.859375 
L 13.140625 51.859375 
L 21.09375 39.703125 
Q 23.34375 36.234375 24.703125 33.890625 
Q 26.859375 37.109375 28.65625 39.59375 
L 37.40625 51.859375 
L 47.90625 51.859375 
L 29.984375 27.4375 
L 49.265625 0 
L 38.484375 0 
L 27.828125 16.109375 
L 25 20.453125 
L 11.375 0 
z
" id="ArialMT-120"/>
      <path d="M 6.59375 0 
L 6.59375 51.859375 
L 14.453125 51.859375 
L 14.453125 44.578125 
Q 16.890625 48.390625 20.9375 50.703125 
Q 25 53.03125 30.171875 53.03125 
Q 35.9375 53.03125 39.625 50.640625 
Q 43.3125 48.25 44.828125 43.953125 
Q 50.984375 53.03125 60.84375 53.03125 
Q 68.5625 53.03125 72.703125 48.75 
Q 76.859375 44.484375 76.859375 35.59375 
L 76.859375 0 
L 68.109375 0 
L 68.109375 32.671875 
Q 68.109375 37.9375 67.25 40.25 
Q 66.40625 42.578125 64.15625 43.984375 
Q 61.921875 45.40625 58.890625 45.40625 
Q 53.421875 45.40625 49.796875 41.765625 
Q 46.1875 38.140625 46.1875 30.125 
L 46.1875 0 
L 37.40625 0 
L 37.40625 33.6875 
Q 37.40625 39.546875 35.25 42.46875 
Q 33.109375 45.40625 28.21875 45.40625 
Q 24.515625 45.40625 21.359375 43.453125 
Q 18.21875 41.5 16.796875 37.734375 
Q 15.375 33.984375 15.375 26.90625 
L 15.375 0 
z
" id="ArialMT-109"/>
      <path d="M 6.59375 -19.875 
L 6.59375 51.859375 
L 14.59375 51.859375 
L 14.59375 45.125 
Q 17.4375 49.078125 21 51.046875 
Q 24.5625 53.03125 29.640625 53.03125 
Q 36.28125 53.03125 41.359375 49.609375 
Q 46.4375 46.1875 49.015625 39.953125 
Q 51.609375 33.734375 51.609375 26.3125 
Q 51.609375 18.359375 48.75 11.984375 
Q 45.90625 5.609375 40.453125 2.21875 
Q 35.015625 -1.171875 29 -1.171875 
Q 24.609375 -1.171875 21.109375 0.6875 
Q 17.625 2.546875 15.375 5.375 
L 15.375 -19.875 
z
M 14.546875 25.640625 
Q 14.546875 15.625 18.59375 10.84375 
Q 22.65625 6.0625 28.421875 6.0625 
Q 34.28125 6.0625 38.453125 11.015625 
Q 42.625 15.96875 42.625 26.375 
Q 42.625 36.28125 38.546875 41.203125 
Q 34.46875 46.140625 28.8125 46.140625 
Q 23.1875 46.140625 18.859375 40.890625 
Q 14.546875 35.640625 14.546875 25.640625 
z
" id="ArialMT-112"/>
      <path d="M 1.953125 0 
L 1.953125 7.125 
L 34.96875 45.015625 
Q 29.34375 44.734375 25.046875 44.734375 
L 3.90625 44.734375 
L 3.90625 51.859375 
L 46.296875 51.859375 
L 46.296875 46.046875 
L 18.21875 13.140625 
L 12.796875 7.125 
Q 18.703125 7.5625 23.875 7.5625 
L 47.859375 7.5625 
L 47.859375 0 
z
" id="ArialMT-122"/>
     </defs>
     <g style="fill:#262626;" transform="translate(23.685191 233.940234)rotate(-90)scale(0.15 -0.15)">
      <use xlink:href="#ArialMT-72"/>
      <use x="72.216797" xlink:href="#ArialMT-121"/>
      <use x="122.216797" xlink:href="#ArialMT-100"/>
      <use x="177.832031" xlink:href="#ArialMT-114"/>
      <use x="211.132812" xlink:href="#ArialMT-111"/>
      <use x="266.748047" xlink:href="#ArialMT-120"/>
      <use x="316.748047" xlink:href="#ArialMT-121"/>
      <use x="366.748047" xlink:href="#ArialMT-111"/>
      <use x="422.363281" xlink:href="#ArialMT-109"/>
      <use x="505.664062" xlink:href="#ArialMT-101"/>
      <use x="561.279297" xlink:href="#ArialMT-112"/>
      <use x="616.894531" xlink:href="#ArialMT-114"/>
      <use x="650.195312" xlink:href="#ArialMT-97"/>
      <use x="705.810547" xlink:href="#ArialMT-122"/>
      <use x="755.810547" xlink:href="#ArialMT-111"/>
      <use x="811.425781" xlink:href="#ArialMT-108"/>
      <use x="833.642578" xlink:href="#ArialMT-101"/>
     </g>
    </g>
   </g>
   <g id="PathCollection_1">
    <defs>
     <path d="M 0 3 
C 0.795609 3 1.55874 2.683901 2.12132 2.12132 
C 2.683901 1.55874 3 0.795609 3 0 
C 3 -0.795609 2.683901 -1.55874 2.12132 -2.12132 
C 1.55874 -2.683901 0.795609 -3 0 -3 
C -0.795609 -3 -1.55874 -2.683901 -2.12132 -2.12132 
C -2.683901 -1.55874 -3 -0.795609 -3 0 
C -3 0.795609 -2.683901 1.55874 -2.12132 2.12132 
C -1.55874 2.683901 -0.795609 3 0 3 
z
" id="mc182c78601" style="stroke:#f77189;stroke-opacity:0.8;"/>
    </defs>
    <g clip-path="url(#pcefbcb1290)">
     <use style="fill:#f77189;fill-opacity:0.8;stroke:#f77189;stroke-opacity:0.8;" x="200.506196" xlink:href="#mc182c78601" y="285.399581"/>
     <use style="fill:#f77189;fill-opacity:0.8;stroke:#f77189;stroke-opacity:0.8;" x="253.136506" xlink:href="#mc182c78601" y="209.020571"/>
     <use style="fill:#f77189;fill-opacity:0.8;stroke:#f77189;stroke-opacity:0.8;" x="272.862293" xlink:href="#mc182c78601" y="28.274482"/>
     <use style="fill:#f77189;fill-opacity:0.8;stroke:#f77189;stroke-opacity:0.8;" x="307.144965" xlink:href="#mc182c78601" y="222.621905"/>
     <use style="fill:#f77189;fill-opacity:0.8;stroke:#f77189;stroke-opacity:0.8;" x="312.901584" xlink:href="#mc182c78601" y="242.049205"/>
     <use style="fill:#f77189;fill-opacity:0.8;stroke:#f77189;stroke-opacity:0.8;" x="273.040943" xlink:href="#mc182c78601" y="249.755443"/>
    </g>
   </g>
   <g id="PathCollection_2">
    <defs>
     <path d="M 0 3 
C 0.795609 3 1.55874 2.683901 2.12132 2.12132 
C 2.683901 1.55874 3 0.795609 3 0 
C 3 -0.795609 2.683901 -1.55874 2.12132 -2.12132 
C 1.55874 -2.683901 0.795609 -3 0 -3 
C -0.795609 -3 -1.55874 -2.683901 -2.12132 -2.12132 
C -2.683901 -1.55874 -3 -0.795609 -3 0 
C -3 0.795609 -2.683901 1.55874 -2.12132 2.12132 
C -1.55874 2.683901 -0.795609 3 0 3 
z
" id="mc8b66ed194" style="stroke:#e68332;stroke-opacity:0.8;"/>
    </defs>
    <g clip-path="url(#pcefbcb1290)">
     <use style="fill:#e68332;fill-opacity:0.8;stroke:#e68332;stroke-opacity:0.8;" x="155.971135" xlink:href="#mc8b66ed194" y="250.754485"/>
     <use style="fill:#e68332;fill-opacity:0.8;stroke:#e68332;stroke-opacity:0.8;" x="113.058682" xlink:href="#mc8b66ed194" y="290.435918"/>
     <use style="fill:#e68332;fill-opacity:0.8;stroke:#e68332;stroke-opacity:0.8;" x="141.621156" xlink:href="#mc8b66ed194" y="290.351863"/>
     <use style="fill:#e68332;fill-opacity:0.8;stroke:#e68332;stroke-opacity:0.8;" x="172.991235" xlink:href="#mc8b66ed194" y="277.468464"/>
     <use style="fill:#e68332;fill-opacity:0.8;stroke:#e68332;stroke-opacity:0.8;" x="193.245043" xlink:href="#mc8b66ed194" y="279.599297"/>
     <use style="fill:#e68332;fill-opacity:0.8;stroke:#e68332;stroke-opacity:0.8;" x="198.569683" xlink:href="#mc8b66ed194" y="283.887714"/>
     <use style="fill:#e68332;fill-opacity:0.8;stroke:#e68332;stroke-opacity:0.8;" x="179.100865" xlink:href="#mc8b66ed194" y="289.890829"/>
     <use style="fill:#e68332;fill-opacity:0.8;stroke:#e68332;stroke-opacity:0.8;" x="201.31411" xlink:href="#mc8b66ed194" y="287.721896"/>
    </g>
   </g>
   <g id="PathCollection_3">
    <defs>
     <path d="M 0 3 
C 0.795609 3 1.55874 2.683901 2.12132 2.12132 
C 2.683901 1.55874 3 0.795609 3 0 
C 3 -0.795609 2.683901 -1.55874 2.12132 -2.12132 
C 1.55874 -2.683901 0.795609 -3 0 -3 
C -0.795609 -3 -1.55874 -2.683901 -2.12132 -2.12132 
C -2.683901 -1.55874 -3 -0.795609 -3 0 
C -3 0.795609 -2.683901 1.55874 -2.12132 2.12132 
C -1.55874 2.683901 -0.795609 3 0 3 
z
" id="m3d4851a585" style="stroke:#bb9832;stroke-opacity:0.8;"/>
    </defs>
    <g clip-path="url(#pcefbcb1290)">
     <use style="fill:#bb9832;fill-opacity:0.8;stroke:#bb9832;stroke-opacity:0.8;" x="220.478714" xlink:href="#m3d4851a585" y="281.930994"/>
     <use style="fill:#bb9832;fill-opacity:0.8;stroke:#bb9832;stroke-opacity:0.8;" x="220.462115" xlink:href="#m3d4851a585" y="238.112753"/>
     <use style="fill:#bb9832;fill-opacity:0.8;stroke:#bb9832;stroke-opacity:0.8;" x="248.938282" xlink:href="#m3d4851a585" y="271.485905"/>
     <use style="fill:#bb9832;fill-opacity:0.8;stroke:#bb9832;stroke-opacity:0.8;" x="315.543843" xlink:href="#m3d4851a585" y="171.174964"/>
     <use style="fill:#bb9832;fill-opacity:0.8;stroke:#bb9832;stroke-opacity:0.8;" x="303.330002" xlink:href="#m3d4851a585" y="220.889132"/>
    </g>
   </g>
   <g id="PathCollection_4">
    <defs>
     <path d="M 0 3 
C 0.795609 3 1.55874 2.683901 2.12132 2.12132 
C 2.683901 1.55874 3 0.795609 3 0 
C 3 -0.795609 2.683901 -1.55874 2.12132 -2.12132 
C 1.55874 -2.683901 0.795609 -3 0 -3 
C -0.795609 -3 -1.55874 -2.683901 -2.12132 -2.12132 
C -2.683901 -1.55874 -3 -0.795609 -3 0 
C -3 0.795609 -2.683901 1.55874 -2.12132 2.12132 
C -1.55874 2.683901 -0.795609 3 0 3 
z
" id="m6752d97ed0" style="stroke:#97a431;stroke-opacity:0.8;"/>
    </defs>
    <g clip-path="url(#pcefbcb1290)">
     <use style="fill:#97a431;fill-opacity:0.8;stroke:#97a431;stroke-opacity:0.8;" x="105.406194" xlink:href="#m6752d97ed0" y="291.24434"/>
     <use style="fill:#97a431;fill-opacity:0.8;stroke:#97a431;stroke-opacity:0.8;" x="118.926216" xlink:href="#m6752d97ed0" y="289.845072"/>
     <use style="fill:#97a431;fill-opacity:0.8;stroke:#97a431;stroke-opacity:0.8;" x="335.928084" xlink:href="#m6752d97ed0" y="179.407146"/>
     <use style="fill:#97a431;fill-opacity:0.8;stroke:#97a431;stroke-opacity:0.8;" x="275.688468" xlink:href="#m6752d97ed0" y="258.27914"/>
     <use style="fill:#97a431;fill-opacity:0.8;stroke:#97a431;stroke-opacity:0.8;" x="268.681128" xlink:href="#m6752d97ed0" y="289.189622"/>
     <use style="fill:#97a431;fill-opacity:0.8;stroke:#97a431;stroke-opacity:0.8;" x="232.326747" xlink:href="#m6752d97ed0" y="290.309946"/>
     <use style="fill:#97a431;fill-opacity:0.8;stroke:#97a431;stroke-opacity:0.8;" x="281.483563" xlink:href="#m6752d97ed0" y="290.102543"/>
    </g>
   </g>
   <g id="PathCollection_5">
    <defs>
     <path d="M 0 3 
C 0.795609 3 1.55874 2.683901 2.12132 2.12132 
C 2.683901 1.55874 3 0.795609 3 0 
C 3 -0.795609 2.683901 -1.55874 2.12132 -2.12132 
C 1.55874 -2.683901 0.795609 -3 0 -3 
C -0.795609 -3 -1.55874 -2.683901 -2.12132 -2.12132 
C -2.683901 -1.55874 -3 -0.795609 -3 0 
C -3 0.795609 -2.683901 1.55874 -2.12132 2.12132 
C -1.55874 2.683901 -0.795609 3 0 3 
z
" id="m3f117c9d9c" style="stroke:#50b131;stroke-opacity:0.8;"/>
    </defs>
    <g clip-path="url(#pcefbcb1290)">
     <use style="fill:#50b131;fill-opacity:0.8;stroke:#50b131;stroke-opacity:0.8;" x="194.256788" xlink:href="#m3f117c9d9c" y="283.972862"/>
     <use style="fill:#50b131;fill-opacity:0.8;stroke:#50b131;stroke-opacity:0.8;" x="268.770196" xlink:href="#m3f117c9d9c" y="272.328002"/>
     <use style="fill:#50b131;fill-opacity:0.8;stroke:#50b131;stroke-opacity:0.8;" x="287.500666" xlink:href="#m3f117c9d9c" y="288.158935"/>
     <use style="fill:#50b131;fill-opacity:0.8;stroke:#50b131;stroke-opacity:0.8;" x="295.362863" xlink:href="#m3f117c9d9c" y="288.187848"/>
     <use style="fill:#50b131;fill-opacity:0.8;stroke:#50b131;stroke-opacity:0.8;" x="237.366354" xlink:href="#m3f117c9d9c" y="286.824511"/>
     <use style="fill:#50b131;fill-opacity:0.8;stroke:#50b131;stroke-opacity:0.8;" x="305.035122" xlink:href="#m3f117c9d9c" y="282.29937"/>
     <use style="fill:#50b131;fill-opacity:0.8;stroke:#50b131;stroke-opacity:0.8;" x="288.359911" xlink:href="#m3f117c9d9c" y="278.182397"/>
    </g>
   </g>
   <g id="PathCollection_6">
    <defs>
     <path d="M 0 3 
C 0.795609 3 1.55874 2.683901 2.12132 2.12132 
C 2.683901 1.55874 3 0.795609 3 0 
C 3 -0.795609 2.683901 -1.55874 2.12132 -2.12132 
C 1.55874 -2.683901 0.795609 -3 0 -3 
C -0.795609 -3 -1.55874 -2.683901 -2.12132 -2.12132 
C -2.683901 -1.55874 -3 -0.795609 -3 0 
C -3 0.795609 -2.683901 1.55874 -2.12132 2.12132 
C -1.55874 2.683901 -0.795609 3 0 3 
z
" id="mebc9732749" style="stroke:#34af84;stroke-opacity:0.8;"/>
    </defs>
    <g clip-path="url(#pcefbcb1290)">
     <use style="fill:#34af84;fill-opacity:0.8;stroke:#34af84;stroke-opacity:0.8;" x="203.651365" xlink:href="#mebc9732749" y="209.380671"/>
     <use style="fill:#34af84;fill-opacity:0.8;stroke:#34af84;stroke-opacity:0.8;" x="173.873124" xlink:href="#mebc9732749" y="205.834442"/>
     <use style="fill:#34af84;fill-opacity:0.8;stroke:#34af84;stroke-opacity:0.8;" x="215.623918" xlink:href="#mebc9732749" y="245.211229"/>
     <use style="fill:#34af84;fill-opacity:0.8;stroke:#34af84;stroke-opacity:0.8;" x="245.607384" xlink:href="#mebc9732749" y="255.512354"/>
     <use style="fill:#34af84;fill-opacity:0.8;stroke:#34af84;stroke-opacity:0.8;" x="216.792459" xlink:href="#mebc9732749" y="242.193985"/>
     <use style="fill:#34af84;fill-opacity:0.8;stroke:#34af84;stroke-opacity:0.8;" x="163.630267" xlink:href="#mebc9732749" y="235.020037"/>
     <use style="fill:#34af84;fill-opacity:0.8;stroke:#34af84;stroke-opacity:0.8;" x="217.355807" xlink:href="#mebc9732749" y="233.402488"/>
    </g>
   </g>
   <g id="PathCollection_7">
    <defs>
     <path d="M 0 3 
C 0.795609 3 1.55874 2.683901 2.12132 2.12132 
C 2.683901 1.55874 3 0.795609 3 0 
C 3 -0.795609 2.683901 -1.55874 2.12132 -2.12132 
C 1.55874 -2.683901 0.795609 -3 0 -3 
C -0.795609 -3 -1.55874 -2.683901 -2.12132 -2.12132 
C -2.683901 -1.55874 -3 -0.795609 -3 0 
C -3 0.795609 -2.683901 1.55874 -2.12132 2.12132 
C -1.55874 2.683901 -0.795609 3 0 3 
z
" id="m14a17053fa" style="stroke:#36ada4;stroke-opacity:0.8;"/>
    </defs>
    <g clip-path="url(#pcefbcb1290)">
     <use style="fill:#36ada4;fill-opacity:0.8;stroke:#36ada4;stroke-opacity:0.8;" x="194.501929" xlink:href="#m14a17053fa" y="288.34379"/>
     <use style="fill:#36ada4;fill-opacity:0.8;stroke:#36ada4;stroke-opacity:0.8;" x="273.975918" xlink:href="#m14a17053fa" y="227.942551"/>
     <use style="fill:#36ada4;fill-opacity:0.8;stroke:#36ada4;stroke-opacity:0.8;" x="237.49471" xlink:href="#m14a17053fa" y="220.285645"/>
     <use style="fill:#36ada4;fill-opacity:0.8;stroke:#36ada4;stroke-opacity:0.8;" x="306.209031" xlink:href="#m14a17053fa" y="236.645707"/>
     <use style="fill:#36ada4;fill-opacity:0.8;stroke:#36ada4;stroke-opacity:0.8;" x="257.014132" xlink:href="#m14a17053fa" y="202.438962"/>
    </g>
   </g>
   <g id="PathCollection_8">
    <defs>
     <path d="M 0 3 
C 0.795609 3 1.55874 2.683901 2.12132 2.12132 
C 2.683901 1.55874 3 0.795609 3 0 
C 3 -0.795609 2.683901 -1.55874 2.12132 -2.12132 
C 1.55874 -2.683901 0.795609 -3 0 -3 
C -0.795609 -3 -1.55874 -2.683901 -2.12132 -2.12132 
C -2.683901 -1.55874 -3 -0.795609 -3 0 
C -3 0.795609 -2.683901 1.55874 -2.12132 2.12132 
C -1.55874 2.683901 -0.795609 3 0 3 
z
" id="md65bf25d44" style="stroke:#38aabf;stroke-opacity:0.8;"/>
    </defs>
    <g clip-path="url(#pcefbcb1290)">
     <use style="fill:#38aabf;fill-opacity:0.8;stroke:#38aabf;stroke-opacity:0.8;" x="74.212888" xlink:href="#md65bf25d44" y="219.863232"/>
     <use style="fill:#38aabf;fill-opacity:0.8;stroke:#38aabf;stroke-opacity:0.8;" x="168.33326" xlink:href="#md65bf25d44" y="222.538131"/>
     <use style="fill:#38aabf;fill-opacity:0.8;stroke:#38aabf;stroke-opacity:0.8;" x="228.913701" xlink:href="#md65bf25d44" y="254.123716"/>
     <use style="fill:#38aabf;fill-opacity:0.8;stroke:#38aabf;stroke-opacity:0.8;" x="171.551809" xlink:href="#md65bf25d44" y="227.678684"/>
     <use style="fill:#38aabf;fill-opacity:0.8;stroke:#38aabf;stroke-opacity:0.8;" x="210.834235" xlink:href="#md65bf25d44" y="218.457385"/>
     <use style="fill:#38aabf;fill-opacity:0.8;stroke:#38aabf;stroke-opacity:0.8;" x="202.370497" xlink:href="#md65bf25d44" y="246.661183"/>
    </g>
   </g>
   <g id="PathCollection_9">
    <defs>
     <path d="M 0 3 
C 0.795609 3 1.55874 2.683901 2.12132 2.12132 
C 2.683901 1.55874 3 0.795609 3 0 
C 3 -0.795609 2.683901 -1.55874 2.12132 -2.12132 
C 1.55874 -2.683901 0.795609 -3 0 -3 
C -0.795609 -3 -1.55874 -2.683901 -2.12132 -2.12132 
C -2.683901 -1.55874 -3 -0.795609 -3 0 
C -3 0.795609 -2.683901 1.55874 -2.12132 2.12132 
C -1.55874 2.683901 -0.795609 3 0 3 
z
" id="mff3ba773aa" style="stroke:#3ba3ec;stroke-opacity:0.8;"/>
    </defs>
    <g clip-path="url(#pcefbcb1290)">
     <use style="fill:#3ba3ec;fill-opacity:0.8;stroke:#3ba3ec;stroke-opacity:0.8;" x="196.319198" xlink:href="#mff3ba773aa" y="282.752895"/>
     <use style="fill:#3ba3ec;fill-opacity:0.8;stroke:#3ba3ec;stroke-opacity:0.8;" x="247.056398" xlink:href="#mff3ba773aa" y="241.1041"/>
     <use style="fill:#3ba3ec;fill-opacity:0.8;stroke:#3ba3ec;stroke-opacity:0.8;" x="151.262872" xlink:href="#mff3ba773aa" y="288.136543"/>
     <use style="fill:#3ba3ec;fill-opacity:0.8;stroke:#3ba3ec;stroke-opacity:0.8;" x="234.476189" xlink:href="#mff3ba773aa" y="256.51881"/>
    </g>
   </g>
   <g id="PathCollection_10">
    <defs>
     <path d="M 0 3 
C 0.795609 3 1.55874 2.683901 2.12132 2.12132 
C 2.683901 1.55874 3 0.795609 3 0 
C 3 -0.795609 2.683901 -1.55874 2.12132 -2.12132 
C 1.55874 -2.683901 0.795609 -3 0 -3 
C -0.795609 -3 -1.55874 -2.683901 -2.12132 -2.12132 
C -2.683901 -1.55874 -3 -0.795609 -3 0 
C -3 0.795609 -2.683901 1.55874 -2.12132 2.12132 
C -1.55874 2.683901 -0.795609 3 0 3 
z
" id="m819ed1cbcc" style="stroke:#a48cf4;stroke-opacity:0.8;"/>
    </defs>
    <g clip-path="url(#pcefbcb1290)">
     <use style="fill:#a48cf4;fill-opacity:0.8;stroke:#a48cf4;stroke-opacity:0.8;" x="121.616413" xlink:href="#m819ed1cbcc" y="288.797597"/>
     <use style="fill:#a48cf4;fill-opacity:0.8;stroke:#a48cf4;stroke-opacity:0.8;" x="131.557016" xlink:href="#m819ed1cbcc" y="278.698363"/>
     <use style="fill:#a48cf4;fill-opacity:0.8;stroke:#a48cf4;stroke-opacity:0.8;" x="312.179069" xlink:href="#m819ed1cbcc" y="243.163389"/>
     <use style="fill:#a48cf4;fill-opacity:0.8;stroke:#a48cf4;stroke-opacity:0.8;" x="260.597839" xlink:href="#m819ed1cbcc" y="254.287993"/>
     <use style="fill:#a48cf4;fill-opacity:0.8;stroke:#a48cf4;stroke-opacity:0.8;" x="251.961313" xlink:href="#m819ed1cbcc" y="258.538038"/>
     <use style="fill:#a48cf4;fill-opacity:0.8;stroke:#a48cf4;stroke-opacity:0.8;" x="283.626496" xlink:href="#m819ed1cbcc" y="255.616455"/>
     <use style="fill:#a48cf4;fill-opacity:0.8;stroke:#a48cf4;stroke-opacity:0.8;" x="268.484102" xlink:href="#m819ed1cbcc" y="209.493108"/>
    </g>
   </g>
   <g id="PathCollection_11">
    <defs>
     <path d="M 0 3 
C 0.795609 3 1.55874 2.683901 2.12132 2.12132 
C 2.683901 1.55874 3 0.795609 3 0 
C 3 -0.795609 2.683901 -1.55874 2.12132 -2.12132 
C 1.55874 -2.683901 0.795609 -3 0 -3 
C -0.795609 -3 -1.55874 -2.683901 -2.12132 -2.12132 
C -2.683901 -1.55874 -3 -0.795609 -3 0 
C -3 0.795609 -2.683901 1.55874 -2.12132 2.12132 
C -1.55874 2.683901 -0.795609 3 0 3 
z
" id="m75c9967640" style="stroke:#e866f4;stroke-opacity:0.8;"/>
    </defs>
    <g clip-path="url(#pcefbcb1290)">
     <use style="fill:#e866f4;fill-opacity:0.8;stroke:#e866f4;stroke-opacity:0.8;" x="150.24153" xlink:href="#m75c9967640" y="281.267963"/>
     <use style="fill:#e866f4;fill-opacity:0.8;stroke:#e866f4;stroke-opacity:0.8;" x="186.790485" xlink:href="#m75c9967640" y="264.112877"/>
     <use style="fill:#e866f4;fill-opacity:0.8;stroke:#e866f4;stroke-opacity:0.8;" x="202.6317" xlink:href="#m75c9967640" y="225.690581"/>
     <use style="fill:#e866f4;fill-opacity:0.8;stroke:#e866f4;stroke-opacity:0.8;" x="171.55895" xlink:href="#m75c9967640" y="286.353391"/>
     <use style="fill:#e866f4;fill-opacity:0.8;stroke:#e866f4;stroke-opacity:0.8;" x="225.008201" xlink:href="#m75c9967640" y="286.118458"/>
     <use style="fill:#e866f4;fill-opacity:0.8;stroke:#e866f4;stroke-opacity:0.8;" x="160.907654" xlink:href="#m75c9967640" y="288.92726"/>
    </g>
   </g>
   <g id="PathCollection_12">
    <defs>
     <path d="M 0 3 
C 0.795609 3 1.55874 2.683901 2.12132 2.12132 
C 2.683901 1.55874 3 0.795609 3 0 
C 3 -0.795609 2.683901 -1.55874 2.12132 -2.12132 
C 1.55874 -2.683901 0.795609 -3 0 -3 
C -0.795609 -3 -1.55874 -2.683901 -2.12132 -2.12132 
C -2.683901 -1.55874 -3 -0.795609 -3 0 
C -3 0.795609 -2.683901 1.55874 -2.12132 2.12132 
C -1.55874 2.683901 -0.795609 3 0 3 
z
" id="mab10a5ee01" style="stroke:#f668c2;stroke-opacity:0.8;"/>
    </defs>
    <g clip-path="url(#pcefbcb1290)">
     <use style="fill:#f668c2;fill-opacity:0.8;stroke:#f668c2;stroke-opacity:0.8;" x="150.784825" xlink:href="#mab10a5ee01" y="291.213798"/>
     <use style="fill:#f668c2;fill-opacity:0.8;stroke:#f668c2;stroke-opacity:0.8;" x="146.460448" xlink:href="#mab10a5ee01" y="290.836164"/>
     <use style="fill:#f668c2;fill-opacity:0.8;stroke:#f668c2;stroke-opacity:0.8;" x="143.258103" xlink:href="#mab10a5ee01" y="290.953275"/>
     <use style="fill:#f668c2;fill-opacity:0.8;stroke:#f668c2;stroke-opacity:0.8;" x="149.778276" xlink:href="#mab10a5ee01" y="290.18334"/>
     <use style="fill:#f668c2;fill-opacity:0.8;stroke:#f668c2;stroke-opacity:0.8;" x="163.448285" xlink:href="#mab10a5ee01" y="290.326676"/>
     <use style="fill:#f668c2;fill-opacity:0.8;stroke:#f668c2;stroke-opacity:0.8;" x="150.038168" xlink:href="#mab10a5ee01" y="291.005493"/>
     <use style="fill:#f668c2;fill-opacity:0.8;stroke:#f668c2;stroke-opacity:0.8;" x="164.402172" xlink:href="#mab10a5ee01" y="290.876343"/>
    </g>
   </g>
   <g id="line2d_1">
    <path clip-path="url(#pcefbcb1290)" d="M 200.506196 237.612512 
L 201.641503 237.098615 
L 202.77681 236.584718 
L 203.912117 236.070821 
L 205.047424 235.556924 
L 206.182731 235.043027 
L 207.318038 234.52913 
L 208.453345 234.015233 
L 209.588652 233.501336 
L 210.723959 232.987439 
L 211.859266 232.473542 
L 212.994573 231.959645 
L 214.129879 231.445748 
L 215.265186 230.931851 
L 216.400493 230.417954 
L 217.5358 229.904057 
L 218.671107 229.39016 
L 219.806414 228.876263 
L 220.941721 228.362366 
L 222.077028 227.848469 
L 223.212335 227.334571 
L 224.347642 226.820674 
L 225.482949 226.306777 
L 226.618256 225.79288 
L 227.753563 225.278983 
L 228.88887 224.765086 
L 230.024177 224.251189 
L 231.159484 223.737292 
L 232.294791 223.223395 
L 233.430098 222.709498 
L 234.565405 222.195601 
L 235.700711 221.681704 
L 236.836018 221.167807 
L 237.971325 220.65391 
L 239.106632 220.140013 
L 240.241939 219.626116 
L 241.377246 219.112219 
L 242.512553 218.598322 
L 243.64786 218.084425 
L 244.783167 217.570528 
L 245.918474 217.056631 
L 247.053781 216.542734 
L 248.189088 216.028837 
L 249.324395 215.51494 
L 250.459702 215.001043 
L 251.595009 214.487146 
L 252.730316 213.973249 
L 253.865623 213.459352 
L 255.00093 212.945455 
L 256.136237 212.431558 
L 257.271544 211.917661 
L 258.40685 211.403764 
L 259.542157 210.889867 
L 260.677464 210.37597 
L 261.812771 209.862072 
L 262.948078 209.348175 
L 264.083385 208.834278 
L 265.218692 208.320381 
L 266.353999 207.806484 
L 267.489306 207.292587 
L 268.624613 206.77869 
L 269.75992 206.264793 
L 270.895227 205.750896 
L 272.030534 205.236999 
L 273.165841 204.723102 
L 274.301148 204.209205 
L 275.436455 203.695308 
L 276.571762 203.181411 
L 277.707069 202.667514 
L 278.842376 202.153617 
L 279.977682 201.63972 
L 281.112989 201.125823 
L 282.248296 200.611926 
L 283.383603 200.098029 
L 284.51891 199.584132 
L 285.654217 199.070235 
L 286.789524 198.556338 
L 287.924831 198.042441 
L 289.060138 197.528544 
L 290.195445 197.014647 
L 291.330752 196.50075 
L 292.466059 195.986853 
L 293.601366 195.472956 
L 294.736673 194.959059 
L 295.87198 194.445162 
L 297.007287 193.931265 
L 298.142594 193.417368 
L 299.277901 192.903471 
L 300.413208 192.389573 
L 301.548514 191.875676 
L 302.683821 191.361779 
L 303.819128 190.847882 
L 304.954435 190.333985 
L 306.089742 189.820088 
L 307.225049 189.306191 
L 308.360356 188.792294 
L 309.495663 188.278397 
L 310.63097 187.7645 
L 311.766277 187.250603 
L 312.901584 186.736706 
" style="fill:none;stroke:#f77189;stroke-linecap:round;stroke-width:2.25;"/>
   </g>
   <g id="line2d_2">
    <path clip-path="url(#pcefbcb1290)" d="M 113.058682 281.657162 
L 113.950151 281.650948 
L 114.84162 281.644733 
L 115.733089 281.638518 
L 116.624558 281.632304 
L 117.516027 281.626089 
L 118.407496 281.619874 
L 119.298965 281.61366 
L 120.190433 281.607445 
L 121.081902 281.60123 
L 121.973371 281.595016 
L 122.86484 281.588801 
L 123.756309 281.582587 
L 124.647778 281.576372 
L 125.539247 281.570157 
L 126.430716 281.563943 
L 127.322185 281.557728 
L 128.213654 281.551513 
L 129.105123 281.545299 
L 129.996592 281.539084 
L 130.888061 281.532869 
L 131.77953 281.526655 
L 132.670999 281.52044 
L 133.562468 281.514226 
L 134.453937 281.508011 
L 135.345406 281.501796 
L 136.236875 281.495582 
L 137.128344 281.489367 
L 138.019813 281.483152 
L 138.911282 281.476938 
L 139.802751 281.470723 
L 140.69422 281.464508 
L 141.585689 281.458294 
L 142.477158 281.452079 
L 143.368627 281.445864 
L 144.260096 281.43965 
L 145.151565 281.433435 
L 146.043034 281.427221 
L 146.934503 281.421006 
L 147.825972 281.414791 
L 148.717441 281.408577 
L 149.60891 281.402362 
L 150.500379 281.396147 
L 151.391848 281.389933 
L 152.283316 281.383718 
L 153.174785 281.377503 
L 154.066254 281.371289 
L 154.957723 281.365074 
L 155.849192 281.35886 
L 156.740661 281.352645 
L 157.63213 281.34643 
L 158.523599 281.340216 
L 159.415068 281.334001 
L 160.306537 281.327786 
L 161.198006 281.321572 
L 162.089475 281.315357 
L 162.980944 281.309142 
L 163.872413 281.302928 
L 164.763882 281.296713 
L 165.655351 281.290499 
L 166.54682 281.284284 
L 167.438289 281.278069 
L 168.329758 281.271855 
L 169.221227 281.26564 
L 170.112696 281.259425 
L 171.004165 281.253211 
L 171.895634 281.246996 
L 172.787103 281.240781 
L 173.678572 281.234567 
L 174.570041 281.228352 
L 175.46151 281.222137 
L 176.352979 281.215923 
L 177.244448 281.209708 
L 178.135917 281.203494 
L 179.027386 281.197279 
L 179.918855 281.191064 
L 180.810324 281.18485 
L 181.701793 281.178635 
L 182.593262 281.17242 
L 183.48473 281.166206 
L 184.376199 281.159991 
L 185.267668 281.153776 
L 186.159137 281.147562 
L 187.050606 281.141347 
L 187.942075 281.135133 
L 188.833544 281.128918 
L 189.725013 281.122703 
L 190.616482 281.116489 
L 191.507951 281.110274 
L 192.39942 281.104059 
L 193.290889 281.097845 
L 194.182358 281.09163 
L 195.073827 281.085415 
L 195.965296 281.079201 
L 196.856765 281.072986 
L 197.748234 281.066772 
L 198.639703 281.060557 
L 199.531172 281.054342 
L 200.422641 281.048128 
L 201.31411 281.041913 
" style="fill:none;stroke:#e68332;stroke-linecap:round;stroke-width:2.25;"/>
   </g>
   <g id="line2d_3">
    <path clip-path="url(#pcefbcb1290)" d="M 220.462115 269.735118 
L 221.422537 268.967116 
L 222.382958 268.199114 
L 223.34338 267.431112 
L 224.303801 266.66311 
L 225.264223 265.895108 
L 226.224644 265.127106 
L 227.185066 264.359104 
L 228.145487 263.591102 
L 229.105909 262.8231 
L 230.06633 262.055098 
L 231.026752 261.287096 
L 231.987173 260.519094 
L 232.947595 259.751093 
L 233.908016 258.983091 
L 234.868438 258.215089 
L 235.828859 257.447087 
L 236.789281 256.679085 
L 237.749702 255.911083 
L 238.710124 255.143081 
L 239.670545 254.375079 
L 240.630967 253.607077 
L 241.591388 252.839075 
L 242.55181 252.071073 
L 243.512231 251.303071 
L 244.472653 250.535069 
L 245.433074 249.767067 
L 246.393496 248.999065 
L 247.353917 248.231064 
L 248.314339 247.463062 
L 249.27476 246.69506 
L 250.235182 245.927058 
L 251.195603 245.159056 
L 252.156025 244.391054 
L 253.116446 243.623052 
L 254.076868 242.85505 
L 255.037289 242.087048 
L 255.997711 241.319046 
L 256.958132 240.551044 
L 257.918554 239.783042 
L 258.878975 239.01504 
L 259.839397 238.247038 
L 260.799818 237.479036 
L 261.76024 236.711034 
L 262.720661 235.943033 
L 263.681083 235.175031 
L 264.641504 234.407029 
L 265.601926 233.639027 
L 266.562347 232.871025 
L 267.522769 232.103023 
L 268.48319 231.335021 
L 269.443611 230.567019 
L 270.404033 229.799017 
L 271.364454 229.031015 
L 272.324876 228.263013 
L 273.285297 227.495011 
L 274.245719 226.727009 
L 275.20614 225.959007 
L 276.166562 225.191005 
L 277.126983 224.423004 
L 278.087405 223.655002 
L 279.047826 222.887 
L 280.008248 222.118998 
L 280.968669 221.350996 
L 281.929091 220.582994 
L 282.889512 219.814992 
L 283.849934 219.04699 
L 284.810355 218.278988 
L 285.770777 217.510986 
L 286.731198 216.742984 
L 287.69162 215.974982 
L 288.652041 215.20698 
L 289.612463 214.438978 
L 290.572884 213.670976 
L 291.533306 212.902974 
L 292.493727 212.134973 
L 293.454149 211.366971 
L 294.41457 210.598969 
L 295.374992 209.830967 
L 296.335413 209.062965 
L 297.295835 208.294963 
L 298.256256 207.526961 
L 299.216678 206.758959 
L 300.177099 205.990957 
L 301.137521 205.222955 
L 302.097942 204.454953 
L 303.058364 203.686951 
L 304.018785 202.918949 
L 304.979207 202.150947 
L 305.939628 201.382945 
L 306.90005 200.614944 
L 307.860471 199.846942 
L 308.820893 199.07894 
L 309.781314 198.310938 
L 310.741736 197.542936 
L 311.702157 196.774934 
L 312.662579 196.006932 
L 313.623 195.23893 
L 314.583422 194.470928 
L 315.543843 193.702926 
" style="fill:none;stroke:#bb9832;stroke-linecap:round;stroke-width:2.25;"/>
   </g>
   <g id="line2d_4">
    <path clip-path="url(#pcefbcb1290)" d="M 105.406194 306.295455 
L 107.734698 305.61935 
L 110.063202 304.943245 
L 112.391706 304.26714 
L 114.72021 303.591035 
L 117.048714 302.91493 
L 119.377218 302.238825 
L 121.705722 301.56272 
L 124.034226 300.886615 
L 126.36273 300.21051 
L 128.691234 299.534405 
L 131.019738 298.8583 
L 133.348242 298.182195 
L 135.676746 297.50609 
L 138.00525 296.829985 
L 140.333754 296.15388 
L 142.662257 295.477775 
L 144.990761 294.80167 
L 147.319265 294.125565 
L 149.647769 293.44946 
L 151.976273 292.773355 
L 154.304777 292.09725 
L 156.633281 291.421145 
L 158.961785 290.74504 
L 161.290289 290.068935 
L 163.618793 289.39283 
L 165.947297 288.716725 
L 168.275801 288.04062 
L 170.604305 287.364515 
L 172.932809 286.68841 
L 175.261313 286.012305 
L 177.589816 285.3362 
L 179.91832 284.660095 
L 182.246824 283.98399 
L 184.575328 283.307885 
L 186.903832 282.63178 
L 189.232336 281.955675 
L 191.56084 281.27957 
L 193.889344 280.603465 
L 196.217848 279.927361 
L 198.546352 279.251256 
L 200.874856 278.575151 
L 203.20336 277.899046 
L 205.531864 277.222941 
L 207.860368 276.546836 
L 210.188872 275.870731 
L 212.517375 275.194626 
L 214.845879 274.518521 
L 217.174383 273.842416 
L 219.502887 273.166311 
L 221.831391 272.490206 
L 224.159895 271.814101 
L 226.488399 271.137996 
L 228.816903 270.461891 
L 231.145407 269.785786 
L 233.473911 269.109681 
L 235.802415 268.433576 
L 238.130919 267.757471 
L 240.459423 267.081366 
L 242.787927 266.405261 
L 245.116431 265.729156 
L 247.444935 265.053051 
L 249.773438 264.376946 
L 252.101942 263.700841 
L 254.430446 263.024736 
L 256.75895 262.348631 
L 259.087454 261.672526 
L 261.415958 260.996421 
L 263.744462 260.320316 
L 266.072966 259.644211 
L 268.40147 258.968106 
L 270.729974 258.292001 
L 273.058478 257.615896 
L 275.386982 256.939791 
L 277.715486 256.263686 
L 280.04399 255.587581 
L 282.372494 254.911476 
L 284.700997 254.235371 
L 287.029501 253.559266 
L 289.358005 252.883162 
L 291.686509 252.207057 
L 294.015013 251.530952 
L 296.343517 250.854847 
L 298.672021 250.178742 
L 301.000525 249.502637 
L 303.329029 248.826532 
L 305.657533 248.150427 
L 307.986037 247.474322 
L 310.314541 246.798217 
L 312.643045 246.122112 
L 314.971549 245.446007 
L 317.300053 244.769902 
L 319.628556 244.093797 
L 321.95706 243.417692 
L 324.285564 242.741587 
L 326.614068 242.065482 
L 328.942572 241.389377 
L 331.271076 240.713272 
L 333.59958 240.037167 
L 335.928084 239.361062 
" style="fill:none;stroke:#97a431;stroke-linecap:round;stroke-width:2.25;"/>
   </g>
   <g id="line2d_5">
    <path clip-path="url(#pcefbcb1290)" d="M 194.256788 283.474327 
L 195.375761 283.464874 
L 196.494734 283.455421 
L 197.613707 283.445968 
L 198.73268 283.436515 
L 199.851653 283.427061 
L 200.970626 283.417608 
L 202.089599 283.408155 
L 203.208572 283.398702 
L 204.327545 283.389249 
L 205.446518 283.379796 
L 206.565491 283.370343 
L 207.684464 283.36089 
L 208.803438 283.351437 
L 209.922411 283.341984 
L 211.041384 283.332531 
L 212.160357 283.323078 
L 213.27933 283.313625 
L 214.398303 283.304172 
L 215.517276 283.294719 
L 216.636249 283.285266 
L 217.755222 283.275813 
L 218.874195 283.26636 
L 219.993168 283.256907 
L 221.112141 283.247454 
L 222.231114 283.238001 
L 223.350087 283.228548 
L 224.469061 283.219095 
L 225.588034 283.209642 
L 226.707007 283.200189 
L 227.82598 283.190736 
L 228.944953 283.181283 
L 230.063926 283.17183 
L 231.182899 283.162377 
L 232.301872 283.152924 
L 233.420845 283.14347 
L 234.539818 283.134017 
L 235.658791 283.124564 
L 236.777764 283.115111 
L 237.896737 283.105658 
L 239.015711 283.096205 
L 240.134684 283.086752 
L 241.253657 283.077299 
L 242.37263 283.067846 
L 243.491603 283.058393 
L 244.610576 283.04894 
L 245.729549 283.039487 
L 246.848522 283.030034 
L 247.967495 283.020581 
L 249.086468 283.011128 
L 250.205441 283.001675 
L 251.324414 282.992222 
L 252.443387 282.982769 
L 253.56236 282.973316 
L 254.681334 282.963863 
L 255.800307 282.95441 
L 256.91928 282.944957 
L 258.038253 282.935504 
L 259.157226 282.926051 
L 260.276199 282.916598 
L 261.395172 282.907145 
L 262.514145 282.897692 
L 263.633118 282.888239 
L 264.752091 282.878786 
L 265.871064 282.869333 
L 266.990037 282.859879 
L 268.10901 282.850426 
L 269.227983 282.840973 
L 270.346957 282.83152 
L 271.46593 282.822067 
L 272.584903 282.812614 
L 273.703876 282.803161 
L 274.822849 282.793708 
L 275.941822 282.784255 
L 277.060795 282.774802 
L 278.179768 282.765349 
L 279.298741 282.755896 
L 280.417714 282.746443 
L 281.536687 282.73699 
L 282.65566 282.727537 
L 283.774633 282.718084 
L 284.893607 282.708631 
L 286.01258 282.699178 
L 287.131553 282.689725 
L 288.250526 282.680272 
L 289.369499 282.670819 
L 290.488472 282.661366 
L 291.607445 282.651913 
L 292.726418 282.64246 
L 293.845391 282.633007 
L 294.964364 282.623554 
L 296.083337 282.614101 
L 297.20231 282.604648 
L 298.321283 282.595195 
L 299.440256 282.585742 
L 300.55923 282.576289 
L 301.678203 282.566835 
L 302.797176 282.557382 
L 303.916149 282.547929 
L 305.035122 282.538476 
" style="fill:none;stroke:#50b131;stroke-linecap:round;stroke-width:2.25;"/>
   </g>
   <g id="line2d_6">
    <path clip-path="url(#pcefbcb1290)" d="M 163.630267 215.220243 
L 164.458318 215.561602 
L 165.28637 215.902961 
L 166.114422 216.244321 
L 166.942473 216.58568 
L 167.770525 216.92704 
L 168.598577 217.268399 
L 169.426629 217.609758 
L 170.25468 217.951118 
L 171.082732 218.292477 
L 171.910784 218.633837 
L 172.738835 218.975196 
L 173.566887 219.316555 
L 174.394939 219.657915 
L 175.22299 219.999274 
L 176.051042 220.340634 
L 176.879094 220.681993 
L 177.707145 221.023352 
L 178.535197 221.364712 
L 179.363249 221.706071 
L 180.191301 222.047431 
L 181.019352 222.38879 
L 181.847404 222.730149 
L 182.675456 223.071509 
L 183.503507 223.412868 
L 184.331559 223.754228 
L 185.159611 224.095587 
L 185.987662 224.436946 
L 186.815714 224.778306 
L 187.643766 225.119665 
L 188.471818 225.461025 
L 189.299869 225.802384 
L 190.127921 226.143743 
L 190.955973 226.485103 
L 191.784024 226.826462 
L 192.612076 227.167822 
L 193.440128 227.509181 
L 194.268179 227.85054 
L 195.096231 228.1919 
L 195.924283 228.533259 
L 196.752334 228.874619 
L 197.580386 229.215978 
L 198.408438 229.557337 
L 199.23649 229.898697 
L 200.064541 230.240056 
L 200.892593 230.581416 
L 201.720645 230.922775 
L 202.548696 231.264134 
L 203.376748 231.605494 
L 204.2048 231.946853 
L 205.032851 232.288213 
L 205.860903 232.629572 
L 206.688955 232.970931 
L 207.517006 233.312291 
L 208.345058 233.65365 
L 209.17311 233.99501 
L 210.001162 234.336369 
L 210.829213 234.677728 
L 211.657265 235.019088 
L 212.485317 235.360447 
L 213.313368 235.701807 
L 214.14142 236.043166 
L 214.969472 236.384525 
L 215.797523 236.725885 
L 216.625575 237.067244 
L 217.453627 237.408604 
L 218.281679 237.749963 
L 219.10973 238.091322 
L 219.937782 238.432682 
L 220.765834 238.774041 
L 221.593885 239.115401 
L 222.421937 239.45676 
L 223.249989 239.798119 
L 224.07804 240.139479 
L 224.906092 240.480838 
L 225.734144 240.822198 
L 226.562195 241.163557 
L 227.390247 241.504916 
L 228.218299 241.846276 
L 229.046351 242.187635 
L 229.874402 242.528995 
L 230.702454 242.870354 
L 231.530506 243.211713 
L 232.358557 243.553073 
L 233.186609 243.894432 
L 234.014661 244.235792 
L 234.842712 244.577151 
L 235.670764 244.91851 
L 236.498816 245.25987 
L 237.326867 245.601229 
L 238.154919 245.942589 
L 238.982971 246.283948 
L 239.811023 246.625307 
L 240.639074 246.966667 
L 241.467126 247.308026 
L 242.295178 247.649386 
L 243.123229 247.990745 
L 243.951281 248.332104 
L 244.779333 248.673464 
L 245.607384 249.014823 
" style="fill:none;stroke:#34af84;stroke-linecap:round;stroke-width:2.25;"/>
   </g>
   <g id="line2d_7">
    <path clip-path="url(#pcefbcb1290)" d="M 194.501929 261.476728 
L 195.630284 260.975744 
L 196.758638 260.474761 
L 197.886993 259.973778 
L 199.015347 259.472795 
L 200.143702 258.971812 
L 201.272057 258.470828 
L 202.400411 257.969845 
L 203.528766 257.468862 
L 204.65712 256.967879 
L 205.785475 256.466896 
L 206.913829 255.965912 
L 208.042184 255.464929 
L 209.170538 254.963946 
L 210.298893 254.462963 
L 211.427248 253.961979 
L 212.555602 253.460996 
L 213.683957 252.960013 
L 214.812311 252.45903 
L 215.940666 251.958047 
L 217.06902 251.457063 
L 218.197375 250.95608 
L 219.32573 250.455097 
L 220.454084 249.954114 
L 221.582439 249.453131 
L 222.710793 248.952147 
L 223.839148 248.451164 
L 224.967502 247.950181 
L 226.095857 247.449198 
L 227.224211 246.948214 
L 228.352566 246.447231 
L 229.480921 245.946248 
L 230.609275 245.445265 
L 231.73763 244.944282 
L 232.865984 244.443298 
L 233.994339 243.942315 
L 235.122693 243.441332 
L 236.251048 242.940349 
L 237.379402 242.439366 
L 238.507757 241.938382 
L 239.636112 241.437399 
L 240.764466 240.936416 
L 241.892821 240.435433 
L 243.021175 239.934449 
L 244.14953 239.433466 
L 245.277884 238.932483 
L 246.406239 238.4315 
L 247.534594 237.930517 
L 248.662948 237.429533 
L 249.791303 236.92855 
L 250.919657 236.427567 
L 252.048012 235.926584 
L 253.176366 235.425601 
L 254.304721 234.924617 
L 255.433075 234.423634 
L 256.56143 233.922651 
L 257.689785 233.421668 
L 258.818139 232.920684 
L 259.946494 232.419701 
L 261.074848 231.918718 
L 262.203203 231.417735 
L 263.331557 230.916752 
L 264.459912 230.415768 
L 265.588267 229.914785 
L 266.716621 229.413802 
L 267.844976 228.912819 
L 268.97333 228.411836 
L 270.101685 227.910852 
L 271.230039 227.409869 
L 272.358394 226.908886 
L 273.486748 226.407903 
L 274.615103 225.906919 
L 275.743458 225.405936 
L 276.871812 224.904953 
L 278.000167 224.40397 
L 279.128521 223.902987 
L 280.256876 223.402003 
L 281.38523 222.90102 
L 282.513585 222.400037 
L 283.64194 221.899054 
L 284.770294 221.398071 
L 285.898649 220.897087 
L 287.027003 220.396104 
L 288.155358 219.895121 
L 289.283712 219.394138 
L 290.412067 218.893154 
L 291.540421 218.392171 
L 292.668776 217.891188 
L 293.797131 217.390205 
L 294.925485 216.889222 
L 296.05384 216.388238 
L 297.182194 215.887255 
L 298.310549 215.386272 
L 299.438903 214.885289 
L 300.567258 214.384306 
L 301.695612 213.883322 
L 302.823967 213.382339 
L 303.952322 212.881356 
L 305.080676 212.380373 
L 306.209031 211.879389 
" style="fill:none;stroke:#36ada4;stroke-linecap:round;stroke-width:2.25;"/>
   </g>
   <g id="line2d_8">
    <path clip-path="url(#pcefbcb1290)" d="M 74.212888 215.33533 
L 75.775523 215.584226 
L 77.338157 215.833123 
L 78.900792 216.082019 
L 80.463426 216.330915 
L 82.026061 216.579812 
L 83.588695 216.828708 
L 85.151329 217.077605 
L 86.713964 217.326501 
L 88.276598 217.575397 
L 89.839233 217.824294 
L 91.401867 218.07319 
L 92.964502 218.322086 
L 94.527136 218.570983 
L 96.089771 218.819879 
L 97.652405 219.068775 
L 99.21504 219.317672 
L 100.777674 219.566568 
L 102.340309 219.815464 
L 103.902943 220.064361 
L 105.465578 220.313257 
L 107.028212 220.562154 
L 108.590846 220.81105 
L 110.153481 221.059946 
L 111.716115 221.308843 
L 113.27875 221.557739 
L 114.841384 221.806635 
L 116.404019 222.055532 
L 117.966653 222.304428 
L 119.529288 222.553324 
L 121.091922 222.802221 
L 122.654557 223.051117 
L 124.217191 223.300014 
L 125.779826 223.54891 
L 127.34246 223.797806 
L 128.905095 224.046703 
L 130.467729 224.295599 
L 132.030364 224.544495 
L 133.592998 224.793392 
L 135.155632 225.042288 
L 136.718267 225.291184 
L 138.280901 225.540081 
L 139.843536 225.788977 
L 141.40617 226.037874 
L 142.968805 226.28677 
L 144.531439 226.535666 
L 146.094074 226.784563 
L 147.656708 227.033459 
L 149.219343 227.282355 
L 150.781977 227.531252 
L 152.344612 227.780148 
L 153.907246 228.029044 
L 155.469881 228.277941 
L 157.032515 228.526837 
L 158.595149 228.775733 
L 160.157784 229.02463 
L 161.720418 229.273526 
L 163.283053 229.522423 
L 164.845687 229.771319 
L 166.408322 230.020215 
L 167.970956 230.269112 
L 169.533591 230.518008 
L 171.096225 230.766904 
L 172.65886 231.015801 
L 174.221494 231.264697 
L 175.784129 231.513593 
L 177.346763 231.76249 
L 178.909398 232.011386 
L 180.472032 232.260283 
L 182.034666 232.509179 
L 183.597301 232.758075 
L 185.159935 233.006972 
L 186.72257 233.255868 
L 188.285204 233.504764 
L 189.847839 233.753661 
L 191.410473 234.002557 
L 192.973108 234.251453 
L 194.535742 234.50035 
L 196.098377 234.749246 
L 197.661011 234.998142 
L 199.223646 235.247039 
L 200.78628 235.495935 
L 202.348915 235.744832 
L 203.911549 235.993728 
L 205.474184 236.242624 
L 207.036818 236.491521 
L 208.599452 236.740417 
L 210.162087 236.989313 
L 211.724721 237.23821 
L 213.287356 237.487106 
L 214.84999 237.736002 
L 216.412625 237.984899 
L 217.975259 238.233795 
L 219.537894 238.482692 
L 221.100528 238.731588 
L 222.663163 238.980484 
L 224.225797 239.229381 
L 225.788432 239.478277 
L 227.351066 239.727173 
L 228.913701 239.97607 
" style="fill:none;stroke:#38aabf;stroke-linecap:round;stroke-width:2.25;"/>
   </g>
   <g id="line2d_9">
    <path clip-path="url(#pcefbcb1290)" d="M 151.262872 293.949782 
L 152.230483 293.486467 
L 153.198095 293.023151 
L 154.165706 292.559836 
L 155.133317 292.09652 
L 156.100929 291.633205 
L 157.06854 291.16989 
L 158.036151 290.706574 
L 159.003763 290.243259 
L 159.971374 289.779944 
L 160.938986 289.316628 
L 161.906597 288.853313 
L 162.874208 288.389998 
L 163.84182 287.926682 
L 164.809431 287.463367 
L 165.777042 287.000051 
L 166.744654 286.536736 
L 167.712265 286.073421 
L 168.679877 285.610105 
L 169.647488 285.14679 
L 170.615099 284.683475 
L 171.582711 284.220159 
L 172.550322 283.756844 
L 173.517933 283.293529 
L 174.485545 282.830213 
L 175.453156 282.366898 
L 176.420768 281.903582 
L 177.388379 281.440267 
L 178.35599 280.976952 
L 179.323602 280.513636 
L 180.291213 280.050321 
L 181.258824 279.587006 
L 182.226436 279.12369 
L 183.194047 278.660375 
L 184.161658 278.19706 
L 185.12927 277.733744 
L 186.096881 277.270429 
L 187.064493 276.807113 
L 188.032104 276.343798 
L 188.999715 275.880483 
L 189.967327 275.417167 
L 190.934938 274.953852 
L 191.902549 274.490537 
L 192.870161 274.027221 
L 193.837772 273.563906 
L 194.805384 273.100591 
L 195.772995 272.637275 
L 196.740606 272.17396 
L 197.708218 271.710644 
L 198.675829 271.247329 
L 199.64344 270.784014 
L 200.611052 270.320698 
L 201.578663 269.857383 
L 202.546275 269.394068 
L 203.513886 268.930752 
L 204.481497 268.467437 
L 205.449109 268.004122 
L 206.41672 267.540806 
L 207.384331 267.077491 
L 208.351943 266.614175 
L 209.319554 266.15086 
L 210.287165 265.687545 
L 211.254777 265.224229 
L 212.222388 264.760914 
L 213.19 264.297599 
L 214.157611 263.834283 
L 215.125222 263.370968 
L 216.092834 262.907653 
L 217.060445 262.444337 
L 218.028056 261.981022 
L 218.995668 261.517706 
L 219.963279 261.054391 
L 220.930891 260.591076 
L 221.898502 260.12776 
L 222.866113 259.664445 
L 223.833725 259.20113 
L 224.801336 258.737814 
L 225.768947 258.274499 
L 226.736559 257.811184 
L 227.70417 257.347868 
L 228.671782 256.884553 
L 229.639393 256.421237 
L 230.607004 255.957922 
L 231.574616 255.494607 
L 232.542227 255.031291 
L 233.509838 254.567976 
L 234.47745 254.104661 
L 235.445061 253.641345 
L 236.412672 253.17803 
L 237.380284 252.714715 
L 238.347895 252.251399 
L 239.315507 251.788084 
L 240.283118 251.324769 
L 241.250729 250.861453 
L 242.218341 250.398138 
L 243.185952 249.934822 
L 244.153563 249.471507 
L 245.121175 249.008192 
L 246.088786 248.544876 
L 247.056398 248.081561 
" style="fill:none;stroke:#3ba3ec;stroke-linecap:round;stroke-width:2.25;"/>
   </g>
   <g id="line2d_10">
    <path clip-path="url(#pcefbcb1290)" d="M 121.616413 283.862526 
L 123.541289 283.371999 
L 125.466164 282.881471 
L 127.391039 282.390943 
L 129.315915 281.900416 
L 131.24079 281.409888 
L 133.165665 280.91936 
L 135.090541 280.428832 
L 137.015416 279.938305 
L 138.940291 279.447777 
L 140.865167 278.957249 
L 142.790042 278.466722 
L 144.714917 277.976194 
L 146.639792 277.485666 
L 148.564668 276.995139 
L 150.489543 276.504611 
L 152.414418 276.014083 
L 154.339294 275.523555 
L 156.264169 275.033028 
L 158.189044 274.5425 
L 160.11392 274.051972 
L 162.038795 273.561445 
L 163.96367 273.070917 
L 165.888546 272.580389 
L 167.813421 272.089861 
L 169.738296 271.599334 
L 171.663171 271.108806 
L 173.588047 270.618278 
L 175.512922 270.127751 
L 177.437797 269.637223 
L 179.362673 269.146695 
L 181.287548 268.656167 
L 183.212423 268.16564 
L 185.137299 267.675112 
L 187.062174 267.184584 
L 188.987049 266.694057 
L 190.911924 266.203529 
L 192.8368 265.713001 
L 194.761675 265.222473 
L 196.68655 264.731946 
L 198.611426 264.241418 
L 200.536301 263.75089 
L 202.461176 263.260363 
L 204.386052 262.769835 
L 206.310927 262.279307 
L 208.235802 261.78878 
L 210.160678 261.298252 
L 212.085553 260.807724 
L 214.010428 260.317196 
L 215.935303 259.826669 
L 217.860179 259.336141 
L 219.785054 258.845613 
L 221.709929 258.355086 
L 223.634805 257.864558 
L 225.55968 257.37403 
L 227.484555 256.883502 
L 229.409431 256.392975 
L 231.334306 255.902447 
L 233.259181 255.411919 
L 235.184057 254.921392 
L 237.108932 254.430864 
L 239.033807 253.940336 
L 240.958682 253.449808 
L 242.883558 252.959281 
L 244.808433 252.468753 
L 246.733308 251.978225 
L 248.658184 251.487698 
L 250.583059 250.99717 
L 252.507934 250.506642 
L 254.43281 250.016114 
L 256.357685 249.525587 
L 258.28256 249.035059 
L 260.207436 248.544531 
L 262.132311 248.054004 
L 264.057186 247.563476 
L 265.982061 247.072948 
L 267.906937 246.582421 
L 269.831812 246.091893 
L 271.756687 245.601365 
L 273.681563 245.110837 
L 275.606438 244.62031 
L 277.531313 244.129782 
L 279.456189 243.639254 
L 281.381064 243.148727 
L 283.305939 242.658199 
L 285.230815 242.167671 
L 287.15569 241.677143 
L 289.080565 241.186616 
L 291.00544 240.696088 
L 292.930316 240.20556 
L 294.855191 239.715033 
L 296.780066 239.224505 
L 298.704942 238.733977 
L 300.629817 238.243449 
L 302.554692 237.752922 
L 304.479568 237.262394 
L 306.404443 236.771866 
L 308.329318 236.281339 
L 310.254194 235.790811 
L 312.179069 235.300283 
" style="fill:none;stroke:#a48cf4;stroke-linecap:round;stroke-width:2.25;"/>
   </g>
   <g id="line2d_11">
    <path clip-path="url(#pcefbcb1290)" d="M 150.24153 282.122765 
L 150.996749 281.890182 
L 151.751968 281.657599 
L 152.507187 281.425015 
L 153.262406 281.192432 
L 154.017625 280.959849 
L 154.772844 280.727265 
L 155.528062 280.494682 
L 156.283281 280.262099 
L 157.0385 280.029516 
L 157.793719 279.796932 
L 158.548938 279.564349 
L 159.304157 279.331766 
L 160.059376 279.099183 
L 160.814595 278.866599 
L 161.569814 278.634016 
L 162.325033 278.401433 
L 163.080251 278.168849 
L 163.83547 277.936266 
L 164.590689 277.703683 
L 165.345908 277.4711 
L 166.101127 277.238516 
L 166.856346 277.005933 
L 167.611565 276.77335 
L 168.366784 276.540766 
L 169.122003 276.308183 
L 169.877222 276.0756 
L 170.63244 275.843017 
L 171.387659 275.610433 
L 172.142878 275.37785 
L 172.898097 275.145267 
L 173.653316 274.912684 
L 174.408535 274.6801 
L 175.163754 274.447517 
L 175.918973 274.214934 
L 176.674192 273.98235 
L 177.429411 273.749767 
L 178.184629 273.517184 
L 178.939848 273.284601 
L 179.695067 273.052017 
L 180.450286 272.819434 
L 181.205505 272.586851 
L 181.960724 272.354267 
L 182.715943 272.121684 
L 183.471162 271.889101 
L 184.226381 271.656518 
L 184.981599 271.423934 
L 185.736818 271.191351 
L 186.492037 270.958768 
L 187.247256 270.726185 
L 188.002475 270.493601 
L 188.757694 270.261018 
L 189.512913 270.028435 
L 190.268132 269.795851 
L 191.023351 269.563268 
L 191.77857 269.330685 
L 192.533788 269.098102 
L 193.289007 268.865518 
L 194.044226 268.632935 
L 194.799445 268.400352 
L 195.554664 268.167768 
L 196.309883 267.935185 
L 197.065102 267.702602 
L 197.820321 267.470019 
L 198.57554 267.237435 
L 199.330759 267.004852 
L 200.085977 266.772269 
L 200.841196 266.539686 
L 201.596415 266.307102 
L 202.351634 266.074519 
L 203.106853 265.841936 
L 203.862072 265.609352 
L 204.617291 265.376769 
L 205.37251 265.144186 
L 206.127729 264.911603 
L 206.882948 264.679019 
L 207.638166 264.446436 
L 208.393385 264.213853 
L 209.148604 263.981269 
L 209.903823 263.748686 
L 210.659042 263.516103 
L 211.414261 263.28352 
L 212.16948 263.050936 
L 212.924699 262.818353 
L 213.679918 262.58577 
L 214.435137 262.353187 
L 215.190355 262.120603 
L 215.945574 261.88802 
L 216.700793 261.655437 
L 217.456012 261.422853 
L 218.211231 261.19027 
L 218.96645 260.957687 
L 219.721669 260.725104 
L 220.476888 260.49252 
L 221.232107 260.259937 
L 221.987326 260.027354 
L 222.742544 259.794771 
L 223.497763 259.562187 
L 224.252982 259.329604 
L 225.008201 259.097021 
" style="fill:none;stroke:#e866f4;stroke-linecap:round;stroke-width:2.25;"/>
   </g>
   <g id="line2d_12">
    <path clip-path="url(#pcefbcb1290)" d="M 143.258103 290.897468 
L 143.47168 290.89457 
L 143.685256 290.891671 
L 143.898833 290.888772 
L 144.112409 290.885873 
L 144.325986 290.882974 
L 144.539562 290.880075 
L 144.753139 290.877176 
L 144.966715 290.874277 
L 145.180291 290.871378 
L 145.393868 290.868479 
L 145.607444 290.86558 
L 145.821021 290.862682 
L 146.034597 290.859783 
L 146.248174 290.856884 
L 146.46175 290.853985 
L 146.675327 290.851086 
L 146.888903 290.848187 
L 147.102479 290.845288 
L 147.316056 290.842389 
L 147.529632 290.83949 
L 147.743209 290.836591 
L 147.956785 290.833692 
L 148.170362 290.830794 
L 148.383938 290.827895 
L 148.597515 290.824996 
L 148.811091 290.822097 
L 149.024668 290.819198 
L 149.238244 290.816299 
L 149.45182 290.8134 
L 149.665397 290.810501 
L 149.878973 290.807602 
L 150.09255 290.804703 
L 150.306126 290.801804 
L 150.519703 290.798906 
L 150.733279 290.796007 
L 150.946856 290.793108 
L 151.160432 290.790209 
L 151.374009 290.78731 
L 151.587585 290.784411 
L 151.801161 290.781512 
L 152.014738 290.778613 
L 152.228314 290.775714 
L 152.441891 290.772815 
L 152.655467 290.769916 
L 152.869044 290.767018 
L 153.08262 290.764119 
L 153.296197 290.76122 
L 153.509773 290.758321 
L 153.72335 290.755422 
L 153.936926 290.752523 
L 154.150502 290.749624 
L 154.364079 290.746725 
L 154.577655 290.743826 
L 154.791232 290.740927 
L 155.004808 290.738028 
L 155.218385 290.73513 
L 155.431961 290.732231 
L 155.645538 290.729332 
L 155.859114 290.726433 
L 156.072691 290.723534 
L 156.286267 290.720635 
L 156.499843 290.717736 
L 156.71342 290.714837 
L 156.926996 290.711938 
L 157.140573 290.709039 
L 157.354149 290.70614 
L 157.567726 290.703242 
L 157.781302 290.700343 
L 157.994879 290.697444 
L 158.208455 290.694545 
L 158.422031 290.691646 
L 158.635608 290.688747 
L 158.849184 290.685848 
L 159.062761 290.682949 
L 159.276337 290.68005 
L 159.489914 290.677151 
L 159.70349 290.674252 
L 159.917067 290.671354 
L 160.130643 290.668455 
L 160.34422 290.665556 
L 160.557796 290.662657 
L 160.771372 290.659758 
L 160.984949 290.656859 
L 161.198525 290.65396 
L 161.412102 290.651061 
L 161.625678 290.648162 
L 161.839255 290.645263 
L 162.052831 290.642364 
L 162.266408 290.639466 
L 162.479984 290.636567 
L 162.693561 290.633668 
L 162.907137 290.630769 
L 163.120713 290.62787 
L 163.33429 290.624971 
L 163.547866 290.622072 
L 163.761443 290.619173 
L 163.975019 290.616274 
L 164.188596 290.613375 
L 164.402172 290.610477 
" style="fill:none;stroke:#f668c2;stroke-linecap:round;stroke-width:2.25;"/>
   </g>
   <g id="patch_3">
    <path d="M 54.522222 320.2 
L 54.522222 14.3 
" style="fill:none;stroke:#262626;stroke-linecap:square;stroke-linejoin:miter;stroke-width:0.8;"/>
   </g>
   <g id="patch_4">
    <path d="M 54.522222 320.2 
L 355.61875 320.2 
" style="fill:none;stroke:#262626;stroke-linecap:square;stroke-linejoin:miter;stroke-width:0.8;"/>
   </g>
   <g id="text_16">
    <!-- r=0.326, p=0.0085 -->
    <defs>
     <path d="M 52.828125 42.09375 
L 5.5625 42.09375 
L 5.5625 50.296875 
L 52.828125 50.296875 
z
M 52.828125 20.359375 
L 5.5625 20.359375 
L 5.5625 28.5625 
L 52.828125 28.5625 
z
" id="ArialMT-61"/>
     <path d="M 8.890625 0 
L 8.890625 10.015625 
L 18.890625 10.015625 
L 18.890625 0 
Q 18.890625 -5.515625 16.9375 -8.90625 
Q 14.984375 -12.3125 10.75 -14.15625 
L 8.296875 -10.40625 
Q 11.078125 -9.1875 12.390625 -6.8125 
Q 13.71875 -4.4375 13.875 0 
z
" id="ArialMT-44"/>
     <path d="M 17.671875 38.8125 
Q 12.203125 40.828125 9.5625 44.53125 
Q 6.9375 48.25 6.9375 53.421875 
Q 6.9375 61.234375 12.546875 66.546875 
Q 18.171875 71.875 27.484375 71.875 
Q 36.859375 71.875 42.578125 66.421875 
Q 48.296875 60.984375 48.296875 53.171875 
Q 48.296875 48.1875 45.671875 44.5 
Q 43.0625 40.828125 37.75 38.8125 
Q 44.34375 36.671875 47.78125 31.875 
Q 51.21875 27.09375 51.21875 20.453125 
Q 51.21875 11.28125 44.71875 5.03125 
Q 38.234375 -1.21875 27.640625 -1.21875 
Q 17.046875 -1.21875 10.546875 5.046875 
Q 4.046875 11.328125 4.046875 20.703125 
Q 4.046875 27.6875 7.59375 32.390625 
Q 11.140625 37.109375 17.671875 38.8125 
z
M 15.921875 53.71875 
Q 15.921875 48.640625 19.1875 45.40625 
Q 22.46875 42.1875 27.6875 42.1875 
Q 32.765625 42.1875 36.015625 45.375 
Q 39.265625 48.578125 39.265625 53.21875 
Q 39.265625 58.0625 35.90625 61.359375 
Q 32.5625 64.65625 27.59375 64.65625 
Q 22.5625 64.65625 19.234375 61.421875 
Q 15.921875 58.203125 15.921875 53.71875 
z
M 13.09375 20.65625 
Q 13.09375 16.890625 14.875 13.375 
Q 16.65625 9.859375 20.171875 7.921875 
Q 23.6875 6 27.734375 6 
Q 34.03125 6 38.125 10.046875 
Q 42.234375 14.109375 42.234375 20.359375 
Q 42.234375 26.703125 38.015625 30.859375 
Q 33.796875 35.015625 27.4375 35.015625 
Q 21.234375 35.015625 17.15625 30.90625 
Q 13.09375 26.8125 13.09375 20.65625 
z
" id="ArialMT-56"/>
    </defs>
    <g style="fill:#262626;" transform="translate(162.855933 112.043331)scale(0.15 -0.15)">
     <use xlink:href="#ArialMT-114"/>
     <use x="33.300781" xlink:href="#ArialMT-61"/>
     <use x="91.699219" xlink:href="#ArialMT-48"/>
     <use x="147.314453" xlink:href="#ArialMT-46"/>
     <use x="175.097656" xlink:href="#ArialMT-51"/>
     <use x="230.712891" xlink:href="#ArialMT-50"/>
     <use x="286.328125" xlink:href="#ArialMT-54"/>
     <use x="341.943359" xlink:href="#ArialMT-44"/>
     <use x="369.726562" xlink:href="#ArialMT-32"/>
     <use x="397.509766" xlink:href="#ArialMT-112"/>
     <use x="453.125" xlink:href="#ArialMT-61"/>
     <use x="511.523438" xlink:href="#ArialMT-48"/>
     <use x="567.138672" xlink:href="#ArialMT-46"/>
     <use x="594.921875" xlink:href="#ArialMT-48"/>
     <use x="650.537109" xlink:href="#ArialMT-48"/>
     <use x="706.152344" xlink:href="#ArialMT-56"/>
     <use x="761.767578" xlink:href="#ArialMT-53"/>
    </g>
   </g>
  </g>
  <g id="legend_1">
   <g id="text_17">
    <!-- host_subject_id -->
    <defs>
     <path d="M -1.515625 -19.875 
L -1.515625 -13.53125 
L 56.734375 -13.53125 
L 56.734375 -19.875 
z
" id="ArialMT-95"/>
     <path d="M 40.578125 0 
L 40.578125 7.625 
Q 34.515625 -1.171875 24.125 -1.171875 
Q 19.53125 -1.171875 15.546875 0.578125 
Q 11.578125 2.34375 9.640625 5 
Q 7.71875 7.671875 6.9375 11.53125 
Q 6.390625 14.109375 6.390625 19.734375 
L 6.390625 51.859375 
L 15.1875 51.859375 
L 15.1875 23.09375 
Q 15.1875 16.21875 15.71875 13.8125 
Q 16.546875 10.359375 19.234375 8.375 
Q 21.921875 6.390625 25.875 6.390625 
Q 29.828125 6.390625 33.296875 8.421875 
Q 36.765625 10.453125 38.203125 13.9375 
Q 39.65625 17.4375 39.65625 24.078125 
L 39.65625 51.859375 
L 48.4375 51.859375 
L 48.4375 0 
z
" id="ArialMT-117"/>
     <path d="M 14.703125 0 
L 6.546875 0 
L 6.546875 71.578125 
L 15.328125 71.578125 
L 15.328125 46.046875 
Q 20.90625 53.03125 29.546875 53.03125 
Q 34.328125 53.03125 38.59375 51.09375 
Q 42.875 49.171875 45.625 45.671875 
Q 48.390625 42.1875 49.953125 37.25 
Q 51.515625 32.328125 51.515625 26.703125 
Q 51.515625 13.375 44.921875 6.09375 
Q 38.328125 -1.171875 29.109375 -1.171875 
Q 19.921875 -1.171875 14.703125 6.5 
z
M 14.59375 26.3125 
Q 14.59375 17 17.140625 12.84375 
Q 21.296875 6.0625 28.375 6.0625 
Q 34.125 6.0625 38.328125 11.0625 
Q 42.53125 16.0625 42.53125 25.984375 
Q 42.53125 36.140625 38.5 40.96875 
Q 34.46875 45.796875 28.765625 45.796875 
Q 23 45.796875 18.796875 40.796875 
Q 14.59375 35.796875 14.59375 26.3125 
z
" id="ArialMT-98"/>
     <path d="M 6.546875 61.375 
L 6.546875 71.578125 
L 15.328125 71.578125 
L 15.328125 61.375 
z
M -4.59375 -20.125 
L -2.9375 -12.640625 
Q -0.296875 -13.328125 1.21875 -13.328125 
Q 3.90625 -13.328125 5.21875 -11.546875 
Q 6.546875 -9.765625 6.546875 -2.640625 
L 6.546875 51.859375 
L 15.328125 51.859375 
L 15.328125 -2.828125 
Q 15.328125 -12.40625 12.84375 -16.15625 
Q 9.671875 -21.046875 2.296875 -21.046875 
Q -1.265625 -21.046875 -4.59375 -20.125 
z
" id="ArialMT-106"/>
    </defs>
    <g style="fill:#262626;" transform="translate(359.6375 97.654688)scale(0.1 -0.1)">
     <use xlink:href="#ArialMT-104"/>
     <use x="55.615234" xlink:href="#ArialMT-111"/>
     <use x="111.230469" xlink:href="#ArialMT-115"/>
     <use x="161.230469" xlink:href="#ArialMT-116"/>
     <use x="189.013672" xlink:href="#ArialMT-95"/>
     <use x="244.628906" xlink:href="#ArialMT-115"/>
     <use x="294.628906" xlink:href="#ArialMT-117"/>
     <use x="350.244141" xlink:href="#ArialMT-98"/>
     <use x="405.859375" xlink:href="#ArialMT-106"/>
     <use x="428.076172" xlink:href="#ArialMT-101"/>
     <use x="483.691406" xlink:href="#ArialMT-99"/>
     <use x="533.691406" xlink:href="#ArialMT-116"/>
     <use x="561.474609" xlink:href="#ArialMT-95"/>
     <use x="617.089844" xlink:href="#ArialMT-105"/>
     <use x="639.306641" xlink:href="#ArialMT-100"/>
    </g>
   </g>
   <g id="PathCollection_13">
    <g>
     <use style="fill:#f77189;fill-opacity:0.8;stroke:#f77189;stroke-opacity:0.8;" x="374.264062" xlink:href="#mc182c78601" y="109.292188"/>
    </g>
   </g>
   <g id="text_18">
    <!-- DM001 -->
    <defs>
     <path d="M 7.421875 0 
L 7.421875 71.578125 
L 21.6875 71.578125 
L 38.625 20.90625 
Q 40.96875 13.8125 42.046875 10.296875 
Q 43.265625 14.203125 45.84375 21.78125 
L 62.984375 71.578125 
L 75.734375 71.578125 
L 75.734375 0 
L 66.609375 0 
L 66.609375 59.90625 
L 45.796875 0 
L 37.25 0 
L 16.546875 60.9375 
L 16.546875 0 
z
" id="ArialMT-77"/>
    </defs>
    <g style="fill:#262626;" transform="translate(392.264062 111.917188)scale(0.1 -0.1)">
     <use xlink:href="#ArialMT-68"/>
     <use x="72.216797" xlink:href="#ArialMT-77"/>
     <use x="155.517578" xlink:href="#ArialMT-48"/>
     <use x="211.132812" xlink:href="#ArialMT-48"/>
     <use x="266.748047" xlink:href="#ArialMT-49"/>
    </g>
   </g>
   <g id="PathCollection_14">
    <g>
     <use style="fill:#e68332;fill-opacity:0.8;stroke:#e68332;stroke-opacity:0.8;" x="374.264062" xlink:href="#mc8b66ed194" y="123.4375"/>
    </g>
   </g>
   <g id="text_19">
    <!-- DM002 -->
    <g style="fill:#262626;" transform="translate(392.264062 126.0625)scale(0.1 -0.1)">
     <use xlink:href="#ArialMT-68"/>
     <use x="72.216797" xlink:href="#ArialMT-77"/>
     <use x="155.517578" xlink:href="#ArialMT-48"/>
     <use x="211.132812" xlink:href="#ArialMT-48"/>
     <use x="266.748047" xlink:href="#ArialMT-50"/>
    </g>
   </g>
   <g id="PathCollection_15">
    <g>
     <use style="fill:#bb9832;fill-opacity:0.8;stroke:#bb9832;stroke-opacity:0.8;" x="374.264062" xlink:href="#m3d4851a585" y="137.582813"/>
    </g>
   </g>
   <g id="text_20">
    <!-- DM003 -->
    <g style="fill:#262626;" transform="translate(392.264062 140.207813)scale(0.1 -0.1)">
     <use xlink:href="#ArialMT-68"/>
     <use x="72.216797" xlink:href="#ArialMT-77"/>
     <use x="155.517578" xlink:href="#ArialMT-48"/>
     <use x="211.132812" xlink:href="#ArialMT-48"/>
     <use x="266.748047" xlink:href="#ArialMT-51"/>
    </g>
   </g>
   <g id="PathCollection_16">
    <g>
     <use style="fill:#97a431;fill-opacity:0.8;stroke:#97a431;stroke-opacity:0.8;" x="374.264062" xlink:href="#m6752d97ed0" y="151.728125"/>
    </g>
   </g>
   <g id="text_21">
    <!-- DM006 -->
    <g style="fill:#262626;" transform="translate(392.264062 154.353125)scale(0.1 -0.1)">
     <use xlink:href="#ArialMT-68"/>
     <use x="72.216797" xlink:href="#ArialMT-77"/>
     <use x="155.517578" xlink:href="#ArialMT-48"/>
     <use x="211.132812" xlink:href="#ArialMT-48"/>
     <use x="266.748047" xlink:href="#ArialMT-54"/>
    </g>
   </g>
   <g id="PathCollection_17">
    <g>
     <use style="fill:#50b131;fill-opacity:0.8;stroke:#50b131;stroke-opacity:0.8;" x="374.264062" xlink:href="#m3f117c9d9c" y="165.873438"/>
    </g>
   </g>
   <g id="text_22">
    <!-- DM008 -->
    <g style="fill:#262626;" transform="translate(392.264062 168.498438)scale(0.1 -0.1)">
     <use xlink:href="#ArialMT-68"/>
     <use x="72.216797" xlink:href="#ArialMT-77"/>
     <use x="155.517578" xlink:href="#ArialMT-48"/>
     <use x="211.132812" xlink:href="#ArialMT-48"/>
     <use x="266.748047" xlink:href="#ArialMT-56"/>
    </g>
   </g>
   <g id="PathCollection_18">
    <g>
     <use style="fill:#34af84;fill-opacity:0.8;stroke:#34af84;stroke-opacity:0.8;" x="374.264062" xlink:href="#mebc9732749" y="180.01875"/>
    </g>
   </g>
   <g id="text_23">
    <!-- DM009 -->
    <defs>
     <path d="M 5.46875 16.546875 
L 13.921875 17.328125 
Q 14.984375 11.375 18.015625 8.6875 
Q 21.046875 6 25.78125 6 
Q 29.828125 6 32.875 7.859375 
Q 35.9375 9.71875 37.890625 12.8125 
Q 39.84375 15.921875 41.15625 21.1875 
Q 42.484375 26.46875 42.484375 31.9375 
Q 42.484375 32.515625 42.4375 33.6875 
Q 39.796875 29.5 35.234375 26.875 
Q 30.671875 24.265625 25.34375 24.265625 
Q 16.453125 24.265625 10.296875 30.703125 
Q 4.15625 37.15625 4.15625 47.703125 
Q 4.15625 58.59375 10.578125 65.234375 
Q 17 71.875 26.65625 71.875 
Q 33.640625 71.875 39.421875 68.109375 
Q 45.21875 64.359375 48.21875 57.390625 
Q 51.21875 50.4375 51.21875 37.25 
Q 51.21875 23.53125 48.234375 15.40625 
Q 45.265625 7.28125 39.375 3.03125 
Q 33.5 -1.21875 25.59375 -1.21875 
Q 17.1875 -1.21875 11.859375 3.4375 
Q 6.546875 8.109375 5.46875 16.546875 
z
M 41.453125 48.140625 
Q 41.453125 55.71875 37.421875 60.15625 
Q 33.40625 64.59375 27.734375 64.59375 
Q 21.875 64.59375 17.53125 59.8125 
Q 13.1875 55.03125 13.1875 47.40625 
Q 13.1875 40.578125 17.3125 36.296875 
Q 21.4375 32.03125 27.484375 32.03125 
Q 33.59375 32.03125 37.515625 36.296875 
Q 41.453125 40.578125 41.453125 48.140625 
z
" id="ArialMT-57"/>
    </defs>
    <g style="fill:#262626;" transform="translate(392.264062 182.64375)scale(0.1 -0.1)">
     <use xlink:href="#ArialMT-68"/>
     <use x="72.216797" xlink:href="#ArialMT-77"/>
     <use x="155.517578" xlink:href="#ArialMT-48"/>
     <use x="211.132812" xlink:href="#ArialMT-48"/>
     <use x="266.748047" xlink:href="#ArialMT-57"/>
    </g>
   </g>
   <g id="PathCollection_19">
    <g>
     <use style="fill:#36ada4;fill-opacity:0.8;stroke:#36ada4;stroke-opacity:0.8;" x="374.264062" xlink:href="#m14a17053fa" y="194.164063"/>
    </g>
   </g>
   <g id="text_24">
    <!-- DM011 -->
    <g style="fill:#262626;" transform="translate(392.264062 196.789063)scale(0.1 -0.1)">
     <use xlink:href="#ArialMT-68"/>
     <use x="72.216797" xlink:href="#ArialMT-77"/>
     <use x="155.517578" xlink:href="#ArialMT-48"/>
     <use x="211.132812" xlink:href="#ArialMT-49"/>
     <use x="266.638672" xlink:href="#ArialMT-49"/>
    </g>
   </g>
   <g id="PathCollection_20">
    <g>
     <use style="fill:#38aabf;fill-opacity:0.8;stroke:#38aabf;stroke-opacity:0.8;" x="374.264062" xlink:href="#md65bf25d44" y="208.309375"/>
    </g>
   </g>
   <g id="text_25">
    <!-- DM013 -->
    <g style="fill:#262626;" transform="translate(392.264062 210.934375)scale(0.1 -0.1)">
     <use xlink:href="#ArialMT-68"/>
     <use x="72.216797" xlink:href="#ArialMT-77"/>
     <use x="155.517578" xlink:href="#ArialMT-48"/>
     <use x="211.132812" xlink:href="#ArialMT-49"/>
     <use x="266.748047" xlink:href="#ArialMT-51"/>
    </g>
   </g>
   <g id="PathCollection_21">
    <g>
     <use style="fill:#3ba3ec;fill-opacity:0.8;stroke:#3ba3ec;stroke-opacity:0.8;" x="374.264062" xlink:href="#mff3ba773aa" y="222.454688"/>
    </g>
   </g>
   <g id="text_26">
    <!-- DM014 -->
    <g style="fill:#262626;" transform="translate(392.264062 225.079688)scale(0.1 -0.1)">
     <use xlink:href="#ArialMT-68"/>
     <use x="72.216797" xlink:href="#ArialMT-77"/>
     <use x="155.517578" xlink:href="#ArialMT-48"/>
     <use x="211.132812" xlink:href="#ArialMT-49"/>
     <use x="266.748047" xlink:href="#ArialMT-52"/>
    </g>
   </g>
   <g id="PathCollection_22">
    <g>
     <use style="fill:#a48cf4;fill-opacity:0.8;stroke:#a48cf4;stroke-opacity:0.8;" x="374.264062" xlink:href="#m819ed1cbcc" y="236.6"/>
    </g>
   </g>
   <g id="text_27">
    <!-- DM015 -->
    <g style="fill:#262626;" transform="translate(392.264062 239.225)scale(0.1 -0.1)">
     <use xlink:href="#ArialMT-68"/>
     <use x="72.216797" xlink:href="#ArialMT-77"/>
     <use x="155.517578" xlink:href="#ArialMT-48"/>
     <use x="211.132812" xlink:href="#ArialMT-49"/>
     <use x="266.748047" xlink:href="#ArialMT-53"/>
    </g>
   </g>
   <g id="PathCollection_23">
    <g>
     <use style="fill:#e866f4;fill-opacity:0.8;stroke:#e866f4;stroke-opacity:0.8;" x="374.264062" xlink:href="#m75c9967640" y="250.745313"/>
    </g>
   </g>
   <g id="text_28">
    <!-- DM016 -->
    <g style="fill:#262626;" transform="translate(392.264062 253.370313)scale(0.1 -0.1)">
     <use xlink:href="#ArialMT-68"/>
     <use x="72.216797" xlink:href="#ArialMT-77"/>
     <use x="155.517578" xlink:href="#ArialMT-48"/>
     <use x="211.132812" xlink:href="#ArialMT-49"/>
     <use x="266.748047" xlink:href="#ArialMT-54"/>
    </g>
   </g>
   <g id="PathCollection_24">
    <g>
     <use style="fill:#f668c2;fill-opacity:0.8;stroke:#f668c2;stroke-opacity:0.8;" x="374.264062" xlink:href="#mab10a5ee01" y="264.890625"/>
    </g>
   </g>
   <g id="text_29">
    <!-- DM017 -->
    <g style="fill:#262626;" transform="translate(392.264062 267.515625)scale(0.1 -0.1)">
     <use xlink:href="#ArialMT-68"/>
     <use x="72.216797" xlink:href="#ArialMT-77"/>
     <use x="155.517578" xlink:href="#ArialMT-48"/>
     <use x="211.132812" xlink:href="#ArialMT-49"/>
     <use x="266.748047" xlink:href="#ArialMT-55"/>
    </g>
   </g>
  </g>
 </g>
 <defs>
  <clipPath id="pcefbcb1290">
   <rect height="305.9" width="301.096528" x="54.522222" y="14.3"/>
  </clipPath>
 </defs>
</svg>
