<?xml version="1.0" encoding="utf-8" standalone="no"?>
<!DOCTYPE svg PUBLIC "-//W3C//DTD SVG 1.1//EN"
  "http://www.w3.org/Graphics/SVG/1.1/DTD/svg11.dtd">
<!-- Created with matplotlib (https://matplotlib.org/) -->
<svg height="360pt" version="1.1" viewBox="0 0 438.125 360" width="438.125pt" xmlns="http://www.w3.org/2000/svg" xmlns:xlink="http://www.w3.org/1999/xlink">
 <defs>
  <style type="text/css">
*{stroke-linecap:butt;stroke-linejoin:round;}
  </style>
 </defs>
 <g id="figure_1">
  <g id="patch_1">
   <path d="M 0 360 
L 438.125 360 
L 438.125 0 
L 0 0 
z
" style="fill:#ffffff;"/>
  </g>
  <g id="axes_1">
   <g id="patch_2">
    <path d="M 61.367925 320.2 
L 355.61875 320.2 
L 355.61875 14.3 
L 61.367925 14.3 
z
" style="fill:#ffffff;"/>
   </g>
   <g id="matplotlib.axis_1">
    <g id="xtick_1">
     <g id="text_1">
      <!-- 0.2 -->
      <defs>
       <path d="M 4.15625 35.296875 
Q 4.15625 48 6.765625 55.734375 
Q 9.375 63.484375 14.515625 67.671875 
Q 19.671875 71.875 27.484375 71.875 
Q 33.25 71.875 37.59375 69.546875 
Q 41.9375 67.234375 44.765625 62.859375 
Q 47.609375 58.5 49.21875 52.21875 
Q 50.828125 45.953125 50.828125 35.296875 
Q 50.828125 22.703125 48.234375 14.96875 
Q 45.65625 7.234375 40.5 3 
Q 35.359375 -1.21875 27.484375 -1.21875 
Q 17.140625 -1.21875 11.234375 6.203125 
Q 4.15625 15.140625 4.15625 35.296875 
z
M 13.1875 35.296875 
Q 13.1875 17.671875 17.3125 11.828125 
Q 21.4375 6 27.484375 6 
Q 33.546875 6 37.671875 11.859375 
Q 41.796875 17.71875 41.796875 35.296875 
Q 41.796875 52.984375 37.671875 58.78125 
Q 33.546875 64.59375 27.390625 64.59375 
Q 21.34375 64.59375 17.71875 59.46875 
Q 13.1875 52.9375 13.1875 35.296875 
z
" id="ArialMT-48"/>
       <path d="M 9.078125 0 
L 9.078125 10.015625 
L 19.09375 10.015625 
L 19.09375 0 
z
" id="ArialMT-46"/>
       <path d="M 50.34375 8.453125 
L 50.34375 0 
L 3.03125 0 
Q 2.9375 3.171875 4.046875 6.109375 
Q 5.859375 10.9375 9.828125 15.625 
Q 13.8125 20.3125 21.34375 26.46875 
Q 33.015625 36.03125 37.109375 41.625 
Q 41.21875 47.21875 41.21875 52.203125 
Q 41.21875 57.421875 37.46875 61 
Q 33.734375 64.59375 27.734375 64.59375 
Q 21.390625 64.59375 17.578125 60.78125 
Q 13.765625 56.984375 13.71875 50.25 
L 4.6875 51.171875 
Q 5.609375 61.28125 11.65625 66.578125 
Q 17.71875 71.875 27.9375 71.875 
Q 38.234375 71.875 44.234375 66.15625 
Q 50.25 60.453125 50.25 52 
Q 50.25 47.703125 48.484375 43.546875 
Q 46.734375 39.40625 42.65625 34.8125 
Q 38.578125 30.21875 29.109375 22.21875 
Q 21.1875 15.578125 18.9375 13.203125 
Q 16.703125 10.84375 15.234375 8.453125 
z
" id="ArialMT-50"/>
      </defs>
      <g style="fill:#262626;" transform="translate(67.828091 335.789375)scale(0.12 -0.12)">
       <use xlink:href="#ArialMT-48"/>
       <use x="55.615234" xlink:href="#ArialMT-46"/>
       <use x="83.398438" xlink:href="#ArialMT-50"/>
      </g>
     </g>
    </g>
    <g id="xtick_2">
     <g id="text_2">
      <!-- 0.3 -->
      <defs>
       <path d="M 4.203125 18.890625 
L 12.984375 20.0625 
Q 14.5 12.59375 18.140625 9.296875 
Q 21.78125 6 27 6 
Q 33.203125 6 37.46875 10.296875 
Q 41.75 14.59375 41.75 20.953125 
Q 41.75 27 37.796875 30.921875 
Q 33.84375 34.859375 27.734375 34.859375 
Q 25.25 34.859375 21.53125 33.890625 
L 22.515625 41.609375 
Q 23.390625 41.5 23.921875 41.5 
Q 29.546875 41.5 34.03125 44.421875 
Q 38.53125 47.359375 38.53125 53.46875 
Q 38.53125 58.296875 35.25 61.46875 
Q 31.984375 64.65625 26.8125 64.65625 
Q 21.6875 64.65625 18.265625 61.421875 
Q 14.84375 58.203125 13.875 51.765625 
L 5.078125 53.328125 
Q 6.6875 62.15625 12.390625 67.015625 
Q 18.109375 71.875 26.609375 71.875 
Q 32.46875 71.875 37.390625 69.359375 
Q 42.328125 66.84375 44.9375 62.5 
Q 47.5625 58.15625 47.5625 53.265625 
Q 47.5625 48.640625 45.0625 44.828125 
Q 42.578125 41.015625 37.703125 38.765625 
Q 44.046875 37.3125 47.5625 32.6875 
Q 51.078125 28.078125 51.078125 21.140625 
Q 51.078125 11.765625 44.234375 5.25 
Q 37.40625 -1.265625 26.953125 -1.265625 
Q 17.53125 -1.265625 11.296875 4.34375 
Q 5.078125 9.96875 4.203125 18.890625 
z
" id="ArialMT-51"/>
      </defs>
      <g style="fill:#262626;" transform="translate(128.541744 335.789375)scale(0.12 -0.12)">
       <use xlink:href="#ArialMT-48"/>
       <use x="55.615234" xlink:href="#ArialMT-46"/>
       <use x="83.398438" xlink:href="#ArialMT-51"/>
      </g>
     </g>
    </g>
    <g id="xtick_3">
     <g id="text_3">
      <!-- 0.4 -->
      <defs>
       <path d="M 32.328125 0 
L 32.328125 17.140625 
L 1.265625 17.140625 
L 1.265625 25.203125 
L 33.9375 71.578125 
L 41.109375 71.578125 
L 41.109375 25.203125 
L 50.78125 25.203125 
L 50.78125 17.140625 
L 41.109375 17.140625 
L 41.109375 0 
z
M 32.328125 25.203125 
L 32.328125 57.46875 
L 9.90625 25.203125 
z
" id="ArialMT-52"/>
      </defs>
      <g style="fill:#262626;" transform="translate(189.255398 335.789375)scale(0.12 -0.12)">
       <use xlink:href="#ArialMT-48"/>
       <use x="55.615234" xlink:href="#ArialMT-46"/>
       <use x="83.398438" xlink:href="#ArialMT-52"/>
      </g>
     </g>
    </g>
    <g id="xtick_4">
     <g id="text_4">
      <!-- 0.5 -->
      <defs>
       <path d="M 4.15625 18.75 
L 13.375 19.53125 
Q 14.40625 12.796875 18.140625 9.390625 
Q 21.875 6 27.15625 6 
Q 33.5 6 37.890625 10.78125 
Q 42.28125 15.578125 42.28125 23.484375 
Q 42.28125 31 38.0625 35.34375 
Q 33.84375 39.703125 27 39.703125 
Q 22.75 39.703125 19.328125 37.765625 
Q 15.921875 35.84375 13.96875 32.765625 
L 5.71875 33.84375 
L 12.640625 70.609375 
L 48.25 70.609375 
L 48.25 62.203125 
L 19.671875 62.203125 
L 15.828125 42.96875 
Q 22.265625 47.46875 29.34375 47.46875 
Q 38.71875 47.46875 45.15625 40.96875 
Q 51.609375 34.46875 51.609375 24.265625 
Q 51.609375 14.546875 45.953125 7.46875 
Q 39.0625 -1.21875 27.15625 -1.21875 
Q 17.390625 -1.21875 11.203125 4.25 
Q 5.03125 9.71875 4.15625 18.75 
z
" id="ArialMT-53"/>
      </defs>
      <g style="fill:#262626;" transform="translate(249.969051 335.789375)scale(0.12 -0.12)">
       <use xlink:href="#ArialMT-48"/>
       <use x="55.615234" xlink:href="#ArialMT-46"/>
       <use x="83.398438" xlink:href="#ArialMT-53"/>
      </g>
     </g>
    </g>
    <g id="xtick_5">
     <g id="text_5">
      <!-- 0.6 -->
      <defs>
       <path d="M 49.75 54.046875 
L 41.015625 53.375 
Q 39.84375 58.546875 37.703125 60.890625 
Q 34.125 64.65625 28.90625 64.65625 
Q 24.703125 64.65625 21.53125 62.3125 
Q 17.390625 59.28125 14.984375 53.46875 
Q 12.59375 47.65625 12.5 36.921875 
Q 15.671875 41.75 20.265625 44.09375 
Q 24.859375 46.4375 29.890625 46.4375 
Q 38.671875 46.4375 44.84375 39.96875 
Q 51.03125 33.5 51.03125 23.25 
Q 51.03125 16.5 48.125 10.71875 
Q 45.21875 4.9375 40.140625 1.859375 
Q 35.0625 -1.21875 28.609375 -1.21875 
Q 17.625 -1.21875 10.6875 6.859375 
Q 3.765625 14.9375 3.765625 33.5 
Q 3.765625 54.25 11.421875 63.671875 
Q 18.109375 71.875 29.4375 71.875 
Q 37.890625 71.875 43.28125 67.140625 
Q 48.6875 62.40625 49.75 54.046875 
z
M 13.875 23.1875 
Q 13.875 18.65625 15.796875 14.5 
Q 17.71875 10.359375 21.1875 8.171875 
Q 24.65625 6 28.46875 6 
Q 34.03125 6 38.03125 10.484375 
Q 42.046875 14.984375 42.046875 22.703125 
Q 42.046875 30.125 38.078125 34.390625 
Q 34.125 38.671875 28.125 38.671875 
Q 22.171875 38.671875 18.015625 34.390625 
Q 13.875 30.125 13.875 23.1875 
z
" id="ArialMT-54"/>
      </defs>
      <g style="fill:#262626;" transform="translate(310.682704 335.789375)scale(0.12 -0.12)">
       <use xlink:href="#ArialMT-48"/>
       <use x="55.615234" xlink:href="#ArialMT-46"/>
       <use x="83.398438" xlink:href="#ArialMT-54"/>
      </g>
     </g>
    </g>
    <g id="text_6">
     <!-- Unweighted UniFrac Dist. to Baseline -->
     <defs>
      <path d="M 54.6875 71.578125 
L 64.15625 71.578125 
L 64.15625 30.21875 
Q 64.15625 19.4375 61.71875 13.078125 
Q 59.28125 6.734375 52.90625 2.75 
Q 46.53125 -1.21875 36.1875 -1.21875 
Q 26.125 -1.21875 19.71875 2.25 
Q 13.328125 5.71875 10.59375 12.28125 
Q 7.859375 18.84375 7.859375 30.21875 
L 7.859375 71.578125 
L 17.328125 71.578125 
L 17.328125 30.28125 
Q 17.328125 20.953125 19.0625 16.53125 
Q 20.796875 12.109375 25.015625 9.71875 
Q 29.25 7.328125 35.359375 7.328125 
Q 45.796875 7.328125 50.234375 12.0625 
Q 54.6875 16.796875 54.6875 30.28125 
z
" id="ArialMT-85"/>
      <path d="M 6.59375 0 
L 6.59375 51.859375 
L 14.5 51.859375 
L 14.5 44.484375 
Q 20.21875 53.03125 31 53.03125 
Q 35.6875 53.03125 39.625 51.34375 
Q 43.5625 49.65625 45.515625 46.921875 
Q 47.46875 44.1875 48.25 40.4375 
Q 48.734375 37.984375 48.734375 31.890625 
L 48.734375 0 
L 39.9375 0 
L 39.9375 31.546875 
Q 39.9375 36.921875 38.90625 39.578125 
Q 37.890625 42.234375 35.28125 43.8125 
Q 32.671875 45.40625 29.15625 45.40625 
Q 23.53125 45.40625 19.453125 41.84375 
Q 15.375 38.28125 15.375 28.328125 
L 15.375 0 
z
" id="ArialMT-110"/>
      <path d="M 16.15625 0 
L 0.296875 51.859375 
L 9.375 51.859375 
L 17.625 21.921875 
L 20.703125 10.796875 
Q 20.90625 11.625 23.390625 21.484375 
L 31.640625 51.859375 
L 40.671875 51.859375 
L 48.4375 21.78125 
L 51.03125 11.859375 
L 54 21.875 
L 62.890625 51.859375 
L 71.4375 51.859375 
L 55.21875 0 
L 46.09375 0 
L 37.84375 31.0625 
L 35.84375 39.890625 
L 25.34375 0 
z
" id="ArialMT-119"/>
      <path d="M 42.09375 16.703125 
L 51.171875 15.578125 
Q 49.03125 7.625 43.21875 3.21875 
Q 37.40625 -1.171875 28.375 -1.171875 
Q 17 -1.171875 10.328125 5.828125 
Q 3.65625 12.84375 3.65625 25.484375 
Q 3.65625 38.578125 10.390625 45.796875 
Q 17.140625 53.03125 27.875 53.03125 
Q 38.28125 53.03125 44.875 45.953125 
Q 51.46875 38.875 51.46875 26.03125 
Q 51.46875 25.25 51.421875 23.6875 
L 12.75 23.6875 
Q 13.234375 15.140625 17.578125 10.59375 
Q 21.921875 6.0625 28.421875 6.0625 
Q 33.25 6.0625 36.671875 8.59375 
Q 40.09375 11.140625 42.09375 16.703125 
z
M 13.234375 30.90625 
L 42.1875 30.90625 
Q 41.609375 37.453125 38.875 40.71875 
Q 34.671875 45.796875 27.984375 45.796875 
Q 21.921875 45.796875 17.796875 41.75 
Q 13.671875 37.703125 13.234375 30.90625 
z
" id="ArialMT-101"/>
      <path d="M 6.640625 61.46875 
L 6.640625 71.578125 
L 15.4375 71.578125 
L 15.4375 61.46875 
z
M 6.640625 0 
L 6.640625 51.859375 
L 15.4375 51.859375 
L 15.4375 0 
z
" id="ArialMT-105"/>
      <path d="M 4.984375 -4.296875 
L 13.53125 -5.5625 
Q 14.0625 -9.515625 16.5 -11.328125 
Q 19.78125 -13.765625 25.4375 -13.765625 
Q 31.546875 -13.765625 34.859375 -11.328125 
Q 38.1875 -8.890625 39.359375 -4.5 
Q 40.046875 -1.8125 39.984375 6.78125 
Q 34.234375 0 25.640625 0 
Q 14.9375 0 9.078125 7.71875 
Q 3.21875 15.4375 3.21875 26.21875 
Q 3.21875 33.640625 5.90625 39.90625 
Q 8.59375 46.1875 13.6875 49.609375 
Q 18.796875 53.03125 25.6875 53.03125 
Q 34.859375 53.03125 40.828125 45.609375 
L 40.828125 51.859375 
L 48.921875 51.859375 
L 48.921875 7.03125 
Q 48.921875 -5.078125 46.453125 -10.125 
Q 44 -15.1875 38.640625 -18.109375 
Q 33.296875 -21.046875 25.484375 -21.046875 
Q 16.21875 -21.046875 10.5 -16.875 
Q 4.78125 -12.703125 4.984375 -4.296875 
z
M 12.25 26.859375 
Q 12.25 16.65625 16.296875 11.96875 
Q 20.359375 7.28125 26.46875 7.28125 
Q 32.515625 7.28125 36.609375 11.9375 
Q 40.71875 16.609375 40.71875 26.5625 
Q 40.71875 36.078125 36.5 40.90625 
Q 32.28125 45.75 26.3125 45.75 
Q 20.453125 45.75 16.34375 40.984375 
Q 12.25 36.234375 12.25 26.859375 
z
" id="ArialMT-103"/>
      <path d="M 6.59375 0 
L 6.59375 71.578125 
L 15.375 71.578125 
L 15.375 45.90625 
Q 21.53125 53.03125 30.90625 53.03125 
Q 36.671875 53.03125 40.921875 50.75 
Q 45.171875 48.484375 47 44.484375 
Q 48.828125 40.484375 48.828125 32.859375 
L 48.828125 0 
L 40.046875 0 
L 40.046875 32.859375 
Q 40.046875 39.453125 37.1875 42.453125 
Q 34.328125 45.453125 29.109375 45.453125 
Q 25.203125 45.453125 21.75 43.421875 
Q 18.3125 41.40625 16.84375 37.9375 
Q 15.375 34.46875 15.375 28.375 
L 15.375 0 
z
" id="ArialMT-104"/>
      <path d="M 25.78125 7.859375 
L 27.046875 0.09375 
Q 23.34375 -0.6875 20.40625 -0.6875 
Q 15.625 -0.6875 12.984375 0.828125 
Q 10.359375 2.34375 9.28125 4.8125 
Q 8.203125 7.28125 8.203125 15.1875 
L 8.203125 45.015625 
L 1.765625 45.015625 
L 1.765625 51.859375 
L 8.203125 51.859375 
L 8.203125 64.703125 
L 16.9375 69.96875 
L 16.9375 51.859375 
L 25.78125 51.859375 
L 25.78125 45.015625 
L 16.9375 45.015625 
L 16.9375 14.703125 
Q 16.9375 10.9375 17.40625 9.859375 
Q 17.875 8.796875 18.921875 8.15625 
Q 19.96875 7.515625 21.921875 7.515625 
Q 23.390625 7.515625 25.78125 7.859375 
z
" id="ArialMT-116"/>
      <path d="M 40.234375 0 
L 40.234375 6.546875 
Q 35.296875 -1.171875 25.734375 -1.171875 
Q 19.53125 -1.171875 14.328125 2.25 
Q 9.125 5.671875 6.265625 11.796875 
Q 3.421875 17.921875 3.421875 25.875 
Q 3.421875 33.640625 6 39.96875 
Q 8.59375 46.296875 13.765625 49.65625 
Q 18.953125 53.03125 25.34375 53.03125 
Q 30.03125 53.03125 33.6875 51.046875 
Q 37.359375 49.078125 39.65625 45.90625 
L 39.65625 71.578125 
L 48.390625 71.578125 
L 48.390625 0 
z
M 12.453125 25.875 
Q 12.453125 15.921875 16.640625 10.984375 
Q 20.84375 6.0625 26.5625 6.0625 
Q 32.328125 6.0625 36.34375 10.765625 
Q 40.375 15.484375 40.375 25.140625 
Q 40.375 35.796875 36.265625 40.765625 
Q 32.171875 45.75 26.171875 45.75 
Q 20.3125 45.75 16.375 40.96875 
Q 12.453125 36.1875 12.453125 25.875 
z
" id="ArialMT-100"/>
      <path id="ArialMT-32"/>
      <path d="M 8.203125 0 
L 8.203125 71.578125 
L 56.5 71.578125 
L 56.5 63.140625 
L 17.671875 63.140625 
L 17.671875 40.96875 
L 51.265625 40.96875 
L 51.265625 32.515625 
L 17.671875 32.515625 
L 17.671875 0 
z
" id="ArialMT-70"/>
      <path d="M 6.5 0 
L 6.5 51.859375 
L 14.40625 51.859375 
L 14.40625 44 
Q 17.4375 49.515625 20 51.265625 
Q 22.5625 53.03125 25.640625 53.03125 
Q 30.078125 53.03125 34.671875 50.203125 
L 31.640625 42.046875 
Q 28.421875 43.953125 25.203125 43.953125 
Q 22.3125 43.953125 20.015625 42.21875 
Q 17.71875 40.484375 16.75 37.40625 
Q 15.28125 32.71875 15.28125 27.15625 
L 15.28125 0 
z
" id="ArialMT-114"/>
      <path d="M 40.4375 6.390625 
Q 35.546875 2.25 31.03125 0.53125 
Q 26.515625 -1.171875 21.34375 -1.171875 
Q 12.796875 -1.171875 8.203125 3 
Q 3.609375 7.171875 3.609375 13.671875 
Q 3.609375 17.484375 5.34375 20.625 
Q 7.078125 23.78125 9.890625 25.6875 
Q 12.703125 27.59375 16.21875 28.5625 
Q 18.796875 29.25 24.03125 29.890625 
Q 34.671875 31.15625 39.703125 32.90625 
Q 39.75 34.71875 39.75 35.203125 
Q 39.75 40.578125 37.25 42.78125 
Q 33.890625 45.75 27.25 45.75 
Q 21.046875 45.75 18.09375 43.578125 
Q 15.140625 41.40625 13.71875 35.890625 
L 5.125 37.0625 
Q 6.296875 42.578125 8.984375 45.96875 
Q 11.671875 49.359375 16.75 51.1875 
Q 21.828125 53.03125 28.515625 53.03125 
Q 35.15625 53.03125 39.296875 51.46875 
Q 43.453125 49.90625 45.40625 47.53125 
Q 47.359375 45.171875 48.140625 41.546875 
Q 48.578125 39.3125 48.578125 33.453125 
L 48.578125 21.734375 
Q 48.578125 9.46875 49.140625 6.21875 
Q 49.703125 2.984375 51.375 0 
L 42.1875 0 
Q 40.828125 2.734375 40.4375 6.390625 
z
M 39.703125 26.03125 
Q 34.90625 24.078125 25.34375 22.703125 
Q 19.921875 21.921875 17.671875 20.9375 
Q 15.4375 19.96875 14.203125 18.09375 
Q 12.984375 16.21875 12.984375 13.921875 
Q 12.984375 10.40625 15.640625 8.0625 
Q 18.3125 5.71875 23.4375 5.71875 
Q 28.515625 5.71875 32.46875 7.9375 
Q 36.421875 10.15625 38.28125 14.015625 
Q 39.703125 17 39.703125 22.796875 
z
" id="ArialMT-97"/>
      <path d="M 40.4375 19 
L 49.078125 17.875 
Q 47.65625 8.9375 41.8125 3.875 
Q 35.984375 -1.171875 27.484375 -1.171875 
Q 16.84375 -1.171875 10.375 5.78125 
Q 3.90625 12.75 3.90625 25.734375 
Q 3.90625 34.125 6.6875 40.421875 
Q 9.46875 46.734375 15.15625 49.875 
Q 20.84375 53.03125 27.546875 53.03125 
Q 35.984375 53.03125 41.359375 48.75 
Q 46.734375 44.484375 48.25 36.625 
L 39.703125 35.296875 
Q 38.484375 40.53125 35.375 43.15625 
Q 32.28125 45.796875 27.875 45.796875 
Q 21.234375 45.796875 17.078125 41.03125 
Q 12.9375 36.28125 12.9375 25.984375 
Q 12.9375 15.53125 16.9375 10.796875 
Q 20.953125 6.0625 27.390625 6.0625 
Q 32.5625 6.0625 36.03125 9.234375 
Q 39.5 12.40625 40.4375 19 
z
" id="ArialMT-99"/>
      <path d="M 7.71875 0 
L 7.71875 71.578125 
L 32.375 71.578125 
Q 40.71875 71.578125 45.125 70.5625 
Q 51.265625 69.140625 55.609375 65.4375 
Q 61.28125 60.640625 64.078125 53.1875 
Q 66.890625 45.75 66.890625 36.1875 
Q 66.890625 28.03125 64.984375 21.734375 
Q 63.09375 15.4375 60.109375 11.296875 
Q 57.125 7.171875 53.578125 4.796875 
Q 50.046875 2.4375 45.046875 1.21875 
Q 40.046875 0 33.546875 0 
z
M 17.1875 8.453125 
L 32.46875 8.453125 
Q 39.546875 8.453125 43.578125 9.765625 
Q 47.609375 11.078125 50 13.484375 
Q 53.375 16.84375 55.25 22.53125 
Q 57.125 28.21875 57.125 36.328125 
Q 57.125 47.5625 53.4375 53.59375 
Q 49.75 59.625 44.484375 61.671875 
Q 40.671875 63.140625 32.234375 63.140625 
L 17.1875 63.140625 
z
" id="ArialMT-68"/>
      <path d="M 3.078125 15.484375 
L 11.765625 16.84375 
Q 12.5 11.625 15.84375 8.84375 
Q 19.1875 6.0625 25.203125 6.0625 
Q 31.25 6.0625 34.171875 8.515625 
Q 37.109375 10.984375 37.109375 14.3125 
Q 37.109375 17.28125 34.515625 19 
Q 32.71875 20.171875 25.53125 21.96875 
Q 15.875 24.421875 12.140625 26.203125 
Q 8.40625 27.984375 6.46875 31.125 
Q 4.546875 34.28125 4.546875 38.09375 
Q 4.546875 41.546875 6.125 44.5 
Q 7.71875 47.46875 10.453125 49.421875 
Q 12.5 50.921875 16.03125 51.96875 
Q 19.578125 53.03125 23.640625 53.03125 
Q 29.734375 53.03125 34.34375 51.265625 
Q 38.96875 49.515625 41.15625 46.5 
Q 43.359375 43.5 44.1875 38.484375 
L 35.59375 37.3125 
Q 35.015625 41.3125 32.203125 43.546875 
Q 29.390625 45.796875 24.265625 45.796875 
Q 18.21875 45.796875 15.625 43.796875 
Q 13.03125 41.796875 13.03125 39.109375 
Q 13.03125 37.40625 14.109375 36.03125 
Q 15.1875 34.625 17.484375 33.6875 
Q 18.796875 33.203125 25.25 31.453125 
Q 34.578125 28.953125 38.25 27.359375 
Q 41.9375 25.78125 44.03125 22.75 
Q 46.140625 19.734375 46.140625 15.234375 
Q 46.140625 10.84375 43.578125 6.953125 
Q 41.015625 3.078125 36.171875 0.953125 
Q 31.34375 -1.171875 25.25 -1.171875 
Q 15.140625 -1.171875 9.84375 3.03125 
Q 4.546875 7.234375 3.078125 15.484375 
z
" id="ArialMT-115"/>
      <path d="M 3.328125 25.921875 
Q 3.328125 40.328125 11.328125 47.265625 
Q 18.015625 53.03125 27.640625 53.03125 
Q 38.328125 53.03125 45.109375 46.015625 
Q 51.90625 39.015625 51.90625 26.65625 
Q 51.90625 16.65625 48.90625 10.90625 
Q 45.90625 5.171875 40.15625 2 
Q 34.421875 -1.171875 27.640625 -1.171875 
Q 16.75 -1.171875 10.03125 5.8125 
Q 3.328125 12.796875 3.328125 25.921875 
z
M 12.359375 25.921875 
Q 12.359375 15.96875 16.703125 11.015625 
Q 21.046875 6.0625 27.640625 6.0625 
Q 34.1875 6.0625 38.53125 11.03125 
Q 42.875 16.015625 42.875 26.21875 
Q 42.875 35.84375 38.5 40.796875 
Q 34.125 45.75 27.640625 45.75 
Q 21.046875 45.75 16.703125 40.8125 
Q 12.359375 35.890625 12.359375 25.921875 
z
" id="ArialMT-111"/>
      <path d="M 7.328125 0 
L 7.328125 71.578125 
L 34.1875 71.578125 
Q 42.390625 71.578125 47.34375 69.40625 
Q 52.296875 67.234375 55.09375 62.71875 
Q 57.90625 58.203125 57.90625 53.265625 
Q 57.90625 48.6875 55.421875 44.625 
Q 52.9375 40.578125 47.90625 38.09375 
Q 54.390625 36.1875 57.875 31.59375 
Q 61.375 27 61.375 20.75 
Q 61.375 15.71875 59.25 11.390625 
Q 57.125 7.078125 54 4.734375 
Q 50.875 2.390625 46.15625 1.1875 
Q 41.453125 0 34.625 0 
z
M 16.796875 41.5 
L 32.28125 41.5 
Q 38.578125 41.5 41.3125 42.328125 
Q 44.921875 43.40625 46.75 45.890625 
Q 48.578125 48.390625 48.578125 52.15625 
Q 48.578125 55.71875 46.875 58.421875 
Q 45.171875 61.140625 41.984375 62.140625 
Q 38.8125 63.140625 31.109375 63.140625 
L 16.796875 63.140625 
z
M 16.796875 8.453125 
L 34.625 8.453125 
Q 39.203125 8.453125 41.0625 8.796875 
Q 44.34375 9.375 46.53125 10.734375 
Q 48.734375 12.109375 50.140625 14.71875 
Q 51.5625 17.328125 51.5625 20.75 
Q 51.5625 24.75 49.515625 27.703125 
Q 47.46875 30.671875 43.828125 31.859375 
Q 40.1875 33.0625 33.34375 33.0625 
L 16.796875 33.0625 
z
" id="ArialMT-66"/>
      <path d="M 6.390625 0 
L 6.390625 71.578125 
L 15.1875 71.578125 
L 15.1875 0 
z
" id="ArialMT-108"/>
     </defs>
     <g style="fill:#262626;" transform="translate(84.276931 352.911094)scale(0.15 -0.15)">
      <use xlink:href="#ArialMT-85"/>
      <use x="72.216797" xlink:href="#ArialMT-110"/>
      <use x="127.832031" xlink:href="#ArialMT-119"/>
      <use x="200.048828" xlink:href="#ArialMT-101"/>
      <use x="255.664062" xlink:href="#ArialMT-105"/>
      <use x="277.880859" xlink:href="#ArialMT-103"/>
      <use x="333.496094" xlink:href="#ArialMT-104"/>
      <use x="389.111328" xlink:href="#ArialMT-116"/>
      <use x="416.894531" xlink:href="#ArialMT-101"/>
      <use x="472.509766" xlink:href="#ArialMT-100"/>
      <use x="528.125" xlink:href="#ArialMT-32"/>
      <use x="555.908203" xlink:href="#ArialMT-85"/>
      <use x="628.125" xlink:href="#ArialMT-110"/>
      <use x="683.740234" xlink:href="#ArialMT-105"/>
      <use x="705.957031" xlink:href="#ArialMT-70"/>
      <use x="767.041016" xlink:href="#ArialMT-114"/>
      <use x="800.341797" xlink:href="#ArialMT-97"/>
      <use x="855.957031" xlink:href="#ArialMT-99"/>
      <use x="905.957031" xlink:href="#ArialMT-32"/>
      <use x="933.740234" xlink:href="#ArialMT-68"/>
      <use x="1005.957031" xlink:href="#ArialMT-105"/>
      <use x="1028.173828" xlink:href="#ArialMT-115"/>
      <use x="1078.173828" xlink:href="#ArialMT-116"/>
      <use x="1105.957031" xlink:href="#ArialMT-46"/>
      <use x="1133.740234" xlink:href="#ArialMT-32"/>
      <use x="1161.523438" xlink:href="#ArialMT-116"/>
      <use x="1189.306641" xlink:href="#ArialMT-111"/>
      <use x="1244.921875" xlink:href="#ArialMT-32"/>
      <use x="1272.705078" xlink:href="#ArialMT-66"/>
      <use x="1339.404297" xlink:href="#ArialMT-97"/>
      <use x="1395.019531" xlink:href="#ArialMT-115"/>
      <use x="1445.019531" xlink:href="#ArialMT-101"/>
      <use x="1500.634766" xlink:href="#ArialMT-108"/>
      <use x="1522.851562" xlink:href="#ArialMT-105"/>
      <use x="1545.068359" xlink:href="#ArialMT-110"/>
      <use x="1600.683594" xlink:href="#ArialMT-101"/>
     </g>
    </g>
   </g>
   <g id="matplotlib.axis_2">
    <g id="ytick_1">
     <g id="text_7">
      <!-- 0.00 -->
      <g style="fill:#262626;" transform="translate(31.0148 289.800364)scale(0.12 -0.12)">
       <use xlink:href="#ArialMT-48"/>
       <use x="55.615234" xlink:href="#ArialMT-46"/>
       <use x="83.398438" xlink:href="#ArialMT-48"/>
       <use x="139.013672" xlink:href="#ArialMT-48"/>
      </g>
     </g>
    </g>
    <g id="ytick_2">
     <g id="text_8">
      <!-- 0.02 -->
      <g style="fill:#262626;" transform="translate(31.0148 228.357185)scale(0.12 -0.12)">
       <use xlink:href="#ArialMT-48"/>
       <use x="55.615234" xlink:href="#ArialMT-46"/>
       <use x="83.398438" xlink:href="#ArialMT-48"/>
       <use x="139.013672" xlink:href="#ArialMT-50"/>
      </g>
     </g>
    </g>
    <g id="ytick_3">
     <g id="text_9">
      <!-- 0.04 -->
      <g style="fill:#262626;" transform="translate(31.0148 166.914007)scale(0.12 -0.12)">
       <use xlink:href="#ArialMT-48"/>
       <use x="55.615234" xlink:href="#ArialMT-46"/>
       <use x="83.398438" xlink:href="#ArialMT-48"/>
       <use x="139.013672" xlink:href="#ArialMT-52"/>
      </g>
     </g>
    </g>
    <g id="ytick_4">
     <g id="text_10">
      <!-- 0.06 -->
      <g style="fill:#262626;" transform="translate(31.0148 105.470829)scale(0.12 -0.12)">
       <use xlink:href="#ArialMT-48"/>
       <use x="55.615234" xlink:href="#ArialMT-46"/>
       <use x="83.398438" xlink:href="#ArialMT-48"/>
       <use x="139.013672" xlink:href="#ArialMT-54"/>
      </g>
     </g>
    </g>
    <g id="ytick_5">
     <g id="text_11">
      <!-- 0.08 -->
      <defs>
       <path d="M 17.671875 38.8125 
Q 12.203125 40.828125 9.5625 44.53125 
Q 6.9375 48.25 6.9375 53.421875 
Q 6.9375 61.234375 12.546875 66.546875 
Q 18.171875 71.875 27.484375 71.875 
Q 36.859375 71.875 42.578125 66.421875 
Q 48.296875 60.984375 48.296875 53.171875 
Q 48.296875 48.1875 45.671875 44.5 
Q 43.0625 40.828125 37.75 38.8125 
Q 44.34375 36.671875 47.78125 31.875 
Q 51.21875 27.09375 51.21875 20.453125 
Q 51.21875 11.28125 44.71875 5.03125 
Q 38.234375 -1.21875 27.640625 -1.21875 
Q 17.046875 -1.21875 10.546875 5.046875 
Q 4.046875 11.328125 4.046875 20.703125 
Q 4.046875 27.6875 7.59375 32.390625 
Q 11.140625 37.109375 17.671875 38.8125 
z
M 15.921875 53.71875 
Q 15.921875 48.640625 19.1875 45.40625 
Q 22.46875 42.1875 27.6875 42.1875 
Q 32.765625 42.1875 36.015625 45.375 
Q 39.265625 48.578125 39.265625 53.21875 
Q 39.265625 58.0625 35.90625 61.359375 
Q 32.5625 64.65625 27.59375 64.65625 
Q 22.5625 64.65625 19.234375 61.421875 
Q 15.921875 58.203125 15.921875 53.71875 
z
M 13.09375 20.65625 
Q 13.09375 16.890625 14.875 13.375 
Q 16.65625 9.859375 20.171875 7.921875 
Q 23.6875 6 27.734375 6 
Q 34.03125 6 38.125 10.046875 
Q 42.234375 14.109375 42.234375 20.359375 
Q 42.234375 26.703125 38.015625 30.859375 
Q 33.796875 35.015625 27.4375 35.015625 
Q 21.234375 35.015625 17.15625 30.90625 
Q 13.09375 26.8125 13.09375 20.65625 
z
" id="ArialMT-56"/>
      </defs>
      <g style="fill:#262626;" transform="translate(31.0148 44.02765)scale(0.12 -0.12)">
       <use xlink:href="#ArialMT-48"/>
       <use x="55.615234" xlink:href="#ArialMT-46"/>
       <use x="83.398438" xlink:href="#ArialMT-48"/>
       <use x="139.013672" xlink:href="#ArialMT-56"/>
      </g>
     </g>
    </g>
    <g id="text_12">
     <!-- Hydroxyomeprazole sulfide -->
     <defs>
      <path d="M 8.015625 0 
L 8.015625 71.578125 
L 17.484375 71.578125 
L 17.484375 42.1875 
L 54.6875 42.1875 
L 54.6875 71.578125 
L 64.15625 71.578125 
L 64.15625 0 
L 54.6875 0 
L 54.6875 33.734375 
L 17.484375 33.734375 
L 17.484375 0 
z
" id="ArialMT-72"/>
      <path d="M 6.203125 -19.96875 
L 5.21875 -11.71875 
Q 8.109375 -12.5 10.25 -12.5 
Q 13.1875 -12.5 14.9375 -11.515625 
Q 16.703125 -10.546875 17.828125 -8.796875 
Q 18.65625 -7.46875 20.515625 -2.25 
Q 20.75 -1.515625 21.296875 -0.09375 
L 1.609375 51.859375 
L 11.078125 51.859375 
L 21.875 21.828125 
Q 23.96875 16.109375 25.640625 9.8125 
Q 27.15625 15.875 29.25 21.625 
L 40.328125 51.859375 
L 49.125 51.859375 
L 29.390625 -0.875 
Q 26.21875 -9.421875 24.46875 -12.640625 
Q 22.125 -17 19.09375 -19.015625 
Q 16.0625 -21.046875 11.859375 -21.046875 
Q 9.328125 -21.046875 6.203125 -19.96875 
z
" id="ArialMT-121"/>
      <path d="M 0.734375 0 
L 19.671875 26.953125 
L 2.15625 51.859375 
L 13.140625 51.859375 
L 21.09375 39.703125 
Q 23.34375 36.234375 24.703125 33.890625 
Q 26.859375 37.109375 28.65625 39.59375 
L 37.40625 51.859375 
L 47.90625 51.859375 
L 29.984375 27.4375 
L 49.265625 0 
L 38.484375 0 
L 27.828125 16.109375 
L 25 20.453125 
L 11.375 0 
z
" id="ArialMT-120"/>
      <path d="M 6.59375 0 
L 6.59375 51.859375 
L 14.453125 51.859375 
L 14.453125 44.578125 
Q 16.890625 48.390625 20.9375 50.703125 
Q 25 53.03125 30.171875 53.03125 
Q 35.9375 53.03125 39.625 50.640625 
Q 43.3125 48.25 44.828125 43.953125 
Q 50.984375 53.03125 60.84375 53.03125 
Q 68.5625 53.03125 72.703125 48.75 
Q 76.859375 44.484375 76.859375 35.59375 
L 76.859375 0 
L 68.109375 0 
L 68.109375 32.671875 
Q 68.109375 37.9375 67.25 40.25 
Q 66.40625 42.578125 64.15625 43.984375 
Q 61.921875 45.40625 58.890625 45.40625 
Q 53.421875 45.40625 49.796875 41.765625 
Q 46.1875 38.140625 46.1875 30.125 
L 46.1875 0 
L 37.40625 0 
L 37.40625 33.6875 
Q 37.40625 39.546875 35.25 42.46875 
Q 33.109375 45.40625 28.21875 45.40625 
Q 24.515625 45.40625 21.359375 43.453125 
Q 18.21875 41.5 16.796875 37.734375 
Q 15.375 33.984375 15.375 26.90625 
L 15.375 0 
z
" id="ArialMT-109"/>
      <path d="M 6.59375 -19.875 
L 6.59375 51.859375 
L 14.59375 51.859375 
L 14.59375 45.125 
Q 17.4375 49.078125 21 51.046875 
Q 24.5625 53.03125 29.640625 53.03125 
Q 36.28125 53.03125 41.359375 49.609375 
Q 46.4375 46.1875 49.015625 39.953125 
Q 51.609375 33.734375 51.609375 26.3125 
Q 51.609375 18.359375 48.75 11.984375 
Q 45.90625 5.609375 40.453125 2.21875 
Q 35.015625 -1.171875 29 -1.171875 
Q 24.609375 -1.171875 21.109375 0.6875 
Q 17.625 2.546875 15.375 5.375 
L 15.375 -19.875 
z
M 14.546875 25.640625 
Q 14.546875 15.625 18.59375 10.84375 
Q 22.65625 6.0625 28.421875 6.0625 
Q 34.28125 6.0625 38.453125 11.015625 
Q 42.625 15.96875 42.625 26.375 
Q 42.625 36.28125 38.546875 41.203125 
Q 34.46875 46.140625 28.8125 46.140625 
Q 23.1875 46.140625 18.859375 40.890625 
Q 14.546875 35.640625 14.546875 25.640625 
z
" id="ArialMT-112"/>
      <path d="M 1.953125 0 
L 1.953125 7.125 
L 34.96875 45.015625 
Q 29.34375 44.734375 25.046875 44.734375 
L 3.90625 44.734375 
L 3.90625 51.859375 
L 46.296875 51.859375 
L 46.296875 46.046875 
L 18.21875 13.140625 
L 12.796875 7.125 
Q 18.703125 7.5625 23.875 7.5625 
L 47.859375 7.5625 
L 47.859375 0 
z
" id="ArialMT-122"/>
      <path d="M 40.578125 0 
L 40.578125 7.625 
Q 34.515625 -1.171875 24.125 -1.171875 
Q 19.53125 -1.171875 15.546875 0.578125 
Q 11.578125 2.34375 9.640625 5 
Q 7.71875 7.671875 6.9375 11.53125 
Q 6.390625 14.109375 6.390625 19.734375 
L 6.390625 51.859375 
L 15.1875 51.859375 
L 15.1875 23.09375 
Q 15.1875 16.21875 15.71875 13.8125 
Q 16.546875 10.359375 19.234375 8.375 
Q 21.921875 6.390625 25.875 6.390625 
Q 29.828125 6.390625 33.296875 8.421875 
Q 36.765625 10.453125 38.203125 13.9375 
Q 39.65625 17.4375 39.65625 24.078125 
L 39.65625 51.859375 
L 48.4375 51.859375 
L 48.4375 0 
z
" id="ArialMT-117"/>
      <path d="M 8.6875 0 
L 8.6875 45.015625 
L 0.921875 45.015625 
L 0.921875 51.859375 
L 8.6875 51.859375 
L 8.6875 57.375 
Q 8.6875 62.59375 9.625 65.140625 
Q 10.890625 68.5625 14.078125 70.671875 
Q 17.28125 72.796875 23.046875 72.796875 
Q 26.765625 72.796875 31.25 71.921875 
L 29.9375 64.265625 
Q 27.203125 64.75 24.75 64.75 
Q 20.75 64.75 19.09375 63.03125 
Q 17.4375 61.328125 17.4375 56.640625 
L 17.4375 51.859375 
L 27.546875 51.859375 
L 27.546875 45.015625 
L 17.4375 45.015625 
L 17.4375 0 
z
" id="ArialMT-102"/>
     </defs>
     <g style="fill:#262626;" transform="translate(23.857769 257.702344)rotate(-90)scale(0.15 -0.15)">
      <use xlink:href="#ArialMT-72"/>
      <use x="72.216797" xlink:href="#ArialMT-121"/>
      <use x="122.216797" xlink:href="#ArialMT-100"/>
      <use x="177.832031" xlink:href="#ArialMT-114"/>
      <use x="211.132812" xlink:href="#ArialMT-111"/>
      <use x="266.748047" xlink:href="#ArialMT-120"/>
      <use x="316.748047" xlink:href="#ArialMT-121"/>
      <use x="366.748047" xlink:href="#ArialMT-111"/>
      <use x="422.363281" xlink:href="#ArialMT-109"/>
      <use x="505.664062" xlink:href="#ArialMT-101"/>
      <use x="561.279297" xlink:href="#ArialMT-112"/>
      <use x="616.894531" xlink:href="#ArialMT-114"/>
      <use x="650.195312" xlink:href="#ArialMT-97"/>
      <use x="705.810547" xlink:href="#ArialMT-122"/>
      <use x="755.810547" xlink:href="#ArialMT-111"/>
      <use x="811.425781" xlink:href="#ArialMT-108"/>
      <use x="833.642578" xlink:href="#ArialMT-101"/>
      <use x="889.257812" xlink:href="#ArialMT-32"/>
      <use x="917.041016" xlink:href="#ArialMT-115"/>
      <use x="967.041016" xlink:href="#ArialMT-117"/>
      <use x="1022.65625" xlink:href="#ArialMT-108"/>
      <use x="1044.873047" xlink:href="#ArialMT-102"/>
      <use x="1072.65625" xlink:href="#ArialMT-105"/>
      <use x="1094.873047" xlink:href="#ArialMT-100"/>
      <use x="1150.488281" xlink:href="#ArialMT-101"/>
     </g>
    </g>
   </g>
   <g id="PathCollection_1">
    <defs>
     <path d="M 0 3 
C 0.795609 3 1.55874 2.683901 2.12132 2.12132 
C 2.683901 1.55874 3 0.795609 3 0 
C 3 -0.795609 2.683901 -1.55874 2.12132 -2.12132 
C 1.55874 -2.683901 0.795609 -3 0 -3 
C -0.795609 -3 -1.55874 -2.683901 -2.12132 -2.12132 
C -2.683901 -1.55874 -3 -0.795609 -3 0 
C -3 0.795609 -2.683901 1.55874 -2.12132 2.12132 
C -1.55874 2.683901 -0.795609 3 0 3 
z
" id="m3e4da041ab" style="stroke:#f77189;stroke-opacity:0.8;"/>
    </defs>
    <g clip-path="url(#p6bd42545b5)">
     <use style="fill:#f77189;fill-opacity:0.8;stroke:#f77189;stroke-opacity:0.8;" x="204.032821" xlink:href="#m3e4da041ab" y="280.843712"/>
     <use style="fill:#f77189;fill-opacity:0.8;stroke:#f77189;stroke-opacity:0.8;" x="255.466533" xlink:href="#m3e4da041ab" y="233.986078"/>
     <use style="fill:#f77189;fill-opacity:0.8;stroke:#f77189;stroke-opacity:0.8;" x="274.743836" xlink:href="#m3e4da041ab" y="177.839462"/>
     <use style="fill:#f77189;fill-opacity:0.8;stroke:#f77189;stroke-opacity:0.8;" x="308.24706" xlink:href="#m3e4da041ab" y="202.50711"/>
     <use style="fill:#f77189;fill-opacity:0.8;stroke:#f77189;stroke-opacity:0.8;" x="313.872798" xlink:href="#m3e4da041ab" y="190.491076"/>
     <use style="fill:#f77189;fill-opacity:0.8;stroke:#f77189;stroke-opacity:0.8;" x="274.918425" xlink:href="#m3e4da041ab" y="233.339828"/>
    </g>
   </g>
   <g id="PathCollection_2">
    <defs>
     <path d="M 0 3 
C 0.795609 3 1.55874 2.683901 2.12132 2.12132 
C 2.683901 1.55874 3 0.795609 3 0 
C 3 -0.795609 2.683901 -1.55874 2.12132 -2.12132 
C 1.55874 -2.683901 0.795609 -3 0 -3 
C -0.795609 -3 -1.55874 -2.683901 -2.12132 -2.12132 
C -2.683901 -1.55874 -3 -0.795609 -3 0 
C -3 0.795609 -2.683901 1.55874 -2.12132 2.12132 
C -1.55874 2.683901 -0.795609 3 0 3 
z
" id="mb6c2695795" style="stroke:#e68332;stroke-opacity:0.8;"/>
    </defs>
    <g clip-path="url(#p6bd42545b5)">
     <use style="fill:#e68332;fill-opacity:0.8;stroke:#e68332;stroke-opacity:0.8;" x="160.510305" xlink:href="#mb6c2695795" y="285.505676"/>
     <use style="fill:#e68332;fill-opacity:0.8;stroke:#e68332;stroke-opacity:0.8;" x="118.573505" xlink:href="#mb6c2695795" y="283.634922"/>
     <use style="fill:#e68332;fill-opacity:0.8;stroke:#e68332;stroke-opacity:0.8;" x="146.486586" xlink:href="#mb6c2695795" y="282.129997"/>
     <use style="fill:#e68332;fill-opacity:0.8;stroke:#e68332;stroke-opacity:0.8;" x="177.143438" xlink:href="#mb6c2695795" y="285.505676"/>
     <use style="fill:#e68332;fill-opacity:0.8;stroke:#e68332;stroke-opacity:0.8;" x="196.936757" xlink:href="#mb6c2695795" y="275.960285"/>
     <use style="fill:#e68332;fill-opacity:0.8;stroke:#e68332;stroke-opacity:0.8;" x="202.140337" xlink:href="#mb6c2695795" y="266.484368"/>
     <use style="fill:#e68332;fill-opacity:0.8;stroke:#e68332;stroke-opacity:0.8;" x="183.11416" xlink:href="#mb6c2695795" y="281.742696"/>
     <use style="fill:#e68332;fill-opacity:0.8;stroke:#e68332;stroke-opacity:0.8;" x="204.822366" xlink:href="#mb6c2695795" y="282.445785"/>
    </g>
   </g>
   <g id="PathCollection_3">
    <defs>
     <path d="M 0 3 
C 0.795609 3 1.55874 2.683901 2.12132 2.12132 
C 2.683901 1.55874 3 0.795609 3 0 
C 3 -0.795609 2.683901 -1.55874 2.12132 -2.12132 
C 1.55874 -2.683901 0.795609 -3 0 -3 
C -0.795609 -3 -1.55874 -2.683901 -2.12132 -2.12132 
C -2.683901 -1.55874 -3 -0.795609 -3 0 
C -3 0.795609 -2.683901 1.55874 -2.12132 2.12132 
C -1.55874 2.683901 -0.795609 3 0 3 
z
" id="me822badec5" style="stroke:#bb9832;stroke-opacity:0.8;"/>
    </defs>
    <g clip-path="url(#p6bd42545b5)">
     <use style="fill:#bb9832;fill-opacity:0.8;stroke:#bb9832;stroke-opacity:0.8;" x="223.551246" xlink:href="#me822badec5" y="270.799322"/>
     <use style="fill:#bb9832;fill-opacity:0.8;stroke:#bb9832;stroke-opacity:0.8;" x="223.535024" xlink:href="#me822badec5" y="176.075234"/>
     <use style="fill:#bb9832;fill-opacity:0.8;stroke:#bb9832;stroke-opacity:0.8;" x="251.363759" xlink:href="#me822badec5" y="198.844734"/>
     <use style="fill:#bb9832;fill-opacity:0.8;stroke:#bb9832;stroke-opacity:0.8;" x="316.454983" xlink:href="#me822badec5" y="182.244234"/>
     <use style="fill:#bb9832;fill-opacity:0.8;stroke:#bb9832;stroke-opacity:0.8;" x="304.518834" xlink:href="#me822badec5" y="285.505676"/>
    </g>
   </g>
   <g id="PathCollection_4">
    <defs>
     <path d="M 0 3 
C 0.795609 3 1.55874 2.683901 2.12132 2.12132 
C 2.683901 1.55874 3 0.795609 3 0 
C 3 -0.795609 2.683901 -1.55874 2.12132 -2.12132 
C 1.55874 -2.683901 0.795609 -3 0 -3 
C -0.795609 -3 -1.55874 -2.683901 -2.12132 -2.12132 
C -2.683901 -1.55874 -3 -0.795609 -3 0 
C -3 0.795609 -2.683901 1.55874 -2.12132 2.12132 
C -1.55874 2.683901 -0.795609 3 0 3 
z
" id="m1672063cb3" style="stroke:#97a431;stroke-opacity:0.8;"/>
    </defs>
    <g clip-path="url(#p6bd42545b5)">
     <use style="fill:#97a431;fill-opacity:0.8;stroke:#97a431;stroke-opacity:0.8;" x="111.095004" xlink:href="#m1672063cb3" y="284.301955"/>
     <use style="fill:#97a431;fill-opacity:0.8;stroke:#97a431;stroke-opacity:0.8;" x="124.307636" xlink:href="#m1672063cb3" y="284.451868"/>
     <use style="fill:#97a431;fill-opacity:0.8;stroke:#97a431;stroke-opacity:0.8;" x="336.375769" xlink:href="#m1672063cb3" y="125.020709"/>
     <use style="fill:#97a431;fill-opacity:0.8;stroke:#97a431;stroke-opacity:0.8;" x="277.505755" xlink:href="#m1672063cb3" y="224.992735"/>
     <use style="fill:#97a431;fill-opacity:0.8;stroke:#97a431;stroke-opacity:0.8;" x="270.657734" xlink:href="#m1672063cb3" y="277.850818"/>
     <use style="fill:#97a431;fill-opacity:0.8;stroke:#97a431;stroke-opacity:0.8;" x="235.129902" xlink:href="#m1672063cb3" y="282.739879"/>
     <use style="fill:#97a431;fill-opacity:0.8;stroke:#97a431;stroke-opacity:0.8;" x="283.169094" xlink:href="#m1672063cb3" y="280.117844"/>
    </g>
   </g>
   <g id="PathCollection_5">
    <defs>
     <path d="M 0 3 
C 0.795609 3 1.55874 2.683901 2.12132 2.12132 
C 2.683901 1.55874 3 0.795609 3 0 
C 3 -0.795609 2.683901 -1.55874 2.12132 -2.12132 
C 1.55874 -2.683901 0.795609 -3 0 -3 
C -0.795609 -3 -1.55874 -2.683901 -2.12132 -2.12132 
C -2.683901 -1.55874 -3 -0.795609 -3 0 
C -3 0.795609 -2.683901 1.55874 -2.12132 2.12132 
C -1.55874 2.683901 -0.795609 3 0 3 
z
" id="m4364e84a70" style="stroke:#50b131;stroke-opacity:0.8;"/>
    </defs>
    <g clip-path="url(#p6bd42545b5)">
     <use style="fill:#50b131;fill-opacity:0.8;stroke:#50b131;stroke-opacity:0.8;" x="197.925498" xlink:href="#m4364e84a70" y="266.324535"/>
     <use style="fill:#50b131;fill-opacity:0.8;stroke:#50b131;stroke-opacity:0.8;" x="270.744777" xlink:href="#m4364e84a70" y="260.915837"/>
     <use style="fill:#50b131;fill-opacity:0.8;stroke:#50b131;stroke-opacity:0.8;" x="289.049392" xlink:href="#m4364e84a70" y="279.169229"/>
     <use style="fill:#50b131;fill-opacity:0.8;stroke:#50b131;stroke-opacity:0.8;" x="296.732836" xlink:href="#m4364e84a70" y="274.715114"/>
     <use style="fill:#50b131;fill-opacity:0.8;stroke:#50b131;stroke-opacity:0.8;" x="240.054929" xlink:href="#m4364e84a70" y="262.905444"/>
     <use style="fill:#50b131;fill-opacity:0.8;stroke:#50b131;stroke-opacity:0.8;" x="306.185187" xlink:href="#m4364e84a70" y="267.171364"/>
     <use style="fill:#50b131;fill-opacity:0.8;stroke:#50b131;stroke-opacity:0.8;" x="289.889102" xlink:href="#m4364e84a70" y="240.979768"/>
    </g>
   </g>
   <g id="PathCollection_6">
    <defs>
     <path d="M 0 3 
C 0.795609 3 1.55874 2.683901 2.12132 2.12132 
C 2.683901 1.55874 3 0.795609 3 0 
C 3 -0.795609 2.683901 -1.55874 2.12132 -2.12132 
C 1.55874 -2.683901 0.795609 -3 0 -3 
C -0.795609 -3 -1.55874 -2.683901 -2.12132 -2.12132 
C -2.683901 -1.55874 -3 -0.795609 -3 0 
C -3 0.795609 -2.683901 1.55874 -2.12132 2.12132 
C -1.55874 2.683901 -0.795609 3 0 3 
z
" id="m52376ef5ae" style="stroke:#34af84;stroke-opacity:0.8;"/>
    </defs>
    <g clip-path="url(#p6bd42545b5)">
     <use style="fill:#34af84;fill-opacity:0.8;stroke:#34af84;stroke-opacity:0.8;" x="207.106482" xlink:href="#m52376ef5ae" y="285.505676"/>
     <use style="fill:#34af84;fill-opacity:0.8;stroke:#34af84;stroke-opacity:0.8;" x="178.005276" xlink:href="#m52376ef5ae" y="251.098443"/>
     <use style="fill:#34af84;fill-opacity:0.8;stroke:#34af84;stroke-opacity:0.8;" x="218.806828" xlink:href="#m52376ef5ae" y="285.505676"/>
     <use style="fill:#34af84;fill-opacity:0.8;stroke:#34af84;stroke-opacity:0.8;" x="248.108593" xlink:href="#m52376ef5ae" y="285.505676"/>
     <use style="fill:#34af84;fill-opacity:0.8;stroke:#34af84;stroke-opacity:0.8;" x="219.948801" xlink:href="#m52376ef5ae" y="217.450155"/>
     <use style="fill:#34af84;fill-opacity:0.8;stroke:#34af84;stroke-opacity:0.8;" x="167.995299" xlink:href="#m52376ef5ae" y="285.505676"/>
     <use style="fill:#34af84;fill-opacity:0.8;stroke:#34af84;stroke-opacity:0.8;" x="220.499341" xlink:href="#m52376ef5ae" y="285.505676"/>
    </g>
   </g>
   <g id="PathCollection_7">
    <defs>
     <path d="M 0 3 
C 0.795609 3 1.55874 2.683901 2.12132 2.12132 
C 2.683901 1.55874 3 0.795609 3 0 
C 3 -0.795609 2.683901 -1.55874 2.12132 -2.12132 
C 1.55874 -2.683901 0.795609 -3 0 -3 
C -0.795609 -3 -1.55874 -2.683901 -2.12132 -2.12132 
C -2.683901 -1.55874 -3 -0.795609 -3 0 
C -3 0.795609 -2.683901 1.55874 -2.12132 2.12132 
C -1.55874 2.683901 -0.795609 3 0 3 
z
" id="m8205ded426" style="stroke:#36ada4;stroke-opacity:0.8;"/>
    </defs>
    <g clip-path="url(#p6bd42545b5)">
     <use style="fill:#36ada4;fill-opacity:0.8;stroke:#36ada4;stroke-opacity:0.8;" x="198.165066" xlink:href="#m8205ded426" y="281.148366"/>
     <use style="fill:#36ada4;fill-opacity:0.8;stroke:#36ada4;stroke-opacity:0.8;" x="275.832142" xlink:href="#m8205ded426" y="216.04048"/>
     <use style="fill:#36ada4;fill-opacity:0.8;stroke:#36ada4;stroke-opacity:0.8;" x="240.180368" xlink:href="#m8205ded426" y="119.3012"/>
     <use style="fill:#36ada4;fill-opacity:0.8;stroke:#36ada4;stroke-opacity:0.8;" x="307.332406" xlink:href="#m8205ded426" y="105.320646"/>
     <use style="fill:#36ada4;fill-opacity:0.8;stroke:#36ada4;stroke-opacity:0.8;" x="259.255998" xlink:href="#m8205ded426" y="30.09235"/>
    </g>
   </g>
   <g id="PathCollection_8">
    <defs>
     <path d="M 0 3 
C 0.795609 3 1.55874 2.683901 2.12132 2.12132 
C 2.683901 1.55874 3 0.795609 3 0 
C 3 -0.795609 2.683901 -1.55874 2.12132 -2.12132 
C 1.55874 -2.683901 0.795609 -3 0 -3 
C -0.795609 -3 -1.55874 -2.683901 -2.12132 -2.12132 
C -2.683901 -1.55874 -3 -0.795609 -3 0 
C -3 0.795609 -2.683901 1.55874 -2.12132 2.12132 
C -1.55874 2.683901 -0.795609 3 0 3 
z
" id="m066d143c72" style="stroke:#38aabf;stroke-opacity:0.8;"/>
    </defs>
    <g clip-path="url(#p6bd42545b5)">
     <use style="fill:#38aabf;fill-opacity:0.8;stroke:#38aabf;stroke-opacity:0.8;" x="80.610906" xlink:href="#m066d143c72" y="212.408057"/>
     <use style="fill:#38aabf;fill-opacity:0.8;stroke:#38aabf;stroke-opacity:0.8;" x="172.591366" xlink:href="#m066d143c72" y="144.384926"/>
     <use style="fill:#38aabf;fill-opacity:0.8;stroke:#38aabf;stroke-opacity:0.8;" x="231.794455" xlink:href="#m066d143c72" y="233.859318"/>
     <use style="fill:#38aabf;fill-opacity:0.8;stroke:#38aabf;stroke-opacity:0.8;" x="175.736739" xlink:href="#m066d143c72" y="233.701335"/>
     <use style="fill:#38aabf;fill-opacity:0.8;stroke:#38aabf;stroke-opacity:0.8;" x="214.126042" xlink:href="#m066d143c72" y="196.18665"/>
     <use style="fill:#38aabf;fill-opacity:0.8;stroke:#38aabf;stroke-opacity:0.8;" x="205.854736" xlink:href="#m066d143c72" y="145.59171"/>
    </g>
   </g>
   <g id="PathCollection_9">
    <defs>
     <path d="M 0 3 
C 0.795609 3 1.55874 2.683901 2.12132 2.12132 
C 2.683901 1.55874 3 0.795609 3 0 
C 3 -0.795609 2.683901 -1.55874 2.12132 -2.12132 
C 1.55874 -2.683901 0.795609 -3 0 -3 
C -0.795609 -3 -1.55874 -2.683901 -2.12132 -2.12132 
C -2.683901 -1.55874 -3 -0.795609 -3 0 
C -3 0.795609 -2.683901 1.55874 -2.12132 2.12132 
C -1.55874 2.683901 -0.795609 3 0 3 
z
" id="m17ff71eb18" style="stroke:#3ba3ec;stroke-opacity:0.8;"/>
    </defs>
    <g clip-path="url(#p6bd42545b5)">
     <use style="fill:#3ba3ec;fill-opacity:0.8;stroke:#3ba3ec;stroke-opacity:0.8;" x="199.941018" xlink:href="#m17ff71eb18" y="265.800738"/>
     <use style="fill:#3ba3ec;fill-opacity:0.8;stroke:#3ba3ec;stroke-opacity:0.8;" x="249.524661" xlink:href="#m17ff71eb18" y="285.505676"/>
     <use style="fill:#3ba3ec;fill-opacity:0.8;stroke:#3ba3ec;stroke-opacity:0.8;" x="155.909088" xlink:href="#m17ff71eb18" y="267.789728"/>
     <use style="fill:#3ba3ec;fill-opacity:0.8;stroke:#3ba3ec;stroke-opacity:0.8;" x="237.230475" xlink:href="#m17ff71eb18" y="159.64943"/>
    </g>
   </g>
   <g id="PathCollection_10">
    <defs>
     <path d="M 0 3 
C 0.795609 3 1.55874 2.683901 2.12132 2.12132 
C 2.683901 1.55874 3 0.795609 3 0 
C 3 -0.795609 2.683901 -1.55874 2.12132 -2.12132 
C 1.55874 -2.683901 0.795609 -3 0 -3 
C -0.795609 -3 -1.55874 -2.683901 -2.12132 -2.12132 
C -2.683901 -1.55874 -3 -0.795609 -3 0 
C -3 0.795609 -2.683901 1.55874 -2.12132 2.12132 
C -1.55874 2.683901 -0.795609 3 0 3 
z
" id="m5bcad80607" style="stroke:#a48cf4;stroke-opacity:0.8;"/>
    </defs>
    <g clip-path="url(#p6bd42545b5)">
     <use style="fill:#a48cf4;fill-opacity:0.8;stroke:#a48cf4;stroke-opacity:0.8;" x="126.936669" xlink:href="#m5bcad80607" y="282.439567"/>
     <use style="fill:#a48cf4;fill-opacity:0.8;stroke:#a48cf4;stroke-opacity:0.8;" x="136.651263" xlink:href="#m5bcad80607" y="275.417748"/>
     <use style="fill:#a48cf4;fill-opacity:0.8;stroke:#a48cf4;stroke-opacity:0.8;" x="313.166709" xlink:href="#m5bcad80607" y="187.283413"/>
     <use style="fill:#a48cf4;fill-opacity:0.8;stroke:#a48cf4;stroke-opacity:0.8;" x="262.758226" xlink:href="#m5bcad80607" y="285.505676"/>
     <use style="fill:#a48cf4;fill-opacity:0.8;stroke:#a48cf4;stroke-opacity:0.8;" x="254.318059" xlink:href="#m5bcad80607" y="260.436368"/>
     <use style="fill:#a48cf4;fill-opacity:0.8;stroke:#a48cf4;stroke-opacity:0.8;" x="285.263305" xlink:href="#m5bcad80607" y="285.505676"/>
     <use style="fill:#a48cf4;fill-opacity:0.8;stroke:#a48cf4;stroke-opacity:0.8;" x="270.465188" xlink:href="#m5bcad80607" y="285.505676"/>
    </g>
   </g>
   <g id="PathCollection_11">
    <defs>
     <path d="M 0 3 
C 0.795609 3 1.55874 2.683901 2.12132 2.12132 
C 2.683901 1.55874 3 0.795609 3 0 
C 3 -0.795609 2.683901 -1.55874 2.12132 -2.12132 
C 1.55874 -2.683901 0.795609 -3 0 -3 
C -0.795609 -3 -1.55874 -2.683901 -2.12132 -2.12132 
C -2.683901 -1.55874 -3 -0.795609 -3 0 
C -3 0.795609 -2.683901 1.55874 -2.12132 2.12132 
C -1.55874 2.683901 -0.795609 3 0 3 
z
" id="m868cc199db" style="stroke:#e866f4;stroke-opacity:0.8;"/>
    </defs>
    <g clip-path="url(#p6bd42545b5)">
     <use style="fill:#e866f4;fill-opacity:0.8;stroke:#e866f4;stroke-opacity:0.8;" x="154.910968" xlink:href="#m868cc199db" y="285.505676"/>
     <use style="fill:#e866f4;fill-opacity:0.8;stroke:#e866f4;stroke-opacity:0.8;" x="190.628949" xlink:href="#m868cc199db" y="257.427213"/>
     <use style="fill:#e866f4;fill-opacity:0.8;stroke:#e866f4;stroke-opacity:0.8;" x="206.109999" xlink:href="#m868cc199db" y="285.505676"/>
     <use style="fill:#e866f4;fill-opacity:0.8;stroke:#e866f4;stroke-opacity:0.8;" x="175.743717" xlink:href="#m868cc199db" y="285.505676"/>
     <use style="fill:#e866f4;fill-opacity:0.8;stroke:#e866f4;stroke-opacity:0.8;" x="227.977751" xlink:href="#m868cc199db" y="285.505676"/>
     <use style="fill:#e866f4;fill-opacity:0.8;stroke:#e866f4;stroke-opacity:0.8;" x="165.334588" xlink:href="#m868cc199db" y="285.505676"/>
    </g>
   </g>
   <g id="PathCollection_12">
    <defs>
     <path d="M 0 3 
C 0.795609 3 1.55874 2.683901 2.12132 2.12132 
C 2.683901 1.55874 3 0.795609 3 0 
C 3 -0.795609 2.683901 -1.55874 2.12132 -2.12132 
C 1.55874 -2.683901 0.795609 -3 0 -3 
C -0.795609 -3 -1.55874 -2.683901 -2.12132 -2.12132 
C -2.683901 -1.55874 -3 -0.795609 -3 0 
C -3 0.795609 -2.683901 1.55874 -2.12132 2.12132 
C -1.55874 2.683901 -0.795609 3 0 3 
z
" id="m2001e5527e" style="stroke:#f668c2;stroke-opacity:0.8;"/>
    </defs>
    <g clip-path="url(#p6bd42545b5)">
     <use style="fill:#f668c2;fill-opacity:0.8;stroke:#f668c2;stroke-opacity:0.8;" x="155.441911" xlink:href="#m2001e5527e" y="284.438181"/>
     <use style="fill:#f668c2;fill-opacity:0.8;stroke:#f668c2;stroke-opacity:0.8;" x="151.215852" xlink:href="#m2001e5527e" y="285.159837"/>
     <use style="fill:#f668c2;fill-opacity:0.8;stroke:#f668c2;stroke-opacity:0.8;" x="148.086316" xlink:href="#m2001e5527e" y="284.602038"/>
     <use style="fill:#f668c2;fill-opacity:0.8;stroke:#f668c2;stroke-opacity:0.8;" x="154.458246" xlink:href="#m2001e5527e" y="283.407294"/>
     <use style="fill:#f668c2;fill-opacity:0.8;stroke:#f668c2;stroke-opacity:0.8;" x="167.817455" xlink:href="#m2001e5527e" y="282.96776"/>
     <use style="fill:#f668c2;fill-opacity:0.8;stroke:#f668c2;stroke-opacity:0.8;" x="154.712229" xlink:href="#m2001e5527e" y="284.773283"/>
     <use style="fill:#f668c2;fill-opacity:0.8;stroke:#f668c2;stroke-opacity:0.8;" x="168.749655" xlink:href="#m2001e5527e" y="284.106222"/>
    </g>
   </g>
   <g id="line2d_1">
    <path clip-path="url(#p6bd42545b5)" d="M 204.032821 273.536969 
L 205.142316 272.658785 
L 206.25181 271.7806 
L 207.361305 270.902416 
L 208.4708 270.024231 
L 209.580295 269.146047 
L 210.689789 268.267862 
L 211.799284 267.389678 
L 212.908779 266.511493 
L 214.018273 265.633309 
L 215.127768 264.755124 
L 216.237263 263.87694 
L 217.346758 262.998755 
L 218.456252 262.120571 
L 219.565747 261.242386 
L 220.675242 260.364202 
L 221.784736 259.486017 
L 222.894231 258.607833 
L 224.003726 257.729648 
L 225.11322 256.851464 
L 226.222715 255.973279 
L 227.33221 255.095095 
L 228.441705 254.21691 
L 229.551199 253.338726 
L 230.660694 252.460541 
L 231.770189 251.582357 
L 232.879683 250.704172 
L 233.989178 249.825988 
L 235.098673 248.947803 
L 236.208168 248.069619 
L 237.317662 247.191434 
L 238.427157 246.31325 
L 239.536652 245.435065 
L 240.646146 244.556881 
L 241.755641 243.678696 
L 242.865136 242.800512 
L 243.974631 241.922327 
L 245.084125 241.044143 
L 246.19362 240.165958 
L 247.303115 239.287774 
L 248.412609 238.409589 
L 249.522104 237.531405 
L 250.631599 236.65322 
L 251.741094 235.775036 
L 252.850588 234.896851 
L 253.960083 234.018667 
L 255.069578 233.140482 
L 256.179072 232.262298 
L 257.288567 231.384113 
L 258.398062 230.505929 
L 259.507557 229.627744 
L 260.617051 228.74956 
L 261.726546 227.871375 
L 262.836041 226.993191 
L 263.945535 226.115006 
L 265.05503 225.236822 
L 266.164525 224.358637 
L 267.27402 223.480453 
L 268.383514 222.602268 
L 269.493009 221.724084 
L 270.602504 220.845899 
L 271.711998 219.967715 
L 272.821493 219.08953 
L 273.930988 218.211346 
L 275.040483 217.333161 
L 276.149977 216.454977 
L 277.259472 215.576792 
L 278.368967 214.698608 
L 279.478461 213.820423 
L 280.587956 212.942239 
L 281.697451 212.064054 
L 282.806946 211.18587 
L 283.91644 210.307685 
L 285.025935 209.429501 
L 286.13543 208.551316 
L 287.244924 207.673132 
L 288.354419 206.794947 
L 289.463914 205.916763 
L 290.573409 205.038578 
L 291.682903 204.160394 
L 292.792398 203.282209 
L 293.901893 202.404025 
L 295.011387 201.52584 
L 296.120882 200.647656 
L 297.230377 199.769471 
L 298.339872 198.891287 
L 299.449366 198.013102 
L 300.558861 197.134918 
L 301.668356 196.256733 
L 302.77785 195.378548 
L 303.887345 194.500364 
L 304.99684 193.622179 
L 306.106335 192.743995 
L 307.215829 191.86581 
L 308.325324 190.987626 
L 309.434819 190.109441 
L 310.544313 189.231257 
L 311.653808 188.353072 
L 312.763303 187.474888 
L 313.872798 186.596703 
" style="fill:none;stroke:#f77189;stroke-linecap:round;stroke-width:2.25;"/>
   </g>
   <g id="line2d_2">
    <path clip-path="url(#p6bd42545b5)" d="M 118.573505 286.465401 
L 119.444706 286.369986 
L 120.315906 286.274572 
L 121.187107 286.179158 
L 122.058308 286.083744 
L 122.929508 285.988329 
L 123.800709 285.892915 
L 124.67191 285.797501 
L 125.54311 285.702086 
L 126.414311 285.606672 
L 127.285511 285.511258 
L 128.156712 285.415843 
L 129.027913 285.320429 
L 129.899113 285.225015 
L 130.770314 285.1296 
L 131.641514 285.034186 
L 132.512715 284.938772 
L 133.383916 284.843357 
L 134.255116 284.747943 
L 135.126317 284.652529 
L 135.997518 284.557115 
L 136.868718 284.4617 
L 137.739919 284.366286 
L 138.611119 284.270872 
L 139.48232 284.175457 
L 140.353521 284.080043 
L 141.224721 283.984629 
L 142.095922 283.889214 
L 142.967122 283.7938 
L 143.838323 283.698386 
L 144.709524 283.602971 
L 145.580724 283.507557 
L 146.451925 283.412143 
L 147.323126 283.316729 
L 148.194326 283.221314 
L 149.065527 283.1259 
L 149.936727 283.030486 
L 150.807928 282.935071 
L 151.679129 282.839657 
L 152.550329 282.744243 
L 153.42153 282.648828 
L 154.29273 282.553414 
L 155.163931 282.458 
L 156.035132 282.362585 
L 156.906332 282.267171 
L 157.777533 282.171757 
L 158.648734 282.076343 
L 159.519934 281.980928 
L 160.391135 281.885514 
L 161.262335 281.7901 
L 162.133536 281.694685 
L 163.004737 281.599271 
L 163.875937 281.503857 
L 164.747138 281.408442 
L 165.618338 281.313028 
L 166.489539 281.217614 
L 167.36074 281.122199 
L 168.23194 281.026785 
L 169.103141 280.931371 
L 169.974342 280.835956 
L 170.845542 280.740542 
L 171.716743 280.645128 
L 172.587943 280.549714 
L 173.459144 280.454299 
L 174.330345 280.358885 
L 175.201545 280.263471 
L 176.072746 280.168056 
L 176.943946 280.072642 
L 177.815147 279.977228 
L 178.686348 279.881813 
L 179.557548 279.786399 
L 180.428749 279.690985 
L 181.29995 279.59557 
L 182.17115 279.500156 
L 183.042351 279.404742 
L 183.913551 279.309328 
L 184.784752 279.213913 
L 185.655953 279.118499 
L 186.527153 279.023085 
L 187.398354 278.92767 
L 188.269554 278.832256 
L 189.140755 278.736842 
L 190.011956 278.641427 
L 190.883156 278.546013 
L 191.754357 278.450599 
L 192.625558 278.355184 
L 193.496758 278.25977 
L 194.367959 278.164356 
L 195.239159 278.068942 
L 196.11036 277.973527 
L 196.981561 277.878113 
L 197.852761 277.782699 
L 198.723962 277.687284 
L 199.595162 277.59187 
L 200.466363 277.496456 
L 201.337564 277.401041 
L 202.208764 277.305627 
L 203.079965 277.210213 
L 203.951166 277.114798 
L 204.822366 277.019384 
" style="fill:none;stroke:#e68332;stroke-linecap:round;stroke-width:2.25;"/>
   </g>
   <g id="line2d_3">
    <path clip-path="url(#p6bd42545b5)" d="M 223.535024 219.264061 
L 224.47361 219.343842 
L 225.412195 219.423623 
L 226.350781 219.503404 
L 227.289366 219.583185 
L 228.227951 219.662966 
L 229.166537 219.742747 
L 230.105122 219.822528 
L 231.043708 219.902309 
L 231.982293 219.98209 
L 232.920879 220.061871 
L 233.859464 220.141652 
L 234.798049 220.221432 
L 235.736635 220.301213 
L 236.67522 220.380994 
L 237.613806 220.460775 
L 238.552391 220.540556 
L 239.490977 220.620337 
L 240.429562 220.700118 
L 241.368148 220.779899 
L 242.306733 220.85968 
L 243.245318 220.939461 
L 244.183904 221.019242 
L 245.122489 221.099023 
L 246.061075 221.178804 
L 246.99966 221.258585 
L 247.938246 221.338366 
L 248.876831 221.418147 
L 249.815416 221.497928 
L 250.754002 221.577708 
L 251.692587 221.657489 
L 252.631173 221.73727 
L 253.569758 221.817051 
L 254.508344 221.896832 
L 255.446929 221.976613 
L 256.385515 222.056394 
L 257.3241 222.136175 
L 258.262685 222.215956 
L 259.201271 222.295737 
L 260.139856 222.375518 
L 261.078442 222.455299 
L 262.017027 222.53508 
L 262.955613 222.614861 
L 263.894198 222.694642 
L 264.832783 222.774423 
L 265.771369 222.854203 
L 266.709954 222.933984 
L 267.64854 223.013765 
L 268.587125 223.093546 
L 269.525711 223.173327 
L 270.464296 223.253108 
L 271.402882 223.332889 
L 272.341467 223.41267 
L 273.280052 223.492451 
L 274.218638 223.572232 
L 275.157223 223.652013 
L 276.095809 223.731794 
L 277.034394 223.811575 
L 277.97298 223.891356 
L 278.911565 223.971137 
L 279.850151 224.050918 
L 280.788736 224.130698 
L 281.727321 224.210479 
L 282.665907 224.29026 
L 283.604492 224.370041 
L 284.543078 224.449822 
L 285.481663 224.529603 
L 286.420249 224.609384 
L 287.358834 224.689165 
L 288.297419 224.768946 
L 289.236005 224.848727 
L 290.17459 224.928508 
L 291.113176 225.008289 
L 292.051761 225.08807 
L 292.990347 225.167851 
L 293.928932 225.247632 
L 294.867518 225.327413 
L 295.806103 225.407193 
L 296.744688 225.486974 
L 297.683274 225.566755 
L 298.621859 225.646536 
L 299.560445 225.726317 
L 300.49903 225.806098 
L 301.437616 225.885879 
L 302.376201 225.96566 
L 303.314786 226.045441 
L 304.253372 226.125222 
L 305.191957 226.205003 
L 306.130543 226.284784 
L 307.069128 226.364565 
L 308.007714 226.444346 
L 308.946299 226.524127 
L 309.884885 226.603908 
L 310.82347 226.683689 
L 311.762055 226.763469 
L 312.700641 226.84325 
L 313.639226 226.923031 
L 314.577812 227.002812 
L 315.516397 227.082593 
L 316.454983 227.162374 
" style="fill:none;stroke:#bb9832;stroke-linecap:round;stroke-width:2.25;"/>
   </g>
   <g id="line2d_4">
    <path clip-path="url(#p6bd42545b5)" d="M 111.095004 306.295455 
L 113.370568 305.278503 
L 115.646131 304.261551 
L 117.921694 303.244599 
L 120.197257 302.227647 
L 122.472821 301.210695 
L 124.748384 300.193743 
L 127.023947 299.176791 
L 129.299511 298.159839 
L 131.575074 297.142887 
L 133.850637 296.125935 
L 136.1262 295.108983 
L 138.401764 294.092031 
L 140.677327 293.075079 
L 142.95289 292.058128 
L 145.228453 291.041176 
L 147.504017 290.024224 
L 149.77958 289.007272 
L 152.055143 287.99032 
L 154.330707 286.973368 
L 156.60627 285.956416 
L 158.881833 284.939464 
L 161.157396 283.922512 
L 163.43296 282.90556 
L 165.708523 281.888608 
L 167.984086 280.871656 
L 170.25965 279.854704 
L 172.535213 278.837752 
L 174.810776 277.820801 
L 177.086339 276.803849 
L 179.361903 275.786897 
L 181.637466 274.769945 
L 183.913029 273.752993 
L 186.188593 272.736041 
L 188.464156 271.719089 
L 190.739719 270.702137 
L 193.015282 269.685185 
L 195.290846 268.668233 
L 197.566409 267.651281 
L 199.841972 266.634329 
L 202.117536 265.617377 
L 204.393099 264.600426 
L 206.668662 263.583474 
L 208.944225 262.566522 
L 211.219789 261.54957 
L 213.495352 260.532618 
L 215.770915 259.515666 
L 218.046479 258.498714 
L 220.322042 257.481762 
L 222.597605 256.46481 
L 224.873168 255.447858 
L 227.148732 254.430906 
L 229.424295 253.413954 
L 231.699858 252.397002 
L 233.975422 251.38005 
L 236.250985 250.363099 
L 238.526548 249.346147 
L 240.802111 248.329195 
L 243.077675 247.312243 
L 245.353238 246.295291 
L 247.628801 245.278339 
L 249.904364 244.261387 
L 252.179928 243.244435 
L 254.455491 242.227483 
L 256.731054 241.210531 
L 259.006618 240.193579 
L 261.282181 239.176627 
L 263.557744 238.159675 
L 265.833307 237.142723 
L 268.108871 236.125772 
L 270.384434 235.10882 
L 272.659997 234.091868 
L 274.935561 233.074916 
L 277.211124 232.057964 
L 279.486687 231.041012 
L 281.76225 230.02406 
L 284.037814 229.007108 
L 286.313377 227.990156 
L 288.58894 226.973204 
L 290.864504 225.956252 
L 293.140067 224.9393 
L 295.41563 223.922348 
L 297.691193 222.905396 
L 299.966757 221.888445 
L 302.24232 220.871493 
L 304.517883 219.854541 
L 306.793447 218.837589 
L 309.06901 217.820637 
L 311.344573 216.803685 
L 313.620136 215.786733 
L 315.8957 214.769781 
L 318.171263 213.752829 
L 320.446826 212.735877 
L 322.72239 211.718925 
L 324.997953 210.701973 
L 327.273516 209.685021 
L 329.549079 208.668069 
L 331.824643 207.651118 
L 334.100206 206.634166 
L 336.375769 205.617214 
" style="fill:none;stroke:#97a431;stroke-linecap:round;stroke-width:2.25;"/>
   </g>
   <g id="line2d_5">
    <path clip-path="url(#p6bd42545b5)" d="M 197.925498 263.825641 
L 199.019031 263.837336 
L 200.112563 263.849031 
L 201.206095 263.860726 
L 202.299627 263.87242 
L 203.393159 263.884115 
L 204.486692 263.89581 
L 205.580224 263.907505 
L 206.673756 263.919199 
L 207.767288 263.930894 
L 208.86082 263.942589 
L 209.954353 263.954283 
L 211.047885 263.965978 
L 212.141417 263.977673 
L 213.234949 263.989368 
L 214.328481 264.001062 
L 215.422014 264.012757 
L 216.515546 264.024452 
L 217.609078 264.036147 
L 218.70261 264.047841 
L 219.796142 264.059536 
L 220.889675 264.071231 
L 221.983207 264.082925 
L 223.076739 264.09462 
L 224.170271 264.106315 
L 225.263804 264.11801 
L 226.357336 264.129704 
L 227.450868 264.141399 
L 228.5444 264.153094 
L 229.637932 264.164788 
L 230.731465 264.176483 
L 231.824997 264.188178 
L 232.918529 264.199873 
L 234.012061 264.211567 
L 235.105593 264.223262 
L 236.199126 264.234957 
L 237.292658 264.246652 
L 238.38619 264.258346 
L 239.479722 264.270041 
L 240.573254 264.281736 
L 241.666787 264.29343 
L 242.760319 264.305125 
L 243.853851 264.31682 
L 244.947383 264.328515 
L 246.040915 264.340209 
L 247.134448 264.351904 
L 248.22798 264.363599 
L 249.321512 264.375294 
L 250.415044 264.386988 
L 251.508576 264.398683 
L 252.602109 264.410378 
L 253.695641 264.422072 
L 254.789173 264.433767 
L 255.882705 264.445462 
L 256.976237 264.457157 
L 258.06977 264.468851 
L 259.163302 264.480546 
L 260.256834 264.492241 
L 261.350366 264.503935 
L 262.443898 264.51563 
L 263.537431 264.527325 
L 264.630963 264.53902 
L 265.724495 264.550714 
L 266.818027 264.562409 
L 267.911559 264.574104 
L 269.005092 264.585799 
L 270.098624 264.597493 
L 271.192156 264.609188 
L 272.285688 264.620883 
L 273.37922 264.632577 
L 274.472753 264.644272 
L 275.566285 264.655967 
L 276.659817 264.667662 
L 277.753349 264.679356 
L 278.846881 264.691051 
L 279.940414 264.702746 
L 281.033946 264.714441 
L 282.127478 264.726135 
L 283.22101 264.73783 
L 284.314542 264.749525 
L 285.408075 264.761219 
L 286.501607 264.772914 
L 287.595139 264.784609 
L 288.688671 264.796304 
L 289.782204 264.807998 
L 290.875736 264.819693 
L 291.969268 264.831388 
L 293.0628 264.843083 
L 294.156332 264.854777 
L 295.249865 264.866472 
L 296.343397 264.878167 
L 297.436929 264.889861 
L 298.530461 264.901556 
L 299.623993 264.913251 
L 300.717526 264.924946 
L 301.811058 264.93664 
L 302.90459 264.948335 
L 303.998122 264.96003 
L 305.091654 264.971724 
L 306.185187 264.983419 
" style="fill:none;stroke:#50b131;stroke-linecap:round;stroke-width:2.25;"/>
   </g>
   <g id="line2d_6">
    <path clip-path="url(#p6bd42545b5)" d="M 167.995299 268.313224 
L 168.804524 268.364093 
L 169.61375 268.414962 
L 170.422975 268.465832 
L 171.2322 268.516701 
L 172.041425 268.567571 
L 172.85065 268.61844 
L 173.659876 268.669309 
L 174.469101 268.720179 
L 175.278326 268.771048 
L 176.087551 268.821918 
L 176.896776 268.872787 
L 177.706002 268.923656 
L 178.515227 268.974526 
L 179.324452 269.025395 
L 180.133677 269.076264 
L 180.942902 269.127134 
L 181.752127 269.178003 
L 182.561353 269.228873 
L 183.370578 269.279742 
L 184.179803 269.330611 
L 184.989028 269.381481 
L 185.798253 269.43235 
L 186.607479 269.483219 
L 187.416704 269.534089 
L 188.225929 269.584958 
L 189.035154 269.635828 
L 189.844379 269.686697 
L 190.653605 269.737566 
L 191.46283 269.788436 
L 192.272055 269.839305 
L 193.08128 269.890175 
L 193.890505 269.941044 
L 194.69973 269.991913 
L 195.508956 270.042783 
L 196.318181 270.093652 
L 197.127406 270.144521 
L 197.936631 270.195391 
L 198.745856 270.24626 
L 199.555082 270.29713 
L 200.364307 270.347999 
L 201.173532 270.398868 
L 201.982757 270.449738 
L 202.791982 270.500607 
L 203.601208 270.551476 
L 204.410433 270.602346 
L 205.219658 270.653215 
L 206.028883 270.704085 
L 206.838108 270.754954 
L 207.647333 270.805823 
L 208.456559 270.856693 
L 209.265784 270.907562 
L 210.075009 270.958431 
L 210.884234 271.009301 
L 211.693459 271.06017 
L 212.502685 271.11104 
L 213.31191 271.161909 
L 214.121135 271.212778 
L 214.93036 271.263648 
L 215.739585 271.314517 
L 216.54881 271.365387 
L 217.358036 271.416256 
L 218.167261 271.467125 
L 218.976486 271.517995 
L 219.785711 271.568864 
L 220.594936 271.619733 
L 221.404162 271.670603 
L 222.213387 271.721472 
L 223.022612 271.772342 
L 223.831837 271.823211 
L 224.641062 271.87408 
L 225.450288 271.92495 
L 226.259513 271.975819 
L 227.068738 272.026688 
L 227.877963 272.077558 
L 228.687188 272.128427 
L 229.496413 272.179297 
L 230.305639 272.230166 
L 231.114864 272.281035 
L 231.924089 272.331905 
L 232.733314 272.382774 
L 233.542539 272.433644 
L 234.351765 272.484513 
L 235.16099 272.535382 
L 235.970215 272.586252 
L 236.77944 272.637121 
L 237.588665 272.68799 
L 238.397891 272.73886 
L 239.207116 272.789729 
L 240.016341 272.840599 
L 240.825566 272.891468 
L 241.634791 272.942337 
L 242.444016 272.993207 
L 243.253242 273.044076 
L 244.062467 273.094945 
L 244.871692 273.145815 
L 245.680917 273.196684 
L 246.490142 273.247554 
L 247.299368 273.298423 
L 248.108593 273.349292 
" style="fill:none;stroke:#34af84;stroke-linecap:round;stroke-width:2.25;"/>
   </g>
   <g id="line2d_7">
    <path clip-path="url(#p6bd42545b5)" d="M 198.165066 224.45102 
L 199.267767 223.042499 
L 200.370467 221.633979 
L 201.473168 220.225458 
L 202.575868 218.816937 
L 203.678568 217.408417 
L 204.781269 215.999896 
L 205.883969 214.591376 
L 206.98667 213.182855 
L 208.08937 211.774335 
L 209.19207 210.365814 
L 210.294771 208.957294 
L 211.397471 207.548773 
L 212.500172 206.140253 
L 213.602872 204.731732 
L 214.705572 203.323211 
L 215.808273 201.914691 
L 216.910973 200.50617 
L 218.013674 199.09765 
L 219.116374 197.689129 
L 220.219074 196.280609 
L 221.321775 194.872088 
L 222.424475 193.463568 
L 223.527176 192.055047 
L 224.629876 190.646527 
L 225.732576 189.238006 
L 226.835277 187.829485 
L 227.937977 186.420965 
L 229.040678 185.012444 
L 230.143378 183.603924 
L 231.246078 182.195403 
L 232.348779 180.786883 
L 233.451479 179.378362 
L 234.55418 177.969842 
L 235.65688 176.561321 
L 236.75958 175.152801 
L 237.862281 173.74428 
L 238.964981 172.335759 
L 240.067681 170.927239 
L 241.170382 169.518718 
L 242.273082 168.110198 
L 243.375783 166.701677 
L 244.478483 165.293157 
L 245.581183 163.884636 
L 246.683884 162.476116 
L 247.786584 161.067595 
L 248.889285 159.659074 
L 249.991985 158.250554 
L 251.094685 156.842033 
L 252.197386 155.433513 
L 253.300086 154.024992 
L 254.402787 152.616472 
L 255.505487 151.207951 
L 256.608187 149.799431 
L 257.710888 148.39091 
L 258.813588 146.98239 
L 259.916289 145.573869 
L 261.018989 144.165348 
L 262.121689 142.756828 
L 263.22439 141.348307 
L 264.32709 139.939787 
L 265.429791 138.531266 
L 266.532491 137.122746 
L 267.635191 135.714225 
L 268.737892 134.305705 
L 269.840592 132.897184 
L 270.943293 131.488664 
L 272.045993 130.080143 
L 273.148693 128.671622 
L 274.251394 127.263102 
L 275.354094 125.854581 
L 276.456795 124.446061 
L 277.559495 123.03754 
L 278.662195 121.62902 
L 279.764896 120.220499 
L 280.867596 118.811979 
L 281.970297 117.403458 
L 283.072997 115.994938 
L 284.175697 114.586417 
L 285.278398 113.177896 
L 286.381098 111.769376 
L 287.483798 110.360855 
L 288.586499 108.952335 
L 289.689199 107.543814 
L 290.7919 106.135294 
L 291.8946 104.726773 
L 292.9973 103.318253 
L 294.100001 101.909732 
L 295.202701 100.501211 
L 296.305402 99.092691 
L 297.408102 97.68417 
L 298.510802 96.27565 
L 299.613503 94.867129 
L 300.716203 93.458609 
L 301.818904 92.050088 
L 302.921604 90.641568 
L 304.024304 89.233047 
L 305.127005 87.824527 
L 306.229705 86.416006 
L 307.332406 85.007485 
" style="fill:none;stroke:#36ada4;stroke-linecap:round;stroke-width:2.25;"/>
   </g>
   <g id="line2d_8">
    <path clip-path="url(#p6bd42545b5)" d="M 80.610906 199.472549 
L 82.138013 199.394018 
L 83.665119 199.315486 
L 85.192226 199.236954 
L 86.719332 199.158423 
L 88.246439 199.079891 
L 89.773545 199.001359 
L 91.300652 198.922828 
L 92.827759 198.844296 
L 94.354865 198.765765 
L 95.881972 198.687233 
L 97.409078 198.608701 
L 98.936185 198.53017 
L 100.463291 198.451638 
L 101.990398 198.373106 
L 103.517504 198.294575 
L 105.044611 198.216043 
L 106.571718 198.137512 
L 108.098824 198.05898 
L 109.625931 197.980448 
L 111.153037 197.901917 
L 112.680144 197.823385 
L 114.20725 197.744854 
L 115.734357 197.666322 
L 117.261463 197.58779 
L 118.78857 197.509259 
L 120.315677 197.430727 
L 121.842783 197.352195 
L 123.36989 197.273664 
L 124.896996 197.195132 
L 126.424103 197.116601 
L 127.951209 197.038069 
L 129.478316 196.959537 
L 131.005422 196.881006 
L 132.532529 196.802474 
L 134.059636 196.723942 
L 135.586742 196.645411 
L 137.113849 196.566879 
L 138.640955 196.488348 
L 140.168062 196.409816 
L 141.695168 196.331284 
L 143.222275 196.252753 
L 144.749381 196.174221 
L 146.276488 196.09569 
L 147.803595 196.017158 
L 149.330701 195.938626 
L 150.857808 195.860095 
L 152.384914 195.781563 
L 153.912021 195.703031 
L 155.439127 195.6245 
L 156.966234 195.545968 
L 158.49334 195.467437 
L 160.020447 195.388905 
L 161.547553 195.310373 
L 163.07466 195.231842 
L 164.601767 195.15331 
L 166.128873 195.074778 
L 167.65598 194.996247 
L 169.183086 194.917715 
L 170.710193 194.839184 
L 172.237299 194.760652 
L 173.764406 194.68212 
L 175.291512 194.603589 
L 176.818619 194.525057 
L 178.345726 194.446526 
L 179.872832 194.367994 
L 181.399939 194.289462 
L 182.927045 194.210931 
L 184.454152 194.132399 
L 185.981258 194.053867 
L 187.508365 193.975336 
L 189.035471 193.896804 
L 190.562578 193.818273 
L 192.089685 193.739741 
L 193.616791 193.661209 
L 195.143898 193.582678 
L 196.671004 193.504146 
L 198.198111 193.425614 
L 199.725217 193.347083 
L 201.252324 193.268551 
L 202.77943 193.19002 
L 204.306537 193.111488 
L 205.833644 193.032956 
L 207.36075 192.954425 
L 208.887857 192.875893 
L 210.414963 192.797361 
L 211.94207 192.71883 
L 213.469176 192.640298 
L 214.996283 192.561767 
L 216.523389 192.483235 
L 218.050496 192.404703 
L 219.577603 192.326172 
L 221.104709 192.24764 
L 222.631816 192.169109 
L 224.158922 192.090577 
L 225.686029 192.012045 
L 227.213135 191.933514 
L 228.740242 191.854982 
L 230.267348 191.77645 
L 231.794455 191.697919 
" style="fill:none;stroke:#38aabf;stroke-linecap:round;stroke-width:2.25;"/>
   </g>
   <g id="line2d_9">
    <path clip-path="url(#p6bd42545b5)" d="M 155.909088 266.919126 
L 156.8547 266.53508 
L 157.800312 266.151034 
L 158.745924 265.766988 
L 159.691536 265.382942 
L 160.637148 264.998896 
L 161.58276 264.61485 
L 162.528371 264.230804 
L 163.473983 263.846758 
L 164.419595 263.462712 
L 165.365207 263.078666 
L 166.310819 262.69462 
L 167.256431 262.310573 
L 168.202042 261.926527 
L 169.147654 261.542481 
L 170.093266 261.158435 
L 171.038878 260.774389 
L 171.98449 260.390343 
L 172.930102 260.006297 
L 173.875714 259.622251 
L 174.821325 259.238205 
L 175.766937 258.854159 
L 176.712549 258.470113 
L 177.658161 258.086067 
L 178.603773 257.70202 
L 179.549385 257.317974 
L 180.494996 256.933928 
L 181.440608 256.549882 
L 182.38622 256.165836 
L 183.331832 255.78179 
L 184.277444 255.397744 
L 185.223056 255.013698 
L 186.168668 254.629652 
L 187.114279 254.245606 
L 188.059891 253.86156 
L 189.005503 253.477514 
L 189.951115 253.093467 
L 190.896727 252.709421 
L 191.842339 252.325375 
L 192.78795 251.941329 
L 193.733562 251.557283 
L 194.679174 251.173237 
L 195.624786 250.789191 
L 196.570398 250.405145 
L 197.51601 250.021099 
L 198.461622 249.637053 
L 199.407233 249.253007 
L 200.352845 248.868961 
L 201.298457 248.484914 
L 202.244069 248.100868 
L 203.189681 247.716822 
L 204.135293 247.332776 
L 205.080904 246.94873 
L 206.026516 246.564684 
L 206.972128 246.180638 
L 207.91774 245.796592 
L 208.863352 245.412546 
L 209.808964 245.0285 
L 210.754576 244.644454 
L 211.700187 244.260408 
L 212.645799 243.876361 
L 213.591411 243.492315 
L 214.537023 243.108269 
L 215.482635 242.724223 
L 216.428247 242.340177 
L 217.373858 241.956131 
L 218.31947 241.572085 
L 219.265082 241.188039 
L 220.210694 240.803993 
L 221.156306 240.419947 
L 222.101918 240.035901 
L 223.04753 239.651855 
L 223.993141 239.267808 
L 224.938753 238.883762 
L 225.884365 238.499716 
L 226.829977 238.11567 
L 227.775589 237.731624 
L 228.721201 237.347578 
L 229.666812 236.963532 
L 230.612424 236.579486 
L 231.558036 236.19544 
L 232.503648 235.811394 
L 233.44926 235.427348 
L 234.394872 235.043302 
L 235.340484 234.659255 
L 236.286095 234.275209 
L 237.231707 233.891163 
L 238.177319 233.507117 
L 239.122931 233.123071 
L 240.068543 232.739025 
L 241.014155 232.354979 
L 241.959766 231.970933 
L 242.905378 231.586887 
L 243.85099 231.202841 
L 244.796602 230.818795 
L 245.742214 230.434749 
L 246.687826 230.050702 
L 247.633438 229.666656 
L 248.579049 229.28261 
L 249.524661 228.898564 
" style="fill:none;stroke:#3ba3ec;stroke-linecap:round;stroke-width:2.25;"/>
   </g>
   <g id="line2d_10">
    <path clip-path="url(#p6bd42545b5)" d="M 126.936669 288.671608 
L 128.817781 288.279549 
L 130.698892 287.887491 
L 132.580004 287.495432 
L 134.461115 287.103373 
L 136.342227 286.711315 
L 138.223338 286.319256 
L 140.10445 285.927198 
L 141.985561 285.535139 
L 143.866673 285.14308 
L 145.747784 284.751022 
L 147.628896 284.358963 
L 149.510007 283.966904 
L 151.391119 283.574846 
L 153.27223 283.182787 
L 155.153342 282.790728 
L 157.034453 282.39867 
L 158.915565 282.006611 
L 160.796676 281.614552 
L 162.677788 281.222494 
L 164.5589 280.830435 
L 166.440011 280.438377 
L 168.321123 280.046318 
L 170.202234 279.654259 
L 172.083346 279.262201 
L 173.964457 278.870142 
L 175.845569 278.478083 
L 177.72668 278.086025 
L 179.607792 277.693966 
L 181.488903 277.301907 
L 183.370015 276.909849 
L 185.251126 276.51779 
L 187.132238 276.125731 
L 189.013349 275.733673 
L 190.894461 275.341614 
L 192.775572 274.949555 
L 194.656684 274.557497 
L 196.537795 274.165438 
L 198.418907 273.77338 
L 200.300018 273.381321 
L 202.18113 272.989262 
L 204.062241 272.597204 
L 205.943353 272.205145 
L 207.824464 271.813086 
L 209.705576 271.421028 
L 211.586687 271.028969 
L 213.467799 270.63691 
L 215.348911 270.244852 
L 217.230022 269.852793 
L 219.111134 269.460734 
L 220.992245 269.068676 
L 222.873357 268.676617 
L 224.754468 268.284558 
L 226.63558 267.8925 
L 228.516691 267.500441 
L 230.397803 267.108383 
L 232.278914 266.716324 
L 234.160026 266.324265 
L 236.041137 265.932207 
L 237.922249 265.540148 
L 239.80336 265.148089 
L 241.684472 264.756031 
L 243.565583 264.363972 
L 245.446695 263.971913 
L 247.327806 263.579855 
L 249.208918 263.187796 
L 251.090029 262.795737 
L 252.971141 262.403679 
L 254.852252 262.01162 
L 256.733364 261.619562 
L 258.614475 261.227503 
L 260.495587 260.835444 
L 262.376698 260.443386 
L 264.25781 260.051327 
L 266.138921 259.659268 
L 268.020033 259.26721 
L 269.901145 258.875151 
L 271.782256 258.483092 
L 273.663368 258.091034 
L 275.544479 257.698975 
L 277.425591 257.306916 
L 279.306702 256.914858 
L 281.187814 256.522799 
L 283.068925 256.13074 
L 284.950037 255.738682 
L 286.831148 255.346623 
L 288.71226 254.954565 
L 290.593371 254.562506 
L 292.474483 254.170447 
L 294.355594 253.778389 
L 296.236706 253.38633 
L 298.117817 252.994271 
L 299.998929 252.602213 
L 301.88004 252.210154 
L 303.761152 251.818095 
L 305.642263 251.426037 
L 307.523375 251.033978 
L 309.404486 250.641919 
L 311.285598 250.249861 
L 313.166709 249.857802 
" style="fill:none;stroke:#a48cf4;stroke-linecap:round;stroke-width:2.25;"/>
   </g>
   <g id="line2d_11">
    <path clip-path="url(#p6bd42545b5)" d="M 154.910968 281.760146 
L 155.649016 281.738513 
L 156.387064 281.716881 
L 157.125113 281.695249 
L 157.863161 281.673616 
L 158.601209 281.651984 
L 159.339258 281.630352 
L 160.077306 281.60872 
L 160.815354 281.587087 
L 161.553403 281.565455 
L 162.291451 281.543823 
L 163.029499 281.52219 
L 163.767548 281.500558 
L 164.505596 281.478926 
L 165.243644 281.457293 
L 165.981692 281.435661 
L 166.719741 281.414029 
L 167.457789 281.392396 
L 168.195837 281.370764 
L 168.933886 281.349132 
L 169.671934 281.327499 
L 170.409982 281.305867 
L 171.148031 281.284235 
L 171.886079 281.262603 
L 172.624127 281.24097 
L 173.362176 281.219338 
L 174.100224 281.197706 
L 174.838272 281.176073 
L 175.576321 281.154441 
L 176.314369 281.132809 
L 177.052417 281.111176 
L 177.790465 281.089544 
L 178.528514 281.067912 
L 179.266562 281.046279 
L 180.00461 281.024647 
L 180.742659 281.003015 
L 181.480707 280.981382 
L 182.218755 280.95975 
L 182.956804 280.938118 
L 183.694852 280.916486 
L 184.4329 280.894853 
L 185.170949 280.873221 
L 185.908997 280.851589 
L 186.647045 280.829956 
L 187.385094 280.808324 
L 188.123142 280.786692 
L 188.86119 280.765059 
L 189.599238 280.743427 
L 190.337287 280.721795 
L 191.075335 280.700162 
L 191.813383 280.67853 
L 192.551432 280.656898 
L 193.28948 280.635265 
L 194.027528 280.613633 
L 194.765577 280.592001 
L 195.503625 280.570369 
L 196.241673 280.548736 
L 196.979722 280.527104 
L 197.71777 280.505472 
L 198.455818 280.483839 
L 199.193867 280.462207 
L 199.931915 280.440575 
L 200.669963 280.418942 
L 201.408011 280.39731 
L 202.14606 280.375678 
L 202.884108 280.354045 
L 203.622156 280.332413 
L 204.360205 280.310781 
L 205.098253 280.289148 
L 205.836301 280.267516 
L 206.57435 280.245884 
L 207.312398 280.224252 
L 208.050446 280.202619 
L 208.788495 280.180987 
L 209.526543 280.159355 
L 210.264591 280.137722 
L 211.002639 280.11609 
L 211.740688 280.094458 
L 212.478736 280.072825 
L 213.216784 280.051193 
L 213.954833 280.029561 
L 214.692881 280.007928 
L 215.430929 279.986296 
L 216.168978 279.964664 
L 216.907026 279.943031 
L 217.645074 279.921399 
L 218.383123 279.899767 
L 219.121171 279.878135 
L 219.859219 279.856502 
L 220.597268 279.83487 
L 221.335316 279.813238 
L 222.073364 279.791605 
L 222.811412 279.769973 
L 223.549461 279.748341 
L 224.287509 279.726708 
L 225.025557 279.705076 
L 225.763606 279.683444 
L 226.501654 279.661811 
L 227.239702 279.640179 
L 227.977751 279.618547 
" style="fill:none;stroke:#e866f4;stroke-linecap:round;stroke-width:2.25;"/>
   </g>
   <g id="line2d_12">
    <path clip-path="url(#p6bd42545b5)" d="M 148.086316 284.763425 
L 148.295036 284.750716 
L 148.503757 284.738008 
L 148.712477 284.725299 
L 148.921198 284.712591 
L 149.129919 284.699882 
L 149.338639 284.687174 
L 149.54736 284.674465 
L 149.75608 284.661756 
L 149.964801 284.649048 
L 150.173522 284.636339 
L 150.382242 284.623631 
L 150.590963 284.610922 
L 150.799683 284.598214 
L 151.008404 284.585505 
L 151.217125 284.572797 
L 151.425845 284.560088 
L 151.634566 284.54738 
L 151.843286 284.534671 
L 152.052007 284.521962 
L 152.260728 284.509254 
L 152.469448 284.496545 
L 152.678169 284.483837 
L 152.886889 284.471128 
L 153.09561 284.45842 
L 153.304331 284.445711 
L 153.513051 284.433003 
L 153.721772 284.420294 
L 153.930492 284.407586 
L 154.139213 284.394877 
L 154.347934 284.382169 
L 154.556654 284.36946 
L 154.765375 284.356751 
L 154.974095 284.344043 
L 155.182816 284.331334 
L 155.391537 284.318626 
L 155.600257 284.305917 
L 155.808978 284.293209 
L 156.017698 284.2805 
L 156.226419 284.267792 
L 156.43514 284.255083 
L 156.64386 284.242375 
L 156.852581 284.229666 
L 157.061301 284.216957 
L 157.270022 284.204249 
L 157.478742 284.19154 
L 157.687463 284.178832 
L 157.896184 284.166123 
L 158.104904 284.153415 
L 158.313625 284.140706 
L 158.522345 284.127998 
L 158.731066 284.115289 
L 158.939787 284.102581 
L 159.148507 284.089872 
L 159.357228 284.077163 
L 159.565948 284.064455 
L 159.774669 284.051746 
L 159.98339 284.039038 
L 160.19211 284.026329 
L 160.400831 284.013621 
L 160.609551 284.000912 
L 160.818272 283.988204 
L 161.026993 283.975495 
L 161.235713 283.962787 
L 161.444434 283.950078 
L 161.653154 283.937369 
L 161.861875 283.924661 
L 162.070596 283.911952 
L 162.279316 283.899244 
L 162.488037 283.886535 
L 162.696757 283.873827 
L 162.905478 283.861118 
L 163.114199 283.84841 
L 163.322919 283.835701 
L 163.53164 283.822993 
L 163.74036 283.810284 
L 163.949081 283.797575 
L 164.157802 283.784867 
L 164.366522 283.772158 
L 164.575243 283.75945 
L 164.783963 283.746741 
L 164.992684 283.734033 
L 165.201405 283.721324 
L 165.410125 283.708616 
L 165.618846 283.695907 
L 165.827566 283.683199 
L 166.036287 283.67049 
L 166.245008 283.657781 
L 166.453728 283.645073 
L 166.662449 283.632364 
L 166.871169 283.619656 
L 167.07989 283.606947 
L 167.288611 283.594239 
L 167.497331 283.58153 
L 167.706052 283.568822 
L 167.914772 283.556113 
L 168.123493 283.543405 
L 168.332214 283.530696 
L 168.540934 283.517987 
L 168.749655 283.505279 
" style="fill:none;stroke:#f668c2;stroke-linecap:round;stroke-width:2.25;"/>
   </g>
   <g id="patch_3">
    <path d="M 61.367925 320.2 
L 61.367925 14.3 
" style="fill:none;stroke:#262626;stroke-linecap:square;stroke-linejoin:miter;stroke-width:0.8;"/>
   </g>
   <g id="patch_4">
    <path d="M 61.367925 320.2 
L 355.61875 320.2 
" style="fill:none;stroke:#262626;stroke-linecap:square;stroke-linejoin:miter;stroke-width:0.8;"/>
   </g>
   <g id="text_13">
    <!-- r=0.344, p=0.0054 -->
    <defs>
     <path d="M 52.828125 42.09375 
L 5.5625 42.09375 
L 5.5625 50.296875 
L 52.828125 50.296875 
z
M 52.828125 20.359375 
L 5.5625 20.359375 
L 5.5625 28.5625 
L 52.828125 28.5625 
z
" id="ArialMT-61"/>
     <path d="M 8.890625 0 
L 8.890625 10.015625 
L 18.890625 10.015625 
L 18.890625 0 
Q 18.890625 -5.515625 16.9375 -8.90625 
Q 14.984375 -12.3125 10.75 -14.15625 
L 8.296875 -10.40625 
Q 11.078125 -9.1875 12.390625 -6.8125 
Q 13.71875 -4.4375 13.875 0 
z
" id="ArialMT-44"/>
    </defs>
    <g style="fill:#262626;" transform="translate(136.881744 101.176141)scale(0.15 -0.15)">
     <use xlink:href="#ArialMT-114"/>
     <use x="33.300781" xlink:href="#ArialMT-61"/>
     <use x="91.699219" xlink:href="#ArialMT-48"/>
     <use x="147.314453" xlink:href="#ArialMT-46"/>
     <use x="175.097656" xlink:href="#ArialMT-51"/>
     <use x="230.712891" xlink:href="#ArialMT-52"/>
     <use x="286.328125" xlink:href="#ArialMT-52"/>
     <use x="341.943359" xlink:href="#ArialMT-44"/>
     <use x="369.726562" xlink:href="#ArialMT-32"/>
     <use x="397.509766" xlink:href="#ArialMT-112"/>
     <use x="453.125" xlink:href="#ArialMT-61"/>
     <use x="511.523438" xlink:href="#ArialMT-48"/>
     <use x="567.138672" xlink:href="#ArialMT-46"/>
     <use x="594.921875" xlink:href="#ArialMT-48"/>
     <use x="650.537109" xlink:href="#ArialMT-48"/>
     <use x="706.152344" xlink:href="#ArialMT-53"/>
     <use x="761.767578" xlink:href="#ArialMT-52"/>
    </g>
   </g>
  </g>
  <g id="legend_1">
   <g id="text_14">
    <!-- host_subject_id -->
    <defs>
     <path d="M -1.515625 -19.875 
L -1.515625 -13.53125 
L 56.734375 -13.53125 
L 56.734375 -19.875 
z
" id="ArialMT-95"/>
     <path d="M 14.703125 0 
L 6.546875 0 
L 6.546875 71.578125 
L 15.328125 71.578125 
L 15.328125 46.046875 
Q 20.90625 53.03125 29.546875 53.03125 
Q 34.328125 53.03125 38.59375 51.09375 
Q 42.875 49.171875 45.625 45.671875 
Q 48.390625 42.1875 49.953125 37.25 
Q 51.515625 32.328125 51.515625 26.703125 
Q 51.515625 13.375 44.921875 6.09375 
Q 38.328125 -1.171875 29.109375 -1.171875 
Q 19.921875 -1.171875 14.703125 6.5 
z
M 14.59375 26.3125 
Q 14.59375 17 17.140625 12.84375 
Q 21.296875 6.0625 28.375 6.0625 
Q 34.125 6.0625 38.328125 11.0625 
Q 42.53125 16.0625 42.53125 25.984375 
Q 42.53125 36.140625 38.5 40.96875 
Q 34.46875 45.796875 28.765625 45.796875 
Q 23 45.796875 18.796875 40.796875 
Q 14.59375 35.796875 14.59375 26.3125 
z
" id="ArialMT-98"/>
     <path d="M 6.546875 61.375 
L 6.546875 71.578125 
L 15.328125 71.578125 
L 15.328125 61.375 
z
M -4.59375 -20.125 
L -2.9375 -12.640625 
Q -0.296875 -13.328125 1.21875 -13.328125 
Q 3.90625 -13.328125 5.21875 -11.546875 
Q 6.546875 -9.765625 6.546875 -2.640625 
L 6.546875 51.859375 
L 15.328125 51.859375 
L 15.328125 -2.828125 
Q 15.328125 -12.40625 12.84375 -16.15625 
Q 9.671875 -21.046875 2.296875 -21.046875 
Q -1.265625 -21.046875 -4.59375 -20.125 
z
" id="ArialMT-106"/>
    </defs>
    <g style="fill:#262626;" transform="translate(359.6375 97.654688)scale(0.1 -0.1)">
     <use xlink:href="#ArialMT-104"/>
     <use x="55.615234" xlink:href="#ArialMT-111"/>
     <use x="111.230469" xlink:href="#ArialMT-115"/>
     <use x="161.230469" xlink:href="#ArialMT-116"/>
     <use x="189.013672" xlink:href="#ArialMT-95"/>
     <use x="244.628906" xlink:href="#ArialMT-115"/>
     <use x="294.628906" xlink:href="#ArialMT-117"/>
     <use x="350.244141" xlink:href="#ArialMT-98"/>
     <use x="405.859375" xlink:href="#ArialMT-106"/>
     <use x="428.076172" xlink:href="#ArialMT-101"/>
     <use x="483.691406" xlink:href="#ArialMT-99"/>
     <use x="533.691406" xlink:href="#ArialMT-116"/>
     <use x="561.474609" xlink:href="#ArialMT-95"/>
     <use x="617.089844" xlink:href="#ArialMT-105"/>
     <use x="639.306641" xlink:href="#ArialMT-100"/>
    </g>
   </g>
   <g id="PathCollection_13">
    <g>
     <use style="fill:#f77189;fill-opacity:0.8;stroke:#f77189;stroke-opacity:0.8;" x="374.264062" xlink:href="#m3e4da041ab" y="109.292188"/>
    </g>
   </g>
   <g id="text_15">
    <!-- DM001 -->
    <defs>
     <path d="M 7.421875 0 
L 7.421875 71.578125 
L 21.6875 71.578125 
L 38.625 20.90625 
Q 40.96875 13.8125 42.046875 10.296875 
Q 43.265625 14.203125 45.84375 21.78125 
L 62.984375 71.578125 
L 75.734375 71.578125 
L 75.734375 0 
L 66.609375 0 
L 66.609375 59.90625 
L 45.796875 0 
L 37.25 0 
L 16.546875 60.9375 
L 16.546875 0 
z
" id="ArialMT-77"/>
     <path d="M 37.25 0 
L 28.46875 0 
L 28.46875 56 
Q 25.296875 52.984375 20.140625 49.953125 
Q 14.984375 46.921875 10.890625 45.40625 
L 10.890625 53.90625 
Q 18.265625 57.375 23.78125 62.296875 
Q 29.296875 67.234375 31.59375 71.875 
L 37.25 71.875 
z
" id="ArialMT-49"/>
    </defs>
    <g style="fill:#262626;" transform="translate(392.264062 111.917188)scale(0.1 -0.1)">
     <use xlink:href="#ArialMT-68"/>
     <use x="72.216797" xlink:href="#ArialMT-77"/>
     <use x="155.517578" xlink:href="#ArialMT-48"/>
     <use x="211.132812" xlink:href="#ArialMT-48"/>
     <use x="266.748047" xlink:href="#ArialMT-49"/>
    </g>
   </g>
   <g id="PathCollection_14">
    <g>
     <use style="fill:#e68332;fill-opacity:0.8;stroke:#e68332;stroke-opacity:0.8;" x="374.264062" xlink:href="#mb6c2695795" y="123.4375"/>
    </g>
   </g>
   <g id="text_16">
    <!-- DM002 -->
    <g style="fill:#262626;" transform="translate(392.264062 126.0625)scale(0.1 -0.1)">
     <use xlink:href="#ArialMT-68"/>
     <use x="72.216797" xlink:href="#ArialMT-77"/>
     <use x="155.517578" xlink:href="#ArialMT-48"/>
     <use x="211.132812" xlink:href="#ArialMT-48"/>
     <use x="266.748047" xlink:href="#ArialMT-50"/>
    </g>
   </g>
   <g id="PathCollection_15">
    <g>
     <use style="fill:#bb9832;fill-opacity:0.8;stroke:#bb9832;stroke-opacity:0.8;" x="374.264062" xlink:href="#me822badec5" y="137.582813"/>
    </g>
   </g>
   <g id="text_17">
    <!-- DM003 -->
    <g style="fill:#262626;" transform="translate(392.264062 140.207813)scale(0.1 -0.1)">
     <use xlink:href="#ArialMT-68"/>
     <use x="72.216797" xlink:href="#ArialMT-77"/>
     <use x="155.517578" xlink:href="#ArialMT-48"/>
     <use x="211.132812" xlink:href="#ArialMT-48"/>
     <use x="266.748047" xlink:href="#ArialMT-51"/>
    </g>
   </g>
   <g id="PathCollection_16">
    <g>
     <use style="fill:#97a431;fill-opacity:0.8;stroke:#97a431;stroke-opacity:0.8;" x="374.264062" xlink:href="#m1672063cb3" y="151.728125"/>
    </g>
   </g>
   <g id="text_18">
    <!-- DM006 -->
    <g style="fill:#262626;" transform="translate(392.264062 154.353125)scale(0.1 -0.1)">
     <use xlink:href="#ArialMT-68"/>
     <use x="72.216797" xlink:href="#ArialMT-77"/>
     <use x="155.517578" xlink:href="#ArialMT-48"/>
     <use x="211.132812" xlink:href="#ArialMT-48"/>
     <use x="266.748047" xlink:href="#ArialMT-54"/>
    </g>
   </g>
   <g id="PathCollection_17">
    <g>
     <use style="fill:#50b131;fill-opacity:0.8;stroke:#50b131;stroke-opacity:0.8;" x="374.264062" xlink:href="#m4364e84a70" y="165.873438"/>
    </g>
   </g>
   <g id="text_19">
    <!-- DM008 -->
    <g style="fill:#262626;" transform="translate(392.264062 168.498438)scale(0.1 -0.1)">
     <use xlink:href="#ArialMT-68"/>
     <use x="72.216797" xlink:href="#ArialMT-77"/>
     <use x="155.517578" xlink:href="#ArialMT-48"/>
     <use x="211.132812" xlink:href="#ArialMT-48"/>
     <use x="266.748047" xlink:href="#ArialMT-56"/>
    </g>
   </g>
   <g id="PathCollection_18">
    <g>
     <use style="fill:#34af84;fill-opacity:0.8;stroke:#34af84;stroke-opacity:0.8;" x="374.264062" xlink:href="#m52376ef5ae" y="180.01875"/>
    </g>
   </g>
   <g id="text_20">
    <!-- DM009 -->
    <defs>
     <path d="M 5.46875 16.546875 
L 13.921875 17.328125 
Q 14.984375 11.375 18.015625 8.6875 
Q 21.046875 6 25.78125 6 
Q 29.828125 6 32.875 7.859375 
Q 35.9375 9.71875 37.890625 12.8125 
Q 39.84375 15.921875 41.15625 21.1875 
Q 42.484375 26.46875 42.484375 31.9375 
Q 42.484375 32.515625 42.4375 33.6875 
Q 39.796875 29.5 35.234375 26.875 
Q 30.671875 24.265625 25.34375 24.265625 
Q 16.453125 24.265625 10.296875 30.703125 
Q 4.15625 37.15625 4.15625 47.703125 
Q 4.15625 58.59375 10.578125 65.234375 
Q 17 71.875 26.65625 71.875 
Q 33.640625 71.875 39.421875 68.109375 
Q 45.21875 64.359375 48.21875 57.390625 
Q 51.21875 50.4375 51.21875 37.25 
Q 51.21875 23.53125 48.234375 15.40625 
Q 45.265625 7.28125 39.375 3.03125 
Q 33.5 -1.21875 25.59375 -1.21875 
Q 17.1875 -1.21875 11.859375 3.4375 
Q 6.546875 8.109375 5.46875 16.546875 
z
M 41.453125 48.140625 
Q 41.453125 55.71875 37.421875 60.15625 
Q 33.40625 64.59375 27.734375 64.59375 
Q 21.875 64.59375 17.53125 59.8125 
Q 13.1875 55.03125 13.1875 47.40625 
Q 13.1875 40.578125 17.3125 36.296875 
Q 21.4375 32.03125 27.484375 32.03125 
Q 33.59375 32.03125 37.515625 36.296875 
Q 41.453125 40.578125 41.453125 48.140625 
z
" id="ArialMT-57"/>
    </defs>
    <g style="fill:#262626;" transform="translate(392.264062 182.64375)scale(0.1 -0.1)">
     <use xlink:href="#ArialMT-68"/>
     <use x="72.216797" xlink:href="#ArialMT-77"/>
     <use x="155.517578" xlink:href="#ArialMT-48"/>
     <use x="211.132812" xlink:href="#ArialMT-48"/>
     <use x="266.748047" xlink:href="#ArialMT-57"/>
    </g>
   </g>
   <g id="PathCollection_19">
    <g>
     <use style="fill:#36ada4;fill-opacity:0.8;stroke:#36ada4;stroke-opacity:0.8;" x="374.264062" xlink:href="#m8205ded426" y="194.164063"/>
    </g>
   </g>
   <g id="text_21">
    <!-- DM011 -->
    <g style="fill:#262626;" transform="translate(392.264062 196.789063)scale(0.1 -0.1)">
     <use xlink:href="#ArialMT-68"/>
     <use x="72.216797" xlink:href="#ArialMT-77"/>
     <use x="155.517578" xlink:href="#ArialMT-48"/>
     <use x="211.132812" xlink:href="#ArialMT-49"/>
     <use x="266.638672" xlink:href="#ArialMT-49"/>
    </g>
   </g>
   <g id="PathCollection_20">
    <g>
     <use style="fill:#38aabf;fill-opacity:0.8;stroke:#38aabf;stroke-opacity:0.8;" x="374.264062" xlink:href="#m066d143c72" y="208.309375"/>
    </g>
   </g>
   <g id="text_22">
    <!-- DM013 -->
    <g style="fill:#262626;" transform="translate(392.264062 210.934375)scale(0.1 -0.1)">
     <use xlink:href="#ArialMT-68"/>
     <use x="72.216797" xlink:href="#ArialMT-77"/>
     <use x="155.517578" xlink:href="#ArialMT-48"/>
     <use x="211.132812" xlink:href="#ArialMT-49"/>
     <use x="266.748047" xlink:href="#ArialMT-51"/>
    </g>
   </g>
   <g id="PathCollection_21">
    <g>
     <use style="fill:#3ba3ec;fill-opacity:0.8;stroke:#3ba3ec;stroke-opacity:0.8;" x="374.264062" xlink:href="#m17ff71eb18" y="222.454688"/>
    </g>
   </g>
   <g id="text_23">
    <!-- DM014 -->
    <g style="fill:#262626;" transform="translate(392.264062 225.079688)scale(0.1 -0.1)">
     <use xlink:href="#ArialMT-68"/>
     <use x="72.216797" xlink:href="#ArialMT-77"/>
     <use x="155.517578" xlink:href="#ArialMT-48"/>
     <use x="211.132812" xlink:href="#ArialMT-49"/>
     <use x="266.748047" xlink:href="#ArialMT-52"/>
    </g>
   </g>
   <g id="PathCollection_22">
    <g>
     <use style="fill:#a48cf4;fill-opacity:0.8;stroke:#a48cf4;stroke-opacity:0.8;" x="374.264062" xlink:href="#m5bcad80607" y="236.6"/>
    </g>
   </g>
   <g id="text_24">
    <!-- DM015 -->
    <g style="fill:#262626;" transform="translate(392.264062 239.225)scale(0.1 -0.1)">
     <use xlink:href="#ArialMT-68"/>
     <use x="72.216797" xlink:href="#ArialMT-77"/>
     <use x="155.517578" xlink:href="#ArialMT-48"/>
     <use x="211.132812" xlink:href="#ArialMT-49"/>
     <use x="266.748047" xlink:href="#ArialMT-53"/>
    </g>
   </g>
   <g id="PathCollection_23">
    <g>
     <use style="fill:#e866f4;fill-opacity:0.8;stroke:#e866f4;stroke-opacity:0.8;" x="374.264062" xlink:href="#m868cc199db" y="250.745313"/>
    </g>
   </g>
   <g id="text_25">
    <!-- DM016 -->
    <g style="fill:#262626;" transform="translate(392.264062 253.370313)scale(0.1 -0.1)">
     <use xlink:href="#ArialMT-68"/>
     <use x="72.216797" xlink:href="#ArialMT-77"/>
     <use x="155.517578" xlink:href="#ArialMT-48"/>
     <use x="211.132812" xlink:href="#ArialMT-49"/>
     <use x="266.748047" xlink:href="#ArialMT-54"/>
    </g>
   </g>
   <g id="PathCollection_24">
    <g>
     <use style="fill:#f668c2;fill-opacity:0.8;stroke:#f668c2;stroke-opacity:0.8;" x="374.264062" xlink:href="#m2001e5527e" y="264.890625"/>
    </g>
   </g>
   <g id="text_26">
    <!-- DM017 -->
    <defs>
     <path d="M 4.734375 62.203125 
L 4.734375 70.65625 
L 51.078125 70.65625 
L 51.078125 63.8125 
Q 44.234375 56.546875 37.515625 44.484375 
Q 30.8125 32.421875 27.15625 19.671875 
Q 24.515625 10.6875 23.78125 0 
L 14.75 0 
Q 14.890625 8.453125 18.0625 20.40625 
Q 21.234375 32.375 27.171875 43.484375 
Q 33.109375 54.59375 39.796875 62.203125 
z
" id="ArialMT-55"/>
    </defs>
    <g style="fill:#262626;" transform="translate(392.264062 267.515625)scale(0.1 -0.1)">
     <use xlink:href="#ArialMT-68"/>
     <use x="72.216797" xlink:href="#ArialMT-77"/>
     <use x="155.517578" xlink:href="#ArialMT-48"/>
     <use x="211.132812" xlink:href="#ArialMT-49"/>
     <use x="266.748047" xlink:href="#ArialMT-55"/>
    </g>
   </g>
  </g>
 </g>
 <defs>
  <clipPath id="p6bd42545b5">
   <rect height="305.9" width="294.250825" x="61.367925" y="14.3"/>
  </clipPath>
 </defs>
</svg>
