<?xml version="1.0" encoding="utf-8" standalone="no"?>
<!DOCTYPE svg PUBLIC "-//W3C//DTD SVG 1.1//EN"
  "http://www.w3.org/Graphics/SVG/1.1/DTD/svg11.dtd">
<!-- Created with matplotlib (https://matplotlib.org/) -->
<svg height="360pt" version="1.1" viewBox="0 0 438.125 360" width="438.125pt" xmlns="http://www.w3.org/2000/svg" xmlns:xlink="http://www.w3.org/1999/xlink">
 <defs>
  <style type="text/css">
*{stroke-linecap:butt;stroke-linejoin:round;}
  </style>
 </defs>
 <g id="figure_1">
  <g id="patch_1">
   <path d="M 0 360 
L 438.125 360 
L 438.125 0 
L 0 0 
z
" style="fill:#ffffff;"/>
  </g>
  <g id="axes_1">
   <g id="patch_2">
    <path d="M 61.367925 320.2 
L 355.61875 320.2 
L 355.61875 14.3 
L 61.367925 14.3 
z
" style="fill:#ffffff;"/>
   </g>
   <g id="matplotlib.axis_1">
    <g id="xtick_1">
     <g id="text_1">
      <!-- 50 -->
      <defs>
       <path d="M 4.15625 18.75 
L 13.375 19.53125 
Q 14.40625 12.796875 18.140625 9.390625 
Q 21.875 6 27.15625 6 
Q 33.5 6 37.890625 10.78125 
Q 42.28125 15.578125 42.28125 23.484375 
Q 42.28125 31 38.0625 35.34375 
Q 33.84375 39.703125 27 39.703125 
Q 22.75 39.703125 19.328125 37.765625 
Q 15.921875 35.84375 13.96875 32.765625 
L 5.71875 33.84375 
L 12.640625 70.609375 
L 48.25 70.609375 
L 48.25 62.203125 
L 19.671875 62.203125 
L 15.828125 42.96875 
Q 22.265625 47.46875 29.34375 47.46875 
Q 38.71875 47.46875 45.15625 40.96875 
Q 51.609375 34.46875 51.609375 24.265625 
Q 51.609375 14.546875 45.953125 7.46875 
Q 39.0625 -1.21875 27.15625 -1.21875 
Q 17.390625 -1.21875 11.203125 4.25 
Q 5.03125 9.71875 4.15625 18.75 
z
" id="ArialMT-53"/>
       <path d="M 4.15625 35.296875 
Q 4.15625 48 6.765625 55.734375 
Q 9.375 63.484375 14.515625 67.671875 
Q 19.671875 71.875 27.484375 71.875 
Q 33.25 71.875 37.59375 69.546875 
Q 41.9375 67.234375 44.765625 62.859375 
Q 47.609375 58.5 49.21875 52.21875 
Q 50.828125 45.953125 50.828125 35.296875 
Q 50.828125 22.703125 48.234375 14.96875 
Q 45.65625 7.234375 40.5 3 
Q 35.359375 -1.21875 27.484375 -1.21875 
Q 17.140625 -1.21875 11.234375 6.203125 
Q 4.15625 15.140625 4.15625 35.296875 
z
M 13.1875 35.296875 
Q 13.1875 17.671875 17.3125 11.828125 
Q 21.4375 6 27.484375 6 
Q 33.546875 6 37.671875 11.859375 
Q 41.796875 17.71875 41.796875 35.296875 
Q 41.796875 52.984375 37.671875 58.78125 
Q 33.546875 64.59375 27.390625 64.59375 
Q 21.34375 64.59375 17.71875 59.46875 
Q 13.1875 52.9375 13.1875 35.296875 
z
" id="ArialMT-48"/>
      </defs>
      <g style="fill:#262626;" transform="translate(79.846809 335.789375)scale(0.12 -0.12)">
       <use xlink:href="#ArialMT-53"/>
       <use x="55.615234" xlink:href="#ArialMT-48"/>
      </g>
     </g>
    </g>
    <g id="xtick_2">
     <g id="text_2">
      <!-- 100 -->
      <defs>
       <path d="M 37.25 0 
L 28.46875 0 
L 28.46875 56 
Q 25.296875 52.984375 20.140625 49.953125 
Q 14.984375 46.921875 10.890625 45.40625 
L 10.890625 53.90625 
Q 18.265625 57.375 23.78125 62.296875 
Q 29.296875 67.234375 31.59375 71.875 
L 37.25 71.875 
z
" id="ArialMT-49"/>
      </defs>
      <g style="fill:#262626;" transform="translate(132.712393 335.789375)scale(0.12 -0.12)">
       <use xlink:href="#ArialMT-49"/>
       <use x="55.615234" xlink:href="#ArialMT-48"/>
       <use x="111.230469" xlink:href="#ArialMT-48"/>
      </g>
     </g>
    </g>
    <g id="xtick_3">
     <g id="text_3">
      <!-- 150 -->
      <g style="fill:#262626;" transform="translate(188.914541 335.789375)scale(0.12 -0.12)">
       <use xlink:href="#ArialMT-49"/>
       <use x="55.615234" xlink:href="#ArialMT-53"/>
       <use x="111.230469" xlink:href="#ArialMT-48"/>
      </g>
     </g>
    </g>
    <g id="xtick_4">
     <g id="text_4">
      <!-- 200 -->
      <defs>
       <path d="M 50.34375 8.453125 
L 50.34375 0 
L 3.03125 0 
Q 2.9375 3.171875 4.046875 6.109375 
Q 5.859375 10.9375 9.828125 15.625 
Q 13.8125 20.3125 21.34375 26.46875 
Q 33.015625 36.03125 37.109375 41.625 
Q 41.21875 47.21875 41.21875 52.203125 
Q 41.21875 57.421875 37.46875 61 
Q 33.734375 64.59375 27.734375 64.59375 
Q 21.390625 64.59375 17.578125 60.78125 
Q 13.765625 56.984375 13.71875 50.25 
L 4.6875 51.171875 
Q 5.609375 61.28125 11.65625 66.578125 
Q 17.71875 71.875 27.9375 71.875 
Q 38.234375 71.875 44.234375 66.15625 
Q 50.25 60.453125 50.25 52 
Q 50.25 47.703125 48.484375 43.546875 
Q 46.734375 39.40625 42.65625 34.8125 
Q 38.578125 30.21875 29.109375 22.21875 
Q 21.1875 15.578125 18.9375 13.203125 
Q 16.703125 10.84375 15.234375 8.453125 
z
" id="ArialMT-50"/>
      </defs>
      <g style="fill:#262626;" transform="translate(245.116688 335.789375)scale(0.12 -0.12)">
       <use xlink:href="#ArialMT-50"/>
       <use x="55.615234" xlink:href="#ArialMT-48"/>
       <use x="111.230469" xlink:href="#ArialMT-48"/>
      </g>
     </g>
    </g>
    <g id="xtick_5">
     <g id="text_5">
      <!-- 250 -->
      <g style="fill:#262626;" transform="translate(301.318835 335.789375)scale(0.12 -0.12)">
       <use xlink:href="#ArialMT-50"/>
       <use x="55.615234" xlink:href="#ArialMT-53"/>
       <use x="111.230469" xlink:href="#ArialMT-48"/>
      </g>
     </g>
    </g>
    <g id="text_6">
     <!-- Observed OTUs -->
     <defs>
      <path d="M 4.828125 34.859375 
Q 4.828125 52.6875 14.390625 62.765625 
Q 23.96875 72.859375 39.109375 72.859375 
Q 49.03125 72.859375 56.984375 68.109375 
Q 64.9375 63.375 69.109375 54.90625 
Q 73.296875 46.4375 73.296875 35.6875 
Q 73.296875 24.8125 68.890625 16.21875 
Q 64.5 7.625 56.4375 3.203125 
Q 48.390625 -1.21875 39.0625 -1.21875 
Q 28.953125 -1.21875 20.984375 3.65625 
Q 13.03125 8.546875 8.921875 16.984375 
Q 4.828125 25.4375 4.828125 34.859375 
z
M 14.59375 34.71875 
Q 14.59375 21.78125 21.546875 14.328125 
Q 28.515625 6.890625 39.015625 6.890625 
Q 49.703125 6.890625 56.609375 14.40625 
Q 63.53125 21.921875 63.53125 35.75 
Q 63.53125 44.484375 60.578125 51 
Q 57.625 57.515625 51.921875 61.109375 
Q 46.234375 64.703125 39.15625 64.703125 
Q 29.109375 64.703125 21.84375 57.78125 
Q 14.59375 50.875 14.59375 34.71875 
z
" id="ArialMT-79"/>
      <path d="M 14.703125 0 
L 6.546875 0 
L 6.546875 71.578125 
L 15.328125 71.578125 
L 15.328125 46.046875 
Q 20.90625 53.03125 29.546875 53.03125 
Q 34.328125 53.03125 38.59375 51.09375 
Q 42.875 49.171875 45.625 45.671875 
Q 48.390625 42.1875 49.953125 37.25 
Q 51.515625 32.328125 51.515625 26.703125 
Q 51.515625 13.375 44.921875 6.09375 
Q 38.328125 -1.171875 29.109375 -1.171875 
Q 19.921875 -1.171875 14.703125 6.5 
z
M 14.59375 26.3125 
Q 14.59375 17 17.140625 12.84375 
Q 21.296875 6.0625 28.375 6.0625 
Q 34.125 6.0625 38.328125 11.0625 
Q 42.53125 16.0625 42.53125 25.984375 
Q 42.53125 36.140625 38.5 40.96875 
Q 34.46875 45.796875 28.765625 45.796875 
Q 23 45.796875 18.796875 40.796875 
Q 14.59375 35.796875 14.59375 26.3125 
z
" id="ArialMT-98"/>
      <path d="M 3.078125 15.484375 
L 11.765625 16.84375 
Q 12.5 11.625 15.84375 8.84375 
Q 19.1875 6.0625 25.203125 6.0625 
Q 31.25 6.0625 34.171875 8.515625 
Q 37.109375 10.984375 37.109375 14.3125 
Q 37.109375 17.28125 34.515625 19 
Q 32.71875 20.171875 25.53125 21.96875 
Q 15.875 24.421875 12.140625 26.203125 
Q 8.40625 27.984375 6.46875 31.125 
Q 4.546875 34.28125 4.546875 38.09375 
Q 4.546875 41.546875 6.125 44.5 
Q 7.71875 47.46875 10.453125 49.421875 
Q 12.5 50.921875 16.03125 51.96875 
Q 19.578125 53.03125 23.640625 53.03125 
Q 29.734375 53.03125 34.34375 51.265625 
Q 38.96875 49.515625 41.15625 46.5 
Q 43.359375 43.5 44.1875 38.484375 
L 35.59375 37.3125 
Q 35.015625 41.3125 32.203125 43.546875 
Q 29.390625 45.796875 24.265625 45.796875 
Q 18.21875 45.796875 15.625 43.796875 
Q 13.03125 41.796875 13.03125 39.109375 
Q 13.03125 37.40625 14.109375 36.03125 
Q 15.1875 34.625 17.484375 33.6875 
Q 18.796875 33.203125 25.25 31.453125 
Q 34.578125 28.953125 38.25 27.359375 
Q 41.9375 25.78125 44.03125 22.75 
Q 46.140625 19.734375 46.140625 15.234375 
Q 46.140625 10.84375 43.578125 6.953125 
Q 41.015625 3.078125 36.171875 0.953125 
Q 31.34375 -1.171875 25.25 -1.171875 
Q 15.140625 -1.171875 9.84375 3.03125 
Q 4.546875 7.234375 3.078125 15.484375 
z
" id="ArialMT-115"/>
      <path d="M 42.09375 16.703125 
L 51.171875 15.578125 
Q 49.03125 7.625 43.21875 3.21875 
Q 37.40625 -1.171875 28.375 -1.171875 
Q 17 -1.171875 10.328125 5.828125 
Q 3.65625 12.84375 3.65625 25.484375 
Q 3.65625 38.578125 10.390625 45.796875 
Q 17.140625 53.03125 27.875 53.03125 
Q 38.28125 53.03125 44.875 45.953125 
Q 51.46875 38.875 51.46875 26.03125 
Q 51.46875 25.25 51.421875 23.6875 
L 12.75 23.6875 
Q 13.234375 15.140625 17.578125 10.59375 
Q 21.921875 6.0625 28.421875 6.0625 
Q 33.25 6.0625 36.671875 8.59375 
Q 40.09375 11.140625 42.09375 16.703125 
z
M 13.234375 30.90625 
L 42.1875 30.90625 
Q 41.609375 37.453125 38.875 40.71875 
Q 34.671875 45.796875 27.984375 45.796875 
Q 21.921875 45.796875 17.796875 41.75 
Q 13.671875 37.703125 13.234375 30.90625 
z
" id="ArialMT-101"/>
      <path d="M 6.5 0 
L 6.5 51.859375 
L 14.40625 51.859375 
L 14.40625 44 
Q 17.4375 49.515625 20 51.265625 
Q 22.5625 53.03125 25.640625 53.03125 
Q 30.078125 53.03125 34.671875 50.203125 
L 31.640625 42.046875 
Q 28.421875 43.953125 25.203125 43.953125 
Q 22.3125 43.953125 20.015625 42.21875 
Q 17.71875 40.484375 16.75 37.40625 
Q 15.28125 32.71875 15.28125 27.15625 
L 15.28125 0 
z
" id="ArialMT-114"/>
      <path d="M 21 0 
L 1.265625 51.859375 
L 10.546875 51.859375 
L 21.6875 20.796875 
Q 23.484375 15.765625 25 10.359375 
Q 26.171875 14.453125 28.265625 20.21875 
L 39.796875 51.859375 
L 48.828125 51.859375 
L 29.203125 0 
z
" id="ArialMT-118"/>
      <path d="M 40.234375 0 
L 40.234375 6.546875 
Q 35.296875 -1.171875 25.734375 -1.171875 
Q 19.53125 -1.171875 14.328125 2.25 
Q 9.125 5.671875 6.265625 11.796875 
Q 3.421875 17.921875 3.421875 25.875 
Q 3.421875 33.640625 6 39.96875 
Q 8.59375 46.296875 13.765625 49.65625 
Q 18.953125 53.03125 25.34375 53.03125 
Q 30.03125 53.03125 33.6875 51.046875 
Q 37.359375 49.078125 39.65625 45.90625 
L 39.65625 71.578125 
L 48.390625 71.578125 
L 48.390625 0 
z
M 12.453125 25.875 
Q 12.453125 15.921875 16.640625 10.984375 
Q 20.84375 6.0625 26.5625 6.0625 
Q 32.328125 6.0625 36.34375 10.765625 
Q 40.375 15.484375 40.375 25.140625 
Q 40.375 35.796875 36.265625 40.765625 
Q 32.171875 45.75 26.171875 45.75 
Q 20.3125 45.75 16.375 40.96875 
Q 12.453125 36.1875 12.453125 25.875 
z
" id="ArialMT-100"/>
      <path id="ArialMT-32"/>
      <path d="M 25.921875 0 
L 25.921875 63.140625 
L 2.34375 63.140625 
L 2.34375 71.578125 
L 59.078125 71.578125 
L 59.078125 63.140625 
L 35.40625 63.140625 
L 35.40625 0 
z
" id="ArialMT-84"/>
      <path d="M 54.6875 71.578125 
L 64.15625 71.578125 
L 64.15625 30.21875 
Q 64.15625 19.4375 61.71875 13.078125 
Q 59.28125 6.734375 52.90625 2.75 
Q 46.53125 -1.21875 36.1875 -1.21875 
Q 26.125 -1.21875 19.71875 2.25 
Q 13.328125 5.71875 10.59375 12.28125 
Q 7.859375 18.84375 7.859375 30.21875 
L 7.859375 71.578125 
L 17.328125 71.578125 
L 17.328125 30.28125 
Q 17.328125 20.953125 19.0625 16.53125 
Q 20.796875 12.109375 25.015625 9.71875 
Q 29.25 7.328125 35.359375 7.328125 
Q 45.796875 7.328125 50.234375 12.0625 
Q 54.6875 16.796875 54.6875 30.28125 
z
" id="ArialMT-85"/>
     </defs>
     <g style="fill:#262626;" transform="translate(154.315213 352.911094)scale(0.15 -0.15)">
      <use xlink:href="#ArialMT-79"/>
      <use x="77.783203" xlink:href="#ArialMT-98"/>
      <use x="133.398438" xlink:href="#ArialMT-115"/>
      <use x="183.398438" xlink:href="#ArialMT-101"/>
      <use x="239.013672" xlink:href="#ArialMT-114"/>
      <use x="272.314453" xlink:href="#ArialMT-118"/>
      <use x="322.314453" xlink:href="#ArialMT-101"/>
      <use x="377.929688" xlink:href="#ArialMT-100"/>
      <use x="433.544922" xlink:href="#ArialMT-32"/>
      <use x="461.328125" xlink:href="#ArialMT-79"/>
      <use x="539.111328" xlink:href="#ArialMT-84"/>
      <use x="600.195312" xlink:href="#ArialMT-85"/>
      <use x="672.412109" xlink:href="#ArialMT-115"/>
     </g>
    </g>
   </g>
   <g id="matplotlib.axis_2">
    <g id="ytick_1">
     <g id="text_7">
      <!-- 0.00 -->
      <defs>
       <path d="M 9.078125 0 
L 9.078125 10.015625 
L 19.09375 10.015625 
L 19.09375 0 
z
" id="ArialMT-46"/>
      </defs>
      <g style="fill:#262626;" transform="translate(31.0148 294.106879)scale(0.12 -0.12)">
       <use xlink:href="#ArialMT-48"/>
       <use x="55.615234" xlink:href="#ArialMT-46"/>
       <use x="83.398438" xlink:href="#ArialMT-48"/>
       <use x="139.013672" xlink:href="#ArialMT-48"/>
      </g>
     </g>
    </g>
    <g id="ytick_2">
     <g id="text_8">
      <!-- 0.05 -->
      <g style="fill:#262626;" transform="translate(31.0148 226.591863)scale(0.12 -0.12)">
       <use xlink:href="#ArialMT-48"/>
       <use x="55.615234" xlink:href="#ArialMT-46"/>
       <use x="83.398438" xlink:href="#ArialMT-48"/>
       <use x="139.013672" xlink:href="#ArialMT-53"/>
      </g>
     </g>
    </g>
    <g id="ytick_3">
     <g id="text_9">
      <!-- 0.10 -->
      <g style="fill:#262626;" transform="translate(31.0148 159.076847)scale(0.12 -0.12)">
       <use xlink:href="#ArialMT-48"/>
       <use x="55.615234" xlink:href="#ArialMT-46"/>
       <use x="83.398438" xlink:href="#ArialMT-49"/>
       <use x="139.013672" xlink:href="#ArialMT-48"/>
      </g>
     </g>
    </g>
    <g id="ytick_4">
     <g id="text_10">
      <!-- 0.15 -->
      <g style="fill:#262626;" transform="translate(31.0148 91.561831)scale(0.12 -0.12)">
       <use xlink:href="#ArialMT-48"/>
       <use x="55.615234" xlink:href="#ArialMT-46"/>
       <use x="83.398438" xlink:href="#ArialMT-49"/>
       <use x="139.013672" xlink:href="#ArialMT-53"/>
      </g>
     </g>
    </g>
    <g id="ytick_5">
     <g id="text_11">
      <!-- 0.20 -->
      <g style="fill:#262626;" transform="translate(31.0148 24.046816)scale(0.12 -0.12)">
       <use xlink:href="#ArialMT-48"/>
       <use x="55.615234" xlink:href="#ArialMT-46"/>
       <use x="83.398438" xlink:href="#ArialMT-50"/>
       <use x="139.013672" xlink:href="#ArialMT-48"/>
      </g>
     </g>
    </g>
    <g id="text_12">
     <!-- Midazolam -->
     <defs>
      <path d="M 7.421875 0 
L 7.421875 71.578125 
L 21.6875 71.578125 
L 38.625 20.90625 
Q 40.96875 13.8125 42.046875 10.296875 
Q 43.265625 14.203125 45.84375 21.78125 
L 62.984375 71.578125 
L 75.734375 71.578125 
L 75.734375 0 
L 66.609375 0 
L 66.609375 59.90625 
L 45.796875 0 
L 37.25 0 
L 16.546875 60.9375 
L 16.546875 0 
z
" id="ArialMT-77"/>
      <path d="M 6.640625 61.46875 
L 6.640625 71.578125 
L 15.4375 71.578125 
L 15.4375 61.46875 
z
M 6.640625 0 
L 6.640625 51.859375 
L 15.4375 51.859375 
L 15.4375 0 
z
" id="ArialMT-105"/>
      <path d="M 40.4375 6.390625 
Q 35.546875 2.25 31.03125 0.53125 
Q 26.515625 -1.171875 21.34375 -1.171875 
Q 12.796875 -1.171875 8.203125 3 
Q 3.609375 7.171875 3.609375 13.671875 
Q 3.609375 17.484375 5.34375 20.625 
Q 7.078125 23.78125 9.890625 25.6875 
Q 12.703125 27.59375 16.21875 28.5625 
Q 18.796875 29.25 24.03125 29.890625 
Q 34.671875 31.15625 39.703125 32.90625 
Q 39.75 34.71875 39.75 35.203125 
Q 39.75 40.578125 37.25 42.78125 
Q 33.890625 45.75 27.25 45.75 
Q 21.046875 45.75 18.09375 43.578125 
Q 15.140625 41.40625 13.71875 35.890625 
L 5.125 37.0625 
Q 6.296875 42.578125 8.984375 45.96875 
Q 11.671875 49.359375 16.75 51.1875 
Q 21.828125 53.03125 28.515625 53.03125 
Q 35.15625 53.03125 39.296875 51.46875 
Q 43.453125 49.90625 45.40625 47.53125 
Q 47.359375 45.171875 48.140625 41.546875 
Q 48.578125 39.3125 48.578125 33.453125 
L 48.578125 21.734375 
Q 48.578125 9.46875 49.140625 6.21875 
Q 49.703125 2.984375 51.375 0 
L 42.1875 0 
Q 40.828125 2.734375 40.4375 6.390625 
z
M 39.703125 26.03125 
Q 34.90625 24.078125 25.34375 22.703125 
Q 19.921875 21.921875 17.671875 20.9375 
Q 15.4375 19.96875 14.203125 18.09375 
Q 12.984375 16.21875 12.984375 13.921875 
Q 12.984375 10.40625 15.640625 8.0625 
Q 18.3125 5.71875 23.4375 5.71875 
Q 28.515625 5.71875 32.46875 7.9375 
Q 36.421875 10.15625 38.28125 14.015625 
Q 39.703125 17 39.703125 22.796875 
z
" id="ArialMT-97"/>
      <path d="M 1.953125 0 
L 1.953125 7.125 
L 34.96875 45.015625 
Q 29.34375 44.734375 25.046875 44.734375 
L 3.90625 44.734375 
L 3.90625 51.859375 
L 46.296875 51.859375 
L 46.296875 46.046875 
L 18.21875 13.140625 
L 12.796875 7.125 
Q 18.703125 7.5625 23.875 7.5625 
L 47.859375 7.5625 
L 47.859375 0 
z
" id="ArialMT-122"/>
      <path d="M 3.328125 25.921875 
Q 3.328125 40.328125 11.328125 47.265625 
Q 18.015625 53.03125 27.640625 53.03125 
Q 38.328125 53.03125 45.109375 46.015625 
Q 51.90625 39.015625 51.90625 26.65625 
Q 51.90625 16.65625 48.90625 10.90625 
Q 45.90625 5.171875 40.15625 2 
Q 34.421875 -1.171875 27.640625 -1.171875 
Q 16.75 -1.171875 10.03125 5.8125 
Q 3.328125 12.796875 3.328125 25.921875 
z
M 12.359375 25.921875 
Q 12.359375 15.96875 16.703125 11.015625 
Q 21.046875 6.0625 27.640625 6.0625 
Q 34.1875 6.0625 38.53125 11.03125 
Q 42.875 16.015625 42.875 26.21875 
Q 42.875 35.84375 38.5 40.796875 
Q 34.125 45.75 27.640625 45.75 
Q 21.046875 45.75 16.703125 40.8125 
Q 12.359375 35.890625 12.359375 25.921875 
z
" id="ArialMT-111"/>
      <path d="M 6.390625 0 
L 6.390625 71.578125 
L 15.1875 71.578125 
L 15.1875 0 
z
" id="ArialMT-108"/>
      <path d="M 6.59375 0 
L 6.59375 51.859375 
L 14.453125 51.859375 
L 14.453125 44.578125 
Q 16.890625 48.390625 20.9375 50.703125 
Q 25 53.03125 30.171875 53.03125 
Q 35.9375 53.03125 39.625 50.640625 
Q 43.3125 48.25 44.828125 43.953125 
Q 50.984375 53.03125 60.84375 53.03125 
Q 68.5625 53.03125 72.703125 48.75 
Q 76.859375 44.484375 76.859375 35.59375 
L 76.859375 0 
L 68.109375 0 
L 68.109375 32.671875 
Q 68.109375 37.9375 67.25 40.25 
Q 66.40625 42.578125 64.15625 43.984375 
Q 61.921875 45.40625 58.890625 45.40625 
Q 53.421875 45.40625 49.796875 41.765625 
Q 46.1875 38.140625 46.1875 30.125 
L 46.1875 0 
L 37.40625 0 
L 37.40625 33.6875 
Q 37.40625 39.546875 35.25 42.46875 
Q 33.109375 45.40625 28.21875 45.40625 
Q 24.515625 45.40625 21.359375 43.453125 
Q 18.21875 41.5 16.796875 37.734375 
Q 15.375 33.984375 15.375 26.90625 
L 15.375 0 
z
" id="ArialMT-109"/>
     </defs>
     <g style="fill:#262626;" transform="translate(24.03355 203.510156)rotate(-90)scale(0.15 -0.15)">
      <use xlink:href="#ArialMT-77"/>
      <use x="83.300781" xlink:href="#ArialMT-105"/>
      <use x="105.517578" xlink:href="#ArialMT-100"/>
      <use x="161.132812" xlink:href="#ArialMT-97"/>
      <use x="216.748047" xlink:href="#ArialMT-122"/>
      <use x="266.748047" xlink:href="#ArialMT-111"/>
      <use x="322.363281" xlink:href="#ArialMT-108"/>
      <use x="344.580078" xlink:href="#ArialMT-97"/>
      <use x="400.195312" xlink:href="#ArialMT-109"/>
     </g>
    </g>
   </g>
   <g id="PathCollection_1">
    <defs>
     <path d="M 0 3 
C 0.795609 3 1.55874 2.683901 2.12132 2.12132 
C 2.683901 1.55874 3 0.795609 3 0 
C 3 -0.795609 2.683901 -1.55874 2.12132 -2.12132 
C 1.55874 -2.683901 0.795609 -3 0 -3 
C -0.795609 -3 -1.55874 -2.683901 -2.12132 -2.12132 
C -2.683901 -1.55874 -3 -0.795609 -3 0 
C -3 0.795609 -2.683901 1.55874 -2.12132 2.12132 
C -1.55874 2.683901 -0.795609 3 0 3 
z
" id="md970c94519" style="stroke:#f77189;stroke-opacity:0.8;"/>
    </defs>
    <g clip-path="url(#p86f8602690)">
     <use style="fill:#f77189;fill-opacity:0.8;stroke:#f77189;stroke-opacity:0.8;" x="140.473995" xlink:href="#md970c94519" y="273.596447"/>
     <use style="fill:#f77189;fill-opacity:0.8;stroke:#f77189;stroke-opacity:0.8;" x="117.993136" xlink:href="#md970c94519" y="212.477231"/>
     <use style="fill:#f77189;fill-opacity:0.8;stroke:#f77189;stroke-opacity:0.8;" x="107.87675" xlink:href="#md970c94519" y="240.27879"/>
     <use style="fill:#f77189;fill-opacity:0.8;stroke:#f77189;stroke-opacity:0.8;" x="82.023762" xlink:href="#md970c94519" y="207.105064"/>
     <use style="fill:#f77189;fill-opacity:0.8;stroke:#f77189;stroke-opacity:0.8;" x="83.147805" xlink:href="#md970c94519" y="233.462826"/>
     <use style="fill:#f77189;fill-opacity:0.8;stroke:#f77189;stroke-opacity:0.8;" x="114.621007" xlink:href="#md970c94519" y="280.466224"/>
    </g>
   </g>
   <g id="PathCollection_2">
    <defs>
     <path d="M 0 3 
C 0.795609 3 1.55874 2.683901 2.12132 2.12132 
C 2.683901 1.55874 3 0.795609 3 0 
C 3 -0.795609 2.683901 -1.55874 2.12132 -2.12132 
C 1.55874 -2.683901 0.795609 -3 0 -3 
C -0.795609 -3 -1.55874 -2.683901 -2.12132 -2.12132 
C -2.683901 -1.55874 -3 -0.795609 -3 0 
C -3 0.795609 -2.683901 1.55874 -2.12132 2.12132 
C -1.55874 2.683901 -0.795609 3 0 3 
z
" id="m680474e265" style="stroke:#ef7d32;stroke-opacity:0.8;"/>
    </defs>
    <g clip-path="url(#p86f8602690)">
     <use style="fill:#ef7d32;fill-opacity:0.8;stroke:#ef7d32;stroke-opacity:0.8;" x="250.630204" xlink:href="#m680474e265" y="289.812191"/>
     <use style="fill:#ef7d32;fill-opacity:0.8;stroke:#ef7d32;stroke-opacity:0.8;" x="189.931885" xlink:href="#m680474e265" y="287.746604"/>
     <use style="fill:#ef7d32;fill-opacity:0.8;stroke:#ef7d32;stroke-opacity:0.8;" x="202.296357" xlink:href="#m680474e265" y="288.79035"/>
     <use style="fill:#ef7d32;fill-opacity:0.8;stroke:#ef7d32;stroke-opacity:0.8;" x="193.304013" xlink:href="#m680474e265" y="278.460135"/>
     <use style="fill:#ef7d32;fill-opacity:0.8;stroke:#ef7d32;stroke-opacity:0.8;" x="191.055927" xlink:href="#m680474e265" y="275.45811"/>
     <use style="fill:#ef7d32;fill-opacity:0.8;stroke:#ef7d32;stroke-opacity:0.8;" x="206.792529" xlink:href="#m680474e265" y="280.989645"/>
     <use style="fill:#ef7d32;fill-opacity:0.8;stroke:#ef7d32;stroke-opacity:0.8;" x="212.412743" xlink:href="#m680474e265" y="289.113353"/>
     <use style="fill:#ef7d32;fill-opacity:0.8;stroke:#ef7d32;stroke-opacity:0.8;" x="206.792529" xlink:href="#m680474e265" y="287.561775"/>
    </g>
   </g>
   <g id="PathCollection_3">
    <defs>
     <path d="M 0 3 
C 0.795609 3 1.55874 2.683901 2.12132 2.12132 
C 2.683901 1.55874 3 0.795609 3 0 
C 3 -0.795609 2.683901 -1.55874 2.12132 -2.12132 
C 1.55874 -2.683901 0.795609 -3 0 -3 
C -0.795609 -3 -1.55874 -2.683901 -2.12132 -2.12132 
C -2.683901 -1.55874 -3 -0.795609 -3 0 
C -3 0.795609 -2.683901 1.55874 -2.12132 2.12132 
C -1.55874 2.683901 -0.795609 3 0 3 
z
" id="m86b98c43bf" style="stroke:#c69432;stroke-opacity:0.8;"/>
    </defs>
    <g clip-path="url(#p86f8602690)">
     <use style="fill:#c69432;fill-opacity:0.8;stroke:#c69432;stroke-opacity:0.8;" x="222.52913" xlink:href="#m86b98c43bf" y="277.852144"/>
     <use style="fill:#c69432;fill-opacity:0.8;stroke:#c69432;stroke-opacity:0.8;" x="223.653173" xlink:href="#m86b98c43bf" y="239.48662"/>
     <use style="fill:#c69432;fill-opacity:0.8;stroke:#c69432;stroke-opacity:0.8;" x="194.428056" xlink:href="#m86b98c43bf" y="235.315958"/>
     <use style="fill:#c69432;fill-opacity:0.8;stroke:#c69432;stroke-opacity:0.8;" x="121.365265" xlink:href="#m86b98c43bf" y="55.566932"/>
     <use style="fill:#c69432;fill-opacity:0.8;stroke:#c69432;stroke-opacity:0.8;" x="152.838467" xlink:href="#m86b98c43bf" y="45.582517"/>
    </g>
   </g>
   <g id="PathCollection_4">
    <defs>
     <path d="M 0 3 
C 0.795609 3 1.55874 2.683901 2.12132 2.12132 
C 2.683901 1.55874 3 0.795609 3 0 
C 3 -0.795609 2.683901 -1.55874 2.12132 -2.12132 
C 1.55874 -2.683901 0.795609 -3 0 -3 
C -0.795609 -3 -1.55874 -2.683901 -2.12132 -2.12132 
C -2.683901 -1.55874 -3 -0.795609 -3 0 
C -3 0.795609 -2.683901 1.55874 -2.12132 2.12132 
C -1.55874 2.683901 -0.795609 3 0 3 
z
" id="m8069e824fd" style="stroke:#a79f31;stroke-opacity:0.8;"/>
    </defs>
    <g clip-path="url(#p86f8602690)">
     <use style="fill:#a79f31;fill-opacity:0.8;stroke:#a79f31;stroke-opacity:0.8;" x="232.645516" xlink:href="#m8069e824fd" y="289.615173"/>
     <use style="fill:#a79f31;fill-opacity:0.8;stroke:#a79f31;stroke-opacity:0.8;" x="248.382118" xlink:href="#m8069e824fd" y="286.910517"/>
     <use style="fill:#a79f31;fill-opacity:0.8;stroke:#a79f31;stroke-opacity:0.8;" x="101.132492" xlink:href="#m8069e824fd" y="227.88626"/>
     <use style="fill:#a79f31;fill-opacity:0.8;stroke:#a79f31;stroke-opacity:0.8;" x="140.473995" xlink:href="#m8069e824fd" y="257.13271"/>
     <use style="fill:#a79f31;fill-opacity:0.8;stroke:#a79f31;stroke-opacity:0.8;" x="174.195283" xlink:href="#m8069e824fd" y="286.789966"/>
     <use style="fill:#a79f31;fill-opacity:0.8;stroke:#a79f31;stroke-opacity:0.8;" x="185.435713" xlink:href="#m8069e824fd" y="288.527584"/>
     <use style="fill:#a79f31;fill-opacity:0.8;stroke:#a79f31;stroke-opacity:0.8;" x="137.101866" xlink:href="#m8069e824fd" y="287.691667"/>
    </g>
   </g>
   <g id="PathCollection_5">
    <defs>
     <path d="M 0 3 
C 0.795609 3 1.55874 2.683901 2.12132 2.12132 
C 2.683901 1.55874 3 0.795609 3 0 
C 3 -0.795609 2.683901 -1.55874 2.12132 -2.12132 
C 1.55874 -2.683901 0.795609 -3 0 -3 
C -0.795609 -3 -1.55874 -2.683901 -2.12132 -2.12132 
C -2.683901 -1.55874 -3 -0.795609 -3 0 
C -3 0.795609 -2.683901 1.55874 -2.12132 2.12132 
C -1.55874 2.683901 -0.795609 3 0 3 
z
" id="m8562c0a21b" style="stroke:#82a931;stroke-opacity:0.8;"/>
    </defs>
    <g clip-path="url(#p86f8602690)">
     <use style="fill:#82a931;fill-opacity:0.8;stroke:#82a931;stroke-opacity:0.8;" x="191.055927" xlink:href="#m8562c0a21b" y="280.620729"/>
     <use style="fill:#82a931;fill-opacity:0.8;stroke:#82a931;stroke-opacity:0.8;" x="223.653173" xlink:href="#m8562c0a21b" y="269.369856"/>
     <use style="fill:#82a931;fill-opacity:0.8;stroke:#82a931;stroke-opacity:0.8;" x="227.025302" xlink:href="#m8562c0a21b" y="287.169113"/>
     <use style="fill:#82a931;fill-opacity:0.8;stroke:#82a931;stroke-opacity:0.8;" x="152.838467" xlink:href="#m8562c0a21b" y="288.384721"/>
     <use style="fill:#82a931;fill-opacity:0.8;stroke:#82a931;stroke-opacity:0.8;" x="152.838467" xlink:href="#m8562c0a21b" y="285.748331"/>
     <use style="fill:#82a931;fill-opacity:0.8;stroke:#82a931;stroke-opacity:0.8;" x="205.668486" xlink:href="#m8562c0a21b" y="288.354989"/>
     <use style="fill:#82a931;fill-opacity:0.8;stroke:#82a931;stroke-opacity:0.8;" x="155.086553" xlink:href="#m8562c0a21b" y="271.662347"/>
    </g>
   </g>
   <g id="PathCollection_6">
    <defs>
     <path d="M 0 3 
C 0.795609 3 1.55874 2.683901 2.12132 2.12132 
C 2.683901 1.55874 3 0.795609 3 0 
C 3 -0.795609 2.683901 -1.55874 2.12132 -2.12132 
C 1.55874 -2.683901 0.795609 -3 0 -3 
C -0.795609 -3 -1.55874 -2.683901 -2.12132 -2.12132 
C -2.683901 -1.55874 -3 -0.795609 -3 0 
C -3 0.795609 -2.683901 1.55874 -2.12132 2.12132 
C -1.55874 2.683901 -0.795609 3 0 3 
z
" id="m41211919b7" style="stroke:#32b24e;stroke-opacity:0.8;"/>
    </defs>
    <g clip-path="url(#p86f8602690)">
     <use style="fill:#32b24e;fill-opacity:0.8;stroke:#32b24e;stroke-opacity:0.8;" x="182.063584" xlink:href="#m41211919b7" y="223.932517"/>
     <use style="fill:#32b24e;fill-opacity:0.8;stroke:#32b24e;stroke-opacity:0.8;" x="128.109523" xlink:href="#m41211919b7" y="220.160109"/>
     <use style="fill:#32b24e;fill-opacity:0.8;stroke:#32b24e;stroke-opacity:0.8;" x="128.109523" xlink:href="#m41211919b7" y="258.5916"/>
     <use style="fill:#32b24e;fill-opacity:0.8;stroke:#32b24e;stroke-opacity:0.8;" x="113.496964" xlink:href="#m41211919b7" y="161.987489"/>
     <use style="fill:#32b24e;fill-opacity:0.8;stroke:#32b24e;stroke-opacity:0.8;" x="115.74505" xlink:href="#m41211919b7" y="246.773183"/>
     <use style="fill:#32b24e;fill-opacity:0.8;stroke:#32b24e;stroke-opacity:0.8;" x="132.605694" xlink:href="#m41211919b7" y="222.631281"/>
     <use style="fill:#32b24e;fill-opacity:0.8;stroke:#32b24e;stroke-opacity:0.8;" x="148.342296" xlink:href="#m41211919b7" y="237.243932"/>
    </g>
   </g>
   <g id="PathCollection_7">
    <defs>
     <path d="M 0 3 
C 0.795609 3 1.55874 2.683901 2.12132 2.12132 
C 2.683901 1.55874 3 0.795609 3 0 
C 3 -0.795609 2.683901 -1.55874 2.12132 -2.12132 
C 1.55874 -2.683901 0.795609 -3 0 -3 
C -0.795609 -3 -1.55874 -2.683901 -2.12132 -2.12132 
C -2.683901 -1.55874 -3 -0.795609 -3 0 
C -3 0.795609 -2.683901 1.55874 -2.12132 2.12132 
C -1.55874 2.683901 -0.795609 3 0 3 
z
" id="mf67461c855" style="stroke:#34af8a;stroke-opacity:0.8;"/>
    </defs>
    <g clip-path="url(#p86f8602690)">
     <use style="fill:#34af8a;fill-opacity:0.8;stroke:#34af8a;stroke-opacity:0.8;" x="188.807842" xlink:href="#mf67461c855" y="281.89484"/>
     <use style="fill:#34af8a;fill-opacity:0.8;stroke:#34af8a;stroke-opacity:0.8;" x="128.109523" xlink:href="#mf67461c855" y="240.555509"/>
     <use style="fill:#34af8a;fill-opacity:0.8;stroke:#34af8a;stroke-opacity:0.8;" x="105.628664" xlink:href="#mf67461c855" y="254.983106"/>
     <use style="fill:#34af8a;fill-opacity:0.8;stroke:#34af8a;stroke-opacity:0.8;" x="146.09421" xlink:href="#mf67461c855" y="267.253623"/>
     <use style="fill:#34af8a;fill-opacity:0.8;stroke:#34af8a;stroke-opacity:0.8;" x="103.380578" xlink:href="#mf67461c855" y="152.384835"/>
     <use style="fill:#34af8a;fill-opacity:0.8;stroke:#34af8a;stroke-opacity:0.8;" x="84.271848" xlink:href="#mf67461c855" y="87.189364"/>
     <use style="fill:#34af8a;fill-opacity:0.8;stroke:#34af8a;stroke-opacity:0.8;" x="77.52759" xlink:href="#mf67461c855" y="177.526177"/>
     <use style="fill:#34af8a;fill-opacity:0.8;stroke:#34af8a;stroke-opacity:0.8;" x="97.760363" xlink:href="#mf67461c855" y="228.41049"/>
    </g>
   </g>
   <g id="PathCollection_8">
    <defs>
     <path d="M 0 3 
C 0.795609 3 1.55874 2.683901 2.12132 2.12132 
C 2.683901 1.55874 3 0.795609 3 0 
C 3 -0.795609 2.683901 -1.55874 2.12132 -2.12132 
C 1.55874 -2.683901 0.795609 -3 0 -3 
C -0.795609 -3 -1.55874 -2.683901 -2.12132 -2.12132 
C -2.683901 -1.55874 -3 -0.795609 -3 0 
C -3 0.795609 -2.683901 1.55874 -2.12132 2.12132 
C -1.55874 2.683901 -0.795609 3 0 3 
z
" id="ma6d019813c" style="stroke:#36ada4;stroke-opacity:0.8;"/>
    </defs>
    <g clip-path="url(#p86f8602690)">
     <use style="fill:#36ada4;fill-opacity:0.8;stroke:#36ada4;stroke-opacity:0.8;" x="195.552099" xlink:href="#ma6d019813c" y="285.847946"/>
     <use style="fill:#36ada4;fill-opacity:0.8;stroke:#36ada4;stroke-opacity:0.8;" x="126.98548" xlink:href="#ma6d019813c" y="263.913743"/>
     <use style="fill:#36ada4;fill-opacity:0.8;stroke:#36ada4;stroke-opacity:0.8;" x="142.722081" xlink:href="#ma6d019813c" y="247.098671"/>
     <use style="fill:#36ada4;fill-opacity:0.8;stroke:#36ada4;stroke-opacity:0.8;" x="149.466339" xlink:href="#ma6d019813c" y="251.853204"/>
     <use style="fill:#36ada4;fill-opacity:0.8;stroke:#36ada4;stroke-opacity:0.8;" x="179.815498" xlink:href="#ma6d019813c" y="96.091281"/>
    </g>
   </g>
   <g id="PathCollection_9">
    <defs>
     <path d="M 0 3 
C 0.795609 3 1.55874 2.683901 2.12132 2.12132 
C 2.683901 1.55874 3 0.795609 3 0 
C 3 -0.795609 2.683901 -1.55874 2.12132 -2.12132 
C 1.55874 -2.683901 0.795609 -3 0 -3 
C -0.795609 -3 -1.55874 -2.683901 -2.12132 -2.12132 
C -2.683901 -1.55874 -3 -0.795609 -3 0 
C -3 0.795609 -2.683901 1.55874 -2.12132 2.12132 
C -1.55874 2.683901 -0.795609 3 0 3 
z
" id="mbb3688eb11" style="stroke:#37aabb;stroke-opacity:0.8;"/>
    </defs>
    <g clip-path="url(#p86f8602690)">
     <use style="fill:#37aabb;fill-opacity:0.8;stroke:#37aabb;stroke-opacity:0.8;" x="191.055927" xlink:href="#mbb3688eb11" y="210.721499"/>
     <use style="fill:#37aabb;fill-opacity:0.8;stroke:#37aabb;stroke-opacity:0.8;" x="128.109523" xlink:href="#mbb3688eb11" y="201.500089"/>
     <use style="fill:#37aabb;fill-opacity:0.8;stroke:#37aabb;stroke-opacity:0.8;" x="121.365265" xlink:href="#mbb3688eb11" y="289.812191"/>
     <use style="fill:#37aabb;fill-opacity:0.8;stroke:#37aabb;stroke-opacity:0.8;" x="152.838467" xlink:href="#mbb3688eb11" y="144.57693"/>
     <use style="fill:#37aabb;fill-opacity:0.8;stroke:#37aabb;stroke-opacity:0.8;" x="128.109523" xlink:href="#mbb3688eb11" y="193.788757"/>
     <use style="fill:#37aabb;fill-opacity:0.8;stroke:#37aabb;stroke-opacity:0.8;" x="130.357609" xlink:href="#mbb3688eb11" y="260.437439"/>
    </g>
   </g>
   <g id="PathCollection_10">
    <defs>
     <path d="M 0 3 
C 0.795609 3 1.55874 2.683901 2.12132 2.12132 
C 2.683901 1.55874 3 0.795609 3 0 
C 3 -0.795609 2.683901 -1.55874 2.12132 -2.12132 
C 1.55874 -2.683901 0.795609 -3 0 -3 
C -0.795609 -3 -1.55874 -2.683901 -2.12132 -2.12132 
C -2.683901 -1.55874 -3 -0.795609 -3 0 
C -3 0.795609 -2.683901 1.55874 -2.12132 2.12132 
C -1.55874 2.683901 -0.795609 3 0 3 
z
" id="m1cbdc34cbc" style="stroke:#3aa6da;stroke-opacity:0.8;"/>
    </defs>
    <g clip-path="url(#p86f8602690)">
     <use style="fill:#3aa6da;fill-opacity:0.8;stroke:#3aa6da;stroke-opacity:0.8;" x="187.683799" xlink:href="#m1cbdc34cbc" y="285.369822"/>
     <use style="fill:#3aa6da;fill-opacity:0.8;stroke:#3aa6da;stroke-opacity:0.8;" x="119.117179" xlink:href="#m1cbdc34cbc" y="261.610332"/>
     <use style="fill:#3aa6da;fill-opacity:0.8;stroke:#3aa6da;stroke-opacity:0.8;" x="155.086553" xlink:href="#m1cbdc34cbc" y="287.884679"/>
     <use style="fill:#3aa6da;fill-opacity:0.8;stroke:#3aa6da;stroke-opacity:0.8;" x="89.892063" xlink:href="#m1cbdc34cbc" y="245.953103"/>
    </g>
   </g>
   <g id="PathCollection_11">
    <defs>
     <path d="M 0 3 
C 0.795609 3 1.55874 2.683901 2.12132 2.12132 
C 2.683901 1.55874 3 0.795609 3 0 
C 3 -0.795609 2.683901 -1.55874 2.12132 -2.12132 
C 1.55874 -2.683901 0.795609 -3 0 -3 
C -0.795609 -3 -1.55874 -2.683901 -2.12132 -2.12132 
C -2.683901 -1.55874 -3 -0.795609 -3 0 
C -3 0.795609 -2.683901 1.55874 -2.12132 2.12132 
C -1.55874 2.683901 -0.795609 3 0 3 
z
" id="m096b07a96d" style="stroke:#8197f4;stroke-opacity:0.8;"/>
    </defs>
    <g clip-path="url(#p86f8602690)">
     <use style="fill:#8197f4;fill-opacity:0.8;stroke:#8197f4;stroke-opacity:0.8;" x="188.807842" xlink:href="#m096b07a96d" y="286.272354"/>
     <use style="fill:#8197f4;fill-opacity:0.8;stroke:#8197f4;stroke-opacity:0.8;" x="168.575069" xlink:href="#m096b07a96d" y="275.259128"/>
     <use style="fill:#8197f4;fill-opacity:0.8;stroke:#8197f4;stroke-opacity:0.8;" x="98.884406" xlink:href="#m096b07a96d" y="222.580922"/>
     <use style="fill:#8197f4;fill-opacity:0.8;stroke:#8197f4;stroke-opacity:0.8;" x="101.132492" xlink:href="#m096b07a96d" y="246.35171"/>
     <use style="fill:#8197f4;fill-opacity:0.8;stroke:#8197f4;stroke-opacity:0.8;" x="122.489308" xlink:href="#m096b07a96d" y="272.959596"/>
     <use style="fill:#8197f4;fill-opacity:0.8;stroke:#8197f4;stroke-opacity:0.8;" x="100.008449" xlink:href="#m096b07a96d" y="215.565177"/>
     <use style="fill:#8197f4;fill-opacity:0.8;stroke:#8197f4;stroke-opacity:0.8;" x="98.884406" xlink:href="#m096b07a96d" y="126.810343"/>
    </g>
   </g>
   <g id="PathCollection_12">
    <defs>
     <path d="M 0 3 
C 0.795609 3 1.55874 2.683901 2.12132 2.12132 
C 2.683901 1.55874 3 0.795609 3 0 
C 3 -0.795609 2.683901 -1.55874 2.12132 -2.12132 
C 1.55874 -2.683901 0.795609 -3 0 -3 
C -0.795609 -3 -1.55874 -2.683901 -2.12132 -2.12132 
C -2.683901 -1.55874 -3 -0.795609 -3 0 
C -3 0.795609 -2.683901 1.55874 -2.12132 2.12132 
C -1.55874 2.683901 -0.795609 3 0 3 
z
" id="m6df5fdac4f" style="stroke:#c180f4;stroke-opacity:0.8;"/>
    </defs>
    <g clip-path="url(#p86f8602690)">
     <use style="fill:#c180f4;fill-opacity:0.8;stroke:#c180f4;stroke-opacity:0.8;" x="214.660829" xlink:href="#m6df5fdac4f" y="285.542663"/>
     <use style="fill:#c180f4;fill-opacity:0.8;stroke:#c180f4;stroke-opacity:0.8;" x="192.17997" xlink:href="#m6df5fdac4f" y="265.075227"/>
     <use style="fill:#c180f4;fill-opacity:0.8;stroke:#c180f4;stroke-opacity:0.8;" x="156.210596" xlink:href="#m6df5fdac4f" y="247.958789"/>
     <use style="fill:#c180f4;fill-opacity:0.8;stroke:#c180f4;stroke-opacity:0.8;" x="182.063584" xlink:href="#m6df5fdac4f" y="282.78302"/>
     <use style="fill:#c180f4;fill-opacity:0.8;stroke:#c180f4;stroke-opacity:0.8;" x="170.823154" xlink:href="#m6df5fdac4f" y="284.529974"/>
     <use style="fill:#c180f4;fill-opacity:0.8;stroke:#c180f4;stroke-opacity:0.8;" x="215.784872" xlink:href="#m6df5fdac4f" y="281.160901"/>
    </g>
   </g>
   <g id="PathCollection_13">
    <defs>
     <path d="M 0 3 
C 0.795609 3 1.55874 2.683901 2.12132 2.12132 
C 2.683901 1.55874 3 0.795609 3 0 
C 3 -0.795609 2.683901 -1.55874 2.12132 -2.12132 
C 1.55874 -2.683901 0.795609 -3 0 -3 
C -0.795609 -3 -1.55874 -2.683901 -2.12132 -2.12132 
C -2.683901 -1.55874 -3 -0.795609 -3 0 
C -3 0.795609 -2.683901 1.55874 -2.12132 2.12132 
C -1.55874 2.683901 -0.795609 3 0 3 
z
" id="m0cb7084235" style="stroke:#f45deb;stroke-opacity:0.8;"/>
    </defs>
    <g clip-path="url(#p86f8602690)">
     <use style="fill:#f45deb;fill-opacity:0.8;stroke:#f45deb;stroke-opacity:0.8;" x="246.134032" xlink:href="#m0cb7084235" y="289.451426"/>
     <use style="fill:#f45deb;fill-opacity:0.8;stroke:#f45deb;stroke-opacity:0.8;" x="273.111062" xlink:href="#m0cb7084235" y="289.197583"/>
     <use style="fill:#f45deb;fill-opacity:0.8;stroke:#f45deb;stroke-opacity:0.8;" x="249.506161" xlink:href="#m0cb7084235" y="289.365351"/>
     <use style="fill:#f45deb;fill-opacity:0.8;stroke:#f45deb;stroke-opacity:0.8;" x="220.281044" xlink:href="#m0cb7084235" y="288.862438"/>
     <use style="fill:#f45deb;fill-opacity:0.8;stroke:#f45deb;stroke-opacity:0.8;" x="211.2887" xlink:href="#m0cb7084235" y="288.906411"/>
     <use style="fill:#f45deb;fill-opacity:0.8;stroke:#f45deb;stroke-opacity:0.8;" x="213.536786" xlink:href="#m0cb7084235" y="289.0139"/>
     <use style="fill:#f45deb;fill-opacity:0.8;stroke:#f45deb;stroke-opacity:0.8;" x="197.800185" xlink:href="#m0cb7084235" y="289.281901"/>
    </g>
   </g>
   <g id="PathCollection_14">
    <defs>
     <path d="M 0 3 
C 0.795609 3 1.55874 2.683901 2.12132 2.12132 
C 2.683901 1.55874 3 0.795609 3 0 
C 3 -0.795609 2.683901 -1.55874 2.12132 -2.12132 
C 1.55874 -2.683901 0.795609 -3 0 -3 
C -0.795609 -3 -1.55874 -2.683901 -2.12132 -2.12132 
C -2.683901 -1.55874 -3 -0.795609 -3 0 
C -3 0.795609 -2.683901 1.55874 -2.12132 2.12132 
C -1.55874 2.683901 -0.795609 3 0 3 
z
" id="m486fdcc32b" style="stroke:#f669ba;stroke-opacity:0.8;"/>
    </defs>
    <g clip-path="url(#p86f8602690)">
     <use style="fill:#f669ba;fill-opacity:0.8;stroke:#f669ba;stroke-opacity:0.8;" x="339.429596" xlink:href="#m486fdcc32b" y="289.481214"/>
     <use style="fill:#f669ba;fill-opacity:0.8;stroke:#f669ba;stroke-opacity:0.8;" x="303.460222" xlink:href="#m486fdcc32b" y="287.835846"/>
     <use style="fill:#f669ba;fill-opacity:0.8;stroke:#f669ba;stroke-opacity:0.8;" x="322.568952" xlink:href="#m486fdcc32b" y="287.766124"/>
     <use style="fill:#f669ba;fill-opacity:0.8;stroke:#f669ba;stroke-opacity:0.8;" x="288.847664" xlink:href="#m486fdcc32b" y="288.73739"/>
     <use style="fill:#f669ba;fill-opacity:0.8;stroke:#f669ba;stroke-opacity:0.8;" x="280.979363" xlink:href="#m486fdcc32b" y="288.562877"/>
     <use style="fill:#f669ba;fill-opacity:0.8;stroke:#f669ba;stroke-opacity:0.8;" x="295.591921" xlink:href="#m486fdcc32b" y="289.451684"/>
     <use style="fill:#f669ba;fill-opacity:0.8;stroke:#f669ba;stroke-opacity:0.8;" x="271.987019" xlink:href="#m486fdcc32b" y="286.33393"/>
    </g>
   </g>
   <g id="line2d_1">
    <path clip-path="url(#p86f8602690)" d="M 82.023762 219.554142 
L 82.614168 220.052794 
L 83.204575 220.551445 
L 83.794981 221.050097 
L 84.385388 221.548748 
L 84.975794 222.047399 
L 85.5662 222.546051 
L 86.156607 223.044702 
L 86.747013 223.543354 
L 87.337419 224.042005 
L 87.927826 224.540657 
L 88.518232 225.039308 
L 89.108639 225.53796 
L 89.699045 226.036611 
L 90.289451 226.535263 
L 90.879858 227.033914 
L 91.470264 227.532566 
L 92.060671 228.031217 
L 92.651077 228.529869 
L 93.241483 229.02852 
L 93.83189 229.527172 
L 94.422296 230.025823 
L 95.012703 230.524474 
L 95.603109 231.023126 
L 96.193515 231.521777 
L 96.783922 232.020429 
L 97.374328 232.51908 
L 97.964735 233.017732 
L 98.555141 233.516383 
L 99.145547 234.015035 
L 99.735954 234.513686 
L 100.32636 235.012338 
L 100.916767 235.510989 
L 101.507173 236.009641 
L 102.097579 236.508292 
L 102.687986 237.006944 
L 103.278392 237.505595 
L 103.868799 238.004247 
L 104.459205 238.502898 
L 105.049611 239.001549 
L 105.640018 239.500201 
L 106.230424 239.998852 
L 106.820831 240.497504 
L 107.411237 240.996155 
L 108.001643 241.494807 
L 108.59205 241.993458 
L 109.182456 242.49211 
L 109.772862 242.990761 
L 110.363269 243.489413 
L 110.953675 243.988064 
L 111.544082 244.486716 
L 112.134488 244.985367 
L 112.724894 245.484019 
L 113.315301 245.98267 
L 113.905707 246.481322 
L 114.496114 246.979973 
L 115.08652 247.478624 
L 115.676926 247.977276 
L 116.267333 248.475927 
L 116.857739 248.974579 
L 117.448146 249.47323 
L 118.038552 249.971882 
L 118.628958 250.470533 
L 119.219365 250.969185 
L 119.809771 251.467836 
L 120.400178 251.966488 
L 120.990584 252.465139 
L 121.58099 252.963791 
L 122.171397 253.462442 
L 122.761803 253.961094 
L 123.35221 254.459745 
L 123.942616 254.958397 
L 124.533022 255.457048 
L 125.123429 255.955699 
L 125.713835 256.454351 
L 126.304242 256.953002 
L 126.894648 257.451654 
L 127.485054 257.950305 
L 128.075461 258.448957 
L 128.665867 258.947608 
L 129.256274 259.44626 
L 129.84668 259.944911 
L 130.437086 260.443563 
L 131.027493 260.942214 
L 131.617899 261.440866 
L 132.208305 261.939517 
L 132.798712 262.438169 
L 133.389118 262.93682 
L 133.979525 263.435472 
L 134.569931 263.934123 
L 135.160337 264.432774 
L 135.750744 264.931426 
L 136.34115 265.430077 
L 136.931557 265.928729 
L 137.521963 266.42738 
L 138.112369 266.926032 
L 138.702776 267.424683 
L 139.293182 267.923335 
L 139.883589 268.421986 
L 140.473995 268.920638 
" style="fill:none;stroke:#f77189;stroke-linecap:round;stroke-width:2.25;"/>
   </g>
   <g id="line2d_2">
    <path clip-path="url(#p86f8602690)" d="M 189.931885 282.197948 
L 190.544999 282.291219 
L 191.158113 282.38449 
L 191.771228 282.47776 
L 192.384342 282.571031 
L 192.997456 282.664302 
L 193.610571 282.757573 
L 194.223685 282.850844 
L 194.836799 282.944114 
L 195.449914 283.037385 
L 196.063028 283.130656 
L 196.676142 283.223927 
L 197.289257 283.317198 
L 197.902371 283.410468 
L 198.515485 283.503739 
L 199.1286 283.59701 
L 199.741714 283.690281 
L 200.354828 283.783552 
L 200.967943 283.876822 
L 201.581057 283.970093 
L 202.194171 284.063364 
L 202.807286 284.156635 
L 203.4204 284.249906 
L 204.033514 284.343176 
L 204.646629 284.436447 
L 205.259743 284.529718 
L 205.872857 284.622989 
L 206.485972 284.71626 
L 207.099086 284.80953 
L 207.7122 284.902801 
L 208.325315 284.996072 
L 208.938429 285.089343 
L 209.551543 285.182614 
L 210.164658 285.275884 
L 210.777772 285.369155 
L 211.390886 285.462426 
L 212.004001 285.555697 
L 212.617115 285.648968 
L 213.230229 285.742238 
L 213.843344 285.835509 
L 214.456458 285.92878 
L 215.069572 286.022051 
L 215.682687 286.115322 
L 216.295801 286.208592 
L 216.908915 286.301863 
L 217.52203 286.395134 
L 218.135144 286.488405 
L 218.748258 286.581676 
L 219.361373 286.674946 
L 219.974487 286.768217 
L 220.587601 286.861488 
L 221.200716 286.954759 
L 221.81383 287.04803 
L 222.426944 287.1413 
L 223.040059 287.234571 
L 223.653173 287.327842 
L 224.266287 287.421113 
L 224.879402 287.514384 
L 225.492516 287.607654 
L 226.10563 287.700925 
L 226.718745 287.794196 
L 227.331859 287.887467 
L 227.944973 287.980738 
L 228.558088 288.074008 
L 229.171202 288.167279 
L 229.784316 288.26055 
L 230.397431 288.353821 
L 231.010545 288.447092 
L 231.623659 288.540362 
L 232.236774 288.633633 
L 232.849888 288.726904 
L 233.463002 288.820175 
L 234.076117 288.913446 
L 234.689231 289.006716 
L 235.302345 289.099987 
L 235.91546 289.193258 
L 236.528574 289.286529 
L 237.141688 289.3798 
L 237.754803 289.47307 
L 238.367917 289.566341 
L 238.981031 289.659612 
L 239.594146 289.752883 
L 240.20726 289.846154 
L 240.820374 289.939424 
L 241.433489 290.032695 
L 242.046603 290.125966 
L 242.659717 290.219237 
L 243.272832 290.312508 
L 243.885946 290.405778 
L 244.49906 290.499049 
L 245.112175 290.59232 
L 245.725289 290.685591 
L 246.338403 290.778862 
L 246.951518 290.872132 
L 247.564632 290.965403 
L 248.177746 291.058674 
L 248.790861 291.151945 
L 249.403975 291.245216 
L 250.017089 291.338486 
L 250.630204 291.431757 
" style="fill:none;stroke:#ef7d32;stroke-linecap:round;stroke-width:2.25;"/>
   </g>
   <g id="line2d_3">
    <path clip-path="url(#p86f8602690)" d="M 121.365265 28.204545 
L 122.398476 30.595724 
L 123.431687 32.986903 
L 124.464899 35.378081 
L 125.49811 37.76926 
L 126.531321 40.160439 
L 127.564532 42.551617 
L 128.597743 44.942796 
L 129.630954 47.333974 
L 130.664166 49.725153 
L 131.697377 52.116332 
L 132.730588 54.50751 
L 133.763799 56.898689 
L 134.79701 59.289868 
L 135.830222 61.681046 
L 136.863433 64.072225 
L 137.896644 66.463403 
L 138.929855 68.854582 
L 139.963066 71.245761 
L 140.996278 73.636939 
L 142.029489 76.028118 
L 143.0627 78.419297 
L 144.095911 80.810475 
L 145.129122 83.201654 
L 146.162334 85.592832 
L 147.195545 87.984011 
L 148.228756 90.37519 
L 149.261967 92.766368 
L 150.295178 95.157547 
L 151.32839 97.548726 
L 152.361601 99.939904 
L 153.394812 102.331083 
L 154.428023 104.722261 
L 155.461234 107.11344 
L 156.494445 109.504619 
L 157.527657 111.895797 
L 158.560868 114.286976 
L 159.594079 116.678155 
L 160.62729 119.069333 
L 161.660501 121.460512 
L 162.693713 123.85169 
L 163.726924 126.242869 
L 164.760135 128.634048 
L 165.793346 131.025226 
L 166.826557 133.416405 
L 167.859769 135.807584 
L 168.89298 138.198762 
L 169.926191 140.589941 
L 170.959402 142.981119 
L 171.992613 145.372298 
L 173.025825 147.763477 
L 174.059036 150.154655 
L 175.092247 152.545834 
L 176.125458 154.937012 
L 177.158669 157.328191 
L 178.19188 159.71937 
L 179.225092 162.110548 
L 180.258303 164.501727 
L 181.291514 166.892906 
L 182.324725 169.284084 
L 183.357936 171.675263 
L 184.391148 174.066441 
L 185.424359 176.45762 
L 186.45757 178.848799 
L 187.490781 181.239977 
L 188.523992 183.631156 
L 189.557204 186.022335 
L 190.590415 188.413513 
L 191.623626 190.804692 
L 192.656837 193.19587 
L 193.690048 195.587049 
L 194.72326 197.978228 
L 195.756471 200.369406 
L 196.789682 202.760585 
L 197.822893 205.151764 
L 198.856104 207.542942 
L 199.889315 209.934121 
L 200.922527 212.325299 
L 201.955738 214.716478 
L 202.988949 217.107657 
L 204.02216 219.498835 
L 205.055371 221.890014 
L 206.088583 224.281193 
L 207.121794 226.672371 
L 208.155005 229.06355 
L 209.188216 231.454728 
L 210.221427 233.845907 
L 211.254639 236.237086 
L 212.28785 238.628264 
L 213.321061 241.019443 
L 214.354272 243.410622 
L 215.387483 245.8018 
L 216.420695 248.192979 
L 217.453906 250.584157 
L 218.487117 252.975336 
L 219.520328 255.366515 
L 220.553539 257.757693 
L 221.58675 260.148872 
L 222.619962 262.540051 
L 223.653173 264.931229 
" style="fill:none;stroke:#c69432;stroke-linecap:round;stroke-width:2.25;"/>
   </g>
   <g id="line2d_4">
    <path clip-path="url(#p86f8602690)" d="M 101.132492 251.311214 
L 102.619862 251.792159 
L 104.107232 252.273105 
L 105.594602 252.75405 
L 107.081972 253.234995 
L 108.569342 253.71594 
L 110.056712 254.196885 
L 111.544082 254.67783 
L 113.031452 255.158776 
L 114.518822 255.639721 
L 116.006192 256.120666 
L 117.493561 256.601611 
L 118.980931 257.082556 
L 120.468301 257.563501 
L 121.955671 258.044446 
L 123.443041 258.525392 
L 124.930411 259.006337 
L 126.417781 259.487282 
L 127.905151 259.968227 
L 129.392521 260.449172 
L 130.879891 260.930117 
L 132.367261 261.411063 
L 133.854631 261.892008 
L 135.342001 262.372953 
L 136.829371 262.853898 
L 138.316741 263.334843 
L 139.804111 263.815788 
L 141.291481 264.296734 
L 142.778851 264.777679 
L 144.266221 265.258624 
L 145.753591 265.739569 
L 147.240961 266.220514 
L 148.728331 266.701459 
L 150.215701 267.182404 
L 151.70307 267.66335 
L 153.19044 268.144295 
L 154.67781 268.62524 
L 156.16518 269.106185 
L 157.65255 269.58713 
L 159.13992 270.068075 
L 160.62729 270.549021 
L 162.11466 271.029966 
L 163.60203 271.510911 
L 165.0894 271.991856 
L 166.57677 272.472801 
L 168.06414 272.953746 
L 169.55151 273.434691 
L 171.03888 273.915637 
L 172.52625 274.396582 
L 174.01362 274.877527 
L 175.50099 275.358472 
L 176.98836 275.839417 
L 178.47573 276.320362 
L 179.9631 276.801308 
L 181.45047 277.282253 
L 182.93784 277.763198 
L 184.42521 278.244143 
L 185.912579 278.725088 
L 187.399949 279.206033 
L 188.887319 279.686978 
L 190.374689 280.167924 
L 191.862059 280.648869 
L 193.349429 281.129814 
L 194.836799 281.610759 
L 196.324169 282.091704 
L 197.811539 282.572649 
L 199.298909 283.053595 
L 200.786279 283.53454 
L 202.273649 284.015485 
L 203.761019 284.49643 
L 205.248389 284.977375 
L 206.735759 285.45832 
L 208.223129 285.939266 
L 209.710499 286.420211 
L 211.197869 286.901156 
L 212.685239 287.382101 
L 214.172609 287.863046 
L 215.659979 288.343991 
L 217.147349 288.824936 
L 218.634719 289.305882 
L 220.122088 289.786827 
L 221.609458 290.267772 
L 223.096828 290.748717 
L 224.584198 291.229662 
L 226.071568 291.710607 
L 227.558938 292.191553 
L 229.046308 292.672498 
L 230.533678 293.153443 
L 232.021048 293.634388 
L 233.508418 294.115333 
L 234.995788 294.596278 
L 236.483158 295.077223 
L 237.970528 295.558169 
L 239.457898 296.039114 
L 240.945268 296.520059 
L 242.432638 297.001004 
L 243.920008 297.481949 
L 245.407378 297.962894 
L 246.894748 298.44384 
L 248.382118 298.924785 
" style="fill:none;stroke:#a79f31;stroke-linecap:round;stroke-width:2.25;"/>
   </g>
   <g id="line2d_5">
    <path clip-path="url(#p86f8602690)" d="M 152.838467 282.431001 
L 153.587829 282.413054 
L 154.337191 282.395108 
L 155.086553 282.377162 
L 155.835915 282.359216 
L 156.585277 282.341269 
L 157.334639 282.323323 
L 158.084001 282.305377 
L 158.833363 282.28743 
L 159.582725 282.269484 
L 160.332087 282.251538 
L 161.081449 282.233592 
L 161.830811 282.215645 
L 162.580173 282.197699 
L 163.329535 282.179753 
L 164.078897 282.161806 
L 164.828259 282.14386 
L 165.577621 282.125914 
L 166.326983 282.107968 
L 167.076345 282.090021 
L 167.825707 282.072075 
L 168.575069 282.054129 
L 169.324431 282.036182 
L 170.073793 282.018236 
L 170.823154 282.00029 
L 171.572516 281.982344 
L 172.321878 281.964397 
L 173.07124 281.946451 
L 173.820602 281.928505 
L 174.569964 281.910558 
L 175.319326 281.892612 
L 176.068688 281.874666 
L 176.81805 281.85672 
L 177.567412 281.838773 
L 178.316774 281.820827 
L 179.066136 281.802881 
L 179.815498 281.784934 
L 180.56486 281.766988 
L 181.314222 281.749042 
L 182.063584 281.731096 
L 182.812946 281.713149 
L 183.562308 281.695203 
L 184.31167 281.677257 
L 185.061032 281.65931 
L 185.810394 281.641364 
L 186.559756 281.623418 
L 187.309118 281.605472 
L 188.05848 281.587525 
L 188.807842 281.569579 
L 189.557204 281.551633 
L 190.306566 281.533686 
L 191.055927 281.51574 
L 191.805289 281.497794 
L 192.554651 281.479848 
L 193.304013 281.461901 
L 194.053375 281.443955 
L 194.802737 281.426009 
L 195.552099 281.408062 
L 196.301461 281.390116 
L 197.050823 281.37217 
L 197.800185 281.354224 
L 198.549547 281.336277 
L 199.298909 281.318331 
L 200.048271 281.300385 
L 200.797633 281.282438 
L 201.546995 281.264492 
L 202.296357 281.246546 
L 203.045719 281.228599 
L 203.795081 281.210653 
L 204.544443 281.192707 
L 205.293805 281.174761 
L 206.043167 281.156814 
L 206.792529 281.138868 
L 207.541891 281.120922 
L 208.291253 281.102975 
L 209.040615 281.085029 
L 209.789977 281.067083 
L 210.539339 281.049137 
L 211.2887 281.03119 
L 212.038062 281.013244 
L 212.787424 280.995298 
L 213.536786 280.977351 
L 214.286148 280.959405 
L 215.03551 280.941459 
L 215.784872 280.923513 
L 216.534234 280.905566 
L 217.283596 280.88762 
L 218.032958 280.869674 
L 218.78232 280.851727 
L 219.531682 280.833781 
L 220.281044 280.815835 
L 221.030406 280.797889 
L 221.779768 280.779942 
L 222.52913 280.761996 
L 223.278492 280.74405 
L 224.027854 280.726103 
L 224.777216 280.708157 
L 225.526578 280.690211 
L 226.27594 280.672265 
L 227.025302 280.654318 
" style="fill:none;stroke:#82a931;stroke-linecap:round;stroke-width:2.25;"/>
   </g>
   <g id="line2d_6">
    <path clip-path="url(#p86f8602690)" d="M 113.496964 218.796213 
L 114.189556 218.974974 
L 114.882149 219.153736 
L 115.574741 219.332498 
L 116.267333 219.511259 
L 116.959925 219.690021 
L 117.652517 219.868782 
L 118.345109 220.047544 
L 119.037701 220.226306 
L 119.730293 220.405067 
L 120.422886 220.583829 
L 121.115478 220.762591 
L 121.80807 220.941352 
L 122.500662 221.120114 
L 123.193254 221.298876 
L 123.885846 221.477637 
L 124.578438 221.656399 
L 125.27103 221.83516 
L 125.963622 222.013922 
L 126.656215 222.192684 
L 127.348807 222.371445 
L 128.041399 222.550207 
L 128.733991 222.728969 
L 129.426583 222.90773 
L 130.119175 223.086492 
L 130.811767 223.265254 
L 131.504359 223.444015 
L 132.196952 223.622777 
L 132.889544 223.801538 
L 133.582136 223.9803 
L 134.274728 224.159062 
L 134.96732 224.337823 
L 135.659912 224.516585 
L 136.352504 224.695347 
L 137.045096 224.874108 
L 137.737688 225.05287 
L 138.430281 225.231631 
L 139.122873 225.410393 
L 139.815465 225.589155 
L 140.508057 225.767916 
L 141.200649 225.946678 
L 141.893241 226.12544 
L 142.585833 226.304201 
L 143.278425 226.482963 
L 143.971018 226.661725 
L 144.66361 226.840486 
L 145.356202 227.019248 
L 146.048794 227.198009 
L 146.741386 227.376771 
L 147.433978 227.555533 
L 148.12657 227.734294 
L 148.819162 227.913056 
L 149.511754 228.091818 
L 150.204347 228.270579 
L 150.896939 228.449341 
L 151.589531 228.628103 
L 152.282123 228.806864 
L 152.974715 228.985626 
L 153.667307 229.164387 
L 154.359899 229.343149 
L 155.052491 229.521911 
L 155.745083 229.700672 
L 156.437676 229.879434 
L 157.130268 230.058196 
L 157.82286 230.236957 
L 158.515452 230.415719 
L 159.208044 230.59448 
L 159.900636 230.773242 
L 160.593228 230.952004 
L 161.28582 231.130765 
L 161.978413 231.309527 
L 162.671005 231.488289 
L 163.363597 231.66705 
L 164.056189 231.845812 
L 164.748781 232.024574 
L 165.441373 232.203335 
L 166.133965 232.382097 
L 166.826557 232.560858 
L 167.519149 232.73962 
L 168.211742 232.918382 
L 168.904334 233.097143 
L 169.596926 233.275905 
L 170.289518 233.454667 
L 170.98211 233.633428 
L 171.674702 233.81219 
L 172.367294 233.990951 
L 173.059886 234.169713 
L 173.752479 234.348475 
L 174.445071 234.527236 
L 175.137663 234.705998 
L 175.830255 234.88476 
L 176.522847 235.063521 
L 177.215439 235.242283 
L 177.908031 235.421045 
L 178.600623 235.599806 
L 179.293215 235.778568 
L 179.985808 235.957329 
L 180.6784 236.136091 
L 181.370992 236.314853 
L 182.063584 236.493614 
" style="fill:none;stroke:#32b24e;stroke-linecap:round;stroke-width:2.25;"/>
   </g>
   <g id="line2d_7">
    <path clip-path="url(#p86f8602690)" d="M 77.52759 160.166516 
L 78.651633 161.642566 
L 79.775676 163.118615 
L 80.899719 164.594665 
L 82.023762 166.070715 
L 83.147805 167.546765 
L 84.271848 169.022815 
L 85.395891 170.498865 
L 86.519934 171.974915 
L 87.643977 173.450965 
L 88.76802 174.927015 
L 89.892063 176.403064 
L 91.016105 177.879114 
L 92.140148 179.355164 
L 93.264191 180.831214 
L 94.388234 182.307264 
L 95.512277 183.783314 
L 96.63632 185.259364 
L 97.760363 186.735414 
L 98.884406 188.211464 
L 100.008449 189.687513 
L 101.132492 191.163563 
L 102.256535 192.639613 
L 103.380578 194.115663 
L 104.504621 195.591713 
L 105.628664 197.067763 
L 106.752707 198.543813 
L 107.87675 200.019863 
L 109.000793 201.495913 
L 110.124836 202.971962 
L 111.248878 204.448012 
L 112.372921 205.924062 
L 113.496964 207.400112 
L 114.621007 208.876162 
L 115.74505 210.352212 
L 116.869093 211.828262 
L 117.993136 213.304312 
L 119.117179 214.780362 
L 120.241222 216.256411 
L 121.365265 217.732461 
L 122.489308 219.208511 
L 123.613351 220.684561 
L 124.737394 222.160611 
L 125.861437 223.636661 
L 126.98548 225.112711 
L 128.109523 226.588761 
L 129.233566 228.064811 
L 130.357609 229.54086 
L 131.481651 231.01691 
L 132.605694 232.49296 
L 133.729737 233.96901 
L 134.85378 235.44506 
L 135.977823 236.92111 
L 137.101866 238.39716 
L 138.225909 239.87321 
L 139.349952 241.34926 
L 140.473995 242.825309 
L 141.598038 244.301359 
L 142.722081 245.777409 
L 143.846124 247.253459 
L 144.970167 248.729509 
L 146.09421 250.205559 
L 147.218253 251.681609 
L 148.342296 253.157659 
L 149.466339 254.633708 
L 150.590382 256.109758 
L 151.714424 257.585808 
L 152.838467 259.061858 
L 153.96251 260.537908 
L 155.086553 262.013958 
L 156.210596 263.490008 
L 157.334639 264.966058 
L 158.458682 266.442108 
L 159.582725 267.918157 
L 160.706768 269.394207 
L 161.830811 270.870257 
L 162.954854 272.346307 
L 164.078897 273.822357 
L 165.20294 275.298407 
L 166.326983 276.774457 
L 167.451026 278.250507 
L 168.575069 279.726557 
L 169.699112 281.202606 
L 170.823154 282.678656 
L 171.947197 284.154706 
L 173.07124 285.630756 
L 174.195283 287.106806 
L 175.319326 288.582856 
L 176.443369 290.058906 
L 177.567412 291.534956 
L 178.691455 293.011006 
L 179.815498 294.487055 
L 180.939541 295.963105 
L 182.063584 297.439155 
L 183.187627 298.915205 
L 184.31167 300.391255 
L 185.435713 301.867305 
L 186.559756 303.343355 
L 187.683799 304.819405 
L 188.807842 306.295455 
" style="fill:none;stroke:#34af8a;stroke-linecap:round;stroke-width:2.25;"/>
   </g>
   <g id="line2d_8">
    <path clip-path="url(#p86f8602690)" d="M 126.98548 252.460536 
L 127.678072 251.950693 
L 128.370664 251.440851 
L 129.063256 250.931008 
L 129.755848 250.421165 
L 130.44844 249.911323 
L 131.141032 249.40148 
L 131.833625 248.891637 
L 132.526217 248.381795 
L 133.218809 247.871952 
L 133.911401 247.362109 
L 134.603993 246.852267 
L 135.296585 246.342424 
L 135.989177 245.832581 
L 136.681769 245.322739 
L 137.374361 244.812896 
L 138.066954 244.303053 
L 138.759546 243.793211 
L 139.452138 243.283368 
L 140.14473 242.773525 
L 140.837322 242.263683 
L 141.529914 241.75384 
L 142.222506 241.243998 
L 142.915098 240.734155 
L 143.60769 240.224312 
L 144.300283 239.71447 
L 144.992875 239.204627 
L 145.685467 238.694784 
L 146.378059 238.184942 
L 147.070651 237.675099 
L 147.763243 237.165256 
L 148.455835 236.655414 
L 149.148427 236.145571 
L 149.84102 235.635728 
L 150.533612 235.125886 
L 151.226204 234.616043 
L 151.918796 234.1062 
L 152.611388 233.596358 
L 153.30398 233.086515 
L 153.996572 232.576672 
L 154.689164 232.06683 
L 155.381756 231.556987 
L 156.074349 231.047145 
L 156.766941 230.537302 
L 157.459533 230.027459 
L 158.152125 229.517617 
L 158.844717 229.007774 
L 159.537309 228.497931 
L 160.229901 227.988089 
L 160.922493 227.478246 
L 161.615086 226.968403 
L 162.307678 226.458561 
L 163.00027 225.948718 
L 163.692862 225.438875 
L 164.385454 224.929033 
L 165.078046 224.41919 
L 165.770638 223.909347 
L 166.46323 223.399505 
L 167.155822 222.889662 
L 167.848415 222.379819 
L 168.541007 221.869977 
L 169.233599 221.360134 
L 169.926191 220.850291 
L 170.618783 220.340449 
L 171.311375 219.830606 
L 172.003967 219.320764 
L 172.696559 218.810921 
L 173.389152 218.301078 
L 174.081744 217.791236 
L 174.774336 217.281393 
L 175.466928 216.77155 
L 176.15952 216.261708 
L 176.852112 215.751865 
L 177.544704 215.242022 
L 178.237296 214.73218 
L 178.929888 214.222337 
L 179.622481 213.712494 
L 180.315073 213.202652 
L 181.007665 212.692809 
L 181.700257 212.182966 
L 182.392849 211.673124 
L 183.085441 211.163281 
L 183.778033 210.653438 
L 184.470625 210.143596 
L 185.163218 209.633753 
L 185.85581 209.123911 
L 186.548402 208.614068 
L 187.240994 208.104225 
L 187.933586 207.594383 
L 188.626178 207.08454 
L 189.31877 206.574697 
L 190.011362 206.064855 
L 190.703954 205.555012 
L 191.396547 205.045169 
L 192.089139 204.535327 
L 192.781731 204.025484 
L 193.474323 203.515641 
L 194.166915 203.005799 
L 194.859507 202.495956 
L 195.552099 201.986113 
" style="fill:none;stroke:#36ada4;stroke-linecap:round;stroke-width:2.25;"/>
   </g>
   <g id="line2d_9">
    <path clip-path="url(#p86f8602690)" d="M 121.365265 232.024622 
L 122.069211 231.504762 
L 122.773157 230.984903 
L 123.477103 230.465043 
L 124.181049 229.945183 
L 124.884995 229.425324 
L 125.588941 228.905464 
L 126.292888 228.385605 
L 126.996834 227.865745 
L 127.70078 227.345885 
L 128.404726 226.826026 
L 129.108672 226.306166 
L 129.812618 225.786306 
L 130.516564 225.266447 
L 131.22051 224.746587 
L 131.924456 224.226728 
L 132.628402 223.706868 
L 133.332348 223.187008 
L 134.036295 222.667149 
L 134.740241 222.147289 
L 135.444187 221.62743 
L 136.148133 221.10757 
L 136.852079 220.58771 
L 137.556025 220.067851 
L 138.259971 219.547991 
L 138.963917 219.028132 
L 139.667863 218.508272 
L 140.371809 217.988412 
L 141.075755 217.468553 
L 141.779701 216.948693 
L 142.483648 216.428833 
L 143.187594 215.908974 
L 143.89154 215.389114 
L 144.595486 214.869255 
L 145.299432 214.349395 
L 146.003378 213.829535 
L 146.707324 213.309676 
L 147.41127 212.789816 
L 148.115216 212.269957 
L 148.819162 211.750097 
L 149.523108 211.230237 
L 150.227054 210.710378 
L 150.931001 210.190518 
L 151.634947 209.670659 
L 152.338893 209.150799 
L 153.042839 208.630939 
L 153.746785 208.11108 
L 154.450731 207.59122 
L 155.154677 207.071361 
L 155.858623 206.551501 
L 156.562569 206.031641 
L 157.266515 205.511782 
L 157.970461 204.991922 
L 158.674408 204.472062 
L 159.378354 203.952203 
L 160.0823 203.432343 
L 160.786246 202.912484 
L 161.490192 202.392624 
L 162.194138 201.872764 
L 162.898084 201.352905 
L 163.60203 200.833045 
L 164.305976 200.313186 
L 165.009922 199.793326 
L 165.713868 199.273466 
L 166.417814 198.753607 
L 167.121761 198.233747 
L 167.825707 197.713888 
L 168.529653 197.194028 
L 169.233599 196.674168 
L 169.937545 196.154309 
L 170.641491 195.634449 
L 171.345437 195.114589 
L 172.049383 194.59473 
L 172.753329 194.07487 
L 173.457275 193.555011 
L 174.161221 193.035151 
L 174.865168 192.515291 
L 175.569114 191.995432 
L 176.27306 191.475572 
L 176.977006 190.955713 
L 177.680952 190.435853 
L 178.384898 189.915993 
L 179.088844 189.396134 
L 179.79279 188.876274 
L 180.496736 188.356415 
L 181.200682 187.836555 
L 181.904628 187.316695 
L 182.608574 186.796836 
L 183.312521 186.276976 
L 184.016467 185.757116 
L 184.720413 185.237257 
L 185.424359 184.717397 
L 186.128305 184.197538 
L 186.832251 183.677678 
L 187.536197 183.157818 
L 188.240143 182.637959 
L 188.944089 182.118099 
L 189.648035 181.59824 
L 190.351981 181.07838 
L 191.055927 180.55852 
" style="fill:none;stroke:#37aabb;stroke-linecap:round;stroke-width:2.25;"/>
   </g>
   <g id="line2d_10">
    <path clip-path="url(#p86f8602690)" d="M 89.892063 249.10781 
L 90.879858 249.541482 
L 91.867653 249.975155 
L 92.855448 250.408828 
L 93.843244 250.8425 
L 94.831039 251.276173 
L 95.818834 251.709845 
L 96.80663 252.143518 
L 97.794425 252.57719 
L 98.78222 253.010863 
L 99.770016 253.444535 
L 100.757811 253.878208 
L 101.745606 254.31188 
L 102.733402 254.745553 
L 103.721197 255.179226 
L 104.708992 255.612898 
L 105.696788 256.046571 
L 106.684583 256.480243 
L 107.672378 256.913916 
L 108.660174 257.347588 
L 109.647969 257.781261 
L 110.635764 258.214933 
L 111.623559 258.648606 
L 112.611355 259.082278 
L 113.59915 259.515951 
L 114.586945 259.949624 
L 115.574741 260.383296 
L 116.562536 260.816969 
L 117.550331 261.250641 
L 118.538127 261.684314 
L 119.525922 262.117986 
L 120.513717 262.551659 
L 121.501513 262.985331 
L 122.489308 263.419004 
L 123.477103 263.852677 
L 124.464899 264.286349 
L 125.452694 264.720022 
L 126.440489 265.153694 
L 127.428284 265.587367 
L 128.41608 266.021039 
L 129.403875 266.454712 
L 130.39167 266.888384 
L 131.379466 267.322057 
L 132.367261 267.755729 
L 133.355056 268.189402 
L 134.342852 268.623075 
L 135.330647 269.056747 
L 136.318442 269.49042 
L 137.306238 269.924092 
L 138.294033 270.357765 
L 139.281828 270.791437 
L 140.269624 271.22511 
L 141.257419 271.658782 
L 142.245214 272.092455 
L 143.23301 272.526127 
L 144.220805 272.9598 
L 145.2086 273.393473 
L 146.196395 273.827145 
L 147.184191 274.260818 
L 148.171986 274.69449 
L 149.159781 275.128163 
L 150.147577 275.561835 
L 151.135372 275.995508 
L 152.123167 276.42918 
L 153.110963 276.862853 
L 154.098758 277.296525 
L 155.086553 277.730198 
L 156.074349 278.163871 
L 157.062144 278.597543 
L 158.049939 279.031216 
L 159.037735 279.464888 
L 160.02553 279.898561 
L 161.013325 280.332233 
L 162.00112 280.765906 
L 162.988916 281.199578 
L 163.976711 281.633251 
L 164.964506 282.066923 
L 165.952302 282.500596 
L 166.940097 282.934269 
L 167.927892 283.367941 
L 168.915688 283.801614 
L 169.903483 284.235286 
L 170.891278 284.668959 
L 171.879074 285.102631 
L 172.866869 285.536304 
L 173.854664 285.969976 
L 174.84246 286.403649 
L 175.830255 286.837322 
L 176.81805 287.270994 
L 177.805846 287.704667 
L 178.793641 288.138339 
L 179.781436 288.572012 
L 180.769231 289.005684 
L 181.757027 289.439357 
L 182.744822 289.873029 
L 183.732617 290.306702 
L 184.720413 290.740374 
L 185.708208 291.174047 
L 186.696003 291.60772 
L 187.683799 292.041392 
" style="fill:none;stroke:#3aa6da;stroke-linecap:round;stroke-width:2.25;"/>
   </g>
   <g id="line2d_11">
    <path clip-path="url(#p86f8602690)" d="M 98.884406 209.202103 
L 99.792724 210.085075 
L 100.701041 210.968047 
L 101.609359 211.851019 
L 102.517676 212.733991 
L 103.425994 213.616963 
L 104.334311 214.499935 
L 105.242629 215.382907 
L 106.150946 216.265879 
L 107.059264 217.148851 
L 107.967581 218.031823 
L 108.875899 218.914795 
L 109.784216 219.797766 
L 110.692534 220.680738 
L 111.600852 221.56371 
L 112.509169 222.446682 
L 113.417487 223.329654 
L 114.325804 224.212626 
L 115.234122 225.095598 
L 116.142439 225.97857 
L 117.050757 226.861542 
L 117.959074 227.744514 
L 118.867392 228.627486 
L 119.775709 229.510458 
L 120.684027 230.39343 
L 121.592344 231.276402 
L 122.500662 232.159373 
L 123.408979 233.042345 
L 124.317297 233.925317 
L 125.225614 234.808289 
L 126.133932 235.691261 
L 127.04225 236.574233 
L 127.950567 237.457205 
L 128.858885 238.340177 
L 129.767202 239.223149 
L 130.67552 240.106121 
L 131.583837 240.989093 
L 132.492155 241.872065 
L 133.400472 242.755037 
L 134.30879 243.638009 
L 135.217107 244.52098 
L 136.125425 245.403952 
L 137.033742 246.286924 
L 137.94206 247.169896 
L 138.850377 248.052868 
L 139.758695 248.93584 
L 140.667012 249.818812 
L 141.57533 250.701784 
L 142.483648 251.584756 
L 143.391965 252.467728 
L 144.300283 253.3507 
L 145.2086 254.233672 
L 146.116918 255.116644 
L 147.025235 255.999616 
L 147.933553 256.882587 
L 148.84187 257.765559 
L 149.750188 258.648531 
L 150.658505 259.531503 
L 151.566823 260.414475 
L 152.47514 261.297447 
L 153.383458 262.180419 
L 154.291775 263.063391 
L 155.200093 263.946363 
L 156.108411 264.829335 
L 157.016728 265.712307 
L 157.925046 266.595279 
L 158.833363 267.478251 
L 159.741681 268.361223 
L 160.649998 269.244195 
L 161.558316 270.127166 
L 162.466633 271.010138 
L 163.374951 271.89311 
L 164.283268 272.776082 
L 165.191586 273.659054 
L 166.099903 274.542026 
L 167.008221 275.424998 
L 167.916538 276.30797 
L 168.824856 277.190942 
L 169.733173 278.073914 
L 170.641491 278.956886 
L 171.549809 279.839858 
L 172.458126 280.72283 
L 173.366444 281.605802 
L 174.274761 282.488773 
L 175.183079 283.371745 
L 176.091396 284.254717 
L 176.999714 285.137689 
L 177.908031 286.020661 
L 178.816349 286.903633 
L 179.724666 287.786605 
L 180.632984 288.669577 
L 181.541301 289.552549 
L 182.449619 290.435521 
L 183.357936 291.318493 
L 184.266254 292.201465 
L 185.174571 293.084437 
L 186.082889 293.967409 
L 186.991207 294.85038 
L 187.899524 295.733352 
L 188.807842 296.616324 
" style="fill:none;stroke:#8197f4;stroke-linecap:round;stroke-width:2.25;"/>
   </g>
   <g id="line2d_12">
    <path clip-path="url(#p86f8602690)" d="M 156.210596 262.38015 
L 156.812357 262.605338 
L 157.414117 262.830526 
L 158.015877 263.055714 
L 158.617638 263.280902 
L 159.219398 263.506089 
L 159.821158 263.731277 
L 160.422919 263.956465 
L 161.024679 264.181653 
L 161.62644 264.406841 
L 162.2282 264.632029 
L 162.82996 264.857217 
L 163.431721 265.082404 
L 164.033481 265.307592 
L 164.635241 265.53278 
L 165.237002 265.757968 
L 165.838762 265.983156 
L 166.440522 266.208344 
L 167.042283 266.433532 
L 167.644043 266.65872 
L 168.245804 266.883907 
L 168.847564 267.109095 
L 169.449324 267.334283 
L 170.051085 267.559471 
L 170.652845 267.784659 
L 171.254605 268.009847 
L 171.856366 268.235035 
L 172.458126 268.460223 
L 173.059886 268.68541 
L 173.661647 268.910598 
L 174.263407 269.135786 
L 174.865168 269.360974 
L 175.466928 269.586162 
L 176.068688 269.81135 
L 176.670449 270.036538 
L 177.272209 270.261726 
L 177.873969 270.486913 
L 178.47573 270.712101 
L 179.07749 270.937289 
L 179.67925 271.162477 
L 180.281011 271.387665 
L 180.882771 271.612853 
L 181.484532 271.838041 
L 182.086292 272.063229 
L 182.688052 272.288416 
L 183.289813 272.513604 
L 183.891573 272.738792 
L 184.493333 272.96398 
L 185.095094 273.189168 
L 185.696854 273.414356 
L 186.298614 273.639544 
L 186.900375 273.864732 
L 187.502135 274.089919 
L 188.103896 274.315107 
L 188.705656 274.540295 
L 189.307416 274.765483 
L 189.909177 274.990671 
L 190.510937 275.215859 
L 191.112697 275.441047 
L 191.714458 275.666235 
L 192.316218 275.891422 
L 192.917978 276.11661 
L 193.519739 276.341798 
L 194.121499 276.566986 
L 194.72326 276.792174 
L 195.32502 277.017362 
L 195.92678 277.24255 
L 196.528541 277.467738 
L 197.130301 277.692925 
L 197.732061 277.918113 
L 198.333822 278.143301 
L 198.935582 278.368489 
L 199.537342 278.593677 
L 200.139103 278.818865 
L 200.740863 279.044053 
L 201.342624 279.269241 
L 201.944384 279.494428 
L 202.546144 279.719616 
L 203.147905 279.944804 
L 203.749665 280.169992 
L 204.351425 280.39518 
L 204.953186 280.620368 
L 205.554946 280.845556 
L 206.156706 281.070744 
L 206.758467 281.295931 
L 207.360227 281.521119 
L 207.961988 281.746307 
L 208.563748 281.971495 
L 209.165508 282.196683 
L 209.767269 282.421871 
L 210.369029 282.647059 
L 210.970789 282.872247 
L 211.57255 283.097434 
L 212.17431 283.322622 
L 212.77607 283.54781 
L 213.377831 283.772998 
L 213.979591 283.998186 
L 214.581352 284.223374 
L 215.183112 284.448562 
L 215.784872 284.67375 
" style="fill:none;stroke:#c180f4;stroke-linecap:round;stroke-width:2.25;"/>
   </g>
   <g id="line2d_13">
    <path clip-path="url(#p86f8602690)" d="M 197.800185 289.028603 
L 198.560901 289.031547 
L 199.321617 289.034491 
L 200.082333 289.037435 
L 200.843049 289.04038 
L 201.603765 289.043324 
L 202.364481 289.046268 
L 203.125197 289.049212 
L 203.885913 289.052157 
L 204.646629 289.055101 
L 205.407344 289.058045 
L 206.16806 289.060989 
L 206.928776 289.063934 
L 207.689492 289.066878 
L 208.450208 289.069822 
L 209.210924 289.072766 
L 209.97164 289.075711 
L 210.732356 289.078655 
L 211.493072 289.081599 
L 212.253788 289.084543 
L 213.014504 289.087488 
L 213.77522 289.090432 
L 214.535936 289.093376 
L 215.296652 289.09632 
L 216.057368 289.099265 
L 216.818083 289.102209 
L 217.578799 289.105153 
L 218.339515 289.108097 
L 219.100231 289.111042 
L 219.860947 289.113986 
L 220.621663 289.11693 
L 221.382379 289.119874 
L 222.143095 289.122819 
L 222.903811 289.125763 
L 223.664527 289.128707 
L 224.425243 289.131651 
L 225.185959 289.134596 
L 225.946675 289.13754 
L 226.707391 289.140484 
L 227.468106 289.143428 
L 228.228822 289.146373 
L 228.989538 289.149317 
L 229.750254 289.152261 
L 230.51097 289.155205 
L 231.271686 289.15815 
L 232.032402 289.161094 
L 232.793118 289.164038 
L 233.553834 289.166982 
L 234.31455 289.169927 
L 235.075266 289.172871 
L 235.835982 289.175815 
L 236.596698 289.178759 
L 237.357414 289.181704 
L 238.11813 289.184648 
L 238.878845 289.187592 
L 239.639561 289.190536 
L 240.400277 289.193481 
L 241.160993 289.196425 
L 241.921709 289.199369 
L 242.682425 289.202313 
L 243.443141 289.205258 
L 244.203857 289.208202 
L 244.964573 289.211146 
L 245.725289 289.21409 
L 246.486005 289.217035 
L 247.246721 289.219979 
L 248.007437 289.222923 
L 248.768153 289.225867 
L 249.528869 289.228811 
L 250.289584 289.231756 
L 251.0503 289.2347 
L 251.811016 289.237644 
L 252.571732 289.240588 
L 253.332448 289.243533 
L 254.093164 289.246477 
L 254.85388 289.249421 
L 255.614596 289.252365 
L 256.375312 289.25531 
L 257.136028 289.258254 
L 257.896744 289.261198 
L 258.65746 289.264142 
L 259.418176 289.267087 
L 260.178892 289.270031 
L 260.939607 289.272975 
L 261.700323 289.275919 
L 262.461039 289.278864 
L 263.221755 289.281808 
L 263.982471 289.284752 
L 264.743187 289.287696 
L 265.503903 289.290641 
L 266.264619 289.293585 
L 267.025335 289.296529 
L 267.786051 289.299473 
L 268.546767 289.302418 
L 269.307483 289.305362 
L 270.068199 289.308306 
L 270.828915 289.31125 
L 271.589631 289.314195 
L 272.350346 289.317139 
L 273.111062 289.320083 
" style="fill:none;stroke:#f45deb;stroke-linecap:round;stroke-width:2.25;"/>
   </g>
   <g id="line2d_14">
    <path clip-path="url(#p86f8602690)" d="M 271.987019 287.693205 
L 272.668258 287.707985 
L 273.349496 287.722766 
L 274.030734 287.737546 
L 274.711972 287.752327 
L 275.39321 287.767107 
L 276.074448 287.781888 
L 276.755686 287.796668 
L 277.436925 287.811449 
L 278.118163 287.826229 
L 278.799401 287.841009 
L 279.480639 287.85579 
L 280.161877 287.87057 
L 280.843115 287.885351 
L 281.524354 287.900131 
L 282.205592 287.914912 
L 282.88683 287.929692 
L 283.568068 287.944473 
L 284.249306 287.959253 
L 284.930544 287.974033 
L 285.611782 287.988814 
L 286.293021 288.003594 
L 286.974259 288.018375 
L 287.655497 288.033155 
L 288.336735 288.047936 
L 289.017973 288.062716 
L 289.699211 288.077497 
L 290.380449 288.092277 
L 291.061688 288.107057 
L 291.742926 288.121838 
L 292.424164 288.136618 
L 293.105402 288.151399 
L 293.78664 288.166179 
L 294.467878 288.18096 
L 295.149116 288.19574 
L 295.830355 288.210521 
L 296.511593 288.225301 
L 297.192831 288.240081 
L 297.874069 288.254862 
L 298.555307 288.269642 
L 299.236545 288.284423 
L 299.917784 288.299203 
L 300.599022 288.313984 
L 301.28026 288.328764 
L 301.961498 288.343545 
L 302.642736 288.358325 
L 303.323974 288.373105 
L 304.005212 288.387886 
L 304.686451 288.402666 
L 305.367689 288.417447 
L 306.048927 288.432227 
L 306.730165 288.447008 
L 307.411403 288.461788 
L 308.092641 288.476569 
L 308.773879 288.491349 
L 309.455118 288.506129 
L 310.136356 288.52091 
L 310.817594 288.53569 
L 311.498832 288.550471 
L 312.18007 288.565251 
L 312.861308 288.580032 
L 313.542546 288.594812 
L 314.223785 288.609593 
L 314.905023 288.624373 
L 315.586261 288.639153 
L 316.267499 288.653934 
L 316.948737 288.668714 
L 317.629975 288.683495 
L 318.311214 288.698275 
L 318.992452 288.713056 
L 319.67369 288.727836 
L 320.354928 288.742616 
L 321.036166 288.757397 
L 321.717404 288.772177 
L 322.398642 288.786958 
L 323.079881 288.801738 
L 323.761119 288.816519 
L 324.442357 288.831299 
L 325.123595 288.84608 
L 325.804833 288.86086 
L 326.486071 288.87564 
L 327.167309 288.890421 
L 327.848548 288.905201 
L 328.529786 288.919982 
L 329.211024 288.934762 
L 329.892262 288.949543 
L 330.5735 288.964323 
L 331.254738 288.979104 
L 331.935976 288.993884 
L 332.617215 289.008664 
L 333.298453 289.023445 
L 333.979691 289.038225 
L 334.660929 289.053006 
L 335.342167 289.067786 
L 336.023405 289.082567 
L 336.704643 289.097347 
L 337.385882 289.112128 
L 338.06712 289.126908 
L 338.748358 289.141688 
L 339.429596 289.156469 
" style="fill:none;stroke:#f669ba;stroke-linecap:round;stroke-width:2.25;"/>
   </g>
   <g id="patch_3">
    <path d="M 61.367925 320.2 
L 61.367925 14.3 
" style="fill:none;stroke:#262626;stroke-linecap:square;stroke-linejoin:miter;stroke-width:0.8;"/>
   </g>
   <g id="patch_4">
    <path d="M 61.367925 320.2 
L 355.61875 320.2 
" style="fill:none;stroke:#262626;stroke-linecap:square;stroke-linejoin:miter;stroke-width:0.8;"/>
   </g>
   <g id="text_13">
    <!-- r=-0.422, p=0.00013 -->
    <defs>
     <path d="M 52.828125 42.09375 
L 5.5625 42.09375 
L 5.5625 50.296875 
L 52.828125 50.296875 
z
M 52.828125 20.359375 
L 5.5625 20.359375 
L 5.5625 28.5625 
L 52.828125 28.5625 
z
" id="ArialMT-61"/>
     <path d="M 3.171875 21.484375 
L 3.171875 30.328125 
L 30.171875 30.328125 
L 30.171875 21.484375 
z
" id="ArialMT-45"/>
     <path d="M 32.328125 0 
L 32.328125 17.140625 
L 1.265625 17.140625 
L 1.265625 25.203125 
L 33.9375 71.578125 
L 41.109375 71.578125 
L 41.109375 25.203125 
L 50.78125 25.203125 
L 50.78125 17.140625 
L 41.109375 17.140625 
L 41.109375 0 
z
M 32.328125 25.203125 
L 32.328125 57.46875 
L 9.90625 25.203125 
z
" id="ArialMT-52"/>
     <path d="M 8.890625 0 
L 8.890625 10.015625 
L 18.890625 10.015625 
L 18.890625 0 
Q 18.890625 -5.515625 16.9375 -8.90625 
Q 14.984375 -12.3125 10.75 -14.15625 
L 8.296875 -10.40625 
Q 11.078125 -9.1875 12.390625 -6.8125 
Q 13.71875 -4.4375 13.875 0 
z
" id="ArialMT-44"/>
     <path d="M 6.59375 -19.875 
L 6.59375 51.859375 
L 14.59375 51.859375 
L 14.59375 45.125 
Q 17.4375 49.078125 21 51.046875 
Q 24.5625 53.03125 29.640625 53.03125 
Q 36.28125 53.03125 41.359375 49.609375 
Q 46.4375 46.1875 49.015625 39.953125 
Q 51.609375 33.734375 51.609375 26.3125 
Q 51.609375 18.359375 48.75 11.984375 
Q 45.90625 5.609375 40.453125 2.21875 
Q 35.015625 -1.171875 29 -1.171875 
Q 24.609375 -1.171875 21.109375 0.6875 
Q 17.625 2.546875 15.375 5.375 
L 15.375 -19.875 
z
M 14.546875 25.640625 
Q 14.546875 15.625 18.59375 10.84375 
Q 22.65625 6.0625 28.421875 6.0625 
Q 34.28125 6.0625 38.453125 11.015625 
Q 42.625 15.96875 42.625 26.375 
Q 42.625 36.28125 38.546875 41.203125 
Q 34.46875 46.140625 28.8125 46.140625 
Q 23.1875 46.140625 18.859375 40.890625 
Q 14.546875 35.640625 14.546875 25.640625 
z
" id="ArialMT-112"/>
     <path d="M 4.203125 18.890625 
L 12.984375 20.0625 
Q 14.5 12.59375 18.140625 9.296875 
Q 21.78125 6 27 6 
Q 33.203125 6 37.46875 10.296875 
Q 41.75 14.59375 41.75 20.953125 
Q 41.75 27 37.796875 30.921875 
Q 33.84375 34.859375 27.734375 34.859375 
Q 25.25 34.859375 21.53125 33.890625 
L 22.515625 41.609375 
Q 23.390625 41.5 23.921875 41.5 
Q 29.546875 41.5 34.03125 44.421875 
Q 38.53125 47.359375 38.53125 53.46875 
Q 38.53125 58.296875 35.25 61.46875 
Q 31.984375 64.65625 26.8125 64.65625 
Q 21.6875 64.65625 18.265625 61.421875 
Q 14.84375 58.203125 13.875 51.765625 
L 5.078125 53.328125 
Q 6.6875 62.15625 12.390625 67.015625 
Q 18.109375 71.875 26.609375 71.875 
Q 32.46875 71.875 37.390625 69.359375 
Q 42.328125 66.84375 44.9375 62.5 
Q 47.5625 58.15625 47.5625 53.265625 
Q 47.5625 48.640625 45.0625 44.828125 
Q 42.578125 41.015625 37.703125 38.765625 
Q 44.046875 37.3125 47.5625 32.6875 
Q 51.078125 28.078125 51.078125 21.140625 
Q 51.078125 11.765625 44.234375 5.25 
Q 37.40625 -1.265625 26.953125 -1.265625 
Q 17.53125 -1.265625 11.296875 4.34375 
Q 5.078125 9.96875 4.203125 18.890625 
z
" id="ArialMT-51"/>
    </defs>
    <g style="fill:#262626;" transform="translate(198.924228 73.764141)scale(0.15 -0.15)">
     <use xlink:href="#ArialMT-114"/>
     <use x="33.300781" xlink:href="#ArialMT-61"/>
     <use x="91.699219" xlink:href="#ArialMT-45"/>
     <use x="125" xlink:href="#ArialMT-48"/>
     <use x="180.615234" xlink:href="#ArialMT-46"/>
     <use x="208.398438" xlink:href="#ArialMT-52"/>
     <use x="264.013672" xlink:href="#ArialMT-50"/>
     <use x="319.628906" xlink:href="#ArialMT-50"/>
     <use x="375.244141" xlink:href="#ArialMT-44"/>
     <use x="403.027344" xlink:href="#ArialMT-32"/>
     <use x="430.810547" xlink:href="#ArialMT-112"/>
     <use x="486.425781" xlink:href="#ArialMT-61"/>
     <use x="544.824219" xlink:href="#ArialMT-48"/>
     <use x="600.439453" xlink:href="#ArialMT-46"/>
     <use x="628.222656" xlink:href="#ArialMT-48"/>
     <use x="683.837891" xlink:href="#ArialMT-48"/>
     <use x="739.453125" xlink:href="#ArialMT-48"/>
     <use x="795.068359" xlink:href="#ArialMT-49"/>
     <use x="850.683594" xlink:href="#ArialMT-51"/>
    </g>
   </g>
  </g>
  <g id="legend_1">
   <g id="text_14">
    <!-- host_subject_id -->
    <defs>
     <path d="M 6.59375 0 
L 6.59375 71.578125 
L 15.375 71.578125 
L 15.375 45.90625 
Q 21.53125 53.03125 30.90625 53.03125 
Q 36.671875 53.03125 40.921875 50.75 
Q 45.171875 48.484375 47 44.484375 
Q 48.828125 40.484375 48.828125 32.859375 
L 48.828125 0 
L 40.046875 0 
L 40.046875 32.859375 
Q 40.046875 39.453125 37.1875 42.453125 
Q 34.328125 45.453125 29.109375 45.453125 
Q 25.203125 45.453125 21.75 43.421875 
Q 18.3125 41.40625 16.84375 37.9375 
Q 15.375 34.46875 15.375 28.375 
L 15.375 0 
z
" id="ArialMT-104"/>
     <path d="M 25.78125 7.859375 
L 27.046875 0.09375 
Q 23.34375 -0.6875 20.40625 -0.6875 
Q 15.625 -0.6875 12.984375 0.828125 
Q 10.359375 2.34375 9.28125 4.8125 
Q 8.203125 7.28125 8.203125 15.1875 
L 8.203125 45.015625 
L 1.765625 45.015625 
L 1.765625 51.859375 
L 8.203125 51.859375 
L 8.203125 64.703125 
L 16.9375 69.96875 
L 16.9375 51.859375 
L 25.78125 51.859375 
L 25.78125 45.015625 
L 16.9375 45.015625 
L 16.9375 14.703125 
Q 16.9375 10.9375 17.40625 9.859375 
Q 17.875 8.796875 18.921875 8.15625 
Q 19.96875 7.515625 21.921875 7.515625 
Q 23.390625 7.515625 25.78125 7.859375 
z
" id="ArialMT-116"/>
     <path d="M -1.515625 -19.875 
L -1.515625 -13.53125 
L 56.734375 -13.53125 
L 56.734375 -19.875 
z
" id="ArialMT-95"/>
     <path d="M 40.578125 0 
L 40.578125 7.625 
Q 34.515625 -1.171875 24.125 -1.171875 
Q 19.53125 -1.171875 15.546875 0.578125 
Q 11.578125 2.34375 9.640625 5 
Q 7.71875 7.671875 6.9375 11.53125 
Q 6.390625 14.109375 6.390625 19.734375 
L 6.390625 51.859375 
L 15.1875 51.859375 
L 15.1875 23.09375 
Q 15.1875 16.21875 15.71875 13.8125 
Q 16.546875 10.359375 19.234375 8.375 
Q 21.921875 6.390625 25.875 6.390625 
Q 29.828125 6.390625 33.296875 8.421875 
Q 36.765625 10.453125 38.203125 13.9375 
Q 39.65625 17.4375 39.65625 24.078125 
L 39.65625 51.859375 
L 48.4375 51.859375 
L 48.4375 0 
z
" id="ArialMT-117"/>
     <path d="M 6.546875 61.375 
L 6.546875 71.578125 
L 15.328125 71.578125 
L 15.328125 61.375 
z
M -4.59375 -20.125 
L -2.9375 -12.640625 
Q -0.296875 -13.328125 1.21875 -13.328125 
Q 3.90625 -13.328125 5.21875 -11.546875 
Q 6.546875 -9.765625 6.546875 -2.640625 
L 6.546875 51.859375 
L 15.328125 51.859375 
L 15.328125 -2.828125 
Q 15.328125 -12.40625 12.84375 -16.15625 
Q 9.671875 -21.046875 2.296875 -21.046875 
Q -1.265625 -21.046875 -4.59375 -20.125 
z
" id="ArialMT-106"/>
     <path d="M 40.4375 19 
L 49.078125 17.875 
Q 47.65625 8.9375 41.8125 3.875 
Q 35.984375 -1.171875 27.484375 -1.171875 
Q 16.84375 -1.171875 10.375 5.78125 
Q 3.90625 12.75 3.90625 25.734375 
Q 3.90625 34.125 6.6875 40.421875 
Q 9.46875 46.734375 15.15625 49.875 
Q 20.84375 53.03125 27.546875 53.03125 
Q 35.984375 53.03125 41.359375 48.75 
Q 46.734375 44.484375 48.25 36.625 
L 39.703125 35.296875 
Q 38.484375 40.53125 35.375 43.15625 
Q 32.28125 45.796875 27.875 45.796875 
Q 21.234375 45.796875 17.078125 41.03125 
Q 12.9375 36.28125 12.9375 25.984375 
Q 12.9375 15.53125 16.9375 10.796875 
Q 20.953125 6.0625 27.390625 6.0625 
Q 32.5625 6.0625 36.03125 9.234375 
Q 39.5 12.40625 40.4375 19 
z
" id="ArialMT-99"/>
    </defs>
    <g style="fill:#262626;" transform="translate(359.6375 83.509375)scale(0.1 -0.1)">
     <use xlink:href="#ArialMT-104"/>
     <use x="55.615234" xlink:href="#ArialMT-111"/>
     <use x="111.230469" xlink:href="#ArialMT-115"/>
     <use x="161.230469" xlink:href="#ArialMT-116"/>
     <use x="189.013672" xlink:href="#ArialMT-95"/>
     <use x="244.628906" xlink:href="#ArialMT-115"/>
     <use x="294.628906" xlink:href="#ArialMT-117"/>
     <use x="350.244141" xlink:href="#ArialMT-98"/>
     <use x="405.859375" xlink:href="#ArialMT-106"/>
     <use x="428.076172" xlink:href="#ArialMT-101"/>
     <use x="483.691406" xlink:href="#ArialMT-99"/>
     <use x="533.691406" xlink:href="#ArialMT-116"/>
     <use x="561.474609" xlink:href="#ArialMT-95"/>
     <use x="617.089844" xlink:href="#ArialMT-105"/>
     <use x="639.306641" xlink:href="#ArialMT-100"/>
    </g>
   </g>
   <g id="PathCollection_15">
    <g>
     <use style="fill:#f77189;fill-opacity:0.8;stroke:#f77189;stroke-opacity:0.8;" x="374.264062" xlink:href="#md970c94519" y="95.146875"/>
    </g>
   </g>
   <g id="text_15">
    <!-- DM001 -->
    <defs>
     <path d="M 7.71875 0 
L 7.71875 71.578125 
L 32.375 71.578125 
Q 40.71875 71.578125 45.125 70.5625 
Q 51.265625 69.140625 55.609375 65.4375 
Q 61.28125 60.640625 64.078125 53.1875 
Q 66.890625 45.75 66.890625 36.1875 
Q 66.890625 28.03125 64.984375 21.734375 
Q 63.09375 15.4375 60.109375 11.296875 
Q 57.125 7.171875 53.578125 4.796875 
Q 50.046875 2.4375 45.046875 1.21875 
Q 40.046875 0 33.546875 0 
z
M 17.1875 8.453125 
L 32.46875 8.453125 
Q 39.546875 8.453125 43.578125 9.765625 
Q 47.609375 11.078125 50 13.484375 
Q 53.375 16.84375 55.25 22.53125 
Q 57.125 28.21875 57.125 36.328125 
Q 57.125 47.5625 53.4375 53.59375 
Q 49.75 59.625 44.484375 61.671875 
Q 40.671875 63.140625 32.234375 63.140625 
L 17.1875 63.140625 
z
" id="ArialMT-68"/>
    </defs>
    <g style="fill:#262626;" transform="translate(392.264062 97.771875)scale(0.1 -0.1)">
     <use xlink:href="#ArialMT-68"/>
     <use x="72.216797" xlink:href="#ArialMT-77"/>
     <use x="155.517578" xlink:href="#ArialMT-48"/>
     <use x="211.132812" xlink:href="#ArialMT-48"/>
     <use x="266.748047" xlink:href="#ArialMT-49"/>
    </g>
   </g>
   <g id="PathCollection_16">
    <g>
     <use style="fill:#ef7d32;fill-opacity:0.8;stroke:#ef7d32;stroke-opacity:0.8;" x="374.264062" xlink:href="#m680474e265" y="109.292188"/>
    </g>
   </g>
   <g id="text_16">
    <!-- DM002 -->
    <g style="fill:#262626;" transform="translate(392.264062 111.917188)scale(0.1 -0.1)">
     <use xlink:href="#ArialMT-68"/>
     <use x="72.216797" xlink:href="#ArialMT-77"/>
     <use x="155.517578" xlink:href="#ArialMT-48"/>
     <use x="211.132812" xlink:href="#ArialMT-48"/>
     <use x="266.748047" xlink:href="#ArialMT-50"/>
    </g>
   </g>
   <g id="PathCollection_17">
    <g>
     <use style="fill:#c69432;fill-opacity:0.8;stroke:#c69432;stroke-opacity:0.8;" x="374.264062" xlink:href="#m86b98c43bf" y="123.4375"/>
    </g>
   </g>
   <g id="text_17">
    <!-- DM003 -->
    <g style="fill:#262626;" transform="translate(392.264062 126.0625)scale(0.1 -0.1)">
     <use xlink:href="#ArialMT-68"/>
     <use x="72.216797" xlink:href="#ArialMT-77"/>
     <use x="155.517578" xlink:href="#ArialMT-48"/>
     <use x="211.132812" xlink:href="#ArialMT-48"/>
     <use x="266.748047" xlink:href="#ArialMT-51"/>
    </g>
   </g>
   <g id="PathCollection_18">
    <g>
     <use style="fill:#a79f31;fill-opacity:0.8;stroke:#a79f31;stroke-opacity:0.8;" x="374.264062" xlink:href="#m8069e824fd" y="137.582813"/>
    </g>
   </g>
   <g id="text_18">
    <!-- DM006 -->
    <defs>
     <path d="M 49.75 54.046875 
L 41.015625 53.375 
Q 39.84375 58.546875 37.703125 60.890625 
Q 34.125 64.65625 28.90625 64.65625 
Q 24.703125 64.65625 21.53125 62.3125 
Q 17.390625 59.28125 14.984375 53.46875 
Q 12.59375 47.65625 12.5 36.921875 
Q 15.671875 41.75 20.265625 44.09375 
Q 24.859375 46.4375 29.890625 46.4375 
Q 38.671875 46.4375 44.84375 39.96875 
Q 51.03125 33.5 51.03125 23.25 
Q 51.03125 16.5 48.125 10.71875 
Q 45.21875 4.9375 40.140625 1.859375 
Q 35.0625 -1.21875 28.609375 -1.21875 
Q 17.625 -1.21875 10.6875 6.859375 
Q 3.765625 14.9375 3.765625 33.5 
Q 3.765625 54.25 11.421875 63.671875 
Q 18.109375 71.875 29.4375 71.875 
Q 37.890625 71.875 43.28125 67.140625 
Q 48.6875 62.40625 49.75 54.046875 
z
M 13.875 23.1875 
Q 13.875 18.65625 15.796875 14.5 
Q 17.71875 10.359375 21.1875 8.171875 
Q 24.65625 6 28.46875 6 
Q 34.03125 6 38.03125 10.484375 
Q 42.046875 14.984375 42.046875 22.703125 
Q 42.046875 30.125 38.078125 34.390625 
Q 34.125 38.671875 28.125 38.671875 
Q 22.171875 38.671875 18.015625 34.390625 
Q 13.875 30.125 13.875 23.1875 
z
" id="ArialMT-54"/>
    </defs>
    <g style="fill:#262626;" transform="translate(392.264062 140.207813)scale(0.1 -0.1)">
     <use xlink:href="#ArialMT-68"/>
     <use x="72.216797" xlink:href="#ArialMT-77"/>
     <use x="155.517578" xlink:href="#ArialMT-48"/>
     <use x="211.132812" xlink:href="#ArialMT-48"/>
     <use x="266.748047" xlink:href="#ArialMT-54"/>
    </g>
   </g>
   <g id="PathCollection_19">
    <g>
     <use style="fill:#82a931;fill-opacity:0.8;stroke:#82a931;stroke-opacity:0.8;" x="374.264062" xlink:href="#m8562c0a21b" y="151.728125"/>
    </g>
   </g>
   <g id="text_19">
    <!-- DM008 -->
    <defs>
     <path d="M 17.671875 38.8125 
Q 12.203125 40.828125 9.5625 44.53125 
Q 6.9375 48.25 6.9375 53.421875 
Q 6.9375 61.234375 12.546875 66.546875 
Q 18.171875 71.875 27.484375 71.875 
Q 36.859375 71.875 42.578125 66.421875 
Q 48.296875 60.984375 48.296875 53.171875 
Q 48.296875 48.1875 45.671875 44.5 
Q 43.0625 40.828125 37.75 38.8125 
Q 44.34375 36.671875 47.78125 31.875 
Q 51.21875 27.09375 51.21875 20.453125 
Q 51.21875 11.28125 44.71875 5.03125 
Q 38.234375 -1.21875 27.640625 -1.21875 
Q 17.046875 -1.21875 10.546875 5.046875 
Q 4.046875 11.328125 4.046875 20.703125 
Q 4.046875 27.6875 7.59375 32.390625 
Q 11.140625 37.109375 17.671875 38.8125 
z
M 15.921875 53.71875 
Q 15.921875 48.640625 19.1875 45.40625 
Q 22.46875 42.1875 27.6875 42.1875 
Q 32.765625 42.1875 36.015625 45.375 
Q 39.265625 48.578125 39.265625 53.21875 
Q 39.265625 58.0625 35.90625 61.359375 
Q 32.5625 64.65625 27.59375 64.65625 
Q 22.5625 64.65625 19.234375 61.421875 
Q 15.921875 58.203125 15.921875 53.71875 
z
M 13.09375 20.65625 
Q 13.09375 16.890625 14.875 13.375 
Q 16.65625 9.859375 20.171875 7.921875 
Q 23.6875 6 27.734375 6 
Q 34.03125 6 38.125 10.046875 
Q 42.234375 14.109375 42.234375 20.359375 
Q 42.234375 26.703125 38.015625 30.859375 
Q 33.796875 35.015625 27.4375 35.015625 
Q 21.234375 35.015625 17.15625 30.90625 
Q 13.09375 26.8125 13.09375 20.65625 
z
" id="ArialMT-56"/>
    </defs>
    <g style="fill:#262626;" transform="translate(392.264062 154.353125)scale(0.1 -0.1)">
     <use xlink:href="#ArialMT-68"/>
     <use x="72.216797" xlink:href="#ArialMT-77"/>
     <use x="155.517578" xlink:href="#ArialMT-48"/>
     <use x="211.132812" xlink:href="#ArialMT-48"/>
     <use x="266.748047" xlink:href="#ArialMT-56"/>
    </g>
   </g>
   <g id="PathCollection_20">
    <g>
     <use style="fill:#32b24e;fill-opacity:0.8;stroke:#32b24e;stroke-opacity:0.8;" x="374.264062" xlink:href="#m41211919b7" y="165.873438"/>
    </g>
   </g>
   <g id="text_20">
    <!-- DM009 -->
    <defs>
     <path d="M 5.46875 16.546875 
L 13.921875 17.328125 
Q 14.984375 11.375 18.015625 8.6875 
Q 21.046875 6 25.78125 6 
Q 29.828125 6 32.875 7.859375 
Q 35.9375 9.71875 37.890625 12.8125 
Q 39.84375 15.921875 41.15625 21.1875 
Q 42.484375 26.46875 42.484375 31.9375 
Q 42.484375 32.515625 42.4375 33.6875 
Q 39.796875 29.5 35.234375 26.875 
Q 30.671875 24.265625 25.34375 24.265625 
Q 16.453125 24.265625 10.296875 30.703125 
Q 4.15625 37.15625 4.15625 47.703125 
Q 4.15625 58.59375 10.578125 65.234375 
Q 17 71.875 26.65625 71.875 
Q 33.640625 71.875 39.421875 68.109375 
Q 45.21875 64.359375 48.21875 57.390625 
Q 51.21875 50.4375 51.21875 37.25 
Q 51.21875 23.53125 48.234375 15.40625 
Q 45.265625 7.28125 39.375 3.03125 
Q 33.5 -1.21875 25.59375 -1.21875 
Q 17.1875 -1.21875 11.859375 3.4375 
Q 6.546875 8.109375 5.46875 16.546875 
z
M 41.453125 48.140625 
Q 41.453125 55.71875 37.421875 60.15625 
Q 33.40625 64.59375 27.734375 64.59375 
Q 21.875 64.59375 17.53125 59.8125 
Q 13.1875 55.03125 13.1875 47.40625 
Q 13.1875 40.578125 17.3125 36.296875 
Q 21.4375 32.03125 27.484375 32.03125 
Q 33.59375 32.03125 37.515625 36.296875 
Q 41.453125 40.578125 41.453125 48.140625 
z
" id="ArialMT-57"/>
    </defs>
    <g style="fill:#262626;" transform="translate(392.264062 168.498438)scale(0.1 -0.1)">
     <use xlink:href="#ArialMT-68"/>
     <use x="72.216797" xlink:href="#ArialMT-77"/>
     <use x="155.517578" xlink:href="#ArialMT-48"/>
     <use x="211.132812" xlink:href="#ArialMT-48"/>
     <use x="266.748047" xlink:href="#ArialMT-57"/>
    </g>
   </g>
   <g id="PathCollection_21">
    <g>
     <use style="fill:#34af8a;fill-opacity:0.8;stroke:#34af8a;stroke-opacity:0.8;" x="374.264062" xlink:href="#mf67461c855" y="180.01875"/>
    </g>
   </g>
   <g id="text_21">
    <!-- DM010 -->
    <g style="fill:#262626;" transform="translate(392.264062 182.64375)scale(0.1 -0.1)">
     <use xlink:href="#ArialMT-68"/>
     <use x="72.216797" xlink:href="#ArialMT-77"/>
     <use x="155.517578" xlink:href="#ArialMT-48"/>
     <use x="211.132812" xlink:href="#ArialMT-49"/>
     <use x="266.748047" xlink:href="#ArialMT-48"/>
    </g>
   </g>
   <g id="PathCollection_22">
    <g>
     <use style="fill:#36ada4;fill-opacity:0.8;stroke:#36ada4;stroke-opacity:0.8;" x="374.264062" xlink:href="#ma6d019813c" y="194.164063"/>
    </g>
   </g>
   <g id="text_22">
    <!-- DM011 -->
    <g style="fill:#262626;" transform="translate(392.264062 196.789063)scale(0.1 -0.1)">
     <use xlink:href="#ArialMT-68"/>
     <use x="72.216797" xlink:href="#ArialMT-77"/>
     <use x="155.517578" xlink:href="#ArialMT-48"/>
     <use x="211.132812" xlink:href="#ArialMT-49"/>
     <use x="266.638672" xlink:href="#ArialMT-49"/>
    </g>
   </g>
   <g id="PathCollection_23">
    <g>
     <use style="fill:#37aabb;fill-opacity:0.8;stroke:#37aabb;stroke-opacity:0.8;" x="374.264062" xlink:href="#mbb3688eb11" y="208.309375"/>
    </g>
   </g>
   <g id="text_23">
    <!-- DM013 -->
    <g style="fill:#262626;" transform="translate(392.264062 210.934375)scale(0.1 -0.1)">
     <use xlink:href="#ArialMT-68"/>
     <use x="72.216797" xlink:href="#ArialMT-77"/>
     <use x="155.517578" xlink:href="#ArialMT-48"/>
     <use x="211.132812" xlink:href="#ArialMT-49"/>
     <use x="266.748047" xlink:href="#ArialMT-51"/>
    </g>
   </g>
   <g id="PathCollection_24">
    <g>
     <use style="fill:#3aa6da;fill-opacity:0.8;stroke:#3aa6da;stroke-opacity:0.8;" x="374.264062" xlink:href="#m1cbdc34cbc" y="222.454688"/>
    </g>
   </g>
   <g id="text_24">
    <!-- DM014 -->
    <g style="fill:#262626;" transform="translate(392.264062 225.079688)scale(0.1 -0.1)">
     <use xlink:href="#ArialMT-68"/>
     <use x="72.216797" xlink:href="#ArialMT-77"/>
     <use x="155.517578" xlink:href="#ArialMT-48"/>
     <use x="211.132812" xlink:href="#ArialMT-49"/>
     <use x="266.748047" xlink:href="#ArialMT-52"/>
    </g>
   </g>
   <g id="PathCollection_25">
    <g>
     <use style="fill:#8197f4;fill-opacity:0.8;stroke:#8197f4;stroke-opacity:0.8;" x="374.264062" xlink:href="#m096b07a96d" y="236.6"/>
    </g>
   </g>
   <g id="text_25">
    <!-- DM015 -->
    <g style="fill:#262626;" transform="translate(392.264062 239.225)scale(0.1 -0.1)">
     <use xlink:href="#ArialMT-68"/>
     <use x="72.216797" xlink:href="#ArialMT-77"/>
     <use x="155.517578" xlink:href="#ArialMT-48"/>
     <use x="211.132812" xlink:href="#ArialMT-49"/>
     <use x="266.748047" xlink:href="#ArialMT-53"/>
    </g>
   </g>
   <g id="PathCollection_26">
    <g>
     <use style="fill:#c180f4;fill-opacity:0.8;stroke:#c180f4;stroke-opacity:0.8;" x="374.264062" xlink:href="#m6df5fdac4f" y="250.745313"/>
    </g>
   </g>
   <g id="text_26">
    <!-- DM016 -->
    <g style="fill:#262626;" transform="translate(392.264062 253.370313)scale(0.1 -0.1)">
     <use xlink:href="#ArialMT-68"/>
     <use x="72.216797" xlink:href="#ArialMT-77"/>
     <use x="155.517578" xlink:href="#ArialMT-48"/>
     <use x="211.132812" xlink:href="#ArialMT-49"/>
     <use x="266.748047" xlink:href="#ArialMT-54"/>
    </g>
   </g>
   <g id="PathCollection_27">
    <g>
     <use style="fill:#f45deb;fill-opacity:0.8;stroke:#f45deb;stroke-opacity:0.8;" x="374.264062" xlink:href="#m0cb7084235" y="264.890625"/>
    </g>
   </g>
   <g id="text_27">
    <!-- DM017 -->
    <defs>
     <path d="M 4.734375 62.203125 
L 4.734375 70.65625 
L 51.078125 70.65625 
L 51.078125 63.8125 
Q 44.234375 56.546875 37.515625 44.484375 
Q 30.8125 32.421875 27.15625 19.671875 
Q 24.515625 10.6875 23.78125 0 
L 14.75 0 
Q 14.890625 8.453125 18.0625 20.40625 
Q 21.234375 32.375 27.171875 43.484375 
Q 33.109375 54.59375 39.796875 62.203125 
z
" id="ArialMT-55"/>
    </defs>
    <g style="fill:#262626;" transform="translate(392.264062 267.515625)scale(0.1 -0.1)">
     <use xlink:href="#ArialMT-68"/>
     <use x="72.216797" xlink:href="#ArialMT-77"/>
     <use x="155.517578" xlink:href="#ArialMT-48"/>
     <use x="211.132812" xlink:href="#ArialMT-49"/>
     <use x="266.748047" xlink:href="#ArialMT-55"/>
    </g>
   </g>
   <g id="PathCollection_28">
    <g>
     <use style="fill:#f669ba;fill-opacity:0.8;stroke:#f669ba;stroke-opacity:0.8;" x="374.264062" xlink:href="#m486fdcc32b" y="279.035937"/>
    </g>
   </g>
   <g id="text_28">
    <!-- DM018 -->
    <g style="fill:#262626;" transform="translate(392.264062 281.660937)scale(0.1 -0.1)">
     <use xlink:href="#ArialMT-68"/>
     <use x="72.216797" xlink:href="#ArialMT-77"/>
     <use x="155.517578" xlink:href="#ArialMT-48"/>
     <use x="211.132812" xlink:href="#ArialMT-49"/>
     <use x="266.748047" xlink:href="#ArialMT-56"/>
    </g>
   </g>
  </g>
 </g>
 <defs>
  <clipPath id="p86f8602690">
   <rect height="305.9" width="294.250825" x="61.367925" y="14.3"/>
  </clipPath>
 </defs>
</svg>
