<?xml version="1.0" encoding="utf-8" standalone="no"?>
<!DOCTYPE svg PUBLIC "-//W3C//DTD SVG 1.1//EN"
  "http://www.w3.org/Graphics/SVG/1.1/DTD/svg11.dtd">
<!-- Created with matplotlib (https://matplotlib.org/) -->
<svg height="360pt" version="1.1" viewBox="0 0 438.125 360" width="438.125pt" xmlns="http://www.w3.org/2000/svg" xmlns:xlink="http://www.w3.org/1999/xlink">
 <defs>
  <style type="text/css">
*{stroke-linecap:butt;stroke-linejoin:round;}
  </style>
 </defs>
 <g id="figure_1">
  <g id="patch_1">
   <path d="M 0 360 
L 438.125 360 
L 438.125 0 
L 0 0 
z
" style="fill:#ffffff;"/>
  </g>
  <g id="axes_1">
   <g id="patch_2">
    <path d="M 75.363585 320.2 
L 355.61875 320.2 
L 355.61875 14.3 
L 75.363585 14.3 
z
" style="fill:#ffffff;"/>
   </g>
   <g id="matplotlib.axis_1">
    <g id="xtick_1">
     <g id="text_1">
      <!-- 2 -->
      <defs>
       <path d="M 50.34375 8.453125 
L 50.34375 0 
L 3.03125 0 
Q 2.9375 3.171875 4.046875 6.109375 
Q 5.859375 10.9375 9.828125 15.625 
Q 13.8125 20.3125 21.34375 26.46875 
Q 33.015625 36.03125 37.109375 41.625 
Q 41.21875 47.21875 41.21875 52.203125 
Q 41.21875 57.421875 37.46875 61 
Q 33.734375 64.59375 27.734375 64.59375 
Q 21.390625 64.59375 17.578125 60.78125 
Q 13.765625 56.984375 13.71875 50.25 
L 4.6875 51.171875 
Q 5.609375 61.28125 11.65625 66.578125 
Q 17.71875 71.875 27.9375 71.875 
Q 38.234375 71.875 44.234375 66.15625 
Q 50.25 60.453125 50.25 52 
Q 50.25 47.703125 48.484375 43.546875 
Q 46.734375 39.40625 42.65625 34.8125 
Q 38.578125 30.21875 29.109375 22.21875 
Q 21.1875 15.578125 18.9375 13.203125 
Q 16.703125 10.84375 15.234375 8.453125 
z
" id="ArialMT-50"/>
      </defs>
      <g style="fill:#262626;" transform="translate(87.474545 335.789375)scale(0.12 -0.12)">
       <use xlink:href="#ArialMT-50"/>
      </g>
     </g>
    </g>
    <g id="xtick_2">
     <g id="text_2">
      <!-- 3 -->
      <defs>
       <path d="M 4.203125 18.890625 
L 12.984375 20.0625 
Q 14.5 12.59375 18.140625 9.296875 
Q 21.78125 6 27 6 
Q 33.203125 6 37.46875 10.296875 
Q 41.75 14.59375 41.75 20.953125 
Q 41.75 27 37.796875 30.921875 
Q 33.84375 34.859375 27.734375 34.859375 
Q 25.25 34.859375 21.53125 33.890625 
L 22.515625 41.609375 
Q 23.390625 41.5 23.921875 41.5 
Q 29.546875 41.5 34.03125 44.421875 
Q 38.53125 47.359375 38.53125 53.46875 
Q 38.53125 58.296875 35.25 61.46875 
Q 31.984375 64.65625 26.8125 64.65625 
Q 21.6875 64.65625 18.265625 61.421875 
Q 14.84375 58.203125 13.875 51.765625 
L 5.078125 53.328125 
Q 6.6875 62.15625 12.390625 67.015625 
Q 18.109375 71.875 26.609375 71.875 
Q 32.46875 71.875 37.390625 69.359375 
Q 42.328125 66.84375 44.9375 62.5 
Q 47.5625 58.15625 47.5625 53.265625 
Q 47.5625 48.640625 45.0625 44.828125 
Q 42.578125 41.015625 37.703125 38.765625 
Q 44.046875 37.3125 47.5625 32.6875 
Q 51.078125 28.078125 51.078125 21.140625 
Q 51.078125 11.765625 44.234375 5.25 
Q 37.40625 -1.265625 26.953125 -1.265625 
Q 17.53125 -1.265625 11.296875 4.34375 
Q 5.078125 9.96875 4.203125 18.890625 
z
" id="ArialMT-51"/>
      </defs>
      <g style="fill:#262626;" transform="translate(123.09742 335.789375)scale(0.12 -0.12)">
       <use xlink:href="#ArialMT-51"/>
      </g>
     </g>
    </g>
    <g id="xtick_3">
     <g id="text_3">
      <!-- 4 -->
      <defs>
       <path d="M 32.328125 0 
L 32.328125 17.140625 
L 1.265625 17.140625 
L 1.265625 25.203125 
L 33.9375 71.578125 
L 41.109375 71.578125 
L 41.109375 25.203125 
L 50.78125 25.203125 
L 50.78125 17.140625 
L 41.109375 17.140625 
L 41.109375 0 
z
M 32.328125 25.203125 
L 32.328125 57.46875 
L 9.90625 25.203125 
z
" id="ArialMT-52"/>
      </defs>
      <g style="fill:#262626;" transform="translate(158.720294 335.789375)scale(0.12 -0.12)">
       <use xlink:href="#ArialMT-52"/>
      </g>
     </g>
    </g>
    <g id="xtick_4">
     <g id="text_4">
      <!-- 5 -->
      <defs>
       <path d="M 4.15625 18.75 
L 13.375 19.53125 
Q 14.40625 12.796875 18.140625 9.390625 
Q 21.875 6 27.15625 6 
Q 33.5 6 37.890625 10.78125 
Q 42.28125 15.578125 42.28125 23.484375 
Q 42.28125 31 38.0625 35.34375 
Q 33.84375 39.703125 27 39.703125 
Q 22.75 39.703125 19.328125 37.765625 
Q 15.921875 35.84375 13.96875 32.765625 
L 5.71875 33.84375 
L 12.640625 70.609375 
L 48.25 70.609375 
L 48.25 62.203125 
L 19.671875 62.203125 
L 15.828125 42.96875 
Q 22.265625 47.46875 29.34375 47.46875 
Q 38.71875 47.46875 45.15625 40.96875 
Q 51.609375 34.46875 51.609375 24.265625 
Q 51.609375 14.546875 45.953125 7.46875 
Q 39.0625 -1.21875 27.15625 -1.21875 
Q 17.390625 -1.21875 11.203125 4.25 
Q 5.03125 9.71875 4.15625 18.75 
z
" id="ArialMT-53"/>
      </defs>
      <g style="fill:#262626;" transform="translate(194.343168 335.789375)scale(0.12 -0.12)">
       <use xlink:href="#ArialMT-53"/>
      </g>
     </g>
    </g>
    <g id="xtick_5">
     <g id="text_5">
      <!-- 6 -->
      <defs>
       <path d="M 49.75 54.046875 
L 41.015625 53.375 
Q 39.84375 58.546875 37.703125 60.890625 
Q 34.125 64.65625 28.90625 64.65625 
Q 24.703125 64.65625 21.53125 62.3125 
Q 17.390625 59.28125 14.984375 53.46875 
Q 12.59375 47.65625 12.5 36.921875 
Q 15.671875 41.75 20.265625 44.09375 
Q 24.859375 46.4375 29.890625 46.4375 
Q 38.671875 46.4375 44.84375 39.96875 
Q 51.03125 33.5 51.03125 23.25 
Q 51.03125 16.5 48.125 10.71875 
Q 45.21875 4.9375 40.140625 1.859375 
Q 35.0625 -1.21875 28.609375 -1.21875 
Q 17.625 -1.21875 10.6875 6.859375 
Q 3.765625 14.9375 3.765625 33.5 
Q 3.765625 54.25 11.421875 63.671875 
Q 18.109375 71.875 29.4375 71.875 
Q 37.890625 71.875 43.28125 67.140625 
Q 48.6875 62.40625 49.75 54.046875 
z
M 13.875 23.1875 
Q 13.875 18.65625 15.796875 14.5 
Q 17.71875 10.359375 21.1875 8.171875 
Q 24.65625 6 28.46875 6 
Q 34.03125 6 38.03125 10.484375 
Q 42.046875 14.984375 42.046875 22.703125 
Q 42.046875 30.125 38.078125 34.390625 
Q 34.125 38.671875 28.125 38.671875 
Q 22.171875 38.671875 18.015625 34.390625 
Q 13.875 30.125 13.875 23.1875 
z
" id="ArialMT-54"/>
      </defs>
      <g style="fill:#262626;" transform="translate(229.966042 335.789375)scale(0.12 -0.12)">
       <use xlink:href="#ArialMT-54"/>
      </g>
     </g>
    </g>
    <g id="xtick_6">
     <g id="text_6">
      <!-- 7 -->
      <defs>
       <path d="M 4.734375 62.203125 
L 4.734375 70.65625 
L 51.078125 70.65625 
L 51.078125 63.8125 
Q 44.234375 56.546875 37.515625 44.484375 
Q 30.8125 32.421875 27.15625 19.671875 
Q 24.515625 10.6875 23.78125 0 
L 14.75 0 
Q 14.890625 8.453125 18.0625 20.40625 
Q 21.234375 32.375 27.171875 43.484375 
Q 33.109375 54.59375 39.796875 62.203125 
z
" id="ArialMT-55"/>
      </defs>
      <g style="fill:#262626;" transform="translate(265.588916 335.789375)scale(0.12 -0.12)">
       <use xlink:href="#ArialMT-55"/>
      </g>
     </g>
    </g>
    <g id="xtick_7">
     <g id="text_7">
      <!-- 8 -->
      <defs>
       <path d="M 17.671875 38.8125 
Q 12.203125 40.828125 9.5625 44.53125 
Q 6.9375 48.25 6.9375 53.421875 
Q 6.9375 61.234375 12.546875 66.546875 
Q 18.171875 71.875 27.484375 71.875 
Q 36.859375 71.875 42.578125 66.421875 
Q 48.296875 60.984375 48.296875 53.171875 
Q 48.296875 48.1875 45.671875 44.5 
Q 43.0625 40.828125 37.75 38.8125 
Q 44.34375 36.671875 47.78125 31.875 
Q 51.21875 27.09375 51.21875 20.453125 
Q 51.21875 11.28125 44.71875 5.03125 
Q 38.234375 -1.21875 27.640625 -1.21875 
Q 17.046875 -1.21875 10.546875 5.046875 
Q 4.046875 11.328125 4.046875 20.703125 
Q 4.046875 27.6875 7.59375 32.390625 
Q 11.140625 37.109375 17.671875 38.8125 
z
M 15.921875 53.71875 
Q 15.921875 48.640625 19.1875 45.40625 
Q 22.46875 42.1875 27.6875 42.1875 
Q 32.765625 42.1875 36.015625 45.375 
Q 39.265625 48.578125 39.265625 53.21875 
Q 39.265625 58.0625 35.90625 61.359375 
Q 32.5625 64.65625 27.59375 64.65625 
Q 22.5625 64.65625 19.234375 61.421875 
Q 15.921875 58.203125 15.921875 53.71875 
z
M 13.09375 20.65625 
Q 13.09375 16.890625 14.875 13.375 
Q 16.65625 9.859375 20.171875 7.921875 
Q 23.6875 6 27.734375 6 
Q 34.03125 6 38.125 10.046875 
Q 42.234375 14.109375 42.234375 20.359375 
Q 42.234375 26.703125 38.015625 30.859375 
Q 33.796875 35.015625 27.4375 35.015625 
Q 21.234375 35.015625 17.15625 30.90625 
Q 13.09375 26.8125 13.09375 20.65625 
z
" id="ArialMT-56"/>
      </defs>
      <g style="fill:#262626;" transform="translate(301.21179 335.789375)scale(0.12 -0.12)">
       <use xlink:href="#ArialMT-56"/>
      </g>
     </g>
    </g>
    <g id="xtick_8">
     <g id="text_8">
      <!-- 9 -->
      <defs>
       <path d="M 5.46875 16.546875 
L 13.921875 17.328125 
Q 14.984375 11.375 18.015625 8.6875 
Q 21.046875 6 25.78125 6 
Q 29.828125 6 32.875 7.859375 
Q 35.9375 9.71875 37.890625 12.8125 
Q 39.84375 15.921875 41.15625 21.1875 
Q 42.484375 26.46875 42.484375 31.9375 
Q 42.484375 32.515625 42.4375 33.6875 
Q 39.796875 29.5 35.234375 26.875 
Q 30.671875 24.265625 25.34375 24.265625 
Q 16.453125 24.265625 10.296875 30.703125 
Q 4.15625 37.15625 4.15625 47.703125 
Q 4.15625 58.59375 10.578125 65.234375 
Q 17 71.875 26.65625 71.875 
Q 33.640625 71.875 39.421875 68.109375 
Q 45.21875 64.359375 48.21875 57.390625 
Q 51.21875 50.4375 51.21875 37.25 
Q 51.21875 23.53125 48.234375 15.40625 
Q 45.265625 7.28125 39.375 3.03125 
Q 33.5 -1.21875 25.59375 -1.21875 
Q 17.1875 -1.21875 11.859375 3.4375 
Q 6.546875 8.109375 5.46875 16.546875 
z
M 41.453125 48.140625 
Q 41.453125 55.71875 37.421875 60.15625 
Q 33.40625 64.59375 27.734375 64.59375 
Q 21.875 64.59375 17.53125 59.8125 
Q 13.1875 55.03125 13.1875 47.40625 
Q 13.1875 40.578125 17.3125 36.296875 
Q 21.4375 32.03125 27.484375 32.03125 
Q 33.59375 32.03125 37.515625 36.296875 
Q 41.453125 40.578125 41.453125 48.140625 
z
" id="ArialMT-57"/>
      </defs>
      <g style="fill:#262626;" transform="translate(336.834665 335.789375)scale(0.12 -0.12)">
       <use xlink:href="#ArialMT-57"/>
      </g>
     </g>
    </g>
    <g id="text_9">
     <!-- Day -->
     <defs>
      <path d="M 7.71875 0 
L 7.71875 71.578125 
L 32.375 71.578125 
Q 40.71875 71.578125 45.125 70.5625 
Q 51.265625 69.140625 55.609375 65.4375 
Q 61.28125 60.640625 64.078125 53.1875 
Q 66.890625 45.75 66.890625 36.1875 
Q 66.890625 28.03125 64.984375 21.734375 
Q 63.09375 15.4375 60.109375 11.296875 
Q 57.125 7.171875 53.578125 4.796875 
Q 50.046875 2.4375 45.046875 1.21875 
Q 40.046875 0 33.546875 0 
z
M 17.1875 8.453125 
L 32.46875 8.453125 
Q 39.546875 8.453125 43.578125 9.765625 
Q 47.609375 11.078125 50 13.484375 
Q 53.375 16.84375 55.25 22.53125 
Q 57.125 28.21875 57.125 36.328125 
Q 57.125 47.5625 53.4375 53.59375 
Q 49.75 59.625 44.484375 61.671875 
Q 40.671875 63.140625 32.234375 63.140625 
L 17.1875 63.140625 
z
" id="ArialMT-68"/>
      <path d="M 40.4375 6.390625 
Q 35.546875 2.25 31.03125 0.53125 
Q 26.515625 -1.171875 21.34375 -1.171875 
Q 12.796875 -1.171875 8.203125 3 
Q 3.609375 7.171875 3.609375 13.671875 
Q 3.609375 17.484375 5.34375 20.625 
Q 7.078125 23.78125 9.890625 25.6875 
Q 12.703125 27.59375 16.21875 28.5625 
Q 18.796875 29.25 24.03125 29.890625 
Q 34.671875 31.15625 39.703125 32.90625 
Q 39.75 34.71875 39.75 35.203125 
Q 39.75 40.578125 37.25 42.78125 
Q 33.890625 45.75 27.25 45.75 
Q 21.046875 45.75 18.09375 43.578125 
Q 15.140625 41.40625 13.71875 35.890625 
L 5.125 37.0625 
Q 6.296875 42.578125 8.984375 45.96875 
Q 11.671875 49.359375 16.75 51.1875 
Q 21.828125 53.03125 28.515625 53.03125 
Q 35.15625 53.03125 39.296875 51.46875 
Q 43.453125 49.90625 45.40625 47.53125 
Q 47.359375 45.171875 48.140625 41.546875 
Q 48.578125 39.3125 48.578125 33.453125 
L 48.578125 21.734375 
Q 48.578125 9.46875 49.140625 6.21875 
Q 49.703125 2.984375 51.375 0 
L 42.1875 0 
Q 40.828125 2.734375 40.4375 6.390625 
z
M 39.703125 26.03125 
Q 34.90625 24.078125 25.34375 22.703125 
Q 19.921875 21.921875 17.671875 20.9375 
Q 15.4375 19.96875 14.203125 18.09375 
Q 12.984375 16.21875 12.984375 13.921875 
Q 12.984375 10.40625 15.640625 8.0625 
Q 18.3125 5.71875 23.4375 5.71875 
Q 28.515625 5.71875 32.46875 7.9375 
Q 36.421875 10.15625 38.28125 14.015625 
Q 39.703125 17 39.703125 22.796875 
z
" id="ArialMT-97"/>
      <path d="M 6.203125 -19.96875 
L 5.21875 -11.71875 
Q 8.109375 -12.5 10.25 -12.5 
Q 13.1875 -12.5 14.9375 -11.515625 
Q 16.703125 -10.546875 17.828125 -8.796875 
Q 18.65625 -7.46875 20.515625 -2.25 
Q 20.75 -1.515625 21.296875 -0.09375 
L 1.609375 51.859375 
L 11.078125 51.859375 
L 21.875 21.828125 
Q 23.96875 16.109375 25.640625 9.8125 
Q 27.15625 15.875 29.25 21.625 
L 40.328125 51.859375 
L 49.125 51.859375 
L 29.390625 -0.875 
Q 26.21875 -9.421875 24.46875 -12.640625 
Q 22.125 -17 19.09375 -19.015625 
Q 16.0625 -21.046875 11.859375 -21.046875 
Q 9.328125 -21.046875 6.203125 -19.96875 
z
" id="ArialMT-121"/>
     </defs>
     <g style="fill:#262626;" transform="translate(202.154058 352.911094)scale(0.15 -0.15)">
      <use xlink:href="#ArialMT-68"/>
      <use x="72.216797" xlink:href="#ArialMT-97"/>
      <use x="127.832031" xlink:href="#ArialMT-121"/>
     </g>
    </g>
   </g>
   <g id="matplotlib.axis_2">
    <g id="ytick_1">
     <g id="text_10">
      <!-- −0.025 -->
      <defs>
       <path d="M 52.828125 31.203125 
L 5.5625 31.203125 
L 5.5625 39.40625 
L 52.828125 39.40625 
z
" id="ArialMT-8722"/>
       <path d="M 4.15625 35.296875 
Q 4.15625 48 6.765625 55.734375 
Q 9.375 63.484375 14.515625 67.671875 
Q 19.671875 71.875 27.484375 71.875 
Q 33.25 71.875 37.59375 69.546875 
Q 41.9375 67.234375 44.765625 62.859375 
Q 47.609375 58.5 49.21875 52.21875 
Q 50.828125 45.953125 50.828125 35.296875 
Q 50.828125 22.703125 48.234375 14.96875 
Q 45.65625 7.234375 40.5 3 
Q 35.359375 -1.21875 27.484375 -1.21875 
Q 17.140625 -1.21875 11.234375 6.203125 
Q 4.15625 15.140625 4.15625 35.296875 
z
M 13.1875 35.296875 
Q 13.1875 17.671875 17.3125 11.828125 
Q 21.4375 6 27.484375 6 
Q 33.546875 6 37.671875 11.859375 
Q 41.796875 17.71875 41.796875 35.296875 
Q 41.796875 52.984375 37.671875 58.78125 
Q 33.546875 64.59375 27.390625 64.59375 
Q 21.34375 64.59375 17.71875 59.46875 
Q 13.1875 52.9375 13.1875 35.296875 
z
" id="ArialMT-48"/>
       <path d="M 9.078125 0 
L 9.078125 10.015625 
L 19.09375 10.015625 
L 19.09375 0 
z
" id="ArialMT-46"/>
      </defs>
      <g style="fill:#262626;" transform="translate(31.328585 324.22175)scale(0.12 -0.12)">
       <use xlink:href="#ArialMT-8722"/>
       <use x="58.398438" xlink:href="#ArialMT-48"/>
       <use x="114.013672" xlink:href="#ArialMT-46"/>
       <use x="141.796875" xlink:href="#ArialMT-48"/>
       <use x="197.412109" xlink:href="#ArialMT-50"/>
       <use x="253.027344" xlink:href="#ArialMT-53"/>
      </g>
     </g>
    </g>
    <g id="ytick_2">
     <g id="text_11">
      <!-- 0.000 -->
      <g style="fill:#262626;" transform="translate(38.337335 288.906364)scale(0.12 -0.12)">
       <use xlink:href="#ArialMT-48"/>
       <use x="55.615234" xlink:href="#ArialMT-46"/>
       <use x="83.398438" xlink:href="#ArialMT-48"/>
       <use x="139.013672" xlink:href="#ArialMT-48"/>
       <use x="194.628906" xlink:href="#ArialMT-48"/>
      </g>
     </g>
    </g>
    <g id="ytick_3">
     <g id="text_12">
      <!-- 0.025 -->
      <g style="fill:#262626;" transform="translate(38.337335 253.590978)scale(0.12 -0.12)">
       <use xlink:href="#ArialMT-48"/>
       <use x="55.615234" xlink:href="#ArialMT-46"/>
       <use x="83.398438" xlink:href="#ArialMT-48"/>
       <use x="139.013672" xlink:href="#ArialMT-50"/>
       <use x="194.628906" xlink:href="#ArialMT-53"/>
      </g>
     </g>
    </g>
    <g id="ytick_4">
     <g id="text_13">
      <!-- 0.050 -->
      <g style="fill:#262626;" transform="translate(38.337335 218.275591)scale(0.12 -0.12)">
       <use xlink:href="#ArialMT-48"/>
       <use x="55.615234" xlink:href="#ArialMT-46"/>
       <use x="83.398438" xlink:href="#ArialMT-48"/>
       <use x="139.013672" xlink:href="#ArialMT-53"/>
       <use x="194.628906" xlink:href="#ArialMT-48"/>
      </g>
     </g>
    </g>
    <g id="ytick_5">
     <g id="text_14">
      <!-- 0.075 -->
      <g style="fill:#262626;" transform="translate(38.337335 182.960205)scale(0.12 -0.12)">
       <use xlink:href="#ArialMT-48"/>
       <use x="55.615234" xlink:href="#ArialMT-46"/>
       <use x="83.398438" xlink:href="#ArialMT-48"/>
       <use x="139.013672" xlink:href="#ArialMT-55"/>
       <use x="194.628906" xlink:href="#ArialMT-53"/>
      </g>
     </g>
    </g>
    <g id="ytick_6">
     <g id="text_15">
      <!-- 0.100 -->
      <defs>
       <path d="M 37.25 0 
L 28.46875 0 
L 28.46875 56 
Q 25.296875 52.984375 20.140625 49.953125 
Q 14.984375 46.921875 10.890625 45.40625 
L 10.890625 53.90625 
Q 18.265625 57.375 23.78125 62.296875 
Q 29.296875 67.234375 31.59375 71.875 
L 37.25 71.875 
z
" id="ArialMT-49"/>
      </defs>
      <g style="fill:#262626;" transform="translate(38.337335 147.644819)scale(0.12 -0.12)">
       <use xlink:href="#ArialMT-48"/>
       <use x="55.615234" xlink:href="#ArialMT-46"/>
       <use x="83.398438" xlink:href="#ArialMT-49"/>
       <use x="139.013672" xlink:href="#ArialMT-48"/>
       <use x="194.628906" xlink:href="#ArialMT-48"/>
      </g>
     </g>
    </g>
    <g id="ytick_7">
     <g id="text_16">
      <!-- 0.125 -->
      <g style="fill:#262626;" transform="translate(38.337335 112.329433)scale(0.12 -0.12)">
       <use xlink:href="#ArialMT-48"/>
       <use x="55.615234" xlink:href="#ArialMT-46"/>
       <use x="83.398438" xlink:href="#ArialMT-49"/>
       <use x="139.013672" xlink:href="#ArialMT-50"/>
       <use x="194.628906" xlink:href="#ArialMT-53"/>
      </g>
     </g>
    </g>
    <g id="ytick_8">
     <g id="text_17">
      <!-- 0.150 -->
      <g style="fill:#262626;" transform="translate(38.337335 77.014047)scale(0.12 -0.12)">
       <use xlink:href="#ArialMT-48"/>
       <use x="55.615234" xlink:href="#ArialMT-46"/>
       <use x="83.398438" xlink:href="#ArialMT-49"/>
       <use x="139.013672" xlink:href="#ArialMT-53"/>
       <use x="194.628906" xlink:href="#ArialMT-48"/>
      </g>
     </g>
    </g>
    <g id="ytick_9">
     <g id="text_18">
      <!-- 0.175 -->
      <g style="fill:#262626;" transform="translate(38.337335 41.698661)scale(0.12 -0.12)">
       <use xlink:href="#ArialMT-48"/>
       <use x="55.615234" xlink:href="#ArialMT-46"/>
       <use x="83.398438" xlink:href="#ArialMT-49"/>
       <use x="139.013672" xlink:href="#ArialMT-55"/>
       <use x="194.628906" xlink:href="#ArialMT-53"/>
      </g>
     </g>
    </g>
    <g id="text_19">
     <!-- Midazolam -->
     <defs>
      <path d="M 7.421875 0 
L 7.421875 71.578125 
L 21.6875 71.578125 
L 38.625 20.90625 
Q 40.96875 13.8125 42.046875 10.296875 
Q 43.265625 14.203125 45.84375 21.78125 
L 62.984375 71.578125 
L 75.734375 71.578125 
L 75.734375 0 
L 66.609375 0 
L 66.609375 59.90625 
L 45.796875 0 
L 37.25 0 
L 16.546875 60.9375 
L 16.546875 0 
z
" id="ArialMT-77"/>
      <path d="M 6.640625 61.46875 
L 6.640625 71.578125 
L 15.4375 71.578125 
L 15.4375 61.46875 
z
M 6.640625 0 
L 6.640625 51.859375 
L 15.4375 51.859375 
L 15.4375 0 
z
" id="ArialMT-105"/>
      <path d="M 40.234375 0 
L 40.234375 6.546875 
Q 35.296875 -1.171875 25.734375 -1.171875 
Q 19.53125 -1.171875 14.328125 2.25 
Q 9.125 5.671875 6.265625 11.796875 
Q 3.421875 17.921875 3.421875 25.875 
Q 3.421875 33.640625 6 39.96875 
Q 8.59375 46.296875 13.765625 49.65625 
Q 18.953125 53.03125 25.34375 53.03125 
Q 30.03125 53.03125 33.6875 51.046875 
Q 37.359375 49.078125 39.65625 45.90625 
L 39.65625 71.578125 
L 48.390625 71.578125 
L 48.390625 0 
z
M 12.453125 25.875 
Q 12.453125 15.921875 16.640625 10.984375 
Q 20.84375 6.0625 26.5625 6.0625 
Q 32.328125 6.0625 36.34375 10.765625 
Q 40.375 15.484375 40.375 25.140625 
Q 40.375 35.796875 36.265625 40.765625 
Q 32.171875 45.75 26.171875 45.75 
Q 20.3125 45.75 16.375 40.96875 
Q 12.453125 36.1875 12.453125 25.875 
z
" id="ArialMT-100"/>
      <path d="M 1.953125 0 
L 1.953125 7.125 
L 34.96875 45.015625 
Q 29.34375 44.734375 25.046875 44.734375 
L 3.90625 44.734375 
L 3.90625 51.859375 
L 46.296875 51.859375 
L 46.296875 46.046875 
L 18.21875 13.140625 
L 12.796875 7.125 
Q 18.703125 7.5625 23.875 7.5625 
L 47.859375 7.5625 
L 47.859375 0 
z
" id="ArialMT-122"/>
      <path d="M 3.328125 25.921875 
Q 3.328125 40.328125 11.328125 47.265625 
Q 18.015625 53.03125 27.640625 53.03125 
Q 38.328125 53.03125 45.109375 46.015625 
Q 51.90625 39.015625 51.90625 26.65625 
Q 51.90625 16.65625 48.90625 10.90625 
Q 45.90625 5.171875 40.15625 2 
Q 34.421875 -1.171875 27.640625 -1.171875 
Q 16.75 -1.171875 10.03125 5.8125 
Q 3.328125 12.796875 3.328125 25.921875 
z
M 12.359375 25.921875 
Q 12.359375 15.96875 16.703125 11.015625 
Q 21.046875 6.0625 27.640625 6.0625 
Q 34.1875 6.0625 38.53125 11.03125 
Q 42.875 16.015625 42.875 26.21875 
Q 42.875 35.84375 38.5 40.796875 
Q 34.125 45.75 27.640625 45.75 
Q 21.046875 45.75 16.703125 40.8125 
Q 12.359375 35.890625 12.359375 25.921875 
z
" id="ArialMT-111"/>
      <path d="M 6.390625 0 
L 6.390625 71.578125 
L 15.1875 71.578125 
L 15.1875 0 
z
" id="ArialMT-108"/>
      <path d="M 6.59375 0 
L 6.59375 51.859375 
L 14.453125 51.859375 
L 14.453125 44.578125 
Q 16.890625 48.390625 20.9375 50.703125 
Q 25 53.03125 30.171875 53.03125 
Q 35.9375 53.03125 39.625 50.640625 
Q 43.3125 48.25 44.828125 43.953125 
Q 50.984375 53.03125 60.84375 53.03125 
Q 68.5625 53.03125 72.703125 48.75 
Q 76.859375 44.484375 76.859375 35.59375 
L 76.859375 0 
L 68.109375 0 
L 68.109375 32.671875 
Q 68.109375 37.9375 67.25 40.25 
Q 66.40625 42.578125 64.15625 43.984375 
Q 61.921875 45.40625 58.890625 45.40625 
Q 53.421875 45.40625 49.796875 41.765625 
Q 46.1875 38.140625 46.1875 30.125 
L 46.1875 0 
L 37.40625 0 
L 37.40625 33.6875 
Q 37.40625 39.546875 35.25 42.46875 
Q 33.109375 45.40625 28.21875 45.40625 
Q 24.515625 45.40625 21.359375 43.453125 
Q 18.21875 41.5 16.796875 37.734375 
Q 15.375 33.984375 15.375 26.90625 
L 15.375 0 
z
" id="ArialMT-109"/>
     </defs>
     <g style="fill:#262626;" transform="translate(24.347335 203.510156)rotate(-90)scale(0.15 -0.15)">
      <use xlink:href="#ArialMT-77"/>
      <use x="83.300781" xlink:href="#ArialMT-105"/>
      <use x="105.517578" xlink:href="#ArialMT-100"/>
      <use x="161.132812" xlink:href="#ArialMT-97"/>
      <use x="216.748047" xlink:href="#ArialMT-122"/>
      <use x="266.748047" xlink:href="#ArialMT-111"/>
      <use x="322.363281" xlink:href="#ArialMT-108"/>
      <use x="344.580078" xlink:href="#ArialMT-97"/>
      <use x="400.195312" xlink:href="#ArialMT-109"/>
     </g>
    </g>
   </g>
   <g id="PathCollection_1">
    <defs>
     <path d="M 0 3 
C 0.795609 3 1.55874 2.683901 2.12132 2.12132 
C 2.683901 1.55874 3 0.795609 3 0 
C 3 -0.795609 2.683901 -1.55874 2.12132 -2.12132 
C 1.55874 -2.683901 0.795609 -3 0 -3 
C -0.795609 -3 -1.55874 -2.683901 -2.12132 -2.12132 
C -2.683901 -1.55874 -3 -0.795609 -3 0 
C -3 0.795609 -2.683901 1.55874 -2.12132 2.12132 
C -1.55874 2.683901 -0.795609 3 0 3 
z
" id="mfe1c324a23" style="stroke:#f77189;stroke-opacity:0.8;"/>
    </defs>
    <g clip-path="url(#p5d8b4cd597)">
     <use style="fill:#f77189;fill-opacity:0.8;stroke:#f77189;stroke-opacity:0.8;" x="90.811108" xlink:href="#mfe1c324a23" y="267.64759"/>
     <use style="fill:#f77189;fill-opacity:0.8;stroke:#f77189;stroke-opacity:0.8;" x="126.433982" xlink:href="#mfe1c324a23" y="203.707778"/>
     <use style="fill:#f77189;fill-opacity:0.8;stroke:#f77189;stroke-opacity:0.8;" x="162.056856" xlink:href="#mfe1c324a23" y="232.792353"/>
     <use style="fill:#f77189;fill-opacity:0.8;stroke:#f77189;stroke-opacity:0.8;" x="268.925479" xlink:href="#mfe1c324a23" y="198.08769"/>
     <use style="fill:#f77189;fill-opacity:0.8;stroke:#f77189;stroke-opacity:0.8;" x="304.548353" xlink:href="#mfe1c324a23" y="225.661839"/>
     <use style="fill:#f77189;fill-opacity:0.8;stroke:#f77189;stroke-opacity:0.8;" x="340.171227" xlink:href="#mfe1c324a23" y="274.834401"/>
    </g>
   </g>
   <g id="PathCollection_2">
    <defs>
     <path d="M 0 3 
C 0.795609 3 1.55874 2.683901 2.12132 2.12132 
C 2.683901 1.55874 3 0.795609 3 0 
C 3 -0.795609 2.683901 -1.55874 2.12132 -2.12132 
C 1.55874 -2.683901 0.795609 -3 0 -3 
C -0.795609 -3 -1.55874 -2.683901 -2.12132 -2.12132 
C -2.683901 -1.55874 -3 -0.795609 -3 0 
C -3 0.795609 -2.683901 1.55874 -2.12132 2.12132 
C -1.55874 2.683901 -0.795609 3 0 3 
z
" id="me1c4e48e1f" style="stroke:#ef7d32;stroke-opacity:0.8;"/>
    </defs>
    <g clip-path="url(#p5d8b4cd597)">
     <use style="fill:#ef7d32;fill-opacity:0.8;stroke:#ef7d32;stroke-opacity:0.8;" x="90.811108" xlink:href="#me1c4e48e1f" y="284.611676"/>
     <use style="fill:#ef7d32;fill-opacity:0.8;stroke:#ef7d32;stroke-opacity:0.8;" x="126.433982" xlink:href="#me1c4e48e1f" y="282.450764"/>
     <use style="fill:#ef7d32;fill-opacity:0.8;stroke:#ef7d32;stroke-opacity:0.8;" x="162.056856" xlink:href="#me1c4e48e1f" y="283.542678"/>
     <use style="fill:#ef7d32;fill-opacity:0.8;stroke:#ef7d32;stroke-opacity:0.8;" x="197.67973" xlink:href="#me1c4e48e1f" y="272.735733"/>
     <use style="fill:#ef7d32;fill-opacity:0.8;stroke:#ef7d32;stroke-opacity:0.8;" x="233.302605" xlink:href="#me1c4e48e1f" y="269.595167"/>
     <use style="fill:#ef7d32;fill-opacity:0.8;stroke:#ef7d32;stroke-opacity:0.8;" x="268.925479" xlink:href="#me1c4e48e1f" y="275.381977"/>
     <use style="fill:#ef7d32;fill-opacity:0.8;stroke:#ef7d32;stroke-opacity:0.8;" x="304.548353" xlink:href="#me1c4e48e1f" y="283.880587"/>
     <use style="fill:#ef7d32;fill-opacity:0.8;stroke:#ef7d32;stroke-opacity:0.8;" x="340.171227" xlink:href="#me1c4e48e1f" y="282.257406"/>
    </g>
   </g>
   <g id="PathCollection_3">
    <defs>
     <path d="M 0 3 
C 0.795609 3 1.55874 2.683901 2.12132 2.12132 
C 2.683901 1.55874 3 0.795609 3 0 
C 3 -0.795609 2.683901 -1.55874 2.12132 -2.12132 
C 1.55874 -2.683901 0.795609 -3 0 -3 
C -0.795609 -3 -1.55874 -2.683901 -2.12132 -2.12132 
C -2.683901 -1.55874 -3 -0.795609 -3 0 
C -3 0.795609 -2.683901 1.55874 -2.12132 2.12132 
C -1.55874 2.683901 -0.795609 3 0 3 
z
" id="m05fab49cd1" style="stroke:#c69432;stroke-opacity:0.8;"/>
    </defs>
    <g clip-path="url(#p5d8b4cd597)">
     <use style="fill:#c69432;fill-opacity:0.8;stroke:#c69432;stroke-opacity:0.8;" x="126.433982" xlink:href="#m05fab49cd1" y="272.099683"/>
     <use style="fill:#c69432;fill-opacity:0.8;stroke:#c69432;stroke-opacity:0.8;" x="197.67973" xlink:href="#m05fab49cd1" y="231.963626"/>
     <use style="fill:#c69432;fill-opacity:0.8;stroke:#c69432;stroke-opacity:0.8;" x="233.302605" xlink:href="#m05fab49cd1" y="227.600492"/>
     <use style="fill:#c69432;fill-opacity:0.8;stroke:#c69432;stroke-opacity:0.8;" x="304.548353" xlink:href="#m05fab49cd1" y="39.556212"/>
     <use style="fill:#c69432;fill-opacity:0.8;stroke:#c69432;stroke-opacity:0.8;" x="340.171227" xlink:href="#m05fab49cd1" y="29.111025"/>
    </g>
   </g>
   <g id="PathCollection_4">
    <defs>
     <path d="M 0 3 
C 0.795609 3 1.55874 2.683901 2.12132 2.12132 
C 2.683901 1.55874 3 0.795609 3 0 
C 3 -0.795609 2.683901 -1.55874 2.12132 -2.12132 
C 1.55874 -2.683901 0.795609 -3 0 -3 
C -0.795609 -3 -1.55874 -2.683901 -2.12132 -2.12132 
C -2.683901 -1.55874 -3 -0.795609 -3 0 
C -3 0.795609 -2.683901 1.55874 -2.12132 2.12132 
C -1.55874 2.683901 -0.795609 3 0 3 
z
" id="m798ce6baef" style="stroke:#a79f31;stroke-opacity:0.8;"/>
    </defs>
    <g clip-path="url(#p5d8b4cd597)">
     <use style="fill:#a79f31;fill-opacity:0.8;stroke:#a79f31;stroke-opacity:0.8;" x="90.811108" xlink:href="#m798ce6baef" y="284.405566"/>
     <use style="fill:#a79f31;fill-opacity:0.8;stroke:#a79f31;stroke-opacity:0.8;" x="126.433982" xlink:href="#m798ce6baef" y="281.576093"/>
     <use style="fill:#a79f31;fill-opacity:0.8;stroke:#a79f31;stroke-opacity:0.8;" x="197.67973" xlink:href="#m798ce6baef" y="219.82792"/>
     <use style="fill:#a79f31;fill-opacity:0.8;stroke:#a79f31;stroke-opacity:0.8;" x="233.302605" xlink:href="#m798ce6baef" y="250.424067"/>
     <use style="fill:#a79f31;fill-opacity:0.8;stroke:#a79f31;stroke-opacity:0.8;" x="268.925479" xlink:href="#m798ce6baef" y="281.449979"/>
     <use style="fill:#a79f31;fill-opacity:0.8;stroke:#a79f31;stroke-opacity:0.8;" x="304.548353" xlink:href="#m798ce6baef" y="283.267786"/>
     <use style="fill:#a79f31;fill-opacity:0.8;stroke:#a79f31;stroke-opacity:0.8;" x="340.171227" xlink:href="#m798ce6baef" y="282.393292"/>
    </g>
   </g>
   <g id="PathCollection_5">
    <defs>
     <path d="M 0 3 
C 0.795609 3 1.55874 2.683901 2.12132 2.12132 
C 2.683901 1.55874 3 0.795609 3 0 
C 3 -0.795609 2.683901 -1.55874 2.12132 -2.12132 
C 1.55874 -2.683901 0.795609 -3 0 -3 
C -0.795609 -3 -1.55874 -2.683901 -2.12132 -2.12132 
C -2.683901 -1.55874 -3 -0.795609 -3 0 
C -3 0.795609 -2.683901 1.55874 -2.12132 2.12132 
C -1.55874 2.683901 -0.795609 3 0 3 
z
" id="m752e2a013c" style="stroke:#82a931;stroke-opacity:0.8;"/>
    </defs>
    <g clip-path="url(#p5d8b4cd597)">
     <use style="fill:#82a931;fill-opacity:0.8;stroke:#82a931;stroke-opacity:0.8;" x="90.811108" xlink:href="#m752e2a013c" y="274.996037"/>
     <use style="fill:#82a931;fill-opacity:0.8;stroke:#82a931;stroke-opacity:0.8;" x="126.433982" xlink:href="#m752e2a013c" y="263.225945"/>
     <use style="fill:#82a931;fill-opacity:0.8;stroke:#82a931;stroke-opacity:0.8;" x="162.056856" xlink:href="#m752e2a013c" y="281.846623"/>
     <use style="fill:#82a931;fill-opacity:0.8;stroke:#82a931;stroke-opacity:0.8;" x="233.302605" xlink:href="#m752e2a013c" y="283.11833"/>
     <use style="fill:#82a931;fill-opacity:0.8;stroke:#82a931;stroke-opacity:0.8;" x="268.925479" xlink:href="#m752e2a013c" y="280.360273"/>
     <use style="fill:#82a931;fill-opacity:0.8;stroke:#82a931;stroke-opacity:0.8;" x="304.548353" xlink:href="#m752e2a013c" y="283.087225"/>
     <use style="fill:#82a931;fill-opacity:0.8;stroke:#82a931;stroke-opacity:0.8;" x="340.171227" xlink:href="#m752e2a013c" y="265.624233"/>
    </g>
   </g>
   <g id="PathCollection_6">
    <defs>
     <path d="M 0 3 
C 0.795609 3 1.55874 2.683901 2.12132 2.12132 
C 2.683901 1.55874 3 0.795609 3 0 
C 3 -0.795609 2.683901 -1.55874 2.12132 -2.12132 
C 1.55874 -2.683901 0.795609 -3 0 -3 
C -0.795609 -3 -1.55874 -2.683901 -2.12132 -2.12132 
C -2.683901 -1.55874 -3 -0.795609 -3 0 
C -3 0.795609 -2.683901 1.55874 -2.12132 2.12132 
C -1.55874 2.683901 -0.795609 3 0 3 
z
" id="m4803f26447" style="stroke:#32b24e;stroke-opacity:0.8;"/>
    </defs>
    <g clip-path="url(#p5d8b4cd597)">
     <use style="fill:#32b24e;fill-opacity:0.8;stroke:#32b24e;stroke-opacity:0.8;" x="126.433982" xlink:href="#m4803f26447" y="215.691715"/>
     <use style="fill:#32b24e;fill-opacity:0.8;stroke:#32b24e;stroke-opacity:0.8;" x="162.056856" xlink:href="#m4803f26447" y="211.745214"/>
     <use style="fill:#32b24e;fill-opacity:0.8;stroke:#32b24e;stroke-opacity:0.8;" x="197.67973" xlink:href="#m4803f26447" y="251.950284"/>
     <use style="fill:#32b24e;fill-opacity:0.8;stroke:#32b24e;stroke-opacity:0.8;" x="233.302605" xlink:href="#m4803f26447" y="150.88798"/>
     <use style="fill:#32b24e;fill-opacity:0.8;stroke:#32b24e;stroke-opacity:0.8;" x="268.925479" xlink:href="#m4803f26447" y="239.586457"/>
     <use style="fill:#32b24e;fill-opacity:0.8;stroke:#32b24e;stroke-opacity:0.8;" x="304.548353" xlink:href="#m4803f26447" y="214.330429"/>
     <use style="fill:#32b24e;fill-opacity:0.8;stroke:#32b24e;stroke-opacity:0.8;" x="340.171227" xlink:href="#m4803f26447" y="229.61744"/>
    </g>
   </g>
   <g id="PathCollection_7">
    <defs>
     <path d="M 0 3 
C 0.795609 3 1.55874 2.683901 2.12132 2.12132 
C 2.683901 1.55874 3 0.795609 3 0 
C 3 -0.795609 2.683901 -1.55874 2.12132 -2.12132 
C 1.55874 -2.683901 0.795609 -3 0 -3 
C -0.795609 -3 -1.55874 -2.683901 -2.12132 -2.12132 
C -2.683901 -1.55874 -3 -0.795609 -3 0 
C -3 0.795609 -2.683901 1.55874 -2.12132 2.12132 
C -1.55874 2.683901 -0.795609 3 0 3 
z
" id="m9c03261348" style="stroke:#34af8a;stroke-opacity:0.8;"/>
    </defs>
    <g clip-path="url(#p5d8b4cd597)">
     <use style="fill:#34af8a;fill-opacity:0.8;stroke:#34af8a;stroke-opacity:0.8;" x="90.811108" xlink:href="#m9c03261348" y="276.328947"/>
     <use style="fill:#34af8a;fill-opacity:0.8;stroke:#34af8a;stroke-opacity:0.8;" x="126.433982" xlink:href="#m9c03261348" y="233.081844"/>
     <use style="fill:#34af8a;fill-opacity:0.8;stroke:#34af8a;stroke-opacity:0.8;" x="162.056856" xlink:href="#m9c03261348" y="248.175261"/>
     <use style="fill:#34af8a;fill-opacity:0.8;stroke:#34af8a;stroke-opacity:0.8;" x="197.67973" xlink:href="#m9c03261348" y="261.012051"/>
     <use style="fill:#34af8a;fill-opacity:0.8;stroke:#34af8a;stroke-opacity:0.8;" x="233.302605" xlink:href="#m9c03261348" y="140.842173"/>
     <use style="fill:#34af8a;fill-opacity:0.8;stroke:#34af8a;stroke-opacity:0.8;" x="268.925479" xlink:href="#m9c03261348" y="72.63799"/>
     <use style="fill:#34af8a;fill-opacity:0.8;stroke:#34af8a;stroke-opacity:0.8;" x="304.548353" xlink:href="#m9c03261348" y="167.143764"/>
     <use style="fill:#34af8a;fill-opacity:0.8;stroke:#34af8a;stroke-opacity:0.8;" x="340.171227" xlink:href="#m9c03261348" y="220.376342"/>
    </g>
   </g>
   <g id="PathCollection_8">
    <defs>
     <path d="M 0 3 
C 0.795609 3 1.55874 2.683901 2.12132 2.12132 
C 2.683901 1.55874 3 0.795609 3 0 
C 3 -0.795609 2.683901 -1.55874 2.12132 -2.12132 
C 1.55874 -2.683901 0.795609 -3 0 -3 
C -0.795609 -3 -1.55874 -2.683901 -2.12132 -2.12132 
C -2.683901 -1.55874 -3 -0.795609 -3 0 
C -3 0.795609 -2.683901 1.55874 -2.12132 2.12132 
C -1.55874 2.683901 -0.795609 3 0 3 
z
" id="mbdf7af1fcb" style="stroke:#36ada4;stroke-opacity:0.8;"/>
    </defs>
    <g clip-path="url(#p5d8b4cd597)">
     <use style="fill:#36ada4;fill-opacity:0.8;stroke:#36ada4;stroke-opacity:0.8;" x="126.433982" xlink:href="#mbdf7af1fcb" y="280.464484"/>
     <use style="fill:#36ada4;fill-opacity:0.8;stroke:#36ada4;stroke-opacity:0.8;" x="197.67973" xlink:href="#mbdf7af1fcb" y="257.518038"/>
     <use style="fill:#36ada4;fill-opacity:0.8;stroke:#36ada4;stroke-opacity:0.8;" x="268.925479" xlink:href="#mbdf7af1fcb" y="239.926966"/>
     <use style="fill:#36ada4;fill-opacity:0.8;stroke:#36ada4;stroke-opacity:0.8;" x="304.548353" xlink:href="#mbdf7af1fcb" y="244.900916"/>
     <use style="fill:#36ada4;fill-opacity:0.8;stroke:#36ada4;stroke-opacity:0.8;" x="340.171227" xlink:href="#mbdf7af1fcb" y="81.950722"/>
    </g>
   </g>
   <g id="PathCollection_9">
    <defs>
     <path d="M 0 3 
C 0.795609 3 1.55874 2.683901 2.12132 2.12132 
C 2.683901 1.55874 3 0.795609 3 0 
C 3 -0.795609 2.683901 -1.55874 2.12132 -2.12132 
C 1.55874 -2.683901 0.795609 -3 0 -3 
C -0.795609 -3 -1.55874 -2.683901 -2.12132 -2.12132 
C -2.683901 -1.55874 -3 -0.795609 -3 0 
C -3 0.795609 -2.683901 1.55874 -2.12132 2.12132 
C -1.55874 2.683901 -0.795609 3 0 3 
z
" id="m65f880e9f1" style="stroke:#37aabb;stroke-opacity:0.8;"/>
    </defs>
    <g clip-path="url(#p5d8b4cd597)">
     <use style="fill:#37aabb;fill-opacity:0.8;stroke:#37aabb;stroke-opacity:0.8;" x="90.811108" xlink:href="#m65f880e9f1" y="201.871021"/>
     <use style="fill:#37aabb;fill-opacity:0.8;stroke:#37aabb;stroke-opacity:0.8;" x="162.056856" xlink:href="#m65f880e9f1" y="192.224051"/>
     <use style="fill:#37aabb;fill-opacity:0.8;stroke:#37aabb;stroke-opacity:0.8;" x="197.67973" xlink:href="#m65f880e9f1" y="284.611676"/>
     <use style="fill:#37aabb;fill-opacity:0.8;stroke:#37aabb;stroke-opacity:0.8;" x="233.302605" xlink:href="#m65f880e9f1" y="132.67394"/>
     <use style="fill:#37aabb;fill-opacity:0.8;stroke:#37aabb;stroke-opacity:0.8;" x="268.925479" xlink:href="#m65f880e9f1" y="184.156848"/>
     <use style="fill:#37aabb;fill-opacity:0.8;stroke:#37aabb;stroke-opacity:0.8;" x="304.548353" xlink:href="#m65f880e9f1" y="253.881306"/>
    </g>
   </g>
   <g id="PathCollection_10">
    <defs>
     <path d="M 0 3 
C 0.795609 3 1.55874 2.683901 2.12132 2.12132 
C 2.683901 1.55874 3 0.795609 3 0 
C 3 -0.795609 2.683901 -1.55874 2.12132 -2.12132 
C 1.55874 -2.683901 0.795609 -3 0 -3 
C -0.795609 -3 -1.55874 -2.683901 -2.12132 -2.12132 
C -2.683901 -1.55874 -3 -0.795609 -3 0 
C -3 0.795609 -2.683901 1.55874 -2.12132 2.12132 
C -1.55874 2.683901 -0.795609 3 0 3 
z
" id="m18ee80cadf" style="stroke:#3aa6da;stroke-opacity:0.8;"/>
    </defs>
    <g clip-path="url(#p5d8b4cd597)">
     <use style="fill:#3aa6da;fill-opacity:0.8;stroke:#3aa6da;stroke-opacity:0.8;" x="90.811108" xlink:href="#m18ee80cadf" y="279.964296"/>
     <use style="fill:#3aa6da;fill-opacity:0.8;stroke:#3aa6da;stroke-opacity:0.8;" x="197.67973" xlink:href="#m18ee80cadf" y="255.108327"/>
     <use style="fill:#3aa6da;fill-opacity:0.8;stroke:#3aa6da;stroke-opacity:0.8;" x="268.925479" xlink:href="#m18ee80cadf" y="282.595211"/>
     <use style="fill:#3aa6da;fill-opacity:0.8;stroke:#3aa6da;stroke-opacity:0.8;" x="340.171227" xlink:href="#m18ee80cadf" y="238.728531"/>
    </g>
   </g>
   <g id="PathCollection_11">
    <defs>
     <path d="M 0 3 
C 0.795609 3 1.55874 2.683901 2.12132 2.12132 
C 2.683901 1.55874 3 0.795609 3 0 
C 3 -0.795609 2.683901 -1.55874 2.12132 -2.12132 
C 1.55874 -2.683901 0.795609 -3 0 -3 
C -0.795609 -3 -1.55874 -2.683901 -2.12132 -2.12132 
C -2.683901 -1.55874 -3 -0.795609 -3 0 
C -3 0.795609 -2.683901 1.55874 -2.12132 2.12132 
C -1.55874 2.683901 -0.795609 3 0 3 
z
" id="m577842e15d" style="stroke:#8197f4;stroke-opacity:0.8;"/>
    </defs>
    <g clip-path="url(#p5d8b4cd597)">
     <use style="fill:#8197f4;fill-opacity:0.8;stroke:#8197f4;stroke-opacity:0.8;" x="90.811108" xlink:href="#m577842e15d" y="280.908479"/>
     <use style="fill:#8197f4;fill-opacity:0.8;stroke:#8197f4;stroke-opacity:0.8;" x="126.433982" xlink:href="#m577842e15d" y="269.387003"/>
     <use style="fill:#8197f4;fill-opacity:0.8;stroke:#8197f4;stroke-opacity:0.8;" x="197.67973" xlink:href="#m577842e15d" y="214.277745"/>
     <use style="fill:#8197f4;fill-opacity:0.8;stroke:#8197f4;stroke-opacity:0.8;" x="233.302605" xlink:href="#m577842e15d" y="239.145534"/>
     <use style="fill:#8197f4;fill-opacity:0.8;stroke:#8197f4;stroke-opacity:0.8;" x="268.925479" xlink:href="#m577842e15d" y="266.98135"/>
     <use style="fill:#8197f4;fill-opacity:0.8;stroke:#8197f4;stroke-opacity:0.8;" x="304.548353" xlink:href="#m577842e15d" y="206.938231"/>
     <use style="fill:#8197f4;fill-opacity:0.8;stroke:#8197f4;stroke-opacity:0.8;" x="340.171227" xlink:href="#m577842e15d" y="114.087441"/>
    </g>
   </g>
   <g id="PathCollection_12">
    <defs>
     <path d="M 0 3 
C 0.795609 3 1.55874 2.683901 2.12132 2.12132 
C 2.683901 1.55874 3 0.795609 3 0 
C 3 -0.795609 2.683901 -1.55874 2.12132 -2.12132 
C 1.55874 -2.683901 0.795609 -3 0 -3 
C -0.795609 -3 -1.55874 -2.683901 -2.12132 -2.12132 
C -2.683901 -1.55874 -3 -0.795609 -3 0 
C -3 0.795609 -2.683901 1.55874 -2.12132 2.12132 
C -1.55874 2.683901 -0.795609 3 0 3 
z
" id="m3b705af904" style="stroke:#c180f4;stroke-opacity:0.8;"/>
    </defs>
    <g clip-path="url(#p5d8b4cd597)">
     <use style="fill:#c180f4;fill-opacity:0.8;stroke:#c180f4;stroke-opacity:0.8;" x="126.433982" xlink:href="#m3b705af904" y="280.145113"/>
     <use style="fill:#c180f4;fill-opacity:0.8;stroke:#c180f4;stroke-opacity:0.8;" x="162.056856" xlink:href="#m3b705af904" y="258.733123"/>
     <use style="fill:#c180f4;fill-opacity:0.8;stroke:#c180f4;stroke-opacity:0.8;" x="197.67973" xlink:href="#m3b705af904" y="240.826778"/>
     <use style="fill:#c180f4;fill-opacity:0.8;stroke:#c180f4;stroke-opacity:0.8;" x="268.925479" xlink:href="#m3b705af904" y="277.258116"/>
     <use style="fill:#c180f4;fill-opacity:0.8;stroke:#c180f4;stroke-opacity:0.8;" x="304.548353" xlink:href="#m3b705af904" y="279.08569"/>
     <use style="fill:#c180f4;fill-opacity:0.8;stroke:#c180f4;stroke-opacity:0.8;" x="340.171227" xlink:href="#m3b705af904" y="275.561137"/>
    </g>
   </g>
   <g id="PathCollection_13">
    <defs>
     <path d="M 0 3 
C 0.795609 3 1.55874 2.683901 2.12132 2.12132 
C 2.683901 1.55874 3 0.795609 3 0 
C 3 -0.795609 2.683901 -1.55874 2.12132 -2.12132 
C 1.55874 -2.683901 0.795609 -3 0 -3 
C -0.795609 -3 -1.55874 -2.683901 -2.12132 -2.12132 
C -2.683901 -1.55874 -3 -0.795609 -3 0 
C -3 0.795609 -2.683901 1.55874 -2.12132 2.12132 
C -1.55874 2.683901 -0.795609 3 0 3 
z
" id="m881770893c" style="stroke:#f45deb;stroke-opacity:0.8;"/>
    </defs>
    <g clip-path="url(#p5d8b4cd597)">
     <use style="fill:#f45deb;fill-opacity:0.8;stroke:#f45deb;stroke-opacity:0.8;" x="90.811108" xlink:href="#m881770893c" y="284.234262"/>
     <use style="fill:#f45deb;fill-opacity:0.8;stroke:#f45deb;stroke-opacity:0.8;" x="126.433982" xlink:href="#m881770893c" y="283.968704"/>
     <use style="fill:#f45deb;fill-opacity:0.8;stroke:#f45deb;stroke-opacity:0.8;" x="162.056856" xlink:href="#m881770893c" y="284.144215"/>
     <use style="fill:#f45deb;fill-opacity:0.8;stroke:#f45deb;stroke-opacity:0.8;" x="197.67973" xlink:href="#m881770893c" y="283.618093"/>
     <use style="fill:#f45deb;fill-opacity:0.8;stroke:#f45deb;stroke-opacity:0.8;" x="233.302605" xlink:href="#m881770893c" y="283.664095"/>
     <use style="fill:#f45deb;fill-opacity:0.8;stroke:#f45deb;stroke-opacity:0.8;" x="268.925479" xlink:href="#m881770893c" y="283.776545"/>
     <use style="fill:#f45deb;fill-opacity:0.8;stroke:#f45deb;stroke-opacity:0.8;" x="304.548353" xlink:href="#m881770893c" y="284.056914"/>
    </g>
   </g>
   <g id="PathCollection_14">
    <defs>
     <path d="M 0 3 
C 0.795609 3 1.55874 2.683901 2.12132 2.12132 
C 2.683901 1.55874 3 0.795609 3 0 
C 3 -0.795609 2.683901 -1.55874 2.12132 -2.12132 
C 1.55874 -2.683901 0.795609 -3 0 -3 
C -0.795609 -3 -1.55874 -2.683901 -2.12132 -2.12132 
C -2.683901 -1.55874 -3 -0.795609 -3 0 
C -3 0.795609 -2.683901 1.55874 -2.12132 2.12132 
C -1.55874 2.683901 -0.795609 3 0 3 
z
" id="md339670cdb" style="stroke:#f669ba;stroke-opacity:0.8;"/>
    </defs>
    <g clip-path="url(#p5d8b4cd597)">
     <use style="fill:#f669ba;fill-opacity:0.8;stroke:#f669ba;stroke-opacity:0.8;" x="90.811108" xlink:href="#md339670cdb" y="284.265424"/>
     <use style="fill:#f669ba;fill-opacity:0.8;stroke:#f669ba;stroke-opacity:0.8;" x="126.433982" xlink:href="#md339670cdb" y="282.544124"/>
     <use style="fill:#f669ba;fill-opacity:0.8;stroke:#f669ba;stroke-opacity:0.8;" x="162.056856" xlink:href="#md339670cdb" y="282.471185"/>
     <use style="fill:#f669ba;fill-opacity:0.8;stroke:#f669ba;stroke-opacity:0.8;" x="233.302605" xlink:href="#md339670cdb" y="283.487274"/>
     <use style="fill:#f669ba;fill-opacity:0.8;stroke:#f669ba;stroke-opacity:0.8;" x="268.925479" xlink:href="#md339670cdb" y="283.304707"/>
     <use style="fill:#f669ba;fill-opacity:0.8;stroke:#f669ba;stroke-opacity:0.8;" x="304.548353" xlink:href="#md339670cdb" y="284.234532"/>
     <use style="fill:#f669ba;fill-opacity:0.8;stroke:#f669ba;stroke-opacity:0.8;" x="340.171227" xlink:href="#md339670cdb" y="280.972896"/>
    </g>
   </g>
   <g id="line2d_1">
    <path clip-path="url(#p5d8b4cd597)" d="M 90.811108 231.428681 
L 93.329897 231.476357 
L 95.848686 231.524032 
L 98.367475 231.571707 
L 100.886264 231.619382 
L 103.405053 231.667058 
L 105.923842 231.714733 
L 108.442632 231.762408 
L 110.961421 231.810084 
L 113.48021 231.857759 
L 115.998999 231.905434 
L 118.517788 231.95311 
L 121.036577 232.000785 
L 123.555366 232.04846 
L 126.074155 232.096136 
L 128.592944 232.143811 
L 131.111733 232.191486 
L 133.630522 232.239161 
L 136.149311 232.286837 
L 138.668101 232.334512 
L 141.18689 232.382187 
L 143.705679 232.429863 
L 146.224468 232.477538 
L 148.743257 232.525213 
L 151.262046 232.572889 
L 153.780835 232.620564 
L 156.299624 232.668239 
L 158.818413 232.715914 
L 161.337202 232.76359 
L 163.855991 232.811265 
L 166.37478 232.85894 
L 168.893569 232.906616 
L 171.412359 232.954291 
L 173.931148 233.001966 
L 176.449937 233.049642 
L 178.968726 233.097317 
L 181.487515 233.144992 
L 184.006304 233.192667 
L 186.525093 233.240343 
L 189.043882 233.288018 
L 191.562671 233.335693 
L 194.08146 233.383369 
L 196.600249 233.431044 
L 199.119038 233.478719 
L 201.637828 233.526395 
L 204.156617 233.57407 
L 206.675406 233.621745 
L 209.194195 233.66942 
L 211.712984 233.717096 
L 214.231773 233.764771 
L 216.750562 233.812446 
L 219.269351 233.860122 
L 221.78814 233.907797 
L 224.306929 233.955472 
L 226.825718 234.003148 
L 229.344507 234.050823 
L 231.863297 234.098498 
L 234.382086 234.146174 
L 236.900875 234.193849 
L 239.419664 234.241524 
L 241.938453 234.289199 
L 244.457242 234.336875 
L 246.976031 234.38455 
L 249.49482 234.432225 
L 252.013609 234.479901 
L 254.532398 234.527576 
L 257.051187 234.575251 
L 259.569976 234.622927 
L 262.088766 234.670602 
L 264.607555 234.718277 
L 267.126344 234.765952 
L 269.645133 234.813628 
L 272.163922 234.861303 
L 274.682711 234.908978 
L 277.2015 234.956654 
L 279.720289 235.004329 
L 282.239078 235.052004 
L 284.757867 235.09968 
L 287.276656 235.147355 
L 289.795445 235.19503 
L 292.314235 235.242705 
L 294.833024 235.290381 
L 297.351813 235.338056 
L 299.870602 235.385731 
L 302.389391 235.433407 
L 304.90818 235.481082 
L 307.426969 235.528757 
L 309.945758 235.576433 
L 312.464547 235.624108 
L 314.983336 235.671783 
L 317.502125 235.719458 
L 320.020914 235.767134 
L 322.539704 235.814809 
L 325.058493 235.862484 
L 327.577282 235.91016 
L 330.096071 235.957835 
L 332.61486 236.00551 
L 335.133649 236.053186 
L 337.652438 236.100861 
L 340.171227 236.148536 
" style="fill:none;stroke:#f77189;stroke-linecap:round;stroke-width:2.25;"/>
   </g>
   <g id="line2d_2">
    <path clip-path="url(#p5d8b4cd597)" d="M 90.811108 280.846726 
L 93.329897 280.81562 
L 95.848686 280.784514 
L 98.367475 280.753409 
L 100.886264 280.722303 
L 103.405053 280.691198 
L 105.923842 280.660092 
L 108.442632 280.628987 
L 110.961421 280.597881 
L 113.48021 280.566775 
L 115.998999 280.53567 
L 118.517788 280.504564 
L 121.036577 280.473459 
L 123.555366 280.442353 
L 126.074155 280.411247 
L 128.592944 280.380142 
L 131.111733 280.349036 
L 133.630522 280.317931 
L 136.149311 280.286825 
L 138.668101 280.255719 
L 141.18689 280.224614 
L 143.705679 280.193508 
L 146.224468 280.162403 
L 148.743257 280.131297 
L 151.262046 280.100191 
L 153.780835 280.069086 
L 156.299624 280.03798 
L 158.818413 280.006875 
L 161.337202 279.975769 
L 163.855991 279.944663 
L 166.37478 279.913558 
L 168.893569 279.882452 
L 171.412359 279.851347 
L 173.931148 279.820241 
L 176.449937 279.789135 
L 178.968726 279.75803 
L 181.487515 279.726924 
L 184.006304 279.695819 
L 186.525093 279.664713 
L 189.043882 279.633607 
L 191.562671 279.602502 
L 194.08146 279.571396 
L 196.600249 279.540291 
L 199.119038 279.509185 
L 201.637828 279.478079 
L 204.156617 279.446974 
L 206.675406 279.415868 
L 209.194195 279.384763 
L 211.712984 279.353657 
L 214.231773 279.322551 
L 216.750562 279.291446 
L 219.269351 279.26034 
L 221.78814 279.229235 
L 224.306929 279.198129 
L 226.825718 279.167023 
L 229.344507 279.135918 
L 231.863297 279.104812 
L 234.382086 279.073707 
L 236.900875 279.042601 
L 239.419664 279.011495 
L 241.938453 278.98039 
L 244.457242 278.949284 
L 246.976031 278.918179 
L 249.49482 278.887073 
L 252.013609 278.855967 
L 254.532398 278.824862 
L 257.051187 278.793756 
L 259.569976 278.762651 
L 262.088766 278.731545 
L 264.607555 278.700439 
L 267.126344 278.669334 
L 269.645133 278.638228 
L 272.163922 278.607123 
L 274.682711 278.576017 
L 277.2015 278.544912 
L 279.720289 278.513806 
L 282.239078 278.4827 
L 284.757867 278.451595 
L 287.276656 278.420489 
L 289.795445 278.389384 
L 292.314235 278.358278 
L 294.833024 278.327172 
L 297.351813 278.296067 
L 299.870602 278.264961 
L 302.389391 278.233856 
L 304.90818 278.20275 
L 307.426969 278.171644 
L 309.945758 278.140539 
L 312.464547 278.109433 
L 314.983336 278.078328 
L 317.502125 278.047222 
L 320.020914 278.016116 
L 322.539704 277.985011 
L 325.058493 277.953905 
L 327.577282 277.9228 
L 330.096071 277.891694 
L 332.61486 277.860588 
L 335.133649 277.829483 
L 337.652438 277.798377 
L 340.171227 277.767272 
" style="fill:none;stroke:#ef7d32;stroke-linecap:round;stroke-width:2.25;"/>
   </g>
   <g id="line2d_3">
    <path clip-path="url(#p5d8b4cd597)" d="M 126.433982 306.295455 
L 128.592944 303.525961 
L 130.751906 300.756468 
L 132.910868 297.986975 
L 135.06983 295.217481 
L 137.228792 292.447988 
L 139.387755 289.678495 
L 141.546717 286.909001 
L 143.705679 284.139508 
L 145.864641 281.370015 
L 148.023603 278.600521 
L 150.182565 275.831028 
L 152.341527 273.061535 
L 154.500489 270.292041 
L 156.659451 267.522548 
L 158.818413 264.753055 
L 160.977375 261.983561 
L 163.136337 259.214068 
L 165.295299 256.444575 
L 167.454261 253.675082 
L 169.613224 250.905588 
L 171.772186 248.136095 
L 173.931148 245.366602 
L 176.09011 242.597108 
L 178.249072 239.827615 
L 180.408034 237.058122 
L 182.566996 234.288628 
L 184.725958 231.519135 
L 186.88492 228.749642 
L 189.043882 225.980148 
L 191.202844 223.210655 
L 193.361806 220.441162 
L 195.520768 217.671668 
L 197.67973 214.902175 
L 199.838693 212.132682 
L 201.997655 209.363188 
L 204.156617 206.593695 
L 206.315579 203.824202 
L 208.474541 201.054709 
L 210.633503 198.285215 
L 212.792465 195.515722 
L 214.951427 192.746229 
L 217.110389 189.976735 
L 219.269351 187.207242 
L 221.428313 184.437749 
L 223.587275 181.668255 
L 225.746237 178.898762 
L 227.905199 176.129269 
L 230.064162 173.359775 
L 232.223124 170.590282 
L 234.382086 167.820789 
L 236.541048 165.051295 
L 238.70001 162.281802 
L 240.858972 159.512309 
L 243.017934 156.742815 
L 245.176896 153.973322 
L 247.335858 151.203829 
L 249.49482 148.434336 
L 251.653782 145.664842 
L 253.812744 142.895349 
L 255.971706 140.125856 
L 258.130668 137.356362 
L 260.289631 134.586869 
L 262.448593 131.817376 
L 264.607555 129.047882 
L 266.766517 126.278389 
L 268.925479 123.508896 
L 271.084441 120.739402 
L 273.243403 117.969909 
L 275.402365 115.200416 
L 277.561327 112.430922 
L 279.720289 109.661429 
L 281.879251 106.891936 
L 284.038213 104.122442 
L 286.197175 101.352949 
L 288.356137 98.583456 
L 290.5151 95.813963 
L 292.674062 93.044469 
L 294.833024 90.274976 
L 296.991986 87.505483 
L 299.150948 84.735989 
L 301.30991 81.966496 
L 303.468872 79.197003 
L 305.627834 76.427509 
L 307.786796 73.658016 
L 309.945758 70.888523 
L 312.10472 68.119029 
L 314.263682 65.349536 
L 316.422644 62.580043 
L 318.581606 59.810549 
L 320.740569 57.041056 
L 322.899531 54.271563 
L 325.058493 51.502069 
L 327.217455 48.732576 
L 329.376417 45.963083 
L 331.535379 43.19359 
L 333.694341 40.424096 
L 335.853303 37.654603 
L 338.012265 34.88511 
L 340.171227 32.115616 
" style="fill:none;stroke:#c69432;stroke-linecap:round;stroke-width:2.25;"/>
   </g>
   <g id="line2d_4">
    <path clip-path="url(#p5d8b4cd597)" d="M 90.811108 266.120903 
L 93.329897 266.176649 
L 95.848686 266.232394 
L 98.367475 266.28814 
L 100.886264 266.343885 
L 103.405053 266.39963 
L 105.923842 266.455376 
L 108.442632 266.511121 
L 110.961421 266.566867 
L 113.48021 266.622612 
L 115.998999 266.678357 
L 118.517788 266.734103 
L 121.036577 266.789848 
L 123.555366 266.845594 
L 126.074155 266.901339 
L 128.592944 266.957084 
L 131.111733 267.01283 
L 133.630522 267.068575 
L 136.149311 267.124321 
L 138.668101 267.180066 
L 141.18689 267.235811 
L 143.705679 267.291557 
L 146.224468 267.347302 
L 148.743257 267.403048 
L 151.262046 267.458793 
L 153.780835 267.514538 
L 156.299624 267.570284 
L 158.818413 267.626029 
L 161.337202 267.681774 
L 163.855991 267.73752 
L 166.37478 267.793265 
L 168.893569 267.849011 
L 171.412359 267.904756 
L 173.931148 267.960501 
L 176.449937 268.016247 
L 178.968726 268.071992 
L 181.487515 268.127738 
L 184.006304 268.183483 
L 186.525093 268.239228 
L 189.043882 268.294974 
L 191.562671 268.350719 
L 194.08146 268.406465 
L 196.600249 268.46221 
L 199.119038 268.517955 
L 201.637828 268.573701 
L 204.156617 268.629446 
L 206.675406 268.685192 
L 209.194195 268.740937 
L 211.712984 268.796682 
L 214.231773 268.852428 
L 216.750562 268.908173 
L 219.269351 268.963919 
L 221.78814 269.019664 
L 224.306929 269.075409 
L 226.825718 269.131155 
L 229.344507 269.1869 
L 231.863297 269.242646 
L 234.382086 269.298391 
L 236.900875 269.354136 
L 239.419664 269.409882 
L 241.938453 269.465627 
L 244.457242 269.521373 
L 246.976031 269.577118 
L 249.49482 269.632863 
L 252.013609 269.688609 
L 254.532398 269.744354 
L 257.051187 269.800099 
L 259.569976 269.855845 
L 262.088766 269.91159 
L 264.607555 269.967336 
L 267.126344 270.023081 
L 269.645133 270.078826 
L 272.163922 270.134572 
L 274.682711 270.190317 
L 277.2015 270.246063 
L 279.720289 270.301808 
L 282.239078 270.357553 
L 284.757867 270.413299 
L 287.276656 270.469044 
L 289.795445 270.52479 
L 292.314235 270.580535 
L 294.833024 270.63628 
L 297.351813 270.692026 
L 299.870602 270.747771 
L 302.389391 270.803517 
L 304.90818 270.859262 
L 307.426969 270.915007 
L 309.945758 270.970753 
L 312.464547 271.026498 
L 314.983336 271.082244 
L 317.502125 271.137989 
L 320.020914 271.193734 
L 322.539704 271.24948 
L 325.058493 271.305225 
L 327.577282 271.360971 
L 330.096071 271.416716 
L 332.61486 271.472461 
L 335.133649 271.528207 
L 337.652438 271.583952 
L 340.171227 271.639698 
" style="fill:none;stroke:#a79f31;stroke-linecap:round;stroke-width:2.25;"/>
   </g>
   <g id="line2d_5">
    <path clip-path="url(#p5d8b4cd597)" d="M 90.811108 274.481897 
L 93.329897 274.512683 
L 95.848686 274.54347 
L 98.367475 274.574257 
L 100.886264 274.605044 
L 103.405053 274.635831 
L 105.923842 274.666618 
L 108.442632 274.697405 
L 110.961421 274.728192 
L 113.48021 274.758979 
L 115.998999 274.789766 
L 118.517788 274.820553 
L 121.036577 274.85134 
L 123.555366 274.882127 
L 126.074155 274.912914 
L 128.592944 274.943701 
L 131.111733 274.974488 
L 133.630522 275.005275 
L 136.149311 275.036062 
L 138.668101 275.066849 
L 141.18689 275.097636 
L 143.705679 275.128423 
L 146.224468 275.15921 
L 148.743257 275.189997 
L 151.262046 275.220784 
L 153.780835 275.251571 
L 156.299624 275.282358 
L 158.818413 275.313145 
L 161.337202 275.343931 
L 163.855991 275.374718 
L 166.37478 275.405505 
L 168.893569 275.436292 
L 171.412359 275.467079 
L 173.931148 275.497866 
L 176.449937 275.528653 
L 178.968726 275.55944 
L 181.487515 275.590227 
L 184.006304 275.621014 
L 186.525093 275.651801 
L 189.043882 275.682588 
L 191.562671 275.713375 
L 194.08146 275.744162 
L 196.600249 275.774949 
L 199.119038 275.805736 
L 201.637828 275.836523 
L 204.156617 275.86731 
L 206.675406 275.898097 
L 209.194195 275.928884 
L 211.712984 275.959671 
L 214.231773 275.990458 
L 216.750562 276.021245 
L 219.269351 276.052032 
L 221.78814 276.082819 
L 224.306929 276.113606 
L 226.825718 276.144393 
L 229.344507 276.175179 
L 231.863297 276.205966 
L 234.382086 276.236753 
L 236.900875 276.26754 
L 239.419664 276.298327 
L 241.938453 276.329114 
L 244.457242 276.359901 
L 246.976031 276.390688 
L 249.49482 276.421475 
L 252.013609 276.452262 
L 254.532398 276.483049 
L 257.051187 276.513836 
L 259.569976 276.544623 
L 262.088766 276.57541 
L 264.607555 276.606197 
L 267.126344 276.636984 
L 269.645133 276.667771 
L 272.163922 276.698558 
L 274.682711 276.729345 
L 277.2015 276.760132 
L 279.720289 276.790919 
L 282.239078 276.821706 
L 284.757867 276.852493 
L 287.276656 276.88328 
L 289.795445 276.914067 
L 292.314235 276.944854 
L 294.833024 276.97564 
L 297.351813 277.006427 
L 299.870602 277.037214 
L 302.389391 277.068001 
L 304.90818 277.098788 
L 307.426969 277.129575 
L 309.945758 277.160362 
L 312.464547 277.191149 
L 314.983336 277.221936 
L 317.502125 277.252723 
L 320.020914 277.28351 
L 322.539704 277.314297 
L 325.058493 277.345084 
L 327.577282 277.375871 
L 330.096071 277.406658 
L 332.61486 277.437445 
L 335.133649 277.468232 
L 337.652438 277.499019 
L 340.171227 277.529806 
" style="fill:none;stroke:#82a931;stroke-linecap:round;stroke-width:2.25;"/>
   </g>
   <g id="line2d_6">
    <path clip-path="url(#p5d8b4cd597)" d="M 126.433982 212.553098 
L 128.592944 212.627955 
L 130.751906 212.702812 
L 132.910868 212.777668 
L 135.06983 212.852525 
L 137.228792 212.927381 
L 139.387755 213.002238 
L 141.546717 213.077095 
L 143.705679 213.151951 
L 145.864641 213.226808 
L 148.023603 213.301665 
L 150.182565 213.376521 
L 152.341527 213.451378 
L 154.500489 213.526235 
L 156.659451 213.601091 
L 158.818413 213.675948 
L 160.977375 213.750805 
L 163.136337 213.825661 
L 165.295299 213.900518 
L 167.454261 213.975375 
L 169.613224 214.050231 
L 171.772186 214.125088 
L 173.931148 214.199945 
L 176.09011 214.274801 
L 178.249072 214.349658 
L 180.408034 214.424515 
L 182.566996 214.499371 
L 184.725958 214.574228 
L 186.88492 214.649085 
L 189.043882 214.723941 
L 191.202844 214.798798 
L 193.361806 214.873655 
L 195.520768 214.948511 
L 197.67973 215.023368 
L 199.838693 215.098225 
L 201.997655 215.173081 
L 204.156617 215.247938 
L 206.315579 215.322795 
L 208.474541 215.397651 
L 210.633503 215.472508 
L 212.792465 215.547364 
L 214.951427 215.622221 
L 217.110389 215.697078 
L 219.269351 215.771934 
L 221.428313 215.846791 
L 223.587275 215.921648 
L 225.746237 215.996504 
L 227.905199 216.071361 
L 230.064162 216.146218 
L 232.223124 216.221074 
L 234.382086 216.295931 
L 236.541048 216.370788 
L 238.70001 216.445644 
L 240.858972 216.520501 
L 243.017934 216.595358 
L 245.176896 216.670214 
L 247.335858 216.745071 
L 249.49482 216.819928 
L 251.653782 216.894784 
L 253.812744 216.969641 
L 255.971706 217.044498 
L 258.130668 217.119354 
L 260.289631 217.194211 
L 262.448593 217.269068 
L 264.607555 217.343924 
L 266.766517 217.418781 
L 268.925479 217.493638 
L 271.084441 217.568494 
L 273.243403 217.643351 
L 275.402365 217.718208 
L 277.561327 217.793064 
L 279.720289 217.867921 
L 281.879251 217.942778 
L 284.038213 218.017634 
L 286.197175 218.092491 
L 288.356137 218.167347 
L 290.5151 218.242204 
L 292.674062 218.317061 
L 294.833024 218.391917 
L 296.991986 218.466774 
L 299.150948 218.541631 
L 301.30991 218.616487 
L 303.468872 218.691344 
L 305.627834 218.766201 
L 307.786796 218.841057 
L 309.945758 218.915914 
L 312.10472 218.990771 
L 314.263682 219.065627 
L 316.422644 219.140484 
L 318.581606 219.215341 
L 320.740569 219.290197 
L 322.899531 219.365054 
L 325.058493 219.439911 
L 327.217455 219.514767 
L 329.376417 219.589624 
L 331.535379 219.664481 
L 333.694341 219.739337 
L 335.853303 219.814194 
L 338.012265 219.889051 
L 340.171227 219.963907 
" style="fill:none;stroke:#32b24e;stroke-linecap:round;stroke-width:2.25;"/>
   </g>
   <g id="line2d_7">
    <path clip-path="url(#p5d8b4cd597)" d="M 90.811108 259.455643 
L 93.329897 258.30401 
L 95.848686 257.152377 
L 98.367475 256.000743 
L 100.886264 254.84911 
L 103.405053 253.697477 
L 105.923842 252.545843 
L 108.442632 251.39421 
L 110.961421 250.242577 
L 113.48021 249.090944 
L 115.998999 247.93931 
L 118.517788 246.787677 
L 121.036577 245.636044 
L 123.555366 244.484411 
L 126.074155 243.332777 
L 128.592944 242.181144 
L 131.111733 241.029511 
L 133.630522 239.877878 
L 136.149311 238.726244 
L 138.668101 237.574611 
L 141.18689 236.422978 
L 143.705679 235.271344 
L 146.224468 234.119711 
L 148.743257 232.968078 
L 151.262046 231.816445 
L 153.780835 230.664811 
L 156.299624 229.513178 
L 158.818413 228.361545 
L 161.337202 227.209912 
L 163.855991 226.058278 
L 166.37478 224.906645 
L 168.893569 223.755012 
L 171.412359 222.603379 
L 173.931148 221.451745 
L 176.449937 220.300112 
L 178.968726 219.148479 
L 181.487515 217.996846 
L 184.006304 216.845212 
L 186.525093 215.693579 
L 189.043882 214.541946 
L 191.562671 213.390312 
L 194.08146 212.238679 
L 196.600249 211.087046 
L 199.119038 209.935413 
L 201.637828 208.783779 
L 204.156617 207.632146 
L 206.675406 206.480513 
L 209.194195 205.32888 
L 211.712984 204.177246 
L 214.231773 203.025613 
L 216.750562 201.87398 
L 219.269351 200.722347 
L 221.78814 199.570713 
L 224.306929 198.41908 
L 226.825718 197.267447 
L 229.344507 196.115813 
L 231.863297 194.96418 
L 234.382086 193.812547 
L 236.900875 192.660914 
L 239.419664 191.50928 
L 241.938453 190.357647 
L 244.457242 189.206014 
L 246.976031 188.054381 
L 249.49482 186.902747 
L 252.013609 185.751114 
L 254.532398 184.599481 
L 257.051187 183.447848 
L 259.569976 182.296214 
L 262.088766 181.144581 
L 264.607555 179.992948 
L 267.126344 178.841315 
L 269.645133 177.689681 
L 272.163922 176.538048 
L 274.682711 175.386415 
L 277.2015 174.234781 
L 279.720289 173.083148 
L 282.239078 171.931515 
L 284.757867 170.779882 
L 287.276656 169.628248 
L 289.795445 168.476615 
L 292.314235 167.324982 
L 294.833024 166.173349 
L 297.351813 165.021715 
L 299.870602 163.870082 
L 302.389391 162.718449 
L 304.90818 161.566816 
L 307.426969 160.415182 
L 309.945758 159.263549 
L 312.464547 158.111916 
L 314.983336 156.960282 
L 317.502125 155.808649 
L 320.020914 154.657016 
L 322.539704 153.505383 
L 325.058493 152.353749 
L 327.577282 151.202116 
L 330.096071 150.050483 
L 332.61486 148.89885 
L 335.133649 147.747216 
L 337.652438 146.595583 
L 340.171227 145.44395 
" style="fill:none;stroke:#34af8a;stroke-linecap:round;stroke-width:2.25;"/>
   </g>
   <g id="line2d_8">
    <path clip-path="url(#p5d8b4cd597)" d="M 126.433982 303.788386 
L 128.592944 302.311805 
L 130.751906 300.835225 
L 132.910868 299.358645 
L 135.06983 297.882064 
L 137.228792 296.405484 
L 139.387755 294.928903 
L 141.546717 293.452323 
L 143.705679 291.975743 
L 145.864641 290.499162 
L 148.023603 289.022582 
L 150.182565 287.546001 
L 152.341527 286.069421 
L 154.500489 284.592841 
L 156.659451 283.11626 
L 158.818413 281.63968 
L 160.977375 280.163099 
L 163.136337 278.686519 
L 165.295299 277.209939 
L 167.454261 275.733358 
L 169.613224 274.256778 
L 171.772186 272.780197 
L 173.931148 271.303617 
L 176.09011 269.827037 
L 178.249072 268.350456 
L 180.408034 266.873876 
L 182.566996 265.397295 
L 184.725958 263.920715 
L 186.88492 262.444135 
L 189.043882 260.967554 
L 191.202844 259.490974 
L 193.361806 258.014393 
L 195.520768 256.537813 
L 197.67973 255.061233 
L 199.838693 253.584652 
L 201.997655 252.108072 
L 204.156617 250.631491 
L 206.315579 249.154911 
L 208.474541 247.678331 
L 210.633503 246.20175 
L 212.792465 244.72517 
L 214.951427 243.248589 
L 217.110389 241.772009 
L 219.269351 240.295429 
L 221.428313 238.818848 
L 223.587275 237.342268 
L 225.746237 235.865687 
L 227.905199 234.389107 
L 230.064162 232.912527 
L 232.223124 231.435946 
L 234.382086 229.959366 
L 236.541048 228.482785 
L 238.70001 227.006205 
L 240.858972 225.529625 
L 243.017934 224.053044 
L 245.176896 222.576464 
L 247.335858 221.099883 
L 249.49482 219.623303 
L 251.653782 218.146722 
L 253.812744 216.670142 
L 255.971706 215.193562 
L 258.130668 213.716981 
L 260.289631 212.240401 
L 262.448593 210.76382 
L 264.607555 209.28724 
L 266.766517 207.81066 
L 268.925479 206.334079 
L 271.084441 204.857499 
L 273.243403 203.380918 
L 275.402365 201.904338 
L 277.561327 200.427758 
L 279.720289 198.951177 
L 281.879251 197.474597 
L 284.038213 195.998016 
L 286.197175 194.521436 
L 288.356137 193.044856 
L 290.5151 191.568275 
L 292.674062 190.091695 
L 294.833024 188.615114 
L 296.991986 187.138534 
L 299.150948 185.661954 
L 301.30991 184.185373 
L 303.468872 182.708793 
L 305.627834 181.232212 
L 307.786796 179.755632 
L 309.945758 178.279052 
L 312.10472 176.802471 
L 314.263682 175.325891 
L 316.422644 173.84931 
L 318.581606 172.37273 
L 320.740569 170.89615 
L 322.899531 169.419569 
L 325.058493 167.942989 
L 327.217455 166.466408 
L 329.376417 164.989828 
L 331.535379 163.513248 
L 333.694341 162.036667 
L 335.853303 160.560087 
L 338.012265 159.083506 
L 340.171227 157.606926 
" style="fill:none;stroke:#36ada4;stroke-linecap:round;stroke-width:2.25;"/>
   </g>
   <g id="line2d_9">
    <path clip-path="url(#p5d8b4cd597)" d="M 90.811108 201.333403 
L 92.97007 201.458913 
L 95.129032 201.584424 
L 97.287994 201.709934 
L 99.446956 201.835444 
L 101.605918 201.960955 
L 103.76488 202.086465 
L 105.923842 202.211976 
L 108.082804 202.337486 
L 110.241767 202.462996 
L 112.400729 202.588507 
L 114.559691 202.714017 
L 116.718653 202.839528 
L 118.877615 202.965038 
L 121.036577 203.090548 
L 123.195539 203.216059 
L 125.354501 203.341569 
L 127.513463 203.467079 
L 129.672425 203.59259 
L 131.831387 203.7181 
L 133.990349 203.843611 
L 136.149311 203.969121 
L 138.308273 204.094631 
L 140.467236 204.220142 
L 142.626198 204.345652 
L 144.78516 204.471162 
L 146.944122 204.596673 
L 149.103084 204.722183 
L 151.262046 204.847694 
L 153.421008 204.973204 
L 155.57997 205.098714 
L 157.738932 205.224225 
L 159.897894 205.349735 
L 162.056856 205.475245 
L 164.215818 205.600756 
L 166.37478 205.726266 
L 168.533742 205.851777 
L 170.692705 205.977287 
L 172.851667 206.102797 
L 175.010629 206.228308 
L 177.169591 206.353818 
L 179.328553 206.479328 
L 181.487515 206.604839 
L 183.646477 206.730349 
L 185.805439 206.85586 
L 187.964401 206.98137 
L 190.123363 207.10688 
L 192.282325 207.232391 
L 194.441287 207.357901 
L 196.600249 207.483412 
L 198.759211 207.608922 
L 200.918174 207.734432 
L 203.077136 207.859943 
L 205.236098 207.985453 
L 207.39506 208.110963 
L 209.554022 208.236474 
L 211.712984 208.361984 
L 213.871946 208.487495 
L 216.030908 208.613005 
L 218.18987 208.738515 
L 220.348832 208.864026 
L 222.507794 208.989536 
L 224.666756 209.115046 
L 226.825718 209.240557 
L 228.98468 209.366067 
L 231.143643 209.491578 
L 233.302605 209.617088 
L 235.461567 209.742598 
L 237.620529 209.868109 
L 239.779491 209.993619 
L 241.938453 210.119129 
L 244.097415 210.24464 
L 246.256377 210.37015 
L 248.415339 210.495661 
L 250.574301 210.621171 
L 252.733263 210.746681 
L 254.892225 210.872192 
L 257.051187 210.997702 
L 259.210149 211.123212 
L 261.369112 211.248723 
L 263.528074 211.374233 
L 265.687036 211.499744 
L 267.845998 211.625254 
L 270.00496 211.750764 
L 272.163922 211.876275 
L 274.322884 212.001785 
L 276.481846 212.127296 
L 278.640808 212.252806 
L 280.79977 212.378316 
L 282.958732 212.503827 
L 285.117694 212.629337 
L 287.276656 212.754847 
L 289.435618 212.880358 
L 291.594581 213.005868 
L 293.753543 213.131379 
L 295.912505 213.256889 
L 298.071467 213.382399 
L 300.230429 213.50791 
L 302.389391 213.63342 
L 304.548353 213.75893 
" style="fill:none;stroke:#37aabb;stroke-linecap:round;stroke-width:2.25;"/>
   </g>
   <g id="line2d_10">
    <path clip-path="url(#p5d8b4cd597)" d="M 90.811108 279.812028 
L 93.329897 279.515757 
L 95.848686 279.219486 
L 98.367475 278.923215 
L 100.886264 278.626944 
L 103.405053 278.330673 
L 105.923842 278.034403 
L 108.442632 277.738132 
L 110.961421 277.441861 
L 113.48021 277.14559 
L 115.998999 276.849319 
L 118.517788 276.553048 
L 121.036577 276.256777 
L 123.555366 275.960507 
L 126.074155 275.664236 
L 128.592944 275.367965 
L 131.111733 275.071694 
L 133.630522 274.775423 
L 136.149311 274.479152 
L 138.668101 274.182881 
L 141.18689 273.886611 
L 143.705679 273.59034 
L 146.224468 273.294069 
L 148.743257 272.997798 
L 151.262046 272.701527 
L 153.780835 272.405256 
L 156.299624 272.108985 
L 158.818413 271.812715 
L 161.337202 271.516444 
L 163.855991 271.220173 
L 166.37478 270.923902 
L 168.893569 270.627631 
L 171.412359 270.33136 
L 173.931148 270.035089 
L 176.449937 269.738819 
L 178.968726 269.442548 
L 181.487515 269.146277 
L 184.006304 268.850006 
L 186.525093 268.553735 
L 189.043882 268.257464 
L 191.562671 267.961193 
L 194.08146 267.664923 
L 196.600249 267.368652 
L 199.119038 267.072381 
L 201.637828 266.77611 
L 204.156617 266.479839 
L 206.675406 266.183568 
L 209.194195 265.887297 
L 211.712984 265.591027 
L 214.231773 265.294756 
L 216.750562 264.998485 
L 219.269351 264.702214 
L 221.78814 264.405943 
L 224.306929 264.109672 
L 226.825718 263.813401 
L 229.344507 263.517131 
L 231.863297 263.22086 
L 234.382086 262.924589 
L 236.900875 262.628318 
L 239.419664 262.332047 
L 241.938453 262.035776 
L 244.457242 261.739505 
L 246.976031 261.443235 
L 249.49482 261.146964 
L 252.013609 260.850693 
L 254.532398 260.554422 
L 257.051187 260.258151 
L 259.569976 259.96188 
L 262.088766 259.665609 
L 264.607555 259.369339 
L 267.126344 259.073068 
L 269.645133 258.776797 
L 272.163922 258.480526 
L 274.682711 258.184255 
L 277.2015 257.887984 
L 279.720289 257.591713 
L 282.239078 257.295443 
L 284.757867 256.999172 
L 287.276656 256.702901 
L 289.795445 256.40663 
L 292.314235 256.110359 
L 294.833024 255.814088 
L 297.351813 255.517817 
L 299.870602 255.221547 
L 302.389391 254.925276 
L 304.90818 254.629005 
L 307.426969 254.332734 
L 309.945758 254.036463 
L 312.464547 253.740192 
L 314.983336 253.443921 
L 317.502125 253.147651 
L 320.020914 252.85138 
L 322.539704 252.555109 
L 325.058493 252.258838 
L 327.577282 251.962567 
L 330.096071 251.666296 
L 332.61486 251.370025 
L 335.133649 251.073755 
L 337.652438 250.777484 
L 340.171227 250.481213 
" style="fill:none;stroke:#3aa6da;stroke-linecap:round;stroke-width:2.25;"/>
   </g>
   <g id="line2d_11">
    <path clip-path="url(#p5d8b4cd597)" d="M 90.811108 290.333301 
L 93.329897 289.135068 
L 95.848686 287.936835 
L 98.367475 286.738602 
L 100.886264 285.540369 
L 103.405053 284.342137 
L 105.923842 283.143904 
L 108.442632 281.945671 
L 110.961421 280.747438 
L 113.48021 279.549205 
L 115.998999 278.350973 
L 118.517788 277.15274 
L 121.036577 275.954507 
L 123.555366 274.756274 
L 126.074155 273.558041 
L 128.592944 272.359808 
L 131.111733 271.161576 
L 133.630522 269.963343 
L 136.149311 268.76511 
L 138.668101 267.566877 
L 141.18689 266.368644 
L 143.705679 265.170412 
L 146.224468 263.972179 
L 148.743257 262.773946 
L 151.262046 261.575713 
L 153.780835 260.37748 
L 156.299624 259.179248 
L 158.818413 257.981015 
L 161.337202 256.782782 
L 163.855991 255.584549 
L 166.37478 254.386316 
L 168.893569 253.188084 
L 171.412359 251.989851 
L 173.931148 250.791618 
L 176.449937 249.593385 
L 178.968726 248.395152 
L 181.487515 247.196919 
L 184.006304 245.998687 
L 186.525093 244.800454 
L 189.043882 243.602221 
L 191.562671 242.403988 
L 194.08146 241.205755 
L 196.600249 240.007523 
L 199.119038 238.80929 
L 201.637828 237.611057 
L 204.156617 236.412824 
L 206.675406 235.214591 
L 209.194195 234.016359 
L 211.712984 232.818126 
L 214.231773 231.619893 
L 216.750562 230.42166 
L 219.269351 229.223427 
L 221.78814 228.025194 
L 224.306929 226.826962 
L 226.825718 225.628729 
L 229.344507 224.430496 
L 231.863297 223.232263 
L 234.382086 222.03403 
L 236.900875 220.835798 
L 239.419664 219.637565 
L 241.938453 218.439332 
L 244.457242 217.241099 
L 246.976031 216.042866 
L 249.49482 214.844634 
L 252.013609 213.646401 
L 254.532398 212.448168 
L 257.051187 211.249935 
L 259.569976 210.051702 
L 262.088766 208.853469 
L 264.607555 207.655237 
L 267.126344 206.457004 
L 269.645133 205.258771 
L 272.163922 204.060538 
L 274.682711 202.862305 
L 277.2015 201.664073 
L 279.720289 200.46584 
L 282.239078 199.267607 
L 284.757867 198.069374 
L 287.276656 196.871141 
L 289.795445 195.672909 
L 292.314235 194.474676 
L 294.833024 193.276443 
L 297.351813 192.07821 
L 299.870602 190.879977 
L 302.389391 189.681744 
L 304.90818 188.483512 
L 307.426969 187.285279 
L 309.945758 186.087046 
L 312.464547 184.888813 
L 314.983336 183.69058 
L 317.502125 182.492348 
L 320.020914 181.294115 
L 322.539704 180.095882 
L 325.058493 178.897649 
L 327.577282 177.699416 
L 330.096071 176.501184 
L 332.61486 175.302951 
L 335.133649 174.104718 
L 337.652438 172.906485 
L 340.171227 171.708252 
" style="fill:none;stroke:#8197f4;stroke-linecap:round;stroke-width:2.25;"/>
   </g>
   <g id="line2d_12">
    <path clip-path="url(#p5d8b4cd597)" d="M 126.433982 261.810459 
L 128.592944 261.947655 
L 130.751906 262.084851 
L 132.910868 262.222047 
L 135.06983 262.359242 
L 137.228792 262.496438 
L 139.387755 262.633634 
L 141.546717 262.77083 
L 143.705679 262.908026 
L 145.864641 263.045222 
L 148.023603 263.182418 
L 150.182565 263.319614 
L 152.341527 263.45681 
L 154.500489 263.594006 
L 156.659451 263.731202 
L 158.818413 263.868398 
L 160.977375 264.005594 
L 163.136337 264.14279 
L 165.295299 264.279986 
L 167.454261 264.417182 
L 169.613224 264.554378 
L 171.772186 264.691574 
L 173.931148 264.82877 
L 176.09011 264.965966 
L 178.249072 265.103162 
L 180.408034 265.240358 
L 182.566996 265.377554 
L 184.725958 265.51475 
L 186.88492 265.651946 
L 189.043882 265.789142 
L 191.202844 265.926338 
L 193.361806 266.063534 
L 195.520768 266.20073 
L 197.67973 266.337926 
L 199.838693 266.475122 
L 201.997655 266.612318 
L 204.156617 266.749514 
L 206.315579 266.88671 
L 208.474541 267.023906 
L 210.633503 267.161102 
L 212.792465 267.298298 
L 214.951427 267.435494 
L 217.110389 267.57269 
L 219.269351 267.709886 
L 221.428313 267.847082 
L 223.587275 267.984278 
L 225.746237 268.121473 
L 227.905199 268.258669 
L 230.064162 268.395865 
L 232.223124 268.533061 
L 234.382086 268.670257 
L 236.541048 268.807453 
L 238.70001 268.944649 
L 240.858972 269.081845 
L 243.017934 269.219041 
L 245.176896 269.356237 
L 247.335858 269.493433 
L 249.49482 269.630629 
L 251.653782 269.767825 
L 253.812744 269.905021 
L 255.971706 270.042217 
L 258.130668 270.179413 
L 260.289631 270.316609 
L 262.448593 270.453805 
L 264.607555 270.591001 
L 266.766517 270.728197 
L 268.925479 270.865393 
L 271.084441 271.002589 
L 273.243403 271.139785 
L 275.402365 271.276981 
L 277.561327 271.414177 
L 279.720289 271.551373 
L 281.879251 271.688569 
L 284.038213 271.825765 
L 286.197175 271.962961 
L 288.356137 272.100157 
L 290.5151 272.237353 
L 292.674062 272.374549 
L 294.833024 272.511745 
L 296.991986 272.648941 
L 299.150948 272.786137 
L 301.30991 272.923333 
L 303.468872 273.060529 
L 305.627834 273.197725 
L 307.786796 273.334921 
L 309.945758 273.472117 
L 312.10472 273.609313 
L 314.263682 273.746509 
L 316.422644 273.883704 
L 318.581606 274.0209 
L 320.740569 274.158096 
L 322.899531 274.295292 
L 325.058493 274.432488 
L 327.217455 274.569684 
L 329.376417 274.70688 
L 331.535379 274.844076 
L 333.694341 274.981272 
L 335.853303 275.118468 
L 338.012265 275.255664 
L 340.171227 275.39286 
" style="fill:none;stroke:#c180f4;stroke-linecap:round;stroke-width:2.25;"/>
   </g>
   <g id="line2d_13">
    <path clip-path="url(#p5d8b4cd597)" d="M 90.811108 284.072884 
L 92.97007 284.069862 
L 95.129032 284.066839 
L 97.287994 284.063816 
L 99.446956 284.060794 
L 101.605918 284.057771 
L 103.76488 284.054748 
L 105.923842 284.051726 
L 108.082804 284.048703 
L 110.241767 284.04568 
L 112.400729 284.042658 
L 114.559691 284.039635 
L 116.718653 284.036612 
L 118.877615 284.033589 
L 121.036577 284.030567 
L 123.195539 284.027544 
L 125.354501 284.024521 
L 127.513463 284.021499 
L 129.672425 284.018476 
L 131.831387 284.015453 
L 133.990349 284.012431 
L 136.149311 284.009408 
L 138.308273 284.006385 
L 140.467236 284.003363 
L 142.626198 284.00034 
L 144.78516 283.997317 
L 146.944122 283.994294 
L 149.103084 283.991272 
L 151.262046 283.988249 
L 153.421008 283.985226 
L 155.57997 283.982204 
L 157.738932 283.979181 
L 159.897894 283.976158 
L 162.056856 283.973136 
L 164.215818 283.970113 
L 166.37478 283.96709 
L 168.533742 283.964068 
L 170.692705 283.961045 
L 172.851667 283.958022 
L 175.010629 283.954999 
L 177.169591 283.951977 
L 179.328553 283.948954 
L 181.487515 283.945931 
L 183.646477 283.942909 
L 185.805439 283.939886 
L 187.964401 283.936863 
L 190.123363 283.933841 
L 192.282325 283.930818 
L 194.441287 283.927795 
L 196.600249 283.924773 
L 198.759211 283.92175 
L 200.918174 283.918727 
L 203.077136 283.915705 
L 205.236098 283.912682 
L 207.39506 283.909659 
L 209.554022 283.906636 
L 211.712984 283.903614 
L 213.871946 283.900591 
L 216.030908 283.897568 
L 218.18987 283.894546 
L 220.348832 283.891523 
L 222.507794 283.8885 
L 224.666756 283.885478 
L 226.825718 283.882455 
L 228.98468 283.879432 
L 231.143643 283.87641 
L 233.302605 283.873387 
L 235.461567 283.870364 
L 237.620529 283.867341 
L 239.779491 283.864319 
L 241.938453 283.861296 
L 244.097415 283.858273 
L 246.256377 283.855251 
L 248.415339 283.852228 
L 250.574301 283.849205 
L 252.733263 283.846183 
L 254.892225 283.84316 
L 257.051187 283.840137 
L 259.210149 283.837115 
L 261.369112 283.834092 
L 263.528074 283.831069 
L 265.687036 283.828046 
L 267.845998 283.825024 
L 270.00496 283.822001 
L 272.163922 283.818978 
L 274.322884 283.815956 
L 276.481846 283.812933 
L 278.640808 283.80991 
L 280.79977 283.806888 
L 282.958732 283.803865 
L 285.117694 283.800842 
L 287.276656 283.79782 
L 289.435618 283.794797 
L 291.594581 283.791774 
L 293.753543 283.788751 
L 295.912505 283.785729 
L 298.071467 283.782706 
L 300.230429 283.779683 
L 302.389391 283.776661 
L 304.548353 283.773638 
" style="fill:none;stroke:#f45deb;stroke-linecap:round;stroke-width:2.25;"/>
   </g>
   <g id="line2d_14">
    <path clip-path="url(#p5d8b4cd597)" d="M 90.811108 283.538644 
L 93.329897 283.528772 
L 95.848686 283.5189 
L 98.367475 283.509028 
L 100.886264 283.499157 
L 103.405053 283.489285 
L 105.923842 283.479413 
L 108.442632 283.469542 
L 110.961421 283.45967 
L 113.48021 283.449798 
L 115.998999 283.439926 
L 118.517788 283.430055 
L 121.036577 283.420183 
L 123.555366 283.410311 
L 126.074155 283.400439 
L 128.592944 283.390568 
L 131.111733 283.380696 
L 133.630522 283.370824 
L 136.149311 283.360952 
L 138.668101 283.351081 
L 141.18689 283.341209 
L 143.705679 283.331337 
L 146.224468 283.321466 
L 148.743257 283.311594 
L 151.262046 283.301722 
L 153.780835 283.29185 
L 156.299624 283.281979 
L 158.818413 283.272107 
L 161.337202 283.262235 
L 163.855991 283.252363 
L 166.37478 283.242492 
L 168.893569 283.23262 
L 171.412359 283.222748 
L 173.931148 283.212876 
L 176.449937 283.203005 
L 178.968726 283.193133 
L 181.487515 283.183261 
L 184.006304 283.17339 
L 186.525093 283.163518 
L 189.043882 283.153646 
L 191.562671 283.143774 
L 194.08146 283.133903 
L 196.600249 283.124031 
L 199.119038 283.114159 
L 201.637828 283.104287 
L 204.156617 283.094416 
L 206.675406 283.084544 
L 209.194195 283.074672 
L 211.712984 283.0648 
L 214.231773 283.054929 
L 216.750562 283.045057 
L 219.269351 283.035185 
L 221.78814 283.025314 
L 224.306929 283.015442 
L 226.825718 283.00557 
L 229.344507 282.995698 
L 231.863297 282.985827 
L 234.382086 282.975955 
L 236.900875 282.966083 
L 239.419664 282.956211 
L 241.938453 282.94634 
L 244.457242 282.936468 
L 246.976031 282.926596 
L 249.49482 282.916724 
L 252.013609 282.906853 
L 254.532398 282.896981 
L 257.051187 282.887109 
L 259.569976 282.877238 
L 262.088766 282.867366 
L 264.607555 282.857494 
L 267.126344 282.847622 
L 269.645133 282.837751 
L 272.163922 282.827879 
L 274.682711 282.818007 
L 277.2015 282.808135 
L 279.720289 282.798264 
L 282.239078 282.788392 
L 284.757867 282.77852 
L 287.276656 282.768648 
L 289.795445 282.758777 
L 292.314235 282.748905 
L 294.833024 282.739033 
L 297.351813 282.729162 
L 299.870602 282.71929 
L 302.389391 282.709418 
L 304.90818 282.699546 
L 307.426969 282.689675 
L 309.945758 282.679803 
L 312.464547 282.669931 
L 314.983336 282.660059 
L 317.502125 282.650188 
L 320.020914 282.640316 
L 322.539704 282.630444 
L 325.058493 282.620572 
L 327.577282 282.610701 
L 330.096071 282.600829 
L 332.61486 282.590957 
L 335.133649 282.581086 
L 337.652438 282.571214 
L 340.171227 282.561342 
" style="fill:none;stroke:#f669ba;stroke-linecap:round;stroke-width:2.25;"/>
   </g>
   <g id="patch_3">
    <path d="M 75.363585 320.2 
L 75.363585 14.3 
" style="fill:none;stroke:#262626;stroke-linecap:square;stroke-linejoin:miter;stroke-width:0.8;"/>
   </g>
   <g id="patch_4">
    <path d="M 75.363585 320.2 
L 355.61875 320.2 
" style="fill:none;stroke:#262626;stroke-linecap:square;stroke-linejoin:miter;stroke-width:0.8;"/>
   </g>
   <g id="text_20">
    <!-- r=0.326, p=0.004 -->
    <defs>
     <path d="M 6.5 0 
L 6.5 51.859375 
L 14.40625 51.859375 
L 14.40625 44 
Q 17.4375 49.515625 20 51.265625 
Q 22.5625 53.03125 25.640625 53.03125 
Q 30.078125 53.03125 34.671875 50.203125 
L 31.640625 42.046875 
Q 28.421875 43.953125 25.203125 43.953125 
Q 22.3125 43.953125 20.015625 42.21875 
Q 17.71875 40.484375 16.75 37.40625 
Q 15.28125 32.71875 15.28125 27.15625 
L 15.28125 0 
z
" id="ArialMT-114"/>
     <path d="M 52.828125 42.09375 
L 5.5625 42.09375 
L 5.5625 50.296875 
L 52.828125 50.296875 
z
M 52.828125 20.359375 
L 5.5625 20.359375 
L 5.5625 28.5625 
L 52.828125 28.5625 
z
" id="ArialMT-61"/>
     <path d="M 8.890625 0 
L 8.890625 10.015625 
L 18.890625 10.015625 
L 18.890625 0 
Q 18.890625 -5.515625 16.9375 -8.90625 
Q 14.984375 -12.3125 10.75 -14.15625 
L 8.296875 -10.40625 
Q 11.078125 -9.1875 12.390625 -6.8125 
Q 13.71875 -4.4375 13.875 0 
z
" id="ArialMT-44"/>
     <path id="ArialMT-32"/>
     <path d="M 6.59375 -19.875 
L 6.59375 51.859375 
L 14.59375 51.859375 
L 14.59375 45.125 
Q 17.4375 49.078125 21 51.046875 
Q 24.5625 53.03125 29.640625 53.03125 
Q 36.28125 53.03125 41.359375 49.609375 
Q 46.4375 46.1875 49.015625 39.953125 
Q 51.609375 33.734375 51.609375 26.3125 
Q 51.609375 18.359375 48.75 11.984375 
Q 45.90625 5.609375 40.453125 2.21875 
Q 35.015625 -1.171875 29 -1.171875 
Q 24.609375 -1.171875 21.109375 0.6875 
Q 17.625 2.546875 15.375 5.375 
L 15.375 -19.875 
z
M 14.546875 25.640625 
Q 14.546875 15.625 18.59375 10.84375 
Q 22.65625 6.0625 28.421875 6.0625 
Q 34.28125 6.0625 38.453125 11.015625 
Q 42.625 15.96875 42.625 26.375 
Q 42.625 36.28125 38.546875 41.203125 
Q 34.46875 46.140625 28.8125 46.140625 
Q 23.1875 46.140625 18.859375 40.890625 
Q 14.546875 35.640625 14.546875 25.640625 
z
" id="ArialMT-112"/>
    </defs>
    <g style="fill:#262626;" transform="translate(162.056856 58.593205)scale(0.15 -0.15)">
     <use xlink:href="#ArialMT-114"/>
     <use x="33.300781" xlink:href="#ArialMT-61"/>
     <use x="91.699219" xlink:href="#ArialMT-48"/>
     <use x="147.314453" xlink:href="#ArialMT-46"/>
     <use x="175.097656" xlink:href="#ArialMT-51"/>
     <use x="230.712891" xlink:href="#ArialMT-50"/>
     <use x="286.328125" xlink:href="#ArialMT-54"/>
     <use x="341.943359" xlink:href="#ArialMT-44"/>
     <use x="369.726562" xlink:href="#ArialMT-32"/>
     <use x="397.509766" xlink:href="#ArialMT-112"/>
     <use x="453.125" xlink:href="#ArialMT-61"/>
     <use x="511.523438" xlink:href="#ArialMT-48"/>
     <use x="567.138672" xlink:href="#ArialMT-46"/>
     <use x="594.921875" xlink:href="#ArialMT-48"/>
     <use x="650.537109" xlink:href="#ArialMT-48"/>
     <use x="706.152344" xlink:href="#ArialMT-52"/>
    </g>
   </g>
  </g>
  <g id="legend_1">
   <g id="text_21">
    <!-- host_subject_id -->
    <defs>
     <path d="M 6.59375 0 
L 6.59375 71.578125 
L 15.375 71.578125 
L 15.375 45.90625 
Q 21.53125 53.03125 30.90625 53.03125 
Q 36.671875 53.03125 40.921875 50.75 
Q 45.171875 48.484375 47 44.484375 
Q 48.828125 40.484375 48.828125 32.859375 
L 48.828125 0 
L 40.046875 0 
L 40.046875 32.859375 
Q 40.046875 39.453125 37.1875 42.453125 
Q 34.328125 45.453125 29.109375 45.453125 
Q 25.203125 45.453125 21.75 43.421875 
Q 18.3125 41.40625 16.84375 37.9375 
Q 15.375 34.46875 15.375 28.375 
L 15.375 0 
z
" id="ArialMT-104"/>
     <path d="M 3.078125 15.484375 
L 11.765625 16.84375 
Q 12.5 11.625 15.84375 8.84375 
Q 19.1875 6.0625 25.203125 6.0625 
Q 31.25 6.0625 34.171875 8.515625 
Q 37.109375 10.984375 37.109375 14.3125 
Q 37.109375 17.28125 34.515625 19 
Q 32.71875 20.171875 25.53125 21.96875 
Q 15.875 24.421875 12.140625 26.203125 
Q 8.40625 27.984375 6.46875 31.125 
Q 4.546875 34.28125 4.546875 38.09375 
Q 4.546875 41.546875 6.125 44.5 
Q 7.71875 47.46875 10.453125 49.421875 
Q 12.5 50.921875 16.03125 51.96875 
Q 19.578125 53.03125 23.640625 53.03125 
Q 29.734375 53.03125 34.34375 51.265625 
Q 38.96875 49.515625 41.15625 46.5 
Q 43.359375 43.5 44.1875 38.484375 
L 35.59375 37.3125 
Q 35.015625 41.3125 32.203125 43.546875 
Q 29.390625 45.796875 24.265625 45.796875 
Q 18.21875 45.796875 15.625 43.796875 
Q 13.03125 41.796875 13.03125 39.109375 
Q 13.03125 37.40625 14.109375 36.03125 
Q 15.1875 34.625 17.484375 33.6875 
Q 18.796875 33.203125 25.25 31.453125 
Q 34.578125 28.953125 38.25 27.359375 
Q 41.9375 25.78125 44.03125 22.75 
Q 46.140625 19.734375 46.140625 15.234375 
Q 46.140625 10.84375 43.578125 6.953125 
Q 41.015625 3.078125 36.171875 0.953125 
Q 31.34375 -1.171875 25.25 -1.171875 
Q 15.140625 -1.171875 9.84375 3.03125 
Q 4.546875 7.234375 3.078125 15.484375 
z
" id="ArialMT-115"/>
     <path d="M 25.78125 7.859375 
L 27.046875 0.09375 
Q 23.34375 -0.6875 20.40625 -0.6875 
Q 15.625 -0.6875 12.984375 0.828125 
Q 10.359375 2.34375 9.28125 4.8125 
Q 8.203125 7.28125 8.203125 15.1875 
L 8.203125 45.015625 
L 1.765625 45.015625 
L 1.765625 51.859375 
L 8.203125 51.859375 
L 8.203125 64.703125 
L 16.9375 69.96875 
L 16.9375 51.859375 
L 25.78125 51.859375 
L 25.78125 45.015625 
L 16.9375 45.015625 
L 16.9375 14.703125 
Q 16.9375 10.9375 17.40625 9.859375 
Q 17.875 8.796875 18.921875 8.15625 
Q 19.96875 7.515625 21.921875 7.515625 
Q 23.390625 7.515625 25.78125 7.859375 
z
" id="ArialMT-116"/>
     <path d="M -1.515625 -19.875 
L -1.515625 -13.53125 
L 56.734375 -13.53125 
L 56.734375 -19.875 
z
" id="ArialMT-95"/>
     <path d="M 40.578125 0 
L 40.578125 7.625 
Q 34.515625 -1.171875 24.125 -1.171875 
Q 19.53125 -1.171875 15.546875 0.578125 
Q 11.578125 2.34375 9.640625 5 
Q 7.71875 7.671875 6.9375 11.53125 
Q 6.390625 14.109375 6.390625 19.734375 
L 6.390625 51.859375 
L 15.1875 51.859375 
L 15.1875 23.09375 
Q 15.1875 16.21875 15.71875 13.8125 
Q 16.546875 10.359375 19.234375 8.375 
Q 21.921875 6.390625 25.875 6.390625 
Q 29.828125 6.390625 33.296875 8.421875 
Q 36.765625 10.453125 38.203125 13.9375 
Q 39.65625 17.4375 39.65625 24.078125 
L 39.65625 51.859375 
L 48.4375 51.859375 
L 48.4375 0 
z
" id="ArialMT-117"/>
     <path d="M 14.703125 0 
L 6.546875 0 
L 6.546875 71.578125 
L 15.328125 71.578125 
L 15.328125 46.046875 
Q 20.90625 53.03125 29.546875 53.03125 
Q 34.328125 53.03125 38.59375 51.09375 
Q 42.875 49.171875 45.625 45.671875 
Q 48.390625 42.1875 49.953125 37.25 
Q 51.515625 32.328125 51.515625 26.703125 
Q 51.515625 13.375 44.921875 6.09375 
Q 38.328125 -1.171875 29.109375 -1.171875 
Q 19.921875 -1.171875 14.703125 6.5 
z
M 14.59375 26.3125 
Q 14.59375 17 17.140625 12.84375 
Q 21.296875 6.0625 28.375 6.0625 
Q 34.125 6.0625 38.328125 11.0625 
Q 42.53125 16.0625 42.53125 25.984375 
Q 42.53125 36.140625 38.5 40.96875 
Q 34.46875 45.796875 28.765625 45.796875 
Q 23 45.796875 18.796875 40.796875 
Q 14.59375 35.796875 14.59375 26.3125 
z
" id="ArialMT-98"/>
     <path d="M 6.546875 61.375 
L 6.546875 71.578125 
L 15.328125 71.578125 
L 15.328125 61.375 
z
M -4.59375 -20.125 
L -2.9375 -12.640625 
Q -0.296875 -13.328125 1.21875 -13.328125 
Q 3.90625 -13.328125 5.21875 -11.546875 
Q 6.546875 -9.765625 6.546875 -2.640625 
L 6.546875 51.859375 
L 15.328125 51.859375 
L 15.328125 -2.828125 
Q 15.328125 -12.40625 12.84375 -16.15625 
Q 9.671875 -21.046875 2.296875 -21.046875 
Q -1.265625 -21.046875 -4.59375 -20.125 
z
" id="ArialMT-106"/>
     <path d="M 42.09375 16.703125 
L 51.171875 15.578125 
Q 49.03125 7.625 43.21875 3.21875 
Q 37.40625 -1.171875 28.375 -1.171875 
Q 17 -1.171875 10.328125 5.828125 
Q 3.65625 12.84375 3.65625 25.484375 
Q 3.65625 38.578125 10.390625 45.796875 
Q 17.140625 53.03125 27.875 53.03125 
Q 38.28125 53.03125 44.875 45.953125 
Q 51.46875 38.875 51.46875 26.03125 
Q 51.46875 25.25 51.421875 23.6875 
L 12.75 23.6875 
Q 13.234375 15.140625 17.578125 10.59375 
Q 21.921875 6.0625 28.421875 6.0625 
Q 33.25 6.0625 36.671875 8.59375 
Q 40.09375 11.140625 42.09375 16.703125 
z
M 13.234375 30.90625 
L 42.1875 30.90625 
Q 41.609375 37.453125 38.875 40.71875 
Q 34.671875 45.796875 27.984375 45.796875 
Q 21.921875 45.796875 17.796875 41.75 
Q 13.671875 37.703125 13.234375 30.90625 
z
" id="ArialMT-101"/>
     <path d="M 40.4375 19 
L 49.078125 17.875 
Q 47.65625 8.9375 41.8125 3.875 
Q 35.984375 -1.171875 27.484375 -1.171875 
Q 16.84375 -1.171875 10.375 5.78125 
Q 3.90625 12.75 3.90625 25.734375 
Q 3.90625 34.125 6.6875 40.421875 
Q 9.46875 46.734375 15.15625 49.875 
Q 20.84375 53.03125 27.546875 53.03125 
Q 35.984375 53.03125 41.359375 48.75 
Q 46.734375 44.484375 48.25 36.625 
L 39.703125 35.296875 
Q 38.484375 40.53125 35.375 43.15625 
Q 32.28125 45.796875 27.875 45.796875 
Q 21.234375 45.796875 17.078125 41.03125 
Q 12.9375 36.28125 12.9375 25.984375 
Q 12.9375 15.53125 16.9375 10.796875 
Q 20.953125 6.0625 27.390625 6.0625 
Q 32.5625 6.0625 36.03125 9.234375 
Q 39.5 12.40625 40.4375 19 
z
" id="ArialMT-99"/>
    </defs>
    <g style="fill:#262626;" transform="translate(359.6375 83.509375)scale(0.1 -0.1)">
     <use xlink:href="#ArialMT-104"/>
     <use x="55.615234" xlink:href="#ArialMT-111"/>
     <use x="111.230469" xlink:href="#ArialMT-115"/>
     <use x="161.230469" xlink:href="#ArialMT-116"/>
     <use x="189.013672" xlink:href="#ArialMT-95"/>
     <use x="244.628906" xlink:href="#ArialMT-115"/>
     <use x="294.628906" xlink:href="#ArialMT-117"/>
     <use x="350.244141" xlink:href="#ArialMT-98"/>
     <use x="405.859375" xlink:href="#ArialMT-106"/>
     <use x="428.076172" xlink:href="#ArialMT-101"/>
     <use x="483.691406" xlink:href="#ArialMT-99"/>
     <use x="533.691406" xlink:href="#ArialMT-116"/>
     <use x="561.474609" xlink:href="#ArialMT-95"/>
     <use x="617.089844" xlink:href="#ArialMT-105"/>
     <use x="639.306641" xlink:href="#ArialMT-100"/>
    </g>
   </g>
   <g id="PathCollection_15">
    <g>
     <use style="fill:#f77189;fill-opacity:0.8;stroke:#f77189;stroke-opacity:0.8;" x="374.264062" xlink:href="#mfe1c324a23" y="95.146875"/>
    </g>
   </g>
   <g id="text_22">
    <!-- DM001 -->
    <g style="fill:#262626;" transform="translate(392.264062 97.771875)scale(0.1 -0.1)">
     <use xlink:href="#ArialMT-68"/>
     <use x="72.216797" xlink:href="#ArialMT-77"/>
     <use x="155.517578" xlink:href="#ArialMT-48"/>
     <use x="211.132812" xlink:href="#ArialMT-48"/>
     <use x="266.748047" xlink:href="#ArialMT-49"/>
    </g>
   </g>
   <g id="PathCollection_16">
    <g>
     <use style="fill:#ef7d32;fill-opacity:0.8;stroke:#ef7d32;stroke-opacity:0.8;" x="374.264062" xlink:href="#me1c4e48e1f" y="109.292188"/>
    </g>
   </g>
   <g id="text_23">
    <!-- DM002 -->
    <g style="fill:#262626;" transform="translate(392.264062 111.917188)scale(0.1 -0.1)">
     <use xlink:href="#ArialMT-68"/>
     <use x="72.216797" xlink:href="#ArialMT-77"/>
     <use x="155.517578" xlink:href="#ArialMT-48"/>
     <use x="211.132812" xlink:href="#ArialMT-48"/>
     <use x="266.748047" xlink:href="#ArialMT-50"/>
    </g>
   </g>
   <g id="PathCollection_17">
    <g>
     <use style="fill:#c69432;fill-opacity:0.8;stroke:#c69432;stroke-opacity:0.8;" x="374.264062" xlink:href="#m05fab49cd1" y="123.4375"/>
    </g>
   </g>
   <g id="text_24">
    <!-- DM003 -->
    <g style="fill:#262626;" transform="translate(392.264062 126.0625)scale(0.1 -0.1)">
     <use xlink:href="#ArialMT-68"/>
     <use x="72.216797" xlink:href="#ArialMT-77"/>
     <use x="155.517578" xlink:href="#ArialMT-48"/>
     <use x="211.132812" xlink:href="#ArialMT-48"/>
     <use x="266.748047" xlink:href="#ArialMT-51"/>
    </g>
   </g>
   <g id="PathCollection_18">
    <g>
     <use style="fill:#a79f31;fill-opacity:0.8;stroke:#a79f31;stroke-opacity:0.8;" x="374.264062" xlink:href="#m798ce6baef" y="137.582813"/>
    </g>
   </g>
   <g id="text_25">
    <!-- DM006 -->
    <g style="fill:#262626;" transform="translate(392.264062 140.207813)scale(0.1 -0.1)">
     <use xlink:href="#ArialMT-68"/>
     <use x="72.216797" xlink:href="#ArialMT-77"/>
     <use x="155.517578" xlink:href="#ArialMT-48"/>
     <use x="211.132812" xlink:href="#ArialMT-48"/>
     <use x="266.748047" xlink:href="#ArialMT-54"/>
    </g>
   </g>
   <g id="PathCollection_19">
    <g>
     <use style="fill:#82a931;fill-opacity:0.8;stroke:#82a931;stroke-opacity:0.8;" x="374.264062" xlink:href="#m752e2a013c" y="151.728125"/>
    </g>
   </g>
   <g id="text_26">
    <!-- DM008 -->
    <g style="fill:#262626;" transform="translate(392.264062 154.353125)scale(0.1 -0.1)">
     <use xlink:href="#ArialMT-68"/>
     <use x="72.216797" xlink:href="#ArialMT-77"/>
     <use x="155.517578" xlink:href="#ArialMT-48"/>
     <use x="211.132812" xlink:href="#ArialMT-48"/>
     <use x="266.748047" xlink:href="#ArialMT-56"/>
    </g>
   </g>
   <g id="PathCollection_20">
    <g>
     <use style="fill:#32b24e;fill-opacity:0.8;stroke:#32b24e;stroke-opacity:0.8;" x="374.264062" xlink:href="#m4803f26447" y="165.873438"/>
    </g>
   </g>
   <g id="text_27">
    <!-- DM009 -->
    <g style="fill:#262626;" transform="translate(392.264062 168.498438)scale(0.1 -0.1)">
     <use xlink:href="#ArialMT-68"/>
     <use x="72.216797" xlink:href="#ArialMT-77"/>
     <use x="155.517578" xlink:href="#ArialMT-48"/>
     <use x="211.132812" xlink:href="#ArialMT-48"/>
     <use x="266.748047" xlink:href="#ArialMT-57"/>
    </g>
   </g>
   <g id="PathCollection_21">
    <g>
     <use style="fill:#34af8a;fill-opacity:0.8;stroke:#34af8a;stroke-opacity:0.8;" x="374.264062" xlink:href="#m9c03261348" y="180.01875"/>
    </g>
   </g>
   <g id="text_28">
    <!-- DM010 -->
    <g style="fill:#262626;" transform="translate(392.264062 182.64375)scale(0.1 -0.1)">
     <use xlink:href="#ArialMT-68"/>
     <use x="72.216797" xlink:href="#ArialMT-77"/>
     <use x="155.517578" xlink:href="#ArialMT-48"/>
     <use x="211.132812" xlink:href="#ArialMT-49"/>
     <use x="266.748047" xlink:href="#ArialMT-48"/>
    </g>
   </g>
   <g id="PathCollection_22">
    <g>
     <use style="fill:#36ada4;fill-opacity:0.8;stroke:#36ada4;stroke-opacity:0.8;" x="374.264062" xlink:href="#mbdf7af1fcb" y="194.164063"/>
    </g>
   </g>
   <g id="text_29">
    <!-- DM011 -->
    <g style="fill:#262626;" transform="translate(392.264062 196.789063)scale(0.1 -0.1)">
     <use xlink:href="#ArialMT-68"/>
     <use x="72.216797" xlink:href="#ArialMT-77"/>
     <use x="155.517578" xlink:href="#ArialMT-48"/>
     <use x="211.132812" xlink:href="#ArialMT-49"/>
     <use x="266.638672" xlink:href="#ArialMT-49"/>
    </g>
   </g>
   <g id="PathCollection_23">
    <g>
     <use style="fill:#37aabb;fill-opacity:0.8;stroke:#37aabb;stroke-opacity:0.8;" x="374.264062" xlink:href="#m65f880e9f1" y="208.309375"/>
    </g>
   </g>
   <g id="text_30">
    <!-- DM013 -->
    <g style="fill:#262626;" transform="translate(392.264062 210.934375)scale(0.1 -0.1)">
     <use xlink:href="#ArialMT-68"/>
     <use x="72.216797" xlink:href="#ArialMT-77"/>
     <use x="155.517578" xlink:href="#ArialMT-48"/>
     <use x="211.132812" xlink:href="#ArialMT-49"/>
     <use x="266.748047" xlink:href="#ArialMT-51"/>
    </g>
   </g>
   <g id="PathCollection_24">
    <g>
     <use style="fill:#3aa6da;fill-opacity:0.8;stroke:#3aa6da;stroke-opacity:0.8;" x="374.264062" xlink:href="#m18ee80cadf" y="222.454688"/>
    </g>
   </g>
   <g id="text_31">
    <!-- DM014 -->
    <g style="fill:#262626;" transform="translate(392.264062 225.079688)scale(0.1 -0.1)">
     <use xlink:href="#ArialMT-68"/>
     <use x="72.216797" xlink:href="#ArialMT-77"/>
     <use x="155.517578" xlink:href="#ArialMT-48"/>
     <use x="211.132812" xlink:href="#ArialMT-49"/>
     <use x="266.748047" xlink:href="#ArialMT-52"/>
    </g>
   </g>
   <g id="PathCollection_25">
    <g>
     <use style="fill:#8197f4;fill-opacity:0.8;stroke:#8197f4;stroke-opacity:0.8;" x="374.264062" xlink:href="#m577842e15d" y="236.6"/>
    </g>
   </g>
   <g id="text_32">
    <!-- DM015 -->
    <g style="fill:#262626;" transform="translate(392.264062 239.225)scale(0.1 -0.1)">
     <use xlink:href="#ArialMT-68"/>
     <use x="72.216797" xlink:href="#ArialMT-77"/>
     <use x="155.517578" xlink:href="#ArialMT-48"/>
     <use x="211.132812" xlink:href="#ArialMT-49"/>
     <use x="266.748047" xlink:href="#ArialMT-53"/>
    </g>
   </g>
   <g id="PathCollection_26">
    <g>
     <use style="fill:#c180f4;fill-opacity:0.8;stroke:#c180f4;stroke-opacity:0.8;" x="374.264062" xlink:href="#m3b705af904" y="250.745313"/>
    </g>
   </g>
   <g id="text_33">
    <!-- DM016 -->
    <g style="fill:#262626;" transform="translate(392.264062 253.370313)scale(0.1 -0.1)">
     <use xlink:href="#ArialMT-68"/>
     <use x="72.216797" xlink:href="#ArialMT-77"/>
     <use x="155.517578" xlink:href="#ArialMT-48"/>
     <use x="211.132812" xlink:href="#ArialMT-49"/>
     <use x="266.748047" xlink:href="#ArialMT-54"/>
    </g>
   </g>
   <g id="PathCollection_27">
    <g>
     <use style="fill:#f45deb;fill-opacity:0.8;stroke:#f45deb;stroke-opacity:0.8;" x="374.264062" xlink:href="#m881770893c" y="264.890625"/>
    </g>
   </g>
   <g id="text_34">
    <!-- DM017 -->
    <g style="fill:#262626;" transform="translate(392.264062 267.515625)scale(0.1 -0.1)">
     <use xlink:href="#ArialMT-68"/>
     <use x="72.216797" xlink:href="#ArialMT-77"/>
     <use x="155.517578" xlink:href="#ArialMT-48"/>
     <use x="211.132812" xlink:href="#ArialMT-49"/>
     <use x="266.748047" xlink:href="#ArialMT-55"/>
    </g>
   </g>
   <g id="PathCollection_28">
    <g>
     <use style="fill:#f669ba;fill-opacity:0.8;stroke:#f669ba;stroke-opacity:0.8;" x="374.264062" xlink:href="#md339670cdb" y="279.035937"/>
    </g>
   </g>
   <g id="text_35">
    <!-- DM018 -->
    <g style="fill:#262626;" transform="translate(392.264062 281.660937)scale(0.1 -0.1)">
     <use xlink:href="#ArialMT-68"/>
     <use x="72.216797" xlink:href="#ArialMT-77"/>
     <use x="155.517578" xlink:href="#ArialMT-48"/>
     <use x="211.132812" xlink:href="#ArialMT-49"/>
     <use x="266.748047" xlink:href="#ArialMT-56"/>
    </g>
   </g>
  </g>
 </g>
 <defs>
  <clipPath id="p5d8b4cd597">
   <rect height="305.9" width="280.255165" x="75.363585" y="14.3"/>
  </clipPath>
 </defs>
</svg>
