<?xml version="1.0" encoding="utf-8" standalone="no"?>
<!DOCTYPE svg PUBLIC "-//W3C//DTD SVG 1.1//EN"
  "http://www.w3.org/Graphics/SVG/1.1/DTD/svg11.dtd">
<!-- Created with matplotlib (https://matplotlib.org/) -->
<svg height="360pt" version="1.1" viewBox="0 0 438.125 360" width="438.125pt" xmlns="http://www.w3.org/2000/svg" xmlns:xlink="http://www.w3.org/1999/xlink">
 <defs>
  <style type="text/css">
*{stroke-linecap:butt;stroke-linejoin:round;}
  </style>
 </defs>
 <g id="figure_1">
  <g id="patch_1">
   <path d="M 0 360 
L 438.125 360 
L 438.125 0 
L 0 0 
z
" style="fill:#ffffff;"/>
  </g>
  <g id="axes_1">
   <g id="patch_2">
    <path d="M 68.213628 320.2 
L 355.61875 320.2 
L 355.61875 14.3 
L 68.213628 14.3 
z
" style="fill:#ffffff;"/>
   </g>
   <g id="matplotlib.axis_1">
    <g id="xtick_1">
     <g id="text_1">
      <!-- 0.2 -->
      <defs>
       <path d="M 4.15625 35.296875 
Q 4.15625 48 6.765625 55.734375 
Q 9.375 63.484375 14.515625 67.671875 
Q 19.671875 71.875 27.484375 71.875 
Q 33.25 71.875 37.59375 69.546875 
Q 41.9375 67.234375 44.765625 62.859375 
Q 47.609375 58.5 49.21875 52.21875 
Q 50.828125 45.953125 50.828125 35.296875 
Q 50.828125 22.703125 48.234375 14.96875 
Q 45.65625 7.234375 40.5 3 
Q 35.359375 -1.21875 27.484375 -1.21875 
Q 17.140625 -1.21875 11.234375 6.203125 
Q 4.15625 15.140625 4.15625 35.296875 
z
M 13.1875 35.296875 
Q 13.1875 17.671875 17.3125 11.828125 
Q 21.4375 6 27.484375 6 
Q 33.546875 6 37.671875 11.859375 
Q 41.796875 17.71875 41.796875 35.296875 
Q 41.796875 52.984375 37.671875 58.78125 
Q 33.546875 64.59375 27.390625 64.59375 
Q 21.34375 64.59375 17.71875 59.46875 
Q 13.1875 52.9375 13.1875 35.296875 
z
" id="ArialMT-48"/>
       <path d="M 9.078125 0 
L 9.078125 10.015625 
L 19.09375 10.015625 
L 19.09375 0 
z
" id="ArialMT-46"/>
       <path d="M 50.34375 8.453125 
L 50.34375 0 
L 3.03125 0 
Q 2.9375 3.171875 4.046875 6.109375 
Q 5.859375 10.9375 9.828125 15.625 
Q 13.8125 20.3125 21.34375 26.46875 
Q 33.015625 36.03125 37.109375 41.625 
Q 41.21875 47.21875 41.21875 52.203125 
Q 41.21875 57.421875 37.46875 61 
Q 33.734375 64.59375 27.734375 64.59375 
Q 21.390625 64.59375 17.578125 60.78125 
Q 13.765625 56.984375 13.71875 50.25 
L 4.6875 51.171875 
Q 5.609375 61.28125 11.65625 66.578125 
Q 17.71875 71.875 27.9375 71.875 
Q 38.234375 71.875 44.234375 66.15625 
Q 50.25 60.453125 50.25 52 
Q 50.25 47.703125 48.484375 43.546875 
Q 46.734375 39.40625 42.65625 34.8125 
Q 38.578125 30.21875 29.109375 22.21875 
Q 21.1875 15.578125 18.9375 13.203125 
Q 16.703125 10.84375 15.234375 8.453125 
z
" id="ArialMT-50"/>
      </defs>
      <g style="fill:#262626;" transform="translate(74.32947 335.789375)scale(0.12 -0.12)">
       <use xlink:href="#ArialMT-48"/>
       <use x="55.615234" xlink:href="#ArialMT-46"/>
       <use x="83.398438" xlink:href="#ArialMT-50"/>
      </g>
     </g>
    </g>
    <g id="xtick_2">
     <g id="text_2">
      <!-- 0.3 -->
      <defs>
       <path d="M 4.203125 18.890625 
L 12.984375 20.0625 
Q 14.5 12.59375 18.140625 9.296875 
Q 21.78125 6 27 6 
Q 33.203125 6 37.46875 10.296875 
Q 41.75 14.59375 41.75 20.953125 
Q 41.75 27 37.796875 30.921875 
Q 33.84375 34.859375 27.734375 34.859375 
Q 25.25 34.859375 21.53125 33.890625 
L 22.515625 41.609375 
Q 23.390625 41.5 23.921875 41.5 
Q 29.546875 41.5 34.03125 44.421875 
Q 38.53125 47.359375 38.53125 53.46875 
Q 38.53125 58.296875 35.25 61.46875 
Q 31.984375 64.65625 26.8125 64.65625 
Q 21.6875 64.65625 18.265625 61.421875 
Q 14.84375 58.203125 13.875 51.765625 
L 5.078125 53.328125 
Q 6.6875 62.15625 12.390625 67.015625 
Q 18.109375 71.875 26.609375 71.875 
Q 32.46875 71.875 37.390625 69.359375 
Q 42.328125 66.84375 44.9375 62.5 
Q 47.5625 58.15625 47.5625 53.265625 
Q 47.5625 48.640625 45.0625 44.828125 
Q 42.578125 41.015625 37.703125 38.765625 
Q 44.046875 37.3125 47.5625 32.6875 
Q 51.078125 28.078125 51.078125 21.140625 
Q 51.078125 11.765625 44.234375 5.25 
Q 37.40625 -1.265625 26.953125 -1.265625 
Q 17.53125 -1.265625 11.296875 4.34375 
Q 5.078125 9.96875 4.203125 18.890625 
z
" id="ArialMT-51"/>
      </defs>
      <g style="fill:#262626;" transform="translate(133.630629 335.789375)scale(0.12 -0.12)">
       <use xlink:href="#ArialMT-48"/>
       <use x="55.615234" xlink:href="#ArialMT-46"/>
       <use x="83.398438" xlink:href="#ArialMT-51"/>
      </g>
     </g>
    </g>
    <g id="xtick_3">
     <g id="text_3">
      <!-- 0.4 -->
      <defs>
       <path d="M 32.328125 0 
L 32.328125 17.140625 
L 1.265625 17.140625 
L 1.265625 25.203125 
L 33.9375 71.578125 
L 41.109375 71.578125 
L 41.109375 25.203125 
L 50.78125 25.203125 
L 50.78125 17.140625 
L 41.109375 17.140625 
L 41.109375 0 
z
M 32.328125 25.203125 
L 32.328125 57.46875 
L 9.90625 25.203125 
z
" id="ArialMT-52"/>
      </defs>
      <g style="fill:#262626;" transform="translate(192.931788 335.789375)scale(0.12 -0.12)">
       <use xlink:href="#ArialMT-48"/>
       <use x="55.615234" xlink:href="#ArialMT-46"/>
       <use x="83.398438" xlink:href="#ArialMT-52"/>
      </g>
     </g>
    </g>
    <g id="xtick_4">
     <g id="text_4">
      <!-- 0.5 -->
      <defs>
       <path d="M 4.15625 18.75 
L 13.375 19.53125 
Q 14.40625 12.796875 18.140625 9.390625 
Q 21.875 6 27.15625 6 
Q 33.5 6 37.890625 10.78125 
Q 42.28125 15.578125 42.28125 23.484375 
Q 42.28125 31 38.0625 35.34375 
Q 33.84375 39.703125 27 39.703125 
Q 22.75 39.703125 19.328125 37.765625 
Q 15.921875 35.84375 13.96875 32.765625 
L 5.71875 33.84375 
L 12.640625 70.609375 
L 48.25 70.609375 
L 48.25 62.203125 
L 19.671875 62.203125 
L 15.828125 42.96875 
Q 22.265625 47.46875 29.34375 47.46875 
Q 38.71875 47.46875 45.15625 40.96875 
Q 51.609375 34.46875 51.609375 24.265625 
Q 51.609375 14.546875 45.953125 7.46875 
Q 39.0625 -1.21875 27.15625 -1.21875 
Q 17.390625 -1.21875 11.203125 4.25 
Q 5.03125 9.71875 4.15625 18.75 
z
" id="ArialMT-53"/>
      </defs>
      <g style="fill:#262626;" transform="translate(252.232947 335.789375)scale(0.12 -0.12)">
       <use xlink:href="#ArialMT-48"/>
       <use x="55.615234" xlink:href="#ArialMT-46"/>
       <use x="83.398438" xlink:href="#ArialMT-53"/>
      </g>
     </g>
    </g>
    <g id="xtick_5">
     <g id="text_5">
      <!-- 0.6 -->
      <defs>
       <path d="M 49.75 54.046875 
L 41.015625 53.375 
Q 39.84375 58.546875 37.703125 60.890625 
Q 34.125 64.65625 28.90625 64.65625 
Q 24.703125 64.65625 21.53125 62.3125 
Q 17.390625 59.28125 14.984375 53.46875 
Q 12.59375 47.65625 12.5 36.921875 
Q 15.671875 41.75 20.265625 44.09375 
Q 24.859375 46.4375 29.890625 46.4375 
Q 38.671875 46.4375 44.84375 39.96875 
Q 51.03125 33.5 51.03125 23.25 
Q 51.03125 16.5 48.125 10.71875 
Q 45.21875 4.9375 40.140625 1.859375 
Q 35.0625 -1.21875 28.609375 -1.21875 
Q 17.625 -1.21875 10.6875 6.859375 
Q 3.765625 14.9375 3.765625 33.5 
Q 3.765625 54.25 11.421875 63.671875 
Q 18.109375 71.875 29.4375 71.875 
Q 37.890625 71.875 43.28125 67.140625 
Q 48.6875 62.40625 49.75 54.046875 
z
M 13.875 23.1875 
Q 13.875 18.65625 15.796875 14.5 
Q 17.71875 10.359375 21.1875 8.171875 
Q 24.65625 6 28.46875 6 
Q 34.03125 6 38.03125 10.484375 
Q 42.046875 14.984375 42.046875 22.703125 
Q 42.046875 30.125 38.078125 34.390625 
Q 34.125 38.671875 28.125 38.671875 
Q 22.171875 38.671875 18.015625 34.390625 
Q 13.875 30.125 13.875 23.1875 
z
" id="ArialMT-54"/>
      </defs>
      <g style="fill:#262626;" transform="translate(311.534106 335.789375)scale(0.12 -0.12)">
       <use xlink:href="#ArialMT-48"/>
       <use x="55.615234" xlink:href="#ArialMT-46"/>
       <use x="83.398438" xlink:href="#ArialMT-54"/>
      </g>
     </g>
    </g>
    <g id="text_6">
     <!-- Unweighted UniFrac Dist. to Baseline -->
     <defs>
      <path d="M 54.6875 71.578125 
L 64.15625 71.578125 
L 64.15625 30.21875 
Q 64.15625 19.4375 61.71875 13.078125 
Q 59.28125 6.734375 52.90625 2.75 
Q 46.53125 -1.21875 36.1875 -1.21875 
Q 26.125 -1.21875 19.71875 2.25 
Q 13.328125 5.71875 10.59375 12.28125 
Q 7.859375 18.84375 7.859375 30.21875 
L 7.859375 71.578125 
L 17.328125 71.578125 
L 17.328125 30.28125 
Q 17.328125 20.953125 19.0625 16.53125 
Q 20.796875 12.109375 25.015625 9.71875 
Q 29.25 7.328125 35.359375 7.328125 
Q 45.796875 7.328125 50.234375 12.0625 
Q 54.6875 16.796875 54.6875 30.28125 
z
" id="ArialMT-85"/>
      <path d="M 6.59375 0 
L 6.59375 51.859375 
L 14.5 51.859375 
L 14.5 44.484375 
Q 20.21875 53.03125 31 53.03125 
Q 35.6875 53.03125 39.625 51.34375 
Q 43.5625 49.65625 45.515625 46.921875 
Q 47.46875 44.1875 48.25 40.4375 
Q 48.734375 37.984375 48.734375 31.890625 
L 48.734375 0 
L 39.9375 0 
L 39.9375 31.546875 
Q 39.9375 36.921875 38.90625 39.578125 
Q 37.890625 42.234375 35.28125 43.8125 
Q 32.671875 45.40625 29.15625 45.40625 
Q 23.53125 45.40625 19.453125 41.84375 
Q 15.375 38.28125 15.375 28.328125 
L 15.375 0 
z
" id="ArialMT-110"/>
      <path d="M 16.15625 0 
L 0.296875 51.859375 
L 9.375 51.859375 
L 17.625 21.921875 
L 20.703125 10.796875 
Q 20.90625 11.625 23.390625 21.484375 
L 31.640625 51.859375 
L 40.671875 51.859375 
L 48.4375 21.78125 
L 51.03125 11.859375 
L 54 21.875 
L 62.890625 51.859375 
L 71.4375 51.859375 
L 55.21875 0 
L 46.09375 0 
L 37.84375 31.0625 
L 35.84375 39.890625 
L 25.34375 0 
z
" id="ArialMT-119"/>
      <path d="M 42.09375 16.703125 
L 51.171875 15.578125 
Q 49.03125 7.625 43.21875 3.21875 
Q 37.40625 -1.171875 28.375 -1.171875 
Q 17 -1.171875 10.328125 5.828125 
Q 3.65625 12.84375 3.65625 25.484375 
Q 3.65625 38.578125 10.390625 45.796875 
Q 17.140625 53.03125 27.875 53.03125 
Q 38.28125 53.03125 44.875 45.953125 
Q 51.46875 38.875 51.46875 26.03125 
Q 51.46875 25.25 51.421875 23.6875 
L 12.75 23.6875 
Q 13.234375 15.140625 17.578125 10.59375 
Q 21.921875 6.0625 28.421875 6.0625 
Q 33.25 6.0625 36.671875 8.59375 
Q 40.09375 11.140625 42.09375 16.703125 
z
M 13.234375 30.90625 
L 42.1875 30.90625 
Q 41.609375 37.453125 38.875 40.71875 
Q 34.671875 45.796875 27.984375 45.796875 
Q 21.921875 45.796875 17.796875 41.75 
Q 13.671875 37.703125 13.234375 30.90625 
z
" id="ArialMT-101"/>
      <path d="M 6.640625 61.46875 
L 6.640625 71.578125 
L 15.4375 71.578125 
L 15.4375 61.46875 
z
M 6.640625 0 
L 6.640625 51.859375 
L 15.4375 51.859375 
L 15.4375 0 
z
" id="ArialMT-105"/>
      <path d="M 4.984375 -4.296875 
L 13.53125 -5.5625 
Q 14.0625 -9.515625 16.5 -11.328125 
Q 19.78125 -13.765625 25.4375 -13.765625 
Q 31.546875 -13.765625 34.859375 -11.328125 
Q 38.1875 -8.890625 39.359375 -4.5 
Q 40.046875 -1.8125 39.984375 6.78125 
Q 34.234375 0 25.640625 0 
Q 14.9375 0 9.078125 7.71875 
Q 3.21875 15.4375 3.21875 26.21875 
Q 3.21875 33.640625 5.90625 39.90625 
Q 8.59375 46.1875 13.6875 49.609375 
Q 18.796875 53.03125 25.6875 53.03125 
Q 34.859375 53.03125 40.828125 45.609375 
L 40.828125 51.859375 
L 48.921875 51.859375 
L 48.921875 7.03125 
Q 48.921875 -5.078125 46.453125 -10.125 
Q 44 -15.1875 38.640625 -18.109375 
Q 33.296875 -21.046875 25.484375 -21.046875 
Q 16.21875 -21.046875 10.5 -16.875 
Q 4.78125 -12.703125 4.984375 -4.296875 
z
M 12.25 26.859375 
Q 12.25 16.65625 16.296875 11.96875 
Q 20.359375 7.28125 26.46875 7.28125 
Q 32.515625 7.28125 36.609375 11.9375 
Q 40.71875 16.609375 40.71875 26.5625 
Q 40.71875 36.078125 36.5 40.90625 
Q 32.28125 45.75 26.3125 45.75 
Q 20.453125 45.75 16.34375 40.984375 
Q 12.25 36.234375 12.25 26.859375 
z
" id="ArialMT-103"/>
      <path d="M 6.59375 0 
L 6.59375 71.578125 
L 15.375 71.578125 
L 15.375 45.90625 
Q 21.53125 53.03125 30.90625 53.03125 
Q 36.671875 53.03125 40.921875 50.75 
Q 45.171875 48.484375 47 44.484375 
Q 48.828125 40.484375 48.828125 32.859375 
L 48.828125 0 
L 40.046875 0 
L 40.046875 32.859375 
Q 40.046875 39.453125 37.1875 42.453125 
Q 34.328125 45.453125 29.109375 45.453125 
Q 25.203125 45.453125 21.75 43.421875 
Q 18.3125 41.40625 16.84375 37.9375 
Q 15.375 34.46875 15.375 28.375 
L 15.375 0 
z
" id="ArialMT-104"/>
      <path d="M 25.78125 7.859375 
L 27.046875 0.09375 
Q 23.34375 -0.6875 20.40625 -0.6875 
Q 15.625 -0.6875 12.984375 0.828125 
Q 10.359375 2.34375 9.28125 4.8125 
Q 8.203125 7.28125 8.203125 15.1875 
L 8.203125 45.015625 
L 1.765625 45.015625 
L 1.765625 51.859375 
L 8.203125 51.859375 
L 8.203125 64.703125 
L 16.9375 69.96875 
L 16.9375 51.859375 
L 25.78125 51.859375 
L 25.78125 45.015625 
L 16.9375 45.015625 
L 16.9375 14.703125 
Q 16.9375 10.9375 17.40625 9.859375 
Q 17.875 8.796875 18.921875 8.15625 
Q 19.96875 7.515625 21.921875 7.515625 
Q 23.390625 7.515625 25.78125 7.859375 
z
" id="ArialMT-116"/>
      <path d="M 40.234375 0 
L 40.234375 6.546875 
Q 35.296875 -1.171875 25.734375 -1.171875 
Q 19.53125 -1.171875 14.328125 2.25 
Q 9.125 5.671875 6.265625 11.796875 
Q 3.421875 17.921875 3.421875 25.875 
Q 3.421875 33.640625 6 39.96875 
Q 8.59375 46.296875 13.765625 49.65625 
Q 18.953125 53.03125 25.34375 53.03125 
Q 30.03125 53.03125 33.6875 51.046875 
Q 37.359375 49.078125 39.65625 45.90625 
L 39.65625 71.578125 
L 48.390625 71.578125 
L 48.390625 0 
z
M 12.453125 25.875 
Q 12.453125 15.921875 16.640625 10.984375 
Q 20.84375 6.0625 26.5625 6.0625 
Q 32.328125 6.0625 36.34375 10.765625 
Q 40.375 15.484375 40.375 25.140625 
Q 40.375 35.796875 36.265625 40.765625 
Q 32.171875 45.75 26.171875 45.75 
Q 20.3125 45.75 16.375 40.96875 
Q 12.453125 36.1875 12.453125 25.875 
z
" id="ArialMT-100"/>
      <path id="ArialMT-32"/>
      <path d="M 8.203125 0 
L 8.203125 71.578125 
L 56.5 71.578125 
L 56.5 63.140625 
L 17.671875 63.140625 
L 17.671875 40.96875 
L 51.265625 40.96875 
L 51.265625 32.515625 
L 17.671875 32.515625 
L 17.671875 0 
z
" id="ArialMT-70"/>
      <path d="M 6.5 0 
L 6.5 51.859375 
L 14.40625 51.859375 
L 14.40625 44 
Q 17.4375 49.515625 20 51.265625 
Q 22.5625 53.03125 25.640625 53.03125 
Q 30.078125 53.03125 34.671875 50.203125 
L 31.640625 42.046875 
Q 28.421875 43.953125 25.203125 43.953125 
Q 22.3125 43.953125 20.015625 42.21875 
Q 17.71875 40.484375 16.75 37.40625 
Q 15.28125 32.71875 15.28125 27.15625 
L 15.28125 0 
z
" id="ArialMT-114"/>
      <path d="M 40.4375 6.390625 
Q 35.546875 2.25 31.03125 0.53125 
Q 26.515625 -1.171875 21.34375 -1.171875 
Q 12.796875 -1.171875 8.203125 3 
Q 3.609375 7.171875 3.609375 13.671875 
Q 3.609375 17.484375 5.34375 20.625 
Q 7.078125 23.78125 9.890625 25.6875 
Q 12.703125 27.59375 16.21875 28.5625 
Q 18.796875 29.25 24.03125 29.890625 
Q 34.671875 31.15625 39.703125 32.90625 
Q 39.75 34.71875 39.75 35.203125 
Q 39.75 40.578125 37.25 42.78125 
Q 33.890625 45.75 27.25 45.75 
Q 21.046875 45.75 18.09375 43.578125 
Q 15.140625 41.40625 13.71875 35.890625 
L 5.125 37.0625 
Q 6.296875 42.578125 8.984375 45.96875 
Q 11.671875 49.359375 16.75 51.1875 
Q 21.828125 53.03125 28.515625 53.03125 
Q 35.15625 53.03125 39.296875 51.46875 
Q 43.453125 49.90625 45.40625 47.53125 
Q 47.359375 45.171875 48.140625 41.546875 
Q 48.578125 39.3125 48.578125 33.453125 
L 48.578125 21.734375 
Q 48.578125 9.46875 49.140625 6.21875 
Q 49.703125 2.984375 51.375 0 
L 42.1875 0 
Q 40.828125 2.734375 40.4375 6.390625 
z
M 39.703125 26.03125 
Q 34.90625 24.078125 25.34375 22.703125 
Q 19.921875 21.921875 17.671875 20.9375 
Q 15.4375 19.96875 14.203125 18.09375 
Q 12.984375 16.21875 12.984375 13.921875 
Q 12.984375 10.40625 15.640625 8.0625 
Q 18.3125 5.71875 23.4375 5.71875 
Q 28.515625 5.71875 32.46875 7.9375 
Q 36.421875 10.15625 38.28125 14.015625 
Q 39.703125 17 39.703125 22.796875 
z
" id="ArialMT-97"/>
      <path d="M 40.4375 19 
L 49.078125 17.875 
Q 47.65625 8.9375 41.8125 3.875 
Q 35.984375 -1.171875 27.484375 -1.171875 
Q 16.84375 -1.171875 10.375 5.78125 
Q 3.90625 12.75 3.90625 25.734375 
Q 3.90625 34.125 6.6875 40.421875 
Q 9.46875 46.734375 15.15625 49.875 
Q 20.84375 53.03125 27.546875 53.03125 
Q 35.984375 53.03125 41.359375 48.75 
Q 46.734375 44.484375 48.25 36.625 
L 39.703125 35.296875 
Q 38.484375 40.53125 35.375 43.15625 
Q 32.28125 45.796875 27.875 45.796875 
Q 21.234375 45.796875 17.078125 41.03125 
Q 12.9375 36.28125 12.9375 25.984375 
Q 12.9375 15.53125 16.9375 10.796875 
Q 20.953125 6.0625 27.390625 6.0625 
Q 32.5625 6.0625 36.03125 9.234375 
Q 39.5 12.40625 40.4375 19 
z
" id="ArialMT-99"/>
      <path d="M 7.71875 0 
L 7.71875 71.578125 
L 32.375 71.578125 
Q 40.71875 71.578125 45.125 70.5625 
Q 51.265625 69.140625 55.609375 65.4375 
Q 61.28125 60.640625 64.078125 53.1875 
Q 66.890625 45.75 66.890625 36.1875 
Q 66.890625 28.03125 64.984375 21.734375 
Q 63.09375 15.4375 60.109375 11.296875 
Q 57.125 7.171875 53.578125 4.796875 
Q 50.046875 2.4375 45.046875 1.21875 
Q 40.046875 0 33.546875 0 
z
M 17.1875 8.453125 
L 32.46875 8.453125 
Q 39.546875 8.453125 43.578125 9.765625 
Q 47.609375 11.078125 50 13.484375 
Q 53.375 16.84375 55.25 22.53125 
Q 57.125 28.21875 57.125 36.328125 
Q 57.125 47.5625 53.4375 53.59375 
Q 49.75 59.625 44.484375 61.671875 
Q 40.671875 63.140625 32.234375 63.140625 
L 17.1875 63.140625 
z
" id="ArialMT-68"/>
      <path d="M 3.078125 15.484375 
L 11.765625 16.84375 
Q 12.5 11.625 15.84375 8.84375 
Q 19.1875 6.0625 25.203125 6.0625 
Q 31.25 6.0625 34.171875 8.515625 
Q 37.109375 10.984375 37.109375 14.3125 
Q 37.109375 17.28125 34.515625 19 
Q 32.71875 20.171875 25.53125 21.96875 
Q 15.875 24.421875 12.140625 26.203125 
Q 8.40625 27.984375 6.46875 31.125 
Q 4.546875 34.28125 4.546875 38.09375 
Q 4.546875 41.546875 6.125 44.5 
Q 7.71875 47.46875 10.453125 49.421875 
Q 12.5 50.921875 16.03125 51.96875 
Q 19.578125 53.03125 23.640625 53.03125 
Q 29.734375 53.03125 34.34375 51.265625 
Q 38.96875 49.515625 41.15625 46.5 
Q 43.359375 43.5 44.1875 38.484375 
L 35.59375 37.3125 
Q 35.015625 41.3125 32.203125 43.546875 
Q 29.390625 45.796875 24.265625 45.796875 
Q 18.21875 45.796875 15.625 43.796875 
Q 13.03125 41.796875 13.03125 39.109375 
Q 13.03125 37.40625 14.109375 36.03125 
Q 15.1875 34.625 17.484375 33.6875 
Q 18.796875 33.203125 25.25 31.453125 
Q 34.578125 28.953125 38.25 27.359375 
Q 41.9375 25.78125 44.03125 22.75 
Q 46.140625 19.734375 46.140625 15.234375 
Q 46.140625 10.84375 43.578125 6.953125 
Q 41.015625 3.078125 36.171875 0.953125 
Q 31.34375 -1.171875 25.25 -1.171875 
Q 15.140625 -1.171875 9.84375 3.03125 
Q 4.546875 7.234375 3.078125 15.484375 
z
" id="ArialMT-115"/>
      <path d="M 3.328125 25.921875 
Q 3.328125 40.328125 11.328125 47.265625 
Q 18.015625 53.03125 27.640625 53.03125 
Q 38.328125 53.03125 45.109375 46.015625 
Q 51.90625 39.015625 51.90625 26.65625 
Q 51.90625 16.65625 48.90625 10.90625 
Q 45.90625 5.171875 40.15625 2 
Q 34.421875 -1.171875 27.640625 -1.171875 
Q 16.75 -1.171875 10.03125 5.8125 
Q 3.328125 12.796875 3.328125 25.921875 
z
M 12.359375 25.921875 
Q 12.359375 15.96875 16.703125 11.015625 
Q 21.046875 6.0625 27.640625 6.0625 
Q 34.1875 6.0625 38.53125 11.03125 
Q 42.875 16.015625 42.875 26.21875 
Q 42.875 35.84375 38.5 40.796875 
Q 34.125 45.75 27.640625 45.75 
Q 21.046875 45.75 16.703125 40.8125 
Q 12.359375 35.890625 12.359375 25.921875 
z
" id="ArialMT-111"/>
      <path d="M 7.328125 0 
L 7.328125 71.578125 
L 34.1875 71.578125 
Q 42.390625 71.578125 47.34375 69.40625 
Q 52.296875 67.234375 55.09375 62.71875 
Q 57.90625 58.203125 57.90625 53.265625 
Q 57.90625 48.6875 55.421875 44.625 
Q 52.9375 40.578125 47.90625 38.09375 
Q 54.390625 36.1875 57.875 31.59375 
Q 61.375 27 61.375 20.75 
Q 61.375 15.71875 59.25 11.390625 
Q 57.125 7.078125 54 4.734375 
Q 50.875 2.390625 46.15625 1.1875 
Q 41.453125 0 34.625 0 
z
M 16.796875 41.5 
L 32.28125 41.5 
Q 38.578125 41.5 41.3125 42.328125 
Q 44.921875 43.40625 46.75 45.890625 
Q 48.578125 48.390625 48.578125 52.15625 
Q 48.578125 55.71875 46.875 58.421875 
Q 45.171875 61.140625 41.984375 62.140625 
Q 38.8125 63.140625 31.109375 63.140625 
L 16.796875 63.140625 
z
M 16.796875 8.453125 
L 34.625 8.453125 
Q 39.203125 8.453125 41.0625 8.796875 
Q 44.34375 9.375 46.53125 10.734375 
Q 48.734375 12.109375 50.140625 14.71875 
Q 51.5625 17.328125 51.5625 20.75 
Q 51.5625 24.75 49.515625 27.703125 
Q 47.46875 30.671875 43.828125 31.859375 
Q 40.1875 33.0625 33.34375 33.0625 
L 16.796875 33.0625 
z
" id="ArialMT-66"/>
      <path d="M 6.390625 0 
L 6.390625 71.578125 
L 15.1875 71.578125 
L 15.1875 0 
z
" id="ArialMT-108"/>
     </defs>
     <g style="fill:#262626;" transform="translate(87.699783 352.911094)scale(0.15 -0.15)">
      <use xlink:href="#ArialMT-85"/>
      <use x="72.216797" xlink:href="#ArialMT-110"/>
      <use x="127.832031" xlink:href="#ArialMT-119"/>
      <use x="200.048828" xlink:href="#ArialMT-101"/>
      <use x="255.664062" xlink:href="#ArialMT-105"/>
      <use x="277.880859" xlink:href="#ArialMT-103"/>
      <use x="333.496094" xlink:href="#ArialMT-104"/>
      <use x="389.111328" xlink:href="#ArialMT-116"/>
      <use x="416.894531" xlink:href="#ArialMT-101"/>
      <use x="472.509766" xlink:href="#ArialMT-100"/>
      <use x="528.125" xlink:href="#ArialMT-32"/>
      <use x="555.908203" xlink:href="#ArialMT-85"/>
      <use x="628.125" xlink:href="#ArialMT-110"/>
      <use x="683.740234" xlink:href="#ArialMT-105"/>
      <use x="705.957031" xlink:href="#ArialMT-70"/>
      <use x="767.041016" xlink:href="#ArialMT-114"/>
      <use x="800.341797" xlink:href="#ArialMT-97"/>
      <use x="855.957031" xlink:href="#ArialMT-99"/>
      <use x="905.957031" xlink:href="#ArialMT-32"/>
      <use x="933.740234" xlink:href="#ArialMT-68"/>
      <use x="1005.957031" xlink:href="#ArialMT-105"/>
      <use x="1028.173828" xlink:href="#ArialMT-115"/>
      <use x="1078.173828" xlink:href="#ArialMT-116"/>
      <use x="1105.957031" xlink:href="#ArialMT-46"/>
      <use x="1133.740234" xlink:href="#ArialMT-32"/>
      <use x="1161.523438" xlink:href="#ArialMT-116"/>
      <use x="1189.306641" xlink:href="#ArialMT-111"/>
      <use x="1244.921875" xlink:href="#ArialMT-32"/>
      <use x="1272.705078" xlink:href="#ArialMT-66"/>
      <use x="1339.404297" xlink:href="#ArialMT-97"/>
      <use x="1395.019531" xlink:href="#ArialMT-115"/>
      <use x="1445.019531" xlink:href="#ArialMT-101"/>
      <use x="1500.634766" xlink:href="#ArialMT-108"/>
      <use x="1522.851562" xlink:href="#ArialMT-105"/>
      <use x="1545.068359" xlink:href="#ArialMT-110"/>
      <use x="1600.683594" xlink:href="#ArialMT-101"/>
     </g>
    </g>
   </g>
   <g id="matplotlib.axis_2">
    <g id="ytick_1">
     <g id="text_7">
      <!-- 0.000 -->
      <g style="fill:#262626;" transform="translate(31.187378 303.132123)scale(0.12 -0.12)">
       <use xlink:href="#ArialMT-48"/>
       <use x="55.615234" xlink:href="#ArialMT-46"/>
       <use x="83.398438" xlink:href="#ArialMT-48"/>
       <use x="139.013672" xlink:href="#ArialMT-48"/>
       <use x="194.628906" xlink:href="#ArialMT-48"/>
      </g>
     </g>
    </g>
    <g id="ytick_2">
     <g id="text_8">
      <!-- 0.025 -->
      <g style="fill:#262626;" transform="translate(31.187378 266.13924)scale(0.12 -0.12)">
       <use xlink:href="#ArialMT-48"/>
       <use x="55.615234" xlink:href="#ArialMT-46"/>
       <use x="83.398438" xlink:href="#ArialMT-48"/>
       <use x="139.013672" xlink:href="#ArialMT-50"/>
       <use x="194.628906" xlink:href="#ArialMT-53"/>
      </g>
     </g>
    </g>
    <g id="ytick_3">
     <g id="text_9">
      <!-- 0.050 -->
      <g style="fill:#262626;" transform="translate(31.187378 229.146357)scale(0.12 -0.12)">
       <use xlink:href="#ArialMT-48"/>
       <use x="55.615234" xlink:href="#ArialMT-46"/>
       <use x="83.398438" xlink:href="#ArialMT-48"/>
       <use x="139.013672" xlink:href="#ArialMT-53"/>
       <use x="194.628906" xlink:href="#ArialMT-48"/>
      </g>
     </g>
    </g>
    <g id="ytick_4">
     <g id="text_10">
      <!-- 0.075 -->
      <defs>
       <path d="M 4.734375 62.203125 
L 4.734375 70.65625 
L 51.078125 70.65625 
L 51.078125 63.8125 
Q 44.234375 56.546875 37.515625 44.484375 
Q 30.8125 32.421875 27.15625 19.671875 
Q 24.515625 10.6875 23.78125 0 
L 14.75 0 
Q 14.890625 8.453125 18.0625 20.40625 
Q 21.234375 32.375 27.171875 43.484375 
Q 33.109375 54.59375 39.796875 62.203125 
z
" id="ArialMT-55"/>
      </defs>
      <g style="fill:#262626;" transform="translate(31.187378 192.153474)scale(0.12 -0.12)">
       <use xlink:href="#ArialMT-48"/>
       <use x="55.615234" xlink:href="#ArialMT-46"/>
       <use x="83.398438" xlink:href="#ArialMT-48"/>
       <use x="139.013672" xlink:href="#ArialMT-55"/>
       <use x="194.628906" xlink:href="#ArialMT-53"/>
      </g>
     </g>
    </g>
    <g id="ytick_5">
     <g id="text_11">
      <!-- 0.100 -->
      <defs>
       <path d="M 37.25 0 
L 28.46875 0 
L 28.46875 56 
Q 25.296875 52.984375 20.140625 49.953125 
Q 14.984375 46.921875 10.890625 45.40625 
L 10.890625 53.90625 
Q 18.265625 57.375 23.78125 62.296875 
Q 29.296875 67.234375 31.59375 71.875 
L 37.25 71.875 
z
" id="ArialMT-49"/>
      </defs>
      <g style="fill:#262626;" transform="translate(31.187378 155.16059)scale(0.12 -0.12)">
       <use xlink:href="#ArialMT-48"/>
       <use x="55.615234" xlink:href="#ArialMT-46"/>
       <use x="83.398438" xlink:href="#ArialMT-49"/>
       <use x="139.013672" xlink:href="#ArialMT-48"/>
       <use x="194.628906" xlink:href="#ArialMT-48"/>
      </g>
     </g>
    </g>
    <g id="ytick_6">
     <g id="text_12">
      <!-- 0.125 -->
      <g style="fill:#262626;" transform="translate(31.187378 118.167707)scale(0.12 -0.12)">
       <use xlink:href="#ArialMT-48"/>
       <use x="55.615234" xlink:href="#ArialMT-46"/>
       <use x="83.398438" xlink:href="#ArialMT-49"/>
       <use x="139.013672" xlink:href="#ArialMT-50"/>
       <use x="194.628906" xlink:href="#ArialMT-53"/>
      </g>
     </g>
    </g>
    <g id="ytick_7">
     <g id="text_13">
      <!-- 0.150 -->
      <g style="fill:#262626;" transform="translate(31.187378 81.174824)scale(0.12 -0.12)">
       <use xlink:href="#ArialMT-48"/>
       <use x="55.615234" xlink:href="#ArialMT-46"/>
       <use x="83.398438" xlink:href="#ArialMT-49"/>
       <use x="139.013672" xlink:href="#ArialMT-53"/>
       <use x="194.628906" xlink:href="#ArialMT-48"/>
      </g>
     </g>
    </g>
    <g id="ytick_8">
     <g id="text_14">
      <!-- 0.175 -->
      <g style="fill:#262626;" transform="translate(31.187378 44.181941)scale(0.12 -0.12)">
       <use xlink:href="#ArialMT-48"/>
       <use x="55.615234" xlink:href="#ArialMT-46"/>
       <use x="83.398438" xlink:href="#ArialMT-49"/>
       <use x="139.013672" xlink:href="#ArialMT-55"/>
       <use x="194.628906" xlink:href="#ArialMT-53"/>
      </g>
     </g>
    </g>
    <g id="text_15">
     <!-- Midazolam -->
     <defs>
      <path d="M 7.421875 0 
L 7.421875 71.578125 
L 21.6875 71.578125 
L 38.625 20.90625 
Q 40.96875 13.8125 42.046875 10.296875 
Q 43.265625 14.203125 45.84375 21.78125 
L 62.984375 71.578125 
L 75.734375 71.578125 
L 75.734375 0 
L 66.609375 0 
L 66.609375 59.90625 
L 45.796875 0 
L 37.25 0 
L 16.546875 60.9375 
L 16.546875 0 
z
" id="ArialMT-77"/>
      <path d="M 1.953125 0 
L 1.953125 7.125 
L 34.96875 45.015625 
Q 29.34375 44.734375 25.046875 44.734375 
L 3.90625 44.734375 
L 3.90625 51.859375 
L 46.296875 51.859375 
L 46.296875 46.046875 
L 18.21875 13.140625 
L 12.796875 7.125 
Q 18.703125 7.5625 23.875 7.5625 
L 47.859375 7.5625 
L 47.859375 0 
z
" id="ArialMT-122"/>
      <path d="M 6.59375 0 
L 6.59375 51.859375 
L 14.453125 51.859375 
L 14.453125 44.578125 
Q 16.890625 48.390625 20.9375 50.703125 
Q 25 53.03125 30.171875 53.03125 
Q 35.9375 53.03125 39.625 50.640625 
Q 43.3125 48.25 44.828125 43.953125 
Q 50.984375 53.03125 60.84375 53.03125 
Q 68.5625 53.03125 72.703125 48.75 
Q 76.859375 44.484375 76.859375 35.59375 
L 76.859375 0 
L 68.109375 0 
L 68.109375 32.671875 
Q 68.109375 37.9375 67.25 40.25 
Q 66.40625 42.578125 64.15625 43.984375 
Q 61.921875 45.40625 58.890625 45.40625 
Q 53.421875 45.40625 49.796875 41.765625 
Q 46.1875 38.140625 46.1875 30.125 
L 46.1875 0 
L 37.40625 0 
L 37.40625 33.6875 
Q 37.40625 39.546875 35.25 42.46875 
Q 33.109375 45.40625 28.21875 45.40625 
Q 24.515625 45.40625 21.359375 43.453125 
Q 18.21875 41.5 16.796875 37.734375 
Q 15.375 33.984375 15.375 26.90625 
L 15.375 0 
z
" id="ArialMT-109"/>
     </defs>
     <g style="fill:#262626;" transform="translate(24.206128 203.510156)rotate(-90)scale(0.15 -0.15)">
      <use xlink:href="#ArialMT-77"/>
      <use x="83.300781" xlink:href="#ArialMT-105"/>
      <use x="105.517578" xlink:href="#ArialMT-100"/>
      <use x="161.132812" xlink:href="#ArialMT-97"/>
      <use x="216.748047" xlink:href="#ArialMT-122"/>
      <use x="266.748047" xlink:href="#ArialMT-111"/>
      <use x="322.363281" xlink:href="#ArialMT-108"/>
      <use x="344.580078" xlink:href="#ArialMT-97"/>
      <use x="400.195312" xlink:href="#ArialMT-109"/>
     </g>
    </g>
   </g>
   <g id="PathCollection_1">
    <defs>
     <path d="M 0 3 
C 0.795609 3 1.55874 2.683901 2.12132 2.12132 
C 2.683901 1.55874 3 0.795609 3 0 
C 3 -0.795609 2.683901 -1.55874 2.12132 -2.12132 
C 1.55874 -2.683901 0.795609 -3 0 -3 
C -0.795609 -3 -1.55874 -2.683901 -2.12132 -2.12132 
C -2.683901 -1.55874 -3 -0.795609 -3 0 
C -3 0.795609 -2.683901 1.55874 -2.12132 2.12132 
C -1.55874 2.683901 -0.795609 3 0 3 
z
" id="md0b5bb4d88" style="stroke:#f77189;stroke-opacity:0.8;"/>
    </defs>
    <g clip-path="url(#p4a1543b0b3)">
     <use style="fill:#f77189;fill-opacity:0.8;stroke:#f77189;stroke-opacity:0.8;" x="207.559446" xlink:href="#md0b5bb4d88" y="281.067547"/>
     <use style="fill:#f77189;fill-opacity:0.8;stroke:#f77189;stroke-opacity:0.8;" x="257.79656" xlink:href="#md0b5bb4d88" y="214.090565"/>
     <use style="fill:#f77189;fill-opacity:0.8;stroke:#f77189;stroke-opacity:0.8;" x="276.625379" xlink:href="#md0b5bb4d88" y="244.556671"/>
     <use style="fill:#f77189;fill-opacity:0.8;stroke:#f77189;stroke-opacity:0.8;" x="309.349156" xlink:href="#md0b5bb4d88" y="208.203521"/>
     <use style="fill:#f77189;fill-opacity:0.8;stroke:#f77189;stroke-opacity:0.8;" x="314.844011" xlink:href="#md0b5bb4d88" y="237.087454"/>
     <use style="fill:#f77189;fill-opacity:0.8;stroke:#f77189;stroke-opacity:0.8;" x="276.795906" xlink:href="#md0b5bb4d88" y="288.595735"/>
    </g>
   </g>
   <g id="PathCollection_2">
    <defs>
     <path d="M 0 3 
C 0.795609 3 1.55874 2.683901 2.12132 2.12132 
C 2.683901 1.55874 3 0.795609 3 0 
C 3 -0.795609 2.683901 -1.55874 2.12132 -2.12132 
C 1.55874 -2.683901 0.795609 -3 0 -3 
C -0.795609 -3 -1.55874 -2.683901 -2.12132 -2.12132 
C -2.683901 -1.55874 -3 -0.795609 -3 0 
C -3 0.795609 -2.683901 1.55874 -2.12132 2.12132 
C -1.55874 2.683901 -0.795609 3 0 3 
z
" id="mc526cb0d14" style="stroke:#e68332;stroke-opacity:0.8;"/>
    </defs>
    <g clip-path="url(#p4a1543b0b3)">
     <use style="fill:#e68332;fill-opacity:0.8;stroke:#e68332;stroke-opacity:0.8;" x="165.049475" xlink:href="#mc526cb0d14" y="298.837435"/>
     <use style="fill:#e68332;fill-opacity:0.8;stroke:#e68332;stroke-opacity:0.8;" x="124.088329" xlink:href="#mc526cb0d14" y="296.573879"/>
     <use style="fill:#e68332;fill-opacity:0.8;stroke:#e68332;stroke-opacity:0.8;" x="151.352016" xlink:href="#mc526cb0d14" y="297.717659"/>
     <use style="fill:#e68332;fill-opacity:0.8;stroke:#e68332;stroke-opacity:0.8;" x="181.29564" xlink:href="#mc526cb0d14" y="286.39738"/>
     <use style="fill:#e68332;fill-opacity:0.8;stroke:#e68332;stroke-opacity:0.8;" x="200.628471" xlink:href="#mc526cb0d14" y="283.107635"/>
     <use style="fill:#e68332;fill-opacity:0.8;stroke:#e68332;stroke-opacity:0.8;" x="205.71099" xlink:href="#mc526cb0d14" y="289.169322"/>
     <use style="fill:#e68332;fill-opacity:0.8;stroke:#e68332;stroke-opacity:0.8;" x="187.127454" xlink:href="#mc526cb0d14" y="298.071619"/>
     <use style="fill:#e68332;fill-opacity:0.8;stroke:#e68332;stroke-opacity:0.8;" x="208.330622" xlink:href="#mc526cb0d14" y="296.371336"/>
    </g>
   </g>
   <g id="PathCollection_3">
    <defs>
     <path d="M 0 3 
C 0.795609 3 1.55874 2.683901 2.12132 2.12132 
C 2.683901 1.55874 3 0.795609 3 0 
C 3 -0.795609 2.683901 -1.55874 2.12132 -2.12132 
C 1.55874 -2.683901 0.795609 -3 0 -3 
C -0.795609 -3 -1.55874 -2.683901 -2.12132 -2.12132 
C -2.683901 -1.55874 -3 -0.795609 -3 0 
C -3 0.795609 -2.683901 1.55874 -2.12132 2.12132 
C -1.55874 2.683901 -0.795609 3 0 3 
z
" id="md3a675260a" style="stroke:#bb9832;stroke-opacity:0.8;"/>
    </defs>
    <g clip-path="url(#p4a1543b0b3)">
     <use style="fill:#bb9832;fill-opacity:0.8;stroke:#bb9832;stroke-opacity:0.8;" x="226.623777" xlink:href="#md3a675260a" y="285.731117"/>
     <use style="fill:#bb9832;fill-opacity:0.8;stroke:#bb9832;stroke-opacity:0.8;" x="226.607933" xlink:href="#md3a675260a" y="243.688578"/>
     <use style="fill:#bb9832;fill-opacity:0.8;stroke:#bb9832;stroke-opacity:0.8;" x="253.789237" xlink:href="#md3a675260a" y="239.118193"/>
     <use style="fill:#bb9832;fill-opacity:0.8;stroke:#bb9832;stroke-opacity:0.8;" x="317.366122" xlink:href="#md3a675260a" y="42.141724"/>
     <use style="fill:#bb9832;fill-opacity:0.8;stroke:#bb9832;stroke-opacity:0.8;" x="305.707666" xlink:href="#md3a675260a" y="31.200387"/>
    </g>
   </g>
   <g id="PathCollection_4">
    <defs>
     <path d="M 0 3 
C 0.795609 3 1.55874 2.683901 2.12132 2.12132 
C 2.683901 1.55874 3 0.795609 3 0 
C 3 -0.795609 2.683901 -1.55874 2.12132 -2.12132 
C 1.55874 -2.683901 0.795609 -3 0 -3 
C -0.795609 -3 -1.55874 -2.683901 -2.12132 -2.12132 
C -2.683901 -1.55874 -3 -0.795609 -3 0 
C -3 0.795609 -2.683901 1.55874 -2.12132 2.12132 
C -1.55874 2.683901 -0.795609 3 0 3 
z
" id="m4e84160ad5" style="stroke:#97a431;stroke-opacity:0.8;"/>
    </defs>
    <g clip-path="url(#p4a1543b0b3)">
     <use style="fill:#97a431;fill-opacity:0.8;stroke:#97a431;stroke-opacity:0.8;" x="116.783814" xlink:href="#m4e84160ad5" y="298.621534"/>
     <use style="fill:#97a431;fill-opacity:0.8;stroke:#97a431;stroke-opacity:0.8;" x="129.689055" xlink:href="#m4e84160ad5" y="295.65766"/>
     <use style="fill:#97a431;fill-opacity:0.8;stroke:#97a431;stroke-opacity:0.8;" x="336.823454" xlink:href="#m4e84160ad5" y="230.976421"/>
     <use style="fill:#97a431;fill-opacity:0.8;stroke:#97a431;stroke-opacity:0.8;" x="279.323043" xlink:href="#m4e84160ad5" y="263.025899"/>
     <use style="fill:#97a431;fill-opacity:0.8;stroke:#97a431;stroke-opacity:0.8;" x="272.63434" xlink:href="#m4e84160ad5" y="295.525556"/>
     <use style="fill:#97a431;fill-opacity:0.8;stroke:#97a431;stroke-opacity:0.8;" x="237.933058" xlink:href="#m4e84160ad5" y="297.42971"/>
     <use style="fill:#97a431;fill-opacity:0.8;stroke:#97a431;stroke-opacity:0.8;" x="284.854624" xlink:href="#m4e84160ad5" y="296.513677"/>
    </g>
   </g>
   <g id="PathCollection_5">
    <defs>
     <path d="M 0 3 
C 0.795609 3 1.55874 2.683901 2.12132 2.12132 
C 2.683901 1.55874 3 0.795609 3 0 
C 3 -0.795609 2.683901 -1.55874 2.12132 -2.12132 
C 1.55874 -2.683901 0.795609 -3 0 -3 
C -0.795609 -3 -1.55874 -2.683901 -2.12132 -2.12132 
C -2.683901 -1.55874 -3 -0.795609 -3 0 
C -3 0.795609 -2.683901 1.55874 -2.12132 2.12132 
C -1.55874 2.683901 -0.795609 3 0 3 
z
" id="m74eb2a7446" style="stroke:#50b131;stroke-opacity:0.8;"/>
    </defs>
    <g clip-path="url(#p4a1543b0b3)">
     <use style="fill:#50b131;fill-opacity:0.8;stroke:#50b131;stroke-opacity:0.8;" x="201.594209" xlink:href="#m74eb2a7446" y="288.765049"/>
     <use style="fill:#50b131;fill-opacity:0.8;stroke:#50b131;stroke-opacity:0.8;" x="272.719358" xlink:href="#m74eb2a7446" y="276.435873"/>
     <use style="fill:#50b131;fill-opacity:0.8;stroke:#50b131;stroke-opacity:0.8;" x="290.598119" xlink:href="#m74eb2a7446" y="295.94104"/>
     <use style="fill:#50b131;fill-opacity:0.8;stroke:#50b131;stroke-opacity:0.8;" x="298.102808" xlink:href="#m74eb2a7446" y="297.273154"/>
     <use style="fill:#50b131;fill-opacity:0.8;stroke:#50b131;stroke-opacity:0.8;" x="242.743505" xlink:href="#m74eb2a7446" y="294.384088"/>
     <use style="fill:#50b131;fill-opacity:0.8;stroke:#50b131;stroke-opacity:0.8;" x="307.335251" xlink:href="#m74eb2a7446" y="297.240572"/>
     <use style="fill:#50b131;fill-opacity:0.8;stroke:#50b131;stroke-opacity:0.8;" x="291.418292" xlink:href="#m74eb2a7446" y="278.94808"/>
    </g>
   </g>
   <g id="PathCollection_6">
    <defs>
     <path d="M 0 3 
C 0.795609 3 1.55874 2.683901 2.12132 2.12132 
C 2.683901 1.55874 3 0.795609 3 0 
C 3 -0.795609 2.683901 -1.55874 2.12132 -2.12132 
C 1.55874 -2.683901 0.795609 -3 0 -3 
C -0.795609 -3 -1.55874 -2.683901 -2.12132 -2.12132 
C -2.683901 -1.55874 -3 -0.795609 -3 0 
C -3 0.795609 -2.683901 1.55874 -2.12132 2.12132 
C -1.55874 2.683901 -0.795609 3 0 3 
z
" id="m92ba34217e" style="stroke:#34af84;stroke-opacity:0.8;"/>
    </defs>
    <g clip-path="url(#p4a1543b0b3)">
     <use style="fill:#34af84;fill-opacity:0.8;stroke:#34af84;stroke-opacity:0.8;" x="210.561598" xlink:href="#m92ba34217e" y="226.643745"/>
     <use style="fill:#34af84;fill-opacity:0.8;stroke:#34af84;stroke-opacity:0.8;" x="182.137428" xlink:href="#m92ba34217e" y="222.509783"/>
     <use style="fill:#34af84;fill-opacity:0.8;stroke:#34af84;stroke-opacity:0.8;" x="221.989738" xlink:href="#m92ba34217e" y="264.624612"/>
     <use style="fill:#34af84;fill-opacity:0.8;stroke:#34af84;stroke-opacity:0.8;" x="250.609801" xlink:href="#m92ba34217e" y="158.761803"/>
     <use style="fill:#34af84;fill-opacity:0.8;stroke:#34af84;stroke-opacity:0.8;" x="223.105143" xlink:href="#m92ba34217e" y="251.673498"/>
     <use style="fill:#34af84;fill-opacity:0.8;stroke:#34af84;stroke-opacity:0.8;" x="172.360332" xlink:href="#m92ba34217e" y="225.217797"/>
     <use style="fill:#34af84;fill-opacity:0.8;stroke:#34af84;stroke-opacity:0.8;" x="223.642875" xlink:href="#m92ba34217e" y="241.230947"/>
    </g>
   </g>
   <g id="PathCollection_7">
    <defs>
     <path d="M 0 3 
C 0.795609 3 1.55874 2.683901 2.12132 2.12132 
C 2.683901 1.55874 3 0.795609 3 0 
C 3 -0.795609 2.683901 -1.55874 2.12132 -2.12132 
C 1.55874 -2.683901 0.795609 -3 0 -3 
C -0.795609 -3 -1.55874 -2.683901 -2.12132 -2.12132 
C -2.683901 -1.55874 -3 -0.795609 -3 0 
C -3 0.795609 -2.683901 1.55874 -2.12132 2.12132 
C -1.55874 2.683901 -0.795609 3 0 3 
z
" id="m46974a7b55" style="stroke:#36ada4;stroke-opacity:0.8;"/>
    </defs>
    <g clip-path="url(#p4a1543b0b3)">
     <use style="fill:#36ada4;fill-opacity:0.8;stroke:#36ada4;stroke-opacity:0.8;" x="201.828204" xlink:href="#m46974a7b55" y="294.49325"/>
     <use style="fill:#36ada4;fill-opacity:0.8;stroke:#36ada4;stroke-opacity:0.8;" x="277.688366" xlink:href="#m46974a7b55" y="270.456837"/>
     <use style="fill:#36ada4;fill-opacity:0.8;stroke:#36ada4;stroke-opacity:0.8;" x="242.866025" xlink:href="#m46974a7b55" y="252.03018"/>
     <use style="fill:#36ada4;fill-opacity:0.8;stroke:#36ada4;stroke-opacity:0.8;" x="308.45578" xlink:href="#m46974a7b55" y="257.240396"/>
     <use style="fill:#36ada4;fill-opacity:0.8;stroke:#36ada4;stroke-opacity:0.8;" x="261.497863" xlink:href="#m46974a7b55" y="86.549994"/>
    </g>
   </g>
   <g id="PathCollection_8">
    <defs>
     <path d="M 0 3 
C 0.795609 3 1.55874 2.683901 2.12132 2.12132 
C 2.683901 1.55874 3 0.795609 3 0 
C 3 -0.795609 2.683901 -1.55874 2.12132 -2.12132 
C 1.55874 -2.683901 0.795609 -3 0 -3 
C -0.795609 -3 -1.55874 -2.683901 -2.12132 -2.12132 
C -2.683901 -1.55874 -3 -0.795609 -3 0 
C -3 0.795609 -2.683901 1.55874 -2.12132 2.12132 
C -1.55874 2.683901 -0.795609 3 0 3 
z
" id="me4dbe20c67" style="stroke:#38aabf;stroke-opacity:0.8;"/>
    </defs>
    <g clip-path="url(#p4a1543b0b3)">
     <use style="fill:#38aabf;fill-opacity:0.8;stroke:#38aabf;stroke-opacity:0.8;" x="87.008924" xlink:href="#me4dbe20c67" y="212.166561"/>
     <use style="fill:#38aabf;fill-opacity:0.8;stroke:#38aabf;stroke-opacity:0.8;" x="176.849472" xlink:href="#me4dbe20c67" y="202.061356"/>
     <use style="fill:#38aabf;fill-opacity:0.8;stroke:#38aabf;stroke-opacity:0.8;" x="234.675209" xlink:href="#me4dbe20c67" y="298.837435"/>
     <use style="fill:#38aabf;fill-opacity:0.8;stroke:#38aabf;stroke-opacity:0.8;" x="179.921668" xlink:href="#me4dbe20c67" y="139.682587"/>
     <use style="fill:#38aabf;fill-opacity:0.8;stroke:#38aabf;stroke-opacity:0.8;" x="217.41785" xlink:href="#me4dbe20c67" y="193.610957"/>
     <use style="fill:#38aabf;fill-opacity:0.8;stroke:#38aabf;stroke-opacity:0.8;" x="209.338974" xlink:href="#me4dbe20c67" y="266.647359"/>
    </g>
   </g>
   <g id="PathCollection_9">
    <defs>
     <path d="M 0 3 
C 0.795609 3 1.55874 2.683901 2.12132 2.12132 
C 2.683901 1.55874 3 0.795609 3 0 
C 3 -0.795609 2.683901 -1.55874 2.12132 -2.12132 
C 1.55874 -2.683901 0.795609 -3 0 -3 
C -0.795609 -3 -1.55874 -2.683901 -2.12132 -2.12132 
C -2.683901 -1.55874 -3 -0.795609 -3 0 
C -3 0.795609 -2.683901 1.55874 -2.12132 2.12132 
C -1.55874 2.683901 -0.795609 3 0 3 
z
" id="ma6e2fbaaa7" style="stroke:#3ba3ec;stroke-opacity:0.8;"/>
    </defs>
    <g clip-path="url(#p4a1543b0b3)">
     <use style="fill:#3ba3ec;fill-opacity:0.8;stroke:#3ba3ec;stroke-opacity:0.8;" x="203.562838" xlink:href="#ma6e2fbaaa7" y="293.969302"/>
     <use style="fill:#3ba3ec;fill-opacity:0.8;stroke:#3ba3ec;stroke-opacity:0.8;" x="251.992925" xlink:href="#ma6e2fbaaa7" y="267.932663"/>
     <use style="fill:#3ba3ec;fill-opacity:0.8;stroke:#3ba3ec;stroke-opacity:0.8;" x="160.555305" xlink:href="#ma6e2fbaaa7" y="296.725187"/>
     <use style="fill:#3ba3ec;fill-opacity:0.8;stroke:#3ba3ec;stroke-opacity:0.8;" x="239.984761" xlink:href="#ma6e2fbaaa7" y="250.77482"/>
    </g>
   </g>
   <g id="PathCollection_10">
    <defs>
     <path d="M 0 3 
C 0.795609 3 1.55874 2.683901 2.12132 2.12132 
C 2.683901 1.55874 3 0.795609 3 0 
C 3 -0.795609 2.683901 -1.55874 2.12132 -2.12132 
C 1.55874 -2.683901 0.795609 -3 0 -3 
C -0.795609 -3 -1.55874 -2.683901 -2.12132 -2.12132 
C -2.683901 -1.55874 -3 -0.795609 -3 0 
C -3 0.795609 -2.683901 1.55874 -2.12132 2.12132 
C -1.55874 2.683901 -0.795609 3 0 3 
z
" id="m0f751d3cbd" style="stroke:#a48cf4;stroke-opacity:0.8;"/>
    </defs>
    <g clip-path="url(#p4a1543b0b3)">
     <use style="fill:#a48cf4;fill-opacity:0.8;stroke:#a48cf4;stroke-opacity:0.8;" x="132.256925" xlink:href="#m0f751d3cbd" y="294.958335"/>
     <use style="fill:#a48cf4;fill-opacity:0.8;stroke:#a48cf4;stroke-opacity:0.8;" x="141.745511" xlink:href="#m0f751d3cbd" y="282.889583"/>
     <use style="fill:#a48cf4;fill-opacity:0.8;stroke:#a48cf4;stroke-opacity:0.8;" x="314.15435" xlink:href="#m0f751d3cbd" y="225.162611"/>
     <use style="fill:#a48cf4;fill-opacity:0.8;stroke:#a48cf4;stroke-opacity:0.8;" x="264.918613" xlink:href="#m0f751d3cbd" y="251.21163"/>
     <use style="fill:#a48cf4;fill-opacity:0.8;stroke:#a48cf4;stroke-opacity:0.8;" x="256.674805" xlink:href="#m0f751d3cbd" y="280.36966"/>
     <use style="fill:#a48cf4;fill-opacity:0.8;stroke:#a48cf4;stroke-opacity:0.8;" x="286.900114" xlink:href="#m0f751d3cbd" y="217.474466"/>
     <use style="fill:#a48cf4;fill-opacity:0.8;stroke:#a48cf4;stroke-opacity:0.8;" x="272.446273" xlink:href="#m0f751d3cbd" y="120.213221"/>
    </g>
   </g>
   <g id="PathCollection_11">
    <defs>
     <path d="M 0 3 
C 0.795609 3 1.55874 2.683901 2.12132 2.12132 
C 2.683901 1.55874 3 0.795609 3 0 
C 3 -0.795609 2.683901 -1.55874 2.12132 -2.12132 
C 1.55874 -2.683901 0.795609 -3 0 -3 
C -0.795609 -3 -1.55874 -2.683901 -2.12132 -2.12132 
C -2.683901 -1.55874 -3 -0.795609 -3 0 
C -3 0.795609 -2.683901 1.55874 -2.12132 2.12132 
C -1.55874 2.683901 -0.795609 3 0 3 
z
" id="mebc6b3c398" style="stroke:#e866f4;stroke-opacity:0.8;"/>
    </defs>
    <g clip-path="url(#p4a1543b0b3)">
     <use style="fill:#e866f4;fill-opacity:0.8;stroke:#e866f4;stroke-opacity:0.8;" x="159.580406" xlink:href="#mebc6b3c398" y="294.158709"/>
     <use style="fill:#e866f4;fill-opacity:0.8;stroke:#e866f4;stroke-opacity:0.8;" x="194.467413" xlink:href="#mebc6b3c398" y="271.729639"/>
     <use style="fill:#e866f4;fill-opacity:0.8;stroke:#e866f4;stroke-opacity:0.8;" x="209.588299" xlink:href="#mebc6b3c398" y="252.972734"/>
     <use style="fill:#e866f4;fill-opacity:0.8;stroke:#e866f4;stroke-opacity:0.8;" x="179.928484" xlink:href="#mebc6b3c398" y="291.134577"/>
     <use style="fill:#e866f4;fill-opacity:0.8;stroke:#e866f4;stroke-opacity:0.8;" x="230.9473" xlink:href="#mebc6b3c398" y="293.048962"/>
     <use style="fill:#e866f4;fill-opacity:0.8;stroke:#e866f4;stroke-opacity:0.8;" x="169.761522" xlink:href="#mebc6b3c398" y="289.356991"/>
    </g>
   </g>
   <g id="PathCollection_12">
    <defs>
     <path d="M 0 3 
C 0.795609 3 1.55874 2.683901 2.12132 2.12132 
C 2.683901 1.55874 3 0.795609 3 0 
C 3 -0.795609 2.683901 -1.55874 2.12132 -2.12132 
C 1.55874 -2.683901 0.795609 -3 0 -3 
C -0.795609 -3 -1.55874 -2.683901 -2.12132 -2.12132 
C -2.683901 -1.55874 -3 -0.795609 -3 0 
C -3 0.795609 -2.683901 1.55874 -2.12132 2.12132 
C -1.55874 2.683901 -0.795609 3 0 3 
z
" id="m9e7383e11c" style="stroke:#f668c2;stroke-opacity:0.8;"/>
    </defs>
    <g clip-path="url(#p4a1543b0b3)">
     <use style="fill:#f668c2;fill-opacity:0.8;stroke:#f668c2;stroke-opacity:0.8;" x="160.098996" xlink:href="#m9e7383e11c" y="298.442094"/>
     <use style="fill:#f668c2;fill-opacity:0.8;stroke:#f668c2;stroke-opacity:0.8;" x="155.971256" xlink:href="#m9e7383e11c" y="298.163922"/>
     <use style="fill:#f668c2;fill-opacity:0.8;stroke:#f668c2;stroke-opacity:0.8;" x="152.914528" xlink:href="#m9e7383e11c" y="298.347769"/>
     <use style="fill:#f668c2;fill-opacity:0.8;stroke:#f668c2;stroke-opacity:0.8;" x="159.138216" xlink:href="#m9e7383e11c" y="297.796657"/>
     <use style="fill:#f668c2;fill-opacity:0.8;stroke:#f668c2;stroke-opacity:0.8;" x="172.186626" xlink:href="#m9e7383e11c" y="297.844844"/>
     <use style="fill:#f668c2;fill-opacity:0.8;stroke:#f668c2;stroke-opacity:0.8;" x="159.38629" xlink:href="#m9e7383e11c" y="297.962635"/>
     <use style="fill:#f668c2;fill-opacity:0.8;stroke:#f668c2;stroke-opacity:0.8;" x="173.097137" xlink:href="#m9e7383e11c" y="298.256321"/>
    </g>
   </g>
   <g id="line2d_1">
    <path clip-path="url(#p4a1543b0b3)" d="M 207.559446 275.194126 
L 208.643128 274.710183 
L 209.726811 274.226241 
L 210.810493 273.742298 
L 211.894176 273.258356 
L 212.977858 272.774413 
L 214.061541 272.290471 
L 215.145223 271.806529 
L 216.228906 271.322586 
L 217.312588 270.838644 
L 218.396271 270.354701 
L 219.479953 269.870759 
L 220.563636 269.386816 
L 221.647318 268.902874 
L 222.731 268.418931 
L 223.814683 267.934989 
L 224.898365 267.451046 
L 225.982048 266.967104 
L 227.06573 266.483161 
L 228.149413 265.999219 
L 229.233095 265.515276 
L 230.316778 265.031334 
L 231.40046 264.547392 
L 232.484143 264.063449 
L 233.567825 263.579507 
L 234.651508 263.095564 
L 235.73519 262.611622 
L 236.818873 262.127679 
L 237.902555 261.643737 
L 238.986238 261.159794 
L 240.06992 260.675852 
L 241.153603 260.191909 
L 242.237285 259.707967 
L 243.320968 259.224024 
L 244.40465 258.740082 
L 245.488333 258.256139 
L 246.572015 257.772197 
L 247.655697 257.288255 
L 248.73938 256.804312 
L 249.823062 256.32037 
L 250.906745 255.836427 
L 251.990427 255.352485 
L 253.07411 254.868542 
L 254.157792 254.3846 
L 255.241475 253.900657 
L 256.325157 253.416715 
L 257.40884 252.932772 
L 258.492522 252.44883 
L 259.576205 251.964887 
L 260.659887 251.480945 
L 261.74357 250.997002 
L 262.827252 250.51306 
L 263.910935 250.029118 
L 264.994617 249.545175 
L 266.0783 249.061233 
L 267.161982 248.57729 
L 268.245665 248.093348 
L 269.329347 247.609405 
L 270.41303 247.125463 
L 271.496712 246.64152 
L 272.580394 246.157578 
L 273.664077 245.673635 
L 274.747759 245.189693 
L 275.831442 244.70575 
L 276.915124 244.221808 
L 277.998807 243.737866 
L 279.082489 243.253923 
L 280.166172 242.769981 
L 281.249854 242.286038 
L 282.333537 241.802096 
L 283.417219 241.318153 
L 284.500902 240.834211 
L 285.584584 240.350268 
L 286.668267 239.866326 
L 287.751949 239.382383 
L 288.835632 238.898441 
L 289.919314 238.414498 
L 291.002997 237.930556 
L 292.086679 237.446613 
L 293.170362 236.962671 
L 294.254044 236.478729 
L 295.337727 235.994786 
L 296.421409 235.510844 
L 297.505091 235.026901 
L 298.588774 234.542959 
L 299.672456 234.059016 
L 300.756139 233.575074 
L 301.839821 233.091131 
L 302.923504 232.607189 
L 304.007186 232.123246 
L 305.090869 231.639304 
L 306.174551 231.155361 
L 307.258234 230.671419 
L 308.341916 230.187476 
L 309.425599 229.703534 
L 310.509281 229.219592 
L 311.592964 228.735649 
L 312.676646 228.251707 
L 313.760329 227.767764 
L 314.844011 227.283822 
" style="fill:none;stroke:#f77189;stroke-linecap:round;stroke-width:2.25;"/>
   </g>
   <g id="line2d_2">
    <path clip-path="url(#p4a1543b0b3)" d="M 124.088329 298.571497 
L 124.939261 298.487908 
L 125.790193 298.40432 
L 126.641126 298.320731 
L 127.492058 298.237143 
L 128.34299 298.153554 
L 129.193922 298.069966 
L 130.044855 297.986377 
L 130.895787 297.902789 
L 131.746719 297.8192 
L 132.597651 297.735612 
L 133.448584 297.652023 
L 134.299516 297.568435 
L 135.150448 297.484846 
L 136.00138 297.401258 
L 136.852313 297.317669 
L 137.703245 297.234081 
L 138.554177 297.150492 
L 139.405109 297.066904 
L 140.256042 296.983315 
L 141.106974 296.899727 
L 141.957906 296.816138 
L 142.808838 296.73255 
L 143.659771 296.648961 
L 144.510703 296.565373 
L 145.361635 296.481784 
L 146.212567 296.398196 
L 147.0635 296.314607 
L 147.914432 296.231019 
L 148.765364 296.14743 
L 149.616297 296.063842 
L 150.467229 295.980253 
L 151.318161 295.896665 
L 152.169093 295.813076 
L 153.020026 295.729488 
L 153.870958 295.645899 
L 154.72189 295.562311 
L 155.572822 295.478722 
L 156.423755 295.395134 
L 157.274687 295.311545 
L 158.125619 295.227957 
L 158.976551 295.144368 
L 159.827484 295.06078 
L 160.678416 294.977191 
L 161.529348 294.893603 
L 162.38028 294.810014 
L 163.231213 294.726426 
L 164.082145 294.642837 
L 164.933077 294.559249 
L 165.784009 294.47566 
L 166.634942 294.392072 
L 167.485874 294.308483 
L 168.336806 294.224895 
L 169.187738 294.141306 
L 170.038671 294.057717 
L 170.889603 293.974129 
L 171.740535 293.89054 
L 172.591467 293.806952 
L 173.4424 293.723363 
L 174.293332 293.639775 
L 175.144264 293.556186 
L 175.995197 293.472598 
L 176.846129 293.389009 
L 177.697061 293.305421 
L 178.547993 293.221832 
L 179.398926 293.138244 
L 180.249858 293.054655 
L 181.10079 292.971067 
L 181.951722 292.887478 
L 182.802655 292.80389 
L 183.653587 292.720301 
L 184.504519 292.636713 
L 185.355451 292.553124 
L 186.206384 292.469536 
L 187.057316 292.385947 
L 187.908248 292.302359 
L 188.75918 292.21877 
L 189.610113 292.135182 
L 190.461045 292.051593 
L 191.311977 291.968005 
L 192.162909 291.884416 
L 193.013842 291.800828 
L 193.864774 291.717239 
L 194.715706 291.633651 
L 195.566638 291.550062 
L 196.417571 291.466474 
L 197.268503 291.382885 
L 198.119435 291.299297 
L 198.970367 291.215708 
L 199.8213 291.13212 
L 200.672232 291.048531 
L 201.523164 290.964943 
L 202.374097 290.881354 
L 203.225029 290.797766 
L 204.075961 290.714177 
L 204.926893 290.630589 
L 205.777826 290.547 
L 206.628758 290.463412 
L 207.47969 290.379823 
L 208.330622 290.296235 
" style="fill:none;stroke:#e68332;stroke-linecap:round;stroke-width:2.25;"/>
   </g>
   <g id="line2d_3">
    <path clip-path="url(#p4a1543b0b3)" d="M 226.607933 275.963207 
L 227.524682 273.460595 
L 228.441432 270.957982 
L 229.358181 268.455369 
L 230.274931 265.952756 
L 231.19168 263.450144 
L 232.108429 260.947531 
L 233.025179 258.444918 
L 233.941928 255.942305 
L 234.858678 253.439693 
L 235.775427 250.93708 
L 236.692176 248.434467 
L 237.608926 245.931854 
L 238.525675 243.429242 
L 239.442424 240.926629 
L 240.359174 238.424016 
L 241.275923 235.921403 
L 242.192673 233.418791 
L 243.109422 230.916178 
L 244.026171 228.413565 
L 244.942921 225.910952 
L 245.85967 223.40834 
L 246.77642 220.905727 
L 247.693169 218.403114 
L 248.609918 215.900501 
L 249.526668 213.397889 
L 250.443417 210.895276 
L 251.360166 208.392663 
L 252.276916 205.890051 
L 253.193665 203.387438 
L 254.110415 200.884825 
L 255.027164 198.382212 
L 255.943913 195.8796 
L 256.860663 193.376987 
L 257.777412 190.874374 
L 258.694162 188.371761 
L 259.610911 185.869149 
L 260.52766 183.366536 
L 261.44441 180.863923 
L 262.361159 178.36131 
L 263.277908 175.858698 
L 264.194658 173.356085 
L 265.111407 170.853472 
L 266.028157 168.350859 
L 266.944906 165.848247 
L 267.861655 163.345634 
L 268.778405 160.843021 
L 269.695154 158.340408 
L 270.611903 155.837796 
L 271.528653 153.335183 
L 272.445402 150.83257 
L 273.362152 148.329957 
L 274.278901 145.827345 
L 275.19565 143.324732 
L 276.1124 140.822119 
L 277.029149 138.319506 
L 277.945899 135.816894 
L 278.862648 133.314281 
L 279.779397 130.811668 
L 280.696147 128.309055 
L 281.612896 125.806443 
L 282.529645 123.30383 
L 283.446395 120.801217 
L 284.363144 118.298604 
L 285.279894 115.795992 
L 286.196643 113.293379 
L 287.113392 110.790766 
L 288.030142 108.288153 
L 288.946891 105.785541 
L 289.863641 103.282928 
L 290.78039 100.780315 
L 291.697139 98.277702 
L 292.613889 95.77509 
L 293.530638 93.272477 
L 294.447387 90.769864 
L 295.364137 88.267251 
L 296.280886 85.764639 
L 297.197636 83.262026 
L 298.114385 80.759413 
L 299.031134 78.2568 
L 299.947884 75.754188 
L 300.864633 73.251575 
L 301.781383 70.748962 
L 302.698132 68.246349 
L 303.614881 65.743737 
L 304.531631 63.241124 
L 305.44838 60.738511 
L 306.365129 58.235898 
L 307.281879 55.733286 
L 308.198628 53.230673 
L 309.115378 50.72806 
L 310.032127 48.225447 
L 310.948876 45.722835 
L 311.865626 43.220222 
L 312.782375 40.717609 
L 313.699124 38.214996 
L 314.615874 35.712384 
L 315.532623 33.209771 
L 316.449373 30.707158 
L 317.366122 28.204545 
" style="fill:none;stroke:#bb9832;stroke-linecap:round;stroke-width:2.25;"/>
   </g>
   <g id="line2d_4">
    <path clip-path="url(#p4a1543b0b3)" d="M 116.783814 306.295455 
L 119.006437 305.855672 
L 121.229059 305.415889 
L 123.451682 304.976106 
L 125.674305 304.536323 
L 127.896927 304.09654 
L 130.11955 303.656757 
L 132.342172 303.216975 
L 134.564795 302.777192 
L 136.787418 302.337409 
L 139.01004 301.897626 
L 141.232663 301.457843 
L 143.455286 301.01806 
L 145.677908 300.578277 
L 147.900531 300.138495 
L 150.123153 299.698712 
L 152.345776 299.258929 
L 154.568399 298.819146 
L 156.791021 298.379363 
L 159.013644 297.93958 
L 161.236267 297.499797 
L 163.458889 297.060015 
L 165.681512 296.620232 
L 167.904135 296.180449 
L 170.126757 295.740666 
L 172.34938 295.300883 
L 174.572002 294.8611 
L 176.794625 294.421318 
L 179.017248 293.981535 
L 181.23987 293.541752 
L 183.462493 293.101969 
L 185.685116 292.662186 
L 187.907738 292.222403 
L 190.130361 291.78262 
L 192.352983 291.342838 
L 194.575606 290.903055 
L 196.798229 290.463272 
L 199.020851 290.023489 
L 201.243474 289.583706 
L 203.466097 289.143923 
L 205.688719 288.70414 
L 207.911342 288.264358 
L 210.133964 287.824575 
L 212.356587 287.384792 
L 214.57921 286.945009 
L 216.801832 286.505226 
L 219.024455 286.065443 
L 221.247078 285.62566 
L 223.4697 285.185878 
L 225.692323 284.746095 
L 227.914946 284.306312 
L 230.137568 283.866529 
L 232.360191 283.426746 
L 234.582813 282.986963 
L 236.805436 282.547181 
L 239.028059 282.107398 
L 241.250681 281.667615 
L 243.473304 281.227832 
L 245.695927 280.788049 
L 247.918549 280.348266 
L 250.141172 279.908483 
L 252.363794 279.468701 
L 254.586417 279.028918 
L 256.80904 278.589135 
L 259.031662 278.149352 
L 261.254285 277.709569 
L 263.476908 277.269786 
L 265.69953 276.830003 
L 267.922153 276.390221 
L 270.144776 275.950438 
L 272.367398 275.510655 
L 274.590021 275.070872 
L 276.812643 274.631089 
L 279.035266 274.191306 
L 281.257889 273.751523 
L 283.480511 273.311741 
L 285.703134 272.871958 
L 287.925757 272.432175 
L 290.148379 271.992392 
L 292.371002 271.552609 
L 294.593624 271.112826 
L 296.816247 270.673044 
L 299.03887 270.233261 
L 301.261492 269.793478 
L 303.484115 269.353695 
L 305.706738 268.913912 
L 307.92936 268.474129 
L 310.151983 268.034346 
L 312.374605 267.594564 
L 314.597228 267.154781 
L 316.819851 266.714998 
L 319.042473 266.275215 
L 321.265096 265.835432 
L 323.487719 265.395649 
L 325.710341 264.955866 
L 327.932964 264.516084 
L 330.155587 264.076301 
L 332.378209 263.636518 
L 334.600832 263.196735 
L 336.823454 262.756952 
" style="fill:none;stroke:#97a431;stroke-linecap:round;stroke-width:2.25;"/>
   </g>
   <g id="line2d_5">
    <path clip-path="url(#p4a1543b0b3)" d="M 201.594209 287.436424 
L 202.662301 287.473083 
L 203.730392 287.509743 
L 204.798483 287.546402 
L 205.866575 287.583061 
L 206.934666 287.61972 
L 208.002757 287.656379 
L 209.070849 287.693038 
L 210.13894 287.729698 
L 211.207031 287.766357 
L 212.275123 287.803016 
L 213.343214 287.839675 
L 214.411305 287.876334 
L 215.479397 287.912993 
L 216.547488 287.949652 
L 217.615579 287.986312 
L 218.683671 288.022971 
L 219.751762 288.05963 
L 220.819853 288.096289 
L 221.887945 288.132948 
L 222.956036 288.169607 
L 224.024127 288.206267 
L 225.092219 288.242926 
L 226.16031 288.279585 
L 227.228401 288.316244 
L 228.296493 288.352903 
L 229.364584 288.389562 
L 230.432675 288.426221 
L 231.500767 288.462881 
L 232.568858 288.49954 
L 233.636949 288.536199 
L 234.705041 288.572858 
L 235.773132 288.609517 
L 236.841223 288.646176 
L 237.909315 288.682835 
L 238.977406 288.719495 
L 240.045497 288.756154 
L 241.113589 288.792813 
L 242.18168 288.829472 
L 243.249771 288.866131 
L 244.317863 288.90279 
L 245.385954 288.93945 
L 246.454045 288.976109 
L 247.522137 289.012768 
L 248.590228 289.049427 
L 249.658319 289.086086 
L 250.726411 289.122745 
L 251.794502 289.159404 
L 252.862593 289.196064 
L 253.930685 289.232723 
L 254.998776 289.269382 
L 256.066867 289.306041 
L 257.134959 289.3427 
L 258.20305 289.379359 
L 259.271141 289.416019 
L 260.339233 289.452678 
L 261.407324 289.489337 
L 262.475415 289.525996 
L 263.543507 289.562655 
L 264.611598 289.599314 
L 265.679689 289.635973 
L 266.747781 289.672633 
L 267.815872 289.709292 
L 268.883963 289.745951 
L 269.952055 289.78261 
L 271.020146 289.819269 
L 272.088237 289.855928 
L 273.156329 289.892588 
L 274.22442 289.929247 
L 275.292511 289.965906 
L 276.360603 290.002565 
L 277.428694 290.039224 
L 278.496785 290.075883 
L 279.564877 290.112542 
L 280.632968 290.149202 
L 281.701059 290.185861 
L 282.769151 290.22252 
L 283.837242 290.259179 
L 284.905333 290.295838 
L 285.973425 290.332497 
L 287.041516 290.369157 
L 288.109607 290.405816 
L 289.177699 290.442475 
L 290.24579 290.479134 
L 291.313881 290.515793 
L 292.381973 290.552452 
L 293.450064 290.589111 
L 294.518155 290.625771 
L 295.586247 290.66243 
L 296.654338 290.699089 
L 297.722429 290.735748 
L 298.790521 290.772407 
L 299.858612 290.809066 
L 300.926703 290.845725 
L 301.994795 290.882385 
L 303.062886 290.919044 
L 304.130977 290.955703 
L 305.199069 290.992362 
L 306.26716 291.029021 
L 307.335251 291.06568 
" style="fill:none;stroke:#50b131;stroke-linecap:round;stroke-width:2.25;"/>
   </g>
   <g id="line2d_6">
    <path clip-path="url(#p4a1543b0b3)" d="M 172.360332 242.087485 
L 173.150731 241.791815 
L 173.941129 241.496145 
L 174.731528 241.200475 
L 175.521927 240.904806 
L 176.312325 240.609136 
L 177.102724 240.313466 
L 177.893123 240.017796 
L 178.683521 239.722126 
L 179.47392 239.426456 
L 180.264319 239.130786 
L 181.054717 238.835116 
L 181.845116 238.539446 
L 182.635515 238.243776 
L 183.425913 237.948106 
L 184.216312 237.652437 
L 185.006711 237.356767 
L 185.797109 237.061097 
L 186.587508 236.765427 
L 187.377907 236.469757 
L 188.168305 236.174087 
L 188.958704 235.878417 
L 189.749103 235.582747 
L 190.539501 235.287077 
L 191.3299 234.991407 
L 192.120299 234.695738 
L 192.910698 234.400068 
L 193.701096 234.104398 
L 194.491495 233.808728 
L 195.281894 233.513058 
L 196.072292 233.217388 
L 196.862691 232.921718 
L 197.65309 232.626048 
L 198.443488 232.330378 
L 199.233887 232.034708 
L 200.024286 231.739039 
L 200.814684 231.443369 
L 201.605083 231.147699 
L 202.395482 230.852029 
L 203.18588 230.556359 
L 203.976279 230.260689 
L 204.766678 229.965019 
L 205.557076 229.669349 
L 206.347475 229.373679 
L 207.137874 229.078009 
L 207.928272 228.78234 
L 208.718671 228.48667 
L 209.50907 228.191 
L 210.299468 227.89533 
L 211.089867 227.59966 
L 211.880266 227.30399 
L 212.670665 227.00832 
L 213.461063 226.71265 
L 214.251462 226.41698 
L 215.041861 226.12131 
L 215.832259 225.825641 
L 216.622658 225.529971 
L 217.413057 225.234301 
L 218.203455 224.938631 
L 218.993854 224.642961 
L 219.784253 224.347291 
L 220.574651 224.051621 
L 221.36505 223.755951 
L 222.155449 223.460281 
L 222.945847 223.164611 
L 223.736246 222.868942 
L 224.526645 222.573272 
L 225.317043 222.277602 
L 226.107442 221.981932 
L 226.897841 221.686262 
L 227.688239 221.390592 
L 228.478638 221.094922 
L 229.269037 220.799252 
L 230.059435 220.503582 
L 230.849834 220.207912 
L 231.640233 219.912243 
L 232.430632 219.616573 
L 233.22103 219.320903 
L 234.011429 219.025233 
L 234.801828 218.729563 
L 235.592226 218.433893 
L 236.382625 218.138223 
L 237.173024 217.842553 
L 237.963422 217.546883 
L 238.753821 217.251213 
L 239.54422 216.955544 
L 240.334618 216.659874 
L 241.125017 216.364204 
L 241.915416 216.068534 
L 242.705814 215.772864 
L 243.496213 215.477194 
L 244.286612 215.181524 
L 245.07701 214.885854 
L 245.867409 214.590184 
L 246.657808 214.294514 
L 247.448206 213.998845 
L 248.238605 213.703175 
L 249.029004 213.407505 
L 249.819402 213.111835 
L 250.609801 212.816165 
" style="fill:none;stroke:#34af84;stroke-linecap:round;stroke-width:2.25;"/>
   </g>
   <g id="line2d_7">
    <path clip-path="url(#p4a1543b0b3)" d="M 201.828204 252.665448 
L 202.90525 252.275405 
L 203.982296 251.885363 
L 205.059342 251.49532 
L 206.136389 251.105278 
L 207.213435 250.715235 
L 208.290481 250.325193 
L 209.367527 249.93515 
L 210.444574 249.545108 
L 211.52162 249.155065 
L 212.598666 248.765022 
L 213.675712 248.37498 
L 214.752759 247.984937 
L 215.829805 247.594895 
L 216.906851 247.204852 
L 217.983897 246.81481 
L 219.060943 246.424767 
L 220.13799 246.034725 
L 221.215036 245.644682 
L 222.292082 245.25464 
L 223.369128 244.864597 
L 224.446175 244.474555 
L 225.523221 244.084512 
L 226.600267 243.69447 
L 227.677313 243.304427 
L 228.754359 242.914385 
L 229.831406 242.524342 
L 230.908452 242.134299 
L 231.985498 241.744257 
L 233.062544 241.354214 
L 234.139591 240.964172 
L 235.216637 240.574129 
L 236.293683 240.184087 
L 237.370729 239.794044 
L 238.447776 239.404002 
L 239.524822 239.013959 
L 240.601868 238.623917 
L 241.678914 238.233874 
L 242.75596 237.843832 
L 243.833007 237.453789 
L 244.910053 237.063747 
L 245.987099 236.673704 
L 247.064145 236.283662 
L 248.141192 235.893619 
L 249.218238 235.503576 
L 250.295284 235.113534 
L 251.37233 234.723491 
L 252.449377 234.333449 
L 253.526423 233.943406 
L 254.603469 233.553364 
L 255.680515 233.163321 
L 256.757561 232.773279 
L 257.834608 232.383236 
L 258.911654 231.993194 
L 259.9887 231.603151 
L 261.065746 231.213109 
L 262.142793 230.823066 
L 263.219839 230.433024 
L 264.296885 230.042981 
L 265.373931 229.652939 
L 266.450978 229.262896 
L 267.528024 228.872853 
L 268.60507 228.482811 
L 269.682116 228.092768 
L 270.759162 227.702726 
L 271.836209 227.312683 
L 272.913255 226.922641 
L 273.990301 226.532598 
L 275.067347 226.142556 
L 276.144394 225.752513 
L 277.22144 225.362471 
L 278.298486 224.972428 
L 279.375532 224.582386 
L 280.452578 224.192343 
L 281.529625 223.802301 
L 282.606671 223.412258 
L 283.683717 223.022216 
L 284.760763 222.632173 
L 285.83781 222.24213 
L 286.914856 221.852088 
L 287.991902 221.462045 
L 289.068948 221.072003 
L 290.145995 220.68196 
L 291.223041 220.291918 
L 292.300087 219.901875 
L 293.377133 219.511833 
L 294.454179 219.12179 
L 295.531226 218.731748 
L 296.608272 218.341705 
L 297.685318 217.951663 
L 298.762364 217.56162 
L 299.839411 217.171578 
L 300.916457 216.781535 
L 301.993503 216.391493 
L 303.070549 216.00145 
L 304.147596 215.611407 
L 305.224642 215.221365 
L 306.301688 214.831322 
L 307.378734 214.44128 
L 308.45578 214.051237 
" style="fill:none;stroke:#36ada4;stroke-linecap:round;stroke-width:2.25;"/>
   </g>
   <g id="line2d_8">
    <path clip-path="url(#p4a1543b0b3)" d="M 87.008924 180.016145 
L 88.500503 180.61187 
L 89.992081 181.207596 
L 91.48366 181.803322 
L 92.975239 182.399048 
L 94.466817 182.994774 
L 95.958396 183.5905 
L 97.449975 184.186226 
L 98.941553 184.781952 
L 100.433132 185.377678 
L 101.92471 185.973404 
L 103.416289 186.56913 
L 104.907868 187.164856 
L 106.399446 187.760582 
L 107.891025 188.356308 
L 109.382604 188.952033 
L 110.874182 189.547759 
L 112.365761 190.143485 
L 113.85734 190.739211 
L 115.348918 191.334937 
L 116.840497 191.930663 
L 118.332076 192.526389 
L 119.823654 193.122115 
L 121.315233 193.717841 
L 122.806811 194.313567 
L 124.29839 194.909293 
L 125.789969 195.505019 
L 127.281547 196.100745 
L 128.773126 196.69647 
L 130.264705 197.292196 
L 131.756283 197.887922 
L 133.247862 198.483648 
L 134.739441 199.079374 
L 136.231019 199.6751 
L 137.722598 200.270826 
L 139.214176 200.866552 
L 140.705755 201.462278 
L 142.197334 202.058004 
L 143.688912 202.65373 
L 145.180491 203.249456 
L 146.67207 203.845182 
L 148.163648 204.440908 
L 149.655227 205.036633 
L 151.146806 205.632359 
L 152.638384 206.228085 
L 154.129963 206.823811 
L 155.621541 207.419537 
L 157.11312 208.015263 
L 158.604699 208.610989 
L 160.096277 209.206715 
L 161.587856 209.802441 
L 163.079435 210.398167 
L 164.571013 210.993893 
L 166.062592 211.589619 
L 167.554171 212.185345 
L 169.045749 212.78107 
L 170.537328 213.376796 
L 172.028907 213.972522 
L 173.520485 214.568248 
L 175.012064 215.163974 
L 176.503642 215.7597 
L 177.995221 216.355426 
L 179.4868 216.951152 
L 180.978378 217.546878 
L 182.469957 218.142604 
L 183.961536 218.73833 
L 185.453114 219.334056 
L 186.944693 219.929782 
L 188.436272 220.525508 
L 189.92785 221.121233 
L 191.419429 221.716959 
L 192.911007 222.312685 
L 194.402586 222.908411 
L 195.894165 223.504137 
L 197.385743 224.099863 
L 198.877322 224.695589 
L 200.368901 225.291315 
L 201.860479 225.887041 
L 203.352058 226.482767 
L 204.843637 227.078493 
L 206.335215 227.674219 
L 207.826794 228.269945 
L 209.318373 228.86567 
L 210.809951 229.461396 
L 212.30153 230.057122 
L 213.793108 230.652848 
L 215.284687 231.248574 
L 216.776266 231.8443 
L 218.267844 232.440026 
L 219.759423 233.035752 
L 221.251002 233.631478 
L 222.74258 234.227204 
L 224.234159 234.82293 
L 225.725738 235.418656 
L 227.217316 236.014382 
L 228.708895 236.610107 
L 230.200473 237.205833 
L 231.692052 237.801559 
L 233.183631 238.397285 
L 234.675209 238.993011 
" style="fill:none;stroke:#38aabf;stroke-linecap:round;stroke-width:2.25;"/>
   </g>
   <g id="line2d_9">
    <path clip-path="url(#p4a1543b0b3)" d="M 160.555305 301.090921 
L 161.478917 300.680831 
L 162.40253 300.270742 
L 163.326142 299.860652 
L 164.249754 299.450562 
L 165.173367 299.040472 
L 166.096979 298.630382 
L 167.020591 298.220292 
L 167.944204 297.810202 
L 168.867816 297.400113 
L 169.791428 296.990023 
L 170.715041 296.579933 
L 171.638653 296.169843 
L 172.562265 295.759753 
L 173.485878 295.349663 
L 174.40949 294.939573 
L 175.333102 294.529484 
L 176.256715 294.119394 
L 177.180327 293.709304 
L 178.103939 293.299214 
L 179.027551 292.889124 
L 179.951164 292.479034 
L 180.874776 292.068944 
L 181.798388 291.658855 
L 182.722001 291.248765 
L 183.645613 290.838675 
L 184.569225 290.428585 
L 185.492838 290.018495 
L 186.41645 289.608405 
L 187.340062 289.198315 
L 188.263675 288.788226 
L 189.187287 288.378136 
L 190.110899 287.968046 
L 191.034512 287.557956 
L 191.958124 287.147866 
L 192.881736 286.737776 
L 193.805349 286.327686 
L 194.728961 285.917597 
L 195.652573 285.507507 
L 196.576186 285.097417 
L 197.499798 284.687327 
L 198.42341 284.277237 
L 199.347023 283.867147 
L 200.270635 283.457057 
L 201.194247 283.046968 
L 202.11786 282.636878 
L 203.041472 282.226788 
L 203.965084 281.816698 
L 204.888697 281.406608 
L 205.812309 280.996518 
L 206.735921 280.586428 
L 207.659533 280.176339 
L 208.583146 279.766249 
L 209.506758 279.356159 
L 210.43037 278.946069 
L 211.353983 278.535979 
L 212.277595 278.125889 
L 213.201207 277.715799 
L 214.12482 277.30571 
L 215.048432 276.89562 
L 215.972044 276.48553 
L 216.895657 276.07544 
L 217.819269 275.66535 
L 218.742881 275.25526 
L 219.666494 274.84517 
L 220.590106 274.435081 
L 221.513718 274.024991 
L 222.437331 273.614901 
L 223.360943 273.204811 
L 224.284555 272.794721 
L 225.208168 272.384631 
L 226.13178 271.974541 
L 227.055392 271.564452 
L 227.979005 271.154362 
L 228.902617 270.744272 
L 229.826229 270.334182 
L 230.749842 269.924092 
L 231.673454 269.514002 
L 232.597066 269.103912 
L 233.520679 268.693823 
L 234.444291 268.283733 
L 235.367903 267.873643 
L 236.291515 267.463553 
L 237.215128 267.053463 
L 238.13874 266.643373 
L 239.062352 266.233283 
L 239.985965 265.823194 
L 240.909577 265.413104 
L 241.833189 265.003014 
L 242.756802 264.592924 
L 243.680414 264.182834 
L 244.604026 263.772744 
L 245.527639 263.362654 
L 246.451251 262.952565 
L 247.374863 262.542475 
L 248.298476 262.132385 
L 249.222088 261.722295 
L 250.1457 261.312205 
L 251.069313 260.902115 
L 251.992925 260.492025 
" style="fill:none;stroke:#3ba3ec;stroke-linecap:round;stroke-width:2.25;"/>
   </g>
   <g id="line2d_10">
    <path clip-path="url(#p4a1543b0b3)" d="M 132.256925 291.269503 
L 134.094273 290.363292 
L 135.93162 289.457082 
L 137.768968 288.550871 
L 139.606316 287.644661 
L 141.443664 286.73845 
L 143.281011 285.83224 
L 145.118359 284.926029 
L 146.955707 284.019819 
L 148.793054 283.113608 
L 150.630402 282.207398 
L 152.46775 281.301187 
L 154.305098 280.394977 
L 156.142445 279.488766 
L 157.979793 278.582556 
L 159.817141 277.676345 
L 161.654489 276.770135 
L 163.491836 275.863924 
L 165.329184 274.957714 
L 167.166532 274.051503 
L 169.003879 273.145293 
L 170.841227 272.239082 
L 172.678575 271.332872 
L 174.515923 270.426661 
L 176.35327 269.520451 
L 178.190618 268.61424 
L 180.027966 267.708029 
L 181.865314 266.801819 
L 183.702661 265.895608 
L 185.540009 264.989398 
L 187.377357 264.083187 
L 189.214704 263.176977 
L 191.052052 262.270766 
L 192.8894 261.364556 
L 194.726748 260.458345 
L 196.564095 259.552135 
L 198.401443 258.645924 
L 200.238791 257.739714 
L 202.076139 256.833503 
L 203.913486 255.927293 
L 205.750834 255.021082 
L 207.588182 254.114872 
L 209.42553 253.208661 
L 211.262877 252.302451 
L 213.100225 251.39624 
L 214.937573 250.49003 
L 216.77492 249.583819 
L 218.612268 248.677609 
L 220.449616 247.771398 
L 222.286964 246.865188 
L 224.124311 245.958977 
L 225.961659 245.052767 
L 227.799007 244.146556 
L 229.636355 243.240346 
L 231.473702 242.334135 
L 233.31105 241.427925 
L 235.148398 240.521714 
L 236.985745 239.615504 
L 238.823093 238.709293 
L 240.660441 237.803083 
L 242.497789 236.896872 
L 244.335136 235.990662 
L 246.172484 235.084451 
L 248.009832 234.178241 
L 249.84718 233.27203 
L 251.684527 232.36582 
L 253.521875 231.459609 
L 255.359223 230.553399 
L 257.19657 229.647188 
L 259.033918 228.740978 
L 260.871266 227.834767 
L 262.708614 226.928557 
L 264.545961 226.022346 
L 266.383309 225.116136 
L 268.220657 224.209925 
L 270.058005 223.303715 
L 271.895352 222.397504 
L 273.7327 221.491294 
L 275.570048 220.585083 
L 277.407395 219.678873 
L 279.244743 218.772662 
L 281.082091 217.866452 
L 282.919439 216.960241 
L 284.756786 216.054031 
L 286.594134 215.14782 
L 288.431482 214.24161 
L 290.26883 213.335399 
L 292.106177 212.429189 
L 293.943525 211.522978 
L 295.780873 210.616768 
L 297.618221 209.710557 
L 299.455568 208.804346 
L 301.292916 207.898136 
L 303.130264 206.991925 
L 304.967611 206.085715 
L 306.804959 205.179504 
L 308.642307 204.273294 
L 310.479655 203.367083 
L 312.317002 202.460873 
L 314.15435 201.554662 
" style="fill:none;stroke:#a48cf4;stroke-linecap:round;stroke-width:2.25;"/>
   </g>
   <g id="line2d_11">
    <path clip-path="url(#p4a1543b0b3)" d="M 159.580406 288.916685 
L 160.301283 288.758075 
L 161.022161 288.599464 
L 161.743039 288.440854 
L 162.463916 288.282244 
L 163.184794 288.123633 
L 163.905672 287.965023 
L 164.62655 287.806412 
L 165.347427 287.647802 
L 166.068305 287.489192 
L 166.789183 287.330581 
L 167.51006 287.171971 
L 168.230938 287.01336 
L 168.951816 286.85475 
L 169.672694 286.69614 
L 170.393571 286.537529 
L 171.114449 286.378919 
L 171.835327 286.220308 
L 172.556205 286.061698 
L 173.277082 285.903088 
L 173.99796 285.744477 
L 174.718838 285.585867 
L 175.439715 285.427257 
L 176.160593 285.268646 
L 176.881471 285.110036 
L 177.602349 284.951425 
L 178.323226 284.792815 
L 179.044104 284.634205 
L 179.764982 284.475594 
L 180.48586 284.316984 
L 181.206737 284.158373 
L 181.927615 283.999763 
L 182.648493 283.841153 
L 183.36937 283.682542 
L 184.090248 283.523932 
L 184.811126 283.365321 
L 185.532004 283.206711 
L 186.252881 283.048101 
L 186.973759 282.88949 
L 187.694637 282.73088 
L 188.415514 282.572269 
L 189.136392 282.413659 
L 189.85727 282.255049 
L 190.578148 282.096438 
L 191.299025 281.937828 
L 192.019903 281.779218 
L 192.740781 281.620607 
L 193.461659 281.461997 
L 194.182536 281.303386 
L 194.903414 281.144776 
L 195.624292 280.986166 
L 196.345169 280.827555 
L 197.066047 280.668945 
L 197.786925 280.510334 
L 198.507803 280.351724 
L 199.22868 280.193114 
L 199.949558 280.034503 
L 200.670436 279.875893 
L 201.391313 279.717282 
L 202.112191 279.558672 
L 202.833069 279.400062 
L 203.553947 279.241451 
L 204.274824 279.082841 
L 204.995702 278.92423 
L 205.71658 278.76562 
L 206.437458 278.60701 
L 207.158335 278.448399 
L 207.879213 278.289789 
L 208.600091 278.131178 
L 209.320968 277.972568 
L 210.041846 277.813958 
L 210.762724 277.655347 
L 211.483602 277.496737 
L 212.204479 277.338127 
L 212.925357 277.179516 
L 213.646235 277.020906 
L 214.367113 276.862295 
L 215.08799 276.703685 
L 215.808868 276.545075 
L 216.529746 276.386464 
L 217.250623 276.227854 
L 217.971501 276.069243 
L 218.692379 275.910633 
L 219.413257 275.752023 
L 220.134134 275.593412 
L 220.855012 275.434802 
L 221.57589 275.276191 
L 222.296767 275.117581 
L 223.017645 274.958971 
L 223.738523 274.80036 
L 224.459401 274.64175 
L 225.180278 274.483139 
L 225.901156 274.324529 
L 226.622034 274.165919 
L 227.342912 274.007308 
L 228.063789 273.848698 
L 228.784667 273.690087 
L 229.505545 273.531477 
L 230.226422 273.372867 
L 230.9473 273.214256 
" style="fill:none;stroke:#e866f4;stroke-linecap:round;stroke-width:2.25;"/>
   </g>
   <g id="line2d_12">
    <path clip-path="url(#p4a1543b0b3)" d="M 152.914528 298.187394 
L 153.118393 298.185768 
L 153.322257 298.184142 
L 153.526122 298.182517 
L 153.729987 298.180891 
L 153.933852 298.179266 
L 154.137716 298.17764 
L 154.341581 298.176014 
L 154.545446 298.174389 
L 154.749311 298.172763 
L 154.953175 298.171137 
L 155.15704 298.169512 
L 155.360905 298.167886 
L 155.564769 298.16626 
L 155.768634 298.164635 
L 155.972499 298.163009 
L 156.176364 298.161384 
L 156.380228 298.159758 
L 156.584093 298.158132 
L 156.787958 298.156507 
L 156.991823 298.154881 
L 157.195687 298.153255 
L 157.399552 298.15163 
L 157.603417 298.150004 
L 157.807282 298.148378 
L 158.011146 298.146753 
L 158.215011 298.145127 
L 158.418876 298.143502 
L 158.622741 298.141876 
L 158.826605 298.14025 
L 159.03047 298.138625 
L 159.234335 298.136999 
L 159.4382 298.135373 
L 159.642064 298.133748 
L 159.845929 298.132122 
L 160.049794 298.130496 
L 160.253659 298.128871 
L 160.457523 298.127245 
L 160.661388 298.12562 
L 160.865253 298.123994 
L 161.069118 298.122368 
L 161.272982 298.120743 
L 161.476847 298.119117 
L 161.680712 298.117491 
L 161.884577 298.115866 
L 162.088441 298.11424 
L 162.292306 298.112614 
L 162.496171 298.110989 
L 162.700036 298.109363 
L 162.9039 298.107738 
L 163.107765 298.106112 
L 163.31163 298.104486 
L 163.515494 298.102861 
L 163.719359 298.101235 
L 163.923224 298.099609 
L 164.127089 298.097984 
L 164.330953 298.096358 
L 164.534818 298.094733 
L 164.738683 298.093107 
L 164.942548 298.091481 
L 165.146412 298.089856 
L 165.350277 298.08823 
L 165.554142 298.086604 
L 165.758007 298.084979 
L 165.961871 298.083353 
L 166.165736 298.081727 
L 166.369601 298.080102 
L 166.573466 298.078476 
L 166.77733 298.076851 
L 166.981195 298.075225 
L 167.18506 298.073599 
L 167.388925 298.071974 
L 167.592789 298.070348 
L 167.796654 298.068722 
L 168.000519 298.067097 
L 168.204384 298.065471 
L 168.408248 298.063845 
L 168.612113 298.06222 
L 168.815978 298.060594 
L 169.019843 298.058969 
L 169.223707 298.057343 
L 169.427572 298.055717 
L 169.631437 298.054092 
L 169.835302 298.052466 
L 170.039166 298.05084 
L 170.243031 298.049215 
L 170.446896 298.047589 
L 170.650761 298.045963 
L 170.854625 298.044338 
L 171.05849 298.042712 
L 171.262355 298.041087 
L 171.466219 298.039461 
L 171.670084 298.037835 
L 171.873949 298.03621 
L 172.077814 298.034584 
L 172.281678 298.032958 
L 172.485543 298.031333 
L 172.689408 298.029707 
L 172.893273 298.028081 
L 173.097137 298.026456 
" style="fill:none;stroke:#f668c2;stroke-linecap:round;stroke-width:2.25;"/>
   </g>
   <g id="patch_3">
    <path d="M 68.213628 320.2 
L 68.213628 14.3 
" style="fill:none;stroke:#262626;stroke-linecap:square;stroke-linejoin:miter;stroke-width:0.8;"/>
   </g>
   <g id="patch_4">
    <path d="M 68.213628 320.2 
L 355.61875 320.2 
" style="fill:none;stroke:#262626;stroke-linecap:square;stroke-linejoin:miter;stroke-width:0.8;"/>
   </g>
   <g id="text_16">
    <!-- r=0.35, p=0.00045 -->
    <defs>
     <path d="M 52.828125 42.09375 
L 5.5625 42.09375 
L 5.5625 50.296875 
L 52.828125 50.296875 
z
M 52.828125 20.359375 
L 5.5625 20.359375 
L 5.5625 28.5625 
L 52.828125 28.5625 
z
" id="ArialMT-61"/>
     <path d="M 8.890625 0 
L 8.890625 10.015625 
L 18.890625 10.015625 
L 18.890625 0 
Q 18.890625 -5.515625 16.9375 -8.90625 
Q 14.984375 -12.3125 10.75 -14.15625 
L 8.296875 -10.40625 
Q 11.078125 -9.1875 12.390625 -6.8125 
Q 13.71875 -4.4375 13.875 0 
z
" id="ArialMT-44"/>
     <path d="M 6.59375 -19.875 
L 6.59375 51.859375 
L 14.59375 51.859375 
L 14.59375 45.125 
Q 17.4375 49.078125 21 51.046875 
Q 24.5625 53.03125 29.640625 53.03125 
Q 36.28125 53.03125 41.359375 49.609375 
Q 46.4375 46.1875 49.015625 39.953125 
Q 51.609375 33.734375 51.609375 26.3125 
Q 51.609375 18.359375 48.75 11.984375 
Q 45.90625 5.609375 40.453125 2.21875 
Q 35.015625 -1.171875 29 -1.171875 
Q 24.609375 -1.171875 21.109375 0.6875 
Q 17.625 2.546875 15.375 5.375 
L 15.375 -19.875 
z
M 14.546875 25.640625 
Q 14.546875 15.625 18.59375 10.84375 
Q 22.65625 6.0625 28.421875 6.0625 
Q 34.28125 6.0625 38.453125 11.015625 
Q 42.625 15.96875 42.625 26.375 
Q 42.625 36.28125 38.546875 41.203125 
Q 34.46875 46.140625 28.8125 46.140625 
Q 23.1875 46.140625 18.859375 40.890625 
Q 14.546875 35.640625 14.546875 25.640625 
z
" id="ArialMT-112"/>
    </defs>
    <g style="fill:#262626;" transform="translate(141.970629 62.082984)scale(0.15 -0.15)">
     <use xlink:href="#ArialMT-114"/>
     <use x="33.300781" xlink:href="#ArialMT-61"/>
     <use x="91.699219" xlink:href="#ArialMT-48"/>
     <use x="147.314453" xlink:href="#ArialMT-46"/>
     <use x="175.097656" xlink:href="#ArialMT-51"/>
     <use x="230.712891" xlink:href="#ArialMT-53"/>
     <use x="286.328125" xlink:href="#ArialMT-44"/>
     <use x="314.111328" xlink:href="#ArialMT-32"/>
     <use x="341.894531" xlink:href="#ArialMT-112"/>
     <use x="397.509766" xlink:href="#ArialMT-61"/>
     <use x="455.908203" xlink:href="#ArialMT-48"/>
     <use x="511.523438" xlink:href="#ArialMT-46"/>
     <use x="539.306641" xlink:href="#ArialMT-48"/>
     <use x="594.921875" xlink:href="#ArialMT-48"/>
     <use x="650.537109" xlink:href="#ArialMT-48"/>
     <use x="706.152344" xlink:href="#ArialMT-52"/>
     <use x="761.767578" xlink:href="#ArialMT-53"/>
    </g>
   </g>
  </g>
  <g id="legend_1">
   <g id="text_17">
    <!-- host_subject_id -->
    <defs>
     <path d="M -1.515625 -19.875 
L -1.515625 -13.53125 
L 56.734375 -13.53125 
L 56.734375 -19.875 
z
" id="ArialMT-95"/>
     <path d="M 40.578125 0 
L 40.578125 7.625 
Q 34.515625 -1.171875 24.125 -1.171875 
Q 19.53125 -1.171875 15.546875 0.578125 
Q 11.578125 2.34375 9.640625 5 
Q 7.71875 7.671875 6.9375 11.53125 
Q 6.390625 14.109375 6.390625 19.734375 
L 6.390625 51.859375 
L 15.1875 51.859375 
L 15.1875 23.09375 
Q 15.1875 16.21875 15.71875 13.8125 
Q 16.546875 10.359375 19.234375 8.375 
Q 21.921875 6.390625 25.875 6.390625 
Q 29.828125 6.390625 33.296875 8.421875 
Q 36.765625 10.453125 38.203125 13.9375 
Q 39.65625 17.4375 39.65625 24.078125 
L 39.65625 51.859375 
L 48.4375 51.859375 
L 48.4375 0 
z
" id="ArialMT-117"/>
     <path d="M 14.703125 0 
L 6.546875 0 
L 6.546875 71.578125 
L 15.328125 71.578125 
L 15.328125 46.046875 
Q 20.90625 53.03125 29.546875 53.03125 
Q 34.328125 53.03125 38.59375 51.09375 
Q 42.875 49.171875 45.625 45.671875 
Q 48.390625 42.1875 49.953125 37.25 
Q 51.515625 32.328125 51.515625 26.703125 
Q 51.515625 13.375 44.921875 6.09375 
Q 38.328125 -1.171875 29.109375 -1.171875 
Q 19.921875 -1.171875 14.703125 6.5 
z
M 14.59375 26.3125 
Q 14.59375 17 17.140625 12.84375 
Q 21.296875 6.0625 28.375 6.0625 
Q 34.125 6.0625 38.328125 11.0625 
Q 42.53125 16.0625 42.53125 25.984375 
Q 42.53125 36.140625 38.5 40.96875 
Q 34.46875 45.796875 28.765625 45.796875 
Q 23 45.796875 18.796875 40.796875 
Q 14.59375 35.796875 14.59375 26.3125 
z
" id="ArialMT-98"/>
     <path d="M 6.546875 61.375 
L 6.546875 71.578125 
L 15.328125 71.578125 
L 15.328125 61.375 
z
M -4.59375 -20.125 
L -2.9375 -12.640625 
Q -0.296875 -13.328125 1.21875 -13.328125 
Q 3.90625 -13.328125 5.21875 -11.546875 
Q 6.546875 -9.765625 6.546875 -2.640625 
L 6.546875 51.859375 
L 15.328125 51.859375 
L 15.328125 -2.828125 
Q 15.328125 -12.40625 12.84375 -16.15625 
Q 9.671875 -21.046875 2.296875 -21.046875 
Q -1.265625 -21.046875 -4.59375 -20.125 
z
" id="ArialMT-106"/>
    </defs>
    <g style="fill:#262626;" transform="translate(359.6375 97.654688)scale(0.1 -0.1)">
     <use xlink:href="#ArialMT-104"/>
     <use x="55.615234" xlink:href="#ArialMT-111"/>
     <use x="111.230469" xlink:href="#ArialMT-115"/>
     <use x="161.230469" xlink:href="#ArialMT-116"/>
     <use x="189.013672" xlink:href="#ArialMT-95"/>
     <use x="244.628906" xlink:href="#ArialMT-115"/>
     <use x="294.628906" xlink:href="#ArialMT-117"/>
     <use x="350.244141" xlink:href="#ArialMT-98"/>
     <use x="405.859375" xlink:href="#ArialMT-106"/>
     <use x="428.076172" xlink:href="#ArialMT-101"/>
     <use x="483.691406" xlink:href="#ArialMT-99"/>
     <use x="533.691406" xlink:href="#ArialMT-116"/>
     <use x="561.474609" xlink:href="#ArialMT-95"/>
     <use x="617.089844" xlink:href="#ArialMT-105"/>
     <use x="639.306641" xlink:href="#ArialMT-100"/>
    </g>
   </g>
   <g id="PathCollection_13">
    <g>
     <use style="fill:#f77189;fill-opacity:0.8;stroke:#f77189;stroke-opacity:0.8;" x="374.264062" xlink:href="#md0b5bb4d88" y="109.292188"/>
    </g>
   </g>
   <g id="text_18">
    <!-- DM001 -->
    <g style="fill:#262626;" transform="translate(392.264062 111.917188)scale(0.1 -0.1)">
     <use xlink:href="#ArialMT-68"/>
     <use x="72.216797" xlink:href="#ArialMT-77"/>
     <use x="155.517578" xlink:href="#ArialMT-48"/>
     <use x="211.132812" xlink:href="#ArialMT-48"/>
     <use x="266.748047" xlink:href="#ArialMT-49"/>
    </g>
   </g>
   <g id="PathCollection_14">
    <g>
     <use style="fill:#e68332;fill-opacity:0.8;stroke:#e68332;stroke-opacity:0.8;" x="374.264062" xlink:href="#mc526cb0d14" y="123.4375"/>
    </g>
   </g>
   <g id="text_19">
    <!-- DM002 -->
    <g style="fill:#262626;" transform="translate(392.264062 126.0625)scale(0.1 -0.1)">
     <use xlink:href="#ArialMT-68"/>
     <use x="72.216797" xlink:href="#ArialMT-77"/>
     <use x="155.517578" xlink:href="#ArialMT-48"/>
     <use x="211.132812" xlink:href="#ArialMT-48"/>
     <use x="266.748047" xlink:href="#ArialMT-50"/>
    </g>
   </g>
   <g id="PathCollection_15">
    <g>
     <use style="fill:#bb9832;fill-opacity:0.8;stroke:#bb9832;stroke-opacity:0.8;" x="374.264062" xlink:href="#md3a675260a" y="137.582813"/>
    </g>
   </g>
   <g id="text_20">
    <!-- DM003 -->
    <g style="fill:#262626;" transform="translate(392.264062 140.207813)scale(0.1 -0.1)">
     <use xlink:href="#ArialMT-68"/>
     <use x="72.216797" xlink:href="#ArialMT-77"/>
     <use x="155.517578" xlink:href="#ArialMT-48"/>
     <use x="211.132812" xlink:href="#ArialMT-48"/>
     <use x="266.748047" xlink:href="#ArialMT-51"/>
    </g>
   </g>
   <g id="PathCollection_16">
    <g>
     <use style="fill:#97a431;fill-opacity:0.8;stroke:#97a431;stroke-opacity:0.8;" x="374.264062" xlink:href="#m4e84160ad5" y="151.728125"/>
    </g>
   </g>
   <g id="text_21">
    <!-- DM006 -->
    <g style="fill:#262626;" transform="translate(392.264062 154.353125)scale(0.1 -0.1)">
     <use xlink:href="#ArialMT-68"/>
     <use x="72.216797" xlink:href="#ArialMT-77"/>
     <use x="155.517578" xlink:href="#ArialMT-48"/>
     <use x="211.132812" xlink:href="#ArialMT-48"/>
     <use x="266.748047" xlink:href="#ArialMT-54"/>
    </g>
   </g>
   <g id="PathCollection_17">
    <g>
     <use style="fill:#50b131;fill-opacity:0.8;stroke:#50b131;stroke-opacity:0.8;" x="374.264062" xlink:href="#m74eb2a7446" y="165.873438"/>
    </g>
   </g>
   <g id="text_22">
    <!-- DM008 -->
    <defs>
     <path d="M 17.671875 38.8125 
Q 12.203125 40.828125 9.5625 44.53125 
Q 6.9375 48.25 6.9375 53.421875 
Q 6.9375 61.234375 12.546875 66.546875 
Q 18.171875 71.875 27.484375 71.875 
Q 36.859375 71.875 42.578125 66.421875 
Q 48.296875 60.984375 48.296875 53.171875 
Q 48.296875 48.1875 45.671875 44.5 
Q 43.0625 40.828125 37.75 38.8125 
Q 44.34375 36.671875 47.78125 31.875 
Q 51.21875 27.09375 51.21875 20.453125 
Q 51.21875 11.28125 44.71875 5.03125 
Q 38.234375 -1.21875 27.640625 -1.21875 
Q 17.046875 -1.21875 10.546875 5.046875 
Q 4.046875 11.328125 4.046875 20.703125 
Q 4.046875 27.6875 7.59375 32.390625 
Q 11.140625 37.109375 17.671875 38.8125 
z
M 15.921875 53.71875 
Q 15.921875 48.640625 19.1875 45.40625 
Q 22.46875 42.1875 27.6875 42.1875 
Q 32.765625 42.1875 36.015625 45.375 
Q 39.265625 48.578125 39.265625 53.21875 
Q 39.265625 58.0625 35.90625 61.359375 
Q 32.5625 64.65625 27.59375 64.65625 
Q 22.5625 64.65625 19.234375 61.421875 
Q 15.921875 58.203125 15.921875 53.71875 
z
M 13.09375 20.65625 
Q 13.09375 16.890625 14.875 13.375 
Q 16.65625 9.859375 20.171875 7.921875 
Q 23.6875 6 27.734375 6 
Q 34.03125 6 38.125 10.046875 
Q 42.234375 14.109375 42.234375 20.359375 
Q 42.234375 26.703125 38.015625 30.859375 
Q 33.796875 35.015625 27.4375 35.015625 
Q 21.234375 35.015625 17.15625 30.90625 
Q 13.09375 26.8125 13.09375 20.65625 
z
" id="ArialMT-56"/>
    </defs>
    <g style="fill:#262626;" transform="translate(392.264062 168.498438)scale(0.1 -0.1)">
     <use xlink:href="#ArialMT-68"/>
     <use x="72.216797" xlink:href="#ArialMT-77"/>
     <use x="155.517578" xlink:href="#ArialMT-48"/>
     <use x="211.132812" xlink:href="#ArialMT-48"/>
     <use x="266.748047" xlink:href="#ArialMT-56"/>
    </g>
   </g>
   <g id="PathCollection_18">
    <g>
     <use style="fill:#34af84;fill-opacity:0.8;stroke:#34af84;stroke-opacity:0.8;" x="374.264062" xlink:href="#m92ba34217e" y="180.01875"/>
    </g>
   </g>
   <g id="text_23">
    <!-- DM009 -->
    <defs>
     <path d="M 5.46875 16.546875 
L 13.921875 17.328125 
Q 14.984375 11.375 18.015625 8.6875 
Q 21.046875 6 25.78125 6 
Q 29.828125 6 32.875 7.859375 
Q 35.9375 9.71875 37.890625 12.8125 
Q 39.84375 15.921875 41.15625 21.1875 
Q 42.484375 26.46875 42.484375 31.9375 
Q 42.484375 32.515625 42.4375 33.6875 
Q 39.796875 29.5 35.234375 26.875 
Q 30.671875 24.265625 25.34375 24.265625 
Q 16.453125 24.265625 10.296875 30.703125 
Q 4.15625 37.15625 4.15625 47.703125 
Q 4.15625 58.59375 10.578125 65.234375 
Q 17 71.875 26.65625 71.875 
Q 33.640625 71.875 39.421875 68.109375 
Q 45.21875 64.359375 48.21875 57.390625 
Q 51.21875 50.4375 51.21875 37.25 
Q 51.21875 23.53125 48.234375 15.40625 
Q 45.265625 7.28125 39.375 3.03125 
Q 33.5 -1.21875 25.59375 -1.21875 
Q 17.1875 -1.21875 11.859375 3.4375 
Q 6.546875 8.109375 5.46875 16.546875 
z
M 41.453125 48.140625 
Q 41.453125 55.71875 37.421875 60.15625 
Q 33.40625 64.59375 27.734375 64.59375 
Q 21.875 64.59375 17.53125 59.8125 
Q 13.1875 55.03125 13.1875 47.40625 
Q 13.1875 40.578125 17.3125 36.296875 
Q 21.4375 32.03125 27.484375 32.03125 
Q 33.59375 32.03125 37.515625 36.296875 
Q 41.453125 40.578125 41.453125 48.140625 
z
" id="ArialMT-57"/>
    </defs>
    <g style="fill:#262626;" transform="translate(392.264062 182.64375)scale(0.1 -0.1)">
     <use xlink:href="#ArialMT-68"/>
     <use x="72.216797" xlink:href="#ArialMT-77"/>
     <use x="155.517578" xlink:href="#ArialMT-48"/>
     <use x="211.132812" xlink:href="#ArialMT-48"/>
     <use x="266.748047" xlink:href="#ArialMT-57"/>
    </g>
   </g>
   <g id="PathCollection_19">
    <g>
     <use style="fill:#36ada4;fill-opacity:0.8;stroke:#36ada4;stroke-opacity:0.8;" x="374.264062" xlink:href="#m46974a7b55" y="194.164063"/>
    </g>
   </g>
   <g id="text_24">
    <!-- DM011 -->
    <g style="fill:#262626;" transform="translate(392.264062 196.789063)scale(0.1 -0.1)">
     <use xlink:href="#ArialMT-68"/>
     <use x="72.216797" xlink:href="#ArialMT-77"/>
     <use x="155.517578" xlink:href="#ArialMT-48"/>
     <use x="211.132812" xlink:href="#ArialMT-49"/>
     <use x="266.638672" xlink:href="#ArialMT-49"/>
    </g>
   </g>
   <g id="PathCollection_20">
    <g>
     <use style="fill:#38aabf;fill-opacity:0.8;stroke:#38aabf;stroke-opacity:0.8;" x="374.264062" xlink:href="#me4dbe20c67" y="208.309375"/>
    </g>
   </g>
   <g id="text_25">
    <!-- DM013 -->
    <g style="fill:#262626;" transform="translate(392.264062 210.934375)scale(0.1 -0.1)">
     <use xlink:href="#ArialMT-68"/>
     <use x="72.216797" xlink:href="#ArialMT-77"/>
     <use x="155.517578" xlink:href="#ArialMT-48"/>
     <use x="211.132812" xlink:href="#ArialMT-49"/>
     <use x="266.748047" xlink:href="#ArialMT-51"/>
    </g>
   </g>
   <g id="PathCollection_21">
    <g>
     <use style="fill:#3ba3ec;fill-opacity:0.8;stroke:#3ba3ec;stroke-opacity:0.8;" x="374.264062" xlink:href="#ma6e2fbaaa7" y="222.454688"/>
    </g>
   </g>
   <g id="text_26">
    <!-- DM014 -->
    <g style="fill:#262626;" transform="translate(392.264062 225.079688)scale(0.1 -0.1)">
     <use xlink:href="#ArialMT-68"/>
     <use x="72.216797" xlink:href="#ArialMT-77"/>
     <use x="155.517578" xlink:href="#ArialMT-48"/>
     <use x="211.132812" xlink:href="#ArialMT-49"/>
     <use x="266.748047" xlink:href="#ArialMT-52"/>
    </g>
   </g>
   <g id="PathCollection_22">
    <g>
     <use style="fill:#a48cf4;fill-opacity:0.8;stroke:#a48cf4;stroke-opacity:0.8;" x="374.264062" xlink:href="#m0f751d3cbd" y="236.6"/>
    </g>
   </g>
   <g id="text_27">
    <!-- DM015 -->
    <g style="fill:#262626;" transform="translate(392.264062 239.225)scale(0.1 -0.1)">
     <use xlink:href="#ArialMT-68"/>
     <use x="72.216797" xlink:href="#ArialMT-77"/>
     <use x="155.517578" xlink:href="#ArialMT-48"/>
     <use x="211.132812" xlink:href="#ArialMT-49"/>
     <use x="266.748047" xlink:href="#ArialMT-53"/>
    </g>
   </g>
   <g id="PathCollection_23">
    <g>
     <use style="fill:#e866f4;fill-opacity:0.8;stroke:#e866f4;stroke-opacity:0.8;" x="374.264062" xlink:href="#mebc6b3c398" y="250.745313"/>
    </g>
   </g>
   <g id="text_28">
    <!-- DM016 -->
    <g style="fill:#262626;" transform="translate(392.264062 253.370313)scale(0.1 -0.1)">
     <use xlink:href="#ArialMT-68"/>
     <use x="72.216797" xlink:href="#ArialMT-77"/>
     <use x="155.517578" xlink:href="#ArialMT-48"/>
     <use x="211.132812" xlink:href="#ArialMT-49"/>
     <use x="266.748047" xlink:href="#ArialMT-54"/>
    </g>
   </g>
   <g id="PathCollection_24">
    <g>
     <use style="fill:#f668c2;fill-opacity:0.8;stroke:#f668c2;stroke-opacity:0.8;" x="374.264062" xlink:href="#m9e7383e11c" y="264.890625"/>
    </g>
   </g>
   <g id="text_29">
    <!-- DM017 -->
    <g style="fill:#262626;" transform="translate(392.264062 267.515625)scale(0.1 -0.1)">
     <use xlink:href="#ArialMT-68"/>
     <use x="72.216797" xlink:href="#ArialMT-77"/>
     <use x="155.517578" xlink:href="#ArialMT-48"/>
     <use x="211.132812" xlink:href="#ArialMT-49"/>
     <use x="266.748047" xlink:href="#ArialMT-55"/>
    </g>
   </g>
  </g>
 </g>
 <defs>
  <clipPath id="p4a1543b0b3">
   <rect height="305.9" width="287.405122" x="68.213628" y="14.3"/>
  </clipPath>
 </defs>
</svg>
