<?xml version="1.0" encoding="utf-8" standalone="no"?>
<!DOCTYPE svg PUBLIC "-//W3C//DTD SVG 1.1//EN"
  "http://www.w3.org/Graphics/SVG/1.1/DTD/svg11.dtd">
<!-- Created with matplotlib (https://matplotlib.org/) -->
<svg height="360pt" version="1.1" viewBox="0 0 438.125 360" width="438.125pt" xmlns="http://www.w3.org/2000/svg" xmlns:xlink="http://www.w3.org/1999/xlink">
 <defs>
  <style type="text/css">
*{stroke-linecap:butt;stroke-linejoin:round;}
  </style>
 </defs>
 <g id="figure_1">
  <g id="patch_1">
   <path d="M 0 360 
L 438.125 360 
L 438.125 0 
L 0 0 
z
" style="fill:#ffffff;"/>
  </g>
  <g id="axes_1">
   <g id="patch_2">
    <path d="M 54.522222 320.2 
L 355.61875 320.2 
L 355.61875 14.3 
L 54.522222 14.3 
z
" style="fill:#ffffff;"/>
   </g>
   <g id="matplotlib.axis_1">
    <g id="xtick_1">
     <g id="text_1">
      <!-- 2 -->
      <defs>
       <path d="M 50.34375 8.453125 
L 50.34375 0 
L 3.03125 0 
Q 2.9375 3.171875 4.046875 6.109375 
Q 5.859375 10.9375 9.828125 15.625 
Q 13.8125 20.3125 21.34375 26.46875 
Q 33.015625 36.03125 37.109375 41.625 
Q 41.21875 47.21875 41.21875 52.203125 
Q 41.21875 57.421875 37.46875 61 
Q 33.734375 64.59375 27.734375 64.59375 
Q 21.390625 64.59375 17.578125 60.78125 
Q 13.765625 56.984375 13.71875 50.25 
L 4.6875 51.171875 
Q 5.609375 61.28125 11.65625 66.578125 
Q 17.71875 71.875 27.9375 71.875 
Q 38.234375 71.875 44.234375 66.15625 
Q 50.25 60.453125 50.25 52 
Q 50.25 47.703125 48.484375 43.546875 
Q 46.734375 39.40625 42.65625 34.8125 
Q 38.578125 30.21875 29.109375 22.21875 
Q 21.1875 15.578125 18.9375 13.203125 
Q 16.703125 10.84375 15.234375 8.453125 
z
" id="ArialMT-50"/>
      </defs>
      <g style="fill:#262626;" transform="translate(67.781948 335.789375)scale(0.12 -0.12)">
       <use xlink:href="#ArialMT-50"/>
      </g>
     </g>
    </g>
    <g id="xtick_2">
     <g id="text_2">
      <!-- 3 -->
      <defs>
       <path d="M 4.203125 18.890625 
L 12.984375 20.0625 
Q 14.5 12.59375 18.140625 9.296875 
Q 21.78125 6 27 6 
Q 33.203125 6 37.46875 10.296875 
Q 41.75 14.59375 41.75 20.953125 
Q 41.75 27 37.796875 30.921875 
Q 33.84375 34.859375 27.734375 34.859375 
Q 25.25 34.859375 21.53125 33.890625 
L 22.515625 41.609375 
Q 23.390625 41.5 23.921875 41.5 
Q 29.546875 41.5 34.03125 44.421875 
Q 38.53125 47.359375 38.53125 53.46875 
Q 38.53125 58.296875 35.25 61.46875 
Q 31.984375 64.65625 26.8125 64.65625 
Q 21.6875 64.65625 18.265625 61.421875 
Q 14.84375 58.203125 13.875 51.765625 
L 5.078125 53.328125 
Q 6.6875 62.15625 12.390625 67.015625 
Q 18.109375 71.875 26.609375 71.875 
Q 32.46875 71.875 37.390625 69.359375 
Q 42.328125 66.84375 44.9375 62.5 
Q 47.5625 58.15625 47.5625 53.265625 
Q 47.5625 48.640625 45.0625 44.828125 
Q 42.578125 41.015625 37.703125 38.765625 
Q 44.046875 37.3125 47.5625 32.6875 
Q 51.078125 28.078125 51.078125 21.140625 
Q 51.078125 11.765625 44.234375 5.25 
Q 37.40625 -1.265625 26.953125 -1.265625 
Q 17.53125 -1.265625 11.296875 4.34375 
Q 5.078125 9.96875 4.203125 18.890625 
z
" id="ArialMT-51"/>
      </defs>
      <g style="fill:#262626;" transform="translate(106.053941 335.789375)scale(0.12 -0.12)">
       <use xlink:href="#ArialMT-51"/>
      </g>
     </g>
    </g>
    <g id="xtick_3">
     <g id="text_3">
      <!-- 4 -->
      <defs>
       <path d="M 32.328125 0 
L 32.328125 17.140625 
L 1.265625 17.140625 
L 1.265625 25.203125 
L 33.9375 71.578125 
L 41.109375 71.578125 
L 41.109375 25.203125 
L 50.78125 25.203125 
L 50.78125 17.140625 
L 41.109375 17.140625 
L 41.109375 0 
z
M 32.328125 25.203125 
L 32.328125 57.46875 
L 9.90625 25.203125 
z
" id="ArialMT-52"/>
      </defs>
      <g style="fill:#262626;" transform="translate(144.325934 335.789375)scale(0.12 -0.12)">
       <use xlink:href="#ArialMT-52"/>
      </g>
     </g>
    </g>
    <g id="xtick_4">
     <g id="text_4">
      <!-- 5 -->
      <defs>
       <path d="M 4.15625 18.75 
L 13.375 19.53125 
Q 14.40625 12.796875 18.140625 9.390625 
Q 21.875 6 27.15625 6 
Q 33.5 6 37.890625 10.78125 
Q 42.28125 15.578125 42.28125 23.484375 
Q 42.28125 31 38.0625 35.34375 
Q 33.84375 39.703125 27 39.703125 
Q 22.75 39.703125 19.328125 37.765625 
Q 15.921875 35.84375 13.96875 32.765625 
L 5.71875 33.84375 
L 12.640625 70.609375 
L 48.25 70.609375 
L 48.25 62.203125 
L 19.671875 62.203125 
L 15.828125 42.96875 
Q 22.265625 47.46875 29.34375 47.46875 
Q 38.71875 47.46875 45.15625 40.96875 
Q 51.609375 34.46875 51.609375 24.265625 
Q 51.609375 14.546875 45.953125 7.46875 
Q 39.0625 -1.21875 27.15625 -1.21875 
Q 17.390625 -1.21875 11.203125 4.25 
Q 5.03125 9.71875 4.15625 18.75 
z
" id="ArialMT-53"/>
      </defs>
      <g style="fill:#262626;" transform="translate(182.597927 335.789375)scale(0.12 -0.12)">
       <use xlink:href="#ArialMT-53"/>
      </g>
     </g>
    </g>
    <g id="xtick_5">
     <g id="text_5">
      <!-- 6 -->
      <defs>
       <path d="M 49.75 54.046875 
L 41.015625 53.375 
Q 39.84375 58.546875 37.703125 60.890625 
Q 34.125 64.65625 28.90625 64.65625 
Q 24.703125 64.65625 21.53125 62.3125 
Q 17.390625 59.28125 14.984375 53.46875 
Q 12.59375 47.65625 12.5 36.921875 
Q 15.671875 41.75 20.265625 44.09375 
Q 24.859375 46.4375 29.890625 46.4375 
Q 38.671875 46.4375 44.84375 39.96875 
Q 51.03125 33.5 51.03125 23.25 
Q 51.03125 16.5 48.125 10.71875 
Q 45.21875 4.9375 40.140625 1.859375 
Q 35.0625 -1.21875 28.609375 -1.21875 
Q 17.625 -1.21875 10.6875 6.859375 
Q 3.765625 14.9375 3.765625 33.5 
Q 3.765625 54.25 11.421875 63.671875 
Q 18.109375 71.875 29.4375 71.875 
Q 37.890625 71.875 43.28125 67.140625 
Q 48.6875 62.40625 49.75 54.046875 
z
M 13.875 23.1875 
Q 13.875 18.65625 15.796875 14.5 
Q 17.71875 10.359375 21.1875 8.171875 
Q 24.65625 6 28.46875 6 
Q 34.03125 6 38.03125 10.484375 
Q 42.046875 14.984375 42.046875 22.703125 
Q 42.046875 30.125 38.078125 34.390625 
Q 34.125 38.671875 28.125 38.671875 
Q 22.171875 38.671875 18.015625 34.390625 
Q 13.875 30.125 13.875 23.1875 
z
" id="ArialMT-54"/>
      </defs>
      <g style="fill:#262626;" transform="translate(220.86992 335.789375)scale(0.12 -0.12)">
       <use xlink:href="#ArialMT-54"/>
      </g>
     </g>
    </g>
    <g id="xtick_6">
     <g id="text_6">
      <!-- 7 -->
      <defs>
       <path d="M 4.734375 62.203125 
L 4.734375 70.65625 
L 51.078125 70.65625 
L 51.078125 63.8125 
Q 44.234375 56.546875 37.515625 44.484375 
Q 30.8125 32.421875 27.15625 19.671875 
Q 24.515625 10.6875 23.78125 0 
L 14.75 0 
Q 14.890625 8.453125 18.0625 20.40625 
Q 21.234375 32.375 27.171875 43.484375 
Q 33.109375 54.59375 39.796875 62.203125 
z
" id="ArialMT-55"/>
      </defs>
      <g style="fill:#262626;" transform="translate(259.141913 335.789375)scale(0.12 -0.12)">
       <use xlink:href="#ArialMT-55"/>
      </g>
     </g>
    </g>
    <g id="xtick_7">
     <g id="text_7">
      <!-- 8 -->
      <defs>
       <path d="M 17.671875 38.8125 
Q 12.203125 40.828125 9.5625 44.53125 
Q 6.9375 48.25 6.9375 53.421875 
Q 6.9375 61.234375 12.546875 66.546875 
Q 18.171875 71.875 27.484375 71.875 
Q 36.859375 71.875 42.578125 66.421875 
Q 48.296875 60.984375 48.296875 53.171875 
Q 48.296875 48.1875 45.671875 44.5 
Q 43.0625 40.828125 37.75 38.8125 
Q 44.34375 36.671875 47.78125 31.875 
Q 51.21875 27.09375 51.21875 20.453125 
Q 51.21875 11.28125 44.71875 5.03125 
Q 38.234375 -1.21875 27.640625 -1.21875 
Q 17.046875 -1.21875 10.546875 5.046875 
Q 4.046875 11.328125 4.046875 20.703125 
Q 4.046875 27.6875 7.59375 32.390625 
Q 11.140625 37.109375 17.671875 38.8125 
z
M 15.921875 53.71875 
Q 15.921875 48.640625 19.1875 45.40625 
Q 22.46875 42.1875 27.6875 42.1875 
Q 32.765625 42.1875 36.015625 45.375 
Q 39.265625 48.578125 39.265625 53.21875 
Q 39.265625 58.0625 35.90625 61.359375 
Q 32.5625 64.65625 27.59375 64.65625 
Q 22.5625 64.65625 19.234375 61.421875 
Q 15.921875 58.203125 15.921875 53.71875 
z
M 13.09375 20.65625 
Q 13.09375 16.890625 14.875 13.375 
Q 16.65625 9.859375 20.171875 7.921875 
Q 23.6875 6 27.734375 6 
Q 34.03125 6 38.125 10.046875 
Q 42.234375 14.109375 42.234375 20.359375 
Q 42.234375 26.703125 38.015625 30.859375 
Q 33.796875 35.015625 27.4375 35.015625 
Q 21.234375 35.015625 17.15625 30.90625 
Q 13.09375 26.8125 13.09375 20.65625 
z
" id="ArialMT-56"/>
      </defs>
      <g style="fill:#262626;" transform="translate(297.413906 335.789375)scale(0.12 -0.12)">
       <use xlink:href="#ArialMT-56"/>
      </g>
     </g>
    </g>
    <g id="xtick_8">
     <g id="text_8">
      <!-- 9 -->
      <defs>
       <path d="M 5.46875 16.546875 
L 13.921875 17.328125 
Q 14.984375 11.375 18.015625 8.6875 
Q 21.046875 6 25.78125 6 
Q 29.828125 6 32.875 7.859375 
Q 35.9375 9.71875 37.890625 12.8125 
Q 39.84375 15.921875 41.15625 21.1875 
Q 42.484375 26.46875 42.484375 31.9375 
Q 42.484375 32.515625 42.4375 33.6875 
Q 39.796875 29.5 35.234375 26.875 
Q 30.671875 24.265625 25.34375 24.265625 
Q 16.453125 24.265625 10.296875 30.703125 
Q 4.15625 37.15625 4.15625 47.703125 
Q 4.15625 58.59375 10.578125 65.234375 
Q 17 71.875 26.65625 71.875 
Q 33.640625 71.875 39.421875 68.109375 
Q 45.21875 64.359375 48.21875 57.390625 
Q 51.21875 50.4375 51.21875 37.25 
Q 51.21875 23.53125 48.234375 15.40625 
Q 45.265625 7.28125 39.375 3.03125 
Q 33.5 -1.21875 25.59375 -1.21875 
Q 17.1875 -1.21875 11.859375 3.4375 
Q 6.546875 8.109375 5.46875 16.546875 
z
M 41.453125 48.140625 
Q 41.453125 55.71875 37.421875 60.15625 
Q 33.40625 64.59375 27.734375 64.59375 
Q 21.875 64.59375 17.53125 59.8125 
Q 13.1875 55.03125 13.1875 47.40625 
Q 13.1875 40.578125 17.3125 36.296875 
Q 21.4375 32.03125 27.484375 32.03125 
Q 33.59375 32.03125 37.515625 36.296875 
Q 41.453125 40.578125 41.453125 48.140625 
z
" id="ArialMT-57"/>
      </defs>
      <g style="fill:#262626;" transform="translate(335.685899 335.789375)scale(0.12 -0.12)">
       <use xlink:href="#ArialMT-57"/>
      </g>
     </g>
    </g>
    <g id="text_9">
     <!-- Day -->
     <defs>
      <path d="M 7.71875 0 
L 7.71875 71.578125 
L 32.375 71.578125 
Q 40.71875 71.578125 45.125 70.5625 
Q 51.265625 69.140625 55.609375 65.4375 
Q 61.28125 60.640625 64.078125 53.1875 
Q 66.890625 45.75 66.890625 36.1875 
Q 66.890625 28.03125 64.984375 21.734375 
Q 63.09375 15.4375 60.109375 11.296875 
Q 57.125 7.171875 53.578125 4.796875 
Q 50.046875 2.4375 45.046875 1.21875 
Q 40.046875 0 33.546875 0 
z
M 17.1875 8.453125 
L 32.46875 8.453125 
Q 39.546875 8.453125 43.578125 9.765625 
Q 47.609375 11.078125 50 13.484375 
Q 53.375 16.84375 55.25 22.53125 
Q 57.125 28.21875 57.125 36.328125 
Q 57.125 47.5625 53.4375 53.59375 
Q 49.75 59.625 44.484375 61.671875 
Q 40.671875 63.140625 32.234375 63.140625 
L 17.1875 63.140625 
z
" id="ArialMT-68"/>
      <path d="M 40.4375 6.390625 
Q 35.546875 2.25 31.03125 0.53125 
Q 26.515625 -1.171875 21.34375 -1.171875 
Q 12.796875 -1.171875 8.203125 3 
Q 3.609375 7.171875 3.609375 13.671875 
Q 3.609375 17.484375 5.34375 20.625 
Q 7.078125 23.78125 9.890625 25.6875 
Q 12.703125 27.59375 16.21875 28.5625 
Q 18.796875 29.25 24.03125 29.890625 
Q 34.671875 31.15625 39.703125 32.90625 
Q 39.75 34.71875 39.75 35.203125 
Q 39.75 40.578125 37.25 42.78125 
Q 33.890625 45.75 27.25 45.75 
Q 21.046875 45.75 18.09375 43.578125 
Q 15.140625 41.40625 13.71875 35.890625 
L 5.125 37.0625 
Q 6.296875 42.578125 8.984375 45.96875 
Q 11.671875 49.359375 16.75 51.1875 
Q 21.828125 53.03125 28.515625 53.03125 
Q 35.15625 53.03125 39.296875 51.46875 
Q 43.453125 49.90625 45.40625 47.53125 
Q 47.359375 45.171875 48.140625 41.546875 
Q 48.578125 39.3125 48.578125 33.453125 
L 48.578125 21.734375 
Q 48.578125 9.46875 49.140625 6.21875 
Q 49.703125 2.984375 51.375 0 
L 42.1875 0 
Q 40.828125 2.734375 40.4375 6.390625 
z
M 39.703125 26.03125 
Q 34.90625 24.078125 25.34375 22.703125 
Q 19.921875 21.921875 17.671875 20.9375 
Q 15.4375 19.96875 14.203125 18.09375 
Q 12.984375 16.21875 12.984375 13.921875 
Q 12.984375 10.40625 15.640625 8.0625 
Q 18.3125 5.71875 23.4375 5.71875 
Q 28.515625 5.71875 32.46875 7.9375 
Q 36.421875 10.15625 38.28125 14.015625 
Q 39.703125 17 39.703125 22.796875 
z
" id="ArialMT-97"/>
      <path d="M 6.203125 -19.96875 
L 5.21875 -11.71875 
Q 8.109375 -12.5 10.25 -12.5 
Q 13.1875 -12.5 14.9375 -11.515625 
Q 16.703125 -10.546875 17.828125 -8.796875 
Q 18.65625 -7.46875 20.515625 -2.25 
Q 20.75 -1.515625 21.296875 -0.09375 
L 1.609375 51.859375 
L 11.078125 51.859375 
L 21.875 21.828125 
Q 23.96875 16.109375 25.640625 9.8125 
Q 27.15625 15.875 29.25 21.625 
L 40.328125 51.859375 
L 49.125 51.859375 
L 29.390625 -0.875 
Q 26.21875 -9.421875 24.46875 -12.640625 
Q 22.125 -17 19.09375 -19.015625 
Q 16.0625 -21.046875 11.859375 -21.046875 
Q 9.328125 -21.046875 6.203125 -19.96875 
z
" id="ArialMT-121"/>
     </defs>
     <g style="fill:#262626;" transform="translate(191.733377 352.911094)scale(0.15 -0.15)">
      <use xlink:href="#ArialMT-68"/>
      <use x="72.216797" xlink:href="#ArialMT-97"/>
      <use x="127.832031" xlink:href="#ArialMT-121"/>
     </g>
    </g>
   </g>
   <g id="matplotlib.axis_2">
    <g id="ytick_1">
     <g id="text_10">
      <!-- 0.0 -->
      <defs>
       <path d="M 4.15625 35.296875 
Q 4.15625 48 6.765625 55.734375 
Q 9.375 63.484375 14.515625 67.671875 
Q 19.671875 71.875 27.484375 71.875 
Q 33.25 71.875 37.59375 69.546875 
Q 41.9375 67.234375 44.765625 62.859375 
Q 47.609375 58.5 49.21875 52.21875 
Q 50.828125 45.953125 50.828125 35.296875 
Q 50.828125 22.703125 48.234375 14.96875 
Q 45.65625 7.234375 40.5 3 
Q 35.359375 -1.21875 27.484375 -1.21875 
Q 17.140625 -1.21875 11.234375 6.203125 
Q 4.15625 15.140625 4.15625 35.296875 
z
M 13.1875 35.296875 
Q 13.1875 17.671875 17.3125 11.828125 
Q 21.4375 6 27.484375 6 
Q 33.546875 6 37.671875 11.859375 
Q 41.796875 17.71875 41.796875 35.296875 
Q 41.796875 52.984375 37.671875 58.78125 
Q 33.546875 64.59375 27.390625 64.59375 
Q 21.34375 64.59375 17.71875 59.46875 
Q 13.1875 52.9375 13.1875 35.296875 
z
" id="ArialMT-48"/>
       <path d="M 9.078125 0 
L 9.078125 10.015625 
L 19.09375 10.015625 
L 19.09375 0 
z
" id="ArialMT-46"/>
      </defs>
      <g style="fill:#262626;" transform="translate(30.842222 308.404514)scale(0.12 -0.12)">
       <use xlink:href="#ArialMT-48"/>
       <use x="55.615234" xlink:href="#ArialMT-46"/>
       <use x="83.398438" xlink:href="#ArialMT-48"/>
      </g>
     </g>
    </g>
    <g id="ytick_2">
     <g id="text_11">
      <!-- 0.1 -->
      <defs>
       <path d="M 37.25 0 
L 28.46875 0 
L 28.46875 56 
Q 25.296875 52.984375 20.140625 49.953125 
Q 14.984375 46.921875 10.890625 45.40625 
L 10.890625 53.90625 
Q 18.265625 57.375 23.78125 62.296875 
Q 29.296875 67.234375 31.59375 71.875 
L 37.25 71.875 
z
" id="ArialMT-49"/>
      </defs>
      <g style="fill:#262626;" transform="translate(30.842222 263.067187)scale(0.12 -0.12)">
       <use xlink:href="#ArialMT-48"/>
       <use x="55.615234" xlink:href="#ArialMT-46"/>
       <use x="83.398438" xlink:href="#ArialMT-49"/>
      </g>
     </g>
    </g>
    <g id="ytick_3">
     <g id="text_12">
      <!-- 0.2 -->
      <g style="fill:#262626;" transform="translate(30.842222 217.72986)scale(0.12 -0.12)">
       <use xlink:href="#ArialMT-48"/>
       <use x="55.615234" xlink:href="#ArialMT-46"/>
       <use x="83.398438" xlink:href="#ArialMT-50"/>
      </g>
     </g>
    </g>
    <g id="ytick_4">
     <g id="text_13">
      <!-- 0.3 -->
      <g style="fill:#262626;" transform="translate(30.842222 172.392533)scale(0.12 -0.12)">
       <use xlink:href="#ArialMT-48"/>
       <use x="55.615234" xlink:href="#ArialMT-46"/>
       <use x="83.398438" xlink:href="#ArialMT-51"/>
      </g>
     </g>
    </g>
    <g id="ytick_5">
     <g id="text_14">
      <!-- 0.4 -->
      <g style="fill:#262626;" transform="translate(30.842222 127.055206)scale(0.12 -0.12)">
       <use xlink:href="#ArialMT-48"/>
       <use x="55.615234" xlink:href="#ArialMT-46"/>
       <use x="83.398438" xlink:href="#ArialMT-52"/>
      </g>
     </g>
    </g>
    <g id="ytick_6">
     <g id="text_15">
      <!-- 0.5 -->
      <g style="fill:#262626;" transform="translate(30.842222 81.717879)scale(0.12 -0.12)">
       <use xlink:href="#ArialMT-48"/>
       <use x="55.615234" xlink:href="#ArialMT-46"/>
       <use x="83.398438" xlink:href="#ArialMT-53"/>
      </g>
     </g>
    </g>
    <g id="ytick_7">
     <g id="text_16">
      <!-- 0.6 -->
      <g style="fill:#262626;" transform="translate(30.842222 36.380553)scale(0.12 -0.12)">
       <use xlink:href="#ArialMT-48"/>
       <use x="55.615234" xlink:href="#ArialMT-46"/>
       <use x="83.398438" xlink:href="#ArialMT-54"/>
      </g>
     </g>
    </g>
    <g id="text_17">
     <!-- Omeprazole -->
     <defs>
      <path d="M 4.828125 34.859375 
Q 4.828125 52.6875 14.390625 62.765625 
Q 23.96875 72.859375 39.109375 72.859375 
Q 49.03125 72.859375 56.984375 68.109375 
Q 64.9375 63.375 69.109375 54.90625 
Q 73.296875 46.4375 73.296875 35.6875 
Q 73.296875 24.8125 68.890625 16.21875 
Q 64.5 7.625 56.4375 3.203125 
Q 48.390625 -1.21875 39.0625 -1.21875 
Q 28.953125 -1.21875 20.984375 3.65625 
Q 13.03125 8.546875 8.921875 16.984375 
Q 4.828125 25.4375 4.828125 34.859375 
z
M 14.59375 34.71875 
Q 14.59375 21.78125 21.546875 14.328125 
Q 28.515625 6.890625 39.015625 6.890625 
Q 49.703125 6.890625 56.609375 14.40625 
Q 63.53125 21.921875 63.53125 35.75 
Q 63.53125 44.484375 60.578125 51 
Q 57.625 57.515625 51.921875 61.109375 
Q 46.234375 64.703125 39.15625 64.703125 
Q 29.109375 64.703125 21.84375 57.78125 
Q 14.59375 50.875 14.59375 34.71875 
z
" id="ArialMT-79"/>
      <path d="M 6.59375 0 
L 6.59375 51.859375 
L 14.453125 51.859375 
L 14.453125 44.578125 
Q 16.890625 48.390625 20.9375 50.703125 
Q 25 53.03125 30.171875 53.03125 
Q 35.9375 53.03125 39.625 50.640625 
Q 43.3125 48.25 44.828125 43.953125 
Q 50.984375 53.03125 60.84375 53.03125 
Q 68.5625 53.03125 72.703125 48.75 
Q 76.859375 44.484375 76.859375 35.59375 
L 76.859375 0 
L 68.109375 0 
L 68.109375 32.671875 
Q 68.109375 37.9375 67.25 40.25 
Q 66.40625 42.578125 64.15625 43.984375 
Q 61.921875 45.40625 58.890625 45.40625 
Q 53.421875 45.40625 49.796875 41.765625 
Q 46.1875 38.140625 46.1875 30.125 
L 46.1875 0 
L 37.40625 0 
L 37.40625 33.6875 
Q 37.40625 39.546875 35.25 42.46875 
Q 33.109375 45.40625 28.21875 45.40625 
Q 24.515625 45.40625 21.359375 43.453125 
Q 18.21875 41.5 16.796875 37.734375 
Q 15.375 33.984375 15.375 26.90625 
L 15.375 0 
z
" id="ArialMT-109"/>
      <path d="M 42.09375 16.703125 
L 51.171875 15.578125 
Q 49.03125 7.625 43.21875 3.21875 
Q 37.40625 -1.171875 28.375 -1.171875 
Q 17 -1.171875 10.328125 5.828125 
Q 3.65625 12.84375 3.65625 25.484375 
Q 3.65625 38.578125 10.390625 45.796875 
Q 17.140625 53.03125 27.875 53.03125 
Q 38.28125 53.03125 44.875 45.953125 
Q 51.46875 38.875 51.46875 26.03125 
Q 51.46875 25.25 51.421875 23.6875 
L 12.75 23.6875 
Q 13.234375 15.140625 17.578125 10.59375 
Q 21.921875 6.0625 28.421875 6.0625 
Q 33.25 6.0625 36.671875 8.59375 
Q 40.09375 11.140625 42.09375 16.703125 
z
M 13.234375 30.90625 
L 42.1875 30.90625 
Q 41.609375 37.453125 38.875 40.71875 
Q 34.671875 45.796875 27.984375 45.796875 
Q 21.921875 45.796875 17.796875 41.75 
Q 13.671875 37.703125 13.234375 30.90625 
z
" id="ArialMT-101"/>
      <path d="M 6.59375 -19.875 
L 6.59375 51.859375 
L 14.59375 51.859375 
L 14.59375 45.125 
Q 17.4375 49.078125 21 51.046875 
Q 24.5625 53.03125 29.640625 53.03125 
Q 36.28125 53.03125 41.359375 49.609375 
Q 46.4375 46.1875 49.015625 39.953125 
Q 51.609375 33.734375 51.609375 26.3125 
Q 51.609375 18.359375 48.75 11.984375 
Q 45.90625 5.609375 40.453125 2.21875 
Q 35.015625 -1.171875 29 -1.171875 
Q 24.609375 -1.171875 21.109375 0.6875 
Q 17.625 2.546875 15.375 5.375 
L 15.375 -19.875 
z
M 14.546875 25.640625 
Q 14.546875 15.625 18.59375 10.84375 
Q 22.65625 6.0625 28.421875 6.0625 
Q 34.28125 6.0625 38.453125 11.015625 
Q 42.625 15.96875 42.625 26.375 
Q 42.625 36.28125 38.546875 41.203125 
Q 34.46875 46.140625 28.8125 46.140625 
Q 23.1875 46.140625 18.859375 40.890625 
Q 14.546875 35.640625 14.546875 25.640625 
z
" id="ArialMT-112"/>
      <path d="M 6.5 0 
L 6.5 51.859375 
L 14.40625 51.859375 
L 14.40625 44 
Q 17.4375 49.515625 20 51.265625 
Q 22.5625 53.03125 25.640625 53.03125 
Q 30.078125 53.03125 34.671875 50.203125 
L 31.640625 42.046875 
Q 28.421875 43.953125 25.203125 43.953125 
Q 22.3125 43.953125 20.015625 42.21875 
Q 17.71875 40.484375 16.75 37.40625 
Q 15.28125 32.71875 15.28125 27.15625 
L 15.28125 0 
z
" id="ArialMT-114"/>
      <path d="M 1.953125 0 
L 1.953125 7.125 
L 34.96875 45.015625 
Q 29.34375 44.734375 25.046875 44.734375 
L 3.90625 44.734375 
L 3.90625 51.859375 
L 46.296875 51.859375 
L 46.296875 46.046875 
L 18.21875 13.140625 
L 12.796875 7.125 
Q 18.703125 7.5625 23.875 7.5625 
L 47.859375 7.5625 
L 47.859375 0 
z
" id="ArialMT-122"/>
      <path d="M 3.328125 25.921875 
Q 3.328125 40.328125 11.328125 47.265625 
Q 18.015625 53.03125 27.640625 53.03125 
Q 38.328125 53.03125 45.109375 46.015625 
Q 51.90625 39.015625 51.90625 26.65625 
Q 51.90625 16.65625 48.90625 10.90625 
Q 45.90625 5.171875 40.15625 2 
Q 34.421875 -1.171875 27.640625 -1.171875 
Q 16.75 -1.171875 10.03125 5.8125 
Q 3.328125 12.796875 3.328125 25.921875 
z
M 12.359375 25.921875 
Q 12.359375 15.96875 16.703125 11.015625 
Q 21.046875 6.0625 27.640625 6.0625 
Q 34.1875 6.0625 38.53125 11.03125 
Q 42.875 16.015625 42.875 26.21875 
Q 42.875 35.84375 38.5 40.796875 
Q 34.125 45.75 27.640625 45.75 
Q 21.046875 45.75 16.703125 40.8125 
Q 12.359375 35.890625 12.359375 25.921875 
z
" id="ArialMT-111"/>
      <path d="M 6.390625 0 
L 6.390625 71.578125 
L 15.1875 71.578125 
L 15.1875 0 
z
" id="ArialMT-108"/>
     </defs>
     <g style="fill:#262626;" transform="translate(23.860972 208.098047)rotate(-90)scale(0.15 -0.15)">
      <use xlink:href="#ArialMT-79"/>
      <use x="77.783203" xlink:href="#ArialMT-109"/>
      <use x="161.083984" xlink:href="#ArialMT-101"/>
      <use x="216.699219" xlink:href="#ArialMT-112"/>
      <use x="272.314453" xlink:href="#ArialMT-114"/>
      <use x="305.615234" xlink:href="#ArialMT-97"/>
      <use x="361.230469" xlink:href="#ArialMT-122"/>
      <use x="411.230469" xlink:href="#ArialMT-111"/>
      <use x="466.845703" xlink:href="#ArialMT-108"/>
      <use x="489.0625" xlink:href="#ArialMT-101"/>
     </g>
    </g>
   </g>
   <g id="PathCollection_1">
    <defs>
     <path d="M 0 3 
C 0.795609 3 1.55874 2.683901 2.12132 2.12132 
C 2.683901 1.55874 3 0.795609 3 0 
C 3 -0.795609 2.683901 -1.55874 2.12132 -2.12132 
C 1.55874 -2.683901 0.795609 -3 0 -3 
C -0.795609 -3 -1.55874 -2.683901 -2.12132 -2.12132 
C -2.683901 -1.55874 -3 -0.795609 -3 0 
C -3 0.795609 -2.683901 1.55874 -2.12132 2.12132 
C -1.55874 2.683901 -0.795609 3 0 3 
z
" id="m36f6ece45c" style="stroke:#f77189;stroke-opacity:0.8;"/>
    </defs>
    <g clip-path="url(#p8d7e3f9309)">
     <use style="fill:#f77189;fill-opacity:0.8;stroke:#f77189;stroke-opacity:0.8;" x="71.11851" xlink:href="#m36f6ece45c" y="285.286216"/>
     <use style="fill:#f77189;fill-opacity:0.8;stroke:#f77189;stroke-opacity:0.8;" x="109.390503" xlink:href="#m36f6ece45c" y="199.163"/>
     <use style="fill:#f77189;fill-opacity:0.8;stroke:#f77189;stroke-opacity:0.8;" x="147.662497" xlink:href="#m36f6ece45c" y="164.65693"/>
     <use style="fill:#f77189;fill-opacity:0.8;stroke:#f77189;stroke-opacity:0.8;" x="262.478476" xlink:href="#m36f6ece45c" y="154.387683"/>
     <use style="fill:#f77189;fill-opacity:0.8;stroke:#f77189;stroke-opacity:0.8;" x="300.750469" xlink:href="#m36f6ece45c" y="222.999738"/>
     <use style="fill:#f77189;fill-opacity:0.8;stroke:#f77189;stroke-opacity:0.8;" x="339.022462" xlink:href="#m36f6ece45c" y="243.431907"/>
    </g>
   </g>
   <g id="PathCollection_2">
    <defs>
     <path d="M 0 3 
C 0.795609 3 1.55874 2.683901 2.12132 2.12132 
C 2.683901 1.55874 3 0.795609 3 0 
C 3 -0.795609 2.683901 -1.55874 2.12132 -2.12132 
C 1.55874 -2.683901 0.795609 -3 0 -3 
C -0.795609 -3 -1.55874 -2.683901 -2.12132 -2.12132 
C -2.683901 -1.55874 -3 -0.795609 -3 0 
C -3 0.795609 -2.683901 1.55874 -2.12132 2.12132 
C -1.55874 2.683901 -0.795609 3 0 3 
z
" id="m2d247e1466" style="stroke:#ef7d32;stroke-opacity:0.8;"/>
    </defs>
    <g clip-path="url(#p8d7e3f9309)">
     <use style="fill:#ef7d32;fill-opacity:0.8;stroke:#ef7d32;stroke-opacity:0.8;" x="71.11851" xlink:href="#m2d247e1466" y="261.976087"/>
     <use style="fill:#ef7d32;fill-opacity:0.8;stroke:#ef7d32;stroke-opacity:0.8;" x="109.390503" xlink:href="#m2d247e1466" y="302.167239"/>
     <use style="fill:#ef7d32;fill-opacity:0.8;stroke:#ef7d32;stroke-opacity:0.8;" x="147.662497" xlink:href="#m2d247e1466" y="301.812179"/>
     <use style="fill:#ef7d32;fill-opacity:0.8;stroke:#ef7d32;stroke-opacity:0.8;" x="185.93449" xlink:href="#m2d247e1466" y="265.252671"/>
     <use style="fill:#ef7d32;fill-opacity:0.8;stroke:#ef7d32;stroke-opacity:0.8;" x="224.206483" xlink:href="#m2d247e1466" y="282.045934"/>
     <use style="fill:#ef7d32;fill-opacity:0.8;stroke:#ef7d32;stroke-opacity:0.8;" x="262.478476" xlink:href="#m2d247e1466" y="293.194113"/>
     <use style="fill:#ef7d32;fill-opacity:0.8;stroke:#ef7d32;stroke-opacity:0.8;" x="300.750469" xlink:href="#m2d247e1466" y="301.133439"/>
     <use style="fill:#ef7d32;fill-opacity:0.8;stroke:#ef7d32;stroke-opacity:0.8;" x="339.022462" xlink:href="#m2d247e1466" y="296.883707"/>
    </g>
   </g>
   <g id="PathCollection_3">
    <defs>
     <path d="M 0 3 
C 0.795609 3 1.55874 2.683901 2.12132 2.12132 
C 2.683901 1.55874 3 0.795609 3 0 
C 3 -0.795609 2.683901 -1.55874 2.12132 -2.12132 
C 1.55874 -2.683901 0.795609 -3 0 -3 
C -0.795609 -3 -1.55874 -2.683901 -2.12132 -2.12132 
C -2.683901 -1.55874 -3 -0.795609 -3 0 
C -3 0.795609 -2.683901 1.55874 -2.12132 2.12132 
C -1.55874 2.683901 -0.795609 3 0 3 
z
" id="m28754a9190" style="stroke:#c69432;stroke-opacity:0.8;"/>
    </defs>
    <g clip-path="url(#p8d7e3f9309)">
     <use style="fill:#c69432;fill-opacity:0.8;stroke:#c69432;stroke-opacity:0.8;" x="109.390503" xlink:href="#m28754a9190" y="289.502183"/>
     <use style="fill:#c69432;fill-opacity:0.8;stroke:#c69432;stroke-opacity:0.8;" x="185.93449" xlink:href="#m28754a9190" y="231.946246"/>
     <use style="fill:#c69432;fill-opacity:0.8;stroke:#c69432;stroke-opacity:0.8;" x="224.206483" xlink:href="#m28754a9190" y="175.235515"/>
     <use style="fill:#c69432;fill-opacity:0.8;stroke:#c69432;stroke-opacity:0.8;" x="300.750469" xlink:href="#m28754a9190" y="157.181219"/>
     <use style="fill:#c69432;fill-opacity:0.8;stroke:#c69432;stroke-opacity:0.8;" x="339.022462" xlink:href="#m28754a9190" y="176.988881"/>
    </g>
   </g>
   <g id="PathCollection_4">
    <defs>
     <path d="M 0 3 
C 0.795609 3 1.55874 2.683901 2.12132 2.12132 
C 2.683901 1.55874 3 0.795609 3 0 
C 3 -0.795609 2.683901 -1.55874 2.12132 -2.12132 
C 1.55874 -2.683901 0.795609 -3 0 -3 
C -0.795609 -3 -1.55874 -2.683901 -2.12132 -2.12132 
C -2.683901 -1.55874 -3 -0.795609 -3 0 
C -3 0.795609 -2.683901 1.55874 -2.12132 2.12132 
C -1.55874 2.683901 -0.795609 3 0 3 
z
" id="m7ae792b4f0" style="stroke:#a79f31;stroke-opacity:0.8;"/>
    </defs>
    <g clip-path="url(#p8d7e3f9309)">
     <use style="fill:#a79f31;fill-opacity:0.8;stroke:#a79f31;stroke-opacity:0.8;" x="71.11851" xlink:href="#m7ae792b4f0" y="302.956188"/>
     <use style="fill:#a79f31;fill-opacity:0.8;stroke:#a79f31;stroke-opacity:0.8;" x="109.390503" xlink:href="#m7ae792b4f0" y="301.518897"/>
     <use style="fill:#a79f31;fill-opacity:0.8;stroke:#a79f31;stroke-opacity:0.8;" x="185.93449" xlink:href="#m7ae792b4f0" y="152.25808"/>
     <use style="fill:#a79f31;fill-opacity:0.8;stroke:#a79f31;stroke-opacity:0.8;" x="224.206483" xlink:href="#m7ae792b4f0" y="230.61154"/>
     <use style="fill:#a79f31;fill-opacity:0.8;stroke:#a79f31;stroke-opacity:0.8;" x="262.478476" xlink:href="#m7ae792b4f0" y="297.847614"/>
     <use style="fill:#a79f31;fill-opacity:0.8;stroke:#a79f31;stroke-opacity:0.8;" x="300.750469" xlink:href="#m7ae792b4f0" y="301.479531"/>
     <use style="fill:#a79f31;fill-opacity:0.8;stroke:#a79f31;stroke-opacity:0.8;" x="339.022462" xlink:href="#m7ae792b4f0" y="300.138284"/>
    </g>
   </g>
   <g id="PathCollection_5">
    <defs>
     <path d="M 0 3 
C 0.795609 3 1.55874 2.683901 2.12132 2.12132 
C 2.683901 1.55874 3 0.795609 3 0 
C 3 -0.795609 2.683901 -1.55874 2.12132 -2.12132 
C 1.55874 -2.683901 0.795609 -3 0 -3 
C -0.795609 -3 -1.55874 -2.683901 -2.12132 -2.12132 
C -2.683901 -1.55874 -3 -0.795609 -3 0 
C -3 0.795609 -2.683901 1.55874 -2.12132 2.12132 
C -1.55874 2.683901 -0.795609 3 0 3 
z
" id="m3bd4fd4244" style="stroke:#82a931;stroke-opacity:0.8;"/>
    </defs>
    <g clip-path="url(#p8d7e3f9309)">
     <use style="fill:#82a931;fill-opacity:0.8;stroke:#82a931;stroke-opacity:0.8;" x="71.11851" xlink:href="#m3bd4fd4244" y="286.991526"/>
     <use style="fill:#82a931;fill-opacity:0.8;stroke:#82a931;stroke-opacity:0.8;" x="109.390503" xlink:href="#m3bd4fd4244" y="278.075866"/>
     <use style="fill:#82a931;fill-opacity:0.8;stroke:#82a931;stroke-opacity:0.8;" x="147.662497" xlink:href="#m3bd4fd4244" y="297.543887"/>
     <use style="fill:#82a931;fill-opacity:0.8;stroke:#82a931;stroke-opacity:0.8;" x="224.206483" xlink:href="#m3bd4fd4244" y="297.392231"/>
     <use style="fill:#82a931;fill-opacity:0.8;stroke:#82a931;stroke-opacity:0.8;" x="262.478476" xlink:href="#m3bd4fd4244" y="290.930462"/>
     <use style="fill:#82a931;fill-opacity:0.8;stroke:#82a931;stroke-opacity:0.8;" x="300.750469" xlink:href="#m3bd4fd4244" y="288.257168"/>
     <use style="fill:#82a931;fill-opacity:0.8;stroke:#82a931;stroke-opacity:0.8;" x="339.022462" xlink:href="#m3bd4fd4244" y="274.263394"/>
    </g>
   </g>
   <g id="PathCollection_6">
    <defs>
     <path d="M 0 3 
C 0.795609 3 1.55874 2.683901 2.12132 2.12132 
C 2.683901 1.55874 3 0.795609 3 0 
C 3 -0.795609 2.683901 -1.55874 2.12132 -2.12132 
C 1.55874 -2.683901 0.795609 -3 0 -3 
C -0.795609 -3 -1.55874 -2.683901 -2.12132 -2.12132 
C -2.683901 -1.55874 -3 -0.795609 -3 0 
C -3 0.795609 -2.683901 1.55874 -2.12132 2.12132 
C -1.55874 2.683901 -0.795609 3 0 3 
z
" id="m7ba904c57a" style="stroke:#32b24e;stroke-opacity:0.8;"/>
    </defs>
    <g clip-path="url(#p8d7e3f9309)">
     <use style="fill:#32b24e;fill-opacity:0.8;stroke:#32b24e;stroke-opacity:0.8;" x="109.390503" xlink:href="#m7ba904c57a" y="96.486854"/>
     <use style="fill:#32b24e;fill-opacity:0.8;stroke:#32b24e;stroke-opacity:0.8;" x="147.662497" xlink:href="#m7ba904c57a" y="150.604361"/>
     <use style="fill:#32b24e;fill-opacity:0.8;stroke:#32b24e;stroke-opacity:0.8;" x="185.93449" xlink:href="#m7ba904c57a" y="189.97048"/>
     <use style="fill:#32b24e;fill-opacity:0.8;stroke:#32b24e;stroke-opacity:0.8;" x="224.206483" xlink:href="#m7ba904c57a" y="123.318038"/>
     <use style="fill:#32b24e;fill-opacity:0.8;stroke:#32b24e;stroke-opacity:0.8;" x="262.478476" xlink:href="#m7ba904c57a" y="176.646617"/>
     <use style="fill:#32b24e;fill-opacity:0.8;stroke:#32b24e;stroke-opacity:0.8;" x="300.750469" xlink:href="#m7ba904c57a" y="196.434225"/>
     <use style="fill:#32b24e;fill-opacity:0.8;stroke:#32b24e;stroke-opacity:0.8;" x="339.022462" xlink:href="#m7ba904c57a" y="148.191724"/>
    </g>
   </g>
   <g id="PathCollection_7">
    <defs>
     <path d="M 0 3 
C 0.795609 3 1.55874 2.683901 2.12132 2.12132 
C 2.683901 1.55874 3 0.795609 3 0 
C 3 -0.795609 2.683901 -1.55874 2.12132 -2.12132 
C 1.55874 -2.683901 0.795609 -3 0 -3 
C -0.795609 -3 -1.55874 -2.683901 -2.12132 -2.12132 
C -2.683901 -1.55874 -3 -0.795609 -3 0 
C -3 0.795609 -2.683901 1.55874 -2.12132 2.12132 
C -1.55874 2.683901 -0.795609 3 0 3 
z
" id="md66ba02ec7" style="stroke:#34af8a;stroke-opacity:0.8;"/>
    </defs>
    <g clip-path="url(#p8d7e3f9309)">
     <use style="fill:#34af8a;fill-opacity:0.8;stroke:#34af8a;stroke-opacity:0.8;" x="71.11851" xlink:href="#md66ba02ec7" y="286.583969"/>
     <use style="fill:#34af8a;fill-opacity:0.8;stroke:#34af8a;stroke-opacity:0.8;" x="109.390503" xlink:href="#md66ba02ec7" y="229.331178"/>
     <use style="fill:#34af8a;fill-opacity:0.8;stroke:#34af8a;stroke-opacity:0.8;" x="147.662497" xlink:href="#md66ba02ec7" y="115.086915"/>
     <use style="fill:#34af8a;fill-opacity:0.8;stroke:#34af8a;stroke-opacity:0.8;" x="185.93449" xlink:href="#md66ba02ec7" y="199.483127"/>
     <use style="fill:#34af8a;fill-opacity:0.8;stroke:#34af8a;stroke-opacity:0.8;" x="224.206483" xlink:href="#md66ba02ec7" y="255.455153"/>
     <use style="fill:#34af8a;fill-opacity:0.8;stroke:#34af8a;stroke-opacity:0.8;" x="262.478476" xlink:href="#md66ba02ec7" y="165.816848"/>
     <use style="fill:#34af8a;fill-opacity:0.8;stroke:#34af8a;stroke-opacity:0.8;" x="300.750469" xlink:href="#md66ba02ec7" y="131.577273"/>
     <use style="fill:#34af8a;fill-opacity:0.8;stroke:#34af8a;stroke-opacity:0.8;" x="339.022462" xlink:href="#md66ba02ec7" y="234.038891"/>
    </g>
   </g>
   <g id="PathCollection_8">
    <defs>
     <path d="M 0 3 
C 0.795609 3 1.55874 2.683901 2.12132 2.12132 
C 2.683901 1.55874 3 0.795609 3 0 
C 3 -0.795609 2.683901 -1.55874 2.12132 -2.12132 
C 1.55874 -2.683901 0.795609 -3 0 -3 
C -0.795609 -3 -1.55874 -2.683901 -2.12132 -2.12132 
C -2.683901 -1.55874 -3 -0.795609 -3 0 
C -3 0.795609 -2.683901 1.55874 -2.12132 2.12132 
C -1.55874 2.683901 -0.795609 3 0 3 
z
" id="m1c8cb05ee3" style="stroke:#36ada4;stroke-opacity:0.8;"/>
    </defs>
    <g clip-path="url(#p8d7e3f9309)">
     <use style="fill:#36ada4;fill-opacity:0.8;stroke:#36ada4;stroke-opacity:0.8;" x="109.390503" xlink:href="#m1c8cb05ee3" y="298.555537"/>
     <use style="fill:#36ada4;fill-opacity:0.8;stroke:#36ada4;stroke-opacity:0.8;" x="185.93449" xlink:href="#m1c8cb05ee3" y="178.259662"/>
     <use style="fill:#36ada4;fill-opacity:0.8;stroke:#36ada4;stroke-opacity:0.8;" x="262.478476" xlink:href="#m1c8cb05ee3" y="30.374197"/>
     <use style="fill:#36ada4;fill-opacity:0.8;stroke:#36ada4;stroke-opacity:0.8;" x="300.750469" xlink:href="#m1c8cb05ee3" y="172.707899"/>
     <use style="fill:#36ada4;fill-opacity:0.8;stroke:#36ada4;stroke-opacity:0.8;" x="339.022462" xlink:href="#m1c8cb05ee3" y="95.414867"/>
    </g>
   </g>
   <g id="PathCollection_9">
    <defs>
     <path d="M 0 3 
C 0.795609 3 1.55874 2.683901 2.12132 2.12132 
C 2.683901 1.55874 3 0.795609 3 0 
C 3 -0.795609 2.683901 -1.55874 2.12132 -2.12132 
C 1.55874 -2.683901 0.795609 -3 0 -3 
C -0.795609 -3 -1.55874 -2.683901 -2.12132 -2.12132 
C -2.683901 -1.55874 -3 -0.795609 -3 0 
C -3 0.795609 -2.683901 1.55874 -2.12132 2.12132 
C -1.55874 2.683901 -0.795609 3 0 3 
z
" id="m836003e4f0" style="stroke:#37aabb;stroke-opacity:0.8;"/>
    </defs>
    <g clip-path="url(#p8d7e3f9309)">
     <use style="fill:#37aabb;fill-opacity:0.8;stroke:#37aabb;stroke-opacity:0.8;" x="71.11851" xlink:href="#m836003e4f0" y="174.830478"/>
     <use style="fill:#37aabb;fill-opacity:0.8;stroke:#37aabb;stroke-opacity:0.8;" x="147.662497" xlink:href="#m836003e4f0" y="110.546875"/>
     <use style="fill:#37aabb;fill-opacity:0.8;stroke:#37aabb;stroke-opacity:0.8;" x="185.93449" xlink:href="#m836003e4f0" y="206.864818"/>
     <use style="fill:#37aabb;fill-opacity:0.8;stroke:#37aabb;stroke-opacity:0.8;" x="224.206483" xlink:href="#m836003e4f0" y="201.554744"/>
     <use style="fill:#37aabb;fill-opacity:0.8;stroke:#37aabb;stroke-opacity:0.8;" x="262.478476" xlink:href="#m836003e4f0" y="188.559954"/>
     <use style="fill:#37aabb;fill-opacity:0.8;stroke:#37aabb;stroke-opacity:0.8;" x="300.750469" xlink:href="#m836003e4f0" y="199.61689"/>
    </g>
   </g>
   <g id="PathCollection_10">
    <defs>
     <path d="M 0 3 
C 0.795609 3 1.55874 2.683901 2.12132 2.12132 
C 2.683901 1.55874 3 0.795609 3 0 
C 3 -0.795609 2.683901 -1.55874 2.12132 -2.12132 
C 1.55874 -2.683901 0.795609 -3 0 -3 
C -0.795609 -3 -1.55874 -2.683901 -2.12132 -2.12132 
C -2.683901 -1.55874 -3 -0.795609 -3 0 
C -3 0.795609 -2.683901 1.55874 -2.12132 2.12132 
C -1.55874 2.683901 -0.795609 3 0 3 
z
" id="mfad1b350ca" style="stroke:#3aa6da;stroke-opacity:0.8;"/>
    </defs>
    <g clip-path="url(#p8d7e3f9309)">
     <use style="fill:#3aa6da;fill-opacity:0.8;stroke:#3aa6da;stroke-opacity:0.8;" x="71.11851" xlink:href="#mfad1b350ca" y="290.504958"/>
     <use style="fill:#3aa6da;fill-opacity:0.8;stroke:#3aa6da;stroke-opacity:0.8;" x="185.93449" xlink:href="#mfad1b350ca" y="261.028756"/>
     <use style="fill:#3aa6da;fill-opacity:0.8;stroke:#3aa6da;stroke-opacity:0.8;" x="262.478476" xlink:href="#mfad1b350ca" y="294.155741"/>
     <use style="fill:#3aa6da;fill-opacity:0.8;stroke:#3aa6da;stroke-opacity:0.8;" x="339.022462" xlink:href="#mfad1b350ca" y="164.1563"/>
    </g>
   </g>
   <g id="PathCollection_11">
    <defs>
     <path d="M 0 3 
C 0.795609 3 1.55874 2.683901 2.12132 2.12132 
C 2.683901 1.55874 3 0.795609 3 0 
C 3 -0.795609 2.683901 -1.55874 2.12132 -2.12132 
C 1.55874 -2.683901 0.795609 -3 0 -3 
C -0.795609 -3 -1.55874 -2.683901 -2.12132 -2.12132 
C -2.683901 -1.55874 -3 -0.795609 -3 0 
C -3 0.795609 -2.683901 1.55874 -2.12132 2.12132 
C -1.55874 2.683901 -0.795609 3 0 3 
z
" id="m42783fe350" style="stroke:#8197f4;stroke-opacity:0.8;"/>
    </defs>
    <g clip-path="url(#p8d7e3f9309)">
     <use style="fill:#8197f4;fill-opacity:0.8;stroke:#8197f4;stroke-opacity:0.8;" x="71.11851" xlink:href="#m42783fe350" y="297.021462"/>
     <use style="fill:#8197f4;fill-opacity:0.8;stroke:#8197f4;stroke-opacity:0.8;" x="109.390503" xlink:href="#m42783fe350" y="280.792857"/>
     <use style="fill:#8197f4;fill-opacity:0.8;stroke:#8197f4;stroke-opacity:0.8;" x="185.93449" xlink:href="#m42783fe350" y="191.897843"/>
     <use style="fill:#8197f4;fill-opacity:0.8;stroke:#8197f4;stroke-opacity:0.8;" x="224.206483" xlink:href="#m42783fe350" y="193.46824"/>
     <use style="fill:#8197f4;fill-opacity:0.8;stroke:#8197f4;stroke-opacity:0.8;" x="262.478476" xlink:href="#m42783fe350" y="222.081356"/>
     <use style="fill:#8197f4;fill-opacity:0.8;stroke:#8197f4;stroke-opacity:0.8;" x="300.750469" xlink:href="#m42783fe350" y="212.648972"/>
     <use style="fill:#8197f4;fill-opacity:0.8;stroke:#8197f4;stroke-opacity:0.8;" x="339.022462" xlink:href="#m42783fe350" y="232.99271"/>
    </g>
   </g>
   <g id="PathCollection_12">
    <defs>
     <path d="M 0 3 
C 0.795609 3 1.55874 2.683901 2.12132 2.12132 
C 2.683901 1.55874 3 0.795609 3 0 
C 3 -0.795609 2.683901 -1.55874 2.12132 -2.12132 
C 1.55874 -2.683901 0.795609 -3 0 -3 
C -0.795609 -3 -1.55874 -2.683901 -2.12132 -2.12132 
C -2.683901 -1.55874 -3 -0.795609 -3 0 
C -3 0.795609 -2.683901 1.55874 -2.12132 2.12132 
C -1.55874 2.683901 -0.795609 3 0 3 
z
" id="m44cc47e4fc" style="stroke:#c180f4;stroke-opacity:0.8;"/>
    </defs>
    <g clip-path="url(#p8d7e3f9309)">
     <use style="fill:#c180f4;fill-opacity:0.8;stroke:#c180f4;stroke-opacity:0.8;" x="109.390503" xlink:href="#m44cc47e4fc" y="291.104461"/>
     <use style="fill:#c180f4;fill-opacity:0.8;stroke:#c180f4;stroke-opacity:0.8;" x="147.662497" xlink:href="#m44cc47e4fc" y="242.494515"/>
     <use style="fill:#c180f4;fill-opacity:0.8;stroke:#c180f4;stroke-opacity:0.8;" x="185.93449" xlink:href="#m44cc47e4fc" y="226.607855"/>
     <use style="fill:#c180f4;fill-opacity:0.8;stroke:#c180f4;stroke-opacity:0.8;" x="262.478476" xlink:href="#m44cc47e4fc" y="292.380541"/>
     <use style="fill:#c180f4;fill-opacity:0.8;stroke:#c180f4;stroke-opacity:0.8;" x="300.750469" xlink:href="#m44cc47e4fc" y="293.432626"/>
     <use style="fill:#c180f4;fill-opacity:0.8;stroke:#c180f4;stroke-opacity:0.8;" x="339.022462" xlink:href="#m44cc47e4fc" y="299.830574"/>
    </g>
   </g>
   <g id="PathCollection_13">
    <defs>
     <path d="M 0 3 
C 0.795609 3 1.55874 2.683901 2.12132 2.12132 
C 2.683901 1.55874 3 0.795609 3 0 
C 3 -0.795609 2.683901 -1.55874 2.12132 -2.12132 
C 1.55874 -2.683901 0.795609 -3 0 -3 
C -0.795609 -3 -1.55874 -2.683901 -2.12132 -2.12132 
C -2.683901 -1.55874 -3 -0.795609 -3 0 
C -3 0.795609 -2.683901 1.55874 -2.12132 2.12132 
C -1.55874 2.683901 -0.795609 3 0 3 
z
" id="m1bab99956b" style="stroke:#f45deb;stroke-opacity:0.8;"/>
    </defs>
    <g clip-path="url(#p8d7e3f9309)">
     <use style="fill:#f45deb;fill-opacity:0.8;stroke:#f45deb;stroke-opacity:0.8;" x="71.11851" xlink:href="#m1bab99956b" y="303.417827"/>
     <use style="fill:#f45deb;fill-opacity:0.8;stroke:#f45deb;stroke-opacity:0.8;" x="109.390503" xlink:href="#m1bab99956b" y="302.634056"/>
     <use style="fill:#f45deb;fill-opacity:0.8;stroke:#f45deb;stroke-opacity:0.8;" x="147.662497" xlink:href="#m1bab99956b" y="303.324186"/>
     <use style="fill:#f45deb;fill-opacity:0.8;stroke:#f45deb;stroke-opacity:0.8;" x="185.93449" xlink:href="#m1bab99956b" y="302.05219"/>
     <use style="fill:#f45deb;fill-opacity:0.8;stroke:#f45deb;stroke-opacity:0.8;" x="224.206483" xlink:href="#m1bab99956b" y="295.669031"/>
     <use style="fill:#f45deb;fill-opacity:0.8;stroke:#f45deb;stroke-opacity:0.8;" x="262.478476" xlink:href="#m1bab99956b" y="302.760531"/>
     <use style="fill:#f45deb;fill-opacity:0.8;stroke:#f45deb;stroke-opacity:0.8;" x="300.750469" xlink:href="#m1bab99956b" y="302.402957"/>
    </g>
   </g>
   <g id="PathCollection_14">
    <defs>
     <path d="M 0 3 
C 0.795609 3 1.55874 2.683901 2.12132 2.12132 
C 2.683901 1.55874 3 0.795609 3 0 
C 3 -0.795609 2.683901 -1.55874 2.12132 -2.12132 
C 1.55874 -2.683901 0.795609 -3 0 -3 
C -0.795609 -3 -1.55874 -2.683901 -2.12132 -2.12132 
C -2.683901 -1.55874 -3 -0.795609 -3 0 
C -3 0.795609 -2.683901 1.55874 -2.12132 2.12132 
C -1.55874 2.683901 -0.795609 3 0 3 
z
" id="me8bb7164e8" style="stroke:#f669ba;stroke-opacity:0.8;"/>
    </defs>
    <g clip-path="url(#p8d7e3f9309)">
     <use style="fill:#f669ba;fill-opacity:0.8;stroke:#f669ba;stroke-opacity:0.8;" x="71.11851" xlink:href="#me8bb7164e8" y="302.954207"/>
     <use style="fill:#f669ba;fill-opacity:0.8;stroke:#f669ba;stroke-opacity:0.8;" x="109.390503" xlink:href="#me8bb7164e8" y="299.842287"/>
     <use style="fill:#f669ba;fill-opacity:0.8;stroke:#f669ba;stroke-opacity:0.8;" x="147.662497" xlink:href="#me8bb7164e8" y="301.544941"/>
     <use style="fill:#f669ba;fill-opacity:0.8;stroke:#f669ba;stroke-opacity:0.8;" x="224.206483" xlink:href="#me8bb7164e8" y="302.247024"/>
     <use style="fill:#f669ba;fill-opacity:0.8;stroke:#f669ba;stroke-opacity:0.8;" x="262.478476" xlink:href="#me8bb7164e8" y="302.802582"/>
     <use style="fill:#f669ba;fill-opacity:0.8;stroke:#f669ba;stroke-opacity:0.8;" x="300.750469" xlink:href="#me8bb7164e8" y="303.313082"/>
     <use style="fill:#f669ba;fill-opacity:0.8;stroke:#f669ba;stroke-opacity:0.8;" x="339.022462" xlink:href="#me8bb7164e8" y="302.875698"/>
    </g>
   </g>
   <g id="line2d_1">
    <path clip-path="url(#p8d7e3f9309)" d="M 71.11851 220.282134 
L 73.824611 220.107834 
L 76.530711 219.933533 
L 79.236812 219.759232 
L 81.942913 219.584931 
L 84.649013 219.410631 
L 87.355114 219.23633 
L 90.061214 219.062029 
L 92.767315 218.887728 
L 95.473415 218.713427 
L 98.179516 218.539127 
L 100.885616 218.364826 
L 103.591717 218.190525 
L 106.297817 218.016224 
L 109.003918 217.841924 
L 111.710018 217.667623 
L 114.416119 217.493322 
L 117.122219 217.319021 
L 119.82832 217.14472 
L 122.53442 216.97042 
L 125.240521 216.796119 
L 127.946621 216.621818 
L 130.652722 216.447517 
L 133.358822 216.273216 
L 136.064923 216.098916 
L 138.771023 215.924615 
L 141.477124 215.750314 
L 144.183224 215.576013 
L 146.889325 215.401713 
L 149.595425 215.227412 
L 152.301526 215.053111 
L 155.007627 214.87881 
L 157.713727 214.704509 
L 160.419828 214.530209 
L 163.125928 214.355908 
L 165.832029 214.181607 
L 168.538129 214.007306 
L 171.24423 213.833006 
L 173.95033 213.658705 
L 176.656431 213.484404 
L 179.362531 213.310103 
L 182.068632 213.135802 
L 184.774732 212.961502 
L 187.480833 212.787201 
L 190.186933 212.6129 
L 192.893034 212.438599 
L 195.599134 212.264299 
L 198.305235 212.089998 
L 201.011335 211.915697 
L 203.717436 211.741396 
L 206.423536 211.567095 
L 209.129637 211.392795 
L 211.835737 211.218494 
L 214.541838 211.044193 
L 217.247938 210.869892 
L 219.954039 210.695592 
L 222.660139 210.521291 
L 225.36624 210.34699 
L 228.072341 210.172689 
L 230.778441 209.998388 
L 233.484542 209.824088 
L 236.190642 209.649787 
L 238.896743 209.475486 
L 241.602843 209.301185 
L 244.308944 209.126884 
L 247.015044 208.952584 
L 249.721145 208.778283 
L 252.427245 208.603982 
L 255.133346 208.429681 
L 257.839446 208.255381 
L 260.545547 208.08108 
L 263.251647 207.906779 
L 265.957748 207.732478 
L 268.663848 207.558177 
L 271.369949 207.383877 
L 274.076049 207.209576 
L 276.78215 207.035275 
L 279.48825 206.860974 
L 282.194351 206.686674 
L 284.900451 206.512373 
L 287.606552 206.338072 
L 290.312652 206.163771 
L 293.018753 205.98947 
L 295.724853 205.81517 
L 298.430954 205.640869 
L 301.137055 205.466568 
L 303.843155 205.292267 
L 306.549256 205.117967 
L 309.255356 204.943666 
L 311.961457 204.769365 
L 314.667557 204.595064 
L 317.373658 204.420763 
L 320.079758 204.246463 
L 322.785859 204.072162 
L 325.491959 203.897861 
L 328.19806 203.72356 
L 330.90416 203.549259 
L 333.610261 203.374959 
L 336.316361 203.200658 
L 339.022462 203.026357 
" style="fill:none;stroke:#f77189;stroke-linecap:round;stroke-width:2.25;"/>
   </g>
   <g id="line2d_2">
    <path clip-path="url(#p8d7e3f9309)" d="M 71.11851 278.469696 
L 73.824611 278.663402 
L 76.530711 278.857109 
L 79.236812 279.050816 
L 81.942913 279.244522 
L 84.649013 279.438229 
L 87.355114 279.631935 
L 90.061214 279.825642 
L 92.767315 280.019348 
L 95.473415 280.213055 
L 98.179516 280.406762 
L 100.885616 280.600468 
L 103.591717 280.794175 
L 106.297817 280.987881 
L 109.003918 281.181588 
L 111.710018 281.375294 
L 114.416119 281.569001 
L 117.122219 281.762708 
L 119.82832 281.956414 
L 122.53442 282.150121 
L 125.240521 282.343827 
L 127.946621 282.537534 
L 130.652722 282.73124 
L 133.358822 282.924947 
L 136.064923 283.118654 
L 138.771023 283.31236 
L 141.477124 283.506067 
L 144.183224 283.699773 
L 146.889325 283.89348 
L 149.595425 284.087186 
L 152.301526 284.280893 
L 155.007627 284.4746 
L 157.713727 284.668306 
L 160.419828 284.862013 
L 163.125928 285.055719 
L 165.832029 285.249426 
L 168.538129 285.443132 
L 171.24423 285.636839 
L 173.95033 285.830546 
L 176.656431 286.024252 
L 179.362531 286.217959 
L 182.068632 286.411665 
L 184.774732 286.605372 
L 187.480833 286.799078 
L 190.186933 286.992785 
L 192.893034 287.186492 
L 195.599134 287.380198 
L 198.305235 287.573905 
L 201.011335 287.767611 
L 203.717436 287.961318 
L 206.423536 288.155024 
L 209.129637 288.348731 
L 211.835737 288.542438 
L 214.541838 288.736144 
L 217.247938 288.929851 
L 219.954039 289.123557 
L 222.660139 289.317264 
L 225.36624 289.51097 
L 228.072341 289.704677 
L 230.778441 289.898384 
L 233.484542 290.09209 
L 236.190642 290.285797 
L 238.896743 290.479503 
L 241.602843 290.67321 
L 244.308944 290.866916 
L 247.015044 291.060623 
L 249.721145 291.25433 
L 252.427245 291.448036 
L 255.133346 291.641743 
L 257.839446 291.835449 
L 260.545547 292.029156 
L 263.251647 292.222862 
L 265.957748 292.416569 
L 268.663848 292.610276 
L 271.369949 292.803982 
L 274.076049 292.997689 
L 276.78215 293.191395 
L 279.48825 293.385102 
L 282.194351 293.578808 
L 284.900451 293.772515 
L 287.606552 293.966222 
L 290.312652 294.159928 
L 293.018753 294.353635 
L 295.724853 294.547341 
L 298.430954 294.741048 
L 301.137055 294.934754 
L 303.843155 295.128461 
L 306.549256 295.322168 
L 309.255356 295.515874 
L 311.961457 295.709581 
L 314.667557 295.903287 
L 317.373658 296.096994 
L 320.079758 296.2907 
L 322.785859 296.484407 
L 325.491959 296.678114 
L 328.19806 296.87182 
L 330.90416 297.065527 
L 333.610261 297.259233 
L 336.316361 297.45294 
L 339.022462 297.646646 
" style="fill:none;stroke:#ef7d32;stroke-linecap:round;stroke-width:2.25;"/>
   </g>
   <g id="line2d_3">
    <path clip-path="url(#p8d7e3f9309)" d="M 109.390503 270.9139 
L 111.710018 269.687705 
L 114.029533 268.46151 
L 116.349048 267.235315 
L 118.668562 266.00912 
L 120.988077 264.782925 
L 123.307592 263.55673 
L 125.627107 262.330535 
L 127.946621 261.10434 
L 130.266136 259.878146 
L 132.585651 258.651951 
L 134.905166 257.425756 
L 137.22468 256.199561 
L 139.544195 254.973366 
L 141.86371 253.747171 
L 144.183224 252.520976 
L 146.502739 251.294781 
L 148.822254 250.068586 
L 151.141769 248.842391 
L 153.461283 247.616196 
L 155.780798 246.390002 
L 158.100313 245.163807 
L 160.419828 243.937612 
L 162.739342 242.711417 
L 165.058857 241.485222 
L 167.378372 240.259027 
L 169.697886 239.032832 
L 172.017401 237.806637 
L 174.336916 236.580442 
L 176.656431 235.354247 
L 178.975945 234.128053 
L 181.29546 232.901858 
L 183.614975 231.675663 
L 185.93449 230.449468 
L 188.254004 229.223273 
L 190.573519 227.997078 
L 192.893034 226.770883 
L 195.212549 225.544688 
L 197.532063 224.318493 
L 199.851578 223.092298 
L 202.171093 221.866104 
L 204.490607 220.639909 
L 206.810122 219.413714 
L 209.129637 218.187519 
L 211.449152 216.961324 
L 213.768666 215.735129 
L 216.088181 214.508934 
L 218.407696 213.282739 
L 220.727211 212.056544 
L 223.046725 210.830349 
L 225.36624 209.604155 
L 227.685755 208.37796 
L 230.005269 207.151765 
L 232.324784 205.92557 
L 234.644299 204.699375 
L 236.963814 203.47318 
L 239.283328 202.246985 
L 241.602843 201.02079 
L 243.922358 199.794595 
L 246.241873 198.5684 
L 248.561387 197.342205 
L 250.880902 196.116011 
L 253.200417 194.889816 
L 255.519931 193.663621 
L 257.839446 192.437426 
L 260.158961 191.211231 
L 262.478476 189.985036 
L 264.79799 188.758841 
L 267.117505 187.532646 
L 269.43702 186.306451 
L 271.756535 185.080256 
L 274.076049 183.854062 
L 276.395564 182.627867 
L 278.715079 181.401672 
L 281.034594 180.175477 
L 283.354108 178.949282 
L 285.673623 177.723087 
L 287.993138 176.496892 
L 290.312652 175.270697 
L 292.632167 174.044502 
L 294.951682 172.818307 
L 297.271197 171.592113 
L 299.590711 170.365918 
L 301.910226 169.139723 
L 304.229741 167.913528 
L 306.549256 166.687333 
L 308.86877 165.461138 
L 311.188285 164.234943 
L 313.5078 163.008748 
L 315.827314 161.782553 
L 318.146829 160.556358 
L 320.466344 159.330164 
L 322.785859 158.103969 
L 325.105373 156.877774 
L 327.424888 155.651579 
L 329.744403 154.425384 
L 332.063918 153.199189 
L 334.383432 151.972994 
L 336.702947 150.746799 
L 339.022462 149.520604 
" style="fill:none;stroke:#c69432;stroke-linecap:round;stroke-width:2.25;"/>
   </g>
   <g id="line2d_4">
    <path clip-path="url(#p8d7e3f9309)" d="M 71.11851 262.792725 
L 73.824611 262.921252 
L 76.530711 263.049778 
L 79.236812 263.178305 
L 81.942913 263.306831 
L 84.649013 263.435358 
L 87.355114 263.563885 
L 90.061214 263.692411 
L 92.767315 263.820938 
L 95.473415 263.949464 
L 98.179516 264.077991 
L 100.885616 264.206518 
L 103.591717 264.335044 
L 106.297817 264.463571 
L 109.003918 264.592097 
L 111.710018 264.720624 
L 114.416119 264.84915 
L 117.122219 264.977677 
L 119.82832 265.106204 
L 122.53442 265.23473 
L 125.240521 265.363257 
L 127.946621 265.491783 
L 130.652722 265.62031 
L 133.358822 265.748836 
L 136.064923 265.877363 
L 138.771023 266.00589 
L 141.477124 266.134416 
L 144.183224 266.262943 
L 146.889325 266.391469 
L 149.595425 266.519996 
L 152.301526 266.648522 
L 155.007627 266.777049 
L 157.713727 266.905576 
L 160.419828 267.034102 
L 163.125928 267.162629 
L 165.832029 267.291155 
L 168.538129 267.419682 
L 171.24423 267.548208 
L 173.95033 267.676735 
L 176.656431 267.805262 
L 179.362531 267.933788 
L 182.068632 268.062315 
L 184.774732 268.190841 
L 187.480833 268.319368 
L 190.186933 268.447895 
L 192.893034 268.576421 
L 195.599134 268.704948 
L 198.305235 268.833474 
L 201.011335 268.962001 
L 203.717436 269.090527 
L 206.423536 269.219054 
L 209.129637 269.347581 
L 211.835737 269.476107 
L 214.541838 269.604634 
L 217.247938 269.73316 
L 219.954039 269.861687 
L 222.660139 269.990213 
L 225.36624 270.11874 
L 228.072341 270.247267 
L 230.778441 270.375793 
L 233.484542 270.50432 
L 236.190642 270.632846 
L 238.896743 270.761373 
L 241.602843 270.889899 
L 244.308944 271.018426 
L 247.015044 271.146953 
L 249.721145 271.275479 
L 252.427245 271.404006 
L 255.133346 271.532532 
L 257.839446 271.661059 
L 260.545547 271.789585 
L 263.251647 271.918112 
L 265.957748 272.046639 
L 268.663848 272.175165 
L 271.369949 272.303692 
L 274.076049 272.432218 
L 276.78215 272.560745 
L 279.48825 272.689272 
L 282.194351 272.817798 
L 284.900451 272.946325 
L 287.606552 273.074851 
L 290.312652 273.203378 
L 293.018753 273.331904 
L 295.724853 273.460431 
L 298.430954 273.588958 
L 301.137055 273.717484 
L 303.843155 273.846011 
L 306.549256 273.974537 
L 309.255356 274.103064 
L 311.961457 274.23159 
L 314.667557 274.360117 
L 317.373658 274.488644 
L 320.079758 274.61717 
L 322.785859 274.745697 
L 325.491959 274.874223 
L 328.19806 275.00275 
L 330.90416 275.131276 
L 333.610261 275.259803 
L 336.316361 275.38833 
L 339.022462 275.516856 
" style="fill:none;stroke:#a79f31;stroke-linecap:round;stroke-width:2.25;"/>
   </g>
   <g id="line2d_5">
    <path clip-path="url(#p8d7e3f9309)" d="M 71.11851 289.702921 
L 73.824611 289.662007 
L 76.530711 289.621093 
L 79.236812 289.58018 
L 81.942913 289.539266 
L 84.649013 289.498352 
L 87.355114 289.457439 
L 90.061214 289.416525 
L 92.767315 289.375611 
L 95.473415 289.334698 
L 98.179516 289.293784 
L 100.885616 289.25287 
L 103.591717 289.211957 
L 106.297817 289.171043 
L 109.003918 289.130129 
L 111.710018 289.089215 
L 114.416119 289.048302 
L 117.122219 289.007388 
L 119.82832 288.966474 
L 122.53442 288.925561 
L 125.240521 288.884647 
L 127.946621 288.843733 
L 130.652722 288.80282 
L 133.358822 288.761906 
L 136.064923 288.720992 
L 138.771023 288.680079 
L 141.477124 288.639165 
L 144.183224 288.598251 
L 146.889325 288.557337 
L 149.595425 288.516424 
L 152.301526 288.47551 
L 155.007627 288.434596 
L 157.713727 288.393683 
L 160.419828 288.352769 
L 163.125928 288.311855 
L 165.832029 288.270942 
L 168.538129 288.230028 
L 171.24423 288.189114 
L 173.95033 288.1482 
L 176.656431 288.107287 
L 179.362531 288.066373 
L 182.068632 288.025459 
L 184.774732 287.984546 
L 187.480833 287.943632 
L 190.186933 287.902718 
L 192.893034 287.861805 
L 195.599134 287.820891 
L 198.305235 287.779977 
L 201.011335 287.739064 
L 203.717436 287.69815 
L 206.423536 287.657236 
L 209.129637 287.616322 
L 211.835737 287.575409 
L 214.541838 287.534495 
L 217.247938 287.493581 
L 219.954039 287.452668 
L 222.660139 287.411754 
L 225.36624 287.37084 
L 228.072341 287.329927 
L 230.778441 287.289013 
L 233.484542 287.248099 
L 236.190642 287.207185 
L 238.896743 287.166272 
L 241.602843 287.125358 
L 244.308944 287.084444 
L 247.015044 287.043531 
L 249.721145 287.002617 
L 252.427245 286.961703 
L 255.133346 286.92079 
L 257.839446 286.879876 
L 260.545547 286.838962 
L 263.251647 286.798049 
L 265.957748 286.757135 
L 268.663848 286.716221 
L 271.369949 286.675307 
L 274.076049 286.634394 
L 276.78215 286.59348 
L 279.48825 286.552566 
L 282.194351 286.511653 
L 284.900451 286.470739 
L 287.606552 286.429825 
L 290.312652 286.388912 
L 293.018753 286.347998 
L 295.724853 286.307084 
L 298.430954 286.266171 
L 301.137055 286.225257 
L 303.843155 286.184343 
L 306.549256 286.143429 
L 309.255356 286.102516 
L 311.961457 286.061602 
L 314.667557 286.020688 
L 317.373658 285.979775 
L 320.079758 285.938861 
L 322.785859 285.897947 
L 325.491959 285.857034 
L 328.19806 285.81612 
L 330.90416 285.775206 
L 333.610261 285.734292 
L 336.316361 285.693379 
L 339.022462 285.652465 
" style="fill:none;stroke:#82a931;stroke-linecap:round;stroke-width:2.25;"/>
   </g>
   <g id="line2d_6">
    <path clip-path="url(#p8d7e3f9309)" d="M 109.390503 129.509206 
L 111.710018 130.01451 
L 114.029533 130.519814 
L 116.349048 131.025118 
L 118.668562 131.530422 
L 120.988077 132.035726 
L 123.307592 132.54103 
L 125.627107 133.046334 
L 127.946621 133.551639 
L 130.266136 134.056943 
L 132.585651 134.562247 
L 134.905166 135.067551 
L 137.22468 135.572855 
L 139.544195 136.078159 
L 141.86371 136.583463 
L 144.183224 137.088767 
L 146.502739 137.594071 
L 148.822254 138.099375 
L 151.141769 138.604679 
L 153.461283 139.109983 
L 155.780798 139.615287 
L 158.100313 140.120591 
L 160.419828 140.625895 
L 162.739342 141.131199 
L 165.058857 141.636503 
L 167.378372 142.141807 
L 169.697886 142.647112 
L 172.017401 143.152416 
L 174.336916 143.65772 
L 176.656431 144.163024 
L 178.975945 144.668328 
L 181.29546 145.173632 
L 183.614975 145.678936 
L 185.93449 146.18424 
L 188.254004 146.689544 
L 190.573519 147.194848 
L 192.893034 147.700152 
L 195.212549 148.205456 
L 197.532063 148.71076 
L 199.851578 149.216064 
L 202.171093 149.721368 
L 204.490607 150.226672 
L 206.810122 150.731976 
L 209.129637 151.23728 
L 211.449152 151.742585 
L 213.768666 152.247889 
L 216.088181 152.753193 
L 218.407696 153.258497 
L 220.727211 153.763801 
L 223.046725 154.269105 
L 225.36624 154.774409 
L 227.685755 155.279713 
L 230.005269 155.785017 
L 232.324784 156.290321 
L 234.644299 156.795625 
L 236.963814 157.300929 
L 239.283328 157.806233 
L 241.602843 158.311537 
L 243.922358 158.816841 
L 246.241873 159.322145 
L 248.561387 159.827449 
L 250.880902 160.332754 
L 253.200417 160.838058 
L 255.519931 161.343362 
L 257.839446 161.848666 
L 260.158961 162.35397 
L 262.478476 162.859274 
L 264.79799 163.364578 
L 267.117505 163.869882 
L 269.43702 164.375186 
L 271.756535 164.88049 
L 274.076049 165.385794 
L 276.395564 165.891098 
L 278.715079 166.396402 
L 281.034594 166.901706 
L 283.354108 167.40701 
L 285.673623 167.912314 
L 287.993138 168.417618 
L 290.312652 168.922922 
L 292.632167 169.428227 
L 294.951682 169.933531 
L 297.271197 170.438835 
L 299.590711 170.944139 
L 301.910226 171.449443 
L 304.229741 171.954747 
L 306.549256 172.460051 
L 308.86877 172.965355 
L 311.188285 173.470659 
L 313.5078 173.975963 
L 315.827314 174.481267 
L 318.146829 174.986571 
L 320.466344 175.491875 
L 322.785859 175.997179 
L 325.105373 176.502483 
L 327.424888 177.007787 
L 329.744403 177.513091 
L 332.063918 178.018395 
L 334.383432 178.5237 
L 336.702947 179.029004 
L 339.022462 179.534308 
" style="fill:none;stroke:#32b24e;stroke-linecap:round;stroke-width:2.25;"/>
   </g>
   <g id="line2d_7">
    <path clip-path="url(#p8d7e3f9309)" d="M 71.11851 229.189304 
L 73.824611 228.643494 
L 76.530711 228.097683 
L 79.236812 227.551872 
L 81.942913 227.006061 
L 84.649013 226.46025 
L 87.355114 225.91444 
L 90.061214 225.368629 
L 92.767315 224.822818 
L 95.473415 224.277007 
L 98.179516 223.731196 
L 100.885616 223.185386 
L 103.591717 222.639575 
L 106.297817 222.093764 
L 109.003918 221.547953 
L 111.710018 221.002142 
L 114.416119 220.456332 
L 117.122219 219.910521 
L 119.82832 219.36471 
L 122.53442 218.818899 
L 125.240521 218.273088 
L 127.946621 217.727277 
L 130.652722 217.181467 
L 133.358822 216.635656 
L 136.064923 216.089845 
L 138.771023 215.544034 
L 141.477124 214.998223 
L 144.183224 214.452413 
L 146.889325 213.906602 
L 149.595425 213.360791 
L 152.301526 212.81498 
L 155.007627 212.269169 
L 157.713727 211.723359 
L 160.419828 211.177548 
L 163.125928 210.631737 
L 165.832029 210.085926 
L 168.538129 209.540115 
L 171.24423 208.994305 
L 173.95033 208.448494 
L 176.656431 207.902683 
L 179.362531 207.356872 
L 182.068632 206.811061 
L 184.774732 206.26525 
L 187.480833 205.71944 
L 190.186933 205.173629 
L 192.893034 204.627818 
L 195.599134 204.082007 
L 198.305235 203.536196 
L 201.011335 202.990386 
L 203.717436 202.444575 
L 206.423536 201.898764 
L 209.129637 201.352953 
L 211.835737 200.807142 
L 214.541838 200.261332 
L 217.247938 199.715521 
L 219.954039 199.16971 
L 222.660139 198.623899 
L 225.36624 198.078088 
L 228.072341 197.532277 
L 230.778441 196.986467 
L 233.484542 196.440656 
L 236.190642 195.894845 
L 238.896743 195.349034 
L 241.602843 194.803223 
L 244.308944 194.257413 
L 247.015044 193.711602 
L 249.721145 193.165791 
L 252.427245 192.61998 
L 255.133346 192.074169 
L 257.839446 191.528359 
L 260.545547 190.982548 
L 263.251647 190.436737 
L 265.957748 189.890926 
L 268.663848 189.345115 
L 271.369949 188.799305 
L 274.076049 188.253494 
L 276.78215 187.707683 
L 279.48825 187.161872 
L 282.194351 186.616061 
L 284.900451 186.07025 
L 287.606552 185.52444 
L 290.312652 184.978629 
L 293.018753 184.432818 
L 295.724853 183.887007 
L 298.430954 183.341196 
L 301.137055 182.795386 
L 303.843155 182.249575 
L 306.549256 181.703764 
L 309.255356 181.157953 
L 311.961457 180.612142 
L 314.667557 180.066332 
L 317.373658 179.520521 
L 320.079758 178.97471 
L 322.785859 178.428899 
L 325.491959 177.883088 
L 328.19806 177.337277 
L 330.90416 176.791467 
L 333.610261 176.245656 
L 336.316361 175.699845 
L 339.022462 175.154034 
" style="fill:none;stroke:#34af8a;stroke-linecap:round;stroke-width:2.25;"/>
   </g>
   <g id="line2d_8">
    <path clip-path="url(#p8d7e3f9309)" d="M 109.390503 260.875201 
L 111.710018 258.989056 
L 114.029533 257.10291 
L 116.349048 255.216764 
L 118.668562 253.330619 
L 120.988077 251.444473 
L 123.307592 249.558328 
L 125.627107 247.672182 
L 127.946621 245.786036 
L 130.266136 243.899891 
L 132.585651 242.013745 
L 134.905166 240.127599 
L 137.22468 238.241454 
L 139.544195 236.355308 
L 141.86371 234.469163 
L 144.183224 232.583017 
L 146.502739 230.696871 
L 148.822254 228.810726 
L 151.141769 226.92458 
L 153.461283 225.038434 
L 155.780798 223.152289 
L 158.100313 221.266143 
L 160.419828 219.379998 
L 162.739342 217.493852 
L 165.058857 215.607706 
L 167.378372 213.721561 
L 169.697886 211.835415 
L 172.017401 209.94927 
L 174.336916 208.063124 
L 176.656431 206.176978 
L 178.975945 204.290833 
L 181.29546 202.404687 
L 183.614975 200.518541 
L 185.93449 198.632396 
L 188.254004 196.74625 
L 190.573519 194.860105 
L 192.893034 192.973959 
L 195.212549 191.087813 
L 197.532063 189.201668 
L 199.851578 187.315522 
L 202.171093 185.429377 
L 204.490607 183.543231 
L 206.810122 181.657085 
L 209.129637 179.77094 
L 211.449152 177.884794 
L 213.768666 175.998648 
L 216.088181 174.112503 
L 218.407696 172.226357 
L 220.727211 170.340212 
L 223.046725 168.454066 
L 225.36624 166.56792 
L 227.685755 164.681775 
L 230.005269 162.795629 
L 232.324784 160.909484 
L 234.644299 159.023338 
L 236.963814 157.137192 
L 239.283328 155.251047 
L 241.602843 153.364901 
L 243.922358 151.478755 
L 246.241873 149.59261 
L 248.561387 147.706464 
L 250.880902 145.820319 
L 253.200417 143.934173 
L 255.519931 142.048027 
L 257.839446 140.161882 
L 260.158961 138.275736 
L 262.478476 136.389591 
L 264.79799 134.503445 
L 267.117505 132.617299 
L 269.43702 130.731154 
L 271.756535 128.845008 
L 274.076049 126.958862 
L 276.395564 125.072717 
L 278.715079 123.186571 
L 281.034594 121.300426 
L 283.354108 119.41428 
L 285.673623 117.528134 
L 287.993138 115.641989 
L 290.312652 113.755843 
L 292.632167 111.869698 
L 294.951682 109.983552 
L 297.271197 108.097406 
L 299.590711 106.211261 
L 301.910226 104.325115 
L 304.229741 102.438969 
L 306.549256 100.552824 
L 308.86877 98.666678 
L 311.188285 96.780533 
L 313.5078 94.894387 
L 315.827314 93.008241 
L 318.146829 91.122096 
L 320.466344 89.23595 
L 322.785859 87.349804 
L 325.105373 85.463659 
L 327.424888 83.577513 
L 329.744403 81.691368 
L 332.063918 79.805222 
L 334.383432 77.919076 
L 336.702947 76.032931 
L 339.022462 74.146785 
" style="fill:none;stroke:#36ada4;stroke-linecap:round;stroke-width:2.25;"/>
   </g>
   <g id="line2d_9">
    <path clip-path="url(#p8d7e3f9309)" d="M 71.11851 154.353375 
L 73.438025 154.825658 
L 75.75754 155.297942 
L 78.077055 155.770225 
L 80.396569 156.242508 
L 82.716084 156.714792 
L 85.035599 157.187075 
L 87.355114 157.659358 
L 89.674628 158.131642 
L 91.994143 158.603925 
L 94.313658 159.076209 
L 96.633172 159.548492 
L 98.952687 160.020775 
L 101.272202 160.493059 
L 103.591717 160.965342 
L 105.911231 161.437625 
L 108.230746 161.909909 
L 110.550261 162.382192 
L 112.869776 162.854475 
L 115.18929 163.326759 
L 117.508805 163.799042 
L 119.82832 164.271326 
L 122.147835 164.743609 
L 124.467349 165.215892 
L 126.786864 165.688176 
L 129.106379 166.160459 
L 131.425893 166.632742 
L 133.745408 167.105026 
L 136.064923 167.577309 
L 138.384438 168.049592 
L 140.703952 168.521876 
L 143.023467 168.994159 
L 145.342982 169.466442 
L 147.662497 169.938726 
L 149.982011 170.411009 
L 152.301526 170.883293 
L 154.621041 171.355576 
L 156.940555 171.827859 
L 159.26007 172.300143 
L 161.579585 172.772426 
L 163.8991 173.244709 
L 166.218614 173.716993 
L 168.538129 174.189276 
L 170.857644 174.661559 
L 173.177159 175.133843 
L 175.496673 175.606126 
L 177.816188 176.07841 
L 180.135703 176.550693 
L 182.455217 177.022976 
L 184.774732 177.49526 
L 187.094247 177.967543 
L 189.413762 178.439826 
L 191.733276 178.91211 
L 194.052791 179.384393 
L 196.372306 179.856676 
L 198.691821 180.32896 
L 201.011335 180.801243 
L 203.33085 181.273527 
L 205.650365 181.74581 
L 207.96988 182.218093 
L 210.289394 182.690377 
L 212.608909 183.16266 
L 214.928424 183.634943 
L 217.247938 184.107227 
L 219.567453 184.57951 
L 221.886968 185.051793 
L 224.206483 185.524077 
L 226.525997 185.99636 
L 228.845512 186.468643 
L 231.165027 186.940927 
L 233.484542 187.41321 
L 235.804056 187.885494 
L 238.123571 188.357777 
L 240.443086 188.83006 
L 242.7626 189.302344 
L 245.082115 189.774627 
L 247.40163 190.24691 
L 249.721145 190.719194 
L 252.040659 191.191477 
L 254.360174 191.66376 
L 256.679689 192.136044 
L 258.999204 192.608327 
L 261.318718 193.080611 
L 263.638233 193.552894 
L 265.957748 194.025177 
L 268.277263 194.497461 
L 270.596777 194.969744 
L 272.916292 195.442027 
L 275.235807 195.914311 
L 277.555321 196.386594 
L 279.874836 196.858877 
L 282.194351 197.331161 
L 284.513866 197.803444 
L 286.83338 198.275727 
L 289.152895 198.748011 
L 291.47241 199.220294 
L 293.791925 199.692578 
L 296.111439 200.164861 
L 298.430954 200.637144 
L 300.750469 201.109428 
" style="fill:none;stroke:#37aabb;stroke-linecap:round;stroke-width:2.25;"/>
   </g>
   <g id="line2d_10">
    <path clip-path="url(#p8d7e3f9309)" d="M 71.11851 306.287959 
L 73.824611 305.273048 
L 76.530711 304.258137 
L 79.236812 303.243227 
L 81.942913 302.228316 
L 84.649013 301.213405 
L 87.355114 300.198494 
L 90.061214 299.183583 
L 92.767315 298.168673 
L 95.473415 297.153762 
L 98.179516 296.138851 
L 100.885616 295.12394 
L 103.591717 294.109029 
L 106.297817 293.094118 
L 109.003918 292.079208 
L 111.710018 291.064297 
L 114.416119 290.049386 
L 117.122219 289.034475 
L 119.82832 288.019564 
L 122.53442 287.004654 
L 125.240521 285.989743 
L 127.946621 284.974832 
L 130.652722 283.959921 
L 133.358822 282.94501 
L 136.064923 281.930099 
L 138.771023 280.915189 
L 141.477124 279.900278 
L 144.183224 278.885367 
L 146.889325 277.870456 
L 149.595425 276.855545 
L 152.301526 275.840635 
L 155.007627 274.825724 
L 157.713727 273.810813 
L 160.419828 272.795902 
L 163.125928 271.780991 
L 165.832029 270.76608 
L 168.538129 269.75117 
L 171.24423 268.736259 
L 173.95033 267.721348 
L 176.656431 266.706437 
L 179.362531 265.691526 
L 182.068632 264.676615 
L 184.774732 263.661705 
L 187.480833 262.646794 
L 190.186933 261.631883 
L 192.893034 260.616972 
L 195.599134 259.602061 
L 198.305235 258.587151 
L 201.011335 257.57224 
L 203.717436 256.557329 
L 206.423536 255.542418 
L 209.129637 254.527507 
L 211.835737 253.512596 
L 214.541838 252.497686 
L 217.247938 251.482775 
L 219.954039 250.467864 
L 222.660139 249.452953 
L 225.36624 248.438042 
L 228.072341 247.423132 
L 230.778441 246.408221 
L 233.484542 245.39331 
L 236.190642 244.378399 
L 238.896743 243.363488 
L 241.602843 242.348577 
L 244.308944 241.333667 
L 247.015044 240.318756 
L 249.721145 239.303845 
L 252.427245 238.288934 
L 255.133346 237.274023 
L 257.839446 236.259113 
L 260.545547 235.244202 
L 263.251647 234.229291 
L 265.957748 233.21438 
L 268.663848 232.199469 
L 271.369949 231.184558 
L 274.076049 230.169648 
L 276.78215 229.154737 
L 279.48825 228.139826 
L 282.194351 227.124915 
L 284.900451 226.110004 
L 287.606552 225.095094 
L 290.312652 224.080183 
L 293.018753 223.065272 
L 295.724853 222.050361 
L 298.430954 221.03545 
L 301.137055 220.020539 
L 303.843155 219.005629 
L 306.549256 217.990718 
L 309.255356 216.975807 
L 311.961457 215.960896 
L 314.667557 214.945985 
L 317.373658 213.931074 
L 320.079758 212.916164 
L 322.785859 211.901253 
L 325.491959 210.886342 
L 328.19806 209.871431 
L 330.90416 208.85652 
L 333.610261 207.84161 
L 336.316361 206.826699 
L 339.022462 205.811788 
" style="fill:none;stroke:#3aa6da;stroke-linecap:round;stroke-width:2.25;"/>
   </g>
   <g id="line2d_11">
    <path clip-path="url(#p8d7e3f9309)" d="M 71.11851 271.612448 
L 73.824611 270.877139 
L 76.530711 270.14183 
L 79.236812 269.406521 
L 81.942913 268.671212 
L 84.649013 267.935902 
L 87.355114 267.200593 
L 90.061214 266.465284 
L 92.767315 265.729975 
L 95.473415 264.994666 
L 98.179516 264.259356 
L 100.885616 263.524047 
L 103.591717 262.788738 
L 106.297817 262.053429 
L 109.003918 261.31812 
L 111.710018 260.58281 
L 114.416119 259.847501 
L 117.122219 259.112192 
L 119.82832 258.376883 
L 122.53442 257.641574 
L 125.240521 256.906264 
L 127.946621 256.170955 
L 130.652722 255.435646 
L 133.358822 254.700337 
L 136.064923 253.965028 
L 138.771023 253.229718 
L 141.477124 252.494409 
L 144.183224 251.7591 
L 146.889325 251.023791 
L 149.595425 250.288482 
L 152.301526 249.553172 
L 155.007627 248.817863 
L 157.713727 248.082554 
L 160.419828 247.347245 
L 163.125928 246.611936 
L 165.832029 245.876626 
L 168.538129 245.141317 
L 171.24423 244.406008 
L 173.95033 243.670699 
L 176.656431 242.93539 
L 179.362531 242.20008 
L 182.068632 241.464771 
L 184.774732 240.729462 
L 187.480833 239.994153 
L 190.186933 239.258844 
L 192.893034 238.523534 
L 195.599134 237.788225 
L 198.305235 237.052916 
L 201.011335 236.317607 
L 203.717436 235.582298 
L 206.423536 234.846988 
L 209.129637 234.111679 
L 211.835737 233.37637 
L 214.541838 232.641061 
L 217.247938 231.905752 
L 219.954039 231.170442 
L 222.660139 230.435133 
L 225.36624 229.699824 
L 228.072341 228.964515 
L 230.778441 228.229206 
L 233.484542 227.493896 
L 236.190642 226.758587 
L 238.896743 226.023278 
L 241.602843 225.287969 
L 244.308944 224.55266 
L 247.015044 223.81735 
L 249.721145 223.082041 
L 252.427245 222.346732 
L 255.133346 221.611423 
L 257.839446 220.876113 
L 260.545547 220.140804 
L 263.251647 219.405495 
L 265.957748 218.670186 
L 268.663848 217.934877 
L 271.369949 217.199567 
L 274.076049 216.464258 
L 276.78215 215.728949 
L 279.48825 214.99364 
L 282.194351 214.258331 
L 284.900451 213.523021 
L 287.606552 212.787712 
L 290.312652 212.052403 
L 293.018753 211.317094 
L 295.724853 210.581785 
L 298.430954 209.846475 
L 301.137055 209.111166 
L 303.843155 208.375857 
L 306.549256 207.640548 
L 309.255356 206.905239 
L 311.961457 206.169929 
L 314.667557 205.43462 
L 317.373658 204.699311 
L 320.079758 203.964002 
L 322.785859 203.228693 
L 325.491959 202.493383 
L 328.19806 201.758074 
L 330.90416 201.022765 
L 333.610261 200.287456 
L 336.316361 199.552147 
L 339.022462 198.816837 
" style="fill:none;stroke:#8197f4;stroke-linecap:round;stroke-width:2.25;"/>
   </g>
   <g id="line2d_12">
    <path clip-path="url(#p8d7e3f9309)" d="M 109.390503 253.541223 
L 111.710018 253.960763 
L 114.029533 254.380302 
L 116.349048 254.799842 
L 118.668562 255.219381 
L 120.988077 255.638921 
L 123.307592 256.05846 
L 125.627107 256.478 
L 127.946621 256.897539 
L 130.266136 257.317079 
L 132.585651 257.736618 
L 134.905166 258.156158 
L 137.22468 258.575697 
L 139.544195 258.995237 
L 141.86371 259.414776 
L 144.183224 259.834316 
L 146.502739 260.253855 
L 148.822254 260.673395 
L 151.141769 261.092934 
L 153.461283 261.512474 
L 155.780798 261.932013 
L 158.100313 262.351553 
L 160.419828 262.771092 
L 162.739342 263.190632 
L 165.058857 263.610171 
L 167.378372 264.029711 
L 169.697886 264.44925 
L 172.017401 264.86879 
L 174.336916 265.288329 
L 176.656431 265.707869 
L 178.975945 266.127408 
L 181.29546 266.546948 
L 183.614975 266.966487 
L 185.93449 267.386027 
L 188.254004 267.805566 
L 190.573519 268.225106 
L 192.893034 268.644645 
L 195.212549 269.064185 
L 197.532063 269.483724 
L 199.851578 269.903264 
L 202.171093 270.322803 
L 204.490607 270.742343 
L 206.810122 271.161882 
L 209.129637 271.581422 
L 211.449152 272.000961 
L 213.768666 272.420501 
L 216.088181 272.84004 
L 218.407696 273.25958 
L 220.727211 273.679119 
L 223.046725 274.098659 
L 225.36624 274.518198 
L 227.685755 274.937738 
L 230.005269 275.357277 
L 232.324784 275.776817 
L 234.644299 276.196356 
L 236.963814 276.615896 
L 239.283328 277.035435 
L 241.602843 277.454975 
L 243.922358 277.874514 
L 246.241873 278.294054 
L 248.561387 278.713593 
L 250.880902 279.133133 
L 253.200417 279.552672 
L 255.519931 279.972212 
L 257.839446 280.391751 
L 260.158961 280.811291 
L 262.478476 281.23083 
L 264.79799 281.65037 
L 267.117505 282.069909 
L 269.43702 282.489449 
L 271.756535 282.908988 
L 274.076049 283.328528 
L 276.395564 283.748067 
L 278.715079 284.167607 
L 281.034594 284.587146 
L 283.354108 285.006686 
L 285.673623 285.426225 
L 287.993138 285.845765 
L 290.312652 286.265304 
L 292.632167 286.684844 
L 294.951682 287.104383 
L 297.271197 287.523923 
L 299.590711 287.943462 
L 301.910226 288.363002 
L 304.229741 288.782541 
L 306.549256 289.202081 
L 308.86877 289.62162 
L 311.188285 290.04116 
L 313.5078 290.460699 
L 315.827314 290.880239 
L 318.146829 291.299778 
L 320.466344 291.719318 
L 322.785859 292.138857 
L 325.105373 292.558397 
L 327.424888 292.977936 
L 329.744403 293.397476 
L 332.063918 293.817015 
L 334.383432 294.236555 
L 336.702947 294.656094 
L 339.022462 295.075634 
" style="fill:none;stroke:#c180f4;stroke-linecap:round;stroke-width:2.25;"/>
   </g>
   <g id="line2d_13">
    <path clip-path="url(#p8d7e3f9309)" d="M 71.11851 302.870841 
L 73.438025 302.848229 
L 75.75754 302.825617 
L 78.077055 302.803005 
L 80.396569 302.780393 
L 82.716084 302.757781 
L 85.035599 302.735169 
L 87.355114 302.712556 
L 89.674628 302.689944 
L 91.994143 302.667332 
L 94.313658 302.64472 
L 96.633172 302.622108 
L 98.952687 302.599496 
L 101.272202 302.576883 
L 103.591717 302.554271 
L 105.911231 302.531659 
L 108.230746 302.509047 
L 110.550261 302.486435 
L 112.869776 302.463823 
L 115.18929 302.44121 
L 117.508805 302.418598 
L 119.82832 302.395986 
L 122.147835 302.373374 
L 124.467349 302.350762 
L 126.786864 302.32815 
L 129.106379 302.305538 
L 131.425893 302.282925 
L 133.745408 302.260313 
L 136.064923 302.237701 
L 138.384438 302.215089 
L 140.703952 302.192477 
L 143.023467 302.169865 
L 145.342982 302.147252 
L 147.662497 302.12464 
L 149.982011 302.102028 
L 152.301526 302.079416 
L 154.621041 302.056804 
L 156.940555 302.034192 
L 159.26007 302.01158 
L 161.579585 301.988967 
L 163.8991 301.966355 
L 166.218614 301.943743 
L 168.538129 301.921131 
L 170.857644 301.898519 
L 173.177159 301.875907 
L 175.496673 301.853294 
L 177.816188 301.830682 
L 180.135703 301.80807 
L 182.455217 301.785458 
L 184.774732 301.762846 
L 187.094247 301.740234 
L 189.413762 301.717622 
L 191.733276 301.695009 
L 194.052791 301.672397 
L 196.372306 301.649785 
L 198.691821 301.627173 
L 201.011335 301.604561 
L 203.33085 301.581949 
L 205.650365 301.559336 
L 207.96988 301.536724 
L 210.289394 301.514112 
L 212.608909 301.4915 
L 214.928424 301.468888 
L 217.247938 301.446276 
L 219.567453 301.423663 
L 221.886968 301.401051 
L 224.206483 301.378439 
L 226.525997 301.355827 
L 228.845512 301.333215 
L 231.165027 301.310603 
L 233.484542 301.287991 
L 235.804056 301.265378 
L 238.123571 301.242766 
L 240.443086 301.220154 
L 242.7626 301.197542 
L 245.082115 301.17493 
L 247.40163 301.152318 
L 249.721145 301.129705 
L 252.040659 301.107093 
L 254.360174 301.084481 
L 256.679689 301.061869 
L 258.999204 301.039257 
L 261.318718 301.016645 
L 263.638233 300.994033 
L 265.957748 300.97142 
L 268.277263 300.948808 
L 270.596777 300.926196 
L 272.916292 300.903584 
L 275.235807 300.880972 
L 277.555321 300.85836 
L 279.874836 300.835747 
L 282.194351 300.813135 
L 284.513866 300.790523 
L 286.83338 300.767911 
L 289.152895 300.745299 
L 291.47241 300.722687 
L 293.791925 300.700075 
L 296.111439 300.677462 
L 298.430954 300.65485 
L 300.750469 300.632238 
" style="fill:none;stroke:#f45deb;stroke-linecap:round;stroke-width:2.25;"/>
   </g>
   <g id="line2d_14">
    <path clip-path="url(#p8d7e3f9309)" d="M 71.11851 301.343897 
L 73.824611 301.361354 
L 76.530711 301.378812 
L 79.236812 301.39627 
L 81.942913 301.413727 
L 84.649013 301.431185 
L 87.355114 301.448643 
L 90.061214 301.4661 
L 92.767315 301.483558 
L 95.473415 301.501016 
L 98.179516 301.518474 
L 100.885616 301.535931 
L 103.591717 301.553389 
L 106.297817 301.570847 
L 109.003918 301.588304 
L 111.710018 301.605762 
L 114.416119 301.62322 
L 117.122219 301.640678 
L 119.82832 301.658135 
L 122.53442 301.675593 
L 125.240521 301.693051 
L 127.946621 301.710508 
L 130.652722 301.727966 
L 133.358822 301.745424 
L 136.064923 301.762881 
L 138.771023 301.780339 
L 141.477124 301.797797 
L 144.183224 301.815255 
L 146.889325 301.832712 
L 149.595425 301.85017 
L 152.301526 301.867628 
L 155.007627 301.885085 
L 157.713727 301.902543 
L 160.419828 301.920001 
L 163.125928 301.937459 
L 165.832029 301.954916 
L 168.538129 301.972374 
L 171.24423 301.989832 
L 173.95033 302.007289 
L 176.656431 302.024747 
L 179.362531 302.042205 
L 182.068632 302.059662 
L 184.774732 302.07712 
L 187.480833 302.094578 
L 190.186933 302.112036 
L 192.893034 302.129493 
L 195.599134 302.146951 
L 198.305235 302.164409 
L 201.011335 302.181866 
L 203.717436 302.199324 
L 206.423536 302.216782 
L 209.129637 302.23424 
L 211.835737 302.251697 
L 214.541838 302.269155 
L 217.247938 302.286613 
L 219.954039 302.30407 
L 222.660139 302.321528 
L 225.36624 302.338986 
L 228.072341 302.356443 
L 230.778441 302.373901 
L 233.484542 302.391359 
L 236.190642 302.408817 
L 238.896743 302.426274 
L 241.602843 302.443732 
L 244.308944 302.46119 
L 247.015044 302.478647 
L 249.721145 302.496105 
L 252.427245 302.513563 
L 255.133346 302.531021 
L 257.839446 302.548478 
L 260.545547 302.565936 
L 263.251647 302.583394 
L 265.957748 302.600851 
L 268.663848 302.618309 
L 271.369949 302.635767 
L 274.076049 302.653224 
L 276.78215 302.670682 
L 279.48825 302.68814 
L 282.194351 302.705598 
L 284.900451 302.723055 
L 287.606552 302.740513 
L 290.312652 302.757971 
L 293.018753 302.775428 
L 295.724853 302.792886 
L 298.430954 302.810344 
L 301.137055 302.827802 
L 303.843155 302.845259 
L 306.549256 302.862717 
L 309.255356 302.880175 
L 311.961457 302.897632 
L 314.667557 302.91509 
L 317.373658 302.932548 
L 320.079758 302.950006 
L 322.785859 302.967463 
L 325.491959 302.984921 
L 328.19806 303.002379 
L 330.90416 303.019836 
L 333.610261 303.037294 
L 336.316361 303.054752 
L 339.022462 303.072209 
" style="fill:none;stroke:#f669ba;stroke-linecap:round;stroke-width:2.25;"/>
   </g>
   <g id="patch_3">
    <path d="M 54.522222 320.2 
L 54.522222 14.3 
" style="fill:none;stroke:#262626;stroke-linecap:square;stroke-linejoin:miter;stroke-width:0.8;"/>
   </g>
   <g id="patch_4">
    <path d="M 54.522222 320.2 
L 355.61875 320.2 
" style="fill:none;stroke:#262626;stroke-linecap:square;stroke-linejoin:miter;stroke-width:0.8;"/>
   </g>
   <g id="text_18">
    <!-- r=0.193, p=0.093 -->
    <defs>
     <path d="M 52.828125 42.09375 
L 5.5625 42.09375 
L 5.5625 50.296875 
L 52.828125 50.296875 
z
M 52.828125 20.359375 
L 5.5625 20.359375 
L 5.5625 28.5625 
L 52.828125 28.5625 
z
" id="ArialMT-61"/>
     <path d="M 8.890625 0 
L 8.890625 10.015625 
L 18.890625 10.015625 
L 18.890625 0 
Q 18.890625 -5.515625 16.9375 -8.90625 
Q 14.984375 -12.3125 10.75 -14.15625 
L 8.296875 -10.40625 
Q 11.078125 -9.1875 12.390625 -6.8125 
Q 13.71875 -4.4375 13.875 0 
z
" id="ArialMT-44"/>
     <path id="ArialMT-32"/>
    </defs>
    <g style="fill:#262626;" transform="translate(147.662497 77.423192)scale(0.15 -0.15)">
     <use xlink:href="#ArialMT-114"/>
     <use x="33.300781" xlink:href="#ArialMT-61"/>
     <use x="91.699219" xlink:href="#ArialMT-48"/>
     <use x="147.314453" xlink:href="#ArialMT-46"/>
     <use x="175.097656" xlink:href="#ArialMT-49"/>
     <use x="230.712891" xlink:href="#ArialMT-57"/>
     <use x="286.328125" xlink:href="#ArialMT-51"/>
     <use x="341.943359" xlink:href="#ArialMT-44"/>
     <use x="369.726562" xlink:href="#ArialMT-32"/>
     <use x="397.509766" xlink:href="#ArialMT-112"/>
     <use x="453.125" xlink:href="#ArialMT-61"/>
     <use x="511.523438" xlink:href="#ArialMT-48"/>
     <use x="567.138672" xlink:href="#ArialMT-46"/>
     <use x="594.921875" xlink:href="#ArialMT-48"/>
     <use x="650.537109" xlink:href="#ArialMT-57"/>
     <use x="706.152344" xlink:href="#ArialMT-51"/>
    </g>
   </g>
  </g>
  <g id="legend_1">
   <g id="text_19">
    <!-- host_subject_id -->
    <defs>
     <path d="M 6.59375 0 
L 6.59375 71.578125 
L 15.375 71.578125 
L 15.375 45.90625 
Q 21.53125 53.03125 30.90625 53.03125 
Q 36.671875 53.03125 40.921875 50.75 
Q 45.171875 48.484375 47 44.484375 
Q 48.828125 40.484375 48.828125 32.859375 
L 48.828125 0 
L 40.046875 0 
L 40.046875 32.859375 
Q 40.046875 39.453125 37.1875 42.453125 
Q 34.328125 45.453125 29.109375 45.453125 
Q 25.203125 45.453125 21.75 43.421875 
Q 18.3125 41.40625 16.84375 37.9375 
Q 15.375 34.46875 15.375 28.375 
L 15.375 0 
z
" id="ArialMT-104"/>
     <path d="M 3.078125 15.484375 
L 11.765625 16.84375 
Q 12.5 11.625 15.84375 8.84375 
Q 19.1875 6.0625 25.203125 6.0625 
Q 31.25 6.0625 34.171875 8.515625 
Q 37.109375 10.984375 37.109375 14.3125 
Q 37.109375 17.28125 34.515625 19 
Q 32.71875 20.171875 25.53125 21.96875 
Q 15.875 24.421875 12.140625 26.203125 
Q 8.40625 27.984375 6.46875 31.125 
Q 4.546875 34.28125 4.546875 38.09375 
Q 4.546875 41.546875 6.125 44.5 
Q 7.71875 47.46875 10.453125 49.421875 
Q 12.5 50.921875 16.03125 51.96875 
Q 19.578125 53.03125 23.640625 53.03125 
Q 29.734375 53.03125 34.34375 51.265625 
Q 38.96875 49.515625 41.15625 46.5 
Q 43.359375 43.5 44.1875 38.484375 
L 35.59375 37.3125 
Q 35.015625 41.3125 32.203125 43.546875 
Q 29.390625 45.796875 24.265625 45.796875 
Q 18.21875 45.796875 15.625 43.796875 
Q 13.03125 41.796875 13.03125 39.109375 
Q 13.03125 37.40625 14.109375 36.03125 
Q 15.1875 34.625 17.484375 33.6875 
Q 18.796875 33.203125 25.25 31.453125 
Q 34.578125 28.953125 38.25 27.359375 
Q 41.9375 25.78125 44.03125 22.75 
Q 46.140625 19.734375 46.140625 15.234375 
Q 46.140625 10.84375 43.578125 6.953125 
Q 41.015625 3.078125 36.171875 0.953125 
Q 31.34375 -1.171875 25.25 -1.171875 
Q 15.140625 -1.171875 9.84375 3.03125 
Q 4.546875 7.234375 3.078125 15.484375 
z
" id="ArialMT-115"/>
     <path d="M 25.78125 7.859375 
L 27.046875 0.09375 
Q 23.34375 -0.6875 20.40625 -0.6875 
Q 15.625 -0.6875 12.984375 0.828125 
Q 10.359375 2.34375 9.28125 4.8125 
Q 8.203125 7.28125 8.203125 15.1875 
L 8.203125 45.015625 
L 1.765625 45.015625 
L 1.765625 51.859375 
L 8.203125 51.859375 
L 8.203125 64.703125 
L 16.9375 69.96875 
L 16.9375 51.859375 
L 25.78125 51.859375 
L 25.78125 45.015625 
L 16.9375 45.015625 
L 16.9375 14.703125 
Q 16.9375 10.9375 17.40625 9.859375 
Q 17.875 8.796875 18.921875 8.15625 
Q 19.96875 7.515625 21.921875 7.515625 
Q 23.390625 7.515625 25.78125 7.859375 
z
" id="ArialMT-116"/>
     <path d="M -1.515625 -19.875 
L -1.515625 -13.53125 
L 56.734375 -13.53125 
L 56.734375 -19.875 
z
" id="ArialMT-95"/>
     <path d="M 40.578125 0 
L 40.578125 7.625 
Q 34.515625 -1.171875 24.125 -1.171875 
Q 19.53125 -1.171875 15.546875 0.578125 
Q 11.578125 2.34375 9.640625 5 
Q 7.71875 7.671875 6.9375 11.53125 
Q 6.390625 14.109375 6.390625 19.734375 
L 6.390625 51.859375 
L 15.1875 51.859375 
L 15.1875 23.09375 
Q 15.1875 16.21875 15.71875 13.8125 
Q 16.546875 10.359375 19.234375 8.375 
Q 21.921875 6.390625 25.875 6.390625 
Q 29.828125 6.390625 33.296875 8.421875 
Q 36.765625 10.453125 38.203125 13.9375 
Q 39.65625 17.4375 39.65625 24.078125 
L 39.65625 51.859375 
L 48.4375 51.859375 
L 48.4375 0 
z
" id="ArialMT-117"/>
     <path d="M 14.703125 0 
L 6.546875 0 
L 6.546875 71.578125 
L 15.328125 71.578125 
L 15.328125 46.046875 
Q 20.90625 53.03125 29.546875 53.03125 
Q 34.328125 53.03125 38.59375 51.09375 
Q 42.875 49.171875 45.625 45.671875 
Q 48.390625 42.1875 49.953125 37.25 
Q 51.515625 32.328125 51.515625 26.703125 
Q 51.515625 13.375 44.921875 6.09375 
Q 38.328125 -1.171875 29.109375 -1.171875 
Q 19.921875 -1.171875 14.703125 6.5 
z
M 14.59375 26.3125 
Q 14.59375 17 17.140625 12.84375 
Q 21.296875 6.0625 28.375 6.0625 
Q 34.125 6.0625 38.328125 11.0625 
Q 42.53125 16.0625 42.53125 25.984375 
Q 42.53125 36.140625 38.5 40.96875 
Q 34.46875 45.796875 28.765625 45.796875 
Q 23 45.796875 18.796875 40.796875 
Q 14.59375 35.796875 14.59375 26.3125 
z
" id="ArialMT-98"/>
     <path d="M 6.546875 61.375 
L 6.546875 71.578125 
L 15.328125 71.578125 
L 15.328125 61.375 
z
M -4.59375 -20.125 
L -2.9375 -12.640625 
Q -0.296875 -13.328125 1.21875 -13.328125 
Q 3.90625 -13.328125 5.21875 -11.546875 
Q 6.546875 -9.765625 6.546875 -2.640625 
L 6.546875 51.859375 
L 15.328125 51.859375 
L 15.328125 -2.828125 
Q 15.328125 -12.40625 12.84375 -16.15625 
Q 9.671875 -21.046875 2.296875 -21.046875 
Q -1.265625 -21.046875 -4.59375 -20.125 
z
" id="ArialMT-106"/>
     <path d="M 40.4375 19 
L 49.078125 17.875 
Q 47.65625 8.9375 41.8125 3.875 
Q 35.984375 -1.171875 27.484375 -1.171875 
Q 16.84375 -1.171875 10.375 5.78125 
Q 3.90625 12.75 3.90625 25.734375 
Q 3.90625 34.125 6.6875 40.421875 
Q 9.46875 46.734375 15.15625 49.875 
Q 20.84375 53.03125 27.546875 53.03125 
Q 35.984375 53.03125 41.359375 48.75 
Q 46.734375 44.484375 48.25 36.625 
L 39.703125 35.296875 
Q 38.484375 40.53125 35.375 43.15625 
Q 32.28125 45.796875 27.875 45.796875 
Q 21.234375 45.796875 17.078125 41.03125 
Q 12.9375 36.28125 12.9375 25.984375 
Q 12.9375 15.53125 16.9375 10.796875 
Q 20.953125 6.0625 27.390625 6.0625 
Q 32.5625 6.0625 36.03125 9.234375 
Q 39.5 12.40625 40.4375 19 
z
" id="ArialMT-99"/>
     <path d="M 6.640625 61.46875 
L 6.640625 71.578125 
L 15.4375 71.578125 
L 15.4375 61.46875 
z
M 6.640625 0 
L 6.640625 51.859375 
L 15.4375 51.859375 
L 15.4375 0 
z
" id="ArialMT-105"/>
     <path d="M 40.234375 0 
L 40.234375 6.546875 
Q 35.296875 -1.171875 25.734375 -1.171875 
Q 19.53125 -1.171875 14.328125 2.25 
Q 9.125 5.671875 6.265625 11.796875 
Q 3.421875 17.921875 3.421875 25.875 
Q 3.421875 33.640625 6 39.96875 
Q 8.59375 46.296875 13.765625 49.65625 
Q 18.953125 53.03125 25.34375 53.03125 
Q 30.03125 53.03125 33.6875 51.046875 
Q 37.359375 49.078125 39.65625 45.90625 
L 39.65625 71.578125 
L 48.390625 71.578125 
L 48.390625 0 
z
M 12.453125 25.875 
Q 12.453125 15.921875 16.640625 10.984375 
Q 20.84375 6.0625 26.5625 6.0625 
Q 32.328125 6.0625 36.34375 10.765625 
Q 40.375 15.484375 40.375 25.140625 
Q 40.375 35.796875 36.265625 40.765625 
Q 32.171875 45.75 26.171875 45.75 
Q 20.3125 45.75 16.375 40.96875 
Q 12.453125 36.1875 12.453125 25.875 
z
" id="ArialMT-100"/>
    </defs>
    <g style="fill:#262626;" transform="translate(359.6375 83.509375)scale(0.1 -0.1)">
     <use xlink:href="#ArialMT-104"/>
     <use x="55.615234" xlink:href="#ArialMT-111"/>
     <use x="111.230469" xlink:href="#ArialMT-115"/>
     <use x="161.230469" xlink:href="#ArialMT-116"/>
     <use x="189.013672" xlink:href="#ArialMT-95"/>
     <use x="244.628906" xlink:href="#ArialMT-115"/>
     <use x="294.628906" xlink:href="#ArialMT-117"/>
     <use x="350.244141" xlink:href="#ArialMT-98"/>
     <use x="405.859375" xlink:href="#ArialMT-106"/>
     <use x="428.076172" xlink:href="#ArialMT-101"/>
     <use x="483.691406" xlink:href="#ArialMT-99"/>
     <use x="533.691406" xlink:href="#ArialMT-116"/>
     <use x="561.474609" xlink:href="#ArialMT-95"/>
     <use x="617.089844" xlink:href="#ArialMT-105"/>
     <use x="639.306641" xlink:href="#ArialMT-100"/>
    </g>
   </g>
   <g id="PathCollection_15">
    <g>
     <use style="fill:#f77189;fill-opacity:0.8;stroke:#f77189;stroke-opacity:0.8;" x="374.264062" xlink:href="#m36f6ece45c" y="95.146875"/>
    </g>
   </g>
   <g id="text_20">
    <!-- DM001 -->
    <defs>
     <path d="M 7.421875 0 
L 7.421875 71.578125 
L 21.6875 71.578125 
L 38.625 20.90625 
Q 40.96875 13.8125 42.046875 10.296875 
Q 43.265625 14.203125 45.84375 21.78125 
L 62.984375 71.578125 
L 75.734375 71.578125 
L 75.734375 0 
L 66.609375 0 
L 66.609375 59.90625 
L 45.796875 0 
L 37.25 0 
L 16.546875 60.9375 
L 16.546875 0 
z
" id="ArialMT-77"/>
    </defs>
    <g style="fill:#262626;" transform="translate(392.264062 97.771875)scale(0.1 -0.1)">
     <use xlink:href="#ArialMT-68"/>
     <use x="72.216797" xlink:href="#ArialMT-77"/>
     <use x="155.517578" xlink:href="#ArialMT-48"/>
     <use x="211.132812" xlink:href="#ArialMT-48"/>
     <use x="266.748047" xlink:href="#ArialMT-49"/>
    </g>
   </g>
   <g id="PathCollection_16">
    <g>
     <use style="fill:#ef7d32;fill-opacity:0.8;stroke:#ef7d32;stroke-opacity:0.8;" x="374.264062" xlink:href="#m2d247e1466" y="109.292188"/>
    </g>
   </g>
   <g id="text_21">
    <!-- DM002 -->
    <g style="fill:#262626;" transform="translate(392.264062 111.917188)scale(0.1 -0.1)">
     <use xlink:href="#ArialMT-68"/>
     <use x="72.216797" xlink:href="#ArialMT-77"/>
     <use x="155.517578" xlink:href="#ArialMT-48"/>
     <use x="211.132812" xlink:href="#ArialMT-48"/>
     <use x="266.748047" xlink:href="#ArialMT-50"/>
    </g>
   </g>
   <g id="PathCollection_17">
    <g>
     <use style="fill:#c69432;fill-opacity:0.8;stroke:#c69432;stroke-opacity:0.8;" x="374.264062" xlink:href="#m28754a9190" y="123.4375"/>
    </g>
   </g>
   <g id="text_22">
    <!-- DM003 -->
    <g style="fill:#262626;" transform="translate(392.264062 126.0625)scale(0.1 -0.1)">
     <use xlink:href="#ArialMT-68"/>
     <use x="72.216797" xlink:href="#ArialMT-77"/>
     <use x="155.517578" xlink:href="#ArialMT-48"/>
     <use x="211.132812" xlink:href="#ArialMT-48"/>
     <use x="266.748047" xlink:href="#ArialMT-51"/>
    </g>
   </g>
   <g id="PathCollection_18">
    <g>
     <use style="fill:#a79f31;fill-opacity:0.8;stroke:#a79f31;stroke-opacity:0.8;" x="374.264062" xlink:href="#m7ae792b4f0" y="137.582813"/>
    </g>
   </g>
   <g id="text_23">
    <!-- DM006 -->
    <g style="fill:#262626;" transform="translate(392.264062 140.207813)scale(0.1 -0.1)">
     <use xlink:href="#ArialMT-68"/>
     <use x="72.216797" xlink:href="#ArialMT-77"/>
     <use x="155.517578" xlink:href="#ArialMT-48"/>
     <use x="211.132812" xlink:href="#ArialMT-48"/>
     <use x="266.748047" xlink:href="#ArialMT-54"/>
    </g>
   </g>
   <g id="PathCollection_19">
    <g>
     <use style="fill:#82a931;fill-opacity:0.8;stroke:#82a931;stroke-opacity:0.8;" x="374.264062" xlink:href="#m3bd4fd4244" y="151.728125"/>
    </g>
   </g>
   <g id="text_24">
    <!-- DM008 -->
    <g style="fill:#262626;" transform="translate(392.264062 154.353125)scale(0.1 -0.1)">
     <use xlink:href="#ArialMT-68"/>
     <use x="72.216797" xlink:href="#ArialMT-77"/>
     <use x="155.517578" xlink:href="#ArialMT-48"/>
     <use x="211.132812" xlink:href="#ArialMT-48"/>
     <use x="266.748047" xlink:href="#ArialMT-56"/>
    </g>
   </g>
   <g id="PathCollection_20">
    <g>
     <use style="fill:#32b24e;fill-opacity:0.8;stroke:#32b24e;stroke-opacity:0.8;" x="374.264062" xlink:href="#m7ba904c57a" y="165.873438"/>
    </g>
   </g>
   <g id="text_25">
    <!-- DM009 -->
    <g style="fill:#262626;" transform="translate(392.264062 168.498438)scale(0.1 -0.1)">
     <use xlink:href="#ArialMT-68"/>
     <use x="72.216797" xlink:href="#ArialMT-77"/>
     <use x="155.517578" xlink:href="#ArialMT-48"/>
     <use x="211.132812" xlink:href="#ArialMT-48"/>
     <use x="266.748047" xlink:href="#ArialMT-57"/>
    </g>
   </g>
   <g id="PathCollection_21">
    <g>
     <use style="fill:#34af8a;fill-opacity:0.8;stroke:#34af8a;stroke-opacity:0.8;" x="374.264062" xlink:href="#md66ba02ec7" y="180.01875"/>
    </g>
   </g>
   <g id="text_26">
    <!-- DM010 -->
    <g style="fill:#262626;" transform="translate(392.264062 182.64375)scale(0.1 -0.1)">
     <use xlink:href="#ArialMT-68"/>
     <use x="72.216797" xlink:href="#ArialMT-77"/>
     <use x="155.517578" xlink:href="#ArialMT-48"/>
     <use x="211.132812" xlink:href="#ArialMT-49"/>
     <use x="266.748047" xlink:href="#ArialMT-48"/>
    </g>
   </g>
   <g id="PathCollection_22">
    <g>
     <use style="fill:#36ada4;fill-opacity:0.8;stroke:#36ada4;stroke-opacity:0.8;" x="374.264062" xlink:href="#m1c8cb05ee3" y="194.164063"/>
    </g>
   </g>
   <g id="text_27">
    <!-- DM011 -->
    <g style="fill:#262626;" transform="translate(392.264062 196.789063)scale(0.1 -0.1)">
     <use xlink:href="#ArialMT-68"/>
     <use x="72.216797" xlink:href="#ArialMT-77"/>
     <use x="155.517578" xlink:href="#ArialMT-48"/>
     <use x="211.132812" xlink:href="#ArialMT-49"/>
     <use x="266.638672" xlink:href="#ArialMT-49"/>
    </g>
   </g>
   <g id="PathCollection_23">
    <g>
     <use style="fill:#37aabb;fill-opacity:0.8;stroke:#37aabb;stroke-opacity:0.8;" x="374.264062" xlink:href="#m836003e4f0" y="208.309375"/>
    </g>
   </g>
   <g id="text_28">
    <!-- DM013 -->
    <g style="fill:#262626;" transform="translate(392.264062 210.934375)scale(0.1 -0.1)">
     <use xlink:href="#ArialMT-68"/>
     <use x="72.216797" xlink:href="#ArialMT-77"/>
     <use x="155.517578" xlink:href="#ArialMT-48"/>
     <use x="211.132812" xlink:href="#ArialMT-49"/>
     <use x="266.748047" xlink:href="#ArialMT-51"/>
    </g>
   </g>
   <g id="PathCollection_24">
    <g>
     <use style="fill:#3aa6da;fill-opacity:0.8;stroke:#3aa6da;stroke-opacity:0.8;" x="374.264062" xlink:href="#mfad1b350ca" y="222.454688"/>
    </g>
   </g>
   <g id="text_29">
    <!-- DM014 -->
    <g style="fill:#262626;" transform="translate(392.264062 225.079688)scale(0.1 -0.1)">
     <use xlink:href="#ArialMT-68"/>
     <use x="72.216797" xlink:href="#ArialMT-77"/>
     <use x="155.517578" xlink:href="#ArialMT-48"/>
     <use x="211.132812" xlink:href="#ArialMT-49"/>
     <use x="266.748047" xlink:href="#ArialMT-52"/>
    </g>
   </g>
   <g id="PathCollection_25">
    <g>
     <use style="fill:#8197f4;fill-opacity:0.8;stroke:#8197f4;stroke-opacity:0.8;" x="374.264062" xlink:href="#m42783fe350" y="236.6"/>
    </g>
   </g>
   <g id="text_30">
    <!-- DM015 -->
    <g style="fill:#262626;" transform="translate(392.264062 239.225)scale(0.1 -0.1)">
     <use xlink:href="#ArialMT-68"/>
     <use x="72.216797" xlink:href="#ArialMT-77"/>
     <use x="155.517578" xlink:href="#ArialMT-48"/>
     <use x="211.132812" xlink:href="#ArialMT-49"/>
     <use x="266.748047" xlink:href="#ArialMT-53"/>
    </g>
   </g>
   <g id="PathCollection_26">
    <g>
     <use style="fill:#c180f4;fill-opacity:0.8;stroke:#c180f4;stroke-opacity:0.8;" x="374.264062" xlink:href="#m44cc47e4fc" y="250.745313"/>
    </g>
   </g>
   <g id="text_31">
    <!-- DM016 -->
    <g style="fill:#262626;" transform="translate(392.264062 253.370313)scale(0.1 -0.1)">
     <use xlink:href="#ArialMT-68"/>
     <use x="72.216797" xlink:href="#ArialMT-77"/>
     <use x="155.517578" xlink:href="#ArialMT-48"/>
     <use x="211.132812" xlink:href="#ArialMT-49"/>
     <use x="266.748047" xlink:href="#ArialMT-54"/>
    </g>
   </g>
   <g id="PathCollection_27">
    <g>
     <use style="fill:#f45deb;fill-opacity:0.8;stroke:#f45deb;stroke-opacity:0.8;" x="374.264062" xlink:href="#m1bab99956b" y="264.890625"/>
    </g>
   </g>
   <g id="text_32">
    <!-- DM017 -->
    <g style="fill:#262626;" transform="translate(392.264062 267.515625)scale(0.1 -0.1)">
     <use xlink:href="#ArialMT-68"/>
     <use x="72.216797" xlink:href="#ArialMT-77"/>
     <use x="155.517578" xlink:href="#ArialMT-48"/>
     <use x="211.132812" xlink:href="#ArialMT-49"/>
     <use x="266.748047" xlink:href="#ArialMT-55"/>
    </g>
   </g>
   <g id="PathCollection_28">
    <g>
     <use style="fill:#f669ba;fill-opacity:0.8;stroke:#f669ba;stroke-opacity:0.8;" x="374.264062" xlink:href="#me8bb7164e8" y="279.035937"/>
    </g>
   </g>
   <g id="text_33">
    <!-- DM018 -->
    <g style="fill:#262626;" transform="translate(392.264062 281.660937)scale(0.1 -0.1)">
     <use xlink:href="#ArialMT-68"/>
     <use x="72.216797" xlink:href="#ArialMT-77"/>
     <use x="155.517578" xlink:href="#ArialMT-48"/>
     <use x="211.132812" xlink:href="#ArialMT-49"/>
     <use x="266.748047" xlink:href="#ArialMT-56"/>
    </g>
   </g>
  </g>
 </g>
 <defs>
  <clipPath id="p8d7e3f9309">
   <rect height="305.9" width="301.096528" x="54.522222" y="14.3"/>
  </clipPath>
 </defs>
</svg>
