<?xml version="1.0" encoding="utf-8" standalone="no"?>
<!DOCTYPE svg PUBLIC "-//W3C//DTD SVG 1.1//EN"
  "http://www.w3.org/Graphics/SVG/1.1/DTD/svg11.dtd">
<!-- Created with matplotlib (https://matplotlib.org/) -->
<svg height="360pt" version="1.1" viewBox="0 0 438.125 360" width="438.125pt" xmlns="http://www.w3.org/2000/svg" xmlns:xlink="http://www.w3.org/1999/xlink">
 <defs>
  <style type="text/css">
*{stroke-linecap:butt;stroke-linejoin:round;}
  </style>
 </defs>
 <g id="figure_1">
  <g id="patch_1">
   <path d="M 0 360 
L 438.125 360 
L 438.125 0 
L 0 0 
z
" style="fill:#ffffff;"/>
  </g>
  <g id="axes_1">
   <g id="patch_2">
    <path d="M 54.522222 320.2 
L 355.61875 320.2 
L 355.61875 14.3 
L 54.522222 14.3 
z
" style="fill:#ffffff;"/>
   </g>
   <g id="matplotlib.axis_1">
    <g id="xtick_1">
     <g id="text_1">
      <!-- 50 -->
      <defs>
       <path d="M 4.15625 18.75 
L 13.375 19.53125 
Q 14.40625 12.796875 18.140625 9.390625 
Q 21.875 6 27.15625 6 
Q 33.5 6 37.890625 10.78125 
Q 42.28125 15.578125 42.28125 23.484375 
Q 42.28125 31 38.0625 35.34375 
Q 33.84375 39.703125 27 39.703125 
Q 22.75 39.703125 19.328125 37.765625 
Q 15.921875 35.84375 13.96875 32.765625 
L 5.71875 33.84375 
L 12.640625 70.609375 
L 48.25 70.609375 
L 48.25 62.203125 
L 19.671875 62.203125 
L 15.828125 42.96875 
Q 22.265625 47.46875 29.34375 47.46875 
Q 38.71875 47.46875 45.15625 40.96875 
Q 51.609375 34.46875 51.609375 24.265625 
Q 51.609375 14.546875 45.953125 7.46875 
Q 39.0625 -1.21875 27.15625 -1.21875 
Q 17.390625 -1.21875 11.203125 4.25 
Q 5.03125 9.71875 4.15625 18.75 
z
" id="ArialMT-53"/>
       <path d="M 4.15625 35.296875 
Q 4.15625 48 6.765625 55.734375 
Q 9.375 63.484375 14.515625 67.671875 
Q 19.671875 71.875 27.484375 71.875 
Q 33.25 71.875 37.59375 69.546875 
Q 41.9375 67.234375 44.765625 62.859375 
Q 47.609375 58.5 49.21875 52.21875 
Q 50.828125 45.953125 50.828125 35.296875 
Q 50.828125 22.703125 48.234375 14.96875 
Q 45.65625 7.234375 40.5 3 
Q 35.359375 -1.21875 27.484375 -1.21875 
Q 17.140625 -1.21875 11.234375 6.203125 
Q 4.15625 15.140625 4.15625 35.296875 
z
M 13.1875 35.296875 
Q 13.1875 17.671875 17.3125 11.828125 
Q 21.4375 6 27.484375 6 
Q 33.546875 6 37.671875 11.859375 
Q 41.796875 17.71875 41.796875 35.296875 
Q 41.796875 52.984375 37.671875 58.78125 
Q 33.546875 64.59375 27.390625 64.59375 
Q 21.34375 64.59375 17.71875 59.46875 
Q 13.1875 52.9375 13.1875 35.296875 
z
" id="ArialMT-48"/>
      </defs>
      <g style="fill:#262626;" transform="translate(73.586263 335.789375)scale(0.12 -0.12)">
       <use xlink:href="#ArialMT-53"/>
       <use x="55.615234" xlink:href="#ArialMT-48"/>
      </g>
     </g>
    </g>
    <g id="xtick_2">
     <g id="text_2">
      <!-- 100 -->
      <defs>
       <path d="M 37.25 0 
L 28.46875 0 
L 28.46875 56 
Q 25.296875 52.984375 20.140625 49.953125 
Q 14.984375 46.921875 10.890625 45.40625 
L 10.890625 53.90625 
Q 18.265625 57.375 23.78125 62.296875 
Q 29.296875 67.234375 31.59375 71.875 
L 37.25 71.875 
z
" id="ArialMT-49"/>
      </defs>
      <g style="fill:#262626;" transform="translate(127.759383 335.789375)scale(0.12 -0.12)">
       <use xlink:href="#ArialMT-49"/>
       <use x="55.615234" xlink:href="#ArialMT-48"/>
       <use x="111.230469" xlink:href="#ArialMT-48"/>
      </g>
     </g>
    </g>
    <g id="xtick_3">
     <g id="text_3">
      <!-- 150 -->
      <g style="fill:#262626;" transform="translate(185.269065 335.789375)scale(0.12 -0.12)">
       <use xlink:href="#ArialMT-49"/>
       <use x="55.615234" xlink:href="#ArialMT-53"/>
       <use x="111.230469" xlink:href="#ArialMT-48"/>
      </g>
     </g>
    </g>
    <g id="xtick_4">
     <g id="text_4">
      <!-- 200 -->
      <defs>
       <path d="M 50.34375 8.453125 
L 50.34375 0 
L 3.03125 0 
Q 2.9375 3.171875 4.046875 6.109375 
Q 5.859375 10.9375 9.828125 15.625 
Q 13.8125 20.3125 21.34375 26.46875 
Q 33.015625 36.03125 37.109375 41.625 
Q 41.21875 47.21875 41.21875 52.203125 
Q 41.21875 57.421875 37.46875 61 
Q 33.734375 64.59375 27.734375 64.59375 
Q 21.390625 64.59375 17.578125 60.78125 
Q 13.765625 56.984375 13.71875 50.25 
L 4.6875 51.171875 
Q 5.609375 61.28125 11.65625 66.578125 
Q 17.71875 71.875 27.9375 71.875 
Q 38.234375 71.875 44.234375 66.15625 
Q 50.25 60.453125 50.25 52 
Q 50.25 47.703125 48.484375 43.546875 
Q 46.734375 39.40625 42.65625 34.8125 
Q 38.578125 30.21875 29.109375 22.21875 
Q 21.1875 15.578125 18.9375 13.203125 
Q 16.703125 10.84375 15.234375 8.453125 
z
" id="ArialMT-50"/>
      </defs>
      <g style="fill:#262626;" transform="translate(242.778747 335.789375)scale(0.12 -0.12)">
       <use xlink:href="#ArialMT-50"/>
       <use x="55.615234" xlink:href="#ArialMT-48"/>
       <use x="111.230469" xlink:href="#ArialMT-48"/>
      </g>
     </g>
    </g>
    <g id="xtick_5">
     <g id="text_5">
      <!-- 250 -->
      <g style="fill:#262626;" transform="translate(300.288429 335.789375)scale(0.12 -0.12)">
       <use xlink:href="#ArialMT-50"/>
       <use x="55.615234" xlink:href="#ArialMT-53"/>
       <use x="111.230469" xlink:href="#ArialMT-48"/>
      </g>
     </g>
    </g>
    <g id="text_6">
     <!-- Observed OTUs -->
     <defs>
      <path d="M 4.828125 34.859375 
Q 4.828125 52.6875 14.390625 62.765625 
Q 23.96875 72.859375 39.109375 72.859375 
Q 49.03125 72.859375 56.984375 68.109375 
Q 64.9375 63.375 69.109375 54.90625 
Q 73.296875 46.4375 73.296875 35.6875 
Q 73.296875 24.8125 68.890625 16.21875 
Q 64.5 7.625 56.4375 3.203125 
Q 48.390625 -1.21875 39.0625 -1.21875 
Q 28.953125 -1.21875 20.984375 3.65625 
Q 13.03125 8.546875 8.921875 16.984375 
Q 4.828125 25.4375 4.828125 34.859375 
z
M 14.59375 34.71875 
Q 14.59375 21.78125 21.546875 14.328125 
Q 28.515625 6.890625 39.015625 6.890625 
Q 49.703125 6.890625 56.609375 14.40625 
Q 63.53125 21.921875 63.53125 35.75 
Q 63.53125 44.484375 60.578125 51 
Q 57.625 57.515625 51.921875 61.109375 
Q 46.234375 64.703125 39.15625 64.703125 
Q 29.109375 64.703125 21.84375 57.78125 
Q 14.59375 50.875 14.59375 34.71875 
z
" id="ArialMT-79"/>
      <path d="M 14.703125 0 
L 6.546875 0 
L 6.546875 71.578125 
L 15.328125 71.578125 
L 15.328125 46.046875 
Q 20.90625 53.03125 29.546875 53.03125 
Q 34.328125 53.03125 38.59375 51.09375 
Q 42.875 49.171875 45.625 45.671875 
Q 48.390625 42.1875 49.953125 37.25 
Q 51.515625 32.328125 51.515625 26.703125 
Q 51.515625 13.375 44.921875 6.09375 
Q 38.328125 -1.171875 29.109375 -1.171875 
Q 19.921875 -1.171875 14.703125 6.5 
z
M 14.59375 26.3125 
Q 14.59375 17 17.140625 12.84375 
Q 21.296875 6.0625 28.375 6.0625 
Q 34.125 6.0625 38.328125 11.0625 
Q 42.53125 16.0625 42.53125 25.984375 
Q 42.53125 36.140625 38.5 40.96875 
Q 34.46875 45.796875 28.765625 45.796875 
Q 23 45.796875 18.796875 40.796875 
Q 14.59375 35.796875 14.59375 26.3125 
z
" id="ArialMT-98"/>
      <path d="M 3.078125 15.484375 
L 11.765625 16.84375 
Q 12.5 11.625 15.84375 8.84375 
Q 19.1875 6.0625 25.203125 6.0625 
Q 31.25 6.0625 34.171875 8.515625 
Q 37.109375 10.984375 37.109375 14.3125 
Q 37.109375 17.28125 34.515625 19 
Q 32.71875 20.171875 25.53125 21.96875 
Q 15.875 24.421875 12.140625 26.203125 
Q 8.40625 27.984375 6.46875 31.125 
Q 4.546875 34.28125 4.546875 38.09375 
Q 4.546875 41.546875 6.125 44.5 
Q 7.71875 47.46875 10.453125 49.421875 
Q 12.5 50.921875 16.03125 51.96875 
Q 19.578125 53.03125 23.640625 53.03125 
Q 29.734375 53.03125 34.34375 51.265625 
Q 38.96875 49.515625 41.15625 46.5 
Q 43.359375 43.5 44.1875 38.484375 
L 35.59375 37.3125 
Q 35.015625 41.3125 32.203125 43.546875 
Q 29.390625 45.796875 24.265625 45.796875 
Q 18.21875 45.796875 15.625 43.796875 
Q 13.03125 41.796875 13.03125 39.109375 
Q 13.03125 37.40625 14.109375 36.03125 
Q 15.1875 34.625 17.484375 33.6875 
Q 18.796875 33.203125 25.25 31.453125 
Q 34.578125 28.953125 38.25 27.359375 
Q 41.9375 25.78125 44.03125 22.75 
Q 46.140625 19.734375 46.140625 15.234375 
Q 46.140625 10.84375 43.578125 6.953125 
Q 41.015625 3.078125 36.171875 0.953125 
Q 31.34375 -1.171875 25.25 -1.171875 
Q 15.140625 -1.171875 9.84375 3.03125 
Q 4.546875 7.234375 3.078125 15.484375 
z
" id="ArialMT-115"/>
      <path d="M 42.09375 16.703125 
L 51.171875 15.578125 
Q 49.03125 7.625 43.21875 3.21875 
Q 37.40625 -1.171875 28.375 -1.171875 
Q 17 -1.171875 10.328125 5.828125 
Q 3.65625 12.84375 3.65625 25.484375 
Q 3.65625 38.578125 10.390625 45.796875 
Q 17.140625 53.03125 27.875 53.03125 
Q 38.28125 53.03125 44.875 45.953125 
Q 51.46875 38.875 51.46875 26.03125 
Q 51.46875 25.25 51.421875 23.6875 
L 12.75 23.6875 
Q 13.234375 15.140625 17.578125 10.59375 
Q 21.921875 6.0625 28.421875 6.0625 
Q 33.25 6.0625 36.671875 8.59375 
Q 40.09375 11.140625 42.09375 16.703125 
z
M 13.234375 30.90625 
L 42.1875 30.90625 
Q 41.609375 37.453125 38.875 40.71875 
Q 34.671875 45.796875 27.984375 45.796875 
Q 21.921875 45.796875 17.796875 41.75 
Q 13.671875 37.703125 13.234375 30.90625 
z
" id="ArialMT-101"/>
      <path d="M 6.5 0 
L 6.5 51.859375 
L 14.40625 51.859375 
L 14.40625 44 
Q 17.4375 49.515625 20 51.265625 
Q 22.5625 53.03125 25.640625 53.03125 
Q 30.078125 53.03125 34.671875 50.203125 
L 31.640625 42.046875 
Q 28.421875 43.953125 25.203125 43.953125 
Q 22.3125 43.953125 20.015625 42.21875 
Q 17.71875 40.484375 16.75 37.40625 
Q 15.28125 32.71875 15.28125 27.15625 
L 15.28125 0 
z
" id="ArialMT-114"/>
      <path d="M 21 0 
L 1.265625 51.859375 
L 10.546875 51.859375 
L 21.6875 20.796875 
Q 23.484375 15.765625 25 10.359375 
Q 26.171875 14.453125 28.265625 20.21875 
L 39.796875 51.859375 
L 48.828125 51.859375 
L 29.203125 0 
z
" id="ArialMT-118"/>
      <path d="M 40.234375 0 
L 40.234375 6.546875 
Q 35.296875 -1.171875 25.734375 -1.171875 
Q 19.53125 -1.171875 14.328125 2.25 
Q 9.125 5.671875 6.265625 11.796875 
Q 3.421875 17.921875 3.421875 25.875 
Q 3.421875 33.640625 6 39.96875 
Q 8.59375 46.296875 13.765625 49.65625 
Q 18.953125 53.03125 25.34375 53.03125 
Q 30.03125 53.03125 33.6875 51.046875 
Q 37.359375 49.078125 39.65625 45.90625 
L 39.65625 71.578125 
L 48.390625 71.578125 
L 48.390625 0 
z
M 12.453125 25.875 
Q 12.453125 15.921875 16.640625 10.984375 
Q 20.84375 6.0625 26.5625 6.0625 
Q 32.328125 6.0625 36.34375 10.765625 
Q 40.375 15.484375 40.375 25.140625 
Q 40.375 35.796875 36.265625 40.765625 
Q 32.171875 45.75 26.171875 45.75 
Q 20.3125 45.75 16.375 40.96875 
Q 12.453125 36.1875 12.453125 25.875 
z
" id="ArialMT-100"/>
      <path id="ArialMT-32"/>
      <path d="M 25.921875 0 
L 25.921875 63.140625 
L 2.34375 63.140625 
L 2.34375 71.578125 
L 59.078125 71.578125 
L 59.078125 63.140625 
L 35.40625 63.140625 
L 35.40625 0 
z
" id="ArialMT-84"/>
      <path d="M 54.6875 71.578125 
L 64.15625 71.578125 
L 64.15625 30.21875 
Q 64.15625 19.4375 61.71875 13.078125 
Q 59.28125 6.734375 52.90625 2.75 
Q 46.53125 -1.21875 36.1875 -1.21875 
Q 26.125 -1.21875 19.71875 2.25 
Q 13.328125 5.71875 10.59375 12.28125 
Q 7.859375 18.84375 7.859375 30.21875 
L 7.859375 71.578125 
L 17.328125 71.578125 
L 17.328125 30.28125 
Q 17.328125 20.953125 19.0625 16.53125 
Q 20.796875 12.109375 25.015625 9.71875 
Q 29.25 7.328125 35.359375 7.328125 
Q 45.796875 7.328125 50.234375 12.0625 
Q 54.6875 16.796875 54.6875 30.28125 
z
" id="ArialMT-85"/>
     </defs>
     <g style="fill:#262626;" transform="translate(150.892361 352.911094)scale(0.15 -0.15)">
      <use xlink:href="#ArialMT-79"/>
      <use x="77.783203" xlink:href="#ArialMT-98"/>
      <use x="133.398438" xlink:href="#ArialMT-115"/>
      <use x="183.398438" xlink:href="#ArialMT-101"/>
      <use x="239.013672" xlink:href="#ArialMT-114"/>
      <use x="272.314453" xlink:href="#ArialMT-118"/>
      <use x="322.314453" xlink:href="#ArialMT-101"/>
      <use x="377.929688" xlink:href="#ArialMT-100"/>
      <use x="433.544922" xlink:href="#ArialMT-32"/>
      <use x="461.328125" xlink:href="#ArialMT-79"/>
      <use x="539.111328" xlink:href="#ArialMT-84"/>
      <use x="600.195312" xlink:href="#ArialMT-85"/>
      <use x="672.412109" xlink:href="#ArialMT-115"/>
     </g>
    </g>
   </g>
   <g id="matplotlib.axis_2">
    <g id="ytick_1">
     <g id="text_7">
      <!-- 0.0 -->
      <defs>
       <path d="M 9.078125 0 
L 9.078125 10.015625 
L 19.09375 10.015625 
L 19.09375 0 
z
" id="ArialMT-46"/>
      </defs>
      <g style="fill:#262626;" transform="translate(30.842222 288.011754)scale(0.12 -0.12)">
       <use xlink:href="#ArialMT-48"/>
       <use x="55.615234" xlink:href="#ArialMT-46"/>
       <use x="83.398438" xlink:href="#ArialMT-48"/>
      </g>
     </g>
    </g>
    <g id="ytick_2">
     <g id="text_8">
      <!-- 0.1 -->
      <g style="fill:#262626;" transform="translate(30.842222 246.063558)scale(0.12 -0.12)">
       <use xlink:href="#ArialMT-48"/>
       <use x="55.615234" xlink:href="#ArialMT-46"/>
       <use x="83.398438" xlink:href="#ArialMT-49"/>
      </g>
     </g>
    </g>
    <g id="ytick_3">
     <g id="text_9">
      <!-- 0.2 -->
      <g style="fill:#262626;" transform="translate(30.842222 204.115362)scale(0.12 -0.12)">
       <use xlink:href="#ArialMT-48"/>
       <use x="55.615234" xlink:href="#ArialMT-46"/>
       <use x="83.398438" xlink:href="#ArialMT-50"/>
      </g>
     </g>
    </g>
    <g id="ytick_4">
     <g id="text_10">
      <!-- 0.3 -->
      <defs>
       <path d="M 4.203125 18.890625 
L 12.984375 20.0625 
Q 14.5 12.59375 18.140625 9.296875 
Q 21.78125 6 27 6 
Q 33.203125 6 37.46875 10.296875 
Q 41.75 14.59375 41.75 20.953125 
Q 41.75 27 37.796875 30.921875 
Q 33.84375 34.859375 27.734375 34.859375 
Q 25.25 34.859375 21.53125 33.890625 
L 22.515625 41.609375 
Q 23.390625 41.5 23.921875 41.5 
Q 29.546875 41.5 34.03125 44.421875 
Q 38.53125 47.359375 38.53125 53.46875 
Q 38.53125 58.296875 35.25 61.46875 
Q 31.984375 64.65625 26.8125 64.65625 
Q 21.6875 64.65625 18.265625 61.421875 
Q 14.84375 58.203125 13.875 51.765625 
L 5.078125 53.328125 
Q 6.6875 62.15625 12.390625 67.015625 
Q 18.109375 71.875 26.609375 71.875 
Q 32.46875 71.875 37.390625 69.359375 
Q 42.328125 66.84375 44.9375 62.5 
Q 47.5625 58.15625 47.5625 53.265625 
Q 47.5625 48.640625 45.0625 44.828125 
Q 42.578125 41.015625 37.703125 38.765625 
Q 44.046875 37.3125 47.5625 32.6875 
Q 51.078125 28.078125 51.078125 21.140625 
Q 51.078125 11.765625 44.234375 5.25 
Q 37.40625 -1.265625 26.953125 -1.265625 
Q 17.53125 -1.265625 11.296875 4.34375 
Q 5.078125 9.96875 4.203125 18.890625 
z
" id="ArialMT-51"/>
      </defs>
      <g style="fill:#262626;" transform="translate(30.842222 162.167166)scale(0.12 -0.12)">
       <use xlink:href="#ArialMT-48"/>
       <use x="55.615234" xlink:href="#ArialMT-46"/>
       <use x="83.398438" xlink:href="#ArialMT-51"/>
      </g>
     </g>
    </g>
    <g id="ytick_5">
     <g id="text_11">
      <!-- 0.4 -->
      <defs>
       <path d="M 32.328125 0 
L 32.328125 17.140625 
L 1.265625 17.140625 
L 1.265625 25.203125 
L 33.9375 71.578125 
L 41.109375 71.578125 
L 41.109375 25.203125 
L 50.78125 25.203125 
L 50.78125 17.140625 
L 41.109375 17.140625 
L 41.109375 0 
z
M 32.328125 25.203125 
L 32.328125 57.46875 
L 9.90625 25.203125 
z
" id="ArialMT-52"/>
      </defs>
      <g style="fill:#262626;" transform="translate(30.842222 120.21897)scale(0.12 -0.12)">
       <use xlink:href="#ArialMT-48"/>
       <use x="55.615234" xlink:href="#ArialMT-46"/>
       <use x="83.398438" xlink:href="#ArialMT-52"/>
      </g>
     </g>
    </g>
    <g id="ytick_6">
     <g id="text_12">
      <!-- 0.5 -->
      <g style="fill:#262626;" transform="translate(30.842222 78.270774)scale(0.12 -0.12)">
       <use xlink:href="#ArialMT-48"/>
       <use x="55.615234" xlink:href="#ArialMT-46"/>
       <use x="83.398438" xlink:href="#ArialMT-53"/>
      </g>
     </g>
    </g>
    <g id="ytick_7">
     <g id="text_13">
      <!-- 0.6 -->
      <defs>
       <path d="M 49.75 54.046875 
L 41.015625 53.375 
Q 39.84375 58.546875 37.703125 60.890625 
Q 34.125 64.65625 28.90625 64.65625 
Q 24.703125 64.65625 21.53125 62.3125 
Q 17.390625 59.28125 14.984375 53.46875 
Q 12.59375 47.65625 12.5 36.921875 
Q 15.671875 41.75 20.265625 44.09375 
Q 24.859375 46.4375 29.890625 46.4375 
Q 38.671875 46.4375 44.84375 39.96875 
Q 51.03125 33.5 51.03125 23.25 
Q 51.03125 16.5 48.125 10.71875 
Q 45.21875 4.9375 40.140625 1.859375 
Q 35.0625 -1.21875 28.609375 -1.21875 
Q 17.625 -1.21875 10.6875 6.859375 
Q 3.765625 14.9375 3.765625 33.5 
Q 3.765625 54.25 11.421875 63.671875 
Q 18.109375 71.875 29.4375 71.875 
Q 37.890625 71.875 43.28125 67.140625 
Q 48.6875 62.40625 49.75 54.046875 
z
M 13.875 23.1875 
Q 13.875 18.65625 15.796875 14.5 
Q 17.71875 10.359375 21.1875 8.171875 
Q 24.65625 6 28.46875 6 
Q 34.03125 6 38.03125 10.484375 
Q 42.046875 14.984375 42.046875 22.703125 
Q 42.046875 30.125 38.078125 34.390625 
Q 34.125 38.671875 28.125 38.671875 
Q 22.171875 38.671875 18.015625 34.390625 
Q 13.875 30.125 13.875 23.1875 
z
" id="ArialMT-54"/>
      </defs>
      <g style="fill:#262626;" transform="translate(30.842222 36.322578)scale(0.12 -0.12)">
       <use xlink:href="#ArialMT-48"/>
       <use x="55.615234" xlink:href="#ArialMT-46"/>
       <use x="83.398438" xlink:href="#ArialMT-54"/>
      </g>
     </g>
    </g>
    <g id="text_14">
     <!-- Omeprazole -->
     <defs>
      <path d="M 6.59375 0 
L 6.59375 51.859375 
L 14.453125 51.859375 
L 14.453125 44.578125 
Q 16.890625 48.390625 20.9375 50.703125 
Q 25 53.03125 30.171875 53.03125 
Q 35.9375 53.03125 39.625 50.640625 
Q 43.3125 48.25 44.828125 43.953125 
Q 50.984375 53.03125 60.84375 53.03125 
Q 68.5625 53.03125 72.703125 48.75 
Q 76.859375 44.484375 76.859375 35.59375 
L 76.859375 0 
L 68.109375 0 
L 68.109375 32.671875 
Q 68.109375 37.9375 67.25 40.25 
Q 66.40625 42.578125 64.15625 43.984375 
Q 61.921875 45.40625 58.890625 45.40625 
Q 53.421875 45.40625 49.796875 41.765625 
Q 46.1875 38.140625 46.1875 30.125 
L 46.1875 0 
L 37.40625 0 
L 37.40625 33.6875 
Q 37.40625 39.546875 35.25 42.46875 
Q 33.109375 45.40625 28.21875 45.40625 
Q 24.515625 45.40625 21.359375 43.453125 
Q 18.21875 41.5 16.796875 37.734375 
Q 15.375 33.984375 15.375 26.90625 
L 15.375 0 
z
" id="ArialMT-109"/>
      <path d="M 6.59375 -19.875 
L 6.59375 51.859375 
L 14.59375 51.859375 
L 14.59375 45.125 
Q 17.4375 49.078125 21 51.046875 
Q 24.5625 53.03125 29.640625 53.03125 
Q 36.28125 53.03125 41.359375 49.609375 
Q 46.4375 46.1875 49.015625 39.953125 
Q 51.609375 33.734375 51.609375 26.3125 
Q 51.609375 18.359375 48.75 11.984375 
Q 45.90625 5.609375 40.453125 2.21875 
Q 35.015625 -1.171875 29 -1.171875 
Q 24.609375 -1.171875 21.109375 0.6875 
Q 17.625 2.546875 15.375 5.375 
L 15.375 -19.875 
z
M 14.546875 25.640625 
Q 14.546875 15.625 18.59375 10.84375 
Q 22.65625 6.0625 28.421875 6.0625 
Q 34.28125 6.0625 38.453125 11.015625 
Q 42.625 15.96875 42.625 26.375 
Q 42.625 36.28125 38.546875 41.203125 
Q 34.46875 46.140625 28.8125 46.140625 
Q 23.1875 46.140625 18.859375 40.890625 
Q 14.546875 35.640625 14.546875 25.640625 
z
" id="ArialMT-112"/>
      <path d="M 40.4375 6.390625 
Q 35.546875 2.25 31.03125 0.53125 
Q 26.515625 -1.171875 21.34375 -1.171875 
Q 12.796875 -1.171875 8.203125 3 
Q 3.609375 7.171875 3.609375 13.671875 
Q 3.609375 17.484375 5.34375 20.625 
Q 7.078125 23.78125 9.890625 25.6875 
Q 12.703125 27.59375 16.21875 28.5625 
Q 18.796875 29.25 24.03125 29.890625 
Q 34.671875 31.15625 39.703125 32.90625 
Q 39.75 34.71875 39.75 35.203125 
Q 39.75 40.578125 37.25 42.78125 
Q 33.890625 45.75 27.25 45.75 
Q 21.046875 45.75 18.09375 43.578125 
Q 15.140625 41.40625 13.71875 35.890625 
L 5.125 37.0625 
Q 6.296875 42.578125 8.984375 45.96875 
Q 11.671875 49.359375 16.75 51.1875 
Q 21.828125 53.03125 28.515625 53.03125 
Q 35.15625 53.03125 39.296875 51.46875 
Q 43.453125 49.90625 45.40625 47.53125 
Q 47.359375 45.171875 48.140625 41.546875 
Q 48.578125 39.3125 48.578125 33.453125 
L 48.578125 21.734375 
Q 48.578125 9.46875 49.140625 6.21875 
Q 49.703125 2.984375 51.375 0 
L 42.1875 0 
Q 40.828125 2.734375 40.4375 6.390625 
z
M 39.703125 26.03125 
Q 34.90625 24.078125 25.34375 22.703125 
Q 19.921875 21.921875 17.671875 20.9375 
Q 15.4375 19.96875 14.203125 18.09375 
Q 12.984375 16.21875 12.984375 13.921875 
Q 12.984375 10.40625 15.640625 8.0625 
Q 18.3125 5.71875 23.4375 5.71875 
Q 28.515625 5.71875 32.46875 7.9375 
Q 36.421875 10.15625 38.28125 14.015625 
Q 39.703125 17 39.703125 22.796875 
z
" id="ArialMT-97"/>
      <path d="M 1.953125 0 
L 1.953125 7.125 
L 34.96875 45.015625 
Q 29.34375 44.734375 25.046875 44.734375 
L 3.90625 44.734375 
L 3.90625 51.859375 
L 46.296875 51.859375 
L 46.296875 46.046875 
L 18.21875 13.140625 
L 12.796875 7.125 
Q 18.703125 7.5625 23.875 7.5625 
L 47.859375 7.5625 
L 47.859375 0 
z
" id="ArialMT-122"/>
      <path d="M 3.328125 25.921875 
Q 3.328125 40.328125 11.328125 47.265625 
Q 18.015625 53.03125 27.640625 53.03125 
Q 38.328125 53.03125 45.109375 46.015625 
Q 51.90625 39.015625 51.90625 26.65625 
Q 51.90625 16.65625 48.90625 10.90625 
Q 45.90625 5.171875 40.15625 2 
Q 34.421875 -1.171875 27.640625 -1.171875 
Q 16.75 -1.171875 10.03125 5.8125 
Q 3.328125 12.796875 3.328125 25.921875 
z
M 12.359375 25.921875 
Q 12.359375 15.96875 16.703125 11.015625 
Q 21.046875 6.0625 27.640625 6.0625 
Q 34.1875 6.0625 38.53125 11.03125 
Q 42.875 16.015625 42.875 26.21875 
Q 42.875 35.84375 38.5 40.796875 
Q 34.125 45.75 27.640625 45.75 
Q 21.046875 45.75 16.703125 40.8125 
Q 12.359375 35.890625 12.359375 25.921875 
z
" id="ArialMT-111"/>
      <path d="M 6.390625 0 
L 6.390625 71.578125 
L 15.1875 71.578125 
L 15.1875 0 
z
" id="ArialMT-108"/>
     </defs>
     <g style="fill:#262626;" transform="translate(23.860972 208.098047)rotate(-90)scale(0.15 -0.15)">
      <use xlink:href="#ArialMT-79"/>
      <use x="77.783203" xlink:href="#ArialMT-109"/>
      <use x="161.083984" xlink:href="#ArialMT-101"/>
      <use x="216.699219" xlink:href="#ArialMT-112"/>
      <use x="272.314453" xlink:href="#ArialMT-114"/>
      <use x="305.615234" xlink:href="#ArialMT-97"/>
      <use x="361.230469" xlink:href="#ArialMT-122"/>
      <use x="411.230469" xlink:href="#ArialMT-111"/>
      <use x="466.845703" xlink:href="#ArialMT-108"/>
      <use x="489.0625" xlink:href="#ArialMT-101"/>
     </g>
    </g>
   </g>
   <g id="PathCollection_1">
    <defs>
     <path d="M 0 3 
C 0.795609 3 1.55874 2.683901 2.12132 2.12132 
C 2.683901 1.55874 3 0.795609 3 0 
C 3 -0.795609 2.683901 -1.55874 2.12132 -2.12132 
C 1.55874 -2.683901 0.795609 -3 0 -3 
C -0.795609 -3 -1.55874 -2.683901 -2.12132 -2.12132 
C -2.683901 -1.55874 -3 -0.795609 -3 0 
C -3 0.795609 -2.683901 1.55874 -2.12132 2.12132 
C -1.55874 2.683901 -0.795609 3 0 3 
z
" id="m2c05f05a3a" style="stroke:#f77189;stroke-opacity:0.8;"/>
    </defs>
    <g clip-path="url(#p2b09ea1d23)">
     <use style="fill:#f77189;fill-opacity:0.8;stroke:#f77189;stroke-opacity:0.8;" x="135.468683" xlink:href="#m2c05f05a3a" y="266.30059"/>
     <use style="fill:#f77189;fill-opacity:0.8;stroke:#f77189;stroke-opacity:0.8;" x="112.46481" xlink:href="#m2c05f05a3a" y="186.615399"/>
     <use style="fill:#f77189;fill-opacity:0.8;stroke:#f77189;stroke-opacity:0.8;" x="102.113068" xlink:href="#m2c05f05a3a" y="154.688784"/>
     <use style="fill:#f77189;fill-opacity:0.8;stroke:#f77189;stroke-opacity:0.8;" x="75.658614" xlink:href="#m2c05f05a3a" y="145.187201"/>
     <use style="fill:#f77189;fill-opacity:0.8;stroke:#f77189;stroke-opacity:0.8;" x="76.808808" xlink:href="#m2c05f05a3a" y="208.670254"/>
     <use style="fill:#f77189;fill-opacity:0.8;stroke:#f77189;stroke-opacity:0.8;" x="109.014229" xlink:href="#m2c05f05a3a" y="227.575043"/>
    </g>
   </g>
   <g id="PathCollection_2">
    <defs>
     <path d="M 0 3 
C 0.795609 3 1.55874 2.683901 2.12132 2.12132 
C 2.683901 1.55874 3 0.795609 3 0 
C 3 -0.795609 2.683901 -1.55874 2.12132 -2.12132 
C 1.55874 -2.683901 0.795609 -3 0 -3 
C -0.795609 -3 -1.55874 -2.683901 -2.12132 -2.12132 
C -2.683901 -1.55874 -3 -0.795609 -3 0 
C -3 0.795609 -2.683901 1.55874 -2.12132 2.12132 
C -1.55874 2.683901 -0.795609 3 0 3 
z
" id="md07d9cc1c3" style="stroke:#ef7d32;stroke-opacity:0.8;"/>
    </defs>
    <g clip-path="url(#p2b09ea1d23)">
     <use style="fill:#ef7d32;fill-opacity:0.8;stroke:#ef7d32;stroke-opacity:0.8;" x="248.18766" xlink:href="#md07d9cc1c3" y="244.732978"/>
     <use style="fill:#ef7d32;fill-opacity:0.8;stroke:#ef7d32;stroke-opacity:0.8;" x="186.077203" xlink:href="#md07d9cc1c3" y="281.919695"/>
     <use style="fill:#ef7d32;fill-opacity:0.8;stroke:#ef7d32;stroke-opacity:0.8;" x="198.729333" xlink:href="#md07d9cc1c3" y="281.591176"/>
     <use style="fill:#ef7d32;fill-opacity:0.8;stroke:#ef7d32;stroke-opacity:0.8;" x="189.527784" xlink:href="#md07d9cc1c3" y="247.764625"/>
     <use style="fill:#ef7d32;fill-opacity:0.8;stroke:#ef7d32;stroke-opacity:0.8;" x="187.227397" xlink:href="#md07d9cc1c3" y="263.302531"/>
     <use style="fill:#ef7d32;fill-opacity:0.8;stroke:#ef7d32;stroke-opacity:0.8;" x="203.330108" xlink:href="#md07d9cc1c3" y="273.617343"/>
     <use style="fill:#ef7d32;fill-opacity:0.8;stroke:#ef7d32;stroke-opacity:0.8;" x="209.081076" xlink:href="#md07d9cc1c3" y="280.963175"/>
     <use style="fill:#ef7d32;fill-opacity:0.8;stroke:#ef7d32;stroke-opacity:0.8;" x="203.330108" xlink:href="#md07d9cc1c3" y="277.031126"/>
    </g>
   </g>
   <g id="PathCollection_3">
    <defs>
     <path d="M 0 3 
C 0.795609 3 1.55874 2.683901 2.12132 2.12132 
C 2.683901 1.55874 3 0.795609 3 0 
C 3 -0.795609 2.683901 -1.55874 2.12132 -2.12132 
C 1.55874 -2.683901 0.795609 -3 0 -3 
C -0.795609 -3 -1.55874 -2.683901 -2.12132 -2.12132 
C -2.683901 -1.55874 -3 -0.795609 -3 0 
C -3 0.795609 -2.683901 1.55874 -2.12132 2.12132 
C -1.55874 2.683901 -0.795609 3 0 3 
z
" id="m7442dd6ad9" style="stroke:#c69432;stroke-opacity:0.8;"/>
    </defs>
    <g clip-path="url(#p2b09ea1d23)">
     <use style="fill:#c69432;fill-opacity:0.8;stroke:#c69432;stroke-opacity:0.8;" x="219.432819" xlink:href="#m7442dd6ad9" y="270.201398"/>
     <use style="fill:#c69432;fill-opacity:0.8;stroke:#c69432;stroke-opacity:0.8;" x="220.583013" xlink:href="#m7442dd6ad9" y="216.947978"/>
     <use style="fill:#c69432;fill-opacity:0.8;stroke:#c69432;stroke-opacity:0.8;" x="190.677978" xlink:href="#m7442dd6ad9" y="164.476581"/>
     <use style="fill:#c69432;fill-opacity:0.8;stroke:#c69432;stroke-opacity:0.8;" x="115.915391" xlink:href="#m7442dd6ad9" y="147.771909"/>
     <use style="fill:#c69432;fill-opacity:0.8;stroke:#c69432;stroke-opacity:0.8;" x="148.120813" xlink:href="#m7442dd6ad9" y="166.098877"/>
    </g>
   </g>
   <g id="PathCollection_4">
    <defs>
     <path d="M 0 3 
C 0.795609 3 1.55874 2.683901 2.12132 2.12132 
C 2.683901 1.55874 3 0.795609 3 0 
C 3 -0.795609 2.683901 -1.55874 2.12132 -2.12132 
C 1.55874 -2.683901 0.795609 -3 0 -3 
C -0.795609 -3 -1.55874 -2.683901 -2.12132 -2.12132 
C -2.683901 -1.55874 -3 -0.795609 -3 0 
C -3 0.795609 -2.683901 1.55874 -2.12132 2.12132 
C -1.55874 2.683901 -0.795609 3 0 3 
z
" id="m918ff49606" style="stroke:#a79f31;stroke-opacity:0.8;"/>
    </defs>
    <g clip-path="url(#p2b09ea1d23)">
     <use style="fill:#a79f31;fill-opacity:0.8;stroke:#a79f31;stroke-opacity:0.8;" x="229.784562" xlink:href="#m918ff49606" y="282.649667"/>
     <use style="fill:#a79f31;fill-opacity:0.8;stroke:#a79f31;stroke-opacity:0.8;" x="245.887273" xlink:href="#m918ff49606" y="281.319819"/>
     <use style="fill:#a79f31;fill-opacity:0.8;stroke:#a79f31;stroke-opacity:0.8;" x="95.211906" xlink:href="#m918ff49606" y="143.216793"/>
     <use style="fill:#a79f31;fill-opacity:0.8;stroke:#a79f31;stroke-opacity:0.8;" x="135.468683" xlink:href="#m918ff49606" y="215.713045"/>
     <use style="fill:#a79f31;fill-opacity:0.8;stroke:#a79f31;stroke-opacity:0.8;" x="169.974492" xlink:href="#m918ff49606" y="277.922977"/>
     <use style="fill:#a79f31;fill-opacity:0.8;stroke:#a79f31;stroke-opacity:0.8;" x="181.476429" xlink:href="#m918ff49606" y="281.283395"/>
     <use style="fill:#a79f31;fill-opacity:0.8;stroke:#a79f31;stroke-opacity:0.8;" x="132.018102" xlink:href="#m918ff49606" y="280.042412"/>
    </g>
   </g>
   <g id="PathCollection_5">
    <defs>
     <path d="M 0 3 
C 0.795609 3 1.55874 2.683901 2.12132 2.12132 
C 2.683901 1.55874 3 0.795609 3 0 
C 3 -0.795609 2.683901 -1.55874 2.12132 -2.12132 
C 1.55874 -2.683901 0.795609 -3 0 -3 
C -0.795609 -3 -1.55874 -2.683901 -2.12132 -2.12132 
C -2.683901 -1.55874 -3 -0.795609 -3 0 
C -3 0.795609 -2.683901 1.55874 -2.12132 2.12132 
C -1.55874 2.683901 -0.795609 3 0 3 
z
" id="mbdfd797118" style="stroke:#82a931;stroke-opacity:0.8;"/>
    </defs>
    <g clip-path="url(#p2b09ea1d23)">
     <use style="fill:#82a931;fill-opacity:0.8;stroke:#82a931;stroke-opacity:0.8;" x="187.227397" xlink:href="#mbdfd797118" y="267.878421"/>
     <use style="fill:#82a931;fill-opacity:0.8;stroke:#82a931;stroke-opacity:0.8;" x="220.583013" xlink:href="#mbdfd797118" y="259.62924"/>
     <use style="fill:#82a931;fill-opacity:0.8;stroke:#82a931;stroke-opacity:0.8;" x="224.033594" xlink:href="#mbdfd797118" y="277.641955"/>
     <use style="fill:#82a931;fill-opacity:0.8;stroke:#82a931;stroke-opacity:0.8;" x="148.120813" xlink:href="#mbdfd797118" y="277.501636"/>
     <use style="fill:#82a931;fill-opacity:0.8;stroke:#82a931;stroke-opacity:0.8;" x="148.120813" xlink:href="#mbdfd797118" y="271.522908"/>
     <use style="fill:#82a931;fill-opacity:0.8;stroke:#82a931;stroke-opacity:0.8;" x="202.179914" xlink:href="#mbdfd797118" y="269.049452"/>
     <use style="fill:#82a931;fill-opacity:0.8;stroke:#82a931;stroke-opacity:0.8;" x="150.421201" xlink:href="#mbdfd797118" y="256.101764"/>
    </g>
   </g>
   <g id="PathCollection_6">
    <defs>
     <path d="M 0 3 
C 0.795609 3 1.55874 2.683901 2.12132 2.12132 
C 2.683901 1.55874 3 0.795609 3 0 
C 3 -0.795609 2.683901 -1.55874 2.12132 -2.12132 
C 1.55874 -2.683901 0.795609 -3 0 -3 
C -0.795609 -3 -1.55874 -2.683901 -2.12132 -2.12132 
C -2.683901 -1.55874 -3 -0.795609 -3 0 
C -3 0.795609 -2.683901 1.55874 -2.12132 2.12132 
C -1.55874 2.683901 -0.795609 3 0 3 
z
" id="m65b27b6f0b" style="stroke:#32b24e;stroke-opacity:0.8;"/>
    </defs>
    <g clip-path="url(#p2b09ea1d23)">
     <use style="fill:#32b24e;fill-opacity:0.8;stroke:#32b24e;stroke-opacity:0.8;" x="178.025848" xlink:href="#m65b27b6f0b" y="91.61467"/>
     <use style="fill:#32b24e;fill-opacity:0.8;stroke:#32b24e;stroke-opacity:0.8;" x="122.816553" xlink:href="#m65b27b6f0b" y="141.686696"/>
     <use style="fill:#32b24e;fill-opacity:0.8;stroke:#32b24e;stroke-opacity:0.8;" x="122.816553" xlink:href="#m65b27b6f0b" y="178.110053"/>
     <use style="fill:#32b24e;fill-opacity:0.8;stroke:#32b24e;stroke-opacity:0.8;" x="107.864036" xlink:href="#m65b27b6f0b" y="116.440125"/>
     <use style="fill:#32b24e;fill-opacity:0.8;stroke:#32b24e;stroke-opacity:0.8;" x="110.164423" xlink:href="#m65b27b6f0b" y="165.782197"/>
     <use style="fill:#32b24e;fill-opacity:0.8;stroke:#32b24e;stroke-opacity:0.8;" x="127.417328" xlink:href="#m65b27b6f0b" y="184.09061"/>
     <use style="fill:#32b24e;fill-opacity:0.8;stroke:#32b24e;stroke-opacity:0.8;" x="143.520039" xlink:href="#m65b27b6f0b" y="139.454412"/>
    </g>
   </g>
   <g id="PathCollection_7">
    <defs>
     <path d="M 0 3 
C 0.795609 3 1.55874 2.683901 2.12132 2.12132 
C 2.683901 1.55874 3 0.795609 3 0 
C 3 -0.795609 2.683901 -1.55874 2.12132 -2.12132 
C 1.55874 -2.683901 0.795609 -3 0 -3 
C -0.795609 -3 -1.55874 -2.683901 -2.12132 -2.12132 
C -2.683901 -1.55874 -3 -0.795609 -3 0 
C -3 0.795609 -2.683901 1.55874 -2.12132 2.12132 
C -1.55874 2.683901 -0.795609 3 0 3 
z
" id="mcf29c39ead" style="stroke:#34af8a;stroke-opacity:0.8;"/>
    </defs>
    <g clip-path="url(#p2b09ea1d23)">
     <use style="fill:#34af8a;fill-opacity:0.8;stroke:#34af8a;stroke-opacity:0.8;" x="184.92701" xlink:href="#mcf29c39ead" y="267.501331"/>
     <use style="fill:#34af8a;fill-opacity:0.8;stroke:#34af8a;stroke-opacity:0.8;" x="122.816553" xlink:href="#mcf29c39ead" y="214.528396"/>
     <use style="fill:#34af8a;fill-opacity:0.8;stroke:#34af8a;stroke-opacity:0.8;" x="99.81268" xlink:href="#mcf29c39ead" y="108.824309"/>
     <use style="fill:#34af8a;fill-opacity:0.8;stroke:#34af8a;stroke-opacity:0.8;" x="141.219651" xlink:href="#mcf29c39ead" y="186.911596"/>
     <use style="fill:#34af8a;fill-opacity:0.8;stroke:#34af8a;stroke-opacity:0.8;" x="97.512293" xlink:href="#mcf29c39ead" y="238.699508"/>
     <use style="fill:#34af8a;fill-opacity:0.8;stroke:#34af8a;stroke-opacity:0.8;" x="77.959001" xlink:href="#mcf29c39ead" y="155.761994"/>
     <use style="fill:#34af8a;fill-opacity:0.8;stroke:#34af8a;stroke-opacity:0.8;" x="71.057839" xlink:href="#mcf29c39ead" y="124.081952"/>
     <use style="fill:#34af8a;fill-opacity:0.8;stroke:#34af8a;stroke-opacity:0.8;" x="91.761325" xlink:href="#mcf29c39ead" y="218.88419"/>
    </g>
   </g>
   <g id="PathCollection_8">
    <defs>
     <path d="M 0 3 
C 0.795609 3 1.55874 2.683901 2.12132 2.12132 
C 2.683901 1.55874 3 0.795609 3 0 
C 3 -0.795609 2.683901 -1.55874 2.12132 -2.12132 
C 1.55874 -2.683901 0.795609 -3 0 -3 
C -0.795609 -3 -1.55874 -2.683901 -2.12132 -2.12132 
C -2.683901 -1.55874 -3 -0.795609 -3 0 
C -3 0.795609 -2.683901 1.55874 -2.12132 2.12132 
C -1.55874 2.683901 -0.795609 3 0 3 
z
" id="mf39b91fe00" style="stroke:#36ada4;stroke-opacity:0.8;"/>
    </defs>
    <g clip-path="url(#p2b09ea1d23)">
     <use style="fill:#36ada4;fill-opacity:0.8;stroke:#36ada4;stroke-opacity:0.8;" x="191.828172" xlink:href="#mf39b91fe00" y="278.57798"/>
     <use style="fill:#36ada4;fill-opacity:0.8;stroke:#36ada4;stroke-opacity:0.8;" x="121.66636" xlink:href="#mf39b91fe00" y="167.274662"/>
     <use style="fill:#36ada4;fill-opacity:0.8;stroke:#36ada4;stroke-opacity:0.8;" x="137.769071" xlink:href="#mf39b91fe00" y="30.444176"/>
     <use style="fill:#36ada4;fill-opacity:0.8;stroke:#36ada4;stroke-opacity:0.8;" x="144.670232" xlink:href="#mf39b91fe00" y="162.137913"/>
     <use style="fill:#36ada4;fill-opacity:0.8;stroke:#36ada4;stroke-opacity:0.8;" x="175.725461" xlink:href="#mf39b91fe00" y="90.622818"/>
    </g>
   </g>
   <g id="PathCollection_9">
    <defs>
     <path d="M 0 3 
C 0.795609 3 1.55874 2.683901 2.12132 2.12132 
C 2.683901 1.55874 3 0.795609 3 0 
C 3 -0.795609 2.683901 -1.55874 2.12132 -2.12132 
C 1.55874 -2.683901 0.795609 -3 0 -3 
C -0.795609 -3 -1.55874 -2.683901 -2.12132 -2.12132 
C -2.683901 -1.55874 -3 -0.795609 -3 0 
C -3 0.795609 -2.683901 1.55874 -2.12132 2.12132 
C -1.55874 2.683901 -0.795609 3 0 3 
z
" id="m06869f882f" style="stroke:#37aabb;stroke-opacity:0.8;"/>
    </defs>
    <g clip-path="url(#p2b09ea1d23)">
     <use style="fill:#37aabb;fill-opacity:0.8;stroke:#37aabb;stroke-opacity:0.8;" x="187.227397" xlink:href="#m06869f882f" y="164.101822"/>
     <use style="fill:#37aabb;fill-opacity:0.8;stroke:#37aabb;stroke-opacity:0.8;" x="122.816553" xlink:href="#m06869f882f" y="104.623653"/>
     <use style="fill:#37aabb;fill-opacity:0.8;stroke:#37aabb;stroke-opacity:0.8;" x="115.915391" xlink:href="#m06869f882f" y="193.741478"/>
     <use style="fill:#37aabb;fill-opacity:0.8;stroke:#37aabb;stroke-opacity:0.8;" x="148.120813" xlink:href="#m06869f882f" y="188.828351"/>
     <use style="fill:#37aabb;fill-opacity:0.8;stroke:#37aabb;stroke-opacity:0.8;" x="122.816553" xlink:href="#m06869f882f" y="176.804969"/>
     <use style="fill:#37aabb;fill-opacity:0.8;stroke:#37aabb;stroke-opacity:0.8;" x="125.11694" xlink:href="#m06869f882f" y="187.035359"/>
    </g>
   </g>
   <g id="PathCollection_10">
    <defs>
     <path d="M 0 3 
C 0.795609 3 1.55874 2.683901 2.12132 2.12132 
C 2.683901 1.55874 3 0.795609 3 0 
C 3 -0.795609 2.683901 -1.55874 2.12132 -2.12132 
C 1.55874 -2.683901 0.795609 -3 0 -3 
C -0.795609 -3 -1.55874 -2.683901 -2.12132 -2.12132 
C -2.683901 -1.55874 -3 -0.795609 -3 0 
C -3 0.795609 -2.683901 1.55874 -2.12132 2.12132 
C -1.55874 2.683901 -0.795609 3 0 3 
z
" id="meec82f785f" style="stroke:#3aa6da;stroke-opacity:0.8;"/>
    </defs>
    <g clip-path="url(#p2b09ea1d23)">
     <use style="fill:#3aa6da;fill-opacity:0.8;stroke:#3aa6da;stroke-opacity:0.8;" x="183.776816" xlink:href="#meec82f785f" y="271.129212"/>
     <use style="fill:#3aa6da;fill-opacity:0.8;stroke:#3aa6da;stroke-opacity:0.8;" x="113.615004" xlink:href="#meec82f785f" y="243.856464"/>
     <use style="fill:#3aa6da;fill-opacity:0.8;stroke:#3aa6da;stroke-opacity:0.8;" x="150.421201" xlink:href="#meec82f785f" y="274.507086"/>
     <use style="fill:#3aa6da;fill-opacity:0.8;stroke:#3aa6da;stroke-opacity:0.8;" x="83.709969" xlink:href="#meec82f785f" y="154.225577"/>
    </g>
   </g>
   <g id="PathCollection_11">
    <defs>
     <path d="M 0 3 
C 0.795609 3 1.55874 2.683901 2.12132 2.12132 
C 2.683901 1.55874 3 0.795609 3 0 
C 3 -0.795609 2.683901 -1.55874 2.12132 -2.12132 
C 1.55874 -2.683901 0.795609 -3 0 -3 
C -0.795609 -3 -1.55874 -2.683901 -2.12132 -2.12132 
C -2.683901 -1.55874 -3 -0.795609 -3 0 
C -3 0.795609 -2.683901 1.55874 -2.12132 2.12132 
C -1.55874 2.683901 -0.795609 3 0 3 
z
" id="m54885390e1" style="stroke:#8197f4;stroke-opacity:0.8;"/>
    </defs>
    <g clip-path="url(#p2b09ea1d23)">
     <use style="fill:#8197f4;fill-opacity:0.8;stroke:#8197f4;stroke-opacity:0.8;" x="184.92701" xlink:href="#m54885390e1" y="277.158583"/>
     <use style="fill:#8197f4;fill-opacity:0.8;stroke:#8197f4;stroke-opacity:0.8;" x="164.223524" xlink:href="#m54885390e1" y="262.143126"/>
     <use style="fill:#8197f4;fill-opacity:0.8;stroke:#8197f4;stroke-opacity:0.8;" x="92.911518" xlink:href="#m54885390e1" y="179.893339"/>
     <use style="fill:#8197f4;fill-opacity:0.8;stroke:#8197f4;stroke-opacity:0.8;" x="95.211906" xlink:href="#m54885390e1" y="181.346343"/>
     <use style="fill:#8197f4;fill-opacity:0.8;stroke:#8197f4;stroke-opacity:0.8;" x="117.065585" xlink:href="#m54885390e1" y="207.820524"/>
     <use style="fill:#8197f4;fill-opacity:0.8;stroke:#8197f4;stroke-opacity:0.8;" x="94.061712" xlink:href="#m54885390e1" y="199.093246"/>
     <use style="fill:#8197f4;fill-opacity:0.8;stroke:#8197f4;stroke-opacity:0.8;" x="92.911518" xlink:href="#m54885390e1" y="217.916214"/>
    </g>
   </g>
   <g id="PathCollection_12">
    <defs>
     <path d="M 0 3 
C 0.795609 3 1.55874 2.683901 2.12132 2.12132 
C 2.683901 1.55874 3 0.795609 3 0 
C 3 -0.795609 2.683901 -1.55874 2.12132 -2.12132 
C 1.55874 -2.683901 0.795609 -3 0 -3 
C -0.795609 -3 -1.55874 -2.683901 -2.12132 -2.12132 
C -2.683901 -1.55874 -3 -0.795609 -3 0 
C -3 0.795609 -2.683901 1.55874 -2.12132 2.12132 
C -1.55874 2.683901 -0.795609 3 0 3 
z
" id="m86116e6fce" style="stroke:#c180f4;stroke-opacity:0.8;"/>
    </defs>
    <g clip-path="url(#p2b09ea1d23)">
     <use style="fill:#c180f4;fill-opacity:0.8;stroke:#c180f4;stroke-opacity:0.8;" x="211.381464" xlink:href="#m86116e6fce" y="271.683899"/>
     <use style="fill:#c180f4;fill-opacity:0.8;stroke:#c180f4;stroke-opacity:0.8;" x="188.377591" xlink:href="#m86116e6fce" y="226.707725"/>
     <use style="fill:#c180f4;fill-opacity:0.8;stroke:#c180f4;stroke-opacity:0.8;" x="151.571394" xlink:href="#m86116e6fce" y="212.008651"/>
     <use style="fill:#c180f4;fill-opacity:0.8;stroke:#c180f4;stroke-opacity:0.8;" x="178.025848" xlink:href="#m86116e6fce" y="272.864588"/>
     <use style="fill:#c180f4;fill-opacity:0.8;stroke:#c180f4;stroke-opacity:0.8;" x="166.523912" xlink:href="#m86116e6fce" y="273.838026"/>
     <use style="fill:#c180f4;fill-opacity:0.8;stroke:#c180f4;stroke-opacity:0.8;" x="212.531657" xlink:href="#m86116e6fce" y="279.757703"/>
    </g>
   </g>
   <g id="PathCollection_13">
    <defs>
     <path d="M 0 3 
C 0.795609 3 1.55874 2.683901 2.12132 2.12132 
C 2.683901 1.55874 3 0.795609 3 0 
C 3 -0.795609 2.683901 -1.55874 2.12132 -2.12132 
C 1.55874 -2.683901 0.795609 -3 0 -3 
C -0.795609 -3 -1.55874 -2.683901 -2.12132 -2.12132 
C -2.683901 -1.55874 -3 -0.795609 -3 0 
C -3 0.795609 -2.683901 1.55874 -2.12132 2.12132 
C -1.55874 2.683901 -0.795609 3 0 3 
z
" id="mcbd4b6f6ec" style="stroke:#f45deb;stroke-opacity:0.8;"/>
    </defs>
    <g clip-path="url(#p2b09ea1d23)">
     <use style="fill:#f45deb;fill-opacity:0.8;stroke:#f45deb;stroke-opacity:0.8;" x="243.586886" xlink:href="#mcbd4b6f6ec" y="283.076797"/>
     <use style="fill:#f45deb;fill-opacity:0.8;stroke:#f45deb;stroke-opacity:0.8;" x="271.191533" xlink:href="#mcbd4b6f6ec" y="282.351615"/>
     <use style="fill:#f45deb;fill-opacity:0.8;stroke:#f45deb;stroke-opacity:0.8;" x="247.037466" xlink:href="#mcbd4b6f6ec" y="282.990156"/>
     <use style="fill:#f45deb;fill-opacity:0.8;stroke:#f45deb;stroke-opacity:0.8;" x="217.132432" xlink:href="#mcbd4b6f6ec" y="281.813246"/>
     <use style="fill:#f45deb;fill-opacity:0.8;stroke:#f45deb;stroke-opacity:0.8;" x="207.930883" xlink:href="#mcbd4b6f6ec" y="275.907252"/>
     <use style="fill:#f45deb;fill-opacity:0.8;stroke:#f45deb;stroke-opacity:0.8;" x="210.23127" xlink:href="#mcbd4b6f6ec" y="282.468636"/>
     <use style="fill:#f45deb;fill-opacity:0.8;stroke:#f45deb;stroke-opacity:0.8;" x="194.128559" xlink:href="#mcbd4b6f6ec" y="282.137792"/>
    </g>
   </g>
   <g id="PathCollection_14">
    <defs>
     <path d="M 0 3 
C 0.795609 3 1.55874 2.683901 2.12132 2.12132 
C 2.683901 1.55874 3 0.795609 3 0 
C 3 -0.795609 2.683901 -1.55874 2.12132 -2.12132 
C 1.55874 -2.683901 0.795609 -3 0 -3 
C -0.795609 -3 -1.55874 -2.683901 -2.12132 -2.12132 
C -2.683901 -1.55874 -3 -0.795609 -3 0 
C -3 0.795609 -2.683901 1.55874 -2.12132 2.12132 
C -1.55874 2.683901 -0.795609 3 0 3 
z
" id="m97c51251a3" style="stroke:#f669ba;stroke-opacity:0.8;"/>
    </defs>
    <g clip-path="url(#p2b09ea1d23)">
     <use style="fill:#f669ba;fill-opacity:0.8;stroke:#f669ba;stroke-opacity:0.8;" x="339.052958" xlink:href="#m97c51251a3" y="282.647834"/>
     <use style="fill:#f669ba;fill-opacity:0.8;stroke:#f669ba;stroke-opacity:0.8;" x="302.246761" xlink:href="#m97c51251a3" y="279.768542"/>
     <use style="fill:#f669ba;fill-opacity:0.8;stroke:#f669ba;stroke-opacity:0.8;" x="321.800053" xlink:href="#m97c51251a3" y="281.343916"/>
     <use style="fill:#f669ba;fill-opacity:0.8;stroke:#f669ba;stroke-opacity:0.8;" x="287.294244" xlink:href="#m97c51251a3" y="281.993515"/>
     <use style="fill:#f669ba;fill-opacity:0.8;stroke:#f669ba;stroke-opacity:0.8;" x="279.242888" xlink:href="#m97c51251a3" y="282.507544"/>
     <use style="fill:#f669ba;fill-opacity:0.8;stroke:#f669ba;stroke-opacity:0.8;" x="294.195406" xlink:href="#m97c51251a3" y="282.979882"/>
     <use style="fill:#f669ba;fill-opacity:0.8;stroke:#f669ba;stroke-opacity:0.8;" x="270.041339" xlink:href="#m97c51251a3" y="282.575193"/>
    </g>
   </g>
   <g id="line2d_1">
    <path clip-path="url(#p2b09ea1d23)" d="M 75.658614 163.000922 
L 76.262756 163.810009 
L 76.866898 164.619096 
L 77.47104 165.428184 
L 78.075182 166.237271 
L 78.679324 167.046358 
L 79.283467 167.855445 
L 79.887609 168.664533 
L 80.491751 169.47362 
L 81.095893 170.282707 
L 81.700035 171.091794 
L 82.304177 171.900882 
L 82.908319 172.709969 
L 83.512461 173.519056 
L 84.116603 174.328143 
L 84.720746 175.137231 
L 85.324888 175.946318 
L 85.92903 176.755405 
L 86.533172 177.564492 
L 87.137314 178.37358 
L 87.741456 179.182667 
L 88.345598 179.991754 
L 88.94974 180.800841 
L 89.553883 181.609929 
L 90.158025 182.419016 
L 90.762167 183.228103 
L 91.366309 184.037191 
L 91.970451 184.846278 
L 92.574593 185.655365 
L 93.178735 186.464452 
L 93.782877 187.27354 
L 94.387019 188.082627 
L 94.991162 188.891714 
L 95.595304 189.700801 
L 96.199446 190.509889 
L 96.803588 191.318976 
L 97.40773 192.128063 
L 98.011872 192.93715 
L 98.616014 193.746238 
L 99.220156 194.555325 
L 99.824298 195.364412 
L 100.428441 196.173499 
L 101.032583 196.982587 
L 101.636725 197.791674 
L 102.240867 198.600761 
L 102.845009 199.409848 
L 103.449151 200.218936 
L 104.053293 201.028023 
L 104.657435 201.83711 
L 105.261577 202.646197 
L 105.86572 203.455285 
L 106.469862 204.264372 
L 107.074004 205.073459 
L 107.678146 205.882546 
L 108.282288 206.691634 
L 108.88643 207.500721 
L 109.490572 208.309808 
L 110.094714 209.118895 
L 110.698857 209.927983 
L 111.302999 210.73707 
L 111.907141 211.546157 
L 112.511283 212.355245 
L 113.115425 213.164332 
L 113.719567 213.973419 
L 114.323709 214.782506 
L 114.927851 215.591594 
L 115.531993 216.400681 
L 116.136136 217.209768 
L 116.740278 218.018855 
L 117.34442 218.827943 
L 117.948562 219.63703 
L 118.552704 220.446117 
L 119.156846 221.255204 
L 119.760988 222.064292 
L 120.36513 222.873379 
L 120.969272 223.682466 
L 121.573415 224.491553 
L 122.177557 225.300641 
L 122.781699 226.109728 
L 123.385841 226.918815 
L 123.989983 227.727902 
L 124.594125 228.53699 
L 125.198267 229.346077 
L 125.802409 230.155164 
L 126.406552 230.964251 
L 127.010694 231.773339 
L 127.614836 232.582426 
L 128.218978 233.391513 
L 128.82312 234.2006 
L 129.427262 235.009688 
L 130.031404 235.818775 
L 130.635546 236.627862 
L 131.239688 237.436949 
L 131.843831 238.246037 
L 132.447973 239.055124 
L 133.052115 239.864211 
L 133.656257 240.673299 
L 134.260399 241.482386 
L 134.864541 242.291473 
L 135.468683 243.10056 
" style="fill:none;stroke:#f77189;stroke-linecap:round;stroke-width:2.25;"/>
   </g>
   <g id="line2d_2">
    <path clip-path="url(#p2b09ea1d23)" d="M 186.077203 274.434543 
L 186.704582 274.230324 
L 187.33196 274.026106 
L 187.959338 273.821887 
L 188.586717 273.617669 
L 189.214095 273.41345 
L 189.841474 273.209231 
L 190.468852 273.005013 
L 191.09623 272.800794 
L 191.723609 272.596576 
L 192.350987 272.392357 
L 192.978365 272.188138 
L 193.605744 271.98392 
L 194.233122 271.779701 
L 194.8605 271.575482 
L 195.487879 271.371264 
L 196.115257 271.167045 
L 196.742635 270.962827 
L 197.370014 270.758608 
L 197.997392 270.554389 
L 198.62477 270.350171 
L 199.252149 270.145952 
L 199.879527 269.941733 
L 200.506905 269.737515 
L 201.134284 269.533296 
L 201.761662 269.329078 
L 202.389041 269.124859 
L 203.016419 268.92064 
L 203.643797 268.716422 
L 204.271176 268.512203 
L 204.898554 268.307984 
L 205.525932 268.103766 
L 206.153311 267.899547 
L 206.780689 267.695329 
L 207.408067 267.49111 
L 208.035446 267.286891 
L 208.662824 267.082673 
L 209.290202 266.878454 
L 209.917581 266.674235 
L 210.544959 266.470017 
L 211.172337 266.265798 
L 211.799716 266.06158 
L 212.427094 265.857361 
L 213.054472 265.653142 
L 213.681851 265.448924 
L 214.309229 265.244705 
L 214.936608 265.040486 
L 215.563986 264.836268 
L 216.191364 264.632049 
L 216.818743 264.427831 
L 217.446121 264.223612 
L 218.073499 264.019393 
L 218.700878 263.815175 
L 219.328256 263.610956 
L 219.955634 263.406738 
L 220.583013 263.202519 
L 221.210391 262.9983 
L 221.837769 262.794082 
L 222.465148 262.589863 
L 223.092526 262.385644 
L 223.719904 262.181426 
L 224.347283 261.977207 
L 224.974661 261.772989 
L 225.602039 261.56877 
L 226.229418 261.364551 
L 226.856796 261.160333 
L 227.484175 260.956114 
L 228.111553 260.751895 
L 228.738931 260.547677 
L 229.36631 260.343458 
L 229.993688 260.13924 
L 230.621066 259.935021 
L 231.248445 259.730802 
L 231.875823 259.526584 
L 232.503201 259.322365 
L 233.13058 259.118146 
L 233.757958 258.913928 
L 234.385336 258.709709 
L 235.012715 258.505491 
L 235.640093 258.301272 
L 236.267471 258.097053 
L 236.89485 257.892835 
L 237.522228 257.688616 
L 238.149606 257.484397 
L 238.776985 257.280179 
L 239.404363 257.07596 
L 240.031742 256.871742 
L 240.65912 256.667523 
L 241.286498 256.463304 
L 241.913877 256.259086 
L 242.541255 256.054867 
L 243.168633 255.850648 
L 243.796012 255.64643 
L 244.42339 255.442211 
L 245.050768 255.237993 
L 245.678147 255.033774 
L 246.305525 254.829555 
L 246.932903 254.625337 
L 247.560282 254.421118 
L 248.18766 254.216899 
" style="fill:none;stroke:#ef7d32;stroke-linecap:round;stroke-width:2.25;"/>
   </g>
   <g id="line2d_3">
    <path clip-path="url(#p2b09ea1d23)" d="M 115.915391 137.283977 
L 116.97264 138.2202 
L 118.029889 139.156424 
L 119.087137 140.092647 
L 120.144386 141.02887 
L 121.201635 141.965094 
L 122.258884 142.901317 
L 123.316132 143.83754 
L 124.373381 144.773764 
L 125.43063 145.709987 
L 126.487878 146.64621 
L 127.545127 147.582434 
L 128.602376 148.518657 
L 129.659624 149.45488 
L 130.716873 150.391104 
L 131.774122 151.327327 
L 132.831371 152.26355 
L 133.888619 153.199774 
L 134.945868 154.135997 
L 136.003117 155.07222 
L 137.060365 156.008444 
L 138.117614 156.944667 
L 139.174863 157.88089 
L 140.232111 158.817114 
L 141.28936 159.753337 
L 142.346609 160.68956 
L 143.403858 161.625784 
L 144.461106 162.562007 
L 145.518355 163.49823 
L 146.575604 164.434454 
L 147.632852 165.370677 
L 148.690101 166.3069 
L 149.74735 167.243124 
L 150.804598 168.179347 
L 151.861847 169.11557 
L 152.919096 170.051794 
L 153.976345 170.988017 
L 155.033593 171.92424 
L 156.090842 172.860463 
L 157.148091 173.796687 
L 158.205339 174.73291 
L 159.262588 175.669133 
L 160.319837 176.605357 
L 161.377085 177.54158 
L 162.434334 178.477803 
L 163.491583 179.414027 
L 164.548832 180.35025 
L 165.60608 181.286473 
L 166.663329 182.222697 
L 167.720578 183.15892 
L 168.777826 184.095143 
L 169.835075 185.031367 
L 170.892324 185.96759 
L 171.949572 186.903813 
L 173.006821 187.840037 
L 174.06407 188.77626 
L 175.121319 189.712483 
L 176.178567 190.648707 
L 177.235816 191.58493 
L 178.293065 192.521153 
L 179.350313 193.457377 
L 180.407562 194.3936 
L 181.464811 195.329823 
L 182.522059 196.266047 
L 183.579308 197.20227 
L 184.636557 198.138493 
L 185.693806 199.074717 
L 186.751054 200.01094 
L 187.808303 200.947163 
L 188.865552 201.883387 
L 189.9228 202.81961 
L 190.980049 203.755833 
L 192.037298 204.692057 
L 193.094546 205.62828 
L 194.151795 206.564503 
L 195.209044 207.500727 
L 196.266293 208.43695 
L 197.323541 209.373173 
L 198.38079 210.309397 
L 199.438039 211.24562 
L 200.495287 212.181843 
L 201.552536 213.118066 
L 202.609785 214.05429 
L 203.667033 214.990513 
L 204.724282 215.926736 
L 205.781531 216.86296 
L 206.83878 217.799183 
L 207.896028 218.735406 
L 208.953277 219.67163 
L 210.010526 220.607853 
L 211.067774 221.544076 
L 212.125023 222.4803 
L 213.182272 223.416523 
L 214.23952 224.352746 
L 215.296769 225.28897 
L 216.354018 226.225193 
L 217.411267 227.161416 
L 218.468515 228.09764 
L 219.525764 229.033863 
L 220.583013 229.970086 
" style="fill:none;stroke:#c69432;stroke-linecap:round;stroke-width:2.25;"/>
   </g>
   <g id="line2d_4">
    <path clip-path="url(#p2b09ea1d23)" d="M 95.211906 198.0021 
L 96.733879 199.095973 
L 98.255853 200.189845 
L 99.777826 201.283717 
L 101.299799 202.377589 
L 102.821773 203.471462 
L 104.343746 204.565334 
L 105.86572 205.659206 
L 107.387693 206.753078 
L 108.909666 207.846951 
L 110.43164 208.940823 
L 111.953613 210.034695 
L 113.475587 211.128568 
L 114.99756 212.22244 
L 116.519533 213.316312 
L 118.041507 214.410184 
L 119.56348 215.504057 
L 121.085454 216.597929 
L 122.607427 217.691801 
L 124.1294 218.785673 
L 125.651374 219.879546 
L 127.173347 220.973418 
L 128.695321 222.06729 
L 130.217294 223.161162 
L 131.739267 224.255035 
L 133.261241 225.348907 
L 134.783214 226.442779 
L 136.305188 227.536651 
L 137.827161 228.630524 
L 139.349134 229.724396 
L 140.871108 230.818268 
L 142.393081 231.912141 
L 143.915055 233.006013 
L 145.437028 234.099885 
L 146.959002 235.193757 
L 148.480975 236.28763 
L 150.002948 237.381502 
L 151.524922 238.475374 
L 153.046895 239.569246 
L 154.568869 240.663119 
L 156.090842 241.756991 
L 157.612815 242.850863 
L 159.134789 243.944735 
L 160.656762 245.038608 
L 162.178736 246.13248 
L 163.700709 247.226352 
L 165.222682 248.320225 
L 166.744656 249.414097 
L 168.266629 250.507969 
L 169.788603 251.601841 
L 171.310576 252.695714 
L 172.832549 253.789586 
L 174.354523 254.883458 
L 175.876496 255.97733 
L 177.39847 257.071203 
L 178.920443 258.165075 
L 180.442416 259.258947 
L 181.96439 260.352819 
L 183.486363 261.446692 
L 185.008337 262.540564 
L 186.53031 263.634436 
L 188.052283 264.728308 
L 189.574257 265.822181 
L 191.09623 266.916053 
L 192.618204 268.009925 
L 194.140177 269.103798 
L 195.66215 270.19767 
L 197.184124 271.291542 
L 198.706097 272.385414 
L 200.228071 273.479287 
L 201.750044 274.573159 
L 203.272017 275.667031 
L 204.793991 276.760903 
L 206.315964 277.854776 
L 207.837938 278.948648 
L 209.359911 280.04252 
L 210.881884 281.136392 
L 212.403858 282.230265 
L 213.925831 283.324137 
L 215.447805 284.418009 
L 216.969778 285.511882 
L 218.491752 286.605754 
L 220.013725 287.699626 
L 221.535698 288.793498 
L 223.057672 289.887371 
L 224.579645 290.981243 
L 226.101619 292.075115 
L 227.623592 293.168987 
L 229.145565 294.26286 
L 230.667539 295.356732 
L 232.189512 296.450604 
L 233.711486 297.544476 
L 235.233459 298.638349 
L 236.755432 299.732221 
L 238.277406 300.826093 
L 239.799379 301.919965 
L 241.321353 303.013838 
L 242.843326 304.10771 
L 244.365299 305.201582 
L 245.887273 306.295455 
" style="fill:none;stroke:#a79f31;stroke-linecap:round;stroke-width:2.25;"/>
   </g>
   <g id="line2d_5">
    <path clip-path="url(#p2b09ea1d23)" d="M 148.120813 268.304519 
L 148.887609 268.308273 
L 149.654405 268.312027 
L 150.421201 268.315781 
L 151.187996 268.319535 
L 151.954792 268.323289 
L 152.721588 268.327043 
L 153.488384 268.330797 
L 154.255179 268.334551 
L 155.021975 268.338304 
L 155.788771 268.342058 
L 156.555567 268.345812 
L 157.322362 268.349566 
L 158.089158 268.35332 
L 158.855954 268.357074 
L 159.62275 268.360828 
L 160.389545 268.364582 
L 161.156341 268.368336 
L 161.923137 268.372089 
L 162.689933 268.375843 
L 163.456728 268.379597 
L 164.223524 268.383351 
L 164.99032 268.387105 
L 165.757116 268.390859 
L 166.523912 268.394613 
L 167.290707 268.398367 
L 168.057503 268.402121 
L 168.824299 268.405875 
L 169.591095 268.409628 
L 170.35789 268.413382 
L 171.124686 268.417136 
L 171.891482 268.42089 
L 172.658278 268.424644 
L 173.425073 268.428398 
L 174.191869 268.432152 
L 174.958665 268.435906 
L 175.725461 268.43966 
L 176.492256 268.443414 
L 177.259052 268.447167 
L 178.025848 268.450921 
L 178.792644 268.454675 
L 179.559439 268.458429 
L 180.326235 268.462183 
L 181.093031 268.465937 
L 181.859827 268.469691 
L 182.626623 268.473445 
L 183.393418 268.477199 
L 184.160214 268.480953 
L 184.92701 268.484706 
L 185.693806 268.48846 
L 186.460601 268.492214 
L 187.227397 268.495968 
L 187.994193 268.499722 
L 188.760989 268.503476 
L 189.527784 268.50723 
L 190.29458 268.510984 
L 191.061376 268.514738 
L 191.828172 268.518492 
L 192.594967 268.522245 
L 193.361763 268.525999 
L 194.128559 268.529753 
L 194.895355 268.533507 
L 195.66215 268.537261 
L 196.428946 268.541015 
L 197.195742 268.544769 
L 197.962538 268.548523 
L 198.729333 268.552277 
L 199.496129 268.556031 
L 200.262925 268.559784 
L 201.029721 268.563538 
L 201.796517 268.567292 
L 202.563312 268.571046 
L 203.330108 268.5748 
L 204.096904 268.578554 
L 204.8637 268.582308 
L 205.630495 268.586062 
L 206.397291 268.589816 
L 207.164087 268.593569 
L 207.930883 268.597323 
L 208.697678 268.601077 
L 209.464474 268.604831 
L 210.23127 268.608585 
L 210.998066 268.612339 
L 211.764861 268.616093 
L 212.531657 268.619847 
L 213.298453 268.623601 
L 214.065249 268.627355 
L 214.832044 268.631108 
L 215.59884 268.634862 
L 216.365636 268.638616 
L 217.132432 268.64237 
L 217.899228 268.646124 
L 218.666023 268.649878 
L 219.432819 268.653632 
L 220.199615 268.657386 
L 220.966411 268.66114 
L 221.733206 268.664894 
L 222.500002 268.668647 
L 223.266798 268.672401 
L 224.033594 268.676155 
" style="fill:none;stroke:#82a931;stroke-linecap:round;stroke-width:2.25;"/>
   </g>
   <g id="line2d_6">
    <path clip-path="url(#p2b09ea1d23)" d="M 107.864036 162.992874 
L 108.572741 162.436208 
L 109.281446 161.879543 
L 109.990151 161.322878 
L 110.698857 160.766212 
L 111.407562 160.209547 
L 112.116267 159.652881 
L 112.824972 159.096216 
L 113.533677 158.539551 
L 114.242382 157.982885 
L 114.951088 157.42622 
L 115.659793 156.869555 
L 116.368498 156.312889 
L 117.077203 155.756224 
L 117.785908 155.199558 
L 118.494613 154.642893 
L 119.203319 154.086228 
L 119.912024 153.529562 
L 120.620729 152.972897 
L 121.329434 152.416232 
L 122.038139 151.859566 
L 122.746844 151.302901 
L 123.45555 150.746235 
L 124.164255 150.18957 
L 124.87296 149.632905 
L 125.581665 149.076239 
L 126.29037 148.519574 
L 126.999076 147.962909 
L 127.707781 147.406243 
L 128.416486 146.849578 
L 129.125191 146.292912 
L 129.833896 145.736247 
L 130.542601 145.179582 
L 131.251307 144.622916 
L 131.960012 144.066251 
L 132.668717 143.509585 
L 133.377422 142.95292 
L 134.086127 142.396255 
L 134.794832 141.839589 
L 135.503538 141.282924 
L 136.212243 140.726259 
L 136.920948 140.169593 
L 137.629653 139.612928 
L 138.338358 139.056262 
L 139.047063 138.499597 
L 139.755769 137.942932 
L 140.464474 137.386266 
L 141.173179 136.829601 
L 141.881884 136.272936 
L 142.590589 135.71627 
L 143.299294 135.159605 
L 144.008 134.602939 
L 144.716705 134.046274 
L 145.42541 133.489609 
L 146.134115 132.932943 
L 146.84282 132.376278 
L 147.551526 131.819613 
L 148.260231 131.262947 
L 148.968936 130.706282 
L 149.677641 130.149616 
L 150.386346 129.592951 
L 151.095051 129.036286 
L 151.803757 128.47962 
L 152.512462 127.922955 
L 153.221167 127.366289 
L 153.929872 126.809624 
L 154.638577 126.252959 
L 155.347282 125.696293 
L 156.055988 125.139628 
L 156.764693 124.582963 
L 157.473398 124.026297 
L 158.182103 123.469632 
L 158.890808 122.912966 
L 159.599513 122.356301 
L 160.308219 121.799636 
L 161.016924 121.24297 
L 161.725629 120.686305 
L 162.434334 120.12964 
L 163.143039 119.572974 
L 163.851744 119.016309 
L 164.56045 118.459643 
L 165.269155 117.902978 
L 165.97786 117.346313 
L 166.686565 116.789647 
L 167.39527 116.232982 
L 168.103976 115.676317 
L 168.812681 115.119651 
L 169.521386 114.562986 
L 170.230091 114.00632 
L 170.938796 113.449655 
L 171.647501 112.89299 
L 172.356207 112.336324 
L 173.064912 111.779659 
L 173.773617 111.222994 
L 174.482322 110.666328 
L 175.191027 110.109663 
L 175.899732 109.552997 
L 176.608438 108.996332 
L 177.317143 108.439667 
L 178.025848 107.883001 
" style="fill:none;stroke:#32b24e;stroke-linecap:round;stroke-width:2.25;"/>
   </g>
   <g id="line2d_7">
    <path clip-path="url(#p2b09ea1d23)" d="M 71.057839 151.576932 
L 72.208033 152.66927 
L 73.358227 153.761609 
L 74.50842 154.853948 
L 75.658614 155.946287 
L 76.808808 157.038625 
L 77.959001 158.130964 
L 79.109195 159.223303 
L 80.259388 160.315641 
L 81.409582 161.40798 
L 82.559776 162.500319 
L 83.709969 163.592657 
L 84.860163 164.684996 
L 86.010357 165.777335 
L 87.16055 166.869674 
L 88.310744 167.962012 
L 89.460938 169.054351 
L 90.611131 170.14669 
L 91.761325 171.239028 
L 92.911518 172.331367 
L 94.061712 173.423706 
L 95.211906 174.516044 
L 96.362099 175.608383 
L 97.512293 176.700722 
L 98.662487 177.793061 
L 99.81268 178.885399 
L 100.962874 179.977738 
L 102.113068 181.070077 
L 103.263261 182.162415 
L 104.413455 183.254754 
L 105.563649 184.347093 
L 106.713842 185.439431 
L 107.864036 186.53177 
L 109.014229 187.624109 
L 110.164423 188.716448 
L 111.314617 189.808786 
L 112.46481 190.901125 
L 113.615004 191.993464 
L 114.765198 193.085802 
L 115.915391 194.178141 
L 117.065585 195.27048 
L 118.215779 196.362818 
L 119.365972 197.455157 
L 120.516166 198.547496 
L 121.66636 199.639835 
L 122.816553 200.732173 
L 123.966747 201.824512 
L 125.11694 202.916851 
L 126.267134 204.009189 
L 127.417328 205.101528 
L 128.567521 206.193867 
L 129.717715 207.286205 
L 130.867909 208.378544 
L 132.018102 209.470883 
L 133.168296 210.563222 
L 134.31849 211.65556 
L 135.468683 212.747899 
L 136.618877 213.840238 
L 137.769071 214.932576 
L 138.919264 216.024915 
L 140.069458 217.117254 
L 141.219651 218.209592 
L 142.369845 219.301931 
L 143.520039 220.39427 
L 144.670232 221.486609 
L 145.820426 222.578947 
L 146.97062 223.671286 
L 148.120813 224.763625 
L 149.271007 225.855963 
L 150.421201 226.948302 
L 151.571394 228.040641 
L 152.721588 229.132979 
L 153.871781 230.225318 
L 155.021975 231.317657 
L 156.172169 232.409996 
L 157.322362 233.502334 
L 158.472556 234.594673 
L 159.62275 235.687012 
L 160.772943 236.77935 
L 161.923137 237.871689 
L 163.073331 238.964028 
L 164.223524 240.056366 
L 165.373718 241.148705 
L 166.523912 242.241044 
L 167.674105 243.333383 
L 168.824299 244.425721 
L 169.974492 245.51806 
L 171.124686 246.610399 
L 172.27488 247.702737 
L 173.425073 248.795076 
L 174.575267 249.887415 
L 175.725461 250.979753 
L 176.875654 252.072092 
L 178.025848 253.164431 
L 179.176042 254.25677 
L 180.326235 255.349108 
L 181.476429 256.441447 
L 182.626623 257.533786 
L 183.776816 258.626124 
L 184.92701 259.718463 
" style="fill:none;stroke:#34af8a;stroke-linecap:round;stroke-width:2.25;"/>
   </g>
   <g id="line2d_8">
    <path clip-path="url(#p2b09ea1d23)" d="M 121.66636 97.78403 
L 122.375065 98.826026 
L 123.08377 99.868022 
L 123.792475 100.910018 
L 124.50118 101.952014 
L 125.209885 102.994011 
L 125.918591 104.036007 
L 126.627296 105.078003 
L 127.336001 106.119999 
L 128.044706 107.161995 
L 128.753411 108.203991 
L 129.462116 109.245987 
L 130.170822 110.287983 
L 130.879527 111.329979 
L 131.588232 112.371976 
L 132.296937 113.413972 
L 133.005642 114.455968 
L 133.714347 115.497964 
L 134.423053 116.53996 
L 135.131758 117.581956 
L 135.840463 118.623952 
L 136.549168 119.665948 
L 137.257873 120.707944 
L 137.966579 121.74994 
L 138.675284 122.791937 
L 139.383989 123.833933 
L 140.092694 124.875929 
L 140.801399 125.917925 
L 141.510104 126.959921 
L 142.21881 128.001917 
L 142.927515 129.043913 
L 143.63622 130.085909 
L 144.344925 131.127905 
L 145.05363 132.169902 
L 145.762335 133.211898 
L 146.471041 134.253894 
L 147.179746 135.29589 
L 147.888451 136.337886 
L 148.597156 137.379882 
L 149.305861 138.421878 
L 150.014566 139.463874 
L 150.723272 140.50587 
L 151.431977 141.547867 
L 152.140682 142.589863 
L 152.849387 143.631859 
L 153.558092 144.673855 
L 154.266797 145.715851 
L 154.975503 146.757847 
L 155.684208 147.799843 
L 156.392913 148.841839 
L 157.101618 149.883835 
L 157.810323 150.925832 
L 158.519029 151.967828 
L 159.227734 153.009824 
L 159.936439 154.05182 
L 160.645144 155.093816 
L 161.353849 156.135812 
L 162.062554 157.177808 
L 162.77126 158.219804 
L 163.479965 159.2618 
L 164.18867 160.303797 
L 164.897375 161.345793 
L 165.60608 162.387789 
L 166.314785 163.429785 
L 167.023491 164.471781 
L 167.732196 165.513777 
L 168.440901 166.555773 
L 169.149606 167.597769 
L 169.858311 168.639765 
L 170.567016 169.681762 
L 171.275722 170.723758 
L 171.984427 171.765754 
L 172.693132 172.80775 
L 173.401837 173.849746 
L 174.110542 174.891742 
L 174.819247 175.933738 
L 175.527953 176.975734 
L 176.236658 178.01773 
L 176.945363 179.059727 
L 177.654068 180.101723 
L 178.362773 181.143719 
L 179.071479 182.185715 
L 179.780184 183.227711 
L 180.488889 184.269707 
L 181.197594 185.311703 
L 181.906299 186.353699 
L 182.615004 187.395695 
L 183.32371 188.437692 
L 184.032415 189.479688 
L 184.74112 190.521684 
L 185.449825 191.56368 
L 186.15853 192.605676 
L 186.867235 193.647672 
L 187.575941 194.689668 
L 188.284646 195.731664 
L 188.993351 196.77366 
L 189.702056 197.815657 
L 190.410761 198.857653 
L 191.119466 199.899649 
L 191.828172 200.941645 
" style="fill:none;stroke:#36ada4;stroke-linecap:round;stroke-width:2.25;"/>
   </g>
   <g id="line2d_9">
    <path clip-path="url(#p2b09ea1d23)" d="M 115.915391 168.952099 
L 116.635715 168.960201 
L 117.356038 168.968302 
L 118.076361 168.976404 
L 118.796684 168.984506 
L 119.517008 168.992608 
L 120.237331 169.00071 
L 120.957654 169.008811 
L 121.677978 169.016913 
L 122.398301 169.025015 
L 123.118624 169.033117 
L 123.838948 169.041219 
L 124.559271 169.04932 
L 125.279594 169.057422 
L 125.999917 169.065524 
L 126.720241 169.073626 
L 127.440564 169.081727 
L 128.160887 169.089829 
L 128.881211 169.097931 
L 129.601534 169.106033 
L 130.321857 169.114135 
L 131.04218 169.122236 
L 131.762504 169.130338 
L 132.482827 169.13844 
L 133.20315 169.146542 
L 133.923474 169.154643 
L 134.643797 169.162745 
L 135.36412 169.170847 
L 136.084443 169.178949 
L 136.804767 169.187051 
L 137.52509 169.195152 
L 138.245413 169.203254 
L 138.965737 169.211356 
L 139.68606 169.219458 
L 140.406383 169.22756 
L 141.126706 169.235661 
L 141.84703 169.243763 
L 142.567353 169.251865 
L 143.287676 169.259967 
L 144.008 169.268068 
L 144.728323 169.27617 
L 145.448646 169.284272 
L 146.16897 169.292374 
L 146.889293 169.300476 
L 147.609616 169.308577 
L 148.329939 169.316679 
L 149.050263 169.324781 
L 149.770586 169.332883 
L 150.490909 169.340984 
L 151.211233 169.349086 
L 151.931556 169.357188 
L 152.651879 169.36529 
L 153.372202 169.373392 
L 154.092526 169.381493 
L 154.812849 169.389595 
L 155.533172 169.397697 
L 156.253496 169.405799 
L 156.973819 169.413901 
L 157.694142 169.422002 
L 158.414465 169.430104 
L 159.134789 169.438206 
L 159.855112 169.446308 
L 160.575435 169.454409 
L 161.295759 169.462511 
L 162.016082 169.470613 
L 162.736405 169.478715 
L 163.456728 169.486817 
L 164.177052 169.494918 
L 164.897375 169.50302 
L 165.617698 169.511122 
L 166.338022 169.519224 
L 167.058345 169.527325 
L 167.778668 169.535427 
L 168.498992 169.543529 
L 169.219315 169.551631 
L 169.939638 169.559733 
L 170.659961 169.567834 
L 171.380285 169.575936 
L 172.100608 169.584038 
L 172.820931 169.59214 
L 173.541255 169.600242 
L 174.261578 169.608343 
L 174.981901 169.616445 
L 175.702224 169.624547 
L 176.422548 169.632649 
L 177.142871 169.64075 
L 177.863194 169.648852 
L 178.583518 169.656954 
L 179.303841 169.665056 
L 180.024164 169.673158 
L 180.744487 169.681259 
L 181.464811 169.689361 
L 182.185134 169.697463 
L 182.905457 169.705565 
L 183.625781 169.713666 
L 184.346104 169.721768 
L 185.066427 169.72987 
L 185.786751 169.737972 
L 186.507074 169.746074 
L 187.227397 169.754175 
" style="fill:none;stroke:#37aabb;stroke-linecap:round;stroke-width:2.25;"/>
   </g>
   <g id="line2d_10">
    <path clip-path="url(#p2b09ea1d23)" d="M 83.709969 181.174166 
L 84.720746 182.299743 
L 85.731522 183.42532 
L 86.742298 184.550896 
L 87.753074 185.676473 
L 88.763851 186.802049 
L 89.774627 187.927626 
L 90.785403 189.053202 
L 91.796179 190.178779 
L 92.806955 191.304355 
L 93.817732 192.429932 
L 94.828508 193.555509 
L 95.839284 194.681085 
L 96.85006 195.806662 
L 97.860837 196.932238 
L 98.871613 198.057815 
L 99.882389 199.183391 
L 100.893165 200.308968 
L 101.903942 201.434544 
L 102.914718 202.560121 
L 103.925494 203.685698 
L 104.93627 204.811274 
L 105.947046 205.936851 
L 106.957823 207.062427 
L 107.968599 208.188004 
L 108.979375 209.31358 
L 109.990151 210.439157 
L 111.000928 211.564734 
L 112.011704 212.69031 
L 113.02248 213.815887 
L 114.033256 214.941463 
L 115.044033 216.06704 
L 116.054809 217.192616 
L 117.065585 218.318193 
L 118.076361 219.443769 
L 119.087137 220.569346 
L 120.097914 221.694923 
L 121.10869 222.820499 
L 122.119466 223.946076 
L 123.130242 225.071652 
L 124.141019 226.197229 
L 125.151795 227.322805 
L 126.162571 228.448382 
L 127.173347 229.573958 
L 128.184123 230.699535 
L 129.1949 231.825112 
L 130.205676 232.950688 
L 131.216452 234.076265 
L 132.227228 235.201841 
L 133.238005 236.327418 
L 134.248781 237.452994 
L 135.259557 238.578571 
L 136.270333 239.704147 
L 137.28111 240.829724 
L 138.291886 241.955301 
L 139.302662 243.080877 
L 140.313438 244.206454 
L 141.324214 245.33203 
L 142.334991 246.457607 
L 143.345767 247.583183 
L 144.356543 248.70876 
L 145.367319 249.834336 
L 146.378096 250.959913 
L 147.388872 252.08549 
L 148.399648 253.211066 
L 149.410424 254.336643 
L 150.421201 255.462219 
L 151.431977 256.587796 
L 152.442753 257.713372 
L 153.453529 258.838949 
L 154.464305 259.964525 
L 155.475082 261.090102 
L 156.485858 262.215679 
L 157.496634 263.341255 
L 158.50741 264.466832 
L 159.518187 265.592408 
L 160.528963 266.717985 
L 161.539739 267.843561 
L 162.550515 268.969138 
L 163.561292 270.094714 
L 164.572068 271.220291 
L 165.582844 272.345868 
L 166.59362 273.471444 
L 167.604396 274.597021 
L 168.615173 275.722597 
L 169.625949 276.848174 
L 170.636725 277.97375 
L 171.647501 279.099327 
L 172.658278 280.224903 
L 173.669054 281.35048 
L 174.67983 282.476057 
L 175.690606 283.601633 
L 176.701383 284.72721 
L 177.712159 285.852786 
L 178.722935 286.978363 
L 179.733711 288.103939 
L 180.744487 289.229516 
L 181.755264 290.355092 
L 182.76604 291.480669 
L 183.776816 292.606246 
" style="fill:none;stroke:#3aa6da;stroke-linecap:round;stroke-width:2.25;"/>
   </g>
   <g id="line2d_11">
    <path clip-path="url(#p2b09ea1d23)" d="M 92.911518 192.70335 
L 93.840968 193.562291 
L 94.770417 194.421231 
L 95.699867 195.280172 
L 96.629316 196.139113 
L 97.558766 196.998054 
L 98.488215 197.856995 
L 99.417664 198.715936 
L 100.347114 199.574877 
L 101.276563 200.433818 
L 102.206013 201.292758 
L 103.135462 202.151699 
L 104.064911 203.01064 
L 104.994361 203.869581 
L 105.92381 204.728522 
L 106.85326 205.587463 
L 107.782709 206.446404 
L 108.712158 207.305344 
L 109.641608 208.164285 
L 110.571057 209.023226 
L 111.500507 209.882167 
L 112.429956 210.741108 
L 113.359405 211.600049 
L 114.288855 212.45899 
L 115.218304 213.317931 
L 116.147754 214.176871 
L 117.077203 215.035812 
L 118.006652 215.894753 
L 118.936102 216.753694 
L 119.865551 217.612635 
L 120.795001 218.471576 
L 121.72445 219.330517 
L 122.6539 220.189457 
L 123.583349 221.048398 
L 124.512798 221.907339 
L 125.442248 222.76628 
L 126.371697 223.625221 
L 127.301147 224.484162 
L 128.230596 225.343103 
L 129.160045 226.202044 
L 130.089495 227.060984 
L 131.018944 227.919925 
L 131.948394 228.778866 
L 132.877843 229.637807 
L 133.807292 230.496748 
L 134.736742 231.355689 
L 135.666191 232.21463 
L 136.595641 233.07357 
L 137.52509 233.932511 
L 138.454539 234.791452 
L 139.383989 235.650393 
L 140.313438 236.509334 
L 141.242888 237.368275 
L 142.172337 238.227216 
L 143.101786 239.086157 
L 144.031236 239.945097 
L 144.960685 240.804038 
L 145.890135 241.662979 
L 146.819584 242.52192 
L 147.749034 243.380861 
L 148.678483 244.239802 
L 149.607932 245.098743 
L 150.537382 245.957683 
L 151.466831 246.816624 
L 152.396281 247.675565 
L 153.32573 248.534506 
L 154.255179 249.393447 
L 155.184629 250.252388 
L 156.114078 251.111329 
L 157.043528 251.97027 
L 157.972977 252.82921 
L 158.902426 253.688151 
L 159.831876 254.547092 
L 160.761325 255.406033 
L 161.690775 256.264974 
L 162.620224 257.123915 
L 163.549673 257.982856 
L 164.479123 258.841796 
L 165.408572 259.700737 
L 166.338022 260.559678 
L 167.267471 261.418619 
L 168.19692 262.27756 
L 169.12637 263.136501 
L 170.055819 263.995442 
L 170.985269 264.854383 
L 171.914718 265.713323 
L 172.844168 266.572264 
L 173.773617 267.431205 
L 174.703066 268.290146 
L 175.632516 269.149087 
L 176.561965 270.008028 
L 177.491415 270.866969 
L 178.420864 271.72591 
L 179.350313 272.58485 
L 180.279763 273.443791 
L 181.209212 274.302732 
L 182.138662 275.161673 
L 183.068111 276.020614 
L 183.99756 276.879555 
L 184.92701 277.738496 
" style="fill:none;stroke:#8197f4;stroke-linecap:round;stroke-width:2.25;"/>
   </g>
   <g id="line2d_12">
    <path clip-path="url(#p2b09ea1d23)" d="M 151.571394 233.9126 
L 152.187154 234.325364 
L 152.802915 234.738128 
L 153.418675 235.150892 
L 154.034435 235.563655 
L 154.650195 235.976419 
L 155.265956 236.389183 
L 155.881716 236.801947 
L 156.497476 237.21471 
L 157.113236 237.627474 
L 157.728997 238.040238 
L 158.344757 238.453001 
L 158.960517 238.865765 
L 159.576277 239.278529 
L 160.192037 239.691293 
L 160.807798 240.104056 
L 161.423558 240.51682 
L 162.039318 240.929584 
L 162.655078 241.342348 
L 163.270839 241.755111 
L 163.886599 242.167875 
L 164.502359 242.580639 
L 165.118119 242.993403 
L 165.73388 243.406166 
L 166.34964 243.81893 
L 166.9654 244.231694 
L 167.58116 244.644457 
L 168.19692 245.057221 
L 168.812681 245.469985 
L 169.428441 245.882749 
L 170.044201 246.295512 
L 170.659961 246.708276 
L 171.275722 247.12104 
L 171.891482 247.533804 
L 172.507242 247.946567 
L 173.123002 248.359331 
L 173.738763 248.772095 
L 174.354523 249.184859 
L 174.970283 249.597622 
L 175.586043 250.010386 
L 176.201803 250.42315 
L 176.817564 250.835914 
L 177.433324 251.248677 
L 178.049084 251.661441 
L 178.664844 252.074205 
L 179.280605 252.486968 
L 179.896365 252.899732 
L 180.512125 253.312496 
L 181.127885 253.72526 
L 181.743646 254.138023 
L 182.359406 254.550787 
L 182.975166 254.963551 
L 183.590926 255.376315 
L 184.206687 255.789078 
L 184.822447 256.201842 
L 185.438207 256.614606 
L 186.053967 257.02737 
L 186.669727 257.440133 
L 187.285488 257.852897 
L 187.901248 258.265661 
L 188.517008 258.678425 
L 189.132768 259.091188 
L 189.748529 259.503952 
L 190.364289 259.916716 
L 190.980049 260.329479 
L 191.595809 260.742243 
L 192.21157 261.155007 
L 192.82733 261.567771 
L 193.44309 261.980534 
L 194.05885 262.393298 
L 194.67461 262.806062 
L 195.290371 263.218826 
L 195.906131 263.631589 
L 196.521891 264.044353 
L 197.137651 264.457117 
L 197.753412 264.869881 
L 198.369172 265.282644 
L 198.984932 265.695408 
L 199.600692 266.108172 
L 200.216453 266.520935 
L 200.832213 266.933699 
L 201.447973 267.346463 
L 202.063733 267.759227 
L 202.679493 268.17199 
L 203.295254 268.584754 
L 203.911014 268.997518 
L 204.526774 269.410282 
L 205.142534 269.823045 
L 205.758295 270.235809 
L 206.374055 270.648573 
L 206.989815 271.061337 
L 207.605575 271.4741 
L 208.221336 271.886864 
L 208.837096 272.299628 
L 209.452856 272.712392 
L 210.068616 273.125155 
L 210.684376 273.537919 
L 211.300137 273.950683 
L 211.915897 274.363446 
L 212.531657 274.77621 
" style="fill:none;stroke:#c180f4;stroke-linecap:round;stroke-width:2.25;"/>
   </g>
   <g id="line2d_13">
    <path clip-path="url(#p2b09ea1d23)" d="M 194.128559 280.34269 
L 194.906973 280.370654 
L 195.685387 280.398618 
L 196.463801 280.426582 
L 197.242214 280.454547 
L 198.020628 280.482511 
L 198.799042 280.510475 
L 199.577456 280.538439 
L 200.35587 280.566403 
L 201.134284 280.594367 
L 201.912698 280.622331 
L 202.691112 280.650295 
L 203.469525 280.678259 
L 204.247939 280.706224 
L 205.026353 280.734188 
L 205.804767 280.762152 
L 206.583181 280.790116 
L 207.361595 280.81808 
L 208.140009 280.846044 
L 208.918423 280.874008 
L 209.696837 280.901972 
L 210.47525 280.929936 
L 211.253664 280.957901 
L 212.032078 280.985865 
L 212.810492 281.013829 
L 213.588906 281.041793 
L 214.36732 281.069757 
L 215.145734 281.097721 
L 215.924148 281.125685 
L 216.702561 281.153649 
L 217.480975 281.181614 
L 218.259389 281.209578 
L 219.037803 281.237542 
L 219.816217 281.265506 
L 220.594631 281.29347 
L 221.373045 281.321434 
L 222.151459 281.349398 
L 222.929872 281.377362 
L 223.708286 281.405326 
L 224.4867 281.433291 
L 225.265114 281.461255 
L 226.043528 281.489219 
L 226.821942 281.517183 
L 227.600356 281.545147 
L 228.37877 281.573111 
L 229.157183 281.601075 
L 229.935597 281.629039 
L 230.714011 281.657003 
L 231.492425 281.684968 
L 232.270839 281.712932 
L 233.049253 281.740896 
L 233.827667 281.76886 
L 234.606081 281.796824 
L 235.384494 281.824788 
L 236.162908 281.852752 
L 236.941322 281.880716 
L 237.719736 281.90868 
L 238.49815 281.936645 
L 239.276564 281.964609 
L 240.054978 281.992573 
L 240.833392 282.020537 
L 241.611806 282.048501 
L 242.390219 282.076465 
L 243.168633 282.104429 
L 243.947047 282.132393 
L 244.725461 282.160357 
L 245.503875 282.188322 
L 246.282289 282.216286 
L 247.060703 282.24425 
L 247.839117 282.272214 
L 248.61753 282.300178 
L 249.395944 282.328142 
L 250.174358 282.356106 
L 250.952772 282.38407 
L 251.731186 282.412034 
L 252.5096 282.439999 
L 253.288014 282.467963 
L 254.066428 282.495927 
L 254.844841 282.523891 
L 255.623255 282.551855 
L 256.401669 282.579819 
L 257.180083 282.607783 
L 257.958497 282.635747 
L 258.736911 282.663712 
L 259.515325 282.691676 
L 260.293739 282.71964 
L 261.072152 282.747604 
L 261.850566 282.775568 
L 262.62898 282.803532 
L 263.407394 282.831496 
L 264.185808 282.85946 
L 264.964222 282.887424 
L 265.742636 282.915389 
L 266.52105 282.943353 
L 267.299464 282.971317 
L 268.077877 282.999281 
L 268.856291 283.027245 
L 269.634705 283.055209 
L 270.413119 283.083173 
L 271.191533 283.111137 
" style="fill:none;stroke:#f45deb;stroke-linecap:round;stroke-width:2.25;"/>
   </g>
   <g id="line2d_14">
    <path clip-path="url(#p2b09ea1d23)" d="M 270.041339 282.201169 
L 270.738426 282.195719 
L 271.435513 282.190269 
L 272.1326 282.184818 
L 272.829687 282.179368 
L 273.526775 282.173918 
L 274.223862 282.168467 
L 274.920949 282.163017 
L 275.618036 282.157567 
L 276.315123 282.152117 
L 277.01221 282.146666 
L 277.709297 282.141216 
L 278.406384 282.135766 
L 279.103471 282.130315 
L 279.800558 282.124865 
L 280.497645 282.119415 
L 281.194732 282.113964 
L 281.891819 282.108514 
L 282.588906 282.103064 
L 283.285993 282.097614 
L 283.98308 282.092163 
L 284.680167 282.086713 
L 285.377254 282.081263 
L 286.074342 282.075812 
L 286.771429 282.070362 
L 287.468516 282.064912 
L 288.165603 282.059462 
L 288.86269 282.054011 
L 289.559777 282.048561 
L 290.256864 282.043111 
L 290.953951 282.03766 
L 291.651038 282.03221 
L 292.348125 282.02676 
L 293.045212 282.021309 
L 293.742299 282.015859 
L 294.439386 282.010409 
L 295.136473 282.004959 
L 295.83356 281.999508 
L 296.530647 281.994058 
L 297.227734 281.988608 
L 297.924821 281.983157 
L 298.621909 281.977707 
L 299.318996 281.972257 
L 300.016083 281.966806 
L 300.71317 281.961356 
L 301.410257 281.955906 
L 302.107344 281.950456 
L 302.804431 281.945005 
L 303.501518 281.939555 
L 304.198605 281.934105 
L 304.895692 281.928654 
L 305.592779 281.923204 
L 306.289866 281.917754 
L 306.986953 281.912304 
L 307.68404 281.906853 
L 308.381127 281.901403 
L 309.078214 281.895953 
L 309.775301 281.890502 
L 310.472388 281.885052 
L 311.169476 281.879602 
L 311.866563 281.874151 
L 312.56365 281.868701 
L 313.260737 281.863251 
L 313.957824 281.857801 
L 314.654911 281.85235 
L 315.351998 281.8469 
L 316.049085 281.84145 
L 316.746172 281.835999 
L 317.443259 281.830549 
L 318.140346 281.825099 
L 318.837433 281.819649 
L 319.53452 281.814198 
L 320.231607 281.808748 
L 320.928694 281.803298 
L 321.625781 281.797847 
L 322.322868 281.792397 
L 323.019955 281.786947 
L 323.717043 281.781496 
L 324.41413 281.776046 
L 325.111217 281.770596 
L 325.808304 281.765146 
L 326.505391 281.759695 
L 327.202478 281.754245 
L 327.899565 281.748795 
L 328.596652 281.743344 
L 329.293739 281.737894 
L 329.990826 281.732444 
L 330.687913 281.726993 
L 331.385 281.721543 
L 332.082087 281.716093 
L 332.779174 281.710643 
L 333.476261 281.705192 
L 334.173348 281.699742 
L 334.870435 281.694292 
L 335.567522 281.688841 
L 336.26461 281.683391 
L 336.961697 281.677941 
L 337.658784 281.672491 
L 338.355871 281.66704 
L 339.052958 281.66159 
" style="fill:none;stroke:#f669ba;stroke-linecap:round;stroke-width:2.25;"/>
   </g>
   <g id="patch_3">
    <path d="M 54.522222 320.2 
L 54.522222 14.3 
" style="fill:none;stroke:#262626;stroke-linecap:square;stroke-linejoin:miter;stroke-width:0.8;"/>
   </g>
   <g id="patch_4">
    <path d="M 54.522222 320.2 
L 355.61875 320.2 
" style="fill:none;stroke:#262626;stroke-linecap:square;stroke-linejoin:miter;stroke-width:0.8;"/>
   </g>
   <g id="text_15">
    <!-- r=-0.485, p=7.81e-6 -->
    <defs>
     <path d="M 52.828125 42.09375 
L 5.5625 42.09375 
L 5.5625 50.296875 
L 52.828125 50.296875 
z
M 52.828125 20.359375 
L 5.5625 20.359375 
L 5.5625 28.5625 
L 52.828125 28.5625 
z
" id="ArialMT-61"/>
     <path d="M 3.171875 21.484375 
L 3.171875 30.328125 
L 30.171875 30.328125 
L 30.171875 21.484375 
z
" id="ArialMT-45"/>
     <path d="M 17.671875 38.8125 
Q 12.203125 40.828125 9.5625 44.53125 
Q 6.9375 48.25 6.9375 53.421875 
Q 6.9375 61.234375 12.546875 66.546875 
Q 18.171875 71.875 27.484375 71.875 
Q 36.859375 71.875 42.578125 66.421875 
Q 48.296875 60.984375 48.296875 53.171875 
Q 48.296875 48.1875 45.671875 44.5 
Q 43.0625 40.828125 37.75 38.8125 
Q 44.34375 36.671875 47.78125 31.875 
Q 51.21875 27.09375 51.21875 20.453125 
Q 51.21875 11.28125 44.71875 5.03125 
Q 38.234375 -1.21875 27.640625 -1.21875 
Q 17.046875 -1.21875 10.546875 5.046875 
Q 4.046875 11.328125 4.046875 20.703125 
Q 4.046875 27.6875 7.59375 32.390625 
Q 11.140625 37.109375 17.671875 38.8125 
z
M 15.921875 53.71875 
Q 15.921875 48.640625 19.1875 45.40625 
Q 22.46875 42.1875 27.6875 42.1875 
Q 32.765625 42.1875 36.015625 45.375 
Q 39.265625 48.578125 39.265625 53.21875 
Q 39.265625 58.0625 35.90625 61.359375 
Q 32.5625 64.65625 27.59375 64.65625 
Q 22.5625 64.65625 19.234375 61.421875 
Q 15.921875 58.203125 15.921875 53.71875 
z
M 13.09375 20.65625 
Q 13.09375 16.890625 14.875 13.375 
Q 16.65625 9.859375 20.171875 7.921875 
Q 23.6875 6 27.734375 6 
Q 34.03125 6 38.125 10.046875 
Q 42.234375 14.109375 42.234375 20.359375 
Q 42.234375 26.703125 38.015625 30.859375 
Q 33.796875 35.015625 27.4375 35.015625 
Q 21.234375 35.015625 17.15625 30.90625 
Q 13.09375 26.8125 13.09375 20.65625 
z
" id="ArialMT-56"/>
     <path d="M 8.890625 0 
L 8.890625 10.015625 
L 18.890625 10.015625 
L 18.890625 0 
Q 18.890625 -5.515625 16.9375 -8.90625 
Q 14.984375 -12.3125 10.75 -14.15625 
L 8.296875 -10.40625 
Q 11.078125 -9.1875 12.390625 -6.8125 
Q 13.71875 -4.4375 13.875 0 
z
" id="ArialMT-44"/>
     <path d="M 4.734375 62.203125 
L 4.734375 70.65625 
L 51.078125 70.65625 
L 51.078125 63.8125 
Q 44.234375 56.546875 37.515625 44.484375 
Q 30.8125 32.421875 27.15625 19.671875 
Q 24.515625 10.6875 23.78125 0 
L 14.75 0 
Q 14.890625 8.453125 18.0625 20.40625 
Q 21.234375 32.375 27.171875 43.484375 
Q 33.109375 54.59375 39.796875 62.203125 
z
" id="ArialMT-55"/>
    </defs>
    <g style="fill:#262626;" transform="translate(195.278753 73.976086)scale(0.15 -0.15)">
     <use xlink:href="#ArialMT-114"/>
     <use x="33.300781" xlink:href="#ArialMT-61"/>
     <use x="91.699219" xlink:href="#ArialMT-45"/>
     <use x="125" xlink:href="#ArialMT-48"/>
     <use x="180.615234" xlink:href="#ArialMT-46"/>
     <use x="208.398438" xlink:href="#ArialMT-52"/>
     <use x="264.013672" xlink:href="#ArialMT-56"/>
     <use x="319.628906" xlink:href="#ArialMT-53"/>
     <use x="375.244141" xlink:href="#ArialMT-44"/>
     <use x="403.027344" xlink:href="#ArialMT-32"/>
     <use x="430.810547" xlink:href="#ArialMT-112"/>
     <use x="486.425781" xlink:href="#ArialMT-61"/>
     <use x="544.824219" xlink:href="#ArialMT-55"/>
     <use x="600.439453" xlink:href="#ArialMT-46"/>
     <use x="628.222656" xlink:href="#ArialMT-56"/>
     <use x="683.837891" xlink:href="#ArialMT-49"/>
     <use x="739.453125" xlink:href="#ArialMT-101"/>
     <use x="795.068359" xlink:href="#ArialMT-45"/>
     <use x="828.369141" xlink:href="#ArialMT-54"/>
    </g>
   </g>
  </g>
  <g id="legend_1">
   <g id="text_16">
    <!-- host_subject_id -->
    <defs>
     <path d="M 6.59375 0 
L 6.59375 71.578125 
L 15.375 71.578125 
L 15.375 45.90625 
Q 21.53125 53.03125 30.90625 53.03125 
Q 36.671875 53.03125 40.921875 50.75 
Q 45.171875 48.484375 47 44.484375 
Q 48.828125 40.484375 48.828125 32.859375 
L 48.828125 0 
L 40.046875 0 
L 40.046875 32.859375 
Q 40.046875 39.453125 37.1875 42.453125 
Q 34.328125 45.453125 29.109375 45.453125 
Q 25.203125 45.453125 21.75 43.421875 
Q 18.3125 41.40625 16.84375 37.9375 
Q 15.375 34.46875 15.375 28.375 
L 15.375 0 
z
" id="ArialMT-104"/>
     <path d="M 25.78125 7.859375 
L 27.046875 0.09375 
Q 23.34375 -0.6875 20.40625 -0.6875 
Q 15.625 -0.6875 12.984375 0.828125 
Q 10.359375 2.34375 9.28125 4.8125 
Q 8.203125 7.28125 8.203125 15.1875 
L 8.203125 45.015625 
L 1.765625 45.015625 
L 1.765625 51.859375 
L 8.203125 51.859375 
L 8.203125 64.703125 
L 16.9375 69.96875 
L 16.9375 51.859375 
L 25.78125 51.859375 
L 25.78125 45.015625 
L 16.9375 45.015625 
L 16.9375 14.703125 
Q 16.9375 10.9375 17.40625 9.859375 
Q 17.875 8.796875 18.921875 8.15625 
Q 19.96875 7.515625 21.921875 7.515625 
Q 23.390625 7.515625 25.78125 7.859375 
z
" id="ArialMT-116"/>
     <path d="M -1.515625 -19.875 
L -1.515625 -13.53125 
L 56.734375 -13.53125 
L 56.734375 -19.875 
z
" id="ArialMT-95"/>
     <path d="M 40.578125 0 
L 40.578125 7.625 
Q 34.515625 -1.171875 24.125 -1.171875 
Q 19.53125 -1.171875 15.546875 0.578125 
Q 11.578125 2.34375 9.640625 5 
Q 7.71875 7.671875 6.9375 11.53125 
Q 6.390625 14.109375 6.390625 19.734375 
L 6.390625 51.859375 
L 15.1875 51.859375 
L 15.1875 23.09375 
Q 15.1875 16.21875 15.71875 13.8125 
Q 16.546875 10.359375 19.234375 8.375 
Q 21.921875 6.390625 25.875 6.390625 
Q 29.828125 6.390625 33.296875 8.421875 
Q 36.765625 10.453125 38.203125 13.9375 
Q 39.65625 17.4375 39.65625 24.078125 
L 39.65625 51.859375 
L 48.4375 51.859375 
L 48.4375 0 
z
" id="ArialMT-117"/>
     <path d="M 6.546875 61.375 
L 6.546875 71.578125 
L 15.328125 71.578125 
L 15.328125 61.375 
z
M -4.59375 -20.125 
L -2.9375 -12.640625 
Q -0.296875 -13.328125 1.21875 -13.328125 
Q 3.90625 -13.328125 5.21875 -11.546875 
Q 6.546875 -9.765625 6.546875 -2.640625 
L 6.546875 51.859375 
L 15.328125 51.859375 
L 15.328125 -2.828125 
Q 15.328125 -12.40625 12.84375 -16.15625 
Q 9.671875 -21.046875 2.296875 -21.046875 
Q -1.265625 -21.046875 -4.59375 -20.125 
z
" id="ArialMT-106"/>
     <path d="M 40.4375 19 
L 49.078125 17.875 
Q 47.65625 8.9375 41.8125 3.875 
Q 35.984375 -1.171875 27.484375 -1.171875 
Q 16.84375 -1.171875 10.375 5.78125 
Q 3.90625 12.75 3.90625 25.734375 
Q 3.90625 34.125 6.6875 40.421875 
Q 9.46875 46.734375 15.15625 49.875 
Q 20.84375 53.03125 27.546875 53.03125 
Q 35.984375 53.03125 41.359375 48.75 
Q 46.734375 44.484375 48.25 36.625 
L 39.703125 35.296875 
Q 38.484375 40.53125 35.375 43.15625 
Q 32.28125 45.796875 27.875 45.796875 
Q 21.234375 45.796875 17.078125 41.03125 
Q 12.9375 36.28125 12.9375 25.984375 
Q 12.9375 15.53125 16.9375 10.796875 
Q 20.953125 6.0625 27.390625 6.0625 
Q 32.5625 6.0625 36.03125 9.234375 
Q 39.5 12.40625 40.4375 19 
z
" id="ArialMT-99"/>
     <path d="M 6.640625 61.46875 
L 6.640625 71.578125 
L 15.4375 71.578125 
L 15.4375 61.46875 
z
M 6.640625 0 
L 6.640625 51.859375 
L 15.4375 51.859375 
L 15.4375 0 
z
" id="ArialMT-105"/>
    </defs>
    <g style="fill:#262626;" transform="translate(359.6375 83.509375)scale(0.1 -0.1)">
     <use xlink:href="#ArialMT-104"/>
     <use x="55.615234" xlink:href="#ArialMT-111"/>
     <use x="111.230469" xlink:href="#ArialMT-115"/>
     <use x="161.230469" xlink:href="#ArialMT-116"/>
     <use x="189.013672" xlink:href="#ArialMT-95"/>
     <use x="244.628906" xlink:href="#ArialMT-115"/>
     <use x="294.628906" xlink:href="#ArialMT-117"/>
     <use x="350.244141" xlink:href="#ArialMT-98"/>
     <use x="405.859375" xlink:href="#ArialMT-106"/>
     <use x="428.076172" xlink:href="#ArialMT-101"/>
     <use x="483.691406" xlink:href="#ArialMT-99"/>
     <use x="533.691406" xlink:href="#ArialMT-116"/>
     <use x="561.474609" xlink:href="#ArialMT-95"/>
     <use x="617.089844" xlink:href="#ArialMT-105"/>
     <use x="639.306641" xlink:href="#ArialMT-100"/>
    </g>
   </g>
   <g id="PathCollection_15">
    <g>
     <use style="fill:#f77189;fill-opacity:0.8;stroke:#f77189;stroke-opacity:0.8;" x="374.264062" xlink:href="#m2c05f05a3a" y="95.146875"/>
    </g>
   </g>
   <g id="text_17">
    <!-- DM001 -->
    <defs>
     <path d="M 7.71875 0 
L 7.71875 71.578125 
L 32.375 71.578125 
Q 40.71875 71.578125 45.125 70.5625 
Q 51.265625 69.140625 55.609375 65.4375 
Q 61.28125 60.640625 64.078125 53.1875 
Q 66.890625 45.75 66.890625 36.1875 
Q 66.890625 28.03125 64.984375 21.734375 
Q 63.09375 15.4375 60.109375 11.296875 
Q 57.125 7.171875 53.578125 4.796875 
Q 50.046875 2.4375 45.046875 1.21875 
Q 40.046875 0 33.546875 0 
z
M 17.1875 8.453125 
L 32.46875 8.453125 
Q 39.546875 8.453125 43.578125 9.765625 
Q 47.609375 11.078125 50 13.484375 
Q 53.375 16.84375 55.25 22.53125 
Q 57.125 28.21875 57.125 36.328125 
Q 57.125 47.5625 53.4375 53.59375 
Q 49.75 59.625 44.484375 61.671875 
Q 40.671875 63.140625 32.234375 63.140625 
L 17.1875 63.140625 
z
" id="ArialMT-68"/>
     <path d="M 7.421875 0 
L 7.421875 71.578125 
L 21.6875 71.578125 
L 38.625 20.90625 
Q 40.96875 13.8125 42.046875 10.296875 
Q 43.265625 14.203125 45.84375 21.78125 
L 62.984375 71.578125 
L 75.734375 71.578125 
L 75.734375 0 
L 66.609375 0 
L 66.609375 59.90625 
L 45.796875 0 
L 37.25 0 
L 16.546875 60.9375 
L 16.546875 0 
z
" id="ArialMT-77"/>
    </defs>
    <g style="fill:#262626;" transform="translate(392.264062 97.771875)scale(0.1 -0.1)">
     <use xlink:href="#ArialMT-68"/>
     <use x="72.216797" xlink:href="#ArialMT-77"/>
     <use x="155.517578" xlink:href="#ArialMT-48"/>
     <use x="211.132812" xlink:href="#ArialMT-48"/>
     <use x="266.748047" xlink:href="#ArialMT-49"/>
    </g>
   </g>
   <g id="PathCollection_16">
    <g>
     <use style="fill:#ef7d32;fill-opacity:0.8;stroke:#ef7d32;stroke-opacity:0.8;" x="374.264062" xlink:href="#md07d9cc1c3" y="109.292188"/>
    </g>
   </g>
   <g id="text_18">
    <!-- DM002 -->
    <g style="fill:#262626;" transform="translate(392.264062 111.917188)scale(0.1 -0.1)">
     <use xlink:href="#ArialMT-68"/>
     <use x="72.216797" xlink:href="#ArialMT-77"/>
     <use x="155.517578" xlink:href="#ArialMT-48"/>
     <use x="211.132812" xlink:href="#ArialMT-48"/>
     <use x="266.748047" xlink:href="#ArialMT-50"/>
    </g>
   </g>
   <g id="PathCollection_17">
    <g>
     <use style="fill:#c69432;fill-opacity:0.8;stroke:#c69432;stroke-opacity:0.8;" x="374.264062" xlink:href="#m7442dd6ad9" y="123.4375"/>
    </g>
   </g>
   <g id="text_19">
    <!-- DM003 -->
    <g style="fill:#262626;" transform="translate(392.264062 126.0625)scale(0.1 -0.1)">
     <use xlink:href="#ArialMT-68"/>
     <use x="72.216797" xlink:href="#ArialMT-77"/>
     <use x="155.517578" xlink:href="#ArialMT-48"/>
     <use x="211.132812" xlink:href="#ArialMT-48"/>
     <use x="266.748047" xlink:href="#ArialMT-51"/>
    </g>
   </g>
   <g id="PathCollection_18">
    <g>
     <use style="fill:#a79f31;fill-opacity:0.8;stroke:#a79f31;stroke-opacity:0.8;" x="374.264062" xlink:href="#m918ff49606" y="137.582813"/>
    </g>
   </g>
   <g id="text_20">
    <!-- DM006 -->
    <g style="fill:#262626;" transform="translate(392.264062 140.207813)scale(0.1 -0.1)">
     <use xlink:href="#ArialMT-68"/>
     <use x="72.216797" xlink:href="#ArialMT-77"/>
     <use x="155.517578" xlink:href="#ArialMT-48"/>
     <use x="211.132812" xlink:href="#ArialMT-48"/>
     <use x="266.748047" xlink:href="#ArialMT-54"/>
    </g>
   </g>
   <g id="PathCollection_19">
    <g>
     <use style="fill:#82a931;fill-opacity:0.8;stroke:#82a931;stroke-opacity:0.8;" x="374.264062" xlink:href="#mbdfd797118" y="151.728125"/>
    </g>
   </g>
   <g id="text_21">
    <!-- DM008 -->
    <g style="fill:#262626;" transform="translate(392.264062 154.353125)scale(0.1 -0.1)">
     <use xlink:href="#ArialMT-68"/>
     <use x="72.216797" xlink:href="#ArialMT-77"/>
     <use x="155.517578" xlink:href="#ArialMT-48"/>
     <use x="211.132812" xlink:href="#ArialMT-48"/>
     <use x="266.748047" xlink:href="#ArialMT-56"/>
    </g>
   </g>
   <g id="PathCollection_20">
    <g>
     <use style="fill:#32b24e;fill-opacity:0.8;stroke:#32b24e;stroke-opacity:0.8;" x="374.264062" xlink:href="#m65b27b6f0b" y="165.873438"/>
    </g>
   </g>
   <g id="text_22">
    <!-- DM009 -->
    <defs>
     <path d="M 5.46875 16.546875 
L 13.921875 17.328125 
Q 14.984375 11.375 18.015625 8.6875 
Q 21.046875 6 25.78125 6 
Q 29.828125 6 32.875 7.859375 
Q 35.9375 9.71875 37.890625 12.8125 
Q 39.84375 15.921875 41.15625 21.1875 
Q 42.484375 26.46875 42.484375 31.9375 
Q 42.484375 32.515625 42.4375 33.6875 
Q 39.796875 29.5 35.234375 26.875 
Q 30.671875 24.265625 25.34375 24.265625 
Q 16.453125 24.265625 10.296875 30.703125 
Q 4.15625 37.15625 4.15625 47.703125 
Q 4.15625 58.59375 10.578125 65.234375 
Q 17 71.875 26.65625 71.875 
Q 33.640625 71.875 39.421875 68.109375 
Q 45.21875 64.359375 48.21875 57.390625 
Q 51.21875 50.4375 51.21875 37.25 
Q 51.21875 23.53125 48.234375 15.40625 
Q 45.265625 7.28125 39.375 3.03125 
Q 33.5 -1.21875 25.59375 -1.21875 
Q 17.1875 -1.21875 11.859375 3.4375 
Q 6.546875 8.109375 5.46875 16.546875 
z
M 41.453125 48.140625 
Q 41.453125 55.71875 37.421875 60.15625 
Q 33.40625 64.59375 27.734375 64.59375 
Q 21.875 64.59375 17.53125 59.8125 
Q 13.1875 55.03125 13.1875 47.40625 
Q 13.1875 40.578125 17.3125 36.296875 
Q 21.4375 32.03125 27.484375 32.03125 
Q 33.59375 32.03125 37.515625 36.296875 
Q 41.453125 40.578125 41.453125 48.140625 
z
" id="ArialMT-57"/>
    </defs>
    <g style="fill:#262626;" transform="translate(392.264062 168.498438)scale(0.1 -0.1)">
     <use xlink:href="#ArialMT-68"/>
     <use x="72.216797" xlink:href="#ArialMT-77"/>
     <use x="155.517578" xlink:href="#ArialMT-48"/>
     <use x="211.132812" xlink:href="#ArialMT-48"/>
     <use x="266.748047" xlink:href="#ArialMT-57"/>
    </g>
   </g>
   <g id="PathCollection_21">
    <g>
     <use style="fill:#34af8a;fill-opacity:0.8;stroke:#34af8a;stroke-opacity:0.8;" x="374.264062" xlink:href="#mcf29c39ead" y="180.01875"/>
    </g>
   </g>
   <g id="text_23">
    <!-- DM010 -->
    <g style="fill:#262626;" transform="translate(392.264062 182.64375)scale(0.1 -0.1)">
     <use xlink:href="#ArialMT-68"/>
     <use x="72.216797" xlink:href="#ArialMT-77"/>
     <use x="155.517578" xlink:href="#ArialMT-48"/>
     <use x="211.132812" xlink:href="#ArialMT-49"/>
     <use x="266.748047" xlink:href="#ArialMT-48"/>
    </g>
   </g>
   <g id="PathCollection_22">
    <g>
     <use style="fill:#36ada4;fill-opacity:0.8;stroke:#36ada4;stroke-opacity:0.8;" x="374.264062" xlink:href="#mf39b91fe00" y="194.164063"/>
    </g>
   </g>
   <g id="text_24">
    <!-- DM011 -->
    <g style="fill:#262626;" transform="translate(392.264062 196.789063)scale(0.1 -0.1)">
     <use xlink:href="#ArialMT-68"/>
     <use x="72.216797" xlink:href="#ArialMT-77"/>
     <use x="155.517578" xlink:href="#ArialMT-48"/>
     <use x="211.132812" xlink:href="#ArialMT-49"/>
     <use x="266.638672" xlink:href="#ArialMT-49"/>
    </g>
   </g>
   <g id="PathCollection_23">
    <g>
     <use style="fill:#37aabb;fill-opacity:0.8;stroke:#37aabb;stroke-opacity:0.8;" x="374.264062" xlink:href="#m06869f882f" y="208.309375"/>
    </g>
   </g>
   <g id="text_25">
    <!-- DM013 -->
    <g style="fill:#262626;" transform="translate(392.264062 210.934375)scale(0.1 -0.1)">
     <use xlink:href="#ArialMT-68"/>
     <use x="72.216797" xlink:href="#ArialMT-77"/>
     <use x="155.517578" xlink:href="#ArialMT-48"/>
     <use x="211.132812" xlink:href="#ArialMT-49"/>
     <use x="266.748047" xlink:href="#ArialMT-51"/>
    </g>
   </g>
   <g id="PathCollection_24">
    <g>
     <use style="fill:#3aa6da;fill-opacity:0.8;stroke:#3aa6da;stroke-opacity:0.8;" x="374.264062" xlink:href="#meec82f785f" y="222.454688"/>
    </g>
   </g>
   <g id="text_26">
    <!-- DM014 -->
    <g style="fill:#262626;" transform="translate(392.264062 225.079688)scale(0.1 -0.1)">
     <use xlink:href="#ArialMT-68"/>
     <use x="72.216797" xlink:href="#ArialMT-77"/>
     <use x="155.517578" xlink:href="#ArialMT-48"/>
     <use x="211.132812" xlink:href="#ArialMT-49"/>
     <use x="266.748047" xlink:href="#ArialMT-52"/>
    </g>
   </g>
   <g id="PathCollection_25">
    <g>
     <use style="fill:#8197f4;fill-opacity:0.8;stroke:#8197f4;stroke-opacity:0.8;" x="374.264062" xlink:href="#m54885390e1" y="236.6"/>
    </g>
   </g>
   <g id="text_27">
    <!-- DM015 -->
    <g style="fill:#262626;" transform="translate(392.264062 239.225)scale(0.1 -0.1)">
     <use xlink:href="#ArialMT-68"/>
     <use x="72.216797" xlink:href="#ArialMT-77"/>
     <use x="155.517578" xlink:href="#ArialMT-48"/>
     <use x="211.132812" xlink:href="#ArialMT-49"/>
     <use x="266.748047" xlink:href="#ArialMT-53"/>
    </g>
   </g>
   <g id="PathCollection_26">
    <g>
     <use style="fill:#c180f4;fill-opacity:0.8;stroke:#c180f4;stroke-opacity:0.8;" x="374.264062" xlink:href="#m86116e6fce" y="250.745313"/>
    </g>
   </g>
   <g id="text_28">
    <!-- DM016 -->
    <g style="fill:#262626;" transform="translate(392.264062 253.370313)scale(0.1 -0.1)">
     <use xlink:href="#ArialMT-68"/>
     <use x="72.216797" xlink:href="#ArialMT-77"/>
     <use x="155.517578" xlink:href="#ArialMT-48"/>
     <use x="211.132812" xlink:href="#ArialMT-49"/>
     <use x="266.748047" xlink:href="#ArialMT-54"/>
    </g>
   </g>
   <g id="PathCollection_27">
    <g>
     <use style="fill:#f45deb;fill-opacity:0.8;stroke:#f45deb;stroke-opacity:0.8;" x="374.264062" xlink:href="#mcbd4b6f6ec" y="264.890625"/>
    </g>
   </g>
   <g id="text_29">
    <!-- DM017 -->
    <g style="fill:#262626;" transform="translate(392.264062 267.515625)scale(0.1 -0.1)">
     <use xlink:href="#ArialMT-68"/>
     <use x="72.216797" xlink:href="#ArialMT-77"/>
     <use x="155.517578" xlink:href="#ArialMT-48"/>
     <use x="211.132812" xlink:href="#ArialMT-49"/>
     <use x="266.748047" xlink:href="#ArialMT-55"/>
    </g>
   </g>
   <g id="PathCollection_28">
    <g>
     <use style="fill:#f669ba;fill-opacity:0.8;stroke:#f669ba;stroke-opacity:0.8;" x="374.264062" xlink:href="#m97c51251a3" y="279.035937"/>
    </g>
   </g>
   <g id="text_30">
    <!-- DM018 -->
    <g style="fill:#262626;" transform="translate(392.264062 281.660937)scale(0.1 -0.1)">
     <use xlink:href="#ArialMT-68"/>
     <use x="72.216797" xlink:href="#ArialMT-77"/>
     <use x="155.517578" xlink:href="#ArialMT-48"/>
     <use x="211.132812" xlink:href="#ArialMT-49"/>
     <use x="266.748047" xlink:href="#ArialMT-56"/>
    </g>
   </g>
  </g>
 </g>
 <defs>
  <clipPath id="p2b09ea1d23">
   <rect height="305.9" width="301.096528" x="54.522222" y="14.3"/>
  </clipPath>
 </defs>
</svg>
