<?xml version="1.0" encoding="utf-8" standalone="no"?>
<!DOCTYPE svg PUBLIC "-//W3C//DTD SVG 1.1//EN"
  "http://www.w3.org/Graphics/SVG/1.1/DTD/svg11.dtd">
<!-- Created with matplotlib (https://matplotlib.org/) -->
<svg height="360pt" version="1.1" viewBox="0 0 438.125 360" width="438.125pt" xmlns="http://www.w3.org/2000/svg" xmlns:xlink="http://www.w3.org/1999/xlink">
 <defs>
  <style type="text/css">
*{stroke-linecap:butt;stroke-linejoin:round;}
  </style>
 </defs>
 <g id="figure_1">
  <g id="patch_1">
   <path d="M 0 360 
L 438.125 360 
L 438.125 0 
L 0 0 
z
" style="fill:#ffffff;"/>
  </g>
  <g id="axes_1">
   <g id="patch_2">
    <path d="M 54.522222 320.2 
L 355.61875 320.2 
L 355.61875 14.3 
L 54.522222 14.3 
z
" style="fill:#ffffff;"/>
   </g>
   <g id="matplotlib.axis_1">
    <g id="xtick_1">
     <g id="text_1">
      <!-- 0.2 -->
      <defs>
       <path d="M 4.15625 35.296875 
Q 4.15625 48 6.765625 55.734375 
Q 9.375 63.484375 14.515625 67.671875 
Q 19.671875 71.875 27.484375 71.875 
Q 33.25 71.875 37.59375 69.546875 
Q 41.9375 67.234375 44.765625 62.859375 
Q 47.609375 58.5 49.21875 52.21875 
Q 50.828125 45.953125 50.828125 35.296875 
Q 50.828125 22.703125 48.234375 14.96875 
Q 45.65625 7.234375 40.5 3 
Q 35.359375 -1.21875 27.484375 -1.21875 
Q 17.140625 -1.21875 11.234375 6.203125 
Q 4.15625 15.140625 4.15625 35.296875 
z
M 13.1875 35.296875 
Q 13.1875 17.671875 17.3125 11.828125 
Q 21.4375 6 27.484375 6 
Q 33.546875 6 37.671875 11.859375 
Q 41.796875 17.71875 41.796875 35.296875 
Q 41.796875 52.984375 37.671875 58.78125 
Q 33.546875 64.59375 27.390625 64.59375 
Q 21.34375 64.59375 17.71875 59.46875 
Q 13.1875 52.9375 13.1875 35.296875 
z
" id="ArialMT-48"/>
       <path d="M 9.078125 0 
L 9.078125 10.015625 
L 19.09375 10.015625 
L 19.09375 0 
z
" id="ArialMT-46"/>
       <path d="M 50.34375 8.453125 
L 50.34375 0 
L 3.03125 0 
Q 2.9375 3.171875 4.046875 6.109375 
Q 5.859375 10.9375 9.828125 15.625 
Q 13.8125 20.3125 21.34375 26.46875 
Q 33.015625 36.03125 37.109375 41.625 
Q 41.21875 47.21875 41.21875 52.203125 
Q 41.21875 57.421875 37.46875 61 
Q 33.734375 64.59375 27.734375 64.59375 
Q 21.390625 64.59375 17.578125 60.78125 
Q 13.765625 56.984375 13.71875 50.25 
L 4.6875 51.171875 
Q 5.609375 61.28125 11.65625 66.578125 
Q 17.71875 71.875 27.9375 71.875 
Q 38.234375 71.875 44.234375 66.15625 
Q 50.25 60.453125 50.25 52 
Q 50.25 47.703125 48.484375 43.546875 
Q 46.734375 39.40625 42.65625 34.8125 
Q 38.578125 30.21875 29.109375 22.21875 
Q 21.1875 15.578125 18.9375 13.203125 
Q 16.703125 10.84375 15.234375 8.453125 
z
" id="ArialMT-50"/>
      </defs>
      <g style="fill:#262626;" transform="translate(61.326712 335.789375)scale(0.12 -0.12)">
       <use xlink:href="#ArialMT-48"/>
       <use x="55.615234" xlink:href="#ArialMT-46"/>
       <use x="83.398438" xlink:href="#ArialMT-50"/>
      </g>
     </g>
    </g>
    <g id="xtick_2">
     <g id="text_2">
      <!-- 0.3 -->
      <defs>
       <path d="M 4.203125 18.890625 
L 12.984375 20.0625 
Q 14.5 12.59375 18.140625 9.296875 
Q 21.78125 6 27 6 
Q 33.203125 6 37.46875 10.296875 
Q 41.75 14.59375 41.75 20.953125 
Q 41.75 27 37.796875 30.921875 
Q 33.84375 34.859375 27.734375 34.859375 
Q 25.25 34.859375 21.53125 33.890625 
L 22.515625 41.609375 
Q 23.390625 41.5 23.921875 41.5 
Q 29.546875 41.5 34.03125 44.421875 
Q 38.53125 47.359375 38.53125 53.46875 
Q 38.53125 58.296875 35.25 61.46875 
Q 31.984375 64.65625 26.8125 64.65625 
Q 21.6875 64.65625 18.265625 61.421875 
Q 14.84375 58.203125 13.875 51.765625 
L 5.078125 53.328125 
Q 6.6875 62.15625 12.390625 67.015625 
Q 18.109375 71.875 26.609375 71.875 
Q 32.46875 71.875 37.390625 69.359375 
Q 42.328125 66.84375 44.9375 62.5 
Q 47.5625 58.15625 47.5625 53.265625 
Q 47.5625 48.640625 45.0625 44.828125 
Q 42.578125 41.015625 37.703125 38.765625 
Q 44.046875 37.3125 47.5625 32.6875 
Q 51.078125 28.078125 51.078125 21.140625 
Q 51.078125 11.765625 44.234375 5.25 
Q 37.40625 -1.265625 26.953125 -1.265625 
Q 17.53125 -1.265625 11.296875 4.34375 
Q 5.078125 9.96875 4.203125 18.890625 
z
" id="ArialMT-51"/>
      </defs>
      <g style="fill:#262626;" transform="translate(123.452859 335.789375)scale(0.12 -0.12)">
       <use xlink:href="#ArialMT-48"/>
       <use x="55.615234" xlink:href="#ArialMT-46"/>
       <use x="83.398438" xlink:href="#ArialMT-51"/>
      </g>
     </g>
    </g>
    <g id="xtick_3">
     <g id="text_3">
      <!-- 0.4 -->
      <defs>
       <path d="M 32.328125 0 
L 32.328125 17.140625 
L 1.265625 17.140625 
L 1.265625 25.203125 
L 33.9375 71.578125 
L 41.109375 71.578125 
L 41.109375 25.203125 
L 50.78125 25.203125 
L 50.78125 17.140625 
L 41.109375 17.140625 
L 41.109375 0 
z
M 32.328125 25.203125 
L 32.328125 57.46875 
L 9.90625 25.203125 
z
" id="ArialMT-52"/>
      </defs>
      <g style="fill:#262626;" transform="translate(185.579007 335.789375)scale(0.12 -0.12)">
       <use xlink:href="#ArialMT-48"/>
       <use x="55.615234" xlink:href="#ArialMT-46"/>
       <use x="83.398438" xlink:href="#ArialMT-52"/>
      </g>
     </g>
    </g>
    <g id="xtick_4">
     <g id="text_4">
      <!-- 0.5 -->
      <defs>
       <path d="M 4.15625 18.75 
L 13.375 19.53125 
Q 14.40625 12.796875 18.140625 9.390625 
Q 21.875 6 27.15625 6 
Q 33.5 6 37.890625 10.78125 
Q 42.28125 15.578125 42.28125 23.484375 
Q 42.28125 31 38.0625 35.34375 
Q 33.84375 39.703125 27 39.703125 
Q 22.75 39.703125 19.328125 37.765625 
Q 15.921875 35.84375 13.96875 32.765625 
L 5.71875 33.84375 
L 12.640625 70.609375 
L 48.25 70.609375 
L 48.25 62.203125 
L 19.671875 62.203125 
L 15.828125 42.96875 
Q 22.265625 47.46875 29.34375 47.46875 
Q 38.71875 47.46875 45.15625 40.96875 
Q 51.609375 34.46875 51.609375 24.265625 
Q 51.609375 14.546875 45.953125 7.46875 
Q 39.0625 -1.21875 27.15625 -1.21875 
Q 17.390625 -1.21875 11.203125 4.25 
Q 5.03125 9.71875 4.15625 18.75 
z
" id="ArialMT-53"/>
      </defs>
      <g style="fill:#262626;" transform="translate(247.705155 335.789375)scale(0.12 -0.12)">
       <use xlink:href="#ArialMT-48"/>
       <use x="55.615234" xlink:href="#ArialMT-46"/>
       <use x="83.398438" xlink:href="#ArialMT-53"/>
      </g>
     </g>
    </g>
    <g id="xtick_5">
     <g id="text_5">
      <!-- 0.6 -->
      <defs>
       <path d="M 49.75 54.046875 
L 41.015625 53.375 
Q 39.84375 58.546875 37.703125 60.890625 
Q 34.125 64.65625 28.90625 64.65625 
Q 24.703125 64.65625 21.53125 62.3125 
Q 17.390625 59.28125 14.984375 53.46875 
Q 12.59375 47.65625 12.5 36.921875 
Q 15.671875 41.75 20.265625 44.09375 
Q 24.859375 46.4375 29.890625 46.4375 
Q 38.671875 46.4375 44.84375 39.96875 
Q 51.03125 33.5 51.03125 23.25 
Q 51.03125 16.5 48.125 10.71875 
Q 45.21875 4.9375 40.140625 1.859375 
Q 35.0625 -1.21875 28.609375 -1.21875 
Q 17.625 -1.21875 10.6875 6.859375 
Q 3.765625 14.9375 3.765625 33.5 
Q 3.765625 54.25 11.421875 63.671875 
Q 18.109375 71.875 29.4375 71.875 
Q 37.890625 71.875 43.28125 67.140625 
Q 48.6875 62.40625 49.75 54.046875 
z
M 13.875 23.1875 
Q 13.875 18.65625 15.796875 14.5 
Q 17.71875 10.359375 21.1875 8.171875 
Q 24.65625 6 28.46875 6 
Q 34.03125 6 38.03125 10.484375 
Q 42.046875 14.984375 42.046875 22.703125 
Q 42.046875 30.125 38.078125 34.390625 
Q 34.125 38.671875 28.125 38.671875 
Q 22.171875 38.671875 18.015625 34.390625 
Q 13.875 30.125 13.875 23.1875 
z
" id="ArialMT-54"/>
      </defs>
      <g style="fill:#262626;" transform="translate(309.831303 335.789375)scale(0.12 -0.12)">
       <use xlink:href="#ArialMT-48"/>
       <use x="55.615234" xlink:href="#ArialMT-46"/>
       <use x="83.398438" xlink:href="#ArialMT-54"/>
      </g>
     </g>
    </g>
    <g id="text_6">
     <!-- Unweighted UniFrac Dist. to Baseline -->
     <defs>
      <path d="M 54.6875 71.578125 
L 64.15625 71.578125 
L 64.15625 30.21875 
Q 64.15625 19.4375 61.71875 13.078125 
Q 59.28125 6.734375 52.90625 2.75 
Q 46.53125 -1.21875 36.1875 -1.21875 
Q 26.125 -1.21875 19.71875 2.25 
Q 13.328125 5.71875 10.59375 12.28125 
Q 7.859375 18.84375 7.859375 30.21875 
L 7.859375 71.578125 
L 17.328125 71.578125 
L 17.328125 30.28125 
Q 17.328125 20.953125 19.0625 16.53125 
Q 20.796875 12.109375 25.015625 9.71875 
Q 29.25 7.328125 35.359375 7.328125 
Q 45.796875 7.328125 50.234375 12.0625 
Q 54.6875 16.796875 54.6875 30.28125 
z
" id="ArialMT-85"/>
      <path d="M 6.59375 0 
L 6.59375 51.859375 
L 14.5 51.859375 
L 14.5 44.484375 
Q 20.21875 53.03125 31 53.03125 
Q 35.6875 53.03125 39.625 51.34375 
Q 43.5625 49.65625 45.515625 46.921875 
Q 47.46875 44.1875 48.25 40.4375 
Q 48.734375 37.984375 48.734375 31.890625 
L 48.734375 0 
L 39.9375 0 
L 39.9375 31.546875 
Q 39.9375 36.921875 38.90625 39.578125 
Q 37.890625 42.234375 35.28125 43.8125 
Q 32.671875 45.40625 29.15625 45.40625 
Q 23.53125 45.40625 19.453125 41.84375 
Q 15.375 38.28125 15.375 28.328125 
L 15.375 0 
z
" id="ArialMT-110"/>
      <path d="M 16.15625 0 
L 0.296875 51.859375 
L 9.375 51.859375 
L 17.625 21.921875 
L 20.703125 10.796875 
Q 20.90625 11.625 23.390625 21.484375 
L 31.640625 51.859375 
L 40.671875 51.859375 
L 48.4375 21.78125 
L 51.03125 11.859375 
L 54 21.875 
L 62.890625 51.859375 
L 71.4375 51.859375 
L 55.21875 0 
L 46.09375 0 
L 37.84375 31.0625 
L 35.84375 39.890625 
L 25.34375 0 
z
" id="ArialMT-119"/>
      <path d="M 42.09375 16.703125 
L 51.171875 15.578125 
Q 49.03125 7.625 43.21875 3.21875 
Q 37.40625 -1.171875 28.375 -1.171875 
Q 17 -1.171875 10.328125 5.828125 
Q 3.65625 12.84375 3.65625 25.484375 
Q 3.65625 38.578125 10.390625 45.796875 
Q 17.140625 53.03125 27.875 53.03125 
Q 38.28125 53.03125 44.875 45.953125 
Q 51.46875 38.875 51.46875 26.03125 
Q 51.46875 25.25 51.421875 23.6875 
L 12.75 23.6875 
Q 13.234375 15.140625 17.578125 10.59375 
Q 21.921875 6.0625 28.421875 6.0625 
Q 33.25 6.0625 36.671875 8.59375 
Q 40.09375 11.140625 42.09375 16.703125 
z
M 13.234375 30.90625 
L 42.1875 30.90625 
Q 41.609375 37.453125 38.875 40.71875 
Q 34.671875 45.796875 27.984375 45.796875 
Q 21.921875 45.796875 17.796875 41.75 
Q 13.671875 37.703125 13.234375 30.90625 
z
" id="ArialMT-101"/>
      <path d="M 6.640625 61.46875 
L 6.640625 71.578125 
L 15.4375 71.578125 
L 15.4375 61.46875 
z
M 6.640625 0 
L 6.640625 51.859375 
L 15.4375 51.859375 
L 15.4375 0 
z
" id="ArialMT-105"/>
      <path d="M 4.984375 -4.296875 
L 13.53125 -5.5625 
Q 14.0625 -9.515625 16.5 -11.328125 
Q 19.78125 -13.765625 25.4375 -13.765625 
Q 31.546875 -13.765625 34.859375 -11.328125 
Q 38.1875 -8.890625 39.359375 -4.5 
Q 40.046875 -1.8125 39.984375 6.78125 
Q 34.234375 0 25.640625 0 
Q 14.9375 0 9.078125 7.71875 
Q 3.21875 15.4375 3.21875 26.21875 
Q 3.21875 33.640625 5.90625 39.90625 
Q 8.59375 46.1875 13.6875 49.609375 
Q 18.796875 53.03125 25.6875 53.03125 
Q 34.859375 53.03125 40.828125 45.609375 
L 40.828125 51.859375 
L 48.921875 51.859375 
L 48.921875 7.03125 
Q 48.921875 -5.078125 46.453125 -10.125 
Q 44 -15.1875 38.640625 -18.109375 
Q 33.296875 -21.046875 25.484375 -21.046875 
Q 16.21875 -21.046875 10.5 -16.875 
Q 4.78125 -12.703125 4.984375 -4.296875 
z
M 12.25 26.859375 
Q 12.25 16.65625 16.296875 11.96875 
Q 20.359375 7.28125 26.46875 7.28125 
Q 32.515625 7.28125 36.609375 11.9375 
Q 40.71875 16.609375 40.71875 26.5625 
Q 40.71875 36.078125 36.5 40.90625 
Q 32.28125 45.75 26.3125 45.75 
Q 20.453125 45.75 16.34375 40.984375 
Q 12.25 36.234375 12.25 26.859375 
z
" id="ArialMT-103"/>
      <path d="M 6.59375 0 
L 6.59375 71.578125 
L 15.375 71.578125 
L 15.375 45.90625 
Q 21.53125 53.03125 30.90625 53.03125 
Q 36.671875 53.03125 40.921875 50.75 
Q 45.171875 48.484375 47 44.484375 
Q 48.828125 40.484375 48.828125 32.859375 
L 48.828125 0 
L 40.046875 0 
L 40.046875 32.859375 
Q 40.046875 39.453125 37.1875 42.453125 
Q 34.328125 45.453125 29.109375 45.453125 
Q 25.203125 45.453125 21.75 43.421875 
Q 18.3125 41.40625 16.84375 37.9375 
Q 15.375 34.46875 15.375 28.375 
L 15.375 0 
z
" id="ArialMT-104"/>
      <path d="M 25.78125 7.859375 
L 27.046875 0.09375 
Q 23.34375 -0.6875 20.40625 -0.6875 
Q 15.625 -0.6875 12.984375 0.828125 
Q 10.359375 2.34375 9.28125 4.8125 
Q 8.203125 7.28125 8.203125 15.1875 
L 8.203125 45.015625 
L 1.765625 45.015625 
L 1.765625 51.859375 
L 8.203125 51.859375 
L 8.203125 64.703125 
L 16.9375 69.96875 
L 16.9375 51.859375 
L 25.78125 51.859375 
L 25.78125 45.015625 
L 16.9375 45.015625 
L 16.9375 14.703125 
Q 16.9375 10.9375 17.40625 9.859375 
Q 17.875 8.796875 18.921875 8.15625 
Q 19.96875 7.515625 21.921875 7.515625 
Q 23.390625 7.515625 25.78125 7.859375 
z
" id="ArialMT-116"/>
      <path d="M 40.234375 0 
L 40.234375 6.546875 
Q 35.296875 -1.171875 25.734375 -1.171875 
Q 19.53125 -1.171875 14.328125 2.25 
Q 9.125 5.671875 6.265625 11.796875 
Q 3.421875 17.921875 3.421875 25.875 
Q 3.421875 33.640625 6 39.96875 
Q 8.59375 46.296875 13.765625 49.65625 
Q 18.953125 53.03125 25.34375 53.03125 
Q 30.03125 53.03125 33.6875 51.046875 
Q 37.359375 49.078125 39.65625 45.90625 
L 39.65625 71.578125 
L 48.390625 71.578125 
L 48.390625 0 
z
M 12.453125 25.875 
Q 12.453125 15.921875 16.640625 10.984375 
Q 20.84375 6.0625 26.5625 6.0625 
Q 32.328125 6.0625 36.34375 10.765625 
Q 40.375 15.484375 40.375 25.140625 
Q 40.375 35.796875 36.265625 40.765625 
Q 32.171875 45.75 26.171875 45.75 
Q 20.3125 45.75 16.375 40.96875 
Q 12.453125 36.1875 12.453125 25.875 
z
" id="ArialMT-100"/>
      <path id="ArialMT-32"/>
      <path d="M 8.203125 0 
L 8.203125 71.578125 
L 56.5 71.578125 
L 56.5 63.140625 
L 17.671875 63.140625 
L 17.671875 40.96875 
L 51.265625 40.96875 
L 51.265625 32.515625 
L 17.671875 32.515625 
L 17.671875 0 
z
" id="ArialMT-70"/>
      <path d="M 6.5 0 
L 6.5 51.859375 
L 14.40625 51.859375 
L 14.40625 44 
Q 17.4375 49.515625 20 51.265625 
Q 22.5625 53.03125 25.640625 53.03125 
Q 30.078125 53.03125 34.671875 50.203125 
L 31.640625 42.046875 
Q 28.421875 43.953125 25.203125 43.953125 
Q 22.3125 43.953125 20.015625 42.21875 
Q 17.71875 40.484375 16.75 37.40625 
Q 15.28125 32.71875 15.28125 27.15625 
L 15.28125 0 
z
" id="ArialMT-114"/>
      <path d="M 40.4375 6.390625 
Q 35.546875 2.25 31.03125 0.53125 
Q 26.515625 -1.171875 21.34375 -1.171875 
Q 12.796875 -1.171875 8.203125 3 
Q 3.609375 7.171875 3.609375 13.671875 
Q 3.609375 17.484375 5.34375 20.625 
Q 7.078125 23.78125 9.890625 25.6875 
Q 12.703125 27.59375 16.21875 28.5625 
Q 18.796875 29.25 24.03125 29.890625 
Q 34.671875 31.15625 39.703125 32.90625 
Q 39.75 34.71875 39.75 35.203125 
Q 39.75 40.578125 37.25 42.78125 
Q 33.890625 45.75 27.25 45.75 
Q 21.046875 45.75 18.09375 43.578125 
Q 15.140625 41.40625 13.71875 35.890625 
L 5.125 37.0625 
Q 6.296875 42.578125 8.984375 45.96875 
Q 11.671875 49.359375 16.75 51.1875 
Q 21.828125 53.03125 28.515625 53.03125 
Q 35.15625 53.03125 39.296875 51.46875 
Q 43.453125 49.90625 45.40625 47.53125 
Q 47.359375 45.171875 48.140625 41.546875 
Q 48.578125 39.3125 48.578125 33.453125 
L 48.578125 21.734375 
Q 48.578125 9.46875 49.140625 6.21875 
Q 49.703125 2.984375 51.375 0 
L 42.1875 0 
Q 40.828125 2.734375 40.4375 6.390625 
z
M 39.703125 26.03125 
Q 34.90625 24.078125 25.34375 22.703125 
Q 19.921875 21.921875 17.671875 20.9375 
Q 15.4375 19.96875 14.203125 18.09375 
Q 12.984375 16.21875 12.984375 13.921875 
Q 12.984375 10.40625 15.640625 8.0625 
Q 18.3125 5.71875 23.4375 5.71875 
Q 28.515625 5.71875 32.46875 7.9375 
Q 36.421875 10.15625 38.28125 14.015625 
Q 39.703125 17 39.703125 22.796875 
z
" id="ArialMT-97"/>
      <path d="M 40.4375 19 
L 49.078125 17.875 
Q 47.65625 8.9375 41.8125 3.875 
Q 35.984375 -1.171875 27.484375 -1.171875 
Q 16.84375 -1.171875 10.375 5.78125 
Q 3.90625 12.75 3.90625 25.734375 
Q 3.90625 34.125 6.6875 40.421875 
Q 9.46875 46.734375 15.15625 49.875 
Q 20.84375 53.03125 27.546875 53.03125 
Q 35.984375 53.03125 41.359375 48.75 
Q 46.734375 44.484375 48.25 36.625 
L 39.703125 35.296875 
Q 38.484375 40.53125 35.375 43.15625 
Q 32.28125 45.796875 27.875 45.796875 
Q 21.234375 45.796875 17.078125 41.03125 
Q 12.9375 36.28125 12.9375 25.984375 
Q 12.9375 15.53125 16.9375 10.796875 
Q 20.953125 6.0625 27.390625 6.0625 
Q 32.5625 6.0625 36.03125 9.234375 
Q 39.5 12.40625 40.4375 19 
z
" id="ArialMT-99"/>
      <path d="M 7.71875 0 
L 7.71875 71.578125 
L 32.375 71.578125 
Q 40.71875 71.578125 45.125 70.5625 
Q 51.265625 69.140625 55.609375 65.4375 
Q 61.28125 60.640625 64.078125 53.1875 
Q 66.890625 45.75 66.890625 36.1875 
Q 66.890625 28.03125 64.984375 21.734375 
Q 63.09375 15.4375 60.109375 11.296875 
Q 57.125 7.171875 53.578125 4.796875 
Q 50.046875 2.4375 45.046875 1.21875 
Q 40.046875 0 33.546875 0 
z
M 17.1875 8.453125 
L 32.46875 8.453125 
Q 39.546875 8.453125 43.578125 9.765625 
Q 47.609375 11.078125 50 13.484375 
Q 53.375 16.84375 55.25 22.53125 
Q 57.125 28.21875 57.125 36.328125 
Q 57.125 47.5625 53.4375 53.59375 
Q 49.75 59.625 44.484375 61.671875 
Q 40.671875 63.140625 32.234375 63.140625 
L 17.1875 63.140625 
z
" id="ArialMT-68"/>
      <path d="M 3.078125 15.484375 
L 11.765625 16.84375 
Q 12.5 11.625 15.84375 8.84375 
Q 19.1875 6.0625 25.203125 6.0625 
Q 31.25 6.0625 34.171875 8.515625 
Q 37.109375 10.984375 37.109375 14.3125 
Q 37.109375 17.28125 34.515625 19 
Q 32.71875 20.171875 25.53125 21.96875 
Q 15.875 24.421875 12.140625 26.203125 
Q 8.40625 27.984375 6.46875 31.125 
Q 4.546875 34.28125 4.546875 38.09375 
Q 4.546875 41.546875 6.125 44.5 
Q 7.71875 47.46875 10.453125 49.421875 
Q 12.5 50.921875 16.03125 51.96875 
Q 19.578125 53.03125 23.640625 53.03125 
Q 29.734375 53.03125 34.34375 51.265625 
Q 38.96875 49.515625 41.15625 46.5 
Q 43.359375 43.5 44.1875 38.484375 
L 35.59375 37.3125 
Q 35.015625 41.3125 32.203125 43.546875 
Q 29.390625 45.796875 24.265625 45.796875 
Q 18.21875 45.796875 15.625 43.796875 
Q 13.03125 41.796875 13.03125 39.109375 
Q 13.03125 37.40625 14.109375 36.03125 
Q 15.1875 34.625 17.484375 33.6875 
Q 18.796875 33.203125 25.25 31.453125 
Q 34.578125 28.953125 38.25 27.359375 
Q 41.9375 25.78125 44.03125 22.75 
Q 46.140625 19.734375 46.140625 15.234375 
Q 46.140625 10.84375 43.578125 6.953125 
Q 41.015625 3.078125 36.171875 0.953125 
Q 31.34375 -1.171875 25.25 -1.171875 
Q 15.140625 -1.171875 9.84375 3.03125 
Q 4.546875 7.234375 3.078125 15.484375 
z
" id="ArialMT-115"/>
      <path d="M 3.328125 25.921875 
Q 3.328125 40.328125 11.328125 47.265625 
Q 18.015625 53.03125 27.640625 53.03125 
Q 38.328125 53.03125 45.109375 46.015625 
Q 51.90625 39.015625 51.90625 26.65625 
Q 51.90625 16.65625 48.90625 10.90625 
Q 45.90625 5.171875 40.15625 2 
Q 34.421875 -1.171875 27.640625 -1.171875 
Q 16.75 -1.171875 10.03125 5.8125 
Q 3.328125 12.796875 3.328125 25.921875 
z
M 12.359375 25.921875 
Q 12.359375 15.96875 16.703125 11.015625 
Q 21.046875 6.0625 27.640625 6.0625 
Q 34.1875 6.0625 38.53125 11.03125 
Q 42.875 16.015625 42.875 26.21875 
Q 42.875 35.84375 38.5 40.796875 
Q 34.125 45.75 27.640625 45.75 
Q 21.046875 45.75 16.703125 40.8125 
Q 12.359375 35.890625 12.359375 25.921875 
z
" id="ArialMT-111"/>
      <path d="M 7.328125 0 
L 7.328125 71.578125 
L 34.1875 71.578125 
Q 42.390625 71.578125 47.34375 69.40625 
Q 52.296875 67.234375 55.09375 62.71875 
Q 57.90625 58.203125 57.90625 53.265625 
Q 57.90625 48.6875 55.421875 44.625 
Q 52.9375 40.578125 47.90625 38.09375 
Q 54.390625 36.1875 57.875 31.59375 
Q 61.375 27 61.375 20.75 
Q 61.375 15.71875 59.25 11.390625 
Q 57.125 7.078125 54 4.734375 
Q 50.875 2.390625 46.15625 1.1875 
Q 41.453125 0 34.625 0 
z
M 16.796875 41.5 
L 32.28125 41.5 
Q 38.578125 41.5 41.3125 42.328125 
Q 44.921875 43.40625 46.75 45.890625 
Q 48.578125 48.390625 48.578125 52.15625 
Q 48.578125 55.71875 46.875 58.421875 
Q 45.171875 61.140625 41.984375 62.140625 
Q 38.8125 63.140625 31.109375 63.140625 
L 16.796875 63.140625 
z
M 16.796875 8.453125 
L 34.625 8.453125 
Q 39.203125 8.453125 41.0625 8.796875 
Q 44.34375 9.375 46.53125 10.734375 
Q 48.734375 12.109375 50.140625 14.71875 
Q 51.5625 17.328125 51.5625 20.75 
Q 51.5625 24.75 49.515625 27.703125 
Q 47.46875 30.671875 43.828125 31.859375 
Q 40.1875 33.0625 33.34375 33.0625 
L 16.796875 33.0625 
z
" id="ArialMT-66"/>
      <path d="M 6.390625 0 
L 6.390625 71.578125 
L 15.1875 71.578125 
L 15.1875 0 
z
" id="ArialMT-108"/>
     </defs>
     <g style="fill:#262626;" transform="translate(80.85408 352.911094)scale(0.15 -0.15)">
      <use xlink:href="#ArialMT-85"/>
      <use x="72.216797" xlink:href="#ArialMT-110"/>
      <use x="127.832031" xlink:href="#ArialMT-119"/>
      <use x="200.048828" xlink:href="#ArialMT-101"/>
      <use x="255.664062" xlink:href="#ArialMT-105"/>
      <use x="277.880859" xlink:href="#ArialMT-103"/>
      <use x="333.496094" xlink:href="#ArialMT-104"/>
      <use x="389.111328" xlink:href="#ArialMT-116"/>
      <use x="416.894531" xlink:href="#ArialMT-101"/>
      <use x="472.509766" xlink:href="#ArialMT-100"/>
      <use x="528.125" xlink:href="#ArialMT-32"/>
      <use x="555.908203" xlink:href="#ArialMT-85"/>
      <use x="628.125" xlink:href="#ArialMT-110"/>
      <use x="683.740234" xlink:href="#ArialMT-105"/>
      <use x="705.957031" xlink:href="#ArialMT-70"/>
      <use x="767.041016" xlink:href="#ArialMT-114"/>
      <use x="800.341797" xlink:href="#ArialMT-97"/>
      <use x="855.957031" xlink:href="#ArialMT-99"/>
      <use x="905.957031" xlink:href="#ArialMT-32"/>
      <use x="933.740234" xlink:href="#ArialMT-68"/>
      <use x="1005.957031" xlink:href="#ArialMT-105"/>
      <use x="1028.173828" xlink:href="#ArialMT-115"/>
      <use x="1078.173828" xlink:href="#ArialMT-116"/>
      <use x="1105.957031" xlink:href="#ArialMT-46"/>
      <use x="1133.740234" xlink:href="#ArialMT-32"/>
      <use x="1161.523438" xlink:href="#ArialMT-116"/>
      <use x="1189.306641" xlink:href="#ArialMT-111"/>
      <use x="1244.921875" xlink:href="#ArialMT-32"/>
      <use x="1272.705078" xlink:href="#ArialMT-66"/>
      <use x="1339.404297" xlink:href="#ArialMT-97"/>
      <use x="1395.019531" xlink:href="#ArialMT-115"/>
      <use x="1445.019531" xlink:href="#ArialMT-101"/>
      <use x="1500.634766" xlink:href="#ArialMT-108"/>
      <use x="1522.851562" xlink:href="#ArialMT-105"/>
      <use x="1545.068359" xlink:href="#ArialMT-110"/>
      <use x="1600.683594" xlink:href="#ArialMT-101"/>
     </g>
    </g>
   </g>
   <g id="matplotlib.axis_2">
    <g id="ytick_1">
     <g id="text_7">
      <!-- 0.0 -->
      <g style="fill:#262626;" transform="translate(30.842222 292.980563)scale(0.12 -0.12)">
       <use xlink:href="#ArialMT-48"/>
       <use x="55.615234" xlink:href="#ArialMT-46"/>
       <use x="83.398438" xlink:href="#ArialMT-48"/>
      </g>
     </g>
    </g>
    <g id="ytick_2">
     <g id="text_8">
      <!-- 0.1 -->
      <defs>
       <path d="M 37.25 0 
L 28.46875 0 
L 28.46875 56 
Q 25.296875 52.984375 20.140625 49.953125 
Q 14.984375 46.921875 10.890625 45.40625 
L 10.890625 53.90625 
Q 18.265625 57.375 23.78125 62.296875 
Q 29.296875 67.234375 31.59375 71.875 
L 37.25 71.875 
z
" id="ArialMT-49"/>
      </defs>
      <g style="fill:#262626;" transform="translate(30.842222 250.207252)scale(0.12 -0.12)">
       <use xlink:href="#ArialMT-48"/>
       <use x="55.615234" xlink:href="#ArialMT-46"/>
       <use x="83.398438" xlink:href="#ArialMT-49"/>
      </g>
     </g>
    </g>
    <g id="ytick_3">
     <g id="text_9">
      <!-- 0.2 -->
      <g style="fill:#262626;" transform="translate(30.842222 207.433941)scale(0.12 -0.12)">
       <use xlink:href="#ArialMT-48"/>
       <use x="55.615234" xlink:href="#ArialMT-46"/>
       <use x="83.398438" xlink:href="#ArialMT-50"/>
      </g>
     </g>
    </g>
    <g id="ytick_4">
     <g id="text_10">
      <!-- 0.3 -->
      <g style="fill:#262626;" transform="translate(30.842222 164.660631)scale(0.12 -0.12)">
       <use xlink:href="#ArialMT-48"/>
       <use x="55.615234" xlink:href="#ArialMT-46"/>
       <use x="83.398438" xlink:href="#ArialMT-51"/>
      </g>
     </g>
    </g>
    <g id="ytick_5">
     <g id="text_11">
      <!-- 0.4 -->
      <g style="fill:#262626;" transform="translate(30.842222 121.88732)scale(0.12 -0.12)">
       <use xlink:href="#ArialMT-48"/>
       <use x="55.615234" xlink:href="#ArialMT-46"/>
       <use x="83.398438" xlink:href="#ArialMT-52"/>
      </g>
     </g>
    </g>
    <g id="ytick_6">
     <g id="text_12">
      <!-- 0.5 -->
      <g style="fill:#262626;" transform="translate(30.842222 79.114009)scale(0.12 -0.12)">
       <use xlink:href="#ArialMT-48"/>
       <use x="55.615234" xlink:href="#ArialMT-46"/>
       <use x="83.398438" xlink:href="#ArialMT-53"/>
      </g>
     </g>
    </g>
    <g id="ytick_7">
     <g id="text_13">
      <!-- 0.6 -->
      <g style="fill:#262626;" transform="translate(30.842222 36.340698)scale(0.12 -0.12)">
       <use xlink:href="#ArialMT-48"/>
       <use x="55.615234" xlink:href="#ArialMT-46"/>
       <use x="83.398438" xlink:href="#ArialMT-54"/>
      </g>
     </g>
    </g>
    <g id="text_14">
     <!-- Omeprazole -->
     <defs>
      <path d="M 4.828125 34.859375 
Q 4.828125 52.6875 14.390625 62.765625 
Q 23.96875 72.859375 39.109375 72.859375 
Q 49.03125 72.859375 56.984375 68.109375 
Q 64.9375 63.375 69.109375 54.90625 
Q 73.296875 46.4375 73.296875 35.6875 
Q 73.296875 24.8125 68.890625 16.21875 
Q 64.5 7.625 56.4375 3.203125 
Q 48.390625 -1.21875 39.0625 -1.21875 
Q 28.953125 -1.21875 20.984375 3.65625 
Q 13.03125 8.546875 8.921875 16.984375 
Q 4.828125 25.4375 4.828125 34.859375 
z
M 14.59375 34.71875 
Q 14.59375 21.78125 21.546875 14.328125 
Q 28.515625 6.890625 39.015625 6.890625 
Q 49.703125 6.890625 56.609375 14.40625 
Q 63.53125 21.921875 63.53125 35.75 
Q 63.53125 44.484375 60.578125 51 
Q 57.625 57.515625 51.921875 61.109375 
Q 46.234375 64.703125 39.15625 64.703125 
Q 29.109375 64.703125 21.84375 57.78125 
Q 14.59375 50.875 14.59375 34.71875 
z
" id="ArialMT-79"/>
      <path d="M 6.59375 0 
L 6.59375 51.859375 
L 14.453125 51.859375 
L 14.453125 44.578125 
Q 16.890625 48.390625 20.9375 50.703125 
Q 25 53.03125 30.171875 53.03125 
Q 35.9375 53.03125 39.625 50.640625 
Q 43.3125 48.25 44.828125 43.953125 
Q 50.984375 53.03125 60.84375 53.03125 
Q 68.5625 53.03125 72.703125 48.75 
Q 76.859375 44.484375 76.859375 35.59375 
L 76.859375 0 
L 68.109375 0 
L 68.109375 32.671875 
Q 68.109375 37.9375 67.25 40.25 
Q 66.40625 42.578125 64.15625 43.984375 
Q 61.921875 45.40625 58.890625 45.40625 
Q 53.421875 45.40625 49.796875 41.765625 
Q 46.1875 38.140625 46.1875 30.125 
L 46.1875 0 
L 37.40625 0 
L 37.40625 33.6875 
Q 37.40625 39.546875 35.25 42.46875 
Q 33.109375 45.40625 28.21875 45.40625 
Q 24.515625 45.40625 21.359375 43.453125 
Q 18.21875 41.5 16.796875 37.734375 
Q 15.375 33.984375 15.375 26.90625 
L 15.375 0 
z
" id="ArialMT-109"/>
      <path d="M 6.59375 -19.875 
L 6.59375 51.859375 
L 14.59375 51.859375 
L 14.59375 45.125 
Q 17.4375 49.078125 21 51.046875 
Q 24.5625 53.03125 29.640625 53.03125 
Q 36.28125 53.03125 41.359375 49.609375 
Q 46.4375 46.1875 49.015625 39.953125 
Q 51.609375 33.734375 51.609375 26.3125 
Q 51.609375 18.359375 48.75 11.984375 
Q 45.90625 5.609375 40.453125 2.21875 
Q 35.015625 -1.171875 29 -1.171875 
Q 24.609375 -1.171875 21.109375 0.6875 
Q 17.625 2.546875 15.375 5.375 
L 15.375 -19.875 
z
M 14.546875 25.640625 
Q 14.546875 15.625 18.59375 10.84375 
Q 22.65625 6.0625 28.421875 6.0625 
Q 34.28125 6.0625 38.453125 11.015625 
Q 42.625 15.96875 42.625 26.375 
Q 42.625 36.28125 38.546875 41.203125 
Q 34.46875 46.140625 28.8125 46.140625 
Q 23.1875 46.140625 18.859375 40.890625 
Q 14.546875 35.640625 14.546875 25.640625 
z
" id="ArialMT-112"/>
      <path d="M 1.953125 0 
L 1.953125 7.125 
L 34.96875 45.015625 
Q 29.34375 44.734375 25.046875 44.734375 
L 3.90625 44.734375 
L 3.90625 51.859375 
L 46.296875 51.859375 
L 46.296875 46.046875 
L 18.21875 13.140625 
L 12.796875 7.125 
Q 18.703125 7.5625 23.875 7.5625 
L 47.859375 7.5625 
L 47.859375 0 
z
" id="ArialMT-122"/>
     </defs>
     <g style="fill:#262626;" transform="translate(23.860972 208.098047)rotate(-90)scale(0.15 -0.15)">
      <use xlink:href="#ArialMT-79"/>
      <use x="77.783203" xlink:href="#ArialMT-109"/>
      <use x="161.083984" xlink:href="#ArialMT-101"/>
      <use x="216.699219" xlink:href="#ArialMT-112"/>
      <use x="272.314453" xlink:href="#ArialMT-114"/>
      <use x="305.615234" xlink:href="#ArialMT-97"/>
      <use x="361.230469" xlink:href="#ArialMT-122"/>
      <use x="411.230469" xlink:href="#ArialMT-111"/>
      <use x="466.845703" xlink:href="#ArialMT-108"/>
      <use x="489.0625" xlink:href="#ArialMT-101"/>
     </g>
    </g>
   </g>
   <g id="PathCollection_1">
    <defs>
     <path d="M 0 3 
C 0.795609 3 1.55874 2.683901 2.12132 2.12132 
C 2.683901 1.55874 3 0.795609 3 0 
C 3 -0.795609 2.683901 -1.55874 2.12132 -2.12132 
C 1.55874 -2.683901 0.795609 -3 0 -3 
C -0.795609 -3 -1.55874 -2.683901 -2.12132 -2.12132 
C -2.683901 -1.55874 -3 -0.795609 -3 0 
C -3 0.795609 -2.683901 1.55874 -2.12132 2.12132 
C -1.55874 2.683901 -0.795609 3 0 3 
z
" id="m17cd9f5e3a" style="stroke:#f77189;stroke-opacity:0.8;"/>
    </defs>
    <g clip-path="url(#pc6aff555a9)">
     <use style="fill:#f77189;fill-opacity:0.8;stroke:#f77189;stroke-opacity:0.8;" x="200.506196" xlink:href="#m17cd9f5e3a" y="270.92682"/>
     <use style="fill:#f77189;fill-opacity:0.8;stroke:#f77189;stroke-opacity:0.8;" x="253.136506" xlink:href="#m17cd9f5e3a" y="189.674233"/>
     <use style="fill:#f77189;fill-opacity:0.8;stroke:#f77189;stroke-opacity:0.8;" x="272.862293" xlink:href="#m17cd9f5e3a" y="157.119626"/>
     <use style="fill:#f77189;fill-opacity:0.8;stroke:#f77189;stroke-opacity:0.8;" x="307.144965" xlink:href="#m17cd9f5e3a" y="147.431148"/>
     <use style="fill:#f77189;fill-opacity:0.8;stroke:#f77189;stroke-opacity:0.8;" x="312.901584" xlink:href="#m17cd9f5e3a" y="212.162903"/>
     <use style="fill:#f77189;fill-opacity:0.8;stroke:#f77189;stroke-opacity:0.8;" x="273.040943" xlink:href="#m17cd9f5e3a" y="231.439547"/>
    </g>
   </g>
   <g id="PathCollection_2">
    <defs>
     <path d="M 0 3 
C 0.795609 3 1.55874 2.683901 2.12132 2.12132 
C 2.683901 1.55874 3 0.795609 3 0 
C 3 -0.795609 2.683901 -1.55874 2.12132 -2.12132 
C 1.55874 -2.683901 0.795609 -3 0 -3 
C -0.795609 -3 -1.55874 -2.683901 -2.12132 -2.12132 
C -2.683901 -1.55874 -3 -0.795609 -3 0 
C -3 0.795609 -2.683901 1.55874 -2.12132 2.12132 
C -1.55874 2.683901 -0.795609 3 0 3 
z
" id="m426c8f4030" style="stroke:#e68332;stroke-opacity:0.8;"/>
    </defs>
    <g clip-path="url(#pc6aff555a9)">
     <use style="fill:#e68332;fill-opacity:0.8;stroke:#e68332;stroke-opacity:0.8;" x="155.971135" xlink:href="#m426c8f4030" y="248.934976"/>
     <use style="fill:#e68332;fill-opacity:0.8;stroke:#e68332;stroke-opacity:0.8;" x="113.058682" xlink:href="#m426c8f4030" y="286.85315"/>
     <use style="fill:#e68332;fill-opacity:0.8;stroke:#e68332;stroke-opacity:0.8;" x="141.621156" xlink:href="#m426c8f4030" y="286.51817"/>
     <use style="fill:#e68332;fill-opacity:0.8;stroke:#e68332;stroke-opacity:0.8;" x="172.991235" xlink:href="#m426c8f4030" y="252.026255"/>
     <use style="fill:#e68332;fill-opacity:0.8;stroke:#e68332;stroke-opacity:0.8;" x="193.245043" xlink:href="#m426c8f4030" y="267.869789"/>
     <use style="fill:#e68332;fill-opacity:0.8;stroke:#e68332;stroke-opacity:0.8;" x="198.569683" xlink:href="#m426c8f4030" y="278.387492"/>
     <use style="fill:#e68332;fill-opacity:0.8;stroke:#e68332;stroke-opacity:0.8;" x="179.100865" xlink:href="#m426c8f4030" y="285.877815"/>
     <use style="fill:#e68332;fill-opacity:0.8;stroke:#e68332;stroke-opacity:0.8;" x="201.31411" xlink:href="#m426c8f4030" y="281.868424"/>
    </g>
   </g>
   <g id="PathCollection_3">
    <defs>
     <path d="M 0 3 
C 0.795609 3 1.55874 2.683901 2.12132 2.12132 
C 2.683901 1.55874 3 0.795609 3 0 
C 3 -0.795609 2.683901 -1.55874 2.12132 -2.12132 
C 1.55874 -2.683901 0.795609 -3 0 -3 
C -0.795609 -3 -1.55874 -2.683901 -2.12132 -2.12132 
C -2.683901 -1.55874 -3 -0.795609 -3 0 
C -3 0.795609 -2.683901 1.55874 -2.12132 2.12132 
C -1.55874 2.683901 -0.795609 3 0 3 
z
" id="md1260d0483" style="stroke:#bb9832;stroke-opacity:0.8;"/>
    </defs>
    <g clip-path="url(#pc6aff555a9)">
     <use style="fill:#bb9832;fill-opacity:0.8;stroke:#bb9832;stroke-opacity:0.8;" x="220.478714" xlink:href="#md1260d0483" y="274.904356"/>
     <use style="fill:#bb9832;fill-opacity:0.8;stroke:#bb9832;stroke-opacity:0.8;" x="220.462115" xlink:href="#md1260d0483" y="220.603449"/>
     <use style="fill:#bb9832;fill-opacity:0.8;stroke:#bb9832;stroke-opacity:0.8;" x="248.938282" xlink:href="#md1260d0483" y="167.099947"/>
     <use style="fill:#bb9832;fill-opacity:0.8;stroke:#bb9832;stroke-opacity:0.8;" x="315.543843" xlink:href="#md1260d0483" y="150.066697"/>
     <use style="fill:#bb9832;fill-opacity:0.8;stroke:#bb9832;stroke-opacity:0.8;" x="303.330002" xlink:href="#md1260d0483" y="168.754153"/>
    </g>
   </g>
   <g id="PathCollection_4">
    <defs>
     <path d="M 0 3 
C 0.795609 3 1.55874 2.683901 2.12132 2.12132 
C 2.683901 1.55874 3 0.795609 3 0 
C 3 -0.795609 2.683901 -1.55874 2.12132 -2.12132 
C 1.55874 -2.683901 0.795609 -3 0 -3 
C -0.795609 -3 -1.55874 -2.683901 -2.12132 -2.12132 
C -2.683901 -1.55874 -3 -0.795609 -3 0 
C -3 0.795609 -2.683901 1.55874 -2.12132 2.12132 
C -1.55874 2.683901 -0.795609 3 0 3 
z
" id="m1fbe3e3894" style="stroke:#97a431;stroke-opacity:0.8;"/>
    </defs>
    <g clip-path="url(#pc6aff555a9)">
     <use style="fill:#97a431;fill-opacity:0.8;stroke:#97a431;stroke-opacity:0.8;" x="105.406194" xlink:href="#m1fbe3e3894" y="287.59748"/>
     <use style="fill:#97a431;fill-opacity:0.8;stroke:#97a431;stroke-opacity:0.8;" x="118.926216" xlink:href="#m1fbe3e3894" y="286.241474"/>
     <use style="fill:#97a431;fill-opacity:0.8;stroke:#97a431;stroke-opacity:0.8;" x="335.928084" xlink:href="#m1fbe3e3894" y="145.421983"/>
     <use style="fill:#97a431;fill-opacity:0.8;stroke:#97a431;stroke-opacity:0.8;" x="275.688468" xlink:href="#m1fbe3e3894" y="219.344225"/>
     <use style="fill:#97a431;fill-opacity:0.8;stroke:#97a431;stroke-opacity:0.8;" x="268.681128" xlink:href="#m1fbe3e3894" y="282.777818"/>
     <use style="fill:#97a431;fill-opacity:0.8;stroke:#97a431;stroke-opacity:0.8;" x="232.326747" xlink:href="#m1fbe3e3894" y="286.204334"/>
     <use style="fill:#97a431;fill-opacity:0.8;stroke:#97a431;stroke-opacity:0.8;" x="281.483563" xlink:href="#m1fbe3e3894" y="284.938941"/>
    </g>
   </g>
   <g id="PathCollection_5">
    <defs>
     <path d="M 0 3 
C 0.795609 3 1.55874 2.683901 2.12132 2.12132 
C 2.683901 1.55874 3 0.795609 3 0 
C 3 -0.795609 2.683901 -1.55874 2.12132 -2.12132 
C 1.55874 -2.683901 0.795609 -3 0 -3 
C -0.795609 -3 -1.55874 -2.683901 -2.12132 -2.12132 
C -2.683901 -1.55874 -3 -0.795609 -3 0 
C -3 0.795609 -2.683901 1.55874 -2.12132 2.12132 
C -1.55874 2.683901 -0.795609 3 0 3 
z
" id="me97733fef6" style="stroke:#50b131;stroke-opacity:0.8;"/>
    </defs>
    <g clip-path="url(#pc6aff555a9)">
     <use style="fill:#50b131;fill-opacity:0.8;stroke:#50b131;stroke-opacity:0.8;" x="194.256788" xlink:href="#me97733fef6" y="272.535686"/>
     <use style="fill:#50b131;fill-opacity:0.8;stroke:#50b131;stroke-opacity:0.8;" x="268.770196" xlink:href="#me97733fef6" y="264.124245"/>
     <use style="fill:#50b131;fill-opacity:0.8;stroke:#50b131;stroke-opacity:0.8;" x="287.500666" xlink:href="#me97733fef6" y="282.491267"/>
     <use style="fill:#50b131;fill-opacity:0.8;stroke:#50b131;stroke-opacity:0.8;" x="295.362863" xlink:href="#me97733fef6" y="282.348188"/>
     <use style="fill:#50b131;fill-opacity:0.8;stroke:#50b131;stroke-opacity:0.8;" x="237.366354" xlink:href="#me97733fef6" y="276.25186"/>
     <use style="fill:#50b131;fill-opacity:0.8;stroke:#50b131;stroke-opacity:0.8;" x="305.035122" xlink:href="#me97733fef6" y="273.729751"/>
     <use style="fill:#50b131;fill-opacity:0.8;stroke:#50b131;stroke-opacity:0.8;" x="288.359911" xlink:href="#me97733fef6" y="260.527384"/>
    </g>
   </g>
   <g id="PathCollection_6">
    <defs>
     <path d="M 0 3 
C 0.795609 3 1.55874 2.683901 2.12132 2.12132 
C 2.683901 1.55874 3 0.795609 3 0 
C 3 -0.795609 2.683901 -1.55874 2.12132 -2.12132 
C 1.55874 -2.683901 0.795609 -3 0 -3 
C -0.795609 -3 -1.55874 -2.683901 -2.12132 -2.12132 
C -2.683901 -1.55874 -3 -0.795609 -3 0 
C -3 0.795609 -2.683901 1.55874 -2.12132 2.12132 
C -1.55874 2.683901 -0.795609 3 0 3 
z
" id="mda98a82de4" style="stroke:#34af84;stroke-opacity:0.8;"/>
    </defs>
    <g clip-path="url(#pc6aff555a9)">
     <use style="fill:#34af84;fill-opacity:0.8;stroke:#34af84;stroke-opacity:0.8;" x="203.651365" xlink:href="#mda98a82de4" y="92.804854"/>
     <use style="fill:#34af84;fill-opacity:0.8;stroke:#34af84;stroke-opacity:0.8;" x="173.873124" xlink:href="#mda98a82de4" y="143.861788"/>
     <use style="fill:#34af84;fill-opacity:0.8;stroke:#34af84;stroke-opacity:0.8;" x="215.623918" xlink:href="#mda98a82de4" y="181.001588"/>
     <use style="fill:#34af84;fill-opacity:0.8;stroke:#34af84;stroke-opacity:0.8;" x="245.607384" xlink:href="#mda98a82de4" y="118.118621"/>
     <use style="fill:#34af84;fill-opacity:0.8;stroke:#34af84;stroke-opacity:0.8;" x="216.792459" xlink:href="#mda98a82de4" y="168.431245"/>
     <use style="fill:#34af84;fill-opacity:0.8;stroke:#34af84;stroke-opacity:0.8;" x="163.630267" xlink:href="#mda98a82de4" y="187.099782"/>
     <use style="fill:#34af84;fill-opacity:0.8;stroke:#34af84;stroke-opacity:0.8;" x="217.355807" xlink:href="#mda98a82de4" y="141.585596"/>
    </g>
   </g>
   <g id="PathCollection_7">
    <defs>
     <path d="M 0 3 
C 0.795609 3 1.55874 2.683901 2.12132 2.12132 
C 2.683901 1.55874 3 0.795609 3 0 
C 3 -0.795609 2.683901 -1.55874 2.12132 -2.12132 
C 1.55874 -2.683901 0.795609 -3 0 -3 
C -0.795609 -3 -1.55874 -2.683901 -2.12132 -2.12132 
C -2.683901 -1.55874 -3 -0.795609 -3 0 
C -3 0.795609 -2.683901 1.55874 -2.12132 2.12132 
C -1.55874 2.683901 -0.795609 3 0 3 
z
" id="m42f77d0826" style="stroke:#36ada4;stroke-opacity:0.8;"/>
    </defs>
    <g clip-path="url(#pc6aff555a9)">
     <use style="fill:#36ada4;fill-opacity:0.8;stroke:#36ada4;stroke-opacity:0.8;" x="194.501929" xlink:href="#m42f77d0826" y="283.445704"/>
     <use style="fill:#36ada4;fill-opacity:0.8;stroke:#36ada4;stroke-opacity:0.8;" x="273.975918" xlink:href="#m42f77d0826" y="169.953066"/>
     <use style="fill:#36ada4;fill-opacity:0.8;stroke:#36ada4;stroke-opacity:0.8;" x="237.49471" xlink:href="#m42f77d0826" y="30.431145"/>
     <use style="fill:#36ada4;fill-opacity:0.8;stroke:#36ada4;stroke-opacity:0.8;" x="306.209031" xlink:href="#m42f77d0826" y="164.715278"/>
     <use style="fill:#36ada4;fill-opacity:0.8;stroke:#36ada4;stroke-opacity:0.8;" x="257.014132" xlink:href="#m42f77d0826" y="91.793492"/>
    </g>
   </g>
   <g id="PathCollection_8">
    <defs>
     <path d="M 0 3 
C 0.795609 3 1.55874 2.683901 2.12132 2.12132 
C 2.683901 1.55874 3 0.795609 3 0 
C 3 -0.795609 2.683901 -1.55874 2.12132 -2.12132 
C 1.55874 -2.683901 0.795609 -3 0 -3 
C -0.795609 -3 -1.55874 -2.683901 -2.12132 -2.12132 
C -2.683901 -1.55874 -3 -0.795609 -3 0 
C -3 0.795609 -2.683901 1.55874 -2.12132 2.12132 
C -1.55874 2.683901 -0.795609 3 0 3 
z
" id="m4c3352cd92" style="stroke:#38aabf;stroke-opacity:0.8;"/>
    </defs>
    <g clip-path="url(#pc6aff555a9)">
     <use style="fill:#38aabf;fill-opacity:0.8;stroke:#38aabf;stroke-opacity:0.8;" x="74.212888" xlink:href="#m4c3352cd92" y="166.717817"/>
     <use style="fill:#38aabf;fill-opacity:0.8;stroke:#38aabf;stroke-opacity:0.8;" x="168.33326" xlink:href="#m4c3352cd92" y="106.069721"/>
     <use style="fill:#38aabf;fill-opacity:0.8;stroke:#38aabf;stroke-opacity:0.8;" x="228.913701" xlink:href="#m4c3352cd92" y="196.94048"/>
     <use style="fill:#38aabf;fill-opacity:0.8;stroke:#38aabf;stroke-opacity:0.8;" x="171.551809" xlink:href="#m4c3352cd92" y="191.930713"/>
     <use style="fill:#38aabf;fill-opacity:0.8;stroke:#38aabf;stroke-opacity:0.8;" x="210.834235" xlink:href="#m4c3352cd92" y="179.670833"/>
     <use style="fill:#38aabf;fill-opacity:0.8;stroke:#38aabf;stroke-opacity:0.8;" x="202.370497" xlink:href="#m4c3352cd92" y="190.102453"/>
    </g>
   </g>
   <g id="PathCollection_9">
    <defs>
     <path d="M 0 3 
C 0.795609 3 1.55874 2.683901 2.12132 2.12132 
C 2.683901 1.55874 3 0.795609 3 0 
C 3 -0.795609 2.683901 -1.55874 2.12132 -2.12132 
C 1.55874 -2.683901 0.795609 -3 0 -3 
C -0.795609 -3 -1.55874 -2.683901 -2.12132 -2.12132 
C -2.683901 -1.55874 -3 -0.795609 -3 0 
C -3 0.795609 -2.683901 1.55874 -2.12132 2.12132 
C -1.55874 2.683901 -0.795609 3 0 3 
z
" id="m9f48a5d67d" style="stroke:#3ba3ec;stroke-opacity:0.8;"/>
    </defs>
    <g clip-path="url(#pc6aff555a9)">
     <use style="fill:#3ba3ec;fill-opacity:0.8;stroke:#3ba3ec;stroke-opacity:0.8;" x="196.319198" xlink:href="#m9f48a5d67d" y="275.85042"/>
     <use style="fill:#3ba3ec;fill-opacity:0.8;stroke:#3ba3ec;stroke-opacity:0.8;" x="247.056398" xlink:href="#m9f48a5d67d" y="248.041221"/>
     <use style="fill:#3ba3ec;fill-opacity:0.8;stroke:#3ba3ec;stroke-opacity:0.8;" x="151.262872" xlink:href="#m9f48a5d67d" y="279.294736"/>
     <use style="fill:#3ba3ec;fill-opacity:0.8;stroke:#3ba3ec;stroke-opacity:0.8;" x="234.476189" xlink:href="#m9f48a5d67d" y="156.647308"/>
    </g>
   </g>
   <g id="PathCollection_10">
    <defs>
     <path d="M 0 3 
C 0.795609 3 1.55874 2.683901 2.12132 2.12132 
C 2.683901 1.55874 3 0.795609 3 0 
C 3 -0.795609 2.683901 -1.55874 2.12132 -2.12132 
C 1.55874 -2.683901 0.795609 -3 0 -3 
C -0.795609 -3 -1.55874 -2.683901 -2.12132 -2.12132 
C -2.683901 -1.55874 -3 -0.795609 -3 0 
C -3 0.795609 -2.683901 1.55874 -2.12132 2.12132 
C -1.55874 2.683901 -0.795609 3 0 3 
z
" id="m24ae14807a" style="stroke:#a48cf4;stroke-opacity:0.8;"/>
    </defs>
    <g clip-path="url(#pc6aff555a9)">
     <use style="fill:#a48cf4;fill-opacity:0.8;stroke:#a48cf4;stroke-opacity:0.8;" x="121.616413" xlink:href="#m24ae14807a" y="281.998388"/>
     <use style="fill:#a48cf4;fill-opacity:0.8;stroke:#a48cf4;stroke-opacity:0.8;" x="131.557016" xlink:href="#m24ae14807a" y="266.687579"/>
     <use style="fill:#a48cf4;fill-opacity:0.8;stroke:#a48cf4;stroke-opacity:0.8;" x="312.179069" xlink:href="#m24ae14807a" y="182.819951"/>
     <use style="fill:#a48cf4;fill-opacity:0.8;stroke:#a48cf4;stroke-opacity:0.8;" x="260.597839" xlink:href="#m24ae14807a" y="184.301535"/>
     <use style="fill:#a48cf4;fill-opacity:0.8;stroke:#a48cf4;stroke-opacity:0.8;" x="251.961313" xlink:href="#m24ae14807a" y="211.296459"/>
     <use style="fill:#a48cf4;fill-opacity:0.8;stroke:#a48cf4;stroke-opacity:0.8;" x="283.626496" xlink:href="#m24ae14807a" y="202.397517"/>
     <use style="fill:#a48cf4;fill-opacity:0.8;stroke:#a48cf4;stroke-opacity:0.8;" x="268.484102" xlink:href="#m24ae14807a" y="221.590731"/>
    </g>
   </g>
   <g id="PathCollection_11">
    <defs>
     <path d="M 0 3 
C 0.795609 3 1.55874 2.683901 2.12132 2.12132 
C 2.683901 1.55874 3 0.795609 3 0 
C 3 -0.795609 2.683901 -1.55874 2.12132 -2.12132 
C 1.55874 -2.683901 0.795609 -3 0 -3 
C -0.795609 -3 -1.55874 -2.683901 -2.12132 -2.12132 
C -2.683901 -1.55874 -3 -0.795609 -3 0 
C -3 0.795609 -2.683901 1.55874 -2.12132 2.12132 
C -1.55874 2.683901 -0.795609 3 0 3 
z
" id="mb1d889acc0" style="stroke:#e866f4;stroke-opacity:0.8;"/>
    </defs>
    <g clip-path="url(#pc6aff555a9)">
     <use style="fill:#e866f4;fill-opacity:0.8;stroke:#e866f4;stroke-opacity:0.8;" x="150.24153" xlink:href="#mb1d889acc0" y="276.416018"/>
     <use style="fill:#e866f4;fill-opacity:0.8;stroke:#e866f4;stroke-opacity:0.8;" x="186.790485" xlink:href="#mb1d889acc0" y="230.555168"/>
     <use style="fill:#e866f4;fill-opacity:0.8;stroke:#e866f4;stroke-opacity:0.8;" x="202.6317" xlink:href="#mb1d889acc0" y="215.566966"/>
     <use style="fill:#e866f4;fill-opacity:0.8;stroke:#e866f4;stroke-opacity:0.8;" x="171.55895" xlink:href="#mb1d889acc0" y="277.619931"/>
     <use style="fill:#e866f4;fill-opacity:0.8;stroke:#e866f4;stroke-opacity:0.8;" x="225.008201" xlink:href="#mb1d889acc0" y="278.612516"/>
     <use style="fill:#e866f4;fill-opacity:0.8;stroke:#e866f4;stroke-opacity:0.8;" x="160.907654" xlink:href="#mb1d889acc0" y="284.648633"/>
    </g>
   </g>
   <g id="PathCollection_12">
    <defs>
     <path d="M 0 3 
C 0.795609 3 1.55874 2.683901 2.12132 2.12132 
C 2.683901 1.55874 3 0.795609 3 0 
C 3 -0.795609 2.683901 -1.55874 2.12132 -2.12132 
C 1.55874 -2.683901 0.795609 -3 0 -3 
C -0.795609 -3 -1.55874 -2.683901 -2.12132 -2.12132 
C -2.683901 -1.55874 -3 -0.795609 -3 0 
C -3 0.795609 -2.683901 1.55874 -2.12132 2.12132 
C -1.55874 2.683901 -0.795609 3 0 3 
z
" id="me8f18f9dae" style="stroke:#f668c2;stroke-opacity:0.8;"/>
    </defs>
    <g clip-path="url(#pc6aff555a9)">
     <use style="fill:#f668c2;fill-opacity:0.8;stroke:#f668c2;stroke-opacity:0.8;" x="150.784825" xlink:href="#me8f18f9dae" y="288.033012"/>
     <use style="fill:#f668c2;fill-opacity:0.8;stroke:#f668c2;stroke-opacity:0.8;" x="146.460448" xlink:href="#me8f18f9dae" y="287.293566"/>
     <use style="fill:#f668c2;fill-opacity:0.8;stroke:#f668c2;stroke-opacity:0.8;" x="143.258103" xlink:href="#me8f18f9dae" y="287.944666"/>
     <use style="fill:#f668c2;fill-opacity:0.8;stroke:#f668c2;stroke-opacity:0.8;" x="149.778276" xlink:href="#me8f18f9dae" y="286.744607"/>
     <use style="fill:#f668c2;fill-opacity:0.8;stroke:#f668c2;stroke-opacity:0.8;" x="163.448285" xlink:href="#me8f18f9dae" y="280.722443"/>
     <use style="fill:#f668c2;fill-opacity:0.8;stroke:#f668c2;stroke-opacity:0.8;" x="150.038168" xlink:href="#me8f18f9dae" y="287.412889"/>
     <use style="fill:#f668c2;fill-opacity:0.8;stroke:#f668c2;stroke-opacity:0.8;" x="164.402172" xlink:href="#me8f18f9dae" y="287.075537"/>
    </g>
   </g>
   <g id="line2d_1">
    <path clip-path="url(#pc6aff555a9)" d="M 200.506196 253.101482 
L 201.641503 252.256984 
L 202.77681 251.412486 
L 203.912117 250.567988 
L 205.047424 249.72349 
L 206.182731 248.878992 
L 207.318038 248.034494 
L 208.453345 247.189997 
L 209.588652 246.345499 
L 210.723959 245.501001 
L 211.859266 244.656503 
L 212.994573 243.812005 
L 214.129879 242.967507 
L 215.265186 242.123009 
L 216.400493 241.278511 
L 217.5358 240.434013 
L 218.671107 239.589515 
L 219.806414 238.745017 
L 220.941721 237.900519 
L 222.077028 237.056021 
L 223.212335 236.211523 
L 224.347642 235.367025 
L 225.482949 234.522528 
L 226.618256 233.67803 
L 227.753563 232.833532 
L 228.88887 231.989034 
L 230.024177 231.144536 
L 231.159484 230.300038 
L 232.294791 229.45554 
L 233.430098 228.611042 
L 234.565405 227.766544 
L 235.700711 226.922046 
L 236.836018 226.077548 
L 237.971325 225.23305 
L 239.106632 224.388552 
L 240.241939 223.544054 
L 241.377246 222.699556 
L 242.512553 221.855059 
L 243.64786 221.010561 
L 244.783167 220.166063 
L 245.918474 219.321565 
L 247.053781 218.477067 
L 248.189088 217.632569 
L 249.324395 216.788071 
L 250.459702 215.943573 
L 251.595009 215.099075 
L 252.730316 214.254577 
L 253.865623 213.410079 
L 255.00093 212.565581 
L 256.136237 211.721083 
L 257.271544 210.876585 
L 258.40685 210.032087 
L 259.542157 209.18759 
L 260.677464 208.343092 
L 261.812771 207.498594 
L 262.948078 206.654096 
L 264.083385 205.809598 
L 265.218692 204.9651 
L 266.353999 204.120602 
L 267.489306 203.276104 
L 268.624613 202.431606 
L 269.75992 201.587108 
L 270.895227 200.74261 
L 272.030534 199.898112 
L 273.165841 199.053614 
L 274.301148 198.209116 
L 275.436455 197.364618 
L 276.571762 196.520121 
L 277.707069 195.675623 
L 278.842376 194.831125 
L 279.977682 193.986627 
L 281.112989 193.142129 
L 282.248296 192.297631 
L 283.383603 191.453133 
L 284.51891 190.608635 
L 285.654217 189.764137 
L 286.789524 188.919639 
L 287.924831 188.075141 
L 289.060138 187.230643 
L 290.195445 186.386145 
L 291.330752 185.541647 
L 292.466059 184.69715 
L 293.601366 183.852652 
L 294.736673 183.008154 
L 295.87198 182.163656 
L 297.007287 181.319158 
L 298.142594 180.47466 
L 299.277901 179.630162 
L 300.413208 178.785664 
L 301.548514 177.941166 
L 302.683821 177.096668 
L 303.819128 176.25217 
L 304.954435 175.407672 
L 306.089742 174.563174 
L 307.225049 173.718676 
L 308.360356 172.874178 
L 309.495663 172.029681 
L 310.63097 171.185183 
L 311.766277 170.340685 
L 312.901584 169.496187 
" style="fill:none;stroke:#f77189;stroke-linecap:round;stroke-width:2.25;"/>
   </g>
   <g id="line2d_2">
    <path clip-path="url(#pc6aff555a9)" d="M 113.058682 277.481466 
L 113.950151 277.419227 
L 114.84162 277.356987 
L 115.733089 277.294747 
L 116.624558 277.232507 
L 117.516027 277.170267 
L 118.407496 277.108027 
L 119.298965 277.045787 
L 120.190433 276.983547 
L 121.081902 276.921308 
L 121.973371 276.859068 
L 122.86484 276.796828 
L 123.756309 276.734588 
L 124.647778 276.672348 
L 125.539247 276.610108 
L 126.430716 276.547868 
L 127.322185 276.485628 
L 128.213654 276.423389 
L 129.105123 276.361149 
L 129.996592 276.298909 
L 130.888061 276.236669 
L 131.77953 276.174429 
L 132.670999 276.112189 
L 133.562468 276.049949 
L 134.453937 275.987709 
L 135.345406 275.92547 
L 136.236875 275.86323 
L 137.128344 275.80099 
L 138.019813 275.73875 
L 138.911282 275.67651 
L 139.802751 275.61427 
L 140.69422 275.55203 
L 141.585689 275.48979 
L 142.477158 275.42755 
L 143.368627 275.365311 
L 144.260096 275.303071 
L 145.151565 275.240831 
L 146.043034 275.178591 
L 146.934503 275.116351 
L 147.825972 275.054111 
L 148.717441 274.991871 
L 149.60891 274.929631 
L 150.500379 274.867392 
L 151.391848 274.805152 
L 152.283316 274.742912 
L 153.174785 274.680672 
L 154.066254 274.618432 
L 154.957723 274.556192 
L 155.849192 274.493952 
L 156.740661 274.431712 
L 157.63213 274.369473 
L 158.523599 274.307233 
L 159.415068 274.244993 
L 160.306537 274.182753 
L 161.198006 274.120513 
L 162.089475 274.058273 
L 162.980944 273.996033 
L 163.872413 273.933793 
L 164.763882 273.871554 
L 165.655351 273.809314 
L 166.54682 273.747074 
L 167.438289 273.684834 
L 168.329758 273.622594 
L 169.221227 273.560354 
L 170.112696 273.498114 
L 171.004165 273.435874 
L 171.895634 273.373634 
L 172.787103 273.311395 
L 173.678572 273.249155 
L 174.570041 273.186915 
L 175.46151 273.124675 
L 176.352979 273.062435 
L 177.244448 273.000195 
L 178.135917 272.937955 
L 179.027386 272.875715 
L 179.918855 272.813476 
L 180.810324 272.751236 
L 181.701793 272.688996 
L 182.593262 272.626756 
L 183.48473 272.564516 
L 184.376199 272.502276 
L 185.267668 272.440036 
L 186.159137 272.377796 
L 187.050606 272.315557 
L 187.942075 272.253317 
L 188.833544 272.191077 
L 189.725013 272.128837 
L 190.616482 272.066597 
L 191.507951 272.004357 
L 192.39942 271.942117 
L 193.290889 271.879877 
L 194.182358 271.817637 
L 195.073827 271.755398 
L 195.965296 271.693158 
L 196.856765 271.630918 
L 197.748234 271.568678 
L 198.639703 271.506438 
L 199.531172 271.444198 
L 200.422641 271.381958 
L 201.31411 271.319718 
" style="fill:none;stroke:#e68332;stroke-linecap:round;stroke-width:2.25;"/>
   </g>
   <g id="line2d_3">
    <path clip-path="url(#pc6aff555a9)" d="M 220.462115 234.10296 
L 221.422537 233.223284 
L 222.382958 232.343608 
L 223.34338 231.463932 
L 224.303801 230.584255 
L 225.264223 229.704579 
L 226.224644 228.824903 
L 227.185066 227.945227 
L 228.145487 227.065551 
L 229.105909 226.185874 
L 230.06633 225.306198 
L 231.026752 224.426522 
L 231.987173 223.546846 
L 232.947595 222.66717 
L 233.908016 221.787493 
L 234.868438 220.907817 
L 235.828859 220.028141 
L 236.789281 219.148465 
L 237.749702 218.268789 
L 238.710124 217.389112 
L 239.670545 216.509436 
L 240.630967 215.62976 
L 241.591388 214.750084 
L 242.55181 213.870408 
L 243.512231 212.990731 
L 244.472653 212.111055 
L 245.433074 211.231379 
L 246.393496 210.351703 
L 247.353917 209.472026 
L 248.314339 208.59235 
L 249.27476 207.712674 
L 250.235182 206.832998 
L 251.195603 205.953322 
L 252.156025 205.073645 
L 253.116446 204.193969 
L 254.076868 203.314293 
L 255.037289 202.434617 
L 255.997711 201.554941 
L 256.958132 200.675264 
L 257.918554 199.795588 
L 258.878975 198.915912 
L 259.839397 198.036236 
L 260.799818 197.15656 
L 261.76024 196.276883 
L 262.720661 195.397207 
L 263.681083 194.517531 
L 264.641504 193.637855 
L 265.601926 192.758179 
L 266.562347 191.878502 
L 267.522769 190.998826 
L 268.48319 190.11915 
L 269.443611 189.239474 
L 270.404033 188.359798 
L 271.364454 187.480121 
L 272.324876 186.600445 
L 273.285297 185.720769 
L 274.245719 184.841093 
L 275.20614 183.961416 
L 276.166562 183.08174 
L 277.126983 182.202064 
L 278.087405 181.322388 
L 279.047826 180.442712 
L 280.008248 179.563035 
L 280.968669 178.683359 
L 281.929091 177.803683 
L 282.889512 176.924007 
L 283.849934 176.044331 
L 284.810355 175.164654 
L 285.770777 174.284978 
L 286.731198 173.405302 
L 287.69162 172.525626 
L 288.652041 171.64595 
L 289.612463 170.766273 
L 290.572884 169.886597 
L 291.533306 169.006921 
L 292.493727 168.127245 
L 293.454149 167.247569 
L 294.41457 166.367892 
L 295.374992 165.488216 
L 296.335413 164.60854 
L 297.295835 163.728864 
L 298.256256 162.849187 
L 299.216678 161.969511 
L 300.177099 161.089835 
L 301.137521 160.210159 
L 302.097942 159.330483 
L 303.058364 158.450806 
L 304.018785 157.57113 
L 304.979207 156.691454 
L 305.939628 155.811778 
L 306.90005 154.932102 
L 307.860471 154.052425 
L 308.820893 153.172749 
L 309.781314 152.293073 
L 310.741736 151.413397 
L 311.702157 150.533721 
L 312.662579 149.654044 
L 313.623 148.774368 
L 314.583422 147.894692 
L 315.543843 147.015016 
" style="fill:none;stroke:#bb9832;stroke-linecap:round;stroke-width:2.25;"/>
   </g>
   <g id="line2d_4">
    <path clip-path="url(#pc6aff555a9)" d="M 105.406194 306.295455 
L 107.734698 305.365896 
L 110.063202 304.436337 
L 112.391706 303.506778 
L 114.72021 302.577219 
L 117.048714 301.64766 
L 119.377218 300.718102 
L 121.705722 299.788543 
L 124.034226 298.858984 
L 126.36273 297.929425 
L 128.691234 296.999866 
L 131.019738 296.070307 
L 133.348242 295.140749 
L 135.676746 294.21119 
L 138.00525 293.281631 
L 140.333754 292.352072 
L 142.662257 291.422513 
L 144.990761 290.492954 
L 147.319265 289.563395 
L 149.647769 288.633837 
L 151.976273 287.704278 
L 154.304777 286.774719 
L 156.633281 285.84516 
L 158.961785 284.915601 
L 161.290289 283.986042 
L 163.618793 283.056484 
L 165.947297 282.126925 
L 168.275801 281.197366 
L 170.604305 280.267807 
L 172.932809 279.338248 
L 175.261313 278.408689 
L 177.589816 277.479131 
L 179.91832 276.549572 
L 182.246824 275.620013 
L 184.575328 274.690454 
L 186.903832 273.760895 
L 189.232336 272.831336 
L 191.56084 271.901778 
L 193.889344 270.972219 
L 196.217848 270.04266 
L 198.546352 269.113101 
L 200.874856 268.183542 
L 203.20336 267.253983 
L 205.531864 266.324425 
L 207.860368 265.394866 
L 210.188872 264.465307 
L 212.517375 263.535748 
L 214.845879 262.606189 
L 217.174383 261.67663 
L 219.502887 260.747072 
L 221.831391 259.817513 
L 224.159895 258.887954 
L 226.488399 257.958395 
L 228.816903 257.028836 
L 231.145407 256.099277 
L 233.473911 255.169719 
L 235.802415 254.24016 
L 238.130919 253.310601 
L 240.459423 252.381042 
L 242.787927 251.451483 
L 245.116431 250.521924 
L 247.444935 249.592366 
L 249.773438 248.662807 
L 252.101942 247.733248 
L 254.430446 246.803689 
L 256.75895 245.87413 
L 259.087454 244.944571 
L 261.415958 244.015013 
L 263.744462 243.085454 
L 266.072966 242.155895 
L 268.40147 241.226336 
L 270.729974 240.296777 
L 273.058478 239.367218 
L 275.386982 238.437659 
L 277.715486 237.508101 
L 280.04399 236.578542 
L 282.372494 235.648983 
L 284.700997 234.719424 
L 287.029501 233.789865 
L 289.358005 232.860306 
L 291.686509 231.930748 
L 294.015013 231.001189 
L 296.343517 230.07163 
L 298.672021 229.142071 
L 301.000525 228.212512 
L 303.329029 227.282953 
L 305.657533 226.353395 
L 307.986037 225.423836 
L 310.314541 224.494277 
L 312.643045 223.564718 
L 314.971549 222.635159 
L 317.300053 221.7056 
L 319.628556 220.776042 
L 321.95706 219.846483 
L 324.285564 218.916924 
L 326.614068 217.987365 
L 328.942572 217.057806 
L 331.271076 216.128247 
L 333.59958 215.198689 
L 335.928084 214.26913 
" style="fill:none;stroke:#97a431;stroke-linecap:round;stroke-width:2.25;"/>
   </g>
   <g id="line2d_5">
    <path clip-path="url(#pc6aff555a9)" d="M 194.256788 272.018425 
L 195.375761 272.035484 
L 196.494734 272.052543 
L 197.613707 272.069601 
L 198.73268 272.08666 
L 199.851653 272.103719 
L 200.970626 272.120777 
L 202.089599 272.137836 
L 203.208572 272.154895 
L 204.327545 272.171953 
L 205.446518 272.189012 
L 206.565491 272.206071 
L 207.684464 272.223129 
L 208.803438 272.240188 
L 209.922411 272.257247 
L 211.041384 272.274305 
L 212.160357 272.291364 
L 213.27933 272.308423 
L 214.398303 272.325481 
L 215.517276 272.34254 
L 216.636249 272.359598 
L 217.755222 272.376657 
L 218.874195 272.393716 
L 219.993168 272.410774 
L 221.112141 272.427833 
L 222.231114 272.444892 
L 223.350087 272.46195 
L 224.469061 272.479009 
L 225.588034 272.496068 
L 226.707007 272.513126 
L 227.82598 272.530185 
L 228.944953 272.547244 
L 230.063926 272.564302 
L 231.182899 272.581361 
L 232.301872 272.59842 
L 233.420845 272.615478 
L 234.539818 272.632537 
L 235.658791 272.649596 
L 236.777764 272.666654 
L 237.896737 272.683713 
L 239.015711 272.700772 
L 240.134684 272.71783 
L 241.253657 272.734889 
L 242.37263 272.751948 
L 243.491603 272.769006 
L 244.610576 272.786065 
L 245.729549 272.803124 
L 246.848522 272.820182 
L 247.967495 272.837241 
L 249.086468 272.8543 
L 250.205441 272.871358 
L 251.324414 272.888417 
L 252.443387 272.905476 
L 253.56236 272.922534 
L 254.681334 272.939593 
L 255.800307 272.956651 
L 256.91928 272.97371 
L 258.038253 272.990769 
L 259.157226 273.007827 
L 260.276199 273.024886 
L 261.395172 273.041945 
L 262.514145 273.059003 
L 263.633118 273.076062 
L 264.752091 273.093121 
L 265.871064 273.110179 
L 266.990037 273.127238 
L 268.10901 273.144297 
L 269.227983 273.161355 
L 270.346957 273.178414 
L 271.46593 273.195473 
L 272.584903 273.212531 
L 273.703876 273.22959 
L 274.822849 273.246649 
L 275.941822 273.263707 
L 277.060795 273.280766 
L 278.179768 273.297825 
L 279.298741 273.314883 
L 280.417714 273.331942 
L 281.536687 273.349001 
L 282.65566 273.366059 
L 283.774633 273.383118 
L 284.893607 273.400177 
L 286.01258 273.417235 
L 287.131553 273.434294 
L 288.250526 273.451353 
L 289.369499 273.468411 
L 290.488472 273.48547 
L 291.607445 273.502528 
L 292.726418 273.519587 
L 293.845391 273.536646 
L 294.964364 273.553704 
L 296.083337 273.570763 
L 297.20231 273.587822 
L 298.321283 273.60488 
L 299.440256 273.621939 
L 300.55923 273.638998 
L 301.678203 273.656056 
L 302.797176 273.673115 
L 303.916149 273.690174 
L 305.035122 273.707232 
" style="fill:none;stroke:#50b131;stroke-linecap:round;stroke-width:2.25;"/>
   </g>
   <g id="line2d_6">
    <path clip-path="url(#pc6aff555a9)" d="M 163.630267 166.130563 
L 164.458318 165.760769 
L 165.28637 165.390975 
L 166.114422 165.021181 
L 166.942473 164.651387 
L 167.770525 164.281592 
L 168.598577 163.911798 
L 169.426629 163.542004 
L 170.25468 163.17221 
L 171.082732 162.802416 
L 171.910784 162.432621 
L 172.738835 162.062827 
L 173.566887 161.693033 
L 174.394939 161.323239 
L 175.22299 160.953445 
L 176.051042 160.583651 
L 176.879094 160.213856 
L 177.707145 159.844062 
L 178.535197 159.474268 
L 179.363249 159.104474 
L 180.191301 158.73468 
L 181.019352 158.364886 
L 181.847404 157.995091 
L 182.675456 157.625297 
L 183.503507 157.255503 
L 184.331559 156.885709 
L 185.159611 156.515915 
L 185.987662 156.146121 
L 186.815714 155.776326 
L 187.643766 155.406532 
L 188.471818 155.036738 
L 189.299869 154.666944 
L 190.127921 154.29715 
L 190.955973 153.927356 
L 191.784024 153.557561 
L 192.612076 153.187767 
L 193.440128 152.817973 
L 194.268179 152.448179 
L 195.096231 152.078385 
L 195.924283 151.70859 
L 196.752334 151.338796 
L 197.580386 150.969002 
L 198.408438 150.599208 
L 199.23649 150.229414 
L 200.064541 149.85962 
L 200.892593 149.489825 
L 201.720645 149.120031 
L 202.548696 148.750237 
L 203.376748 148.380443 
L 204.2048 148.010649 
L 205.032851 147.640855 
L 205.860903 147.27106 
L 206.688955 146.901266 
L 207.517006 146.531472 
L 208.345058 146.161678 
L 209.17311 145.791884 
L 210.001162 145.42209 
L 210.829213 145.052295 
L 211.657265 144.682501 
L 212.485317 144.312707 
L 213.313368 143.942913 
L 214.14142 143.573119 
L 214.969472 143.203325 
L 215.797523 142.83353 
L 216.625575 142.463736 
L 217.453627 142.093942 
L 218.281679 141.724148 
L 219.10973 141.354354 
L 219.937782 140.984559 
L 220.765834 140.614765 
L 221.593885 140.244971 
L 222.421937 139.875177 
L 223.249989 139.505383 
L 224.07804 139.135589 
L 224.906092 138.765794 
L 225.734144 138.396 
L 226.562195 138.026206 
L 227.390247 137.656412 
L 228.218299 137.286618 
L 229.046351 136.916824 
L 229.874402 136.547029 
L 230.702454 136.177235 
L 231.530506 135.807441 
L 232.358557 135.437647 
L 233.186609 135.067853 
L 234.014661 134.698059 
L 234.842712 134.328264 
L 235.670764 133.95847 
L 236.498816 133.588676 
L 237.326867 133.218882 
L 238.154919 132.849088 
L 238.982971 132.479294 
L 239.811023 132.109499 
L 240.639074 131.739705 
L 241.467126 131.369911 
L 242.295178 131.000117 
L 243.123229 130.630323 
L 243.951281 130.260528 
L 244.779333 129.890734 
L 245.607384 129.52094 
" style="fill:none;stroke:#34af84;stroke-linecap:round;stroke-width:2.25;"/>
   </g>
   <g id="line2d_7">
    <path clip-path="url(#pc6aff555a9)" d="M 194.501929 190.577906 
L 195.630284 189.769534 
L 196.758638 188.961162 
L 197.886993 188.15279 
L 199.015347 187.344418 
L 200.143702 186.536046 
L 201.272057 185.727674 
L 202.400411 184.919302 
L 203.528766 184.11093 
L 204.65712 183.302558 
L 205.785475 182.494186 
L 206.913829 181.685814 
L 208.042184 180.877442 
L 209.170538 180.06907 
L 210.298893 179.260698 
L 211.427248 178.452326 
L 212.555602 177.643954 
L 213.683957 176.835582 
L 214.812311 176.02721 
L 215.940666 175.218838 
L 217.06902 174.410466 
L 218.197375 173.602094 
L 219.32573 172.793722 
L 220.454084 171.98535 
L 221.582439 171.176978 
L 222.710793 170.368606 
L 223.839148 169.560234 
L 224.967502 168.751862 
L 226.095857 167.94349 
L 227.224211 167.135118 
L 228.352566 166.326746 
L 229.480921 165.518374 
L 230.609275 164.710002 
L 231.73763 163.90163 
L 232.865984 163.093258 
L 233.994339 162.284886 
L 235.122693 161.476514 
L 236.251048 160.668142 
L 237.379402 159.85977 
L 238.507757 159.051398 
L 239.636112 158.243026 
L 240.764466 157.434654 
L 241.892821 156.626282 
L 243.021175 155.81791 
L 244.14953 155.009538 
L 245.277884 154.201166 
L 246.406239 153.392794 
L 247.534594 152.584422 
L 248.662948 151.77605 
L 249.791303 150.967678 
L 250.919657 150.159306 
L 252.048012 149.350934 
L 253.176366 148.542562 
L 254.304721 147.73419 
L 255.433075 146.925818 
L 256.56143 146.117446 
L 257.689785 145.309074 
L 258.818139 144.500702 
L 259.946494 143.69233 
L 261.074848 142.883958 
L 262.203203 142.075586 
L 263.331557 141.267214 
L 264.459912 140.458842 
L 265.588267 139.65047 
L 266.716621 138.842098 
L 267.844976 138.033726 
L 268.97333 137.225354 
L 270.101685 136.416982 
L 271.230039 135.60861 
L 272.358394 134.800238 
L 273.486748 133.991866 
L 274.615103 133.183494 
L 275.743458 132.375122 
L 276.871812 131.56675 
L 278.000167 130.758378 
L 279.128521 129.950006 
L 280.256876 129.141634 
L 281.38523 128.333262 
L 282.513585 127.52489 
L 283.64194 126.716518 
L 284.770294 125.908146 
L 285.898649 125.099774 
L 287.027003 124.291402 
L 288.155358 123.48303 
L 289.283712 122.674658 
L 290.412067 121.866286 
L 291.540421 121.057914 
L 292.668776 120.249542 
L 293.797131 119.44117 
L 294.925485 118.632798 
L 296.05384 117.824426 
L 297.182194 117.016054 
L 298.310549 116.207682 
L 299.438903 115.39931 
L 300.567258 114.590938 
L 301.695612 113.782566 
L 302.823967 112.974194 
L 303.952322 112.165822 
L 305.080676 111.35745 
L 306.209031 110.549078 
" style="fill:none;stroke:#36ada4;stroke-linecap:round;stroke-width:2.25;"/>
   </g>
   <g id="line2d_8">
    <path clip-path="url(#pc6aff555a9)" d="M 74.212888 151.613347 
L 75.775523 151.92476 
L 77.338157 152.236172 
L 78.900792 152.547584 
L 80.463426 152.858996 
L 82.026061 153.170408 
L 83.588695 153.48182 
L 85.151329 153.793232 
L 86.713964 154.104644 
L 88.276598 154.416056 
L 89.839233 154.727468 
L 91.401867 155.03888 
L 92.964502 155.350292 
L 94.527136 155.661704 
L 96.089771 155.973116 
L 97.652405 156.284528 
L 99.21504 156.59594 
L 100.777674 156.907352 
L 102.340309 157.218764 
L 103.902943 157.530176 
L 105.465578 157.841588 
L 107.028212 158.153 
L 108.590846 158.464412 
L 110.153481 158.775824 
L 111.716115 159.087236 
L 113.27875 159.398648 
L 114.841384 159.71006 
L 116.404019 160.021472 
L 117.966653 160.332884 
L 119.529288 160.644296 
L 121.091922 160.955708 
L 122.654557 161.26712 
L 124.217191 161.578532 
L 125.779826 161.889944 
L 127.34246 162.201356 
L 128.905095 162.512768 
L 130.467729 162.82418 
L 132.030364 163.135592 
L 133.592998 163.447004 
L 135.155632 163.758416 
L 136.718267 164.069828 
L 138.280901 164.38124 
L 139.843536 164.692652 
L 141.40617 165.004064 
L 142.968805 165.315476 
L 144.531439 165.626888 
L 146.094074 165.9383 
L 147.656708 166.249712 
L 149.219343 166.561125 
L 150.781977 166.872537 
L 152.344612 167.183949 
L 153.907246 167.495361 
L 155.469881 167.806773 
L 157.032515 168.118185 
L 158.595149 168.429597 
L 160.157784 168.741009 
L 161.720418 169.052421 
L 163.283053 169.363833 
L 164.845687 169.675245 
L 166.408322 169.986657 
L 167.970956 170.298069 
L 169.533591 170.609481 
L 171.096225 170.920893 
L 172.65886 171.232305 
L 174.221494 171.543717 
L 175.784129 171.855129 
L 177.346763 172.166541 
L 178.909398 172.477953 
L 180.472032 172.789365 
L 182.034666 173.100777 
L 183.597301 173.412189 
L 185.159935 173.723601 
L 186.72257 174.035013 
L 188.285204 174.346425 
L 189.847839 174.657837 
L 191.410473 174.969249 
L 192.973108 175.280661 
L 194.535742 175.592073 
L 196.098377 175.903485 
L 197.661011 176.214897 
L 199.223646 176.526309 
L 200.78628 176.837721 
L 202.348915 177.149133 
L 203.911549 177.460545 
L 205.474184 177.771957 
L 207.036818 178.083369 
L 208.599452 178.394781 
L 210.162087 178.706193 
L 211.724721 179.017605 
L 213.287356 179.329017 
L 214.84999 179.640429 
L 216.412625 179.951841 
L 217.975259 180.263253 
L 219.537894 180.574665 
L 221.100528 180.886077 
L 222.663163 181.19749 
L 224.225797 181.508902 
L 225.788432 181.820314 
L 227.351066 182.131726 
L 228.913701 182.443138 
" style="fill:none;stroke:#38aabf;stroke-linecap:round;stroke-width:2.25;"/>
   </g>
   <g id="line2d_9">
    <path clip-path="url(#pc6aff555a9)" d="M 151.262872 285.546771 
L 152.230483 284.759282 
L 153.198095 283.971794 
L 154.165706 283.184305 
L 155.133317 282.396816 
L 156.100929 281.609327 
L 157.06854 280.821839 
L 158.036151 280.03435 
L 159.003763 279.246861 
L 159.971374 278.459372 
L 160.938986 277.671884 
L 161.906597 276.884395 
L 162.874208 276.096906 
L 163.84182 275.309417 
L 164.809431 274.521929 
L 165.777042 273.73444 
L 166.744654 272.946951 
L 167.712265 272.159462 
L 168.679877 271.371974 
L 169.647488 270.584485 
L 170.615099 269.796996 
L 171.582711 269.009507 
L 172.550322 268.222019 
L 173.517933 267.43453 
L 174.485545 266.647041 
L 175.453156 265.859552 
L 176.420768 265.072064 
L 177.388379 264.284575 
L 178.35599 263.497086 
L 179.323602 262.709598 
L 180.291213 261.922109 
L 181.258824 261.13462 
L 182.226436 260.347131 
L 183.194047 259.559643 
L 184.161658 258.772154 
L 185.12927 257.984665 
L 186.096881 257.197176 
L 187.064493 256.409688 
L 188.032104 255.622199 
L 188.999715 254.83471 
L 189.967327 254.047221 
L 190.934938 253.259733 
L 191.902549 252.472244 
L 192.870161 251.684755 
L 193.837772 250.897266 
L 194.805384 250.109778 
L 195.772995 249.322289 
L 196.740606 248.5348 
L 197.708218 247.747311 
L 198.675829 246.959823 
L 199.64344 246.172334 
L 200.611052 245.384845 
L 201.578663 244.597356 
L 202.546275 243.809868 
L 203.513886 243.022379 
L 204.481497 242.23489 
L 205.449109 241.447401 
L 206.41672 240.659913 
L 207.384331 239.872424 
L 208.351943 239.084935 
L 209.319554 238.297446 
L 210.287165 237.509958 
L 211.254777 236.722469 
L 212.222388 235.93498 
L 213.19 235.147492 
L 214.157611 234.360003 
L 215.125222 233.572514 
L 216.092834 232.785025 
L 217.060445 231.997537 
L 218.028056 231.210048 
L 218.995668 230.422559 
L 219.963279 229.63507 
L 220.930891 228.847582 
L 221.898502 228.060093 
L 222.866113 227.272604 
L 223.833725 226.485115 
L 224.801336 225.697627 
L 225.768947 224.910138 
L 226.736559 224.122649 
L 227.70417 223.33516 
L 228.671782 222.547672 
L 229.639393 221.760183 
L 230.607004 220.972694 
L 231.574616 220.185205 
L 232.542227 219.397717 
L 233.509838 218.610228 
L 234.47745 217.822739 
L 235.445061 217.03525 
L 236.412672 216.247762 
L 237.380284 215.460273 
L 238.347895 214.672784 
L 239.315507 213.885295 
L 240.283118 213.097807 
L 241.250729 212.310318 
L 242.218341 211.522829 
L 243.185952 210.73534 
L 244.153563 209.947852 
L 245.121175 209.160363 
L 246.088786 208.372874 
L 247.056398 207.585386 
" style="fill:none;stroke:#3ba3ec;stroke-linecap:round;stroke-width:2.25;"/>
   </g>
   <g id="line2d_10">
    <path clip-path="url(#pc6aff555a9)" d="M 121.616413 275.941042 
L 123.541289 275.000501 
L 125.466164 274.059961 
L 127.391039 273.119421 
L 129.315915 272.17888 
L 131.24079 271.23834 
L 133.165665 270.2978 
L 135.090541 269.357259 
L 137.015416 268.416719 
L 138.940291 267.476179 
L 140.865167 266.535638 
L 142.790042 265.595098 
L 144.714917 264.654558 
L 146.639792 263.714017 
L 148.564668 262.773477 
L 150.489543 261.832937 
L 152.414418 260.892396 
L 154.339294 259.951856 
L 156.264169 259.011316 
L 158.189044 258.070775 
L 160.11392 257.130235 
L 162.038795 256.189694 
L 163.96367 255.249154 
L 165.888546 254.308614 
L 167.813421 253.368073 
L 169.738296 252.427533 
L 171.663171 251.486993 
L 173.588047 250.546452 
L 175.512922 249.605912 
L 177.437797 248.665372 
L 179.362673 247.724831 
L 181.287548 246.784291 
L 183.212423 245.843751 
L 185.137299 244.90321 
L 187.062174 243.96267 
L 188.987049 243.02213 
L 190.911924 242.081589 
L 192.8368 241.141049 
L 194.761675 240.200509 
L 196.68655 239.259968 
L 198.611426 238.319428 
L 200.536301 237.378888 
L 202.461176 236.438347 
L 204.386052 235.497807 
L 206.310927 234.557267 
L 208.235802 233.616726 
L 210.160678 232.676186 
L 212.085553 231.735646 
L 214.010428 230.795105 
L 215.935303 229.854565 
L 217.860179 228.914024 
L 219.785054 227.973484 
L 221.709929 227.032944 
L 223.634805 226.092403 
L 225.55968 225.151863 
L 227.484555 224.211323 
L 229.409431 223.270782 
L 231.334306 222.330242 
L 233.259181 221.389702 
L 235.184057 220.449161 
L 237.108932 219.508621 
L 239.033807 218.568081 
L 240.958682 217.62754 
L 242.883558 216.687 
L 244.808433 215.74646 
L 246.733308 214.805919 
L 248.658184 213.865379 
L 250.583059 212.924839 
L 252.507934 211.984298 
L 254.43281 211.043758 
L 256.357685 210.103218 
L 258.28256 209.162677 
L 260.207436 208.222137 
L 262.132311 207.281597 
L 264.057186 206.341056 
L 265.982061 205.400516 
L 267.906937 204.459976 
L 269.831812 203.519435 
L 271.756687 202.578895 
L 273.681563 201.638354 
L 275.606438 200.697814 
L 277.531313 199.757274 
L 279.456189 198.816733 
L 281.381064 197.876193 
L 283.305939 196.935653 
L 285.230815 195.995112 
L 287.15569 195.054572 
L 289.080565 194.114032 
L 291.00544 193.173491 
L 292.930316 192.232951 
L 294.855191 191.292411 
L 296.780066 190.35187 
L 298.704942 189.41133 
L 300.629817 188.47079 
L 302.554692 187.530249 
L 304.479568 186.589709 
L 306.404443 185.649169 
L 308.329318 184.708628 
L 310.254194 183.768088 
L 312.179069 182.827548 
" style="fill:none;stroke:#a48cf4;stroke-linecap:round;stroke-width:2.25;"/>
   </g>
   <g id="line2d_11">
    <path clip-path="url(#pc6aff555a9)" d="M 150.24153 273.132644 
L 150.996749 272.841745 
L 151.751968 272.550846 
L 152.507187 272.259947 
L 153.262406 271.969048 
L 154.017625 271.678149 
L 154.772844 271.38725 
L 155.528062 271.096351 
L 156.283281 270.805451 
L 157.0385 270.514552 
L 157.793719 270.223653 
L 158.548938 269.932754 
L 159.304157 269.641855 
L 160.059376 269.350956 
L 160.814595 269.060057 
L 161.569814 268.769157 
L 162.325033 268.478258 
L 163.080251 268.187359 
L 163.83547 267.89646 
L 164.590689 267.605561 
L 165.345908 267.314662 
L 166.101127 267.023763 
L 166.856346 266.732864 
L 167.611565 266.441964 
L 168.366784 266.151065 
L 169.122003 265.860166 
L 169.877222 265.569267 
L 170.63244 265.278368 
L 171.387659 264.987469 
L 172.142878 264.69657 
L 172.898097 264.40567 
L 173.653316 264.114771 
L 174.408535 263.823872 
L 175.163754 263.532973 
L 175.918973 263.242074 
L 176.674192 262.951175 
L 177.429411 262.660276 
L 178.184629 262.369377 
L 178.939848 262.078477 
L 179.695067 261.787578 
L 180.450286 261.496679 
L 181.205505 261.20578 
L 181.960724 260.914881 
L 182.715943 260.623982 
L 183.471162 260.333083 
L 184.226381 260.042183 
L 184.981599 259.751284 
L 185.736818 259.460385 
L 186.492037 259.169486 
L 187.247256 258.878587 
L 188.002475 258.587688 
L 188.757694 258.296789 
L 189.512913 258.00589 
L 190.268132 257.71499 
L 191.023351 257.424091 
L 191.77857 257.133192 
L 192.533788 256.842293 
L 193.289007 256.551394 
L 194.044226 256.260495 
L 194.799445 255.969596 
L 195.554664 255.678696 
L 196.309883 255.387797 
L 197.065102 255.096898 
L 197.820321 254.805999 
L 198.57554 254.5151 
L 199.330759 254.224201 
L 200.085977 253.933302 
L 200.841196 253.642403 
L 201.596415 253.351503 
L 202.351634 253.060604 
L 203.106853 252.769705 
L 203.862072 252.478806 
L 204.617291 252.187907 
L 205.37251 251.897008 
L 206.127729 251.606109 
L 206.882948 251.315209 
L 207.638166 251.02431 
L 208.393385 250.733411 
L 209.148604 250.442512 
L 209.903823 250.151613 
L 210.659042 249.860714 
L 211.414261 249.569815 
L 212.16948 249.278916 
L 212.924699 248.988016 
L 213.679918 248.697117 
L 214.435137 248.406218 
L 215.190355 248.115319 
L 215.945574 247.82442 
L 216.700793 247.533521 
L 217.456012 247.242622 
L 218.211231 246.951723 
L 218.96645 246.660823 
L 219.721669 246.369924 
L 220.476888 246.079025 
L 221.232107 245.788126 
L 221.987326 245.497227 
L 222.742544 245.206328 
L 223.497763 244.915429 
L 224.252982 244.624529 
L 225.008201 244.33363 
" style="fill:none;stroke:#e866f4;stroke-linecap:round;stroke-width:2.25;"/>
   </g>
   <g id="line2d_12">
    <path clip-path="url(#pc6aff555a9)" d="M 143.258103 288.331118 
L 143.47168 288.288342 
L 143.685256 288.245567 
L 143.898833 288.202791 
L 144.112409 288.160016 
L 144.325986 288.117241 
L 144.539562 288.074465 
L 144.753139 288.03169 
L 144.966715 287.988914 
L 145.180291 287.946139 
L 145.393868 287.903364 
L 145.607444 287.860588 
L 145.821021 287.817813 
L 146.034597 287.775038 
L 146.248174 287.732262 
L 146.46175 287.689487 
L 146.675327 287.646711 
L 146.888903 287.603936 
L 147.102479 287.561161 
L 147.316056 287.518385 
L 147.529632 287.47561 
L 147.743209 287.432834 
L 147.956785 287.390059 
L 148.170362 287.347284 
L 148.383938 287.304508 
L 148.597515 287.261733 
L 148.811091 287.218957 
L 149.024668 287.176182 
L 149.238244 287.133407 
L 149.45182 287.090631 
L 149.665397 287.047856 
L 149.878973 287.005081 
L 150.09255 286.962305 
L 150.306126 286.91953 
L 150.519703 286.876754 
L 150.733279 286.833979 
L 150.946856 286.791204 
L 151.160432 286.748428 
L 151.374009 286.705653 
L 151.587585 286.662877 
L 151.801161 286.620102 
L 152.014738 286.577327 
L 152.228314 286.534551 
L 152.441891 286.491776 
L 152.655467 286.449001 
L 152.869044 286.406225 
L 153.08262 286.36345 
L 153.296197 286.320674 
L 153.509773 286.277899 
L 153.72335 286.235124 
L 153.936926 286.192348 
L 154.150502 286.149573 
L 154.364079 286.106797 
L 154.577655 286.064022 
L 154.791232 286.021247 
L 155.004808 285.978471 
L 155.218385 285.935696 
L 155.431961 285.89292 
L 155.645538 285.850145 
L 155.859114 285.80737 
L 156.072691 285.764594 
L 156.286267 285.721819 
L 156.499843 285.679044 
L 156.71342 285.636268 
L 156.926996 285.593493 
L 157.140573 285.550717 
L 157.354149 285.507942 
L 157.567726 285.465167 
L 157.781302 285.422391 
L 157.994879 285.379616 
L 158.208455 285.33684 
L 158.422031 285.294065 
L 158.635608 285.25129 
L 158.849184 285.208514 
L 159.062761 285.165739 
L 159.276337 285.122963 
L 159.489914 285.080188 
L 159.70349 285.037413 
L 159.917067 284.994637 
L 160.130643 284.951862 
L 160.34422 284.909087 
L 160.557796 284.866311 
L 160.771372 284.823536 
L 160.984949 284.78076 
L 161.198525 284.737985 
L 161.412102 284.69521 
L 161.625678 284.652434 
L 161.839255 284.609659 
L 162.052831 284.566883 
L 162.266408 284.524108 
L 162.479984 284.481333 
L 162.693561 284.438557 
L 162.907137 284.395782 
L 163.120713 284.353007 
L 163.33429 284.310231 
L 163.547866 284.267456 
L 163.761443 284.22468 
L 163.975019 284.181905 
L 164.188596 284.13913 
L 164.402172 284.096354 
" style="fill:none;stroke:#f668c2;stroke-linecap:round;stroke-width:2.25;"/>
   </g>
   <g id="patch_3">
    <path d="M 54.522222 320.2 
L 54.522222 14.3 
" style="fill:none;stroke:#262626;stroke-linecap:square;stroke-linejoin:miter;stroke-width:0.8;"/>
   </g>
   <g id="patch_4">
    <path d="M 54.522222 320.2 
L 355.61875 320.2 
" style="fill:none;stroke:#262626;stroke-linecap:square;stroke-linejoin:miter;stroke-width:0.8;"/>
   </g>
   <g id="text_15">
    <!-- r=0.453, p=1.68e-4 -->
    <defs>
     <path d="M 52.828125 42.09375 
L 5.5625 42.09375 
L 5.5625 50.296875 
L 52.828125 50.296875 
z
M 52.828125 20.359375 
L 5.5625 20.359375 
L 5.5625 28.5625 
L 52.828125 28.5625 
z
" id="ArialMT-61"/>
     <path d="M 8.890625 0 
L 8.890625 10.015625 
L 18.890625 10.015625 
L 18.890625 0 
Q 18.890625 -5.515625 16.9375 -8.90625 
Q 14.984375 -12.3125 10.75 -14.15625 
L 8.296875 -10.40625 
Q 11.078125 -9.1875 12.390625 -6.8125 
Q 13.71875 -4.4375 13.875 0 
z
" id="ArialMT-44"/>
     <path d="M 17.671875 38.8125 
Q 12.203125 40.828125 9.5625 44.53125 
Q 6.9375 48.25 6.9375 53.421875 
Q 6.9375 61.234375 12.546875 66.546875 
Q 18.171875 71.875 27.484375 71.875 
Q 36.859375 71.875 42.578125 66.421875 
Q 48.296875 60.984375 48.296875 53.171875 
Q 48.296875 48.1875 45.671875 44.5 
Q 43.0625 40.828125 37.75 38.8125 
Q 44.34375 36.671875 47.78125 31.875 
Q 51.21875 27.09375 51.21875 20.453125 
Q 51.21875 11.28125 44.71875 5.03125 
Q 38.234375 -1.21875 27.640625 -1.21875 
Q 17.046875 -1.21875 10.546875 5.046875 
Q 4.046875 11.328125 4.046875 20.703125 
Q 4.046875 27.6875 7.59375 32.390625 
Q 11.140625 37.109375 17.671875 38.8125 
z
M 15.921875 53.71875 
Q 15.921875 48.640625 19.1875 45.40625 
Q 22.46875 42.1875 27.6875 42.1875 
Q 32.765625 42.1875 36.015625 45.375 
Q 39.265625 48.578125 39.265625 53.21875 
Q 39.265625 58.0625 35.90625 61.359375 
Q 32.5625 64.65625 27.59375 64.65625 
Q 22.5625 64.65625 19.234375 61.421875 
Q 15.921875 58.203125 15.921875 53.71875 
z
M 13.09375 20.65625 
Q 13.09375 16.890625 14.875 13.375 
Q 16.65625 9.859375 20.171875 7.921875 
Q 23.6875 6 27.734375 6 
Q 34.03125 6 38.125 10.046875 
Q 42.234375 14.109375 42.234375 20.359375 
Q 42.234375 26.703125 38.015625 30.859375 
Q 33.796875 35.015625 27.4375 35.015625 
Q 21.234375 35.015625 17.15625 30.90625 
Q 13.09375 26.8125 13.09375 20.65625 
z
" id="ArialMT-56"/>
     <path d="M 3.171875 21.484375 
L 3.171875 30.328125 
L 30.171875 30.328125 
L 30.171875 21.484375 
z
" id="ArialMT-45"/>
    </defs>
    <g style="fill:#262626;" transform="translate(162.855933 74.819321)scale(0.15 -0.15)">
     <use xlink:href="#ArialMT-114"/>
     <use x="33.300781" xlink:href="#ArialMT-61"/>
     <use x="91.699219" xlink:href="#ArialMT-48"/>
     <use x="147.314453" xlink:href="#ArialMT-46"/>
     <use x="175.097656" xlink:href="#ArialMT-52"/>
     <use x="230.712891" xlink:href="#ArialMT-53"/>
     <use x="286.328125" xlink:href="#ArialMT-51"/>
     <use x="341.943359" xlink:href="#ArialMT-44"/>
     <use x="369.726562" xlink:href="#ArialMT-32"/>
     <use x="397.509766" xlink:href="#ArialMT-112"/>
     <use x="453.125" xlink:href="#ArialMT-61"/>
     <use x="511.523438" xlink:href="#ArialMT-49"/>
     <use x="567.138672" xlink:href="#ArialMT-46"/>
     <use x="594.921875" xlink:href="#ArialMT-54"/>
     <use x="650.537109" xlink:href="#ArialMT-56"/>
     <use x="706.152344" xlink:href="#ArialMT-101"/>
     <use x="761.767578" xlink:href="#ArialMT-45"/>
     <use x="795.068359" xlink:href="#ArialMT-52"/>
    </g>
   </g>
  </g>
  <g id="legend_1">
   <g id="text_16">
    <!-- host_subject_id -->
    <defs>
     <path d="M -1.515625 -19.875 
L -1.515625 -13.53125 
L 56.734375 -13.53125 
L 56.734375 -19.875 
z
" id="ArialMT-95"/>
     <path d="M 40.578125 0 
L 40.578125 7.625 
Q 34.515625 -1.171875 24.125 -1.171875 
Q 19.53125 -1.171875 15.546875 0.578125 
Q 11.578125 2.34375 9.640625 5 
Q 7.71875 7.671875 6.9375 11.53125 
Q 6.390625 14.109375 6.390625 19.734375 
L 6.390625 51.859375 
L 15.1875 51.859375 
L 15.1875 23.09375 
Q 15.1875 16.21875 15.71875 13.8125 
Q 16.546875 10.359375 19.234375 8.375 
Q 21.921875 6.390625 25.875 6.390625 
Q 29.828125 6.390625 33.296875 8.421875 
Q 36.765625 10.453125 38.203125 13.9375 
Q 39.65625 17.4375 39.65625 24.078125 
L 39.65625 51.859375 
L 48.4375 51.859375 
L 48.4375 0 
z
" id="ArialMT-117"/>
     <path d="M 14.703125 0 
L 6.546875 0 
L 6.546875 71.578125 
L 15.328125 71.578125 
L 15.328125 46.046875 
Q 20.90625 53.03125 29.546875 53.03125 
Q 34.328125 53.03125 38.59375 51.09375 
Q 42.875 49.171875 45.625 45.671875 
Q 48.390625 42.1875 49.953125 37.25 
Q 51.515625 32.328125 51.515625 26.703125 
Q 51.515625 13.375 44.921875 6.09375 
Q 38.328125 -1.171875 29.109375 -1.171875 
Q 19.921875 -1.171875 14.703125 6.5 
z
M 14.59375 26.3125 
Q 14.59375 17 17.140625 12.84375 
Q 21.296875 6.0625 28.375 6.0625 
Q 34.125 6.0625 38.328125 11.0625 
Q 42.53125 16.0625 42.53125 25.984375 
Q 42.53125 36.140625 38.5 40.96875 
Q 34.46875 45.796875 28.765625 45.796875 
Q 23 45.796875 18.796875 40.796875 
Q 14.59375 35.796875 14.59375 26.3125 
z
" id="ArialMT-98"/>
     <path d="M 6.546875 61.375 
L 6.546875 71.578125 
L 15.328125 71.578125 
L 15.328125 61.375 
z
M -4.59375 -20.125 
L -2.9375 -12.640625 
Q -0.296875 -13.328125 1.21875 -13.328125 
Q 3.90625 -13.328125 5.21875 -11.546875 
Q 6.546875 -9.765625 6.546875 -2.640625 
L 6.546875 51.859375 
L 15.328125 51.859375 
L 15.328125 -2.828125 
Q 15.328125 -12.40625 12.84375 -16.15625 
Q 9.671875 -21.046875 2.296875 -21.046875 
Q -1.265625 -21.046875 -4.59375 -20.125 
z
" id="ArialMT-106"/>
    </defs>
    <g style="fill:#262626;" transform="translate(359.6375 97.654688)scale(0.1 -0.1)">
     <use xlink:href="#ArialMT-104"/>
     <use x="55.615234" xlink:href="#ArialMT-111"/>
     <use x="111.230469" xlink:href="#ArialMT-115"/>
     <use x="161.230469" xlink:href="#ArialMT-116"/>
     <use x="189.013672" xlink:href="#ArialMT-95"/>
     <use x="244.628906" xlink:href="#ArialMT-115"/>
     <use x="294.628906" xlink:href="#ArialMT-117"/>
     <use x="350.244141" xlink:href="#ArialMT-98"/>
     <use x="405.859375" xlink:href="#ArialMT-106"/>
     <use x="428.076172" xlink:href="#ArialMT-101"/>
     <use x="483.691406" xlink:href="#ArialMT-99"/>
     <use x="533.691406" xlink:href="#ArialMT-116"/>
     <use x="561.474609" xlink:href="#ArialMT-95"/>
     <use x="617.089844" xlink:href="#ArialMT-105"/>
     <use x="639.306641" xlink:href="#ArialMT-100"/>
    </g>
   </g>
   <g id="PathCollection_13">
    <g>
     <use style="fill:#f77189;fill-opacity:0.8;stroke:#f77189;stroke-opacity:0.8;" x="374.264062" xlink:href="#m17cd9f5e3a" y="109.292188"/>
    </g>
   </g>
   <g id="text_17">
    <!-- DM001 -->
    <defs>
     <path d="M 7.421875 0 
L 7.421875 71.578125 
L 21.6875 71.578125 
L 38.625 20.90625 
Q 40.96875 13.8125 42.046875 10.296875 
Q 43.265625 14.203125 45.84375 21.78125 
L 62.984375 71.578125 
L 75.734375 71.578125 
L 75.734375 0 
L 66.609375 0 
L 66.609375 59.90625 
L 45.796875 0 
L 37.25 0 
L 16.546875 60.9375 
L 16.546875 0 
z
" id="ArialMT-77"/>
    </defs>
    <g style="fill:#262626;" transform="translate(392.264062 111.917188)scale(0.1 -0.1)">
     <use xlink:href="#ArialMT-68"/>
     <use x="72.216797" xlink:href="#ArialMT-77"/>
     <use x="155.517578" xlink:href="#ArialMT-48"/>
     <use x="211.132812" xlink:href="#ArialMT-48"/>
     <use x="266.748047" xlink:href="#ArialMT-49"/>
    </g>
   </g>
   <g id="PathCollection_14">
    <g>
     <use style="fill:#e68332;fill-opacity:0.8;stroke:#e68332;stroke-opacity:0.8;" x="374.264062" xlink:href="#m426c8f4030" y="123.4375"/>
    </g>
   </g>
   <g id="text_18">
    <!-- DM002 -->
    <g style="fill:#262626;" transform="translate(392.264062 126.0625)scale(0.1 -0.1)">
     <use xlink:href="#ArialMT-68"/>
     <use x="72.216797" xlink:href="#ArialMT-77"/>
     <use x="155.517578" xlink:href="#ArialMT-48"/>
     <use x="211.132812" xlink:href="#ArialMT-48"/>
     <use x="266.748047" xlink:href="#ArialMT-50"/>
    </g>
   </g>
   <g id="PathCollection_15">
    <g>
     <use style="fill:#bb9832;fill-opacity:0.8;stroke:#bb9832;stroke-opacity:0.8;" x="374.264062" xlink:href="#md1260d0483" y="137.582813"/>
    </g>
   </g>
   <g id="text_19">
    <!-- DM003 -->
    <g style="fill:#262626;" transform="translate(392.264062 140.207813)scale(0.1 -0.1)">
     <use xlink:href="#ArialMT-68"/>
     <use x="72.216797" xlink:href="#ArialMT-77"/>
     <use x="155.517578" xlink:href="#ArialMT-48"/>
     <use x="211.132812" xlink:href="#ArialMT-48"/>
     <use x="266.748047" xlink:href="#ArialMT-51"/>
    </g>
   </g>
   <g id="PathCollection_16">
    <g>
     <use style="fill:#97a431;fill-opacity:0.8;stroke:#97a431;stroke-opacity:0.8;" x="374.264062" xlink:href="#m1fbe3e3894" y="151.728125"/>
    </g>
   </g>
   <g id="text_20">
    <!-- DM006 -->
    <g style="fill:#262626;" transform="translate(392.264062 154.353125)scale(0.1 -0.1)">
     <use xlink:href="#ArialMT-68"/>
     <use x="72.216797" xlink:href="#ArialMT-77"/>
     <use x="155.517578" xlink:href="#ArialMT-48"/>
     <use x="211.132812" xlink:href="#ArialMT-48"/>
     <use x="266.748047" xlink:href="#ArialMT-54"/>
    </g>
   </g>
   <g id="PathCollection_17">
    <g>
     <use style="fill:#50b131;fill-opacity:0.8;stroke:#50b131;stroke-opacity:0.8;" x="374.264062" xlink:href="#me97733fef6" y="165.873438"/>
    </g>
   </g>
   <g id="text_21">
    <!-- DM008 -->
    <g style="fill:#262626;" transform="translate(392.264062 168.498438)scale(0.1 -0.1)">
     <use xlink:href="#ArialMT-68"/>
     <use x="72.216797" xlink:href="#ArialMT-77"/>
     <use x="155.517578" xlink:href="#ArialMT-48"/>
     <use x="211.132812" xlink:href="#ArialMT-48"/>
     <use x="266.748047" xlink:href="#ArialMT-56"/>
    </g>
   </g>
   <g id="PathCollection_18">
    <g>
     <use style="fill:#34af84;fill-opacity:0.8;stroke:#34af84;stroke-opacity:0.8;" x="374.264062" xlink:href="#mda98a82de4" y="180.01875"/>
    </g>
   </g>
   <g id="text_22">
    <!-- DM009 -->
    <defs>
     <path d="M 5.46875 16.546875 
L 13.921875 17.328125 
Q 14.984375 11.375 18.015625 8.6875 
Q 21.046875 6 25.78125 6 
Q 29.828125 6 32.875 7.859375 
Q 35.9375 9.71875 37.890625 12.8125 
Q 39.84375 15.921875 41.15625 21.1875 
Q 42.484375 26.46875 42.484375 31.9375 
Q 42.484375 32.515625 42.4375 33.6875 
Q 39.796875 29.5 35.234375 26.875 
Q 30.671875 24.265625 25.34375 24.265625 
Q 16.453125 24.265625 10.296875 30.703125 
Q 4.15625 37.15625 4.15625 47.703125 
Q 4.15625 58.59375 10.578125 65.234375 
Q 17 71.875 26.65625 71.875 
Q 33.640625 71.875 39.421875 68.109375 
Q 45.21875 64.359375 48.21875 57.390625 
Q 51.21875 50.4375 51.21875 37.25 
Q 51.21875 23.53125 48.234375 15.40625 
Q 45.265625 7.28125 39.375 3.03125 
Q 33.5 -1.21875 25.59375 -1.21875 
Q 17.1875 -1.21875 11.859375 3.4375 
Q 6.546875 8.109375 5.46875 16.546875 
z
M 41.453125 48.140625 
Q 41.453125 55.71875 37.421875 60.15625 
Q 33.40625 64.59375 27.734375 64.59375 
Q 21.875 64.59375 17.53125 59.8125 
Q 13.1875 55.03125 13.1875 47.40625 
Q 13.1875 40.578125 17.3125 36.296875 
Q 21.4375 32.03125 27.484375 32.03125 
Q 33.59375 32.03125 37.515625 36.296875 
Q 41.453125 40.578125 41.453125 48.140625 
z
" id="ArialMT-57"/>
    </defs>
    <g style="fill:#262626;" transform="translate(392.264062 182.64375)scale(0.1 -0.1)">
     <use xlink:href="#ArialMT-68"/>
     <use x="72.216797" xlink:href="#ArialMT-77"/>
     <use x="155.517578" xlink:href="#ArialMT-48"/>
     <use x="211.132812" xlink:href="#ArialMT-48"/>
     <use x="266.748047" xlink:href="#ArialMT-57"/>
    </g>
   </g>
   <g id="PathCollection_19">
    <g>
     <use style="fill:#36ada4;fill-opacity:0.8;stroke:#36ada4;stroke-opacity:0.8;" x="374.264062" xlink:href="#m42f77d0826" y="194.164063"/>
    </g>
   </g>
   <g id="text_23">
    <!-- DM011 -->
    <g style="fill:#262626;" transform="translate(392.264062 196.789063)scale(0.1 -0.1)">
     <use xlink:href="#ArialMT-68"/>
     <use x="72.216797" xlink:href="#ArialMT-77"/>
     <use x="155.517578" xlink:href="#ArialMT-48"/>
     <use x="211.132812" xlink:href="#ArialMT-49"/>
     <use x="266.638672" xlink:href="#ArialMT-49"/>
    </g>
   </g>
   <g id="PathCollection_20">
    <g>
     <use style="fill:#38aabf;fill-opacity:0.8;stroke:#38aabf;stroke-opacity:0.8;" x="374.264062" xlink:href="#m4c3352cd92" y="208.309375"/>
    </g>
   </g>
   <g id="text_24">
    <!-- DM013 -->
    <g style="fill:#262626;" transform="translate(392.264062 210.934375)scale(0.1 -0.1)">
     <use xlink:href="#ArialMT-68"/>
     <use x="72.216797" xlink:href="#ArialMT-77"/>
     <use x="155.517578" xlink:href="#ArialMT-48"/>
     <use x="211.132812" xlink:href="#ArialMT-49"/>
     <use x="266.748047" xlink:href="#ArialMT-51"/>
    </g>
   </g>
   <g id="PathCollection_21">
    <g>
     <use style="fill:#3ba3ec;fill-opacity:0.8;stroke:#3ba3ec;stroke-opacity:0.8;" x="374.264062" xlink:href="#m9f48a5d67d" y="222.454688"/>
    </g>
   </g>
   <g id="text_25">
    <!-- DM014 -->
    <g style="fill:#262626;" transform="translate(392.264062 225.079688)scale(0.1 -0.1)">
     <use xlink:href="#ArialMT-68"/>
     <use x="72.216797" xlink:href="#ArialMT-77"/>
     <use x="155.517578" xlink:href="#ArialMT-48"/>
     <use x="211.132812" xlink:href="#ArialMT-49"/>
     <use x="266.748047" xlink:href="#ArialMT-52"/>
    </g>
   </g>
   <g id="PathCollection_22">
    <g>
     <use style="fill:#a48cf4;fill-opacity:0.8;stroke:#a48cf4;stroke-opacity:0.8;" x="374.264062" xlink:href="#m24ae14807a" y="236.6"/>
    </g>
   </g>
   <g id="text_26">
    <!-- DM015 -->
    <g style="fill:#262626;" transform="translate(392.264062 239.225)scale(0.1 -0.1)">
     <use xlink:href="#ArialMT-68"/>
     <use x="72.216797" xlink:href="#ArialMT-77"/>
     <use x="155.517578" xlink:href="#ArialMT-48"/>
     <use x="211.132812" xlink:href="#ArialMT-49"/>
     <use x="266.748047" xlink:href="#ArialMT-53"/>
    </g>
   </g>
   <g id="PathCollection_23">
    <g>
     <use style="fill:#e866f4;fill-opacity:0.8;stroke:#e866f4;stroke-opacity:0.8;" x="374.264062" xlink:href="#mb1d889acc0" y="250.745313"/>
    </g>
   </g>
   <g id="text_27">
    <!-- DM016 -->
    <g style="fill:#262626;" transform="translate(392.264062 253.370313)scale(0.1 -0.1)">
     <use xlink:href="#ArialMT-68"/>
     <use x="72.216797" xlink:href="#ArialMT-77"/>
     <use x="155.517578" xlink:href="#ArialMT-48"/>
     <use x="211.132812" xlink:href="#ArialMT-49"/>
     <use x="266.748047" xlink:href="#ArialMT-54"/>
    </g>
   </g>
   <g id="PathCollection_24">
    <g>
     <use style="fill:#f668c2;fill-opacity:0.8;stroke:#f668c2;stroke-opacity:0.8;" x="374.264062" xlink:href="#me8f18f9dae" y="264.890625"/>
    </g>
   </g>
   <g id="text_28">
    <!-- DM017 -->
    <defs>
     <path d="M 4.734375 62.203125 
L 4.734375 70.65625 
L 51.078125 70.65625 
L 51.078125 63.8125 
Q 44.234375 56.546875 37.515625 44.484375 
Q 30.8125 32.421875 27.15625 19.671875 
Q 24.515625 10.6875 23.78125 0 
L 14.75 0 
Q 14.890625 8.453125 18.0625 20.40625 
Q 21.234375 32.375 27.171875 43.484375 
Q 33.109375 54.59375 39.796875 62.203125 
z
" id="ArialMT-55"/>
    </defs>
    <g style="fill:#262626;" transform="translate(392.264062 267.515625)scale(0.1 -0.1)">
     <use xlink:href="#ArialMT-68"/>
     <use x="72.216797" xlink:href="#ArialMT-77"/>
     <use x="155.517578" xlink:href="#ArialMT-48"/>
     <use x="211.132812" xlink:href="#ArialMT-49"/>
     <use x="266.748047" xlink:href="#ArialMT-55"/>
    </g>
   </g>
  </g>
 </g>
 <defs>
  <clipPath id="pc6aff555a9">
   <rect height="305.9" width="301.096528" x="54.522222" y="14.3"/>
  </clipPath>
 </defs>
</svg>
